<?xml version="1.0" encoding="utf-8" standalone="no"?>
<!DOCTYPE svg PUBLIC "-//W3C//DTD SVG 1.1//EN"
  "http://www.w3.org/Graphics/SVG/1.1/DTD/svg11.dtd">
<svg xmlns:xlink="http://www.w3.org/1999/xlink" width="415.698125pt" height="333.986375pt" viewBox="0 0 415.698125 333.986375" xmlns="http://www.w3.org/2000/svg" version="1.1">
 <metadata>
  <rdf:RDF xmlns:dc="http://purl.org/dc/elements/1.1/" xmlns:cc="http://creativecommons.org/ns#" xmlns:rdf="http://www.w3.org/1999/02/22-rdf-syntax-ns#">
   <cc:Work>
    <dc:type rdf:resource="http://purl.org/dc/dcmitype/StillImage"/>
    <dc:date>2025-11-26T12:46:23.698446</dc:date>
    <dc:format>image/svg+xml</dc:format>
    <dc:creator>
     <cc:Agent>
      <dc:title>Matplotlib v3.10.7, https://matplotlib.org/</dc:title>
     </cc:Agent>
    </dc:creator>
   </cc:Work>
  </rdf:RDF>
 </metadata>
 <defs>
  <style type="text/css">*{stroke-linejoin: round; stroke-linecap: butt}</style>
 </defs>
 <g id="figure_1">
  <g id="patch_1">
   <path d="M 0 333.986375 
L 415.698125 333.986375 
L 415.698125 0 
L 0 0 
z
" style="fill: #ffffff"/>
  </g>
  <g id="axes_1">
   <g id="patch_2">
    <path d="M 51.378125 296.430125 
L 408.498125 296.430125 
L 408.498125 30.318125 
L 51.378125 30.318125 
z
" style="fill: #ffffff"/>
   </g>
   <g id="matplotlib.axis_1">
    <g id="xtick_1">
     <g id="line2d_1">
      <defs>
       <path id="mf9a82445cc" d="M 0 0 
L 0 3.5 
" style="stroke: #000000; stroke-width: 0.8"/>
      </defs>
      <g>
       <use xlink:href="#mf9a82445cc" x="67.610852" y="296.430125" style="stroke: #000000; stroke-width: 0.8"/>
      </g>
     </g>
     <g id="text_1">
      <!-- $\mathdefault{10^{0}}$ -->
      <g transform="translate(58.810852 311.028562) scale(0.1 -0.1)">
       <defs>
        <path id="DejaVuSans-31" d="M 794 531 
L 1825 531 
L 1825 4091 
L 703 3866 
L 703 4441 
L 1819 4666 
L 2450 4666 
L 2450 531 
L 3481 531 
L 3481 0 
L 794 0 
L 794 531 
z
" transform="scale(0.015625)"/>
        <path id="DejaVuSans-30" d="M 2034 4250 
Q 1547 4250 1301 3770 
Q 1056 3291 1056 2328 
Q 1056 1369 1301 889 
Q 1547 409 2034 409 
Q 2525 409 2770 889 
Q 3016 1369 3016 2328 
Q 3016 3291 2770 3770 
Q 2525 4250 2034 4250 
z
M 2034 4750 
Q 2819 4750 3233 4129 
Q 3647 3509 3647 2328 
Q 3647 1150 3233 529 
Q 2819 -91 2034 -91 
Q 1250 -91 836 529 
Q 422 1150 422 2328 
Q 422 3509 836 4129 
Q 1250 4750 2034 4750 
z
" transform="scale(0.015625)"/>
       </defs>
       <use xlink:href="#DejaVuSans-31" transform="translate(0 0.765625)"/>
       <use xlink:href="#DejaVuSans-30" transform="translate(63.623047 0.765625)"/>
       <use xlink:href="#DejaVuSans-30" transform="translate(128.203125 39.046875) scale(0.7)"/>
      </g>
     </g>
    </g>
    <g id="xtick_2">
     <g id="line2d_2">
      <g>
       <use xlink:href="#mf9a82445cc" x="165.960321" y="296.430125" style="stroke: #000000; stroke-width: 0.8"/>
      </g>
     </g>
     <g id="text_2">
      <!-- $\mathdefault{10^{1}}$ -->
      <g transform="translate(157.160321 311.028562) scale(0.1 -0.1)">
       <use xlink:href="#DejaVuSans-31" transform="translate(0 0.684375)"/>
       <use xlink:href="#DejaVuSans-30" transform="translate(63.623047 0.684375)"/>
       <use xlink:href="#DejaVuSans-31" transform="translate(128.203125 38.965625) scale(0.7)"/>
      </g>
     </g>
    </g>
    <g id="xtick_3">
     <g id="line2d_3">
      <g>
       <use xlink:href="#mf9a82445cc" x="264.309789" y="296.430125" style="stroke: #000000; stroke-width: 0.8"/>
      </g>
     </g>
     <g id="text_3">
      <!-- $\mathdefault{10^{2}}$ -->
      <g transform="translate(255.509789 311.028562) scale(0.1 -0.1)">
       <defs>
        <path id="DejaVuSans-32" d="M 1228 531 
L 3431 531 
L 3431 0 
L 469 0 
L 469 531 
Q 828 903 1448 1529 
Q 2069 2156 2228 2338 
Q 2531 2678 2651 2914 
Q 2772 3150 2772 3378 
Q 2772 3750 2511 3984 
Q 2250 4219 1831 4219 
Q 1534 4219 1204 4116 
Q 875 4013 500 3803 
L 500 4441 
Q 881 4594 1212 4672 
Q 1544 4750 1819 4750 
Q 2544 4750 2975 4387 
Q 3406 4025 3406 3419 
Q 3406 3131 3298 2873 
Q 3191 2616 2906 2266 
Q 2828 2175 2409 1742 
Q 1991 1309 1228 531 
z
" transform="scale(0.015625)"/>
       </defs>
       <use xlink:href="#DejaVuSans-31" transform="translate(0 0.765625)"/>
       <use xlink:href="#DejaVuSans-30" transform="translate(63.623047 0.765625)"/>
       <use xlink:href="#DejaVuSans-32" transform="translate(128.203125 39.046875) scale(0.7)"/>
      </g>
     </g>
    </g>
    <g id="xtick_4">
     <g id="line2d_4">
      <g>
       <use xlink:href="#mf9a82445cc" x="362.659258" y="296.430125" style="stroke: #000000; stroke-width: 0.8"/>
      </g>
     </g>
     <g id="text_4">
      <!-- $\mathdefault{10^{3}}$ -->
      <g transform="translate(353.859258 311.028562) scale(0.1 -0.1)">
       <defs>
        <path id="DejaVuSans-33" d="M 2597 2516 
Q 3050 2419 3304 2112 
Q 3559 1806 3559 1356 
Q 3559 666 3084 287 
Q 2609 -91 1734 -91 
Q 1441 -91 1130 -33 
Q 819 25 488 141 
L 488 750 
Q 750 597 1062 519 
Q 1375 441 1716 441 
Q 2309 441 2620 675 
Q 2931 909 2931 1356 
Q 2931 1769 2642 2001 
Q 2353 2234 1838 2234 
L 1294 2234 
L 1294 2753 
L 1863 2753 
Q 2328 2753 2575 2939 
Q 2822 3125 2822 3475 
Q 2822 3834 2567 4026 
Q 2313 4219 1838 4219 
Q 1578 4219 1281 4162 
Q 984 4106 628 3988 
L 628 4550 
Q 988 4650 1302 4700 
Q 1616 4750 1894 4750 
Q 2613 4750 3031 4423 
Q 3450 4097 3450 3541 
Q 3450 3153 3228 2886 
Q 3006 2619 2597 2516 
z
" transform="scale(0.015625)"/>
       </defs>
       <use xlink:href="#DejaVuSans-31" transform="translate(0 0.765625)"/>
       <use xlink:href="#DejaVuSans-30" transform="translate(63.623047 0.765625)"/>
       <use xlink:href="#DejaVuSans-33" transform="translate(128.203125 39.046875) scale(0.7)"/>
      </g>
     </g>
    </g>
    <g id="xtick_5">
     <g id="line2d_5">
      <defs>
       <path id="mcb039c1ce5" d="M 0 0 
L 0 2 
" style="stroke: #000000; stroke-width: 0.6"/>
      </defs>
      <g>
       <use xlink:href="#mcb039c1ce5" x="52.376327" y="296.430125" style="stroke: #000000; stroke-width: 0.6"/>
      </g>
     </g>
    </g>
    <g id="xtick_6">
     <g id="line2d_6">
      <g>
       <use xlink:href="#mcb039c1ce5" x="58.079804" y="296.430125" style="stroke: #000000; stroke-width: 0.6"/>
      </g>
     </g>
    </g>
    <g id="xtick_7">
     <g id="line2d_7">
      <g>
       <use xlink:href="#mcb039c1ce5" x="63.110627" y="296.430125" style="stroke: #000000; stroke-width: 0.6"/>
      </g>
     </g>
    </g>
    <g id="xtick_8">
     <g id="line2d_8">
      <g>
       <use xlink:href="#mcb039c1ce5" x="97.216992" y="296.430125" style="stroke: #000000; stroke-width: 0.6"/>
      </g>
     </g>
    </g>
    <g id="xtick_9">
     <g id="line2d_9">
      <g>
       <use xlink:href="#mcb039c1ce5" x="114.535474" y="296.430125" style="stroke: #000000; stroke-width: 0.6"/>
      </g>
     </g>
    </g>
    <g id="xtick_10">
     <g id="line2d_10">
      <g>
       <use xlink:href="#mcb039c1ce5" x="126.823132" y="296.430125" style="stroke: #000000; stroke-width: 0.6"/>
      </g>
     </g>
    </g>
    <g id="xtick_11">
     <g id="line2d_11">
      <g>
       <use xlink:href="#mcb039c1ce5" x="136.354181" y="296.430125" style="stroke: #000000; stroke-width: 0.6"/>
      </g>
     </g>
    </g>
    <g id="xtick_12">
     <g id="line2d_12">
      <g>
       <use xlink:href="#mcb039c1ce5" x="144.141614" y="296.430125" style="stroke: #000000; stroke-width: 0.6"/>
      </g>
     </g>
    </g>
    <g id="xtick_13">
     <g id="line2d_13">
      <g>
       <use xlink:href="#mcb039c1ce5" x="150.725795" y="296.430125" style="stroke: #000000; stroke-width: 0.6"/>
      </g>
     </g>
    </g>
    <g id="xtick_14">
     <g id="line2d_14">
      <g>
       <use xlink:href="#mcb039c1ce5" x="156.429272" y="296.430125" style="stroke: #000000; stroke-width: 0.6"/>
      </g>
     </g>
    </g>
    <g id="xtick_15">
     <g id="line2d_15">
      <g>
       <use xlink:href="#mcb039c1ce5" x="161.460096" y="296.430125" style="stroke: #000000; stroke-width: 0.6"/>
      </g>
     </g>
    </g>
    <g id="xtick_16">
     <g id="line2d_16">
      <g>
       <use xlink:href="#mcb039c1ce5" x="195.566461" y="296.430125" style="stroke: #000000; stroke-width: 0.6"/>
      </g>
     </g>
    </g>
    <g id="xtick_17">
     <g id="line2d_17">
      <g>
       <use xlink:href="#mcb039c1ce5" x="212.884943" y="296.430125" style="stroke: #000000; stroke-width: 0.6"/>
      </g>
     </g>
    </g>
    <g id="xtick_18">
     <g id="line2d_18">
      <g>
       <use xlink:href="#mcb039c1ce5" x="225.172601" y="296.430125" style="stroke: #000000; stroke-width: 0.6"/>
      </g>
     </g>
    </g>
    <g id="xtick_19">
     <g id="line2d_19">
      <g>
       <use xlink:href="#mcb039c1ce5" x="234.703649" y="296.430125" style="stroke: #000000; stroke-width: 0.6"/>
      </g>
     </g>
    </g>
    <g id="xtick_20">
     <g id="line2d_20">
      <g>
       <use xlink:href="#mcb039c1ce5" x="242.491083" y="296.430125" style="stroke: #000000; stroke-width: 0.6"/>
      </g>
     </g>
    </g>
    <g id="xtick_21">
     <g id="line2d_21">
      <g>
       <use xlink:href="#mcb039c1ce5" x="249.075264" y="296.430125" style="stroke: #000000; stroke-width: 0.6"/>
      </g>
     </g>
    </g>
    <g id="xtick_22">
     <g id="line2d_22">
      <g>
       <use xlink:href="#mcb039c1ce5" x="254.778741" y="296.430125" style="stroke: #000000; stroke-width: 0.6"/>
      </g>
     </g>
    </g>
    <g id="xtick_23">
     <g id="line2d_23">
      <g>
       <use xlink:href="#mcb039c1ce5" x="259.809564" y="296.430125" style="stroke: #000000; stroke-width: 0.6"/>
      </g>
     </g>
    </g>
    <g id="xtick_24">
     <g id="line2d_24">
      <g>
       <use xlink:href="#mcb039c1ce5" x="293.915929" y="296.430125" style="stroke: #000000; stroke-width: 0.6"/>
      </g>
     </g>
    </g>
    <g id="xtick_25">
     <g id="line2d_25">
      <g>
       <use xlink:href="#mcb039c1ce5" x="311.234411" y="296.430125" style="stroke: #000000; stroke-width: 0.6"/>
      </g>
     </g>
    </g>
    <g id="xtick_26">
     <g id="line2d_26">
      <g>
       <use xlink:href="#mcb039c1ce5" x="323.522069" y="296.430125" style="stroke: #000000; stroke-width: 0.6"/>
      </g>
     </g>
    </g>
    <g id="xtick_27">
     <g id="line2d_27">
      <g>
       <use xlink:href="#mcb039c1ce5" x="333.053118" y="296.430125" style="stroke: #000000; stroke-width: 0.6"/>
      </g>
     </g>
    </g>
    <g id="xtick_28">
     <g id="line2d_28">
      <g>
       <use xlink:href="#mcb039c1ce5" x="340.840551" y="296.430125" style="stroke: #000000; stroke-width: 0.6"/>
      </g>
     </g>
    </g>
    <g id="xtick_29">
     <g id="line2d_29">
      <g>
       <use xlink:href="#mcb039c1ce5" x="347.424732" y="296.430125" style="stroke: #000000; stroke-width: 0.6"/>
      </g>
     </g>
    </g>
    <g id="xtick_30">
     <g id="line2d_30">
      <g>
       <use xlink:href="#mcb039c1ce5" x="353.128209" y="296.430125" style="stroke: #000000; stroke-width: 0.6"/>
      </g>
     </g>
    </g>
    <g id="xtick_31">
     <g id="line2d_31">
      <g>
       <use xlink:href="#mcb039c1ce5" x="358.159033" y="296.430125" style="stroke: #000000; stroke-width: 0.6"/>
      </g>
     </g>
    </g>
    <g id="xtick_32">
     <g id="line2d_32">
      <g>
       <use xlink:href="#mcb039c1ce5" x="392.265398" y="296.430125" style="stroke: #000000; stroke-width: 0.6"/>
      </g>
     </g>
    </g>
    <g id="text_5">
     <!-- Epoch -->
     <g transform="translate(212.985 324.706687) scale(0.1 -0.1)">
      <defs>
       <path id="DejaVuSans-Bold-45" d="M 588 4666 
L 3834 4666 
L 3834 3756 
L 1791 3756 
L 1791 2888 
L 3713 2888 
L 3713 1978 
L 1791 1978 
L 1791 909 
L 3903 909 
L 3903 0 
L 588 0 
L 588 4666 
z
" transform="scale(0.015625)"/>
       <path id="DejaVuSans-Bold-70" d="M 1656 506 
L 1656 -1331 
L 538 -1331 
L 538 3500 
L 1656 3500 
L 1656 2988 
Q 1888 3294 2169 3439 
Q 2450 3584 2816 3584 
Q 3463 3584 3878 3070 
Q 4294 2556 4294 1747 
Q 4294 938 3878 423 
Q 3463 -91 2816 -91 
Q 2450 -91 2169 54 
Q 1888 200 1656 506 
z
M 2400 2772 
Q 2041 2772 1848 2508 
Q 1656 2244 1656 1747 
Q 1656 1250 1848 986 
Q 2041 722 2400 722 
Q 2759 722 2948 984 
Q 3138 1247 3138 1747 
Q 3138 2247 2948 2509 
Q 2759 2772 2400 2772 
z
" transform="scale(0.015625)"/>
       <path id="DejaVuSans-Bold-6f" d="M 2203 2784 
Q 1831 2784 1636 2517 
Q 1441 2250 1441 1747 
Q 1441 1244 1636 976 
Q 1831 709 2203 709 
Q 2569 709 2762 976 
Q 2956 1244 2956 1747 
Q 2956 2250 2762 2517 
Q 2569 2784 2203 2784 
z
M 2203 3584 
Q 3106 3584 3614 3096 
Q 4122 2609 4122 1747 
Q 4122 884 3614 396 
Q 3106 -91 2203 -91 
Q 1297 -91 786 396 
Q 275 884 275 1747 
Q 275 2609 786 3096 
Q 1297 3584 2203 3584 
z
" transform="scale(0.015625)"/>
       <path id="DejaVuSans-Bold-63" d="M 3366 3391 
L 3366 2478 
Q 3138 2634 2908 2709 
Q 2678 2784 2431 2784 
Q 1963 2784 1702 2511 
Q 1441 2238 1441 1747 
Q 1441 1256 1702 982 
Q 1963 709 2431 709 
Q 2694 709 2930 787 
Q 3166 866 3366 1019 
L 3366 103 
Q 3103 6 2833 -42 
Q 2563 -91 2291 -91 
Q 1344 -91 809 395 
Q 275 881 275 1747 
Q 275 2613 809 3098 
Q 1344 3584 2291 3584 
Q 2566 3584 2833 3536 
Q 3100 3488 3366 3391 
z
" transform="scale(0.015625)"/>
       <path id="DejaVuSans-Bold-68" d="M 4056 2131 
L 4056 0 
L 2931 0 
L 2931 347 
L 2931 1625 
Q 2931 2084 2911 2256 
Q 2891 2428 2841 2509 
Q 2775 2619 2662 2680 
Q 2550 2741 2406 2741 
Q 2056 2741 1856 2470 
Q 1656 2200 1656 1722 
L 1656 0 
L 538 0 
L 538 4863 
L 1656 4863 
L 1656 2988 
Q 1909 3294 2193 3439 
Q 2478 3584 2822 3584 
Q 3428 3584 3742 3212 
Q 4056 2841 4056 2131 
z
" transform="scale(0.015625)"/>
      </defs>
      <use xlink:href="#DejaVuSans-Bold-45"/>
      <use xlink:href="#DejaVuSans-Bold-70" transform="translate(68.310547 0)"/>
      <use xlink:href="#DejaVuSans-Bold-6f" transform="translate(139.892578 0)"/>
      <use xlink:href="#DejaVuSans-Bold-63" transform="translate(208.59375 0)"/>
      <use xlink:href="#DejaVuSans-Bold-68" transform="translate(267.871094 0)"/>
     </g>
    </g>
   </g>
   <g id="matplotlib.axis_2">
    <g id="ytick_1">
     <g id="line2d_33">
      <defs>
       <path id="mc77a04c7de" d="M 0 0 
L -3.5 0 
" style="stroke: #000000; stroke-width: 0.8"/>
      </defs>
      <g>
       <use xlink:href="#mc77a04c7de" x="51.378125" y="257.14433" style="stroke: #000000; stroke-width: 0.8"/>
      </g>
     </g>
     <g id="text_6">
      <!-- $\mathdefault{10^{-7}}$ -->
      <g transform="translate(20.878125 260.943549) scale(0.1 -0.1)">
       <defs>
        <path id="DejaVuSans-2212" d="M 678 2272 
L 4684 2272 
L 4684 1741 
L 678 1741 
L 678 2272 
z
" transform="scale(0.015625)"/>
        <path id="DejaVuSans-37" d="M 525 4666 
L 3525 4666 
L 3525 4397 
L 1831 0 
L 1172 0 
L 2766 4134 
L 525 4134 
L 525 4666 
z
" transform="scale(0.015625)"/>
       </defs>
       <use xlink:href="#DejaVuSans-31" transform="translate(0 0.684375)"/>
       <use xlink:href="#DejaVuSans-30" transform="translate(63.623047 0.684375)"/>
       <use xlink:href="#DejaVuSans-2212" transform="translate(128.203125 38.965625) scale(0.7)"/>
       <use xlink:href="#DejaVuSans-37" transform="translate(186.855469 38.965625) scale(0.7)"/>
      </g>
     </g>
    </g>
    <g id="ytick_2">
     <g id="line2d_34">
      <g>
       <use xlink:href="#mc77a04c7de" x="51.378125" y="203.862346" style="stroke: #000000; stroke-width: 0.8"/>
      </g>
     </g>
     <g id="text_7">
      <!-- $\mathdefault{10^{-5}}$ -->
      <g transform="translate(20.878125 207.661565) scale(0.1 -0.1)">
       <defs>
        <path id="DejaVuSans-35" d="M 691 4666 
L 3169 4666 
L 3169 4134 
L 1269 4134 
L 1269 2991 
Q 1406 3038 1543 3061 
Q 1681 3084 1819 3084 
Q 2600 3084 3056 2656 
Q 3513 2228 3513 1497 
Q 3513 744 3044 326 
Q 2575 -91 1722 -91 
Q 1428 -91 1123 -41 
Q 819 9 494 109 
L 494 744 
Q 775 591 1075 516 
Q 1375 441 1709 441 
Q 2250 441 2565 725 
Q 2881 1009 2881 1497 
Q 2881 1984 2565 2268 
Q 2250 2553 1709 2553 
Q 1456 2553 1204 2497 
Q 953 2441 691 2322 
L 691 4666 
z
" transform="scale(0.015625)"/>
       </defs>
       <use xlink:href="#DejaVuSans-31" transform="translate(0 0.684375)"/>
       <use xlink:href="#DejaVuSans-30" transform="translate(63.623047 0.684375)"/>
       <use xlink:href="#DejaVuSans-2212" transform="translate(128.203125 38.965625) scale(0.7)"/>
       <use xlink:href="#DejaVuSans-35" transform="translate(186.855469 38.965625) scale(0.7)"/>
      </g>
     </g>
    </g>
    <g id="ytick_3">
     <g id="line2d_35">
      <g>
       <use xlink:href="#mc77a04c7de" x="51.378125" y="150.580362" style="stroke: #000000; stroke-width: 0.8"/>
      </g>
     </g>
     <g id="text_8">
      <!-- $\mathdefault{10^{-3}}$ -->
      <g transform="translate(20.878125 154.379581) scale(0.1 -0.1)">
       <use xlink:href="#DejaVuSans-31" transform="translate(0 0.765625)"/>
       <use xlink:href="#DejaVuSans-30" transform="translate(63.623047 0.765625)"/>
       <use xlink:href="#DejaVuSans-2212" transform="translate(128.203125 39.046875) scale(0.7)"/>
       <use xlink:href="#DejaVuSans-33" transform="translate(186.855469 39.046875) scale(0.7)"/>
      </g>
     </g>
    </g>
    <g id="ytick_4">
     <g id="line2d_36">
      <g>
       <use xlink:href="#mc77a04c7de" x="51.378125" y="97.298378" style="stroke: #000000; stroke-width: 0.8"/>
      </g>
     </g>
     <g id="text_9">
      <!-- $\mathdefault{10^{-1}}$ -->
      <g transform="translate(20.878125 101.097597) scale(0.1 -0.1)">
       <use xlink:href="#DejaVuSans-31" transform="translate(0 0.684375)"/>
       <use xlink:href="#DejaVuSans-30" transform="translate(63.623047 0.684375)"/>
       <use xlink:href="#DejaVuSans-2212" transform="translate(128.203125 38.965625) scale(0.7)"/>
       <use xlink:href="#DejaVuSans-31" transform="translate(186.855469 38.965625) scale(0.7)"/>
      </g>
     </g>
    </g>
    <g id="ytick_5">
     <g id="line2d_37">
      <g>
       <use xlink:href="#mc77a04c7de" x="51.378125" y="44.016394" style="stroke: #000000; stroke-width: 0.8"/>
      </g>
     </g>
     <g id="text_10">
      <!-- $\mathdefault{10^{1}}$ -->
      <g transform="translate(26.778125 47.815613) scale(0.1 -0.1)">
       <use xlink:href="#DejaVuSans-31" transform="translate(0 0.684375)"/>
       <use xlink:href="#DejaVuSans-30" transform="translate(63.623047 0.684375)"/>
       <use xlink:href="#DejaVuSans-31" transform="translate(128.203125 38.965625) scale(0.7)"/>
      </g>
     </g>
    </g>
    <g id="text_11">
     <!-- Loss -->
     <g transform="translate(14.798438 175.946781) rotate(-90) scale(0.1 -0.1)">
      <defs>
       <path id="DejaVuSans-Bold-4c" d="M 588 4666 
L 1791 4666 
L 1791 909 
L 3903 909 
L 3903 0 
L 588 0 
L 588 4666 
z
" transform="scale(0.015625)"/>
       <path id="DejaVuSans-Bold-73" d="M 3272 3391 
L 3272 2541 
Q 2913 2691 2578 2766 
Q 2244 2841 1947 2841 
Q 1628 2841 1473 2761 
Q 1319 2681 1319 2516 
Q 1319 2381 1436 2309 
Q 1553 2238 1856 2203 
L 2053 2175 
Q 2913 2066 3209 1816 
Q 3506 1566 3506 1031 
Q 3506 472 3093 190 
Q 2681 -91 1863 -91 
Q 1516 -91 1145 -36 
Q 775 19 384 128 
L 384 978 
Q 719 816 1070 734 
Q 1422 653 1784 653 
Q 2113 653 2278 743 
Q 2444 834 2444 1013 
Q 2444 1163 2330 1236 
Q 2216 1309 1875 1350 
L 1678 1375 
Q 931 1469 631 1722 
Q 331 1975 331 2491 
Q 331 3047 712 3315 
Q 1094 3584 1881 3584 
Q 2191 3584 2531 3537 
Q 2872 3491 3272 3391 
z
" transform="scale(0.015625)"/>
      </defs>
      <use xlink:href="#DejaVuSans-Bold-4c"/>
      <use xlink:href="#DejaVuSans-Bold-6f" transform="translate(63.720703 0)"/>
      <use xlink:href="#DejaVuSans-Bold-73" transform="translate(132.421875 0)"/>
      <use xlink:href="#DejaVuSans-Bold-73" transform="translate(191.943359 0)"/>
     </g>
    </g>
   </g>
   <g id="line2d_38">
    <path d="M 67.610852 100.920124 
L 97.216992 106.920648 
L 114.535474 110.731865 
L 126.823132 113.916218 
L 144.141614 118.732063 
L 150.725795 120.65448 
L 156.429272 122.164413 
L 165.960321 124.534186 
L 173.747754 127.669724 
L 180.331935 130.816025 
L 183.278802 131.932761 
L 191.066236 134.258096 
L 193.375589 135.283104 
L 195.566461 135.60484 
L 197.650417 135.233623 
L 199.637409 135.322568 
L 201.536061 135.530757 
L 203.353894 137.246947 
L 205.097509 139.92113 
L 206.772729 141.505855 
L 208.384718 143.962924 
L 212.884943 147.251747 
L 215.641553 146.868854 
L 218.23099 147.714283 
L 219.469124 147.363714 
L 220.672376 146.646836 
L 221.842658 146.22971 
L 222.981729 145.230187 
L 224.091211 145.277149 
L 225.172601 146.294178 
L 226.227287 145.491845 
L 227.256557 146.223133 
L 228.261607 147.588475 
L 229.243549 145.371389 
L 230.203424 144.159282 
L 231.142201 140.658159 
L 232.060788 138.119679 
L 232.960034 140.060927 
L 233.840738 141.67848 
L 234.703649 145.759144 
L 235.549471 150.576832 
L 237.192468 155.446316 
L 237.990858 157.816537 
L 239.544216 160.310476 
L 240.300211 160.803962 
L 241.043058 162.172129 
L 241.773206 164.39127 
L 242.491083 164.808367 
L 243.197093 163.551139 
L 243.891622 163.996696 
L 244.575039 165.386632 
L 245.247693 165.095422 
L 245.909917 164.530323 
L 246.562031 164.856719 
L 247.204338 164.29046 
L 247.83713 162.246017 
L 248.460683 161.050587 
L 249.075264 161.396145 
L 249.681127 160.648891 
L 250.278516 158.111076 
L 250.867665 156.453213 
L 251.448798 157.360227 
L 252.022131 158.77778 
L 253.146212 156.357095 
L 254.241468 156.861124 
L 255.309339 155.898834 
L 255.833427 156.21282 
L 256.351163 155.832872 
L 256.862697 156.176659 
L 257.368178 158.082975 
L 257.867747 159.425176 
L 258.36154 159.380886 
L 259.332323 160.175429 
L 259.809564 159.609623 
L 260.281532 159.566818 
L 260.748341 158.471227 
L 261.210104 156.802202 
L 261.666928 157.277511 
L 262.118918 159.098473 
L 262.566174 158.121635 
L 263.008796 158.084455 
L 263.446878 160.078021 
L 263.880513 160.502978 
L 264.309789 161.65493 
L 264.734794 162.192843 
L 265.155612 163.200493 
L 265.572323 164.742632 
L 265.985009 163.434965 
L 266.393745 162.978258 
L 266.798608 164.118378 
L 267.199668 164.324222 
L 267.596998 162.447911 
L 267.990665 162.844073 
L 268.380738 163.74117 
L 268.76728 161.838978 
L 269.150356 161.774051 
L 269.530026 164.095107 
L 269.906351 162.740371 
L 270.27939 162.51053 
L 270.649198 163.192252 
L 271.015832 161.673481 
L 271.379346 161.576297 
L 271.739793 161.929621 
L 272.097223 161.234666 
L 272.451686 159.774156 
L 272.803233 155.974123 
L 273.151909 153.646034 
L 273.497762 154.499155 
L 273.840837 152.933908 
L 274.181179 152.643109 
L 274.51883 153.565192 
L 274.853833 153.025493 
L 275.516057 156.324247 
L 275.843359 156.9247 
L 276.168171 156.092058 
L 276.490532 156.393742 
L 276.810479 159.071708 
L 277.128046 159.919961 
L 277.44327 162.004285 
L 278.066823 164.054992 
L 278.375219 167.834325 
L 278.681404 167.338273 
L 278.98541 167.911453 
L 279.287267 169.306887 
L 279.587006 168.864409 
L 280.180246 171.856653 
L 280.473805 171.388595 
L 280.76536 171.450534 
L 281.054938 172.392128 
L 281.342567 171.692981 
L 281.912077 169.085873 
L 282.194009 167.473825 
L 282.474093 166.747982 
L 282.752352 166.711325 
L 283.303491 164.247057 
L 283.847608 163.223836 
L 284.384881 163.137683 
L 284.651004 162.160187 
L 285.178327 162.125892 
L 285.439567 162.146938 
L 285.69922 163.066884 
L 285.957303 163.374337 
L 286.213836 161.084512 
L 286.468837 159.968155 
L 286.722325 159.734855 
L 286.974318 160.84816 
L 287.224833 161.306157 
L 287.473887 160.267599 
L 287.721497 160.010315 
L 287.96768 159.35711 
L 288.212452 157.649812 
L 288.45583 157.897614 
L 288.697828 157.5047 
L 288.938463 154.530595 
L 289.17775 155.675482 
L 289.415704 155.772444 
L 289.65234 155.415198 
L 289.887672 156.649663 
L 290.121714 155.829425 
L 290.354481 156.276927 
L 290.585987 153.182199 
L 290.816244 152.119743 
L 291.045267 155.700627 
L 291.273068 155.627838 
L 291.949271 162.256644 
L 292.172314 163.926992 
L 292.394199 164.406232 
L 292.614936 163.643049 
L 292.834539 161.961899 
L 293.053018 161.377848 
L 293.270386 160.47814 
L 293.486653 160.224359 
L 293.70183 159.737974 
L 293.915929 159.745924 
L 294.12896 160.247129 
L 294.340934 160.41469 
L 294.761752 162.973017 
L 294.970616 163.877803 
L 295.178463 166.055637 
L 295.591149 167.695227 
L 295.796006 169.387498 
L 295.999886 169.51475 
L 296.202796 171.095224 
L 296.404748 171.426981 
L 296.605749 172.147387 
L 296.805808 173.747054 
L 297.004935 173.110612 
L 297.400425 175.07646 
L 297.596805 173.63266 
L 297.792287 175.330444 
L 297.986878 175.824922 
L 298.180586 174.375108 
L 298.37342 176.299046 
L 298.565387 176.214916 
L 298.756496 174.170122 
L 299.136166 175.271362 
L 299.324743 174.165387 
L 299.512491 174.403088 
L 299.699418 174.203917 
L 299.88553 172.527299 
L 300.255338 173.869863 
L 300.621973 170.30518 
L 300.804116 170.452715 
L 300.985486 170.251401 
L 301.345933 164.739932 
L 301.525022 166.00329 
L 301.703363 166.059275 
L 301.880962 162.744511 
L 302.057826 162.24315 
L 302.233961 163.32892 
L 302.409373 163.165976 
L 302.758049 165.11867 
L 302.931326 166.832641 
L 303.275784 170.947375 
L 303.787319 174.979004 
L 303.956478 175.839299 
L 304.459973 172.170206 
L 304.626494 171.743304 
L 305.122197 167.799367 
L 305.286162 167.902017 
L 306.256945 159.924251 
L 306.416619 160.13567 
L 306.734186 158.056134 
L 306.892089 158.687533 
L 307.04941 157.168841 
L 307.206154 159.323235 
L 307.362324 159.532792 
L 307.517926 160.955971 
L 307.672963 165.980251 
L 307.827439 166.374433 
L 308.134726 172.542464 
L 308.287544 174.021127 
L 308.439817 174.407701 
L 308.59155 173.335775 
L 308.742745 174.199784 
L 309.043539 168.5706 
L 309.193146 168.185721 
L 309.490796 166.142287 
L 309.786387 160.962072 
L 309.933418 162.079324 
L 310.079945 161.668594 
L 310.225972 159.764281 
L 310.3715 160.262159 
L 310.661078 162.877536 
L 310.948707 167.290448 
L 311.234411 172.342682 
L 311.37655 172.634129 
L 311.518217 174.908904 
L 311.659416 174.865719 
L 311.800149 172.838134 
L 311.940421 173.710815 
L 312.080233 173.440138 
L 312.219589 172.372152 
L 312.358492 172.584981 
L 312.634951 173.815069 
L 312.772512 173.870772 
L 313.453748 178.569832 
L 313.723229 177.155421 
L 313.857335 177.32302 
L 313.991021 177.850426 
L 314.257144 175.883261 
L 314.389587 177.412176 
L 314.52162 177.433188 
L 314.784467 173.568521 
L 314.915287 174.654218 
L 315.045708 173.789311 
L 315.30536 170.545057 
L 315.434596 171.489533 
L 315.563443 170.807415 
L 315.691902 168.268005 
L 315.819976 168.897463 
L 315.947667 170.545332 
L 316.074977 168.652271 
L 316.201909 169.515158 
L 316.328466 171.219683 
L 316.454648 169.291491 
L 316.705899 171.069615 
L 316.830973 169.825153 
L 317.080027 170.634851 
L 317.327637 169.814043 
L 317.57382 167.73813 
L 317.696381 167.735324 
L 317.940454 168.287823 
L 318.06197 166.662221 
L 318.18314 166.988746 
L 318.303968 168.261967 
L 318.424455 166.239844 
L 318.664414 167.620301 
L 318.78389 166.421512 
L 319.021844 168.35356 
L 319.140326 167.425882 
L 319.25848 167.847743 
L 319.376308 166.219593 
L 319.493812 167.418477 
L 319.610994 167.367853 
L 319.727854 166.855168 
L 319.960621 168.997033 
L 320.192127 169.391378 
L 320.307411 170.247272 
L 320.422384 169.528622 
L 320.537049 167.415564 
L 320.651407 168.021215 
L 320.879208 166.583816 
L 321.105801 162.931019 
L 321.331198 165.862825 
L 321.443452 163.347478 
L 321.667079 168.18609 
L 321.778455 167.93473 
L 321.889541 169.303535 
L 322.11085 173.79873 
L 322.221076 174.253298 
L 322.440679 179.445449 
L 322.550059 179.703452 
L 322.659159 181.610924 
L 322.876526 181.372835 
L 322.984796 182.209207 
L 323.200517 180.066004 
L 323.415154 181.427257 
L 323.522069 179.88645 
L 323.7351 181.989019 
L 323.841219 181.063396 
L 324.052668 182.969477 
L 324.263075 181.527885 
L 324.367892 181.660158 
L 324.576756 178.545165 
L 324.680806 178.021441 
L 325.094491 173.74302 
L 325.197289 175.076937 
L 325.402146 174.238236 
L 325.606026 177.72938 
L 325.707601 177.124525 
L 325.910031 180.580611 
L 326.010888 178.300879 
L 326.111506 180.112521 
L 326.211889 179.060347 
L 326.312036 176.578545 
L 326.511628 178.139451 
L 326.611075 176.471653 
L 326.710291 178.176094 
L 326.809278 177.799767 
L 326.908035 176.56979 
L 327.006565 177.787352 
L 327.104868 176.783993 
L 327.202946 174.523909 
L 327.300798 174.954848 
L 327.495833 173.425242 
L 327.689982 176.535726 
L 327.786726 176.043919 
L 327.883252 176.518623 
L 327.97956 177.998093 
L 328.075652 177.098463 
L 328.171527 177.617083 
L 328.362636 177.016633 
L 328.45787 177.759722 
L 328.552893 176.45002 
L 328.647704 176.762049 
L 328.836699 173.640983 
L 329.02486 173.758549 
L 329.212197 173.577131 
L 329.861478 187.284083 
L 329.953432 187.864377 
L 330.228113 186.266084 
L 330.319282 186.357436 
L 330.410256 187.769548 
L 330.591627 186.761259 
L 330.682024 187.156305 
L 331.220425 178.859543 
L 331.487102 173.558392 
L 331.663966 170.915897 
L 331.927897 173.214064 
L 332.015513 173.964346 
L 332.190207 172.884567 
L 332.537466 176.437265 
L 332.623841 176.169612 
L 332.710042 172.813252 
L 332.881924 174.123398 
L 332.967607 174.548396 
L 333.053118 176.336366 
L 333.223627 174.946971 
L 333.308628 175.487824 
L 333.73111 172.070655 
L 333.815107 172.120188 
L 333.982608 175.341057 
L 334.066113 174.807988 
L 334.149455 175.264197 
L 334.315652 178.694445 
L 334.398509 176.293877 
L 334.563741 179.345542 
L 334.646119 178.566301 
L 334.728337 178.997498 
L 334.974048 181.975365 
L 335.055639 182.176201 
L 335.137074 182.756569 
L 335.29948 185.009725 
L 335.380451 184.231512 
L 335.541936 188.120214 
L 335.62245 187.294467 
L 335.783024 189.519185 
L 335.942997 187.587308 
L 336.022759 188.195698 
L 336.102372 187.993483 
L 336.261155 183.416217 
L 336.340326 183.330835 
L 336.498229 180.021496 
L 336.576962 180.051956 
L 336.65555 179.485622 
L 336.733994 177.654579 
L 336.89045 181.380705 
L 336.968464 180.742466 
L 337.046336 180.122722 
L 337.201655 183.003486 
L 337.279103 182.705112 
L 337.433579 185.209814 
L 337.510608 184.746954 
L 337.817343 180.713035 
L 337.893684 181.556699 
L 337.969889 181.179427 
L 338.045957 179.538783 
L 338.121891 179.733067 
L 338.19769 180.037585 
L 338.348885 178.034075 
L 338.799286 184.229349 
L 339.318821 178.122577 
L 339.466106 180.671397 
L 339.612885 179.250219 
L 339.832112 181.466527 
L 339.97764 179.937438 
L 340.122675 183.969647 
L 340.195008 183.733507 
L 340.267219 183.607487 
L 340.411275 184.806933 
L 340.483121 184.234386 
L 340.626452 185.761783 
L 340.697938 184.643226 
L 340.98269 188.861996 
L 341.124357 183.756921 
L 341.265556 185.793962 
L 341.335981 184.543969 
L 341.40629 185.043945 
L 341.686373 188.655048 
L 341.756108 188.913691 
L 342.033915 187.153504 
L 342.172144 188.9162 
L 342.309927 185.904599 
L 342.652451 190.00587 
L 342.720628 189.832236 
L 343.059888 182.324765 
L 343.127418 182.695464 
L 343.194841 181.628941 
L 343.329369 182.915426 
L 343.463475 179.204792 
L 343.53037 177.922305 
L 343.597161 178.289674 
L 343.73043 177.205011 
L 343.863284 178.430663 
L 343.929557 178.645528 
L 344.325047 176.139613 
L 344.456067 177.69444 
L 344.9115 187.251589 
L 345.040736 188.762153 
L 345.105208 187.822594 
L 345.169583 188.354044 
L 345.298042 190.8662 
L 345.362127 190.090819 
L 345.490009 186.760286 
L 345.61751 187.810648 
L 345.744631 183.929705 
L 345.80805 184.056653 
L 345.934606 185.83209 
L 345.997743 185.079884 
L 346.060788 185.554092 
L 346.249365 190.288177 
L 346.686167 184.284215 
L 346.748204 186.766509 
L 346.810151 186.602253 
L 346.933777 185.490465 
L 346.995456 185.678654 
L 347.118547 187.273062 
L 347.17996 186.714427 
L 347.241285 187.43006 
L 347.546594 197.663189 
L 347.849737 201.814198 
L 347.970394 204.281197 
L 348.330334 198.102894 
L 348.390031 198.136405 
L 348.449643 197.959209 
L 348.509173 198.146562 
L 348.56862 199.490509 
L 348.627985 198.76167 
L 348.687266 198.640537 
L 348.86462 200.885035 
L 348.923575 200.395784 
L 348.982448 200.238996 
L 349.041241 200.648558 
L 349.099952 200.588285 
L 349.217134 198.816419 
L 349.275604 199.059962 
L 349.333995 199.549332 
L 349.624756 194.398554 
L 349.740508 192.290596 
L 349.913551 186.833235 
L 349.971076 187.023855 
L 350.028524 186.35772 
L 350.655405 162.514497 
L 350.8811 168.645764 
L 351.495681 201.541079 
L 351.882223 209.795221 
L 351.992024 210.232535 
L 352.046819 210.133097 
L 352.156199 209.613085 
L 352.210783 209.717117 
L 352.319744 210.493478 
L 352.428428 211.218117 
L 352.644969 208.952933 
L 352.698933 209.3399 
L 352.806657 211.283889 
L 352.860418 211.027391 
L 353.128209 203.281724 
L 353.181567 204.098066 
L 353.234858 205.049257 
L 353.34124 200.823028 
L 353.500319 195.111311 
L 353.606044 198.212259 
L 353.658808 197.873456 
L 353.764141 196.283092 
L 354.078591 204.511133 
L 354.234953 206.892751 
L 354.442548 213.499723 
L 354.597585 215.259811 
L 354.700631 214.784905 
L 354.803429 213.505079 
L 354.854736 213.755278 
L 354.957164 215.140172 
L 355.110348 212.826801 
L 355.415076 204.75961 
L 355.465654 205.654153 
L 355.516171 205.638284 
L 355.566629 204.068889 
L 355.617028 205.081161 
L 355.667367 207.572264 
L 355.717647 206.314587 
L 355.767867 204.792304 
L 355.818029 205.742549 
L 355.868132 205.272146 
L 355.918176 205.565266 
L 355.968161 206.132427 
L 356.067957 204.399418 
L 356.117768 205.186617 
L 356.16752 205.641239 
L 356.316432 197.91455 
L 356.365953 198.346577 
L 356.415418 200.000441 
L 356.464825 199.853297 
L 356.514176 198.745761 
L 356.563469 199.111556 
L 356.612705 199.39806 
L 356.711008 196.585735 
L 356.760075 196.732909 
L 356.809086 196.878971 
L 356.85804 198.929534 
L 356.906938 198.411963 
L 357.004567 196.871997 
L 357.101973 194.59784 
L 357.150593 195.228347 
L 357.247668 198.502223 
L 357.296122 197.867528 
L 357.344522 197.503986 
L 357.392866 197.738715 
L 357.537573 201.142314 
L 357.5857 200.401508 
L 357.633773 200.692527 
L 357.729756 202.996965 
L 357.825525 202.064206 
L 357.921079 202.953534 
L 358.253844 209.554522 
L 358.301171 209.785486 
L 358.348446 209.172447 
L 358.395668 209.968817 
L 358.489957 212.355265 
L 358.537023 211.087922 
L 358.584038 210.836298 
L 358.677912 212.239232 
L 358.724771 211.457503 
L 358.77158 212.767675 
L 358.818337 212.385355 
L 358.911698 211.777992 
L 359.004855 212.661494 
L 359.09781 209.187225 
L 359.190562 209.508021 
L 359.329315 211.147446 
L 359.375466 210.763655 
L 359.421567 209.1532 
L 359.467618 209.909395 
L 359.559572 212.543267 
L 359.651329 211.578437 
L 359.697133 211.366867 
L 359.834253 212.685606 
L 359.879861 212.583948 
L 360.197767 207.405312 
L 360.242989 207.60073 
L 360.288164 207.335758 
L 360.468386 201.686397 
L 360.603056 197.098637 
L 360.647851 197.392016 
L 360.6926 196.885142 
L 360.737302 193.92254 
L 360.781957 194.517148 
L 360.915643 197.367905 
L 360.960112 196.519533 
L 361.137527 201.372785 
L 361.181766 200.249332 
L 361.225959 199.526435 
L 361.270107 200.102183 
L 361.402276 201.43985 
L 361.621653 198.200072 
L 361.665393 198.761755 
L 361.709089 199.706909 
L 361.75274 199.320741 
L 361.883427 198.153491 
L 361.970329 199.787477 
L 362.013714 198.604052 
L 362.100353 198.387307 
L 362.186815 202.427564 
L 362.229981 201.910482 
L 362.273104 201.65421 
L 362.316182 199.618808 
L 362.359218 202.545255 
L 362.40221 203.406578 
L 362.445159 202.564551 
L 362.488065 202.387257 
L 362.701949 204.411123 
L 362.872289 208.03021 
L 362.914768 208.347803 
L 362.999599 210.771386 
L 363.084262 210.272504 
L 363.210944 208.774593 
L 363.253087 209.134953 
L 363.379269 210.541189 
L 363.421248 210.356572 
L 363.588748 207.429659 
L 363.630521 207.882991 
L 363.713944 208.413002 
L 364.004649 204.09963 
L 364.046017 204.120955 
L 364.169881 186.875084 
L 364.416538 155.761219 
L 364.45751 156.755882 
L 365.06741 211.667008 
L 365.349077 216.207483 
L 365.389164 215.902934 
L 365.549137 214.422597 
L 365.589036 214.437474 
L 365.668724 215.241138 
L 365.708512 216.116159 
L 365.748263 215.67844 
L 365.827655 213.36333 
L 366.064948 203.162484 
L 366.104369 203.500339 
L 366.222414 206.897341 
L 366.26169 205.446612 
L 366.340134 202.014918 
L 366.379302 202.150484 
L 366.535615 209.329662 
L 366.613558 208.458887 
L 367.270391 226.897758 
L 367.308716 226.527026 
L 367.347006 226.448603 
L 367.499824 229.499844 
L 367.537943 229.004086 
L 367.652097 227.638844 
L 367.690081 228.022798 
L 367.765947 228.748882 
L 367.80383 228.714753 
L 367.917276 228.114123 
L 368.068071 230.151463 
L 368.105687 229.797398 
L 368.480033 222.140515 
L 368.55451 214.663825 
L 368.628858 217.806029 
L 368.814163 226.925009 
L 368.88806 227.671307 
L 369.035472 222.668274 
L 369.182377 218.929883 
L 369.219025 218.965619 
L 369.255641 219.270248 
L 369.328779 218.976046 
L 369.511078 210.186329 
L 369.656359 206.654316 
L 369.692602 206.758472 
L 369.728815 207.036128 
L 369.945447 201.514615 
L 370.017415 202.850232 
L 370.232592 209.241843 
L 370.26835 209.078682 
L 370.304078 209.557498 
L 370.58883 224.104771 
L 370.83644 231.753573 
L 370.871696 232.262585 
L 370.942121 232.001441 
L 371.117676 228.179403 
L 371.187697 228.071799 
L 371.222664 229.13397 
L 371.362248 223.597273 
L 371.640055 211.256166 
L 371.674654 209.059038 
L 371.709225 210.336562 
L 371.950443 224.539637 
L 372.053406 226.019997 
L 372.087672 225.967016 
L 372.666028 219.225222 
L 373.036128 208.058689 
L 373.103076 208.442315 
L 373.136511 208.313646 
L 373.236657 204.153453 
L 373.601867 181.968453 
L 373.667934 182.002476 
L 373.70093 181.72931 
L 373.766844 169.266425 
L 373.832657 172.243259 
L 374.290531 216.857152 
L 374.51764 228.309382 
L 374.840001 238.51563 
L 375.287257 246.052575 
L 376.012019 252.909902 
L 376.043253 252.893018 
L 376.105653 251.57216 
L 376.230179 233.979376 
L 376.385329 224.100375 
L 376.416291 227.343358 
L 376.478149 223.999184 
L 376.632402 190.938072 
L 376.663186 204.768727 
L 376.816773 229.728482 
L 376.847425 230.076834 
L 376.878054 229.768498 
L 377.091847 223.25693 
L 377.152734 224.224001 
L 377.27425 228.012985 
L 377.334878 227.220244 
L 377.546402 218.88541 
L 377.576534 219.873535 
L 377.606645 217.559139 
L 377.636735 219.435056 
L 378.145047 196.198742 
L 378.204453 195.366106 
L 378.352606 176.665368 
L 378.881744 224.040272 
L 379.172902 237.486519 
L 379.462088 240.570431 
L 379.490899 240.621344 
L 379.577216 239.251722 
L 380.006205 228.521494 
L 380.063079 228.406517 
L 380.374542 237.33389 
L 380.402744 236.978657 
L 380.430928 236.874898 
L 380.90723 228.849638 
L 380.935083 229.544197 
L 380.962918 228.740167 
L 380.990735 229.263165 
L 381.32313 215.145406 
L 381.405827 217.994991 
L 381.51584 223.55613 
L 381.57074 222.548079 
L 381.652959 220.315629 
L 381.68033 220.796135 
L 381.84419 225.555127 
L 381.89867 223.816772 
L 382.1159 215.881397 
L 382.385892 205.518113 
L 382.493413 200.660637 
L 382.547072 201.869851 
L 382.627434 205.113087 
L 382.680925 204.461296 
L 382.94738 172.787692 
L 382.973935 175.364072 
L 383.000473 179.734093 
L 383.026994 171.15145 
L 383.079987 177.705112 
L 383.106459 173.94651 
L 383.132915 176.430317 
L 383.317647 208.279741 
L 383.580172 237.862567 
L 383.684732 239.821458 
L 383.736916 239.388844 
L 383.789036 238.891121 
L 383.815072 239.179117 
L 384.332494 254.45319 
L 384.486506 255.888571 
L 384.53772 255.853019 
L 384.639965 253.137474 
L 384.995905 227.257708 
L 385.046513 230.903414 
L 385.172769 240.962245 
L 385.197976 240.606881 
L 385.223168 240.574755 
L 385.298654 240.12361 
L 385.323787 240.438874 
L 385.524316 242.963936 
L 385.574301 242.263936 
L 385.798515 233.179033 
L 385.848181 233.866819 
L 386.095648 245.468233 
L 386.120316 245.904159 
L 386.169609 245.34725 
L 386.366215 236.160352 
L 386.537506 227.550869 
L 386.561921 228.16388 
L 386.708113 231.295155 
L 386.73243 230.279204 
L 386.781023 227.608648 
L 386.853808 229.754865 
L 386.902262 232.612116 
L 387.215883 244.11178 
L 387.287932 243.240545 
L 387.335897 242.530176 
L 387.407743 240.676379 
L 387.67015 221.588684 
L 387.859985 179.109557 
L 388.001809 180.556853 
L 388.23714 219.922048 
L 388.471183 234.012364 
L 388.70395 246.335489 
L 388.981606 250.76932 
L 389.234548 253.073257 
L 389.326157 251.581523 
L 389.486002 240.789582 
L 389.531562 241.132199 
L 389.554324 242.597123 
L 389.622536 240.660422 
L 389.713318 230.536342 
L 389.781277 234.580111 
L 389.961976 246.400224 
L 389.98451 246.200141 
L 390.007032 247.091876 
L 390.029542 246.140752 
L 390.05204 246.529021 
L 390.410407 227.698878 
L 390.521783 235.580424 
L 390.544023 234.663811 
L 390.632869 227.546775 
L 390.677223 229.426152 
L 390.699382 230.064711 
L 390.743667 229.7489 
L 390.832099 215.092889 
L 390.854179 206.524115 
L 390.942382 209.185968 
L 390.986416 214.031689 
L 391.052381 211.311651 
L 391.315229 170.341418 
L 391.402487 179.69892 
L 391.576469 210.152644 
L 391.814544 233.287436 
L 391.857688 232.960446 
L 391.965358 229.125993 
L 392.094205 221.89836 
L 392.137067 224.173085 
L 392.265398 237.806084 
L 392.265398 237.806084 
" clip-path="url(#pac8e8d5723)" style="fill: none; stroke-dasharray: 5.55,2.4; stroke-dashoffset: 0; stroke: #2ca02c; stroke-width: 1.5"/>
   </g>
   <g id="line2d_39">
    <path d="M 67.610852 104.516614 
L 97.216992 108.421245 
L 126.823132 113.02977 
L 136.354181 114.128531 
L 144.141614 114.810075 
L 150.725795 115.245282 
L 156.429272 115.813043 
L 161.460096 116.655398 
L 165.960321 117.15575 
L 170.031269 117.084256 
L 173.747754 117.903933 
L 177.166589 118.066529 
L 180.331935 117.843035 
L 183.278802 117.774058 
L 186.035413 117.895487 
L 188.62485 118.4652 
L 191.066236 118.676135 
L 193.375589 117.74907 
L 195.566461 117.362108 
L 199.637409 118.139251 
L 201.536061 118.755801 
L 203.353894 118.331004 
L 205.097509 118.841898 
L 206.772729 119.577559 
L 211.436918 119.028182 
L 212.884943 118.813287 
L 215.641553 119.395138 
L 216.955891 119.224611 
L 218.23099 118.911533 
L 221.842658 118.556665 
L 222.981729 119.172139 
L 224.091211 119.460825 
L 225.172601 118.970814 
L 226.227287 119.440207 
L 227.256557 119.13429 
L 228.261607 119.162498 
L 229.243549 119.457991 
L 230.203424 118.184931 
L 231.142201 117.531005 
L 232.060788 118.492209 
L 232.960034 118.599543 
L 233.840738 119.720835 
L 234.703649 119.985819 
L 235.549471 119.775973 
L 237.192468 120.329936 
L 238.774598 120.24675 
L 240.300211 120.366402 
L 242.491083 120.340323 
L 243.891622 120.45833 
L 245.909917 120.381605 
L 247.204338 120.052981 
L 249.681127 120.315532 
L 251.448798 120.114498 
L 252.587869 120.191856 
L 253.697351 119.849327 
L 254.241468 119.889322 
L 254.778741 120.190353 
L 255.309339 120.262197 
L 255.833427 119.927389 
L 256.351163 120.020166 
L 256.862697 120.601652 
L 257.368178 120.525076 
L 257.867747 120.08305 
L 258.36154 120.074765 
L 259.332323 120.496304 
L 259.809564 120.702376 
L 260.281532 120.508881 
L 260.748341 120.133607 
L 262.118918 120.127706 
L 262.566174 120.401011 
L 263.008796 120.538955 
L 263.880513 120.291139 
L 264.309789 120.190387 
L 264.734794 120.548512 
L 265.155612 120.633337 
L 265.572323 120.37433 
L 265.985009 120.415066 
L 266.798608 120.723938 
L 268.380738 120.14709 
L 269.150356 120.653332 
L 269.906351 120.718493 
L 270.27939 120.3522 
L 270.649198 120.229214 
L 271.015832 120.747223 
L 271.379346 120.861791 
L 272.097223 120.550281 
L 272.451686 120.050165 
L 272.803233 119.869855 
L 273.151909 119.931834 
L 273.497762 119.772605 
L 273.840837 120.432356 
L 274.51883 120.240571 
L 274.853833 120.781698 
L 275.843359 119.992949 
L 276.810479 120.865294 
L 277.128046 120.785994 
L 277.44327 120.358277 
L 278.066823 120.897443 
L 278.681404 120.919102 
L 278.98541 120.569306 
L 279.287267 120.514435 
L 279.587006 120.87391 
L 279.884656 121.019341 
L 280.473805 120.818376 
L 281.054938 120.938485 
L 281.912077 120.52493 
L 282.474093 120.824018 
L 283.028811 120.768777 
L 283.576416 120.602862 
L 283.847608 120.64683 
L 284.384881 120.402277 
L 284.651004 120.714461 
L 285.439567 121.034351 
L 285.69922 120.813792 
L 285.957303 120.237953 
L 286.213836 120.33348 
L 286.722325 120.85762 
L 286.974318 120.874276 
L 287.473887 120.406175 
L 287.721497 120.076695 
L 287.96768 120.142687 
L 288.212452 120.682632 
L 288.938463 120.688224 
L 289.17775 119.946451 
L 289.415704 119.970443 
L 289.65234 120.716338 
L 289.887672 120.858521 
L 290.121714 120.41411 
L 290.354481 119.49546 
L 290.816244 120.552042 
L 291.273068 120.91596 
L 291.499661 120.540934 
L 291.725058 120.98938 
L 291.949271 121.040974 
L 292.172314 120.878937 
L 292.394199 120.567404 
L 292.614936 120.503407 
L 293.053018 121.102733 
L 293.486653 120.837942 
L 293.70183 120.958933 
L 294.12896 120.469463 
L 294.761752 121.024258 
L 294.970616 121.088238 
L 295.591149 120.683973 
L 296.202796 121.153013 
L 296.404748 121.165031 
L 296.805808 120.825363 
L 297.004935 121.01007 
L 298.180586 121.176765 
L 298.565387 120.980889 
L 298.946753 120.964308 
L 299.324743 121.216723 
L 300.621973 120.955147 
L 300.804116 121.045543 
L 301.16609 120.985076 
L 301.345933 121.087948 
L 302.057826 120.645854 
L 302.584067 120.878606 
L 302.931326 120.975862 
L 303.103902 120.846285 
L 303.446978 121.229198 
L 303.787319 121.075027 
L 303.956478 120.828593 
L 304.12497 120.807663 
L 304.459973 121.134966 
L 304.626494 121.152153 
L 304.957601 121.046943 
L 305.122197 121.086635 
L 305.449499 120.865375 
L 305.612214 120.897571 
L 305.774311 120.747539 
L 305.935796 120.438832 
L 306.096672 120.514676 
L 306.575698 121.054079 
L 306.892089 120.663175 
L 307.04941 120.665915 
L 307.206154 120.270821 
L 307.517926 121.243647 
L 307.981359 120.948538 
L 308.287544 121.324193 
L 308.439817 121.333536 
L 309.043539 120.944949 
L 309.34223 120.940117 
L 309.638847 121.210631 
L 310.079945 120.648567 
L 310.516535 120.816859 
L 310.661078 121.120058 
L 310.805135 121.007392 
L 310.948707 121.153001 
L 311.091798 121.11939 
L 311.234411 120.95101 
L 311.659416 121.054799 
L 311.800149 121.291783 
L 312.634951 121.007054 
L 312.909631 121.210998 
L 313.991021 121.176331 
L 314.257144 121.234384 
L 314.52162 121.135166 
L 314.653246 121.244597 
L 315.175731 120.960981 
L 315.434596 121.140157 
L 315.691902 121.118256 
L 315.819976 120.871066 
L 315.947667 120.886356 
L 316.074977 121.073158 
L 316.328466 120.985685 
L 316.705899 121.204912 
L 316.830973 121.328087 
L 317.080027 120.996056 
L 317.204011 120.741355 
L 317.327637 120.820799 
L 317.57382 121.287448 
L 317.696381 121.213228 
L 317.940454 120.864226 
L 318.06197 121.053857 
L 318.303968 120.758342 
L 318.424455 121.02152 
L 318.664414 121.062161 
L 318.78389 121.224597 
L 319.140326 120.708571 
L 319.25848 120.804773 
L 319.376308 121.232854 
L 319.727854 121.11958 
L 319.844396 120.783038 
L 319.960621 120.918665 
L 320.192127 121.343217 
L 320.422384 120.725444 
L 320.879208 121.355369 
L 321.331198 120.717407 
L 321.443452 120.800666 
L 321.667079 121.261254 
L 321.778455 121.180444 
L 322.000339 120.857463 
L 322.221076 121.430767 
L 322.767981 121.171036 
L 322.984796 121.407859 
L 323.628718 121.13064 
L 324.158001 121.313769 
L 324.472451 120.932677 
L 324.680806 121.159933 
L 324.888149 121.371856 
L 325.094491 120.902738 
L 325.197289 120.879114 
L 325.504208 121.382494 
L 325.808936 120.896364 
L 326.111506 121.45964 
L 326.211889 121.33296 
L 326.411948 120.80996 
L 326.511628 120.911737 
L 326.710291 121.481838 
L 326.809278 121.434387 
L 327.104868 120.849748 
L 327.398427 121.289364 
L 327.689982 120.834205 
L 327.97956 121.274159 
L 328.075652 121.2597 
L 328.267188 120.808851 
L 328.45787 121.383214 
L 328.552893 121.386106 
L 328.742306 120.731127 
L 328.836699 120.764063 
L 329.118631 121.533143 
L 329.305558 120.855731 
L 329.398715 120.952485 
L 329.584422 121.405737 
L 329.769326 121.022843 
L 329.861478 121.079921 
L 330.045189 121.441416 
L 330.591627 121.098801 
L 330.862246 121.177235 
L 331.041711 121.072388 
L 331.309503 121.334311 
L 331.575626 120.725606 
L 331.840101 121.423161 
L 331.927897 121.269693 
L 332.102949 120.747655 
L 332.364189 121.295379 
L 332.450915 121.270654 
L 332.623841 120.595005 
L 332.79607 121.09855 
L 332.881924 121.147544 
L 332.967607 120.905335 
L 333.053118 120.968202 
L 333.223627 121.375376 
L 333.308628 121.355972 
L 333.646947 120.850384 
L 333.982608 121.21536 
L 334.066113 121.270396 
L 334.232634 120.824661 
L 334.398509 121.164515 
L 334.481205 121.329285 
L 334.563741 121.283835 
L 334.810398 120.954255 
L 335.055639 121.282213 
L 335.218354 121.128999 
L 335.702812 121.145032 
L 335.863085 121.004404 
L 336.181838 121.256489 
L 336.261155 121.111411 
L 336.419351 120.962196 
L 336.812294 121.052228 
L 337.124066 120.928436 
L 337.356411 121.234517 
L 337.740866 120.940872 
L 338.045957 120.90392 
L 338.499547 121.094113 
L 339.022718 120.673618 
L 339.244987 121.201104 
L 339.318821 121.192136 
L 339.539558 120.703157 
L 339.686085 120.763153 
L 339.759161 121.131109 
L 339.832112 121.083428 
L 339.904938 121.06671 
L 340.050219 120.746339 
L 340.122675 120.837661 
L 340.267219 121.201546 
L 340.554847 120.663716 
L 340.840551 121.105488 
L 341.053582 120.674776 
L 341.124357 120.735385 
L 341.335981 121.023517 
L 341.546561 120.687286 
L 341.756108 121.068629 
L 341.82573 121.002732 
L 341.964633 120.63788 
L 342.103085 120.90697 
L 342.241091 121.001178 
L 342.447266 120.675665 
L 342.652451 120.930126 
L 342.924507 120.473963 
L 343.127418 120.966682 
L 343.194841 120.926658 
L 343.396475 120.588179 
L 343.463475 120.621433 
L 343.663848 120.930909 
L 343.796909 120.653871 
L 343.863284 120.693219 
L 343.929557 120.691045 
L 344.12776 121.215006 
L 344.193623 120.636312 
L 344.259386 120.730283 
L 344.325047 120.680741 
L 344.456067 121.089289 
L 344.521427 121.056368 
L 344.651848 120.665564 
L 344.716909 120.522905 
L 344.9115 120.784205 
L 345.105208 120.673766 
L 345.362127 120.641643 
L 345.490009 120.76051 
L 345.61751 120.534949 
L 345.744631 120.369217 
L 346.060788 120.578567 
L 346.186598 120.498544 
L 346.312039 120.513372 
L 346.499513 120.272456 
L 346.748204 120.682093 
L 346.933777 120.169308 
L 347.17996 120.543932 
L 347.241285 120.592312 
L 347.363671 120.258715 
L 347.424732 120.281582 
L 347.485707 120.454788 
L 347.546594 120.427108 
L 347.607395 120.445821 
L 347.78928 120.298588 
L 347.970394 120.512427 
L 348.270555 120.342824 
L 348.449643 120.553332 
L 348.687266 120.246958 
L 349.041241 120.248013 
L 349.158583 120.216109 
L 349.392305 120.336914 
L 349.624756 120.120793 
L 349.855948 120.375809 
L 349.913551 120.289322 
L 350.085895 119.780888 
L 350.257547 120.341717 
L 350.314611 120.034955 
L 350.485348 120.622564 
L 350.542109 120.45502 
L 350.598795 119.913925 
L 350.655405 120.190166 
L 350.824788 120.901921 
L 350.8811 120.227484 
L 350.937338 120.854938 
L 350.993502 120.379115 
L 351.049592 120.511847 
L 351.105608 120.551159 
L 351.161552 120.766989 
L 351.217422 120.703801 
L 351.384595 120.633881 
L 351.551116 120.626369 
L 352.101544 120.637239 
L 353.500319 120.435464 
L 353.816711 120.233667 
L 355.212166 120.196991 
L 355.415076 120.027209 
L 355.566629 120.093841 
L 355.717647 119.993267 
L 355.868132 119.996338 
L 356.067957 119.947439 
L 356.217215 119.946813 
L 356.415418 119.78466 
L 356.661885 119.824647 
L 356.809086 119.734639 
L 357.004567 119.711734 
L 357.199158 119.612668 
L 357.296122 119.690869 
L 357.441157 119.65096 
L 357.777667 119.610966 
L 357.873329 119.62277 
L 358.06401 119.424789 
L 358.442839 119.449935 
L 358.77158 119.447676 
L 358.911698 119.459725 
L 359.051358 119.355628 
L 359.190562 119.406519 
L 359.329315 119.418772 
L 359.467618 119.376324 
L 359.697133 119.267346 
L 359.970933 119.276568 
L 360.152496 119.218282 
L 360.288164 119.311126 
L 360.603056 119.087466 
L 360.781957 119.548848 
L 360.960112 119.225438 
L 361.004535 119.234115 
L 361.137527 119.115318 
L 361.181766 119.286632 
L 361.270107 119.244473 
L 361.446241 119.199219 
L 361.665393 119.166608 
L 361.839909 119.052 
L 361.9269 118.980917 
L 362.057056 119.493997 
L 362.186815 119.114397 
L 362.229981 119.135474 
L 362.316182 119.162782 
L 362.359218 119.413558 
L 362.40221 119.227822 
L 362.573747 119.277883 
L 362.744598 119.117343 
L 362.872289 119.067182 
L 363.168758 118.771608 
L 363.295189 118.925733 
L 363.421248 118.955556 
L 363.463184 118.849102 
L 363.546935 118.883368 
L 363.713944 118.805304 
L 363.838774 118.845557 
L 364.046017 118.75469 
L 364.169881 119.67009 
L 364.252259 119.624946 
L 364.293388 119.405526 
L 364.375528 119.118911 
L 364.498442 120.924374 
L 364.539335 120.013937 
L 364.621003 120.096501 
L 364.702516 120.043286 
L 364.865076 119.955523 
L 365.628899 119.875269 
L 366.730206 119.670671 
L 367.270391 119.661277 
L 369.365301 119.542262 
L 370.553339 119.144177 
L 370.83644 119.14974 
L 373.002615 118.895757 
L 373.169919 118.757019 
L 373.369822 118.921294 
L 373.502573 119.737332 
L 373.568795 119.058923 
L 373.601867 119.763375 
L 373.634913 119.731882 
L 373.7339 118.967098 
L 373.766844 119.356332 
L 373.832657 120.323843 
L 373.865526 119.600865 
L 373.931187 119.567704 
L 373.996748 119.944077 
L 374.0949 119.729874 
L 374.127567 119.792259 
L 374.323049 119.628417 
L 374.711348 119.554013 
L 376.043253 119.537951 
L 376.570768 119.428883 
L 376.908662 119.174601 
L 377.06137 119.106215 
L 377.243903 119.027402 
L 377.576534 118.999068 
L 377.756884 118.94627 
L 377.966333 118.785745 
L 378.115313 118.570826 
L 378.145047 118.607106 
L 378.204453 118.458267 
L 378.293407 119.740782 
L 378.323017 118.904454 
L 378.411724 119.180912 
L 378.441252 119.092648 
L 378.47076 119.806411 
L 378.559162 119.496193 
L 378.764723 119.120813 
L 379.404407 119.02152 
L 379.920751 118.923719 
L 381.32313 118.566506 
L 381.488363 118.548653 
L 381.68033 118.521838 
L 381.925884 118.429206 
L 382.061696 118.409022 
L 382.197077 118.35159 
L 382.439686 118.243102 
L 382.466558 118.357594 
L 382.493413 118.43097 
L 382.547072 118.356745 
L 382.680925 118.140964 
L 382.761037 118.965874 
L 382.840998 118.784933 
L 382.92081 118.669343 
L 382.94738 119.074375 
L 382.973935 118.43297 
L 383.000473 119.26417 
L 383.053499 118.582112 
L 383.079987 119.109741 
L 383.106459 118.517132 
L 383.159354 118.914848 
L 383.291306 118.33518 
L 383.317647 118.546262 
L 383.396574 118.484009 
L 383.736916 118.418761 
L 384.409569 118.387074 
L 385.147548 118.282781 
L 385.77366 118.130796 
L 386.73243 117.968244 
L 386.902262 117.892952 
L 387.717688 117.934404 
L 387.765173 117.738255 
L 387.859985 118.652262 
L 387.930955 118.275192 
L 387.954586 118.666736 
L 387.978204 118.418664 
L 388.001809 118.718704 
L 388.096097 118.613897 
L 388.143163 118.269302 
L 388.213666 118.395244 
L 388.284052 118.317995 
L 388.68073 118.179084 
L 390.655052 117.939427 
L 390.920348 117.705295 
L 391.140177 117.311395 
L 391.205906 118.477418 
L 391.293387 117.995731 
L 391.315229 117.503886 
L 391.33706 118.761018 
L 391.35888 118.109577 
L 391.446049 118.666476 
L 391.467813 118.584033 
L 391.663196 117.853422 
L 392.265398 117.685311 
L 392.265398 117.685311 
" clip-path="url(#pac8e8d5723)" style="fill: none; stroke: #2ca02c; stroke-width: 1.5; stroke-linecap: square"/>
   </g>
   <g id="line2d_40">
    <path d="M 67.610852 42.414125 
L 97.216992 58.286143 
L 114.535474 67.743154 
L 126.823132 73.944767 
L 136.354181 79.727329 
L 144.141614 84.923712 
L 150.725795 89.724057 
L 156.429272 94.629083 
L 161.460096 99.756084 
L 165.960321 104.882629 
L 170.031269 109.997622 
L 177.166589 118.211755 
L 180.331935 121.275672 
L 183.278802 123.498274 
L 186.035413 125.252031 
L 191.066236 128.034389 
L 197.650417 131.253042 
L 205.097509 134.604247 
L 216.955891 139.644284 
L 255.309339 155.749141 
L 267.596998 161.229649 
L 280.473805 167.29875 
L 288.697828 171.39474 
L 296.202796 175.343564 
L 303.617487 179.519073 
L 310.225972 183.527772 
L 316.328466 187.511415 
L 321.555412 191.206135 
L 326.312036 194.814169 
L 331.309503 198.924294 
L 334.892302 202.102962 
L 338.873893 205.901997 
L 342.172144 209.305628 
L 344.259386 211.580805 
L 352.752829 222.009306 
L 356.760075 227.666691 
L 363.295189 238.167172 
L 363.921792 239.240882 
L 368.14327 247.041592 
L 368.851127 248.561895 
L 369.909418 250.664356 
L 370.659722 252.237112 
L 371.536089 253.917813 
L 372.190306 255.551573 
L 373.036128 257.332431 
L 373.269988 257.867999 
L 373.96398 259.315489 
L 376.847425 266.367392 
L 377.030872 266.804049 
L 377.455877 267.891968 
L 378.47076 270.404117 
L 378.617995 270.936847 
L 378.647381 270.756531 
L 378.676746 271.089287 
L 378.706092 271.120017 
L 378.823274 271.431897 
L 378.852519 271.181724 
L 378.910949 271.559042 
L 379.977739 274.164817 
L 380.006205 273.694106 
L 380.034652 274.204921 
L 380.091488 274.085023 
L 380.119878 273.732609 
L 380.176601 274.245164 
L 380.261545 274.204921 
L 380.430928 274.951634 
L 380.459093 274.697337 
L 380.48724 275.080909 
L 380.543478 274.908861 
L 380.571569 274.823787 
L 380.683749 275.704062 
L 380.711748 275.167902 
L 380.767692 275.255554 
L 380.879359 275.935008 
L 380.935083 276.075821 
L 380.962918 275.522567 
L 380.990735 276.266279 
L 381.074076 275.981756 
L 381.184946 276.70663 
L 381.212619 276.411208 
L 381.240274 276.314388 
L 381.26791 276.459924 
L 381.405827 277.164405 
L 381.433357 276.266279 
L 381.460869 277.426775 
L 381.488363 276.806804 
L 381.57074 277.533412 
L 381.598164 277.009792 
L 381.68033 277.804386 
L 381.652959 276.706629 
L 381.73502 277.321112 
L 381.762339 277.373823 
L 381.78964 277.804386 
L 381.816923 276.95871 
L 381.871439 277.695233 
L 381.89867 277.479971 
L 381.953081 277.641041 
L 382.007423 277.533412 
L 382.034568 277.804386 
L 382.061696 277.479971 
L 382.088806 278.025829 
L 382.1159 278.194737 
L 382.142976 277.85935 
L 382.170035 277.804386 
L 382.197077 278.366148 
L 382.2781 277.914577 
L 382.412797 278.776268 
L 382.493413 277.914577 
L 382.466558 278.896166 
L 382.520251 278.423854 
L 382.547072 278.48185 
L 382.600663 278.896166 
L 382.627434 278.716782 
L 382.654188 277.914577 
L 382.680925 279.642879 
L 382.734349 278.48185 
L 382.814361 279.515032 
L 382.787707 278.423854 
L 382.840998 278.48185 
L 382.894222 279.642879 
L 382.92081 278.194737 
L 383.026994 278.366148 
L 383.079987 280.035121 
L 383.212184 279.451635 
L 383.238574 279.2635 
L 383.264948 279.451635 
L 383.317647 279.078375 
L 383.396574 280.441129 
L 383.449111 278.59872 
L 383.475355 280.719939 
L 383.527796 279.578779 
L 383.553992 280.236345 
L 383.580172 279.139755 
L 383.632484 279.968817 
L 383.658616 280.035121 
L 383.762984 279.2635 
L 383.789036 280.933546 
L 383.867097 280.304204 
L 383.945016 279.578779 
L 383.919059 280.510204 
L 383.970958 280.304204 
L 384.048688 280.101808 
L 384.022794 280.441129 
L 384.074567 280.168881 
L 384.152108 281.078173 
L 384.126277 279.578779 
L 384.203725 280.861904 
L 384.255279 281.372967 
L 384.281033 279.902891 
L 384.306771 281.298561 
L 384.409569 280.861904 
L 384.43523 280.861904 
L 384.512121 281.523229 
L 384.53772 280.441129 
L 384.563304 281.752346 
L 384.614426 281.372967 
L 384.639965 281.523229 
L 384.716488 281.675469 
L 384.741965 280.236344 
L 384.767427 282.801221 
L 384.843722 281.372967 
L 384.869124 281.447854 
L 384.89451 281.224631 
L 384.919882 281.005633 
L 385.021217 280.790704 
L 385.046513 282.550596 
L 385.09706 280.579694 
L 385.122312 284.334125 
L 385.197976 281.829738 
L 385.273507 281.078173 
L 385.298654 282.386479 
L 385.323787 281.523229 
L 385.399095 281.675469 
L 385.449228 282.224658 
L 385.499301 281.752346 
L 385.524316 281.447854 
L 385.549316 282.224658 
L 385.574301 282.144588 
L 385.599272 282.386479 
L 385.624228 282.144588 
L 385.64917 281.599098 
L 385.674097 282.305286 
L 385.723908 281.752346 
L 385.872992 282.550596 
L 385.94734 281.829738 
L 385.972093 282.633536 
L 385.996833 282.717074 
L 386.095648 281.907651 
L 386.046269 283.144061 
L 386.120316 282.224658 
L 386.144969 283.408028 
L 386.218845 281.907651 
L 386.341689 283.408028 
L 386.415226 281.752346 
L 386.390727 283.678158 
L 386.43971 282.468247 
L 386.46418 283.408028 
L 386.488636 282.305286 
L 386.561921 283.057394 
L 386.63508 282.224658 
L 386.659438 283.678158 
L 386.683783 281.986092 
L 386.756733 282.971371 
L 386.781023 283.497372 
L 386.805298 281.829738 
L 386.853808 282.80122 
L 386.878042 282.885983 
L 386.902262 283.769621 
L 386.926469 282.224658 
L 386.974841 283.678158 
L 386.999006 282.550596 
L 387.095532 283.144061 
L 387.11963 282.305286 
L 387.143713 283.231383 
L 387.215883 282.633536 
L 387.311921 283.678158 
L 387.287932 282.144588 
L 387.335897 283.057394 
L 387.383808 282.386479 
L 387.407743 283.497372 
L 387.455573 282.80122 
L 387.479469 282.717074 
L 387.527219 282.386479 
L 387.551074 283.319368 
L 387.646362 281.907651 
L 387.67015 283.408028 
L 387.765173 282.468247 
L 387.836301 282.224658 
L 387.883655 283.231383 
L 387.978204 281.907651 
L 388.0254 282.386479 
L 388.048979 282.305286 
L 388.072544 282.386479 
L 388.119637 281.986092 
L 388.166677 282.717074 
L 388.260602 281.005633 
L 388.23714 283.861813 
L 388.284052 282.224658 
L 388.354322 282.80122 
L 388.330911 281.599098 
L 388.37772 281.907651 
L 388.447836 282.801221 
L 388.541146 282.550596 
L 388.564442 281.675469 
L 388.610995 282.971371 
L 388.634253 282.144588 
L 388.70395 281.675469 
L 388.727157 282.971371 
L 388.750351 281.675469 
L 388.843004 282.305286 
L 388.889254 282.633536 
L 388.935455 283.231383 
L 389.027707 281.372967 
L 389.11976 283.408028 
L 389.142743 281.907651 
L 389.165712 281.829738 
L 389.18867 283.057394 
L 389.211615 281.523229 
L 389.280377 282.468247 
L 389.303273 281.372967 
L 389.394735 282.065069 
L 389.41757 281.372967 
L 389.440393 282.386479 
L 389.508788 281.675469 
L 389.599811 282.224658 
L 389.554324 281.005633 
L 389.622536 281.752346 
L 389.735983 280.579694 
L 389.781277 281.372967 
L 389.803907 280.304204 
L 389.826524 280.933545 
L 389.849129 280.441129 
L 389.871722 281.372967 
L 389.894304 282.144588 
L 389.939431 280.441129 
L 389.961976 280.035122 
L 389.98451 280.649604 
L 390.029542 282.224658 
L 390.074526 279.707337 
L 390.097001 280.861904 
L 390.209196 279.2635 
L 390.343442 281.15117 
L 390.365775 281.298561 
L 390.477267 274.366745 
L 390.499531 266.974833 
L 390.544023 70.856237 
L 390.610675 97.775905 
L 390.632869 101.119096 
L 390.810008 200.497548 
L 391.052381 208.053829 
L 391.68485 218.082239 
L 392.265398 223.183761 
L 392.265398 223.183761 
" clip-path="url(#pac8e8d5723)" style="fill: none; stroke-dasharray: 5.55,2.4; stroke-dashoffset: 0; stroke: #d62728; stroke-width: 1.5"/>
   </g>
   <g id="line2d_41">
    <path d="M 67.610852 51.90623 
L 97.216992 61.538792 
L 114.535474 65.55378 
L 126.823132 67.176376 
L 136.354181 68.160266 
L 150.725795 69.058848 
L 161.460096 69.428323 
L 199.637409 70.274812 
L 263.008796 71.171361 
L 334.728337 71.995952 
L 358.206465 72.098478 
L 385.69901 71.887988 
L 387.978204 71.151029 
L 390.119463 69.325745 
L 390.343442 68.939367 
L 390.365775 68.978145 
L 390.388097 68.894832 
L 390.432705 68.905358 
L 390.477267 68.728791 
L 390.499531 68.785372 
L 390.521783 55.359604 
L 390.610675 66.306921 
L 390.743667 67.09287 
L 391.008416 67.267527 
L 392.158482 67.537734 
L 392.265398 67.550771 
L 392.265398 67.550771 
" clip-path="url(#pac8e8d5723)" style="fill: none; stroke: #d62728; stroke-width: 1.5; stroke-linecap: square"/>
   </g>
   <g id="patch_3">
    <path d="M 51.378125 296.430125 
L 51.378125 30.318125 
" style="fill: none; stroke: #000000; stroke-width: 0.8; stroke-linejoin: miter; stroke-linecap: square"/>
   </g>
   <g id="patch_4">
    <path d="M 408.498125 296.430125 
L 408.498125 30.318125 
" style="fill: none; stroke: #000000; stroke-width: 0.8; stroke-linejoin: miter; stroke-linecap: square"/>
   </g>
   <g id="patch_5">
    <path d="M 51.378125 296.430125 
L 408.498125 296.430125 
" style="fill: none; stroke: #000000; stroke-width: 0.8; stroke-linejoin: miter; stroke-linecap: square"/>
   </g>
   <g id="patch_6">
    <path d="M 51.378125 30.318125 
L 408.498125 30.318125 
" style="fill: none; stroke: #000000; stroke-width: 0.8; stroke-linejoin: miter; stroke-linecap: square"/>
   </g>
   <g id="text_12">
    <!-- Loss per Epoch (3-Layer MLP on MNIST) -->
    <g transform="translate(95.654375 16.318125) scale(0.12 -0.12)">
     <defs>
      <path id="DejaVuSans-Bold-20" transform="scale(0.015625)"/>
      <path id="DejaVuSans-Bold-65" d="M 4031 1759 
L 4031 1441 
L 1416 1441 
Q 1456 1047 1700 850 
Q 1944 653 2381 653 
Q 2734 653 3104 758 
Q 3475 863 3866 1075 
L 3866 213 
Q 3469 63 3072 -14 
Q 2675 -91 2278 -91 
Q 1328 -91 801 392 
Q 275 875 275 1747 
Q 275 2603 792 3093 
Q 1309 3584 2216 3584 
Q 3041 3584 3536 3087 
Q 4031 2591 4031 1759 
z
M 2881 2131 
Q 2881 2450 2695 2645 
Q 2509 2841 2209 2841 
Q 1884 2841 1681 2658 
Q 1478 2475 1428 2131 
L 2881 2131 
z
" transform="scale(0.015625)"/>
      <path id="DejaVuSans-Bold-72" d="M 3138 2547 
Q 2991 2616 2845 2648 
Q 2700 2681 2553 2681 
Q 2122 2681 1889 2404 
Q 1656 2128 1656 1613 
L 1656 0 
L 538 0 
L 538 3500 
L 1656 3500 
L 1656 2925 
Q 1872 3269 2151 3426 
Q 2431 3584 2822 3584 
Q 2878 3584 2943 3579 
Q 3009 3575 3134 3559 
L 3138 2547 
z
" transform="scale(0.015625)"/>
      <path id="DejaVuSans-Bold-28" d="M 2413 -844 
L 1484 -844 
Q 1006 -72 778 623 
Q 550 1319 550 2003 
Q 550 2688 779 3389 
Q 1009 4091 1484 4856 
L 2413 4856 
Q 2013 4116 1813 3408 
Q 1613 2700 1613 2009 
Q 1613 1319 1811 609 
Q 2009 -100 2413 -844 
z
" transform="scale(0.015625)"/>
      <path id="DejaVuSans-Bold-33" d="M 2981 2516 
Q 3453 2394 3698 2092 
Q 3944 1791 3944 1325 
Q 3944 631 3412 270 
Q 2881 -91 1863 -91 
Q 1503 -91 1142 -33 
Q 781 25 428 141 
L 428 1069 
Q 766 900 1098 814 
Q 1431 728 1753 728 
Q 2231 728 2486 893 
Q 2741 1059 2741 1369 
Q 2741 1688 2480 1852 
Q 2219 2016 1709 2016 
L 1228 2016 
L 1228 2791 
L 1734 2791 
Q 2188 2791 2409 2933 
Q 2631 3075 2631 3366 
Q 2631 3634 2415 3781 
Q 2200 3928 1806 3928 
Q 1516 3928 1219 3862 
Q 922 3797 628 3669 
L 628 4550 
Q 984 4650 1334 4700 
Q 1684 4750 2022 4750 
Q 2931 4750 3382 4451 
Q 3834 4153 3834 3553 
Q 3834 3144 3618 2883 
Q 3403 2622 2981 2516 
z
" transform="scale(0.015625)"/>
      <path id="DejaVuSans-Bold-2d" d="M 347 2297 
L 2309 2297 
L 2309 1388 
L 347 1388 
L 347 2297 
z
" transform="scale(0.015625)"/>
      <path id="DejaVuSans-Bold-61" d="M 2106 1575 
Q 1756 1575 1579 1456 
Q 1403 1338 1403 1106 
Q 1403 894 1545 773 
Q 1688 653 1941 653 
Q 2256 653 2472 879 
Q 2688 1106 2688 1447 
L 2688 1575 
L 2106 1575 
z
M 3816 1997 
L 3816 0 
L 2688 0 
L 2688 519 
Q 2463 200 2181 54 
Q 1900 -91 1497 -91 
Q 953 -91 614 226 
Q 275 544 275 1050 
Q 275 1666 698 1953 
Q 1122 2241 2028 2241 
L 2688 2241 
L 2688 2328 
Q 2688 2594 2478 2717 
Q 2269 2841 1825 2841 
Q 1466 2841 1156 2769 
Q 847 2697 581 2553 
L 581 3406 
Q 941 3494 1303 3539 
Q 1666 3584 2028 3584 
Q 2975 3584 3395 3211 
Q 3816 2838 3816 1997 
z
" transform="scale(0.015625)"/>
      <path id="DejaVuSans-Bold-79" d="M 78 3500 
L 1197 3500 
L 2138 1125 
L 2938 3500 
L 4056 3500 
L 2584 -331 
Q 2363 -916 2067 -1148 
Q 1772 -1381 1288 -1381 
L 641 -1381 
L 641 -647 
L 991 -647 
Q 1275 -647 1404 -556 
Q 1534 -466 1606 -231 
L 1638 -134 
L 78 3500 
z
" transform="scale(0.015625)"/>
      <path id="DejaVuSans-Bold-4d" d="M 588 4666 
L 2119 4666 
L 3181 2169 
L 4250 4666 
L 5778 4666 
L 5778 0 
L 4641 0 
L 4641 3413 
L 3566 897 
L 2803 897 
L 1728 3413 
L 1728 0 
L 588 0 
L 588 4666 
z
" transform="scale(0.015625)"/>
      <path id="DejaVuSans-Bold-50" d="M 588 4666 
L 2584 4666 
Q 3475 4666 3951 4270 
Q 4428 3875 4428 3144 
Q 4428 2409 3951 2014 
Q 3475 1619 2584 1619 
L 1791 1619 
L 1791 0 
L 588 0 
L 588 4666 
z
M 1791 3794 
L 1791 2491 
L 2456 2491 
Q 2806 2491 2997 2661 
Q 3188 2831 3188 3144 
Q 3188 3456 2997 3625 
Q 2806 3794 2456 3794 
L 1791 3794 
z
" transform="scale(0.015625)"/>
      <path id="DejaVuSans-Bold-6e" d="M 4056 2131 
L 4056 0 
L 2931 0 
L 2931 347 
L 2931 1631 
Q 2931 2084 2911 2256 
Q 2891 2428 2841 2509 
Q 2775 2619 2662 2680 
Q 2550 2741 2406 2741 
Q 2056 2741 1856 2470 
Q 1656 2200 1656 1722 
L 1656 0 
L 538 0 
L 538 3500 
L 1656 3500 
L 1656 2988 
Q 1909 3294 2193 3439 
Q 2478 3584 2822 3584 
Q 3428 3584 3742 3212 
Q 4056 2841 4056 2131 
z
" transform="scale(0.015625)"/>
      <path id="DejaVuSans-Bold-4e" d="M 588 4666 
L 1931 4666 
L 3628 1466 
L 3628 4666 
L 4769 4666 
L 4769 0 
L 3425 0 
L 1728 3200 
L 1728 0 
L 588 0 
L 588 4666 
z
" transform="scale(0.015625)"/>
      <path id="DejaVuSans-Bold-49" d="M 588 4666 
L 1791 4666 
L 1791 0 
L 588 0 
L 588 4666 
z
" transform="scale(0.015625)"/>
      <path id="DejaVuSans-Bold-53" d="M 3834 4519 
L 3834 3531 
Q 3450 3703 3084 3790 
Q 2719 3878 2394 3878 
Q 1963 3878 1756 3759 
Q 1550 3641 1550 3391 
Q 1550 3203 1689 3098 
Q 1828 2994 2194 2919 
L 2706 2816 
Q 3484 2659 3812 2340 
Q 4141 2022 4141 1434 
Q 4141 663 3683 286 
Q 3225 -91 2284 -91 
Q 1841 -91 1394 -6 
Q 947 78 500 244 
L 500 1259 
Q 947 1022 1364 901 
Q 1781 781 2169 781 
Q 2563 781 2772 912 
Q 2981 1044 2981 1288 
Q 2981 1506 2839 1625 
Q 2697 1744 2272 1838 
L 1806 1941 
Q 1106 2091 782 2419 
Q 459 2747 459 3303 
Q 459 4000 909 4375 
Q 1359 4750 2203 4750 
Q 2588 4750 2994 4692 
Q 3400 4634 3834 4519 
z
" transform="scale(0.015625)"/>
      <path id="DejaVuSans-Bold-54" d="M 31 4666 
L 4331 4666 
L 4331 3756 
L 2784 3756 
L 2784 0 
L 1581 0 
L 1581 3756 
L 31 3756 
L 31 4666 
z
" transform="scale(0.015625)"/>
      <path id="DejaVuSans-Bold-29" d="M 513 -844 
Q 913 -100 1113 609 
Q 1313 1319 1313 2009 
Q 1313 2700 1113 3408 
Q 913 4116 513 4856 
L 1441 4856 
Q 1916 4091 2145 3389 
Q 2375 2688 2375 2003 
Q 2375 1319 2147 623 
Q 1919 -72 1441 -844 
L 513 -844 
z
" transform="scale(0.015625)"/>
     </defs>
     <use xlink:href="#DejaVuSans-Bold-4c"/>
     <use xlink:href="#DejaVuSans-Bold-6f" transform="translate(63.720703 0)"/>
     <use xlink:href="#DejaVuSans-Bold-73" transform="translate(132.421875 0)"/>
     <use xlink:href="#DejaVuSans-Bold-73" transform="translate(191.943359 0)"/>
     <use xlink:href="#DejaVuSans-Bold-20" transform="translate(251.464844 0)"/>
     <use xlink:href="#DejaVuSans-Bold-70" transform="translate(286.279297 0)"/>
     <use xlink:href="#DejaVuSans-Bold-65" transform="translate(357.861328 0)"/>
     <use xlink:href="#DejaVuSans-Bold-72" transform="translate(425.683594 0)"/>
     <use xlink:href="#DejaVuSans-Bold-20" transform="translate(475 0)"/>
     <use xlink:href="#DejaVuSans-Bold-45" transform="translate(509.814453 0)"/>
     <use xlink:href="#DejaVuSans-Bold-70" transform="translate(578.125 0)"/>
     <use xlink:href="#DejaVuSans-Bold-6f" transform="translate(649.707031 0)"/>
     <use xlink:href="#DejaVuSans-Bold-63" transform="translate(718.408203 0)"/>
     <use xlink:href="#DejaVuSans-Bold-68" transform="translate(777.685547 0)"/>
     <use xlink:href="#DejaVuSans-Bold-20" transform="translate(848.876953 0)"/>
     <use xlink:href="#DejaVuSans-Bold-28" transform="translate(883.691406 0)"/>
     <use xlink:href="#DejaVuSans-Bold-33" transform="translate(929.394531 0)"/>
     <use xlink:href="#DejaVuSans-Bold-2d" transform="translate(998.974609 0)"/>
     <use xlink:href="#DejaVuSans-Bold-4c" transform="translate(1040.478516 0)"/>
     <use xlink:href="#DejaVuSans-Bold-61" transform="translate(1104.199219 0)"/>
     <use xlink:href="#DejaVuSans-Bold-79" transform="translate(1168.554688 0)"/>
     <use xlink:href="#DejaVuSans-Bold-65" transform="translate(1233.740234 0)"/>
     <use xlink:href="#DejaVuSans-Bold-72" transform="translate(1301.5625 0)"/>
     <use xlink:href="#DejaVuSans-Bold-20" transform="translate(1350.878906 0)"/>
     <use xlink:href="#DejaVuSans-Bold-4d" transform="translate(1385.693359 0)"/>
     <use xlink:href="#DejaVuSans-Bold-4c" transform="translate(1485.205078 0)"/>
     <use xlink:href="#DejaVuSans-Bold-50" transform="translate(1548.925781 0)"/>
     <use xlink:href="#DejaVuSans-Bold-20" transform="translate(1622.216797 0)"/>
     <use xlink:href="#DejaVuSans-Bold-6f" transform="translate(1657.03125 0)"/>
     <use xlink:href="#DejaVuSans-Bold-6e" transform="translate(1725.732422 0)"/>
     <use xlink:href="#DejaVuSans-Bold-20" transform="translate(1796.923828 0)"/>
     <use xlink:href="#DejaVuSans-Bold-4d" transform="translate(1831.738281 0)"/>
     <use xlink:href="#DejaVuSans-Bold-4e" transform="translate(1931.25 0)"/>
     <use xlink:href="#DejaVuSans-Bold-49" transform="translate(2014.941406 0)"/>
     <use xlink:href="#DejaVuSans-Bold-53" transform="translate(2052.148438 0)"/>
     <use xlink:href="#DejaVuSans-Bold-54" transform="translate(2124.169922 0)"/>
     <use xlink:href="#DejaVuSans-Bold-29" transform="translate(2192.382812 0)"/>
    </g>
   </g>
   <g id="legend_1">
    <g id="patch_7">
     <path d="M 58.378125 291.430125 
L 201.453125 291.430125 
Q 203.453125 291.430125 203.453125 289.430125 
L 203.453125 231.717625 
Q 203.453125 229.717625 201.453125 229.717625 
L 58.378125 229.717625 
Q 56.378125 229.717625 56.378125 231.717625 
L 56.378125 289.430125 
Q 56.378125 291.430125 58.378125 291.430125 
z
" style="fill: #ffffff; opacity: 0.8; stroke: #cccccc; stroke-linejoin: miter"/>
    </g>
    <g id="line2d_42">
     <path d="M 60.378125 237.816062 
L 70.378125 237.816062 
L 80.378125 237.816062 
" style="fill: none; stroke-dasharray: 5.55,2.4; stroke-dashoffset: 0; stroke: #2ca02c; stroke-width: 1.5"/>
    </g>
    <g id="text_13">
     <!-- Train (no scaling) -->
     <g transform="translate(88.378125 241.316062) scale(0.1 -0.1)">
      <defs>
       <path id="DejaVuSans-54" d="M -19 4666 
L 3928 4666 
L 3928 4134 
L 2272 4134 
L 2272 0 
L 1638 0 
L 1638 4134 
L -19 4134 
L -19 4666 
z
" transform="scale(0.015625)"/>
       <path id="DejaVuSans-72" d="M 2631 2963 
Q 2534 3019 2420 3045 
Q 2306 3072 2169 3072 
Q 1681 3072 1420 2755 
Q 1159 2438 1159 1844 
L 1159 0 
L 581 0 
L 581 3500 
L 1159 3500 
L 1159 2956 
Q 1341 3275 1631 3429 
Q 1922 3584 2338 3584 
Q 2397 3584 2469 3576 
Q 2541 3569 2628 3553 
L 2631 2963 
z
" transform="scale(0.015625)"/>
       <path id="DejaVuSans-61" d="M 2194 1759 
Q 1497 1759 1228 1600 
Q 959 1441 959 1056 
Q 959 750 1161 570 
Q 1363 391 1709 391 
Q 2188 391 2477 730 
Q 2766 1069 2766 1631 
L 2766 1759 
L 2194 1759 
z
M 3341 1997 
L 3341 0 
L 2766 0 
L 2766 531 
Q 2569 213 2275 61 
Q 1981 -91 1556 -91 
Q 1019 -91 701 211 
Q 384 513 384 1019 
Q 384 1609 779 1909 
Q 1175 2209 1959 2209 
L 2766 2209 
L 2766 2266 
Q 2766 2663 2505 2880 
Q 2244 3097 1772 3097 
Q 1472 3097 1187 3025 
Q 903 2953 641 2809 
L 641 3341 
Q 956 3463 1253 3523 
Q 1550 3584 1831 3584 
Q 2591 3584 2966 3190 
Q 3341 2797 3341 1997 
z
" transform="scale(0.015625)"/>
       <path id="DejaVuSans-69" d="M 603 3500 
L 1178 3500 
L 1178 0 
L 603 0 
L 603 3500 
z
M 603 4863 
L 1178 4863 
L 1178 4134 
L 603 4134 
L 603 4863 
z
" transform="scale(0.015625)"/>
       <path id="DejaVuSans-6e" d="M 3513 2113 
L 3513 0 
L 2938 0 
L 2938 2094 
Q 2938 2591 2744 2837 
Q 2550 3084 2163 3084 
Q 1697 3084 1428 2787 
Q 1159 2491 1159 1978 
L 1159 0 
L 581 0 
L 581 3500 
L 1159 3500 
L 1159 2956 
Q 1366 3272 1645 3428 
Q 1925 3584 2291 3584 
Q 2894 3584 3203 3211 
Q 3513 2838 3513 2113 
z
" transform="scale(0.015625)"/>
       <path id="DejaVuSans-20" transform="scale(0.015625)"/>
       <path id="DejaVuSans-28" d="M 1984 4856 
Q 1566 4138 1362 3434 
Q 1159 2731 1159 2009 
Q 1159 1288 1364 580 
Q 1569 -128 1984 -844 
L 1484 -844 
Q 1016 -109 783 600 
Q 550 1309 550 2009 
Q 550 2706 781 3412 
Q 1013 4119 1484 4856 
L 1984 4856 
z
" transform="scale(0.015625)"/>
       <path id="DejaVuSans-6f" d="M 1959 3097 
Q 1497 3097 1228 2736 
Q 959 2375 959 1747 
Q 959 1119 1226 758 
Q 1494 397 1959 397 
Q 2419 397 2687 759 
Q 2956 1122 2956 1747 
Q 2956 2369 2687 2733 
Q 2419 3097 1959 3097 
z
M 1959 3584 
Q 2709 3584 3137 3096 
Q 3566 2609 3566 1747 
Q 3566 888 3137 398 
Q 2709 -91 1959 -91 
Q 1206 -91 779 398 
Q 353 888 353 1747 
Q 353 2609 779 3096 
Q 1206 3584 1959 3584 
z
" transform="scale(0.015625)"/>
       <path id="DejaVuSans-73" d="M 2834 3397 
L 2834 2853 
Q 2591 2978 2328 3040 
Q 2066 3103 1784 3103 
Q 1356 3103 1142 2972 
Q 928 2841 928 2578 
Q 928 2378 1081 2264 
Q 1234 2150 1697 2047 
L 1894 2003 
Q 2506 1872 2764 1633 
Q 3022 1394 3022 966 
Q 3022 478 2636 193 
Q 2250 -91 1575 -91 
Q 1294 -91 989 -36 
Q 684 19 347 128 
L 347 722 
Q 666 556 975 473 
Q 1284 391 1588 391 
Q 1994 391 2212 530 
Q 2431 669 2431 922 
Q 2431 1156 2273 1281 
Q 2116 1406 1581 1522 
L 1381 1569 
Q 847 1681 609 1914 
Q 372 2147 372 2553 
Q 372 3047 722 3315 
Q 1072 3584 1716 3584 
Q 2034 3584 2315 3537 
Q 2597 3491 2834 3397 
z
" transform="scale(0.015625)"/>
       <path id="DejaVuSans-63" d="M 3122 3366 
L 3122 2828 
Q 2878 2963 2633 3030 
Q 2388 3097 2138 3097 
Q 1578 3097 1268 2742 
Q 959 2388 959 1747 
Q 959 1106 1268 751 
Q 1578 397 2138 397 
Q 2388 397 2633 464 
Q 2878 531 3122 666 
L 3122 134 
Q 2881 22 2623 -34 
Q 2366 -91 2075 -91 
Q 1284 -91 818 406 
Q 353 903 353 1747 
Q 353 2603 823 3093 
Q 1294 3584 2113 3584 
Q 2378 3584 2631 3529 
Q 2884 3475 3122 3366 
z
" transform="scale(0.015625)"/>
       <path id="DejaVuSans-6c" d="M 603 4863 
L 1178 4863 
L 1178 0 
L 603 0 
L 603 4863 
z
" transform="scale(0.015625)"/>
       <path id="DejaVuSans-67" d="M 2906 1791 
Q 2906 2416 2648 2759 
Q 2391 3103 1925 3103 
Q 1463 3103 1205 2759 
Q 947 2416 947 1791 
Q 947 1169 1205 825 
Q 1463 481 1925 481 
Q 2391 481 2648 825 
Q 2906 1169 2906 1791 
z
M 3481 434 
Q 3481 -459 3084 -895 
Q 2688 -1331 1869 -1331 
Q 1566 -1331 1297 -1286 
Q 1028 -1241 775 -1147 
L 775 -588 
Q 1028 -725 1275 -790 
Q 1522 -856 1778 -856 
Q 2344 -856 2625 -561 
Q 2906 -266 2906 331 
L 2906 616 
Q 2728 306 2450 153 
Q 2172 0 1784 0 
Q 1141 0 747 490 
Q 353 981 353 1791 
Q 353 2603 747 3093 
Q 1141 3584 1784 3584 
Q 2172 3584 2450 3431 
Q 2728 3278 2906 2969 
L 2906 3500 
L 3481 3500 
L 3481 434 
z
" transform="scale(0.015625)"/>
       <path id="DejaVuSans-29" d="M 513 4856 
L 1013 4856 
Q 1481 4119 1714 3412 
Q 1947 2706 1947 2009 
Q 1947 1309 1714 600 
Q 1481 -109 1013 -844 
L 513 -844 
Q 928 -128 1133 580 
Q 1338 1288 1338 2009 
Q 1338 2731 1133 3434 
Q 928 4138 513 4856 
z
" transform="scale(0.015625)"/>
      </defs>
      <use xlink:href="#DejaVuSans-54"/>
      <use xlink:href="#DejaVuSans-72" transform="translate(46.333984 0)"/>
      <use xlink:href="#DejaVuSans-61" transform="translate(87.447266 0)"/>
      <use xlink:href="#DejaVuSans-69" transform="translate(148.726562 0)"/>
      <use xlink:href="#DejaVuSans-6e" transform="translate(176.509766 0)"/>
      <use xlink:href="#DejaVuSans-20" transform="translate(239.888672 0)"/>
      <use xlink:href="#DejaVuSans-28" transform="translate(271.675781 0)"/>
      <use xlink:href="#DejaVuSans-6e" transform="translate(310.689453 0)"/>
      <use xlink:href="#DejaVuSans-6f" transform="translate(374.068359 0)"/>
      <use xlink:href="#DejaVuSans-20" transform="translate(435.25 0)"/>
      <use xlink:href="#DejaVuSans-73" transform="translate(467.037109 0)"/>
      <use xlink:href="#DejaVuSans-63" transform="translate(519.136719 0)"/>
      <use xlink:href="#DejaVuSans-61" transform="translate(574.117188 0)"/>
      <use xlink:href="#DejaVuSans-6c" transform="translate(635.396484 0)"/>
      <use xlink:href="#DejaVuSans-69" transform="translate(663.179688 0)"/>
      <use xlink:href="#DejaVuSans-6e" transform="translate(690.962891 0)"/>
      <use xlink:href="#DejaVuSans-67" transform="translate(754.341797 0)"/>
      <use xlink:href="#DejaVuSans-29" transform="translate(817.818359 0)"/>
     </g>
    </g>
    <g id="line2d_43">
     <path d="M 60.378125 252.494187 
L 70.378125 252.494187 
L 80.378125 252.494187 
" style="fill: none; stroke: #2ca02c; stroke-width: 1.5; stroke-linecap: square"/>
    </g>
    <g id="text_14">
     <!-- Validation (no scaling) -->
     <g transform="translate(88.378125 255.994187) scale(0.1 -0.1)">
      <defs>
       <path id="DejaVuSans-56" d="M 1831 0 
L 50 4666 
L 709 4666 
L 2188 738 
L 3669 4666 
L 4325 4666 
L 2547 0 
L 1831 0 
z
" transform="scale(0.015625)"/>
       <path id="DejaVuSans-64" d="M 2906 2969 
L 2906 4863 
L 3481 4863 
L 3481 0 
L 2906 0 
L 2906 525 
Q 2725 213 2448 61 
Q 2172 -91 1784 -91 
Q 1150 -91 751 415 
Q 353 922 353 1747 
Q 353 2572 751 3078 
Q 1150 3584 1784 3584 
Q 2172 3584 2448 3432 
Q 2725 3281 2906 2969 
z
M 947 1747 
Q 947 1113 1208 752 
Q 1469 391 1925 391 
Q 2381 391 2643 752 
Q 2906 1113 2906 1747 
Q 2906 2381 2643 2742 
Q 2381 3103 1925 3103 
Q 1469 3103 1208 2742 
Q 947 2381 947 1747 
z
" transform="scale(0.015625)"/>
       <path id="DejaVuSans-74" d="M 1172 4494 
L 1172 3500 
L 2356 3500 
L 2356 3053 
L 1172 3053 
L 1172 1153 
Q 1172 725 1289 603 
Q 1406 481 1766 481 
L 2356 481 
L 2356 0 
L 1766 0 
Q 1100 0 847 248 
Q 594 497 594 1153 
L 594 3053 
L 172 3053 
L 172 3500 
L 594 3500 
L 594 4494 
L 1172 4494 
z
" transform="scale(0.015625)"/>
      </defs>
      <use xlink:href="#DejaVuSans-56"/>
      <use xlink:href="#DejaVuSans-61" transform="translate(60.658203 0)"/>
      <use xlink:href="#DejaVuSans-6c" transform="translate(121.9375 0)"/>
      <use xlink:href="#DejaVuSans-69" transform="translate(149.720703 0)"/>
      <use xlink:href="#DejaVuSans-64" transform="translate(177.503906 0)"/>
      <use xlink:href="#DejaVuSans-61" transform="translate(240.980469 0)"/>
      <use xlink:href="#DejaVuSans-74" transform="translate(302.259766 0)"/>
      <use xlink:href="#DejaVuSans-69" transform="translate(341.46875 0)"/>
      <use xlink:href="#DejaVuSans-6f" transform="translate(369.251953 0)"/>
      <use xlink:href="#DejaVuSans-6e" transform="translate(430.433594 0)"/>
      <use xlink:href="#DejaVuSans-20" transform="translate(493.8125 0)"/>
      <use xlink:href="#DejaVuSans-28" transform="translate(525.599609 0)"/>
      <use xlink:href="#DejaVuSans-6e" transform="translate(564.613281 0)"/>
      <use xlink:href="#DejaVuSans-6f" transform="translate(627.992188 0)"/>
      <use xlink:href="#DejaVuSans-20" transform="translate(689.173828 0)"/>
      <use xlink:href="#DejaVuSans-73" transform="translate(720.960938 0)"/>
      <use xlink:href="#DejaVuSans-63" transform="translate(773.060547 0)"/>
      <use xlink:href="#DejaVuSans-61" transform="translate(828.041016 0)"/>
      <use xlink:href="#DejaVuSans-6c" transform="translate(889.320312 0)"/>
      <use xlink:href="#DejaVuSans-69" transform="translate(917.103516 0)"/>
      <use xlink:href="#DejaVuSans-6e" transform="translate(944.886719 0)"/>
      <use xlink:href="#DejaVuSans-67" transform="translate(1008.265625 0)"/>
      <use xlink:href="#DejaVuSans-29" transform="translate(1071.742188 0)"/>
     </g>
    </g>
    <g id="line2d_44">
     <path d="M 60.378125 267.172312 
L 70.378125 267.172312 
L 80.378125 267.172312 
" style="fill: none; stroke-dasharray: 5.55,2.4; stroke-dashoffset: 0; stroke: #d62728; stroke-width: 1.5"/>
    </g>
    <g id="text_15">
     <!-- Train (CE loss) -->
     <g transform="translate(88.378125 270.672312) scale(0.1 -0.1)">
      <defs>
       <path id="DejaVuSans-43" d="M 4122 4306 
L 4122 3641 
Q 3803 3938 3442 4084 
Q 3081 4231 2675 4231 
Q 1875 4231 1450 3742 
Q 1025 3253 1025 2328 
Q 1025 1406 1450 917 
Q 1875 428 2675 428 
Q 3081 428 3442 575 
Q 3803 722 4122 1019 
L 4122 359 
Q 3791 134 3420 21 
Q 3050 -91 2638 -91 
Q 1578 -91 968 557 
Q 359 1206 359 2328 
Q 359 3453 968 4101 
Q 1578 4750 2638 4750 
Q 3056 4750 3426 4639 
Q 3797 4528 4122 4306 
z
" transform="scale(0.015625)"/>
       <path id="DejaVuSans-45" d="M 628 4666 
L 3578 4666 
L 3578 4134 
L 1259 4134 
L 1259 2753 
L 3481 2753 
L 3481 2222 
L 1259 2222 
L 1259 531 
L 3634 531 
L 3634 0 
L 628 0 
L 628 4666 
z
" transform="scale(0.015625)"/>
      </defs>
      <use xlink:href="#DejaVuSans-54"/>
      <use xlink:href="#DejaVuSans-72" transform="translate(46.333984 0)"/>
      <use xlink:href="#DejaVuSans-61" transform="translate(87.447266 0)"/>
      <use xlink:href="#DejaVuSans-69" transform="translate(148.726562 0)"/>
      <use xlink:href="#DejaVuSans-6e" transform="translate(176.509766 0)"/>
      <use xlink:href="#DejaVuSans-20" transform="translate(239.888672 0)"/>
      <use xlink:href="#DejaVuSans-28" transform="translate(271.675781 0)"/>
      <use xlink:href="#DejaVuSans-43" transform="translate(310.689453 0)"/>
      <use xlink:href="#DejaVuSans-45" transform="translate(380.513672 0)"/>
      <use xlink:href="#DejaVuSans-20" transform="translate(443.697266 0)"/>
      <use xlink:href="#DejaVuSans-6c" transform="translate(475.484375 0)"/>
      <use xlink:href="#DejaVuSans-6f" transform="translate(503.267578 0)"/>
      <use xlink:href="#DejaVuSans-73" transform="translate(564.449219 0)"/>
      <use xlink:href="#DejaVuSans-73" transform="translate(616.548828 0)"/>
      <use xlink:href="#DejaVuSans-29" transform="translate(668.648438 0)"/>
     </g>
    </g>
    <g id="line2d_45">
     <path d="M 60.378125 281.850437 
L 70.378125 281.850437 
L 80.378125 281.850437 
" style="fill: none; stroke: #d62728; stroke-width: 1.5; stroke-linecap: square"/>
    </g>
    <g id="text_16">
     <!-- Validation (CE loss) -->
     <g transform="translate(88.378125 285.350437) scale(0.1 -0.1)">
      <use xlink:href="#DejaVuSans-56"/>
      <use xlink:href="#DejaVuSans-61" transform="translate(60.658203 0)"/>
      <use xlink:href="#DejaVuSans-6c" transform="translate(121.9375 0)"/>
      <use xlink:href="#DejaVuSans-69" transform="translate(149.720703 0)"/>
      <use xlink:href="#DejaVuSans-64" transform="translate(177.503906 0)"/>
      <use xlink:href="#DejaVuSans-61" transform="translate(240.980469 0)"/>
      <use xlink:href="#DejaVuSans-74" transform="translate(302.259766 0)"/>
      <use xlink:href="#DejaVuSans-69" transform="translate(341.46875 0)"/>
      <use xlink:href="#DejaVuSans-6f" transform="translate(369.251953 0)"/>
      <use xlink:href="#DejaVuSans-6e" transform="translate(430.433594 0)"/>
      <use xlink:href="#DejaVuSans-20" transform="translate(493.8125 0)"/>
      <use xlink:href="#DejaVuSans-28" transform="translate(525.599609 0)"/>
      <use xlink:href="#DejaVuSans-43" transform="translate(564.613281 0)"/>
      <use xlink:href="#DejaVuSans-45" transform="translate(634.4375 0)"/>
      <use xlink:href="#DejaVuSans-20" transform="translate(697.621094 0)"/>
      <use xlink:href="#DejaVuSans-6c" transform="translate(729.408203 0)"/>
      <use xlink:href="#DejaVuSans-6f" transform="translate(757.191406 0)"/>
      <use xlink:href="#DejaVuSans-73" transform="translate(818.373047 0)"/>
      <use xlink:href="#DejaVuSans-73" transform="translate(870.472656 0)"/>
      <use xlink:href="#DejaVuSans-29" transform="translate(922.572266 0)"/>
     </g>
    </g>
   </g>
  </g>
 </g>
 <defs>
  <clipPath id="pac8e8d5723">
   <rect x="51.378125" y="30.318125" width="357.12" height="266.112"/>
  </clipPath>
 </defs>
</svg>
