<?xml version="1.0" encoding="utf-8" standalone="no"?>
<!DOCTYPE svg PUBLIC "-//W3C//DTD SVG 1.1//EN"
  "http://www.w3.org/Graphics/SVG/1.1/DTD/svg11.dtd">
<svg xmlns:xlink="http://www.w3.org/1999/xlink" width="415.698125pt" height="333.986375pt" viewBox="0 0 415.698125 333.986375" xmlns="http://www.w3.org/2000/svg" version="1.1">
 <metadata>
  <rdf:RDF xmlns:dc="http://purl.org/dc/elements/1.1/" xmlns:cc="http://creativecommons.org/ns#" xmlns:rdf="http://www.w3.org/1999/02/22-rdf-syntax-ns#">
   <cc:Work>
    <dc:type rdf:resource="http://purl.org/dc/dcmitype/StillImage"/>
    <dc:date>2025-11-26T12:46:23.350434</dc:date>
    <dc:format>image/svg+xml</dc:format>
    <dc:creator>
     <cc:Agent>
      <dc:title>Matplotlib v3.10.7, https://matplotlib.org/</dc:title>
     </cc:Agent>
    </dc:creator>
   </cc:Work>
  </rdf:RDF>
 </metadata>
 <defs>
  <style type="text/css">*{stroke-linejoin: round; stroke-linecap: butt}</style>
 </defs>
 <g id="figure_1">
  <g id="patch_1">
   <path d="M 0 333.986375 
L 415.698125 333.986375 
L 415.698125 0 
L 0 0 
z
" style="fill: #ffffff"/>
  </g>
  <g id="axes_1">
   <g id="patch_2">
    <path d="M 51.378125 296.430125 
L 408.498125 296.430125 
L 408.498125 30.318125 
L 51.378125 30.318125 
z
" style="fill: #ffffff"/>
   </g>
   <g id="matplotlib.axis_1">
    <g id="xtick_1">
     <g id="line2d_1">
      <defs>
       <path id="m73ec8ee8ab" d="M 0 0 
L 0 3.5 
" style="stroke: #000000; stroke-width: 0.8"/>
      </defs>
      <g>
       <use xlink:href="#m73ec8ee8ab" x="67.610852" y="296.430125" style="stroke: #000000; stroke-width: 0.8"/>
      </g>
     </g>
     <g id="text_1">
      <!-- $\mathdefault{10^{0}}$ -->
      <g transform="translate(58.810852 311.028562) scale(0.1 -0.1)">
       <defs>
        <path id="DejaVuSans-31" d="M 794 531 
L 1825 531 
L 1825 4091 
L 703 3866 
L 703 4441 
L 1819 4666 
L 2450 4666 
L 2450 531 
L 3481 531 
L 3481 0 
L 794 0 
L 794 531 
z
" transform="scale(0.015625)"/>
        <path id="DejaVuSans-30" d="M 2034 4250 
Q 1547 4250 1301 3770 
Q 1056 3291 1056 2328 
Q 1056 1369 1301 889 
Q 1547 409 2034 409 
Q 2525 409 2770 889 
Q 3016 1369 3016 2328 
Q 3016 3291 2770 3770 
Q 2525 4250 2034 4250 
z
M 2034 4750 
Q 2819 4750 3233 4129 
Q 3647 3509 3647 2328 
Q 3647 1150 3233 529 
Q 2819 -91 2034 -91 
Q 1250 -91 836 529 
Q 422 1150 422 2328 
Q 422 3509 836 4129 
Q 1250 4750 2034 4750 
z
" transform="scale(0.015625)"/>
       </defs>
       <use xlink:href="#DejaVuSans-31" transform="translate(0 0.765625)"/>
       <use xlink:href="#DejaVuSans-30" transform="translate(63.623047 0.765625)"/>
       <use xlink:href="#DejaVuSans-30" transform="translate(128.203125 39.046875) scale(0.7)"/>
      </g>
     </g>
    </g>
    <g id="xtick_2">
     <g id="line2d_2">
      <g>
       <use xlink:href="#m73ec8ee8ab" x="165.960321" y="296.430125" style="stroke: #000000; stroke-width: 0.8"/>
      </g>
     </g>
     <g id="text_2">
      <!-- $\mathdefault{10^{1}}$ -->
      <g transform="translate(157.160321 311.028562) scale(0.1 -0.1)">
       <use xlink:href="#DejaVuSans-31" transform="translate(0 0.684375)"/>
       <use xlink:href="#DejaVuSans-30" transform="translate(63.623047 0.684375)"/>
       <use xlink:href="#DejaVuSans-31" transform="translate(128.203125 38.965625) scale(0.7)"/>
      </g>
     </g>
    </g>
    <g id="xtick_3">
     <g id="line2d_3">
      <g>
       <use xlink:href="#m73ec8ee8ab" x="264.309789" y="296.430125" style="stroke: #000000; stroke-width: 0.8"/>
      </g>
     </g>
     <g id="text_3">
      <!-- $\mathdefault{10^{2}}$ -->
      <g transform="translate(255.509789 311.028562) scale(0.1 -0.1)">
       <defs>
        <path id="DejaVuSans-32" d="M 1228 531 
L 3431 531 
L 3431 0 
L 469 0 
L 469 531 
Q 828 903 1448 1529 
Q 2069 2156 2228 2338 
Q 2531 2678 2651 2914 
Q 2772 3150 2772 3378 
Q 2772 3750 2511 3984 
Q 2250 4219 1831 4219 
Q 1534 4219 1204 4116 
Q 875 4013 500 3803 
L 500 4441 
Q 881 4594 1212 4672 
Q 1544 4750 1819 4750 
Q 2544 4750 2975 4387 
Q 3406 4025 3406 3419 
Q 3406 3131 3298 2873 
Q 3191 2616 2906 2266 
Q 2828 2175 2409 1742 
Q 1991 1309 1228 531 
z
" transform="scale(0.015625)"/>
       </defs>
       <use xlink:href="#DejaVuSans-31" transform="translate(0 0.765625)"/>
       <use xlink:href="#DejaVuSans-30" transform="translate(63.623047 0.765625)"/>
       <use xlink:href="#DejaVuSans-32" transform="translate(128.203125 39.046875) scale(0.7)"/>
      </g>
     </g>
    </g>
    <g id="xtick_4">
     <g id="line2d_4">
      <g>
       <use xlink:href="#m73ec8ee8ab" x="362.659258" y="296.430125" style="stroke: #000000; stroke-width: 0.8"/>
      </g>
     </g>
     <g id="text_4">
      <!-- $\mathdefault{10^{3}}$ -->
      <g transform="translate(353.859258 311.028562) scale(0.1 -0.1)">
       <defs>
        <path id="DejaVuSans-33" d="M 2597 2516 
Q 3050 2419 3304 2112 
Q 3559 1806 3559 1356 
Q 3559 666 3084 287 
Q 2609 -91 1734 -91 
Q 1441 -91 1130 -33 
Q 819 25 488 141 
L 488 750 
Q 750 597 1062 519 
Q 1375 441 1716 441 
Q 2309 441 2620 675 
Q 2931 909 2931 1356 
Q 2931 1769 2642 2001 
Q 2353 2234 1838 2234 
L 1294 2234 
L 1294 2753 
L 1863 2753 
Q 2328 2753 2575 2939 
Q 2822 3125 2822 3475 
Q 2822 3834 2567 4026 
Q 2313 4219 1838 4219 
Q 1578 4219 1281 4162 
Q 984 4106 628 3988 
L 628 4550 
Q 988 4650 1302 4700 
Q 1616 4750 1894 4750 
Q 2613 4750 3031 4423 
Q 3450 4097 3450 3541 
Q 3450 3153 3228 2886 
Q 3006 2619 2597 2516 
z
" transform="scale(0.015625)"/>
       </defs>
       <use xlink:href="#DejaVuSans-31" transform="translate(0 0.765625)"/>
       <use xlink:href="#DejaVuSans-30" transform="translate(63.623047 0.765625)"/>
       <use xlink:href="#DejaVuSans-33" transform="translate(128.203125 39.046875) scale(0.7)"/>
      </g>
     </g>
    </g>
    <g id="xtick_5">
     <g id="line2d_5">
      <defs>
       <path id="m623c27c85b" d="M 0 0 
L 0 2 
" style="stroke: #000000; stroke-width: 0.6"/>
      </defs>
      <g>
       <use xlink:href="#m623c27c85b" x="52.376327" y="296.430125" style="stroke: #000000; stroke-width: 0.6"/>
      </g>
     </g>
    </g>
    <g id="xtick_6">
     <g id="line2d_6">
      <g>
       <use xlink:href="#m623c27c85b" x="58.079804" y="296.430125" style="stroke: #000000; stroke-width: 0.6"/>
      </g>
     </g>
    </g>
    <g id="xtick_7">
     <g id="line2d_7">
      <g>
       <use xlink:href="#m623c27c85b" x="63.110627" y="296.430125" style="stroke: #000000; stroke-width: 0.6"/>
      </g>
     </g>
    </g>
    <g id="xtick_8">
     <g id="line2d_8">
      <g>
       <use xlink:href="#m623c27c85b" x="97.216992" y="296.430125" style="stroke: #000000; stroke-width: 0.6"/>
      </g>
     </g>
    </g>
    <g id="xtick_9">
     <g id="line2d_9">
      <g>
       <use xlink:href="#m623c27c85b" x="114.535474" y="296.430125" style="stroke: #000000; stroke-width: 0.6"/>
      </g>
     </g>
    </g>
    <g id="xtick_10">
     <g id="line2d_10">
      <g>
       <use xlink:href="#m623c27c85b" x="126.823132" y="296.430125" style="stroke: #000000; stroke-width: 0.6"/>
      </g>
     </g>
    </g>
    <g id="xtick_11">
     <g id="line2d_11">
      <g>
       <use xlink:href="#m623c27c85b" x="136.354181" y="296.430125" style="stroke: #000000; stroke-width: 0.6"/>
      </g>
     </g>
    </g>
    <g id="xtick_12">
     <g id="line2d_12">
      <g>
       <use xlink:href="#m623c27c85b" x="144.141614" y="296.430125" style="stroke: #000000; stroke-width: 0.6"/>
      </g>
     </g>
    </g>
    <g id="xtick_13">
     <g id="line2d_13">
      <g>
       <use xlink:href="#m623c27c85b" x="150.725795" y="296.430125" style="stroke: #000000; stroke-width: 0.6"/>
      </g>
     </g>
    </g>
    <g id="xtick_14">
     <g id="line2d_14">
      <g>
       <use xlink:href="#m623c27c85b" x="156.429272" y="296.430125" style="stroke: #000000; stroke-width: 0.6"/>
      </g>
     </g>
    </g>
    <g id="xtick_15">
     <g id="line2d_15">
      <g>
       <use xlink:href="#m623c27c85b" x="161.460096" y="296.430125" style="stroke: #000000; stroke-width: 0.6"/>
      </g>
     </g>
    </g>
    <g id="xtick_16">
     <g id="line2d_16">
      <g>
       <use xlink:href="#m623c27c85b" x="195.566461" y="296.430125" style="stroke: #000000; stroke-width: 0.6"/>
      </g>
     </g>
    </g>
    <g id="xtick_17">
     <g id="line2d_17">
      <g>
       <use xlink:href="#m623c27c85b" x="212.884943" y="296.430125" style="stroke: #000000; stroke-width: 0.6"/>
      </g>
     </g>
    </g>
    <g id="xtick_18">
     <g id="line2d_18">
      <g>
       <use xlink:href="#m623c27c85b" x="225.172601" y="296.430125" style="stroke: #000000; stroke-width: 0.6"/>
      </g>
     </g>
    </g>
    <g id="xtick_19">
     <g id="line2d_19">
      <g>
       <use xlink:href="#m623c27c85b" x="234.703649" y="296.430125" style="stroke: #000000; stroke-width: 0.6"/>
      </g>
     </g>
    </g>
    <g id="xtick_20">
     <g id="line2d_20">
      <g>
       <use xlink:href="#m623c27c85b" x="242.491083" y="296.430125" style="stroke: #000000; stroke-width: 0.6"/>
      </g>
     </g>
    </g>
    <g id="xtick_21">
     <g id="line2d_21">
      <g>
       <use xlink:href="#m623c27c85b" x="249.075264" y="296.430125" style="stroke: #000000; stroke-width: 0.6"/>
      </g>
     </g>
    </g>
    <g id="xtick_22">
     <g id="line2d_22">
      <g>
       <use xlink:href="#m623c27c85b" x="254.778741" y="296.430125" style="stroke: #000000; stroke-width: 0.6"/>
      </g>
     </g>
    </g>
    <g id="xtick_23">
     <g id="line2d_23">
      <g>
       <use xlink:href="#m623c27c85b" x="259.809564" y="296.430125" style="stroke: #000000; stroke-width: 0.6"/>
      </g>
     </g>
    </g>
    <g id="xtick_24">
     <g id="line2d_24">
      <g>
       <use xlink:href="#m623c27c85b" x="293.915929" y="296.430125" style="stroke: #000000; stroke-width: 0.6"/>
      </g>
     </g>
    </g>
    <g id="xtick_25">
     <g id="line2d_25">
      <g>
       <use xlink:href="#m623c27c85b" x="311.234411" y="296.430125" style="stroke: #000000; stroke-width: 0.6"/>
      </g>
     </g>
    </g>
    <g id="xtick_26">
     <g id="line2d_26">
      <g>
       <use xlink:href="#m623c27c85b" x="323.522069" y="296.430125" style="stroke: #000000; stroke-width: 0.6"/>
      </g>
     </g>
    </g>
    <g id="xtick_27">
     <g id="line2d_27">
      <g>
       <use xlink:href="#m623c27c85b" x="333.053118" y="296.430125" style="stroke: #000000; stroke-width: 0.6"/>
      </g>
     </g>
    </g>
    <g id="xtick_28">
     <g id="line2d_28">
      <g>
       <use xlink:href="#m623c27c85b" x="340.840551" y="296.430125" style="stroke: #000000; stroke-width: 0.6"/>
      </g>
     </g>
    </g>
    <g id="xtick_29">
     <g id="line2d_29">
      <g>
       <use xlink:href="#m623c27c85b" x="347.424732" y="296.430125" style="stroke: #000000; stroke-width: 0.6"/>
      </g>
     </g>
    </g>
    <g id="xtick_30">
     <g id="line2d_30">
      <g>
       <use xlink:href="#m623c27c85b" x="353.128209" y="296.430125" style="stroke: #000000; stroke-width: 0.6"/>
      </g>
     </g>
    </g>
    <g id="xtick_31">
     <g id="line2d_31">
      <g>
       <use xlink:href="#m623c27c85b" x="358.159033" y="296.430125" style="stroke: #000000; stroke-width: 0.6"/>
      </g>
     </g>
    </g>
    <g id="xtick_32">
     <g id="line2d_32">
      <g>
       <use xlink:href="#m623c27c85b" x="392.265398" y="296.430125" style="stroke: #000000; stroke-width: 0.6"/>
      </g>
     </g>
    </g>
    <g id="text_5">
     <!-- Epoch -->
     <g transform="translate(212.985 324.706687) scale(0.1 -0.1)">
      <defs>
       <path id="DejaVuSans-Bold-45" d="M 588 4666 
L 3834 4666 
L 3834 3756 
L 1791 3756 
L 1791 2888 
L 3713 2888 
L 3713 1978 
L 1791 1978 
L 1791 909 
L 3903 909 
L 3903 0 
L 588 0 
L 588 4666 
z
" transform="scale(0.015625)"/>
       <path id="DejaVuSans-Bold-70" d="M 1656 506 
L 1656 -1331 
L 538 -1331 
L 538 3500 
L 1656 3500 
L 1656 2988 
Q 1888 3294 2169 3439 
Q 2450 3584 2816 3584 
Q 3463 3584 3878 3070 
Q 4294 2556 4294 1747 
Q 4294 938 3878 423 
Q 3463 -91 2816 -91 
Q 2450 -91 2169 54 
Q 1888 200 1656 506 
z
M 2400 2772 
Q 2041 2772 1848 2508 
Q 1656 2244 1656 1747 
Q 1656 1250 1848 986 
Q 2041 722 2400 722 
Q 2759 722 2948 984 
Q 3138 1247 3138 1747 
Q 3138 2247 2948 2509 
Q 2759 2772 2400 2772 
z
" transform="scale(0.015625)"/>
       <path id="DejaVuSans-Bold-6f" d="M 2203 2784 
Q 1831 2784 1636 2517 
Q 1441 2250 1441 1747 
Q 1441 1244 1636 976 
Q 1831 709 2203 709 
Q 2569 709 2762 976 
Q 2956 1244 2956 1747 
Q 2956 2250 2762 2517 
Q 2569 2784 2203 2784 
z
M 2203 3584 
Q 3106 3584 3614 3096 
Q 4122 2609 4122 1747 
Q 4122 884 3614 396 
Q 3106 -91 2203 -91 
Q 1297 -91 786 396 
Q 275 884 275 1747 
Q 275 2609 786 3096 
Q 1297 3584 2203 3584 
z
" transform="scale(0.015625)"/>
       <path id="DejaVuSans-Bold-63" d="M 3366 3391 
L 3366 2478 
Q 3138 2634 2908 2709 
Q 2678 2784 2431 2784 
Q 1963 2784 1702 2511 
Q 1441 2238 1441 1747 
Q 1441 1256 1702 982 
Q 1963 709 2431 709 
Q 2694 709 2930 787 
Q 3166 866 3366 1019 
L 3366 103 
Q 3103 6 2833 -42 
Q 2563 -91 2291 -91 
Q 1344 -91 809 395 
Q 275 881 275 1747 
Q 275 2613 809 3098 
Q 1344 3584 2291 3584 
Q 2566 3584 2833 3536 
Q 3100 3488 3366 3391 
z
" transform="scale(0.015625)"/>
       <path id="DejaVuSans-Bold-68" d="M 4056 2131 
L 4056 0 
L 2931 0 
L 2931 347 
L 2931 1625 
Q 2931 2084 2911 2256 
Q 2891 2428 2841 2509 
Q 2775 2619 2662 2680 
Q 2550 2741 2406 2741 
Q 2056 2741 1856 2470 
Q 1656 2200 1656 1722 
L 1656 0 
L 538 0 
L 538 4863 
L 1656 4863 
L 1656 2988 
Q 1909 3294 2193 3439 
Q 2478 3584 2822 3584 
Q 3428 3584 3742 3212 
Q 4056 2841 4056 2131 
z
" transform="scale(0.015625)"/>
      </defs>
      <use xlink:href="#DejaVuSans-Bold-45"/>
      <use xlink:href="#DejaVuSans-Bold-70" transform="translate(68.310547 0)"/>
      <use xlink:href="#DejaVuSans-Bold-6f" transform="translate(139.892578 0)"/>
      <use xlink:href="#DejaVuSans-Bold-63" transform="translate(208.59375 0)"/>
      <use xlink:href="#DejaVuSans-Bold-68" transform="translate(267.871094 0)"/>
     </g>
    </g>
   </g>
   <g id="matplotlib.axis_2">
    <g id="ytick_1">
     <g id="line2d_33">
      <defs>
       <path id="ma597ccd308" d="M 0 0 
L -3.5 0 
" style="stroke: #000000; stroke-width: 0.8"/>
      </defs>
      <g>
       <use xlink:href="#ma597ccd308" x="51.378125" y="264.727995" style="stroke: #000000; stroke-width: 0.8"/>
      </g>
     </g>
     <g id="text_6">
      <!-- $\mathdefault{10^{-7}}$ -->
      <g transform="translate(20.878125 268.527214) scale(0.1 -0.1)">
       <defs>
        <path id="DejaVuSans-2212" d="M 678 2272 
L 4684 2272 
L 4684 1741 
L 678 1741 
L 678 2272 
z
" transform="scale(0.015625)"/>
        <path id="DejaVuSans-37" d="M 525 4666 
L 3525 4666 
L 3525 4397 
L 1831 0 
L 1172 0 
L 2766 4134 
L 525 4134 
L 525 4666 
z
" transform="scale(0.015625)"/>
       </defs>
       <use xlink:href="#DejaVuSans-31" transform="translate(0 0.684375)"/>
       <use xlink:href="#DejaVuSans-30" transform="translate(63.623047 0.684375)"/>
       <use xlink:href="#DejaVuSans-2212" transform="translate(128.203125 38.965625) scale(0.7)"/>
       <use xlink:href="#DejaVuSans-37" transform="translate(186.855469 38.965625) scale(0.7)"/>
      </g>
     </g>
    </g>
    <g id="ytick_2">
     <g id="line2d_34">
      <g>
       <use xlink:href="#ma597ccd308" x="51.378125" y="213.476323" style="stroke: #000000; stroke-width: 0.8"/>
      </g>
     </g>
     <g id="text_7">
      <!-- $\mathdefault{10^{-5}}$ -->
      <g transform="translate(20.878125 217.275541) scale(0.1 -0.1)">
       <defs>
        <path id="DejaVuSans-35" d="M 691 4666 
L 3169 4666 
L 3169 4134 
L 1269 4134 
L 1269 2991 
Q 1406 3038 1543 3061 
Q 1681 3084 1819 3084 
Q 2600 3084 3056 2656 
Q 3513 2228 3513 1497 
Q 3513 744 3044 326 
Q 2575 -91 1722 -91 
Q 1428 -91 1123 -41 
Q 819 9 494 109 
L 494 744 
Q 775 591 1075 516 
Q 1375 441 1709 441 
Q 2250 441 2565 725 
Q 2881 1009 2881 1497 
Q 2881 1984 2565 2268 
Q 2250 2553 1709 2553 
Q 1456 2553 1204 2497 
Q 953 2441 691 2322 
L 691 4666 
z
" transform="scale(0.015625)"/>
       </defs>
       <use xlink:href="#DejaVuSans-31" transform="translate(0 0.684375)"/>
       <use xlink:href="#DejaVuSans-30" transform="translate(63.623047 0.684375)"/>
       <use xlink:href="#DejaVuSans-2212" transform="translate(128.203125 38.965625) scale(0.7)"/>
       <use xlink:href="#DejaVuSans-35" transform="translate(186.855469 38.965625) scale(0.7)"/>
      </g>
     </g>
    </g>
    <g id="ytick_3">
     <g id="line2d_35">
      <g>
       <use xlink:href="#ma597ccd308" x="51.378125" y="162.22465" style="stroke: #000000; stroke-width: 0.8"/>
      </g>
     </g>
     <g id="text_8">
      <!-- $\mathdefault{10^{-3}}$ -->
      <g transform="translate(20.878125 166.023869) scale(0.1 -0.1)">
       <use xlink:href="#DejaVuSans-31" transform="translate(0 0.765625)"/>
       <use xlink:href="#DejaVuSans-30" transform="translate(63.623047 0.765625)"/>
       <use xlink:href="#DejaVuSans-2212" transform="translate(128.203125 39.046875) scale(0.7)"/>
       <use xlink:href="#DejaVuSans-33" transform="translate(186.855469 39.046875) scale(0.7)"/>
      </g>
     </g>
    </g>
    <g id="ytick_4">
     <g id="line2d_36">
      <g>
       <use xlink:href="#ma597ccd308" x="51.378125" y="110.972978" style="stroke: #000000; stroke-width: 0.8"/>
      </g>
     </g>
     <g id="text_9">
      <!-- $\mathdefault{10^{-1}}$ -->
      <g transform="translate(20.878125 114.772197) scale(0.1 -0.1)">
       <use xlink:href="#DejaVuSans-31" transform="translate(0 0.684375)"/>
       <use xlink:href="#DejaVuSans-30" transform="translate(63.623047 0.684375)"/>
       <use xlink:href="#DejaVuSans-2212" transform="translate(128.203125 38.965625) scale(0.7)"/>
       <use xlink:href="#DejaVuSans-31" transform="translate(186.855469 38.965625) scale(0.7)"/>
      </g>
     </g>
    </g>
    <g id="ytick_5">
     <g id="line2d_37">
      <g>
       <use xlink:href="#ma597ccd308" x="51.378125" y="59.721305" style="stroke: #000000; stroke-width: 0.8"/>
      </g>
     </g>
     <g id="text_10">
      <!-- $\mathdefault{10^{1}}$ -->
      <g transform="translate(26.778125 63.520524) scale(0.1 -0.1)">
       <use xlink:href="#DejaVuSans-31" transform="translate(0 0.684375)"/>
       <use xlink:href="#DejaVuSans-30" transform="translate(63.623047 0.684375)"/>
       <use xlink:href="#DejaVuSans-31" transform="translate(128.203125 38.965625) scale(0.7)"/>
      </g>
     </g>
    </g>
    <g id="text_11">
     <!-- Loss -->
     <g transform="translate(14.798438 175.946781) rotate(-90) scale(0.1 -0.1)">
      <defs>
       <path id="DejaVuSans-Bold-4c" d="M 588 4666 
L 1791 4666 
L 1791 909 
L 3903 909 
L 3903 0 
L 588 0 
L 588 4666 
z
" transform="scale(0.015625)"/>
       <path id="DejaVuSans-Bold-73" d="M 3272 3391 
L 3272 2541 
Q 2913 2691 2578 2766 
Q 2244 2841 1947 2841 
Q 1628 2841 1473 2761 
Q 1319 2681 1319 2516 
Q 1319 2381 1436 2309 
Q 1553 2238 1856 2203 
L 2053 2175 
Q 2913 2066 3209 1816 
Q 3506 1566 3506 1031 
Q 3506 472 3093 190 
Q 2681 -91 1863 -91 
Q 1516 -91 1145 -36 
Q 775 19 384 128 
L 384 978 
Q 719 816 1070 734 
Q 1422 653 1784 653 
Q 2113 653 2278 743 
Q 2444 834 2444 1013 
Q 2444 1163 2330 1236 
Q 2216 1309 1875 1350 
L 1678 1375 
Q 931 1469 631 1722 
Q 331 1975 331 2491 
Q 331 3047 712 3315 
Q 1094 3584 1881 3584 
Q 2191 3584 2531 3537 
Q 2872 3491 3272 3391 
z
" transform="scale(0.015625)"/>
      </defs>
      <use xlink:href="#DejaVuSans-Bold-4c"/>
      <use xlink:href="#DejaVuSans-Bold-6f" transform="translate(63.720703 0)"/>
      <use xlink:href="#DejaVuSans-Bold-73" transform="translate(132.421875 0)"/>
      <use xlink:href="#DejaVuSans-Bold-73" transform="translate(191.943359 0)"/>
     </g>
    </g>
   </g>
   <g id="line2d_38">
    <path d="M 67.610852 111.713934 
L 97.216992 112.116738 
L 126.823132 112.156892 
L 136.354181 112.510821 
L 144.141614 113.586154 
L 150.725795 114.296851 
L 156.429272 115.305032 
L 161.460096 116.557726 
L 165.960321 117.543938 
L 170.031269 118.619666 
L 173.747754 120.307518 
L 180.331935 122.766747 
L 183.278802 123.677675 
L 186.035413 123.426858 
L 188.62485 124.770679 
L 191.066236 126.422858 
L 193.375589 127.133616 
L 195.566461 127.574241 
L 199.637409 128.754306 
L 201.536061 129.693941 
L 203.353894 131.170853 
L 205.097509 133.194496 
L 208.384718 135.195446 
L 211.436918 135.904411 
L 214.285482 140.920192 
L 215.641553 142.941404 
L 216.955891 146.081794 
L 218.23099 147.380822 
L 219.469124 149.5272 
L 220.672376 150.851958 
L 221.842658 151.485915 
L 222.981729 151.899664 
L 224.091211 151.688159 
L 225.172601 152.146593 
L 226.227287 152.267553 
L 227.256557 150.969594 
L 228.261607 151.241978 
L 229.243549 151.725148 
L 230.203424 152.874255 
L 231.142201 150.659798 
L 232.060788 149.823089 
L 232.960034 149.711384 
L 233.840738 150.352505 
L 234.703649 152.972737 
L 235.549471 151.636729 
L 236.378869 152.58721 
L 237.192468 150.152157 
L 237.990858 149.09676 
L 238.774598 147.732095 
L 239.544216 147.679558 
L 240.300211 147.889222 
L 241.043058 147.386587 
L 241.773206 143.20472 
L 242.491083 144.543456 
L 243.197093 145.088753 
L 243.891622 146.442838 
L 244.575039 146.515905 
L 245.247693 146.31736 
L 245.909917 143.765369 
L 246.562031 145.725272 
L 247.204338 144.625712 
L 247.83713 142.220822 
L 249.075264 148.591161 
L 249.681127 150.710666 
L 250.278516 149.645395 
L 250.867665 154.610907 
L 251.448798 154.259435 
L 252.022131 156.825001 
L 252.587869 156.227847 
L 253.146212 155.197669 
L 253.697351 158.384331 
L 254.241468 159.054492 
L 254.778741 159.202027 
L 255.309339 158.125225 
L 255.833427 159.71949 
L 256.862697 160.89754 
L 257.368178 161.14589 
L 257.867747 161.521743 
L 258.84969 161.288591 
L 259.332323 161.836548 
L 260.281532 162.143124 
L 260.748341 162.268107 
L 261.210104 162.562549 
L 261.666928 162.670816 
L 262.118918 162.935674 
L 262.566174 163.04635 
L 263.446878 163.570323 
L 263.880513 165.943409 
L 264.309789 164.495502 
L 264.734794 165.549392 
L 265.155612 167.809807 
L 266.798608 169.14787 
L 267.199668 169.217499 
L 267.596998 169.856182 
L 267.990665 169.756764 
L 268.380738 169.78442 
L 268.76728 170.514202 
L 269.906351 170.903632 
L 270.27939 171.280975 
L 270.649198 170.893914 
L 271.015832 170.21195 
L 271.379346 171.235191 
L 271.739793 170.723994 
L 272.097223 170.579066 
L 272.451686 171.200665 
L 272.803233 172.085436 
L 273.497762 172.948267 
L 273.840837 173.045737 
L 274.181179 173.723303 
L 274.853833 174.165355 
L 275.186228 173.81487 
L 275.516057 173.184159 
L 275.843359 174.111157 
L 276.168171 174.021966 
L 276.490532 174.577726 
L 276.810479 174.321506 
L 277.128046 174.409591 
L 277.44327 174.680549 
L 278.066823 175.532053 
L 278.98541 176.595253 
L 279.287267 176.699838 
L 279.587006 177.198246 
L 279.884656 177.241264 
L 280.473805 177.65707 
L 280.76536 177.642789 
L 281.054938 177.031372 
L 281.342567 177.846378 
L 281.628271 178.283115 
L 281.912077 177.468277 
L 282.194009 177.316648 
L 282.474093 177.81388 
L 282.752352 177.325897 
L 283.028811 178.531083 
L 283.303491 178.277524 
L 283.576416 178.395794 
L 283.847608 176.573921 
L 284.117089 175.904593 
L 284.384881 172.554418 
L 284.91548 160.229543 
L 285.178327 158.53852 
L 285.439567 154.844115 
L 285.69922 155.052485 
L 285.957303 153.262666 
L 286.468837 159.041735 
L 286.974318 147.402815 
L 287.224833 146.400956 
L 287.473887 139.724877 
L 287.96768 142.922326 
L 288.697828 152.328913 
L 288.938463 153.181177 
L 289.17775 156.009857 
L 289.415704 151.509482 
L 289.65234 152.79292 
L 289.887672 156.695684 
L 290.354481 143.353596 
L 290.816244 152.422042 
L 291.045267 152.179537 
L 291.273068 157.895626 
L 291.499661 157.059069 
L 291.949271 164.651575 
L 292.172314 160.362077 
L 292.394199 164.677947 
L 292.834539 165.562424 
L 293.486653 168.358953 
L 293.70183 168.844162 
L 294.12896 170.817815 
L 294.340934 171.17355 
L 294.551861 171.972716 
L 294.761752 172.019795 
L 294.970616 171.609043 
L 295.178463 172.003514 
L 295.385305 173.010522 
L 296.605749 174.334417 
L 297.400425 175.067944 
L 297.792287 175.063387 
L 297.986878 175.092858 
L 298.180586 175.612752 
L 298.37342 175.753492 
L 298.565387 175.712075 
L 298.946753 176.2013 
L 299.512491 176.745762 
L 299.699418 176.572606 
L 299.88553 176.127241 
L 300.070834 175.085469 
L 300.255338 176.269144 
L 300.439049 176.686239 
L 300.621973 176.256164 
L 300.985486 177.226912 
L 301.16609 177.36486 
L 301.345933 177.661863 
L 301.525022 177.734787 
L 301.703363 177.294128 
L 301.880962 177.754014 
L 302.057826 177.759487 
L 302.233961 177.590001 
L 302.409373 178.450433 
L 302.584067 178.294631 
L 302.758049 177.745171 
L 302.931326 178.813744 
L 303.103902 178.97029 
L 303.275784 178.267247 
L 303.446978 179.499262 
L 303.617487 179.318857 
L 303.787319 179.843768 
L 303.956478 179.840851 
L 304.12497 179.656133 
L 304.2928 179.972408 
L 304.459973 179.745184 
L 304.626494 180.195542 
L 304.792368 178.615143 
L 304.957601 178.391316 
L 305.286162 180.519045 
L 305.449499 180.483881 
L 305.612214 181.332082 
L 305.774311 180.142552 
L 305.935796 181.839052 
L 306.096672 180.508567 
L 306.256945 182.333188 
L 306.575698 182.232345 
L 306.734186 183.189585 
L 306.892089 183.193289 
L 307.04941 183.785127 
L 307.206154 183.644228 
L 307.517926 182.498707 
L 307.672963 183.527963 
L 307.981359 183.95183 
L 308.287544 184.580515 
L 308.439817 184.899578 
L 308.59155 184.841057 
L 308.742745 184.478675 
L 308.893407 183.72754 
L 309.043539 184.55304 
L 309.34223 180.614639 
L 309.638847 183.484229 
L 309.786387 183.186359 
L 310.225972 186.611331 
L 310.3715 186.041912 
L 310.516535 186.419828 
L 310.661078 186.0574 
L 310.805135 186.228327 
L 310.948707 187.346169 
L 311.234411 186.616784 
L 311.37655 187.370723 
L 311.518217 187.424401 
L 311.659416 186.923964 
L 311.800149 187.28697 
L 311.940421 186.221415 
L 312.219589 188.383931 
L 312.496945 179.831497 
L 312.909631 162.378623 
L 313.046311 158.96378 
L 313.182556 158.436242 
L 313.588701 148.034455 
L 313.723229 147.474613 
L 313.991021 140.103184 
L 314.12429 135.547028 
L 314.257144 135.95112 
L 314.52162 143.694004 
L 314.653246 142.574457 
L 315.045708 147.893206 
L 315.434596 160.814974 
L 315.819976 164.43041 
L 315.947667 168.313037 
L 316.201909 167.333489 
L 316.705899 174.967727 
L 316.830973 176.315506 
L 316.955681 175.406104 
L 317.204011 182.578832 
L 317.57382 187.270557 
L 317.696381 184.748121 
L 317.940454 190.551819 
L 318.06197 185.75484 
L 318.303968 194.587079 
L 318.424455 195.573002 
L 318.544603 195.326813 
L 318.903033 200.286729 
L 320.765459 210.116022 
L 321.218648 212.625831 
L 321.331198 211.734956 
L 321.555412 214.56319 
L 322.331019 219.299415 
L 322.659159 221.022126 
L 322.767981 220.339268 
L 322.984796 223.078933 
L 323.7351 227.395801 
L 323.841219 227.193399 
L 324.158001 229.895327 
L 324.680806 232.643221 
L 324.784604 232.924194 
L 324.888149 232.620021 
L 325.197289 235.070122 
L 325.504208 236.206539 
L 325.910031 237.774288 
L 326.111506 238.197851 
L 326.211889 238.849447 
L 326.312036 238.475679 
L 326.611075 240.22875 
L 326.710291 240.087659 
L 326.809278 240.883811 
L 326.908035 240.438219 
L 327.006565 241.425896 
L 327.104868 240.620657 
L 327.202946 241.718131 
L 327.300798 240.573042 
L 327.398427 241.954307 
L 327.495833 240.760803 
L 327.593018 241.957934 
L 327.689982 240.930008 
L 327.786726 242.067213 
L 327.883252 241.499532 
L 327.97956 242.508845 
L 328.075652 242.114325 
L 328.171527 243.039202 
L 328.267188 242.813631 
L 328.362636 243.612011 
L 328.45787 243.458106 
L 328.647704 244.378474 
L 328.930883 245.76573 
L 329.398715 246.536772 
L 329.49167 246.497891 
L 329.769326 246.879035 
L 330.045189 246.884491 
L 330.136749 246.727682 
L 330.319282 245.630265 
L 330.501038 241.962159 
L 330.952073 227.17708 
L 331.131162 234.900871 
L 331.220425 233.588832 
L 331.398395 247.669006 
L 331.663966 245.543428 
L 331.752125 245.57635 
L 331.840101 245.477059 
L 332.277287 248.901131 
L 332.537466 249.870757 
L 332.623841 249.896618 
L 332.710042 250.480339 
L 332.79607 250.40498 
L 332.881924 250.748922 
L 332.967607 249.553435 
L 333.138458 238.712053 
L 333.393459 210.647278 
L 333.478122 214.050473 
L 333.562618 222.438455 
L 333.646947 211.624448 
L 333.73111 178.421837 
L 333.815107 181.943924 
L 333.89894 183.366626 
L 334.315652 134.628901 
L 334.563741 145.336826 
L 334.646119 142.909244 
L 334.728337 136.763842 
L 334.810398 141.481357 
L 334.892302 139.199417 
L 335.137074 156.8817 
L 335.218354 157.950629 
L 335.29948 156.844375 
L 335.541936 165.214465 
L 335.62245 165.186032 
L 336.181838 173.653299 
L 336.340326 176.739019 
L 336.812294 187.054948 
L 337.201655 190.59399 
L 337.279103 189.6976 
L 337.356411 186.067023 
L 337.433579 187.658446 
L 337.664251 190.042513 
L 337.969889 190.923475 
L 338.045957 190.965841 
L 338.273354 191.401293 
L 338.424282 191.468977 
L 338.724548 192.016268 
L 338.799286 191.833837 
L 339.096936 192.412792 
L 339.171026 192.012388 
L 339.244987 190.250908 
L 339.466106 192.430128 
L 339.539558 192.746265 
L 339.612885 192.687152 
L 339.759161 192.865008 
L 339.832112 192.226275 
L 339.904938 192.293145 
L 340.050219 192.856915 
L 340.195008 192.40302 
L 340.267219 190.32161 
L 340.339307 191.354253 
L 340.411275 190.538381 
L 340.483121 190.577448 
L 340.554847 190.383698 
L 340.840551 187.366547 
L 340.91168 189.138318 
L 340.98269 187.021471 
L 341.195015 174.320032 
L 341.265556 153.216433 
L 341.335981 157.032016 
L 341.40629 148.628896 
L 341.476483 152.71069 
L 341.546561 153.412124 
L 341.686373 138.497397 
L 341.756108 143.273122 
L 341.82573 142.636281 
L 341.895238 140.974116 
L 342.241091 157.960254 
L 342.447266 162.768165 
L 342.515771 161.488707 
L 342.584166 165.718757 
L 342.652451 164.884153 
L 342.720628 165.159583 
L 342.788696 164.339227 
L 342.856656 164.641474 
L 342.924507 164.417424 
L 342.992251 164.680294 
L 343.059888 166.164518 
L 343.127418 165.732864 
L 343.262158 166.295675 
L 343.463475 168.884217 
L 343.73043 170.161293 
L 343.929557 174.877903 
L 344.193623 176.308109 
L 344.259386 179.450656 
L 344.325047 176.240827 
L 344.651848 205.341664 
L 345.040736 223.19172 
L 345.744631 236.899115 
L 346.186598 240.834965 
L 346.624039 243.102917 
L 347.057046 243.784562 
L 348.150743 251.937796 
L 348.746466 254.269747 
L 349.158583 255.389295 
L 349.450537 256.216563 
L 349.566761 255.918687 
L 350.314611 259.044482 
L 350.711941 259.738036 
L 350.8811 259.770844 
L 351.049592 259.830262 
L 351.105608 259.802845 
L 351.328943 260.584846 
L 351.606479 262.095133 
L 351.66177 262.184056 
L 351.937159 263.303973 
L 352.101544 263.64626 
L 352.319744 263.92123 
L 352.536836 263.967271 
L 353.074785 263.646862 
L 353.128209 263.785017 
L 353.288082 262.311488 
L 353.34124 261.32096 
L 353.500319 244.89684 
L 353.553214 246.118074 
L 353.711507 263.109072 
L 353.816711 261.256909 
L 353.921656 252.572359 
L 353.974032 253.532367 
L 354.130775 263.501088 
L 354.182896 263.341628 
L 354.234953 264.822949 
L 354.286946 263.427779 
L 354.338876 264.403191 
L 354.700631 242.416803 
L 354.752061 246.438048 
L 355.059348 268.848515 
L 355.110348 267.559234 
L 355.161287 268.518183 
L 355.465654 252.630745 
L 355.667367 236.495124 
L 355.767867 239.309682 
L 355.818029 237.947306 
L 356.018088 262.999152 
L 356.16752 269.900123 
L 356.217215 269.151678 
L 356.266852 270.24914 
L 356.316432 269.418036 
L 356.365953 269.975224 
L 356.612705 261.599408 
L 357.004567 236.069234 
L 357.101973 240.031984 
L 357.199158 248.272831 
L 357.296122 247.559902 
L 357.873329 268.197312 
L 358.301171 255.591649 
L 358.442839 258.214562 
L 358.489957 257.75393 
L 358.537023 258.823943 
L 358.584038 257.666662 
L 358.818337 260.904115 
L 358.958302 265.723895 
L 359.004855 263.155876 
L 359.051358 264.363173 
L 359.09781 263.172092 
L 359.329315 239.0015 
L 359.467618 250.624475 
L 359.51362 245.506588 
L 359.605475 260.922147 
L 359.651329 259.491375 
L 359.697133 261.285339 
L 359.834253 253.94906 
L 359.879861 255.33878 
L 359.925422 254.949931 
L 360.152496 265.923997 
L 360.242989 266.17222 
L 360.468386 270.456696 
L 360.603056 269.13394 
L 360.647851 268.945173 
L 360.6926 269.321626 
L 360.737302 268.588413 
L 360.871127 274.290442 
L 360.915643 272.771812 
L 360.960112 273.639068 
L 361.004535 273.570086 
L 361.181766 267.147421 
L 361.225959 268.902174 
L 361.446241 250.912435 
L 361.490162 251.301665 
L 361.665393 241.646934 
L 361.75274 233.44131 
L 361.796347 238.280381 
L 361.970329 254.657541 
L 362.013714 254.23341 
L 362.100353 260.648145 
L 362.273104 232.043391 
L 362.316182 241.093475 
L 362.359218 229.907161 
L 362.40221 232.920479 
L 362.445159 227.375822 
L 362.488065 233.57894 
L 362.573747 233.917262 
L 362.659258 229.835841 
L 362.701949 230.580128 
L 362.744598 232.316059 
L 362.787204 219.817561 
L 362.914768 139.706399 
L 363.041952 145.144495 
L 363.084262 144.989389 
L 363.210944 150.101319 
L 363.295189 156.096737 
L 363.379269 148.500868 
L 363.546935 161.147067 
L 363.588748 159.602221 
L 363.672253 167.529613 
L 363.713944 163.643333 
L 363.755595 162.805008 
L 363.797205 163.888416 
L 363.838774 151.857712 
L 363.880303 164.930096 
L 363.96324 158.400111 
L 364.087345 166.049209 
L 364.128633 165.255849 
L 364.293388 169.096628 
L 364.45751 169.759564 
L 364.580188 172.450725 
L 364.621003 172.322329 
L 364.90562 175.358559 
L 365.469225 182.004814 
L 365.787978 183.779937 
L 366.064948 184.290412 
L 366.340134 184.461436 
L 366.613558 184.574165 
L 366.769018 184.573561 
L 367.078251 184.650108 
L 367.232032 184.62091 
L 367.576029 185.009233 
L 367.728031 189.968843 
L 367.80383 194.655623 
L 367.917276 182.978801 
L 367.955025 183.493207 
L 367.99274 182.90482 
L 368.14327 184.877768 
L 368.25582 185.169558 
L 368.29327 185.818241 
L 368.480033 204.768721 
L 368.851127 239.481129 
L 369.072246 243.298467 
L 369.182377 244.195391 
L 369.401792 250.745836 
L 369.620085 253.62396 
L 369.692602 253.686335 
L 369.728815 253.647449 
L 369.909418 253.034955 
L 370.160987 252.301055 
L 370.232592 252.29114 
L 370.26835 252.367196 
L 370.51782 253.41466 
L 370.83644 254.273487 
L 371.01243 254.814359 
L 371.222664 256.966085 
L 371.570773 260.034091 
L 371.605428 260.082498 
L 371.640055 260.048643 
L 371.812771 259.177946 
L 371.881663 259.461224 
L 372.019113 262.913072 
L 372.258592 266.856098 
L 372.292693 266.946373 
L 372.326768 266.928075 
L 372.428829 266.245414 
L 372.632223 262.678475 
L 372.834653 254.018784 
L 372.868298 256.667307 
L 373.069615 272.127716 
L 373.369822 274.682328 
L 374.16021 278.208768 
L 374.549986 278.366947 
L 374.711348 276.384361 
L 374.807874 271.536774 
L 374.936237 277.309569 
L 375.032256 277.748529 
L 375.064215 277.256682 
L 375.159947 257.236291 
L 375.22365 240.569016 
L 375.255465 257.878296 
L 375.350771 271.471005 
L 375.41419 265.634475 
L 375.477515 261.834843 
L 375.509142 262.82902 
L 375.635417 274.073426 
L 375.698415 271.936895 
L 375.886854 260.422975 
L 375.949482 262.698359 
L 376.012019 264.91194 
L 376.043253 263.978597 
L 376.199082 254.142234 
L 376.230179 256.228841 
L 376.323337 267.398325 
L 376.385329 274.376014 
L 376.447231 271.606283 
L 376.601596 244.123778 
L 376.632402 249.579961 
L 376.755405 265.784262 
L 376.7861 264.949813 
L 376.816773 262.38209 
L 376.847425 265.489705 
L 376.969811 274.421435 
L 377.000352 273.386986 
L 377.091847 261.061802 
L 377.36516 140.8005 
L 377.39542 146.21971 
L 377.425659 150.088858 
L 377.455877 148.815052 
L 377.486073 143.018881 
L 377.516248 153.23254 
L 377.666804 171.609067 
L 377.696852 172.176028 
L 377.816831 176.485038 
L 377.876695 176.592861 
L 377.936474 177.56249 
L 378.17476 184.6734 
L 378.204453 184.63723 
L 378.234125 182.863179 
L 378.293407 184.047563 
L 378.588588 186.865353 
L 378.881744 212.153225 
L 379.114829 241.610265 
L 379.577216 252.691415 
L 380.148249 260.397184 
L 380.767692 265.297444 
L 381.598164 270.232508 
L 382.034568 272.608114 
L 382.33203 274.66497 
L 382.358969 274.578709 
L 382.439686 270.753985 
L 382.493413 271.565321 
L 382.680925 276.392916 
L 382.734349 276.504366 
L 382.814361 275.293107 
L 382.840998 276.823504 
L 382.92081 275.314435 
L 382.973935 275.050734 
L 383.053499 277.493671 
L 383.317647 262.505351 
L 383.422851 257.491364 
L 383.449111 260.311692 
L 383.658616 274.835759 
L 383.710832 272.710111 
L 383.945016 257.059436 
L 384.074567 268.164767 
L 384.203725 274.755173 
L 384.22951 273.575085 
L 384.306771 266.221742 
L 384.43523 247.37999 
L 384.486506 251.145037 
L 384.639965 264.201204 
L 384.792874 271.081041 
L 384.869124 272.998631 
L 384.919882 272.497049 
L 385.071794 261.441457 
L 385.197976 242.532825 
L 385.248345 245.671438 
L 385.449228 278.262745 
L 385.474272 278.22127 
L 385.549316 274.071214 
L 385.723908 257.070017 
L 385.77366 260.161835 
L 385.94734 283.388531 
L 385.972093 283.253522 
L 386.021558 281.534835 
L 386.144969 266.139085 
L 386.317148 246.726916 
L 386.341689 247.00715 
L 386.513078 275.521838 
L 386.659438 282.365545 
L 386.683783 284.334125 
L 386.781023 283.308687 
L 386.902262 277.884941 
L 387.095532 265.432555 
L 387.143713 265.783407 
L 387.167784 266.50608 
L 387.215883 265.38847 
L 387.335897 245.580501 
L 387.383808 249.575862 
L 387.551074 261.95339 
L 387.812605 270.993688 
L 387.859985 273.130052 
L 387.930955 272.173543 
L 387.954586 272.153042 
L 388.072544 270.89079 
L 388.096097 272.449494 
L 388.166677 270.055175 
L 388.23714 273.188482 
L 388.307488 280.78534 
L 388.354322 278.562287 
L 388.564442 254.255153 
L 388.634253 251.580294 
L 388.657498 254.405351 
L 388.68073 254.596377 
L 388.70395 256.539753 
L 388.750351 252.906088 
L 388.843004 236.01024 
L 388.889254 239.79611 
L 388.981606 245.940146 
L 389.004663 245.845193 
L 389.073758 236.94204 
L 389.11976 241.798195 
L 389.349029 271.770246 
L 389.394735 270.880548 
L 389.440393 265.503265 
L 389.577073 250.921045 
L 389.599811 255.276382 
L 389.713318 268.2248 
L 389.735983 267.954999 
L 389.916873 252.190784 
L 390.007032 245.624783 
L 390.029542 250.110236 
L 390.097001 256.836905 
L 390.141914 253.798481 
L 390.231599 246.349046 
L 390.276371 247.294133 
L 390.29874 249.230208 
L 390.343442 246.279607 
L 390.410407 236.56967 
L 390.432705 231.143617 
L 390.477267 238.842225 
L 390.632869 249.512542 
L 390.677223 244.746564 
L 390.721531 250.351718 
L 390.765792 245.177384 
L 390.787906 245.076242 
L 391.008416 268.500971 
L 391.052381 262.048679 
L 391.184008 253.894267 
L 391.205906 254.702638 
L 391.249669 256.925439 
L 391.271533 254.193753 
L 391.315229 237.685649 
L 391.402487 239.629475 
L 391.467813 244.664592 
L 391.598167 254.376755 
L 391.641531 252.779642 
L 391.663196 252.737378 
L 391.728125 255.143166 
L 391.792956 259.003178 
L 391.814544 257.130493 
L 391.965358 240.950582 
L 391.986859 242.215578 
L 392.265398 259.689889 
L 392.265398 259.689889 
" clip-path="url(#pda8e59467a)" style="fill: none; stroke-dasharray: 5.55,2.4; stroke-dashoffset: 0; stroke: #2ca02c; stroke-width: 1.5"/>
   </g>
   <g id="line2d_39">
    <path d="M 67.610852 112.106523 
L 126.823132 112.189278 
L 136.354181 113.143706 
L 144.141614 114.143404 
L 150.725795 114.241889 
L 156.429272 115.797223 
L 165.960321 117.448429 
L 170.031269 118.307711 
L 173.747754 119.734071 
L 177.166589 120.754713 
L 180.331935 120.8635 
L 186.035413 121.543902 
L 188.62485 123.050891 
L 191.066236 123.861968 
L 193.375589 123.757514 
L 195.566461 123.809835 
L 197.650417 124.399806 
L 199.637409 124.705463 
L 206.772729 127.014809 
L 208.384718 127.133056 
L 209.938075 126.797624 
L 211.436918 126.852917 
L 212.884943 127.706342 
L 214.285482 127.420435 
L 215.641553 129.179639 
L 216.955891 129.283463 
L 218.23099 128.622171 
L 219.469124 129.67697 
L 220.672376 128.922288 
L 221.842658 129.099184 
L 222.981729 129.448065 
L 224.091211 129.245339 
L 225.172601 129.769248 
L 227.256557 130.210235 
L 228.261607 130.111021 
L 229.243549 129.792191 
L 230.203424 129.962949 
L 231.142201 129.713892 
L 232.060788 129.220718 
L 232.960034 129.279115 
L 233.840738 130.154122 
L 234.703649 127.992043 
L 235.549471 128.29868 
L 236.378869 129.46628 
L 237.192468 128.464958 
L 237.990858 127.925029 
L 238.774598 126.037241 
L 239.544216 125.424176 
L 240.300211 125.873808 
L 241.043058 127.291944 
L 241.773206 125.520029 
L 242.491083 126.899859 
L 243.197093 126.506955 
L 243.891622 125.824955 
L 244.575039 128.412396 
L 245.247693 127.595893 
L 245.909917 128.441306 
L 246.562031 128.484932 
L 247.204338 128.649967 
L 247.83713 127.28627 
L 248.460683 129.134812 
L 249.075264 130.097465 
L 249.681127 128.942069 
L 250.867665 130.841175 
L 251.448798 128.588548 
L 252.022131 130.557497 
L 252.587869 131.146322 
L 253.146212 130.928807 
L 253.697351 131.094118 
L 254.241468 130.407828 
L 255.309339 131.176616 
L 255.833427 131.628794 
L 256.862697 131.512243 
L 257.867747 131.577181 
L 258.84969 131.598942 
L 259.809564 131.524417 
L 262.566174 131.608553 
L 263.008796 131.65416 
L 263.446878 131.495756 
L 263.880513 130.645837 
L 264.309789 131.422052 
L 264.734794 131.4618 
L 265.155612 131.311399 
L 266.393745 131.299681 
L 270.649198 131.049174 
L 271.739793 131.018576 
L 272.451686 130.915484 
L 273.497762 130.794012 
L 273.840837 130.843828 
L 274.181179 130.702874 
L 274.853833 130.704494 
L 275.186228 130.531026 
L 275.516057 130.612653 
L 275.843359 130.401419 
L 276.168171 130.573932 
L 277.128046 130.433355 
L 277.44327 130.160632 
L 277.756184 130.437335 
L 278.066823 130.432144 
L 278.375219 130.282154 
L 279.287267 130.249786 
L 280.180246 130.045446 
L 280.473805 130.095107 
L 281.054938 130.028066 
L 281.628271 130.096966 
L 281.912077 129.936078 
L 282.194009 130.154014 
L 283.028811 129.845292 
L 283.303491 130.132818 
L 283.576416 129.907812 
L 283.847608 129.881264 
L 284.117089 129.229117 
L 284.651004 130.389921 
L 284.91548 129.734691 
L 285.178327 129.793013 
L 285.439567 128.821015 
L 285.69922 129.439611 
L 285.957303 130.478809 
L 286.213836 130.65671 
L 286.468837 129.574318 
L 286.722325 130.102813 
L 286.974318 128.758594 
L 287.224833 128.407935 
L 287.473887 125.192919 
L 287.721497 129.073709 
L 287.96768 130.109488 
L 288.212452 130.515754 
L 288.697828 128.902868 
L 288.938463 130.501818 
L 289.17775 131.153071 
L 289.887672 129.665348 
L 290.121714 127.823073 
L 290.354481 128.729748 
L 290.585987 130.844546 
L 290.816244 130.40306 
L 291.045267 129.318676 
L 291.273068 130.285792 
L 291.499661 129.597091 
L 291.949271 129.913302 
L 292.172314 129.808412 
L 292.394199 129.90571 
L 292.614936 130.402304 
L 293.053018 130.455149 
L 293.270386 129.350647 
L 293.486653 130.212268 
L 293.70183 130.124438 
L 293.915929 130.323343 
L 294.12896 130.210496 
L 294.340934 130.228119 
L 294.551861 130.088906 
L 294.970616 130.190886 
L 295.591149 130.061825 
L 296.404748 130.023399 
L 296.805808 129.994732 
L 297.400425 129.854686 
L 297.596805 129.968956 
L 297.792287 129.881581 
L 297.986878 129.92257 
L 298.180586 129.815062 
L 298.37342 129.895944 
L 298.565387 129.788254 
L 298.756496 129.893279 
L 299.512491 129.677554 
L 299.699418 129.699167 
L 299.88553 129.854839 
L 300.255338 129.819486 
L 300.621973 129.833279 
L 302.931326 129.493438 
L 303.103902 129.789392 
L 303.275784 129.264073 
L 303.446978 129.697437 
L 303.617487 129.370564 
L 303.787319 129.670473 
L 303.956478 129.187272 
L 304.12497 129.730342 
L 304.2928 129.097648 
L 304.459973 129.593044 
L 304.626494 129.198761 
L 304.792368 129.728209 
L 304.957601 129.200179 
L 305.122197 129.848857 
L 305.286162 129.278773 
L 305.449499 129.339776 
L 305.612214 129.529213 
L 305.774311 129.003075 
L 305.935796 129.51043 
L 306.096672 128.88285 
L 306.256945 129.382516 
L 306.416619 128.849992 
L 306.575698 129.290959 
L 306.734186 128.821596 
L 306.892089 129.128295 
L 307.04941 128.692061 
L 307.206154 129.112029 
L 307.362324 128.745382 
L 307.517926 129.222116 
L 307.672963 128.775886 
L 307.827439 128.911704 
L 308.134726 128.624408 
L 308.287544 128.746495 
L 308.742745 128.381601 
L 308.893407 128.390328 
L 309.193146 128.919509 
L 309.34223 128.189581 
L 309.490796 129.275942 
L 309.786387 128.390421 
L 309.933418 128.608013 
L 310.079945 128.439091 
L 310.225972 128.574422 
L 310.3715 128.291891 
L 310.516535 128.582445 
L 310.661078 127.958072 
L 310.805135 128.553627 
L 310.948707 128.044891 
L 311.091798 128.553183 
L 311.234411 128.002449 
L 311.37655 128.402695 
L 311.518217 127.795529 
L 311.659416 128.655691 
L 311.800149 127.410165 
L 311.940421 128.509139 
L 312.080233 128.223204 
L 312.219589 128.528899 
L 312.358492 127.463474 
L 312.772512 130.122713 
L 312.909631 129.809636 
L 313.046311 129.21028 
L 313.182556 129.671286 
L 313.318367 128.470346 
L 313.453748 129.758691 
L 313.723229 128.624311 
L 313.857335 129.143594 
L 313.991021 126.008699 
L 314.389587 128.453309 
L 314.52162 125.913022 
L 314.653246 129.640354 
L 314.784467 128.766087 
L 315.045708 129.716642 
L 315.175731 129.858535 
L 315.434596 132.142072 
L 315.691902 131.80964 
L 315.819976 129.949887 
L 316.074977 130.841396 
L 316.201909 130.532484 
L 316.328466 131.350853 
L 316.454648 131.40658 
L 316.580458 131.257457 
L 316.830973 131.472905 
L 316.955681 131.133348 
L 317.080027 131.280494 
L 317.450906 130.953876 
L 317.57382 131.045569 
L 317.818592 130.716364 
L 317.940454 130.866946 
L 318.06197 130.656333 
L 318.18314 130.75169 
L 318.303968 130.529078 
L 318.424455 130.677581 
L 318.78389 130.444577 
L 319.021844 130.418943 
L 321.105801 130.300645 
L 321.218648 130.365432 
L 321.443452 130.251879 
L 321.778455 130.270004 
L 333.562618 129.958296 
L 333.646947 130.22269 
L 333.73111 129.768508 
L 333.815107 130.310047 
L 333.982608 128.896789 
L 334.066113 125.045769 
L 334.315652 128.597122 
L 334.398509 127.60879 
L 334.481205 128.914261 
L 334.563741 127.866122 
L 334.646119 128.670872 
L 334.728337 128.078076 
L 334.810398 126.369022 
L 334.974048 130.884987 
L 335.137074 130.753366 
L 335.218354 130.388627 
L 335.46127 131.841043 
L 335.62245 131.695428 
L 335.863085 131.870084 
L 335.942997 131.912311 
L 336.022759 131.776877 
L 336.102372 131.843271 
L 336.498229 131.641557 
L 336.576962 131.362757 
L 336.65555 131.457741 
L 336.968464 131.03941 
L 337.124066 131.045764 
L 337.201655 130.909143 
L 337.279103 131.044082 
L 337.356411 130.959263 
L 337.893684 130.873446 
L 338.045957 130.870321 
L 338.273354 130.945544 
L 338.424282 130.923354 
L 338.649679 130.887195 
L 338.799286 130.898111 
L 339.171026 130.86043 
L 339.244987 130.685478 
L 339.318821 130.844427 
L 339.392527 130.734916 
L 339.466106 130.807588 
L 339.539558 130.746599 
L 339.612885 130.853598 
L 339.686085 130.710081 
L 339.759161 130.876863 
L 339.832112 130.660279 
L 339.904938 130.815622 
L 339.97764 130.700235 
L 340.050219 130.836656 
L 340.122675 130.632416 
L 340.195008 130.778246 
L 340.267219 130.472258 
L 340.339307 130.86075 
L 340.411275 130.473913 
L 340.483121 130.934808 
L 340.697938 130.193952 
L 340.769304 130.843175 
L 340.840551 130.117535 
L 340.91168 131.078387 
L 340.98269 130.539051 
L 341.053582 130.662648 
L 341.124357 131.012802 
L 341.265556 129.167572 
L 341.335981 128.960573 
L 341.476483 131.047826 
L 341.616524 127.96256 
L 341.686373 128.042533 
L 341.82573 128.007429 
L 342.033915 130.847743 
L 342.103085 129.843491 
L 342.172144 130.357256 
L 342.241091 131.193828 
L 342.309927 130.647247 
L 342.378652 131.211386 
L 342.447266 130.640446 
L 342.584166 131.130222 
L 342.720628 131.101773 
L 342.788696 131.135524 
L 342.856656 130.954895 
L 342.992251 131.180123 
L 343.463475 131.414581 
L 343.863284 131.353986 
L 344.586687 131.03549 
L 344.651848 130.90436 
L 344.716909 130.941214 
L 345.744631 130.815081 
L 350.314611 130.828968 
L 354.597585 130.82356 
L 355.059348 130.808434 
L 356.906938 130.740032 
L 357.489392 130.695373 
L 357.777667 130.712149 
L 359.004855 130.698147 
L 361.75274 130.677307 
L 361.970329 130.648646 
L 362.659258 130.708448 
L 362.701949 130.653586 
L 362.744598 130.713408 
L 362.787204 130.857666 
L 362.829767 128.15803 
L 362.872289 129.503402 
L 362.914768 130.612081 
L 362.957204 130.126556 
L 363.041952 128.145458 
L 363.168758 130.823807 
L 363.295189 128.539475 
L 363.33725 128.667734 
L 363.50508 131.858715 
L 363.546935 130.654375 
L 363.588748 131.284334 
L 363.672253 131.536746 
L 363.713944 131.443674 
L 363.755595 131.423626 
L 363.838774 131.707176 
L 363.921792 129.186234 
L 364.004649 131.877074 
L 364.046017 131.228545 
L 364.087345 130.609976 
L 364.128633 131.490823 
L 364.169881 131.602099 
L 364.252259 131.525769 
L 365.906899 131.556555 
L 366.885243 131.440098 
L 367.879494 131.840648 
L 367.955025 132.071878 
L 368.030423 132.029676 
L 368.25582 131.971368 
L 368.442746 131.51158 
L 369.58378 131.389303 
L 372.394836 131.46809 
L 377.091847 131.593147 
L 377.243903 130.485014 
L 377.334878 125.644023 
L 377.36516 127.114934 
L 377.516248 131.631718 
L 377.576534 131.746744 
L 377.696852 132.923941 
L 377.726878 132.697126 
L 377.846773 132.574066 
L 378.025987 132.687892 
L 378.055783 132.596172 
L 378.204453 132.454211 
L 378.293407 131.674184 
L 378.352606 131.753962 
L 378.529715 131.744484 
L 378.588588 131.665555 
L 378.706092 131.415261 
L 378.764723 131.461739 
L 379.085762 131.530951 
L 382.92081 131.468802 
L 388.70395 131.527679 
L 390.655052 131.548559 
L 390.898303 131.523717 
L 391.35888 131.505007 
L 391.55476 131.530249 
L 392.265398 131.539055 
L 392.265398 131.539055 
" clip-path="url(#pda8e59467a)" style="fill: none; stroke: #2ca02c; stroke-width: 1.5; stroke-linecap: square"/>
   </g>
   <g id="line2d_40">
    <path d="M 67.610852 42.414125 
L 97.216992 63.760532 
L 114.535474 72.479472 
L 126.823132 81.902237 
L 136.354181 91.026978 
L 144.141614 100.27507 
L 150.725795 110.942619 
L 156.429272 122.675383 
L 161.460096 135.384261 
L 165.960321 143.891643 
L 170.031269 147.793273 
L 173.747754 150.409895 
L 177.166589 152.230296 
L 183.278802 154.765322 
L 188.62485 156.663391 
L 199.637409 160.241024 
L 233.840738 171.199705 
L 250.278516 176.830258 
L 259.809564 180.32731 
L 272.451686 185.280887 
L 281.628271 189.135883 
L 289.415704 192.701349 
L 295.385305 195.677277 
L 304.459973 200.43831 
L 314.257144 206.072983 
L 317.940454 208.485392 
L 324.991445 213.442651 
L 327.593018 215.563338 
L 333.982608 220.812101 
L 340.554847 226.94057 
L 346.374622 233.191526 
L 354.130775 242.624684 
L 355.415076 244.3447 
L 356.464825 245.85348 
L 356.906938 246.477396 
L 357.344522 247.111098 
L 360.107178 251.260825 
L 361.490162 253.400162 
L 361.796347 253.896907 
L 363.713944 257.082979 
L 364.046017 257.639553 
L 364.293388 258.156614 
L 364.580188 258.693727 
L 364.90562 259.209497 
L 364.946125 259.209497 
L 365.188352 259.677062 
L 365.308952 259.789992 
L 365.748263 260.663315 
L 366.379302 261.820212 
L 366.652476 262.443524 
L 367.690081 264.330889 
L 367.879494 264.748281 
L 368.030423 264.926923 
L 368.218336 265.330331 
L 368.25582 265.274452 
L 368.29327 265.36774 
L 368.442746 265.633184 
L 368.480033 265.614012 
L 368.665983 266.113512 
L 368.703076 266.05357 
L 368.740137 266.093496 
L 369.909418 268.46992 
L 370.089261 269.002396 
L 370.160987 269.002395 
L 370.48227 269.657634 
L 370.51782 269.588978 
L 370.730497 270.150467 
L 370.801155 269.993212 
L 370.942121 270.681229 
L 370.97729 270.666139 
L 371.047541 270.651069 
L 371.327395 271.398482 
L 371.362248 271.334244 
L 371.501378 271.741951 
L 371.674654 272.182432 
L 371.709225 272.130709 
L 371.812771 272.391764 
L 371.847231 272.356601 
L 372.053406 272.822624 
L 372.087672 272.749646 
L 372.121911 272.677143 
L 372.258592 273.213815 
L 372.292693 273.138234 
L 372.360816 273.521376 
L 372.428829 273.463057 
L 372.598392 273.897999 
L 372.666028 273.777683 
L 372.699807 273.958649 
L 372.733558 273.958649 
L 372.901917 274.413808 
L 373.002615 274.308716 
L 373.036128 274.605511 
L 373.136511 274.584047 
L 373.502573 275.640481 
L 373.535697 275.31518 
L 373.601867 275.453432 
L 373.667934 275.499901 
L 373.799763 275.830728 
L 373.996748 276.447118 
L 374.02949 275.951305 
L 374.062207 276.447118 
L 374.127567 276.196451 
L 374.22542 276.860313 
L 374.290531 276.913058 
L 374.323049 276.67765 
L 374.452875 277.510375 
L 374.485269 276.781661 
L 374.549986 277.792857 
L 374.582307 277.289442 
L 374.646876 277.482518 
L 374.711348 277.994948 
L 374.743548 277.821503 
L 374.775723 277.538303 
L 374.807874 277.879018 
L 374.840001 277.821503 
L 374.872103 278.200777 
L 374.904182 278.112098 
L 374.936237 277.538303 
L 374.968267 278.230494 
L 375.000273 278.02412 
L 375.096149 278.320126 
L 375.12806 278.141579 
L 375.19181 278.62422 
L 375.255465 278.471134 
L 375.319026 278.655092 
L 375.350771 278.873623 
L 375.382492 278.748223 
L 375.41419 278.440768 
L 375.445864 278.873623 
L 375.477515 279.032387 
L 375.509142 278.748223 
L 375.540746 278.748223 
L 375.572326 279.489367 
L 375.635417 279.225943 
L 375.666928 278.905195 
L 375.698415 279.323998 
L 375.76132 279.064414 
L 375.886854 279.759178 
L 375.918179 279.725092 
L 375.980762 279.258532 
L 376.012019 280.141184 
L 376.105653 279.896577 
L 376.136819 279.827665 
L 376.199082 279.657231 
L 376.230179 280.176571 
L 376.261255 279.931193 
L 376.292307 280.247684 
L 376.385329 280.42748 
L 376.416291 280.105909 
L 376.447231 280.610229 
L 376.478149 280.50022 
L 376.509044 280.42748 
L 376.539917 280.610229 
L 376.570768 280.536769 
L 376.601596 281.023162 
L 376.663186 280.573438 
L 376.693948 280.391288 
L 376.724687 281.491828 
L 376.816773 280.909016 
L 376.847425 281.294147 
L 376.939247 281.177202 
L 376.969811 281.216047 
L 377.000352 281.138492 
L 377.030872 281.774617 
L 377.06137 280.909016 
L 377.122301 281.733776 
L 377.183146 281.372798 
L 377.243903 281.45201 
L 377.39542 282.064779 
L 377.425659 281.693084 
L 377.455877 281.733776 
L 377.486073 282.362709 
L 377.516248 281.255028 
L 377.576534 281.9811 
L 377.606645 282.362709 
L 377.666804 281.774617 
L 377.696852 282.149091 
L 377.726878 281.571894 
L 377.756884 282.276769 
L 377.786868 281.815608 
L 377.846773 282.757869 
L 377.876695 282.149091 
L 377.906595 281.733776 
L 377.936474 282.757869 
L 377.966333 282.757869 
L 377.996171 281.981101 
L 378.055783 282.362709 
L 378.085559 282.892769 
L 378.145047 282.536606 
L 378.17476 282.022861 
L 378.204453 282.319656 
L 378.234125 283.307569 
L 378.293407 281.981101 
L 378.323017 282.847621 
L 378.352606 283.260709 
L 378.411724 282.580508 
L 378.441252 282.362709 
L 378.47076 282.713263 
L 378.529715 283.544873 
L 378.559162 282.449318 
L 378.588588 282.362709 
L 378.647381 283.64123 
L 378.676746 283.214046 
L 378.706092 282.191488 
L 378.764723 283.836483 
L 378.794008 283.592947 
L 378.823274 282.234047 
L 378.910949 283.167577 
L 379.027571 281.939496 
L 379.056677 283.497006 
L 379.114829 282.624584 
L 379.143875 282.022861 
L 379.172902 283.214046 
L 379.201908 283.449343 
L 379.230896 282.847621 
L 379.288811 281.9811 
L 379.317739 284.085468 
L 379.375537 281.815608 
L 379.404407 281.939496 
L 379.433257 283.885837 
L 379.490899 281.733776 
L 379.519691 281.45201 
L 379.577216 283.121302 
L 379.634664 282.064779 
L 379.663359 280.909016 
L 379.692035 282.149091 
L 379.720692 283.449343 
L 379.777947 281.412333 
L 379.835126 283.121302 
L 379.863687 282.802654 
L 379.892229 280.684177 
L 379.977739 282.319656 
L 380.091488 280.871226 
L 380.119878 282.362709 
L 380.176601 280.573438 
L 380.204935 280.391288 
L 380.233249 282.580508 
L 380.261545 280.035694 
L 380.318081 280.647142 
L 380.346321 280.647142 
L 380.374542 281.571894 
L 380.402744 278.62422 
L 380.48724 280.283412 
L 380.515368 278.96861 
L 380.571569 280.070746 
L 380.599642 280.247684 
L 380.655732 278.350164 
L 380.683749 278.96861 
L 380.711748 280.984984 
L 380.767692 277.965852 
L 380.851469 277.735784 
L 380.90723 279.193449 
L 381.046314 277.316821 
L 381.101821 277.234888 
L 381.295529 275.292304 
L 381.32313 275.616928 
L 381.378279 275.453432 
L 381.433357 276.834034 
L 381.57074 274.371653 
L 381.598164 274.519903 
L 381.625571 267.498488 
L 381.652959 47.665935 
L 381.73502 85.407136 
L 381.925884 105.025867 
L 381.953081 104.129886 
L 382.061696 106.511064 
L 382.33203 157.585412 
L 382.600663 167.656438 
L 383.053499 176.056394 
L 383.632484 182.793199 
L 384.460876 189.688601 
L 385.449228 196.034785 
L 386.708113 202.557679 
L 388.471183 210.402249 
L 392.072757 224.450643 
L 392.265398 225.184381 
L 392.265398 225.184381 
" clip-path="url(#pda8e59467a)" style="fill: none; stroke-dasharray: 5.55,2.4; stroke-dashoffset: 0; stroke: #d62728; stroke-width: 1.5"/>
   </g>
   <g id="line2d_41">
    <path d="M 67.610852 57.534885 
L 97.216992 65.574245 
L 114.535474 69.900858 
L 126.823132 72.452803 
L 136.354181 73.242296 
L 144.141614 73.431665 
L 150.725795 73.942531 
L 177.166589 73.963523 
L 293.270386 73.574616 
L 336.102372 73.107951 
L 337.817343 73.067396 
L 346.060788 72.83179 
L 346.933777 72.801461 
L 351.992024 72.640356 
L 352.590937 72.622031 
L 356.018088 72.484584 
L 356.514176 72.45849 
L 358.77158 72.376819 
L 359.236863 72.350973 
L 359.788595 72.3397 
L 360.242989 72.304245 
L 361.181766 72.266209 
L 362.530927 72.231875 
L 362.829767 72.209869 
L 366.025491 72.131438 
L 366.340134 72.124569 
L 367.576029 72.089971 
L 367.80383 72.091793 
L 370.730497 72.080399 
L 371.047541 72.098938 
L 371.292513 72.082186 
L 371.466638 72.095825 
L 371.778284 72.095119 
L 372.156122 72.107916 
L 378.735418 71.877114 
L 378.881744 71.849349 
L 379.977739 71.507225 
L 380.119878 71.396547 
L 380.318081 71.361934 
L 380.459093 71.254342 
L 380.683749 71.152967 
L 380.795636 71.038266 
L 380.823562 71.061112 
L 380.962918 70.944704 
L 381.129547 70.737723 
L 381.157256 70.773927 
L 381.543299 70.099642 
L 381.598164 70.188719 
L 381.625571 70.387478 
L 381.652959 58.426499 
L 381.707684 82.272552 
L 381.871439 89.925389 
L 381.953081 87.334216 
L 381.980261 87.858318 
L 382.007423 89.062589 
L 382.088806 87.903641 
L 382.170035 89.01701 
L 382.197077 88.75809 
L 382.33203 87.629438 
L 382.707646 86.545991 
L 383.212184 85.796584 
L 383.893086 85.165435 
L 385.046513 84.437749 
L 386.610707 83.761914 
L 389.98451 82.677832 
L 392.265398 82.024904 
L 392.265398 82.024904 
" clip-path="url(#pda8e59467a)" style="fill: none; stroke: #d62728; stroke-width: 1.5; stroke-linecap: square"/>
   </g>
   <g id="patch_3">
    <path d="M 51.378125 296.430125 
L 51.378125 30.318125 
" style="fill: none; stroke: #000000; stroke-width: 0.8; stroke-linejoin: miter; stroke-linecap: square"/>
   </g>
   <g id="patch_4">
    <path d="M 408.498125 296.430125 
L 408.498125 30.318125 
" style="fill: none; stroke: #000000; stroke-width: 0.8; stroke-linejoin: miter; stroke-linecap: square"/>
   </g>
   <g id="patch_5">
    <path d="M 51.378125 296.430125 
L 408.498125 296.430125 
" style="fill: none; stroke: #000000; stroke-width: 0.8; stroke-linejoin: miter; stroke-linecap: square"/>
   </g>
   <g id="patch_6">
    <path d="M 51.378125 30.318125 
L 408.498125 30.318125 
" style="fill: none; stroke: #000000; stroke-width: 0.8; stroke-linejoin: miter; stroke-linecap: square"/>
   </g>
   <g id="text_12">
    <!-- Loss per Epoch (12-Layer MLP on MNIST) -->
    <g transform="translate(91.479688 16.318125) scale(0.12 -0.12)">
     <defs>
      <path id="DejaVuSans-Bold-20" transform="scale(0.015625)"/>
      <path id="DejaVuSans-Bold-65" d="M 4031 1759 
L 4031 1441 
L 1416 1441 
Q 1456 1047 1700 850 
Q 1944 653 2381 653 
Q 2734 653 3104 758 
Q 3475 863 3866 1075 
L 3866 213 
Q 3469 63 3072 -14 
Q 2675 -91 2278 -91 
Q 1328 -91 801 392 
Q 275 875 275 1747 
Q 275 2603 792 3093 
Q 1309 3584 2216 3584 
Q 3041 3584 3536 3087 
Q 4031 2591 4031 1759 
z
M 2881 2131 
Q 2881 2450 2695 2645 
Q 2509 2841 2209 2841 
Q 1884 2841 1681 2658 
Q 1478 2475 1428 2131 
L 2881 2131 
z
" transform="scale(0.015625)"/>
      <path id="DejaVuSans-Bold-72" d="M 3138 2547 
Q 2991 2616 2845 2648 
Q 2700 2681 2553 2681 
Q 2122 2681 1889 2404 
Q 1656 2128 1656 1613 
L 1656 0 
L 538 0 
L 538 3500 
L 1656 3500 
L 1656 2925 
Q 1872 3269 2151 3426 
Q 2431 3584 2822 3584 
Q 2878 3584 2943 3579 
Q 3009 3575 3134 3559 
L 3138 2547 
z
" transform="scale(0.015625)"/>
      <path id="DejaVuSans-Bold-28" d="M 2413 -844 
L 1484 -844 
Q 1006 -72 778 623 
Q 550 1319 550 2003 
Q 550 2688 779 3389 
Q 1009 4091 1484 4856 
L 2413 4856 
Q 2013 4116 1813 3408 
Q 1613 2700 1613 2009 
Q 1613 1319 1811 609 
Q 2009 -100 2413 -844 
z
" transform="scale(0.015625)"/>
      <path id="DejaVuSans-Bold-31" d="M 750 831 
L 1813 831 
L 1813 3847 
L 722 3622 
L 722 4441 
L 1806 4666 
L 2950 4666 
L 2950 831 
L 4013 831 
L 4013 0 
L 750 0 
L 750 831 
z
" transform="scale(0.015625)"/>
      <path id="DejaVuSans-Bold-32" d="M 1844 884 
L 3897 884 
L 3897 0 
L 506 0 
L 506 884 
L 2209 2388 
Q 2438 2594 2547 2791 
Q 2656 2988 2656 3200 
Q 2656 3528 2436 3728 
Q 2216 3928 1850 3928 
Q 1569 3928 1234 3808 
Q 900 3688 519 3450 
L 519 4475 
Q 925 4609 1322 4679 
Q 1719 4750 2100 4750 
Q 2938 4750 3402 4381 
Q 3866 4013 3866 3353 
Q 3866 2972 3669 2642 
Q 3472 2313 2841 1759 
L 1844 884 
z
" transform="scale(0.015625)"/>
      <path id="DejaVuSans-Bold-2d" d="M 347 2297 
L 2309 2297 
L 2309 1388 
L 347 1388 
L 347 2297 
z
" transform="scale(0.015625)"/>
      <path id="DejaVuSans-Bold-61" d="M 2106 1575 
Q 1756 1575 1579 1456 
Q 1403 1338 1403 1106 
Q 1403 894 1545 773 
Q 1688 653 1941 653 
Q 2256 653 2472 879 
Q 2688 1106 2688 1447 
L 2688 1575 
L 2106 1575 
z
M 3816 1997 
L 3816 0 
L 2688 0 
L 2688 519 
Q 2463 200 2181 54 
Q 1900 -91 1497 -91 
Q 953 -91 614 226 
Q 275 544 275 1050 
Q 275 1666 698 1953 
Q 1122 2241 2028 2241 
L 2688 2241 
L 2688 2328 
Q 2688 2594 2478 2717 
Q 2269 2841 1825 2841 
Q 1466 2841 1156 2769 
Q 847 2697 581 2553 
L 581 3406 
Q 941 3494 1303 3539 
Q 1666 3584 2028 3584 
Q 2975 3584 3395 3211 
Q 3816 2838 3816 1997 
z
" transform="scale(0.015625)"/>
      <path id="DejaVuSans-Bold-79" d="M 78 3500 
L 1197 3500 
L 2138 1125 
L 2938 3500 
L 4056 3500 
L 2584 -331 
Q 2363 -916 2067 -1148 
Q 1772 -1381 1288 -1381 
L 641 -1381 
L 641 -647 
L 991 -647 
Q 1275 -647 1404 -556 
Q 1534 -466 1606 -231 
L 1638 -134 
L 78 3500 
z
" transform="scale(0.015625)"/>
      <path id="DejaVuSans-Bold-4d" d="M 588 4666 
L 2119 4666 
L 3181 2169 
L 4250 4666 
L 5778 4666 
L 5778 0 
L 4641 0 
L 4641 3413 
L 3566 897 
L 2803 897 
L 1728 3413 
L 1728 0 
L 588 0 
L 588 4666 
z
" transform="scale(0.015625)"/>
      <path id="DejaVuSans-Bold-50" d="M 588 4666 
L 2584 4666 
Q 3475 4666 3951 4270 
Q 4428 3875 4428 3144 
Q 4428 2409 3951 2014 
Q 3475 1619 2584 1619 
L 1791 1619 
L 1791 0 
L 588 0 
L 588 4666 
z
M 1791 3794 
L 1791 2491 
L 2456 2491 
Q 2806 2491 2997 2661 
Q 3188 2831 3188 3144 
Q 3188 3456 2997 3625 
Q 2806 3794 2456 3794 
L 1791 3794 
z
" transform="scale(0.015625)"/>
      <path id="DejaVuSans-Bold-6e" d="M 4056 2131 
L 4056 0 
L 2931 0 
L 2931 347 
L 2931 1631 
Q 2931 2084 2911 2256 
Q 2891 2428 2841 2509 
Q 2775 2619 2662 2680 
Q 2550 2741 2406 2741 
Q 2056 2741 1856 2470 
Q 1656 2200 1656 1722 
L 1656 0 
L 538 0 
L 538 3500 
L 1656 3500 
L 1656 2988 
Q 1909 3294 2193 3439 
Q 2478 3584 2822 3584 
Q 3428 3584 3742 3212 
Q 4056 2841 4056 2131 
z
" transform="scale(0.015625)"/>
      <path id="DejaVuSans-Bold-4e" d="M 588 4666 
L 1931 4666 
L 3628 1466 
L 3628 4666 
L 4769 4666 
L 4769 0 
L 3425 0 
L 1728 3200 
L 1728 0 
L 588 0 
L 588 4666 
z
" transform="scale(0.015625)"/>
      <path id="DejaVuSans-Bold-49" d="M 588 4666 
L 1791 4666 
L 1791 0 
L 588 0 
L 588 4666 
z
" transform="scale(0.015625)"/>
      <path id="DejaVuSans-Bold-53" d="M 3834 4519 
L 3834 3531 
Q 3450 3703 3084 3790 
Q 2719 3878 2394 3878 
Q 1963 3878 1756 3759 
Q 1550 3641 1550 3391 
Q 1550 3203 1689 3098 
Q 1828 2994 2194 2919 
L 2706 2816 
Q 3484 2659 3812 2340 
Q 4141 2022 4141 1434 
Q 4141 663 3683 286 
Q 3225 -91 2284 -91 
Q 1841 -91 1394 -6 
Q 947 78 500 244 
L 500 1259 
Q 947 1022 1364 901 
Q 1781 781 2169 781 
Q 2563 781 2772 912 
Q 2981 1044 2981 1288 
Q 2981 1506 2839 1625 
Q 2697 1744 2272 1838 
L 1806 1941 
Q 1106 2091 782 2419 
Q 459 2747 459 3303 
Q 459 4000 909 4375 
Q 1359 4750 2203 4750 
Q 2588 4750 2994 4692 
Q 3400 4634 3834 4519 
z
" transform="scale(0.015625)"/>
      <path id="DejaVuSans-Bold-54" d="M 31 4666 
L 4331 4666 
L 4331 3756 
L 2784 3756 
L 2784 0 
L 1581 0 
L 1581 3756 
L 31 3756 
L 31 4666 
z
" transform="scale(0.015625)"/>
      <path id="DejaVuSans-Bold-29" d="M 513 -844 
Q 913 -100 1113 609 
Q 1313 1319 1313 2009 
Q 1313 2700 1113 3408 
Q 913 4116 513 4856 
L 1441 4856 
Q 1916 4091 2145 3389 
Q 2375 2688 2375 2003 
Q 2375 1319 2147 623 
Q 1919 -72 1441 -844 
L 513 -844 
z
" transform="scale(0.015625)"/>
     </defs>
     <use xlink:href="#DejaVuSans-Bold-4c"/>
     <use xlink:href="#DejaVuSans-Bold-6f" transform="translate(63.720703 0)"/>
     <use xlink:href="#DejaVuSans-Bold-73" transform="translate(132.421875 0)"/>
     <use xlink:href="#DejaVuSans-Bold-73" transform="translate(191.943359 0)"/>
     <use xlink:href="#DejaVuSans-Bold-20" transform="translate(251.464844 0)"/>
     <use xlink:href="#DejaVuSans-Bold-70" transform="translate(286.279297 0)"/>
     <use xlink:href="#DejaVuSans-Bold-65" transform="translate(357.861328 0)"/>
     <use xlink:href="#DejaVuSans-Bold-72" transform="translate(425.683594 0)"/>
     <use xlink:href="#DejaVuSans-Bold-20" transform="translate(475 0)"/>
     <use xlink:href="#DejaVuSans-Bold-45" transform="translate(509.814453 0)"/>
     <use xlink:href="#DejaVuSans-Bold-70" transform="translate(578.125 0)"/>
     <use xlink:href="#DejaVuSans-Bold-6f" transform="translate(649.707031 0)"/>
     <use xlink:href="#DejaVuSans-Bold-63" transform="translate(718.408203 0)"/>
     <use xlink:href="#DejaVuSans-Bold-68" transform="translate(777.685547 0)"/>
     <use xlink:href="#DejaVuSans-Bold-20" transform="translate(848.876953 0)"/>
     <use xlink:href="#DejaVuSans-Bold-28" transform="translate(883.691406 0)"/>
     <use xlink:href="#DejaVuSans-Bold-31" transform="translate(929.394531 0)"/>
     <use xlink:href="#DejaVuSans-Bold-32" transform="translate(998.974609 0)"/>
     <use xlink:href="#DejaVuSans-Bold-2d" transform="translate(1068.554688 0)"/>
     <use xlink:href="#DejaVuSans-Bold-4c" transform="translate(1110.058594 0)"/>
     <use xlink:href="#DejaVuSans-Bold-61" transform="translate(1173.779297 0)"/>
     <use xlink:href="#DejaVuSans-Bold-79" transform="translate(1238.134766 0)"/>
     <use xlink:href="#DejaVuSans-Bold-65" transform="translate(1303.320312 0)"/>
     <use xlink:href="#DejaVuSans-Bold-72" transform="translate(1371.142578 0)"/>
     <use xlink:href="#DejaVuSans-Bold-20" transform="translate(1420.458984 0)"/>
     <use xlink:href="#DejaVuSans-Bold-4d" transform="translate(1455.273438 0)"/>
     <use xlink:href="#DejaVuSans-Bold-4c" transform="translate(1554.785156 0)"/>
     <use xlink:href="#DejaVuSans-Bold-50" transform="translate(1618.505859 0)"/>
     <use xlink:href="#DejaVuSans-Bold-20" transform="translate(1691.796875 0)"/>
     <use xlink:href="#DejaVuSans-Bold-6f" transform="translate(1726.611328 0)"/>
     <use xlink:href="#DejaVuSans-Bold-6e" transform="translate(1795.3125 0)"/>
     <use xlink:href="#DejaVuSans-Bold-20" transform="translate(1866.503906 0)"/>
     <use xlink:href="#DejaVuSans-Bold-4d" transform="translate(1901.318359 0)"/>
     <use xlink:href="#DejaVuSans-Bold-4e" transform="translate(2000.830078 0)"/>
     <use xlink:href="#DejaVuSans-Bold-49" transform="translate(2084.521484 0)"/>
     <use xlink:href="#DejaVuSans-Bold-53" transform="translate(2121.728516 0)"/>
     <use xlink:href="#DejaVuSans-Bold-54" transform="translate(2193.75 0)"/>
     <use xlink:href="#DejaVuSans-Bold-29" transform="translate(2261.962891 0)"/>
    </g>
   </g>
   <g id="legend_1">
    <g id="patch_7">
     <path d="M 58.378125 291.430125 
L 201.453125 291.430125 
Q 203.453125 291.430125 203.453125 289.430125 
L 203.453125 231.717625 
Q 203.453125 229.717625 201.453125 229.717625 
L 58.378125 229.717625 
Q 56.378125 229.717625 56.378125 231.717625 
L 56.378125 289.430125 
Q 56.378125 291.430125 58.378125 291.430125 
z
" style="fill: #ffffff; opacity: 0.8; stroke: #cccccc; stroke-linejoin: miter"/>
    </g>
    <g id="line2d_42">
     <path d="M 60.378125 237.816062 
L 70.378125 237.816062 
L 80.378125 237.816062 
" style="fill: none; stroke-dasharray: 5.55,2.4; stroke-dashoffset: 0; stroke: #2ca02c; stroke-width: 1.5"/>
    </g>
    <g id="text_13">
     <!-- Train (no scaling) -->
     <g transform="translate(88.378125 241.316062) scale(0.1 -0.1)">
      <defs>
       <path id="DejaVuSans-54" d="M -19 4666 
L 3928 4666 
L 3928 4134 
L 2272 4134 
L 2272 0 
L 1638 0 
L 1638 4134 
L -19 4134 
L -19 4666 
z
" transform="scale(0.015625)"/>
       <path id="DejaVuSans-72" d="M 2631 2963 
Q 2534 3019 2420 3045 
Q 2306 3072 2169 3072 
Q 1681 3072 1420 2755 
Q 1159 2438 1159 1844 
L 1159 0 
L 581 0 
L 581 3500 
L 1159 3500 
L 1159 2956 
Q 1341 3275 1631 3429 
Q 1922 3584 2338 3584 
Q 2397 3584 2469 3576 
Q 2541 3569 2628 3553 
L 2631 2963 
z
" transform="scale(0.015625)"/>
       <path id="DejaVuSans-61" d="M 2194 1759 
Q 1497 1759 1228 1600 
Q 959 1441 959 1056 
Q 959 750 1161 570 
Q 1363 391 1709 391 
Q 2188 391 2477 730 
Q 2766 1069 2766 1631 
L 2766 1759 
L 2194 1759 
z
M 3341 1997 
L 3341 0 
L 2766 0 
L 2766 531 
Q 2569 213 2275 61 
Q 1981 -91 1556 -91 
Q 1019 -91 701 211 
Q 384 513 384 1019 
Q 384 1609 779 1909 
Q 1175 2209 1959 2209 
L 2766 2209 
L 2766 2266 
Q 2766 2663 2505 2880 
Q 2244 3097 1772 3097 
Q 1472 3097 1187 3025 
Q 903 2953 641 2809 
L 641 3341 
Q 956 3463 1253 3523 
Q 1550 3584 1831 3584 
Q 2591 3584 2966 3190 
Q 3341 2797 3341 1997 
z
" transform="scale(0.015625)"/>
       <path id="DejaVuSans-69" d="M 603 3500 
L 1178 3500 
L 1178 0 
L 603 0 
L 603 3500 
z
M 603 4863 
L 1178 4863 
L 1178 4134 
L 603 4134 
L 603 4863 
z
" transform="scale(0.015625)"/>
       <path id="DejaVuSans-6e" d="M 3513 2113 
L 3513 0 
L 2938 0 
L 2938 2094 
Q 2938 2591 2744 2837 
Q 2550 3084 2163 3084 
Q 1697 3084 1428 2787 
Q 1159 2491 1159 1978 
L 1159 0 
L 581 0 
L 581 3500 
L 1159 3500 
L 1159 2956 
Q 1366 3272 1645 3428 
Q 1925 3584 2291 3584 
Q 2894 3584 3203 3211 
Q 3513 2838 3513 2113 
z
" transform="scale(0.015625)"/>
       <path id="DejaVuSans-20" transform="scale(0.015625)"/>
       <path id="DejaVuSans-28" d="M 1984 4856 
Q 1566 4138 1362 3434 
Q 1159 2731 1159 2009 
Q 1159 1288 1364 580 
Q 1569 -128 1984 -844 
L 1484 -844 
Q 1016 -109 783 600 
Q 550 1309 550 2009 
Q 550 2706 781 3412 
Q 1013 4119 1484 4856 
L 1984 4856 
z
" transform="scale(0.015625)"/>
       <path id="DejaVuSans-6f" d="M 1959 3097 
Q 1497 3097 1228 2736 
Q 959 2375 959 1747 
Q 959 1119 1226 758 
Q 1494 397 1959 397 
Q 2419 397 2687 759 
Q 2956 1122 2956 1747 
Q 2956 2369 2687 2733 
Q 2419 3097 1959 3097 
z
M 1959 3584 
Q 2709 3584 3137 3096 
Q 3566 2609 3566 1747 
Q 3566 888 3137 398 
Q 2709 -91 1959 -91 
Q 1206 -91 779 398 
Q 353 888 353 1747 
Q 353 2609 779 3096 
Q 1206 3584 1959 3584 
z
" transform="scale(0.015625)"/>
       <path id="DejaVuSans-73" d="M 2834 3397 
L 2834 2853 
Q 2591 2978 2328 3040 
Q 2066 3103 1784 3103 
Q 1356 3103 1142 2972 
Q 928 2841 928 2578 
Q 928 2378 1081 2264 
Q 1234 2150 1697 2047 
L 1894 2003 
Q 2506 1872 2764 1633 
Q 3022 1394 3022 966 
Q 3022 478 2636 193 
Q 2250 -91 1575 -91 
Q 1294 -91 989 -36 
Q 684 19 347 128 
L 347 722 
Q 666 556 975 473 
Q 1284 391 1588 391 
Q 1994 391 2212 530 
Q 2431 669 2431 922 
Q 2431 1156 2273 1281 
Q 2116 1406 1581 1522 
L 1381 1569 
Q 847 1681 609 1914 
Q 372 2147 372 2553 
Q 372 3047 722 3315 
Q 1072 3584 1716 3584 
Q 2034 3584 2315 3537 
Q 2597 3491 2834 3397 
z
" transform="scale(0.015625)"/>
       <path id="DejaVuSans-63" d="M 3122 3366 
L 3122 2828 
Q 2878 2963 2633 3030 
Q 2388 3097 2138 3097 
Q 1578 3097 1268 2742 
Q 959 2388 959 1747 
Q 959 1106 1268 751 
Q 1578 397 2138 397 
Q 2388 397 2633 464 
Q 2878 531 3122 666 
L 3122 134 
Q 2881 22 2623 -34 
Q 2366 -91 2075 -91 
Q 1284 -91 818 406 
Q 353 903 353 1747 
Q 353 2603 823 3093 
Q 1294 3584 2113 3584 
Q 2378 3584 2631 3529 
Q 2884 3475 3122 3366 
z
" transform="scale(0.015625)"/>
       <path id="DejaVuSans-6c" d="M 603 4863 
L 1178 4863 
L 1178 0 
L 603 0 
L 603 4863 
z
" transform="scale(0.015625)"/>
       <path id="DejaVuSans-67" d="M 2906 1791 
Q 2906 2416 2648 2759 
Q 2391 3103 1925 3103 
Q 1463 3103 1205 2759 
Q 947 2416 947 1791 
Q 947 1169 1205 825 
Q 1463 481 1925 481 
Q 2391 481 2648 825 
Q 2906 1169 2906 1791 
z
M 3481 434 
Q 3481 -459 3084 -895 
Q 2688 -1331 1869 -1331 
Q 1566 -1331 1297 -1286 
Q 1028 -1241 775 -1147 
L 775 -588 
Q 1028 -725 1275 -790 
Q 1522 -856 1778 -856 
Q 2344 -856 2625 -561 
Q 2906 -266 2906 331 
L 2906 616 
Q 2728 306 2450 153 
Q 2172 0 1784 0 
Q 1141 0 747 490 
Q 353 981 353 1791 
Q 353 2603 747 3093 
Q 1141 3584 1784 3584 
Q 2172 3584 2450 3431 
Q 2728 3278 2906 2969 
L 2906 3500 
L 3481 3500 
L 3481 434 
z
" transform="scale(0.015625)"/>
       <path id="DejaVuSans-29" d="M 513 4856 
L 1013 4856 
Q 1481 4119 1714 3412 
Q 1947 2706 1947 2009 
Q 1947 1309 1714 600 
Q 1481 -109 1013 -844 
L 513 -844 
Q 928 -128 1133 580 
Q 1338 1288 1338 2009 
Q 1338 2731 1133 3434 
Q 928 4138 513 4856 
z
" transform="scale(0.015625)"/>
      </defs>
      <use xlink:href="#DejaVuSans-54"/>
      <use xlink:href="#DejaVuSans-72" transform="translate(46.333984 0)"/>
      <use xlink:href="#DejaVuSans-61" transform="translate(87.447266 0)"/>
      <use xlink:href="#DejaVuSans-69" transform="translate(148.726562 0)"/>
      <use xlink:href="#DejaVuSans-6e" transform="translate(176.509766 0)"/>
      <use xlink:href="#DejaVuSans-20" transform="translate(239.888672 0)"/>
      <use xlink:href="#DejaVuSans-28" transform="translate(271.675781 0)"/>
      <use xlink:href="#DejaVuSans-6e" transform="translate(310.689453 0)"/>
      <use xlink:href="#DejaVuSans-6f" transform="translate(374.068359 0)"/>
      <use xlink:href="#DejaVuSans-20" transform="translate(435.25 0)"/>
      <use xlink:href="#DejaVuSans-73" transform="translate(467.037109 0)"/>
      <use xlink:href="#DejaVuSans-63" transform="translate(519.136719 0)"/>
      <use xlink:href="#DejaVuSans-61" transform="translate(574.117188 0)"/>
      <use xlink:href="#DejaVuSans-6c" transform="translate(635.396484 0)"/>
      <use xlink:href="#DejaVuSans-69" transform="translate(663.179688 0)"/>
      <use xlink:href="#DejaVuSans-6e" transform="translate(690.962891 0)"/>
      <use xlink:href="#DejaVuSans-67" transform="translate(754.341797 0)"/>
      <use xlink:href="#DejaVuSans-29" transform="translate(817.818359 0)"/>
     </g>
    </g>
    <g id="line2d_43">
     <path d="M 60.378125 252.494187 
L 70.378125 252.494187 
L 80.378125 252.494187 
" style="fill: none; stroke: #2ca02c; stroke-width: 1.5; stroke-linecap: square"/>
    </g>
    <g id="text_14">
     <!-- Validation (no scaling) -->
     <g transform="translate(88.378125 255.994187) scale(0.1 -0.1)">
      <defs>
       <path id="DejaVuSans-56" d="M 1831 0 
L 50 4666 
L 709 4666 
L 2188 738 
L 3669 4666 
L 4325 4666 
L 2547 0 
L 1831 0 
z
" transform="scale(0.015625)"/>
       <path id="DejaVuSans-64" d="M 2906 2969 
L 2906 4863 
L 3481 4863 
L 3481 0 
L 2906 0 
L 2906 525 
Q 2725 213 2448 61 
Q 2172 -91 1784 -91 
Q 1150 -91 751 415 
Q 353 922 353 1747 
Q 353 2572 751 3078 
Q 1150 3584 1784 3584 
Q 2172 3584 2448 3432 
Q 2725 3281 2906 2969 
z
M 947 1747 
Q 947 1113 1208 752 
Q 1469 391 1925 391 
Q 2381 391 2643 752 
Q 2906 1113 2906 1747 
Q 2906 2381 2643 2742 
Q 2381 3103 1925 3103 
Q 1469 3103 1208 2742 
Q 947 2381 947 1747 
z
" transform="scale(0.015625)"/>
       <path id="DejaVuSans-74" d="M 1172 4494 
L 1172 3500 
L 2356 3500 
L 2356 3053 
L 1172 3053 
L 1172 1153 
Q 1172 725 1289 603 
Q 1406 481 1766 481 
L 2356 481 
L 2356 0 
L 1766 0 
Q 1100 0 847 248 
Q 594 497 594 1153 
L 594 3053 
L 172 3053 
L 172 3500 
L 594 3500 
L 594 4494 
L 1172 4494 
z
" transform="scale(0.015625)"/>
      </defs>
      <use xlink:href="#DejaVuSans-56"/>
      <use xlink:href="#DejaVuSans-61" transform="translate(60.658203 0)"/>
      <use xlink:href="#DejaVuSans-6c" transform="translate(121.9375 0)"/>
      <use xlink:href="#DejaVuSans-69" transform="translate(149.720703 0)"/>
      <use xlink:href="#DejaVuSans-64" transform="translate(177.503906 0)"/>
      <use xlink:href="#DejaVuSans-61" transform="translate(240.980469 0)"/>
      <use xlink:href="#DejaVuSans-74" transform="translate(302.259766 0)"/>
      <use xlink:href="#DejaVuSans-69" transform="translate(341.46875 0)"/>
      <use xlink:href="#DejaVuSans-6f" transform="translate(369.251953 0)"/>
      <use xlink:href="#DejaVuSans-6e" transform="translate(430.433594 0)"/>
      <use xlink:href="#DejaVuSans-20" transform="translate(493.8125 0)"/>
      <use xlink:href="#DejaVuSans-28" transform="translate(525.599609 0)"/>
      <use xlink:href="#DejaVuSans-6e" transform="translate(564.613281 0)"/>
      <use xlink:href="#DejaVuSans-6f" transform="translate(627.992188 0)"/>
      <use xlink:href="#DejaVuSans-20" transform="translate(689.173828 0)"/>
      <use xlink:href="#DejaVuSans-73" transform="translate(720.960938 0)"/>
      <use xlink:href="#DejaVuSans-63" transform="translate(773.060547 0)"/>
      <use xlink:href="#DejaVuSans-61" transform="translate(828.041016 0)"/>
      <use xlink:href="#DejaVuSans-6c" transform="translate(889.320312 0)"/>
      <use xlink:href="#DejaVuSans-69" transform="translate(917.103516 0)"/>
      <use xlink:href="#DejaVuSans-6e" transform="translate(944.886719 0)"/>
      <use xlink:href="#DejaVuSans-67" transform="translate(1008.265625 0)"/>
      <use xlink:href="#DejaVuSans-29" transform="translate(1071.742188 0)"/>
     </g>
    </g>
    <g id="line2d_44">
     <path d="M 60.378125 267.172312 
L 70.378125 267.172312 
L 80.378125 267.172312 
" style="fill: none; stroke-dasharray: 5.55,2.4; stroke-dashoffset: 0; stroke: #d62728; stroke-width: 1.5"/>
    </g>
    <g id="text_15">
     <!-- Train (CE loss) -->
     <g transform="translate(88.378125 270.672312) scale(0.1 -0.1)">
      <defs>
       <path id="DejaVuSans-43" d="M 4122 4306 
L 4122 3641 
Q 3803 3938 3442 4084 
Q 3081 4231 2675 4231 
Q 1875 4231 1450 3742 
Q 1025 3253 1025 2328 
Q 1025 1406 1450 917 
Q 1875 428 2675 428 
Q 3081 428 3442 575 
Q 3803 722 4122 1019 
L 4122 359 
Q 3791 134 3420 21 
Q 3050 -91 2638 -91 
Q 1578 -91 968 557 
Q 359 1206 359 2328 
Q 359 3453 968 4101 
Q 1578 4750 2638 4750 
Q 3056 4750 3426 4639 
Q 3797 4528 4122 4306 
z
" transform="scale(0.015625)"/>
       <path id="DejaVuSans-45" d="M 628 4666 
L 3578 4666 
L 3578 4134 
L 1259 4134 
L 1259 2753 
L 3481 2753 
L 3481 2222 
L 1259 2222 
L 1259 531 
L 3634 531 
L 3634 0 
L 628 0 
L 628 4666 
z
" transform="scale(0.015625)"/>
      </defs>
      <use xlink:href="#DejaVuSans-54"/>
      <use xlink:href="#DejaVuSans-72" transform="translate(46.333984 0)"/>
      <use xlink:href="#DejaVuSans-61" transform="translate(87.447266 0)"/>
      <use xlink:href="#DejaVuSans-69" transform="translate(148.726562 0)"/>
      <use xlink:href="#DejaVuSans-6e" transform="translate(176.509766 0)"/>
      <use xlink:href="#DejaVuSans-20" transform="translate(239.888672 0)"/>
      <use xlink:href="#DejaVuSans-28" transform="translate(271.675781 0)"/>
      <use xlink:href="#DejaVuSans-43" transform="translate(310.689453 0)"/>
      <use xlink:href="#DejaVuSans-45" transform="translate(380.513672 0)"/>
      <use xlink:href="#DejaVuSans-20" transform="translate(443.697266 0)"/>
      <use xlink:href="#DejaVuSans-6c" transform="translate(475.484375 0)"/>
      <use xlink:href="#DejaVuSans-6f" transform="translate(503.267578 0)"/>
      <use xlink:href="#DejaVuSans-73" transform="translate(564.449219 0)"/>
      <use xlink:href="#DejaVuSans-73" transform="translate(616.548828 0)"/>
      <use xlink:href="#DejaVuSans-29" transform="translate(668.648438 0)"/>
     </g>
    </g>
    <g id="line2d_45">
     <path d="M 60.378125 281.850437 
L 70.378125 281.850437 
L 80.378125 281.850437 
" style="fill: none; stroke: #d62728; stroke-width: 1.5; stroke-linecap: square"/>
    </g>
    <g id="text_16">
     <!-- Validation (CE loss) -->
     <g transform="translate(88.378125 285.350437) scale(0.1 -0.1)">
      <use xlink:href="#DejaVuSans-56"/>
      <use xlink:href="#DejaVuSans-61" transform="translate(60.658203 0)"/>
      <use xlink:href="#DejaVuSans-6c" transform="translate(121.9375 0)"/>
      <use xlink:href="#DejaVuSans-69" transform="translate(149.720703 0)"/>
      <use xlink:href="#DejaVuSans-64" transform="translate(177.503906 0)"/>
      <use xlink:href="#DejaVuSans-61" transform="translate(240.980469 0)"/>
      <use xlink:href="#DejaVuSans-74" transform="translate(302.259766 0)"/>
      <use xlink:href="#DejaVuSans-69" transform="translate(341.46875 0)"/>
      <use xlink:href="#DejaVuSans-6f" transform="translate(369.251953 0)"/>
      <use xlink:href="#DejaVuSans-6e" transform="translate(430.433594 0)"/>
      <use xlink:href="#DejaVuSans-20" transform="translate(493.8125 0)"/>
      <use xlink:href="#DejaVuSans-28" transform="translate(525.599609 0)"/>
      <use xlink:href="#DejaVuSans-43" transform="translate(564.613281 0)"/>
      <use xlink:href="#DejaVuSans-45" transform="translate(634.4375 0)"/>
      <use xlink:href="#DejaVuSans-20" transform="translate(697.621094 0)"/>
      <use xlink:href="#DejaVuSans-6c" transform="translate(729.408203 0)"/>
      <use xlink:href="#DejaVuSans-6f" transform="translate(757.191406 0)"/>
      <use xlink:href="#DejaVuSans-73" transform="translate(818.373047 0)"/>
      <use xlink:href="#DejaVuSans-73" transform="translate(870.472656 0)"/>
      <use xlink:href="#DejaVuSans-29" transform="translate(922.572266 0)"/>
     </g>
    </g>
   </g>
  </g>
 </g>
 <defs>
  <clipPath id="pda8e59467a">
   <rect x="51.378125" y="30.318125" width="357.12" height="266.112"/>
  </clipPath>
 </defs>
</svg>
