<?xml version="1.0" encoding="utf-8" standalone="no"?>
<!DOCTYPE svg PUBLIC "-//W3C//DTD SVG 1.1//EN"
  "http://www.w3.org/Graphics/SVG/1.1/DTD/svg11.dtd">
<svg xmlns:xlink="http://www.w3.org/1999/xlink" width="411.352812pt" height="333.986375pt" viewBox="0 0 411.352812 333.986375" xmlns="http://www.w3.org/2000/svg" version="1.1">
 <metadata>
  <rdf:RDF xmlns:dc="http://purl.org/dc/elements/1.1/" xmlns:cc="http://creativecommons.org/ns#" xmlns:rdf="http://www.w3.org/1999/02/22-rdf-syntax-ns#">
   <cc:Work>
    <dc:type rdf:resource="http://purl.org/dc/dcmitype/StillImage"/>
    <dc:date>2025-11-26T12:46:23.868297</dc:date>
    <dc:format>image/svg+xml</dc:format>
    <dc:creator>
     <cc:Agent>
      <dc:title>Matplotlib v3.10.7, https://matplotlib.org/</dc:title>
     </cc:Agent>
    </dc:creator>
   </cc:Work>
  </rdf:RDF>
 </metadata>
 <defs>
  <style type="text/css">*{stroke-linejoin: round; stroke-linecap: butt}</style>
 </defs>
 <g id="figure_1">
  <g id="patch_1">
   <path d="M 0 333.986375 
L 411.352812 333.986375 
L 411.352812 0 
L 0 0 
z
" style="fill: #ffffff"/>
  </g>
  <g id="axes_1">
   <g id="patch_2">
    <path d="M 47.032813 296.430125 
L 404.152812 296.430125 
L 404.152812 30.318125 
L 47.032813 30.318125 
z
" style="fill: #ffffff"/>
   </g>
   <g id="matplotlib.axis_1">
    <g id="xtick_1">
     <g id="line2d_1">
      <defs>
       <path id="mb8a6cf0420" d="M 0 0 
L 0 3.5 
" style="stroke: #000000; stroke-width: 0.8"/>
      </defs>
      <g>
       <use xlink:href="#mb8a6cf0420" x="63.26554" y="296.430125" style="stroke: #000000; stroke-width: 0.8"/>
      </g>
     </g>
     <g id="text_1">
      <!-- $\mathdefault{10^{0}}$ -->
      <g transform="translate(54.46554 311.028562) scale(0.1 -0.1)">
       <defs>
        <path id="DejaVuSans-31" d="M 794 531 
L 1825 531 
L 1825 4091 
L 703 3866 
L 703 4441 
L 1819 4666 
L 2450 4666 
L 2450 531 
L 3481 531 
L 3481 0 
L 794 0 
L 794 531 
z
" transform="scale(0.015625)"/>
        <path id="DejaVuSans-30" d="M 2034 4250 
Q 1547 4250 1301 3770 
Q 1056 3291 1056 2328 
Q 1056 1369 1301 889 
Q 1547 409 2034 409 
Q 2525 409 2770 889 
Q 3016 1369 3016 2328 
Q 3016 3291 2770 3770 
Q 2525 4250 2034 4250 
z
M 2034 4750 
Q 2819 4750 3233 4129 
Q 3647 3509 3647 2328 
Q 3647 1150 3233 529 
Q 2819 -91 2034 -91 
Q 1250 -91 836 529 
Q 422 1150 422 2328 
Q 422 3509 836 4129 
Q 1250 4750 2034 4750 
z
" transform="scale(0.015625)"/>
       </defs>
       <use xlink:href="#DejaVuSans-31" transform="translate(0 0.765625)"/>
       <use xlink:href="#DejaVuSans-30" transform="translate(63.623047 0.765625)"/>
       <use xlink:href="#DejaVuSans-30" transform="translate(128.203125 39.046875) scale(0.7)"/>
      </g>
     </g>
    </g>
    <g id="xtick_2">
     <g id="line2d_2">
      <g>
       <use xlink:href="#mb8a6cf0420" x="161.615008" y="296.430125" style="stroke: #000000; stroke-width: 0.8"/>
      </g>
     </g>
     <g id="text_2">
      <!-- $\mathdefault{10^{1}}$ -->
      <g transform="translate(152.815008 311.028562) scale(0.1 -0.1)">
       <use xlink:href="#DejaVuSans-31" transform="translate(0 0.684375)"/>
       <use xlink:href="#DejaVuSans-30" transform="translate(63.623047 0.684375)"/>
       <use xlink:href="#DejaVuSans-31" transform="translate(128.203125 38.965625) scale(0.7)"/>
      </g>
     </g>
    </g>
    <g id="xtick_3">
     <g id="line2d_3">
      <g>
       <use xlink:href="#mb8a6cf0420" x="259.964477" y="296.430125" style="stroke: #000000; stroke-width: 0.8"/>
      </g>
     </g>
     <g id="text_3">
      <!-- $\mathdefault{10^{2}}$ -->
      <g transform="translate(251.164477 311.028562) scale(0.1 -0.1)">
       <defs>
        <path id="DejaVuSans-32" d="M 1228 531 
L 3431 531 
L 3431 0 
L 469 0 
L 469 531 
Q 828 903 1448 1529 
Q 2069 2156 2228 2338 
Q 2531 2678 2651 2914 
Q 2772 3150 2772 3378 
Q 2772 3750 2511 3984 
Q 2250 4219 1831 4219 
Q 1534 4219 1204 4116 
Q 875 4013 500 3803 
L 500 4441 
Q 881 4594 1212 4672 
Q 1544 4750 1819 4750 
Q 2544 4750 2975 4387 
Q 3406 4025 3406 3419 
Q 3406 3131 3298 2873 
Q 3191 2616 2906 2266 
Q 2828 2175 2409 1742 
Q 1991 1309 1228 531 
z
" transform="scale(0.015625)"/>
       </defs>
       <use xlink:href="#DejaVuSans-31" transform="translate(0 0.765625)"/>
       <use xlink:href="#DejaVuSans-30" transform="translate(63.623047 0.765625)"/>
       <use xlink:href="#DejaVuSans-32" transform="translate(128.203125 39.046875) scale(0.7)"/>
      </g>
     </g>
    </g>
    <g id="xtick_4">
     <g id="line2d_4">
      <g>
       <use xlink:href="#mb8a6cf0420" x="358.313945" y="296.430125" style="stroke: #000000; stroke-width: 0.8"/>
      </g>
     </g>
     <g id="text_4">
      <!-- $\mathdefault{10^{3}}$ -->
      <g transform="translate(349.513945 311.028562) scale(0.1 -0.1)">
       <defs>
        <path id="DejaVuSans-33" d="M 2597 2516 
Q 3050 2419 3304 2112 
Q 3559 1806 3559 1356 
Q 3559 666 3084 287 
Q 2609 -91 1734 -91 
Q 1441 -91 1130 -33 
Q 819 25 488 141 
L 488 750 
Q 750 597 1062 519 
Q 1375 441 1716 441 
Q 2309 441 2620 675 
Q 2931 909 2931 1356 
Q 2931 1769 2642 2001 
Q 2353 2234 1838 2234 
L 1294 2234 
L 1294 2753 
L 1863 2753 
Q 2328 2753 2575 2939 
Q 2822 3125 2822 3475 
Q 2822 3834 2567 4026 
Q 2313 4219 1838 4219 
Q 1578 4219 1281 4162 
Q 984 4106 628 3988 
L 628 4550 
Q 988 4650 1302 4700 
Q 1616 4750 1894 4750 
Q 2613 4750 3031 4423 
Q 3450 4097 3450 3541 
Q 3450 3153 3228 2886 
Q 3006 2619 2597 2516 
z
" transform="scale(0.015625)"/>
       </defs>
       <use xlink:href="#DejaVuSans-31" transform="translate(0 0.765625)"/>
       <use xlink:href="#DejaVuSans-30" transform="translate(63.623047 0.765625)"/>
       <use xlink:href="#DejaVuSans-33" transform="translate(128.203125 39.046875) scale(0.7)"/>
      </g>
     </g>
    </g>
    <g id="xtick_5">
     <g id="line2d_5">
      <defs>
       <path id="m1e40583b64" d="M 0 0 
L 0 2 
" style="stroke: #000000; stroke-width: 0.6"/>
      </defs>
      <g>
       <use xlink:href="#m1e40583b64" x="48.031014" y="296.430125" style="stroke: #000000; stroke-width: 0.6"/>
      </g>
     </g>
    </g>
    <g id="xtick_6">
     <g id="line2d_6">
      <g>
       <use xlink:href="#m1e40583b64" x="53.734492" y="296.430125" style="stroke: #000000; stroke-width: 0.6"/>
      </g>
     </g>
    </g>
    <g id="xtick_7">
     <g id="line2d_7">
      <g>
       <use xlink:href="#m1e40583b64" x="58.765315" y="296.430125" style="stroke: #000000; stroke-width: 0.6"/>
      </g>
     </g>
    </g>
    <g id="xtick_8">
     <g id="line2d_8">
      <g>
       <use xlink:href="#m1e40583b64" x="92.87168" y="296.430125" style="stroke: #000000; stroke-width: 0.6"/>
      </g>
     </g>
    </g>
    <g id="xtick_9">
     <g id="line2d_9">
      <g>
       <use xlink:href="#m1e40583b64" x="110.190162" y="296.430125" style="stroke: #000000; stroke-width: 0.6"/>
      </g>
     </g>
    </g>
    <g id="xtick_10">
     <g id="line2d_10">
      <g>
       <use xlink:href="#m1e40583b64" x="122.47782" y="296.430125" style="stroke: #000000; stroke-width: 0.6"/>
      </g>
     </g>
    </g>
    <g id="xtick_11">
     <g id="line2d_11">
      <g>
       <use xlink:href="#m1e40583b64" x="132.008868" y="296.430125" style="stroke: #000000; stroke-width: 0.6"/>
      </g>
     </g>
    </g>
    <g id="xtick_12">
     <g id="line2d_12">
      <g>
       <use xlink:href="#m1e40583b64" x="139.796302" y="296.430125" style="stroke: #000000; stroke-width: 0.6"/>
      </g>
     </g>
    </g>
    <g id="xtick_13">
     <g id="line2d_13">
      <g>
       <use xlink:href="#m1e40583b64" x="146.380483" y="296.430125" style="stroke: #000000; stroke-width: 0.6"/>
      </g>
     </g>
    </g>
    <g id="xtick_14">
     <g id="line2d_14">
      <g>
       <use xlink:href="#m1e40583b64" x="152.08396" y="296.430125" style="stroke: #000000; stroke-width: 0.6"/>
      </g>
     </g>
    </g>
    <g id="xtick_15">
     <g id="line2d_15">
      <g>
       <use xlink:href="#m1e40583b64" x="157.114783" y="296.430125" style="stroke: #000000; stroke-width: 0.6"/>
      </g>
     </g>
    </g>
    <g id="xtick_16">
     <g id="line2d_16">
      <g>
       <use xlink:href="#m1e40583b64" x="191.221148" y="296.430125" style="stroke: #000000; stroke-width: 0.6"/>
      </g>
     </g>
    </g>
    <g id="xtick_17">
     <g id="line2d_17">
      <g>
       <use xlink:href="#m1e40583b64" x="208.53963" y="296.430125" style="stroke: #000000; stroke-width: 0.6"/>
      </g>
     </g>
    </g>
    <g id="xtick_18">
     <g id="line2d_18">
      <g>
       <use xlink:href="#m1e40583b64" x="220.827288" y="296.430125" style="stroke: #000000; stroke-width: 0.6"/>
      </g>
     </g>
    </g>
    <g id="xtick_19">
     <g id="line2d_19">
      <g>
       <use xlink:href="#m1e40583b64" x="230.358337" y="296.430125" style="stroke: #000000; stroke-width: 0.6"/>
      </g>
     </g>
    </g>
    <g id="xtick_20">
     <g id="line2d_20">
      <g>
       <use xlink:href="#m1e40583b64" x="238.14577" y="296.430125" style="stroke: #000000; stroke-width: 0.6"/>
      </g>
     </g>
    </g>
    <g id="xtick_21">
     <g id="line2d_21">
      <g>
       <use xlink:href="#m1e40583b64" x="244.729951" y="296.430125" style="stroke: #000000; stroke-width: 0.6"/>
      </g>
     </g>
    </g>
    <g id="xtick_22">
     <g id="line2d_22">
      <g>
       <use xlink:href="#m1e40583b64" x="250.433428" y="296.430125" style="stroke: #000000; stroke-width: 0.6"/>
      </g>
     </g>
    </g>
    <g id="xtick_23">
     <g id="line2d_23">
      <g>
       <use xlink:href="#m1e40583b64" x="255.464252" y="296.430125" style="stroke: #000000; stroke-width: 0.6"/>
      </g>
     </g>
    </g>
    <g id="xtick_24">
     <g id="line2d_24">
      <g>
       <use xlink:href="#m1e40583b64" x="289.570617" y="296.430125" style="stroke: #000000; stroke-width: 0.6"/>
      </g>
     </g>
    </g>
    <g id="xtick_25">
     <g id="line2d_25">
      <g>
       <use xlink:href="#m1e40583b64" x="306.889098" y="296.430125" style="stroke: #000000; stroke-width: 0.6"/>
      </g>
     </g>
    </g>
    <g id="xtick_26">
     <g id="line2d_26">
      <g>
       <use xlink:href="#m1e40583b64" x="319.176757" y="296.430125" style="stroke: #000000; stroke-width: 0.6"/>
      </g>
     </g>
    </g>
    <g id="xtick_27">
     <g id="line2d_27">
      <g>
       <use xlink:href="#m1e40583b64" x="328.707805" y="296.430125" style="stroke: #000000; stroke-width: 0.6"/>
      </g>
     </g>
    </g>
    <g id="xtick_28">
     <g id="line2d_28">
      <g>
       <use xlink:href="#m1e40583b64" x="336.495239" y="296.430125" style="stroke: #000000; stroke-width: 0.6"/>
      </g>
     </g>
    </g>
    <g id="xtick_29">
     <g id="line2d_29">
      <g>
       <use xlink:href="#m1e40583b64" x="343.07942" y="296.430125" style="stroke: #000000; stroke-width: 0.6"/>
      </g>
     </g>
    </g>
    <g id="xtick_30">
     <g id="line2d_30">
      <g>
       <use xlink:href="#m1e40583b64" x="348.782897" y="296.430125" style="stroke: #000000; stroke-width: 0.6"/>
      </g>
     </g>
    </g>
    <g id="xtick_31">
     <g id="line2d_31">
      <g>
       <use xlink:href="#m1e40583b64" x="353.81372" y="296.430125" style="stroke: #000000; stroke-width: 0.6"/>
      </g>
     </g>
    </g>
    <g id="xtick_32">
     <g id="line2d_32">
      <g>
       <use xlink:href="#m1e40583b64" x="387.920085" y="296.430125" style="stroke: #000000; stroke-width: 0.6"/>
      </g>
     </g>
    </g>
    <g id="text_5">
     <!-- Epoch -->
     <g transform="translate(208.639688 324.706687) scale(0.1 -0.1)">
      <defs>
       <path id="DejaVuSans-Bold-45" d="M 588 4666 
L 3834 4666 
L 3834 3756 
L 1791 3756 
L 1791 2888 
L 3713 2888 
L 3713 1978 
L 1791 1978 
L 1791 909 
L 3903 909 
L 3903 0 
L 588 0 
L 588 4666 
z
" transform="scale(0.015625)"/>
       <path id="DejaVuSans-Bold-70" d="M 1656 506 
L 1656 -1331 
L 538 -1331 
L 538 3500 
L 1656 3500 
L 1656 2988 
Q 1888 3294 2169 3439 
Q 2450 3584 2816 3584 
Q 3463 3584 3878 3070 
Q 4294 2556 4294 1747 
Q 4294 938 3878 423 
Q 3463 -91 2816 -91 
Q 2450 -91 2169 54 
Q 1888 200 1656 506 
z
M 2400 2772 
Q 2041 2772 1848 2508 
Q 1656 2244 1656 1747 
Q 1656 1250 1848 986 
Q 2041 722 2400 722 
Q 2759 722 2948 984 
Q 3138 1247 3138 1747 
Q 3138 2247 2948 2509 
Q 2759 2772 2400 2772 
z
" transform="scale(0.015625)"/>
       <path id="DejaVuSans-Bold-6f" d="M 2203 2784 
Q 1831 2784 1636 2517 
Q 1441 2250 1441 1747 
Q 1441 1244 1636 976 
Q 1831 709 2203 709 
Q 2569 709 2762 976 
Q 2956 1244 2956 1747 
Q 2956 2250 2762 2517 
Q 2569 2784 2203 2784 
z
M 2203 3584 
Q 3106 3584 3614 3096 
Q 4122 2609 4122 1747 
Q 4122 884 3614 396 
Q 3106 -91 2203 -91 
Q 1297 -91 786 396 
Q 275 884 275 1747 
Q 275 2609 786 3096 
Q 1297 3584 2203 3584 
z
" transform="scale(0.015625)"/>
       <path id="DejaVuSans-Bold-63" d="M 3366 3391 
L 3366 2478 
Q 3138 2634 2908 2709 
Q 2678 2784 2431 2784 
Q 1963 2784 1702 2511 
Q 1441 2238 1441 1747 
Q 1441 1256 1702 982 
Q 1963 709 2431 709 
Q 2694 709 2930 787 
Q 3166 866 3366 1019 
L 3366 103 
Q 3103 6 2833 -42 
Q 2563 -91 2291 -91 
Q 1344 -91 809 395 
Q 275 881 275 1747 
Q 275 2613 809 3098 
Q 1344 3584 2291 3584 
Q 2566 3584 2833 3536 
Q 3100 3488 3366 3391 
z
" transform="scale(0.015625)"/>
       <path id="DejaVuSans-Bold-68" d="M 4056 2131 
L 4056 0 
L 2931 0 
L 2931 347 
L 2931 1625 
Q 2931 2084 2911 2256 
Q 2891 2428 2841 2509 
Q 2775 2619 2662 2680 
Q 2550 2741 2406 2741 
Q 2056 2741 1856 2470 
Q 1656 2200 1656 1722 
L 1656 0 
L 538 0 
L 538 4863 
L 1656 4863 
L 1656 2988 
Q 1909 3294 2193 3439 
Q 2478 3584 2822 3584 
Q 3428 3584 3742 3212 
Q 4056 2841 4056 2131 
z
" transform="scale(0.015625)"/>
      </defs>
      <use xlink:href="#DejaVuSans-Bold-45"/>
      <use xlink:href="#DejaVuSans-Bold-70" transform="translate(68.310547 0)"/>
      <use xlink:href="#DejaVuSans-Bold-6f" transform="translate(139.892578 0)"/>
      <use xlink:href="#DejaVuSans-Bold-63" transform="translate(208.59375 0)"/>
      <use xlink:href="#DejaVuSans-Bold-68" transform="translate(267.871094 0)"/>
     </g>
    </g>
   </g>
   <g id="matplotlib.axis_2">
    <g id="ytick_1">
     <g id="line2d_33">
      <defs>
       <path id="m605b5101a2" d="M 0 0 
L -3.5 0 
" style="stroke: #000000; stroke-width: 0.8"/>
      </defs>
      <g>
       <use xlink:href="#m605b5101a2" x="47.032813" y="264.844948" style="stroke: #000000; stroke-width: 0.8"/>
      </g>
     </g>
     <g id="text_6">
      <!-- 30 -->
      <g transform="translate(27.307813 268.644167) scale(0.1 -0.1)">
       <use xlink:href="#DejaVuSans-33"/>
       <use xlink:href="#DejaVuSans-30" transform="translate(63.623047 0)"/>
      </g>
     </g>
    </g>
    <g id="ytick_2">
     <g id="line2d_34">
      <g>
       <use xlink:href="#m605b5101a2" x="47.032813" y="233.069116" style="stroke: #000000; stroke-width: 0.8"/>
      </g>
     </g>
     <g id="text_7">
      <!-- 40 -->
      <g transform="translate(27.307813 236.868335) scale(0.1 -0.1)">
       <defs>
        <path id="DejaVuSans-34" d="M 2419 4116 
L 825 1625 
L 2419 1625 
L 2419 4116 
z
M 2253 4666 
L 3047 4666 
L 3047 1625 
L 3713 1625 
L 3713 1100 
L 3047 1100 
L 3047 0 
L 2419 0 
L 2419 1100 
L 313 1100 
L 313 1709 
L 2253 4666 
z
" transform="scale(0.015625)"/>
       </defs>
       <use xlink:href="#DejaVuSans-34"/>
       <use xlink:href="#DejaVuSans-30" transform="translate(63.623047 0)"/>
      </g>
     </g>
    </g>
    <g id="ytick_3">
     <g id="line2d_35">
      <g>
       <use xlink:href="#m605b5101a2" x="47.032813" y="201.293284" style="stroke: #000000; stroke-width: 0.8"/>
      </g>
     </g>
     <g id="text_8">
      <!-- 50 -->
      <g transform="translate(27.307813 205.092503) scale(0.1 -0.1)">
       <defs>
        <path id="DejaVuSans-35" d="M 691 4666 
L 3169 4666 
L 3169 4134 
L 1269 4134 
L 1269 2991 
Q 1406 3038 1543 3061 
Q 1681 3084 1819 3084 
Q 2600 3084 3056 2656 
Q 3513 2228 3513 1497 
Q 3513 744 3044 326 
Q 2575 -91 1722 -91 
Q 1428 -91 1123 -41 
Q 819 9 494 109 
L 494 744 
Q 775 591 1075 516 
Q 1375 441 1709 441 
Q 2250 441 2565 725 
Q 2881 1009 2881 1497 
Q 2881 1984 2565 2268 
Q 2250 2553 1709 2553 
Q 1456 2553 1204 2497 
Q 953 2441 691 2322 
L 691 4666 
z
" transform="scale(0.015625)"/>
       </defs>
       <use xlink:href="#DejaVuSans-35"/>
       <use xlink:href="#DejaVuSans-30" transform="translate(63.623047 0)"/>
      </g>
     </g>
    </g>
    <g id="ytick_4">
     <g id="line2d_36">
      <g>
       <use xlink:href="#m605b5101a2" x="47.032813" y="169.517453" style="stroke: #000000; stroke-width: 0.8"/>
      </g>
     </g>
     <g id="text_9">
      <!-- 60 -->
      <g transform="translate(27.307813 173.316671) scale(0.1 -0.1)">
       <defs>
        <path id="DejaVuSans-36" d="M 2113 2584 
Q 1688 2584 1439 2293 
Q 1191 2003 1191 1497 
Q 1191 994 1439 701 
Q 1688 409 2113 409 
Q 2538 409 2786 701 
Q 3034 994 3034 1497 
Q 3034 2003 2786 2293 
Q 2538 2584 2113 2584 
z
M 3366 4563 
L 3366 3988 
Q 3128 4100 2886 4159 
Q 2644 4219 2406 4219 
Q 1781 4219 1451 3797 
Q 1122 3375 1075 2522 
Q 1259 2794 1537 2939 
Q 1816 3084 2150 3084 
Q 2853 3084 3261 2657 
Q 3669 2231 3669 1497 
Q 3669 778 3244 343 
Q 2819 -91 2113 -91 
Q 1303 -91 875 529 
Q 447 1150 447 2328 
Q 447 3434 972 4092 
Q 1497 4750 2381 4750 
Q 2619 4750 2861 4703 
Q 3103 4656 3366 4563 
z
" transform="scale(0.015625)"/>
       </defs>
       <use xlink:href="#DejaVuSans-36"/>
       <use xlink:href="#DejaVuSans-30" transform="translate(63.623047 0)"/>
      </g>
     </g>
    </g>
    <g id="ytick_5">
     <g id="line2d_37">
      <g>
       <use xlink:href="#m605b5101a2" x="47.032813" y="137.741621" style="stroke: #000000; stroke-width: 0.8"/>
      </g>
     </g>
     <g id="text_10">
      <!-- 70 -->
      <g transform="translate(27.307813 141.540839) scale(0.1 -0.1)">
       <defs>
        <path id="DejaVuSans-37" d="M 525 4666 
L 3525 4666 
L 3525 4397 
L 1831 0 
L 1172 0 
L 2766 4134 
L 525 4134 
L 525 4666 
z
" transform="scale(0.015625)"/>
       </defs>
       <use xlink:href="#DejaVuSans-37"/>
       <use xlink:href="#DejaVuSans-30" transform="translate(63.623047 0)"/>
      </g>
     </g>
    </g>
    <g id="ytick_6">
     <g id="line2d_38">
      <g>
       <use xlink:href="#m605b5101a2" x="47.032813" y="105.965789" style="stroke: #000000; stroke-width: 0.8"/>
      </g>
     </g>
     <g id="text_11">
      <!-- 80 -->
      <g transform="translate(27.307813 109.765008) scale(0.1 -0.1)">
       <defs>
        <path id="DejaVuSans-38" d="M 2034 2216 
Q 1584 2216 1326 1975 
Q 1069 1734 1069 1313 
Q 1069 891 1326 650 
Q 1584 409 2034 409 
Q 2484 409 2743 651 
Q 3003 894 3003 1313 
Q 3003 1734 2745 1975 
Q 2488 2216 2034 2216 
z
M 1403 2484 
Q 997 2584 770 2862 
Q 544 3141 544 3541 
Q 544 4100 942 4425 
Q 1341 4750 2034 4750 
Q 2731 4750 3128 4425 
Q 3525 4100 3525 3541 
Q 3525 3141 3298 2862 
Q 3072 2584 2669 2484 
Q 3125 2378 3379 2068 
Q 3634 1759 3634 1313 
Q 3634 634 3220 271 
Q 2806 -91 2034 -91 
Q 1263 -91 848 271 
Q 434 634 434 1313 
Q 434 1759 690 2068 
Q 947 2378 1403 2484 
z
M 1172 3481 
Q 1172 3119 1398 2916 
Q 1625 2713 2034 2713 
Q 2441 2713 2670 2916 
Q 2900 3119 2900 3481 
Q 2900 3844 2670 4047 
Q 2441 4250 2034 4250 
Q 1625 4250 1398 4047 
Q 1172 3844 1172 3481 
z
" transform="scale(0.015625)"/>
       </defs>
       <use xlink:href="#DejaVuSans-38"/>
       <use xlink:href="#DejaVuSans-30" transform="translate(63.623047 0)"/>
      </g>
     </g>
    </g>
    <g id="ytick_7">
     <g id="line2d_39">
      <g>
       <use xlink:href="#m605b5101a2" x="47.032813" y="74.189957" style="stroke: #000000; stroke-width: 0.8"/>
      </g>
     </g>
     <g id="text_12">
      <!-- 90 -->
      <g transform="translate(27.307813 77.989176) scale(0.1 -0.1)">
       <defs>
        <path id="DejaVuSans-39" d="M 703 97 
L 703 672 
Q 941 559 1184 500 
Q 1428 441 1663 441 
Q 2288 441 2617 861 
Q 2947 1281 2994 2138 
Q 2813 1869 2534 1725 
Q 2256 1581 1919 1581 
Q 1219 1581 811 2004 
Q 403 2428 403 3163 
Q 403 3881 828 4315 
Q 1253 4750 1959 4750 
Q 2769 4750 3195 4129 
Q 3622 3509 3622 2328 
Q 3622 1225 3098 567 
Q 2575 -91 1691 -91 
Q 1453 -91 1209 -44 
Q 966 3 703 97 
z
M 1959 2075 
Q 2384 2075 2632 2365 
Q 2881 2656 2881 3163 
Q 2881 3666 2632 3958 
Q 2384 4250 1959 4250 
Q 1534 4250 1286 3958 
Q 1038 3666 1038 3163 
Q 1038 2656 1286 2365 
Q 1534 2075 1959 2075 
z
" transform="scale(0.015625)"/>
       </defs>
       <use xlink:href="#DejaVuSans-39"/>
       <use xlink:href="#DejaVuSans-30" transform="translate(63.623047 0)"/>
      </g>
     </g>
    </g>
    <g id="ytick_8">
     <g id="line2d_40">
      <g>
       <use xlink:href="#m605b5101a2" x="47.032813" y="42.414125" style="stroke: #000000; stroke-width: 0.8"/>
      </g>
     </g>
     <g id="text_13">
      <!-- 100 -->
      <g transform="translate(20.945313 46.213344) scale(0.1 -0.1)">
       <use xlink:href="#DejaVuSans-31"/>
       <use xlink:href="#DejaVuSans-30" transform="translate(63.623047 0)"/>
       <use xlink:href="#DejaVuSans-30" transform="translate(127.246094 0)"/>
      </g>
     </g>
    </g>
    <g id="text_14">
     <!-- Accuracy (%) -->
     <g transform="translate(14.7875 200.115531) rotate(-90) scale(0.1 -0.1)">
      <defs>
       <path id="DejaVuSans-Bold-41" d="M 3419 850 
L 1538 850 
L 1241 0 
L 31 0 
L 1759 4666 
L 3194 4666 
L 4922 0 
L 3713 0 
L 3419 850 
z
M 1838 1716 
L 3116 1716 
L 2478 3572 
L 1838 1716 
z
" transform="scale(0.015625)"/>
       <path id="DejaVuSans-Bold-75" d="M 500 1363 
L 500 3500 
L 1625 3500 
L 1625 3150 
Q 1625 2866 1622 2436 
Q 1619 2006 1619 1863 
Q 1619 1441 1641 1255 
Q 1663 1069 1716 984 
Q 1784 875 1895 815 
Q 2006 756 2150 756 
Q 2500 756 2700 1025 
Q 2900 1294 2900 1772 
L 2900 3500 
L 4019 3500 
L 4019 0 
L 2900 0 
L 2900 506 
Q 2647 200 2364 54 
Q 2081 -91 1741 -91 
Q 1134 -91 817 281 
Q 500 653 500 1363 
z
" transform="scale(0.015625)"/>
       <path id="DejaVuSans-Bold-72" d="M 3138 2547 
Q 2991 2616 2845 2648 
Q 2700 2681 2553 2681 
Q 2122 2681 1889 2404 
Q 1656 2128 1656 1613 
L 1656 0 
L 538 0 
L 538 3500 
L 1656 3500 
L 1656 2925 
Q 1872 3269 2151 3426 
Q 2431 3584 2822 3584 
Q 2878 3584 2943 3579 
Q 3009 3575 3134 3559 
L 3138 2547 
z
" transform="scale(0.015625)"/>
       <path id="DejaVuSans-Bold-61" d="M 2106 1575 
Q 1756 1575 1579 1456 
Q 1403 1338 1403 1106 
Q 1403 894 1545 773 
Q 1688 653 1941 653 
Q 2256 653 2472 879 
Q 2688 1106 2688 1447 
L 2688 1575 
L 2106 1575 
z
M 3816 1997 
L 3816 0 
L 2688 0 
L 2688 519 
Q 2463 200 2181 54 
Q 1900 -91 1497 -91 
Q 953 -91 614 226 
Q 275 544 275 1050 
Q 275 1666 698 1953 
Q 1122 2241 2028 2241 
L 2688 2241 
L 2688 2328 
Q 2688 2594 2478 2717 
Q 2269 2841 1825 2841 
Q 1466 2841 1156 2769 
Q 847 2697 581 2553 
L 581 3406 
Q 941 3494 1303 3539 
Q 1666 3584 2028 3584 
Q 2975 3584 3395 3211 
Q 3816 2838 3816 1997 
z
" transform="scale(0.015625)"/>
       <path id="DejaVuSans-Bold-79" d="M 78 3500 
L 1197 3500 
L 2138 1125 
L 2938 3500 
L 4056 3500 
L 2584 -331 
Q 2363 -916 2067 -1148 
Q 1772 -1381 1288 -1381 
L 641 -1381 
L 641 -647 
L 991 -647 
Q 1275 -647 1404 -556 
Q 1534 -466 1606 -231 
L 1638 -134 
L 78 3500 
z
" transform="scale(0.015625)"/>
       <path id="DejaVuSans-Bold-20" transform="scale(0.015625)"/>
       <path id="DejaVuSans-Bold-28" d="M 2413 -844 
L 1484 -844 
Q 1006 -72 778 623 
Q 550 1319 550 2003 
Q 550 2688 779 3389 
Q 1009 4091 1484 4856 
L 2413 4856 
Q 2013 4116 1813 3408 
Q 1613 2700 1613 2009 
Q 1613 1319 1811 609 
Q 2009 -100 2413 -844 
z
" transform="scale(0.015625)"/>
       <path id="DejaVuSans-Bold-25" d="M 4959 1925 
Q 4738 1925 4616 1733 
Q 4494 1541 4494 1184 
Q 4494 825 4614 633 
Q 4734 441 4959 441 
Q 5184 441 5303 633 
Q 5422 825 5422 1184 
Q 5422 1541 5301 1733 
Q 5181 1925 4959 1925 
z
M 4959 2450 
Q 5541 2450 5875 2112 
Q 6209 1775 6209 1184 
Q 6209 594 5875 251 
Q 5541 -91 4959 -91 
Q 4378 -91 4042 251 
Q 3706 594 3706 1184 
Q 3706 1772 4042 2111 
Q 4378 2450 4959 2450 
z
M 2094 -91 
L 1403 -91 
L 4319 4750 
L 5013 4750 
L 2094 -91 
z
M 1453 4750 
Q 2034 4750 2367 4411 
Q 2700 4072 2700 3481 
Q 2700 2891 2367 2550 
Q 2034 2209 1453 2209 
Q 872 2209 539 2550 
Q 206 2891 206 3481 
Q 206 4072 539 4411 
Q 872 4750 1453 4750 
z
M 1453 4225 
Q 1228 4225 1106 4031 
Q 984 3838 984 3481 
Q 984 3122 1106 2926 
Q 1228 2731 1453 2731 
Q 1678 2731 1798 2926 
Q 1919 3122 1919 3481 
Q 1919 3838 1797 4031 
Q 1675 4225 1453 4225 
z
" transform="scale(0.015625)"/>
       <path id="DejaVuSans-Bold-29" d="M 513 -844 
Q 913 -100 1113 609 
Q 1313 1319 1313 2009 
Q 1313 2700 1113 3408 
Q 913 4116 513 4856 
L 1441 4856 
Q 1916 4091 2145 3389 
Q 2375 2688 2375 2003 
Q 2375 1319 2147 623 
Q 1919 -72 1441 -844 
L 513 -844 
z
" transform="scale(0.015625)"/>
      </defs>
      <use xlink:href="#DejaVuSans-Bold-41"/>
      <use xlink:href="#DejaVuSans-Bold-63" transform="translate(77.392578 0)"/>
      <use xlink:href="#DejaVuSans-Bold-63" transform="translate(136.669922 0)"/>
      <use xlink:href="#DejaVuSans-Bold-75" transform="translate(195.947266 0)"/>
      <use xlink:href="#DejaVuSans-Bold-72" transform="translate(267.138672 0)"/>
      <use xlink:href="#DejaVuSans-Bold-61" transform="translate(316.455078 0)"/>
      <use xlink:href="#DejaVuSans-Bold-63" transform="translate(383.935547 0)"/>
      <use xlink:href="#DejaVuSans-Bold-79" transform="translate(443.212891 0)"/>
      <use xlink:href="#DejaVuSans-Bold-20" transform="translate(508.398438 0)"/>
      <use xlink:href="#DejaVuSans-Bold-28" transform="translate(543.212891 0)"/>
      <use xlink:href="#DejaVuSans-Bold-25" transform="translate(588.916016 0)"/>
      <use xlink:href="#DejaVuSans-Bold-29" transform="translate(689.111328 0)"/>
     </g>
    </g>
   </g>
   <g id="line2d_41">
    <path d="M 63.26554 184.134335 
L 92.87168 97.915912 
L 110.190162 79.485928 
L 122.47782 67.411112 
L 132.008868 60.844107 
L 139.796302 56.60733 
L 146.380483 51.946874 
L 152.08396 49.828486 
L 157.114783 48.345614 
L 161.615008 48.133775 
L 165.685957 46.015386 
L 169.402442 44.956192 
L 172.821276 44.320675 
L 175.986623 43.896997 
L 178.93349 43.896997 
L 181.6901 43.473319 
L 189.030277 42.837803 
L 191.221148 42.837803 
L 193.305105 43.049642 
L 195.292097 42.625964 
L 197.190749 42.625964 
L 199.008582 42.414125 
L 378.65516 42.414125 
L 378.681681 42.625964 
L 378.761147 42.414125 
L 387.920085 42.414125 
L 387.920085 42.414125 
" clip-path="url(#p75b5248142)" style="fill: none; stroke-dasharray: 5.55,2.4; stroke-dashoffset: 0; stroke: #2ca02c; stroke-width: 1.5"/>
   </g>
   <g id="line2d_42">
    <path d="M 63.26554 112.179729 
L 92.87168 91.631358 
L 110.190162 80.968801 
L 122.47782 73.907505 
L 132.008868 72.636472 
L 139.796302 71.436051 
L 146.380483 70.306244 
L 152.08396 69.811953 
L 157.114783 68.258468 
L 161.615008 65.998854 
L 165.685957 64.798433 
L 169.402442 64.445368 
L 172.821276 65.43395 
L 175.986623 65.080885 
L 178.93349 64.869046 
L 181.6901 64.304142 
L 184.279537 63.598013 
L 186.720923 63.739239 
L 189.030277 64.72782 
L 191.221148 64.72782 
L 193.305105 65.151498 
L 197.190749 63.951078 
L 199.008582 65.292724 
L 200.752197 64.162917 
L 202.427416 62.609431 
L 205.592763 63.880465 
L 207.091606 64.798433 
L 208.53963 64.515981 
L 209.94017 63.951078 
L 211.29624 63.598013 
L 212.610579 64.162917 
L 213.885677 64.374755 
L 216.327063 64.304142 
L 217.497346 64.72782 
L 218.636417 63.809852 
L 219.745898 63.103722 
L 220.827288 64.23353 
L 221.881975 64.445368 
L 222.911245 64.939659 
L 223.916294 64.657207 
L 224.898237 64.72782 
L 225.858112 66.704983 
L 226.796889 69.035211 
L 227.715475 67.764178 
L 228.614722 66.069466 
L 229.495426 63.668626 
L 230.358337 63.668626 
L 231.204159 64.445368 
L 232.033557 64.657207 
L 232.847155 64.72782 
L 233.645545 64.374755 
L 234.429285 65.010272 
L 235.198903 64.657207 
L 235.954899 64.162917 
L 236.697746 64.23353 
L 238.14577 65.080885 
L 238.85178 64.72782 
L 239.54631 64.586594 
L 240.229726 64.939659 
L 240.90238 64.515981 
L 242.216719 64.304142 
L 243.491817 64.657207 
L 244.729951 64.72782 
L 245.335814 64.586594 
L 245.933204 65.080885 
L 247.103486 65.292724 
L 248.242557 64.162917 
L 248.8009 64.72782 
L 249.352038 65.080885 
L 249.896156 64.869046 
L 250.433428 65.222111 
L 250.964027 65.222111 
L 251.488115 66.422531 
L 252.00585 65.504563 
L 252.517385 63.739239 
L 253.022866 64.586594 
L 253.522434 64.869046 
L 254.016227 64.798433 
L 254.504377 65.222111 
L 254.987011 64.869046 
L 255.464252 63.809852 
L 255.936219 64.798433 
L 256.403029 65.363337 
L 256.864791 65.43395 
L 258.220862 64.162917 
L 258.663484 64.586594 
L 259.101566 64.092304 
L 259.5352 64.657207 
L 259.964477 65.575176 
L 260.389482 64.657207 
L 261.227011 64.515981 
L 261.639697 64.304142 
L 262.048433 64.586594 
L 262.453295 64.304142 
L 262.854356 64.798433 
L 263.251685 64.939659 
L 263.645353 64.72782 
L 264.035425 64.657207 
L 264.805043 63.880465 
L 265.184713 63.880465 
L 265.934077 65.292724 
L 266.303886 65.645789 
L 266.67052 64.939659 
L 267.034034 63.880465 
L 267.75191 64.23353 
L 268.106374 64.445368 
L 268.806597 64.515981 
L 269.15245 65.645789 
L 269.495525 65.363337 
L 269.835866 64.869046 
L 270.173517 65.222111 
L 270.50852 63.809852 
L 270.840916 64.374755 
L 271.170745 65.363337 
L 271.498046 65.645789 
L 271.822859 64.445368 
L 272.14522 63.739239 
L 272.465166 63.880465 
L 272.782734 64.515981 
L 273.097957 65.857628 
L 273.410872 64.515981 
L 274.029906 63.739239 
L 274.336091 63.880465 
L 274.640097 65.363337 
L 274.941954 65.222111 
L 275.241693 64.021691 
L 275.539344 63.598013 
L 275.834934 64.021691 
L 276.420048 64.092304 
L 276.709626 63.809852 
L 277.282958 65.080885 
L 277.566764 64.869046 
L 277.848697 64.939659 
L 278.40704 64.162917 
L 278.683498 64.304142 
L 278.958178 64.092304 
L 279.231103 64.586594 
L 279.502296 64.586594 
L 279.771777 65.292724 
L 280.039568 65.43395 
L 280.305692 64.515981 
L 281.094255 63.809852 
L 281.353907 64.798433 
L 281.61199 66.563757 
L 281.868523 65.998854 
L 282.123525 64.657207 
L 282.377013 64.374755 
L 282.629006 63.598013 
L 283.128574 65.292724 
L 283.376184 65.43395 
L 283.622367 64.939659 
L 283.86714 63.809852 
L 284.352516 64.72782 
L 284.593151 65.43395 
L 284.832438 66.846209 
L 285.070392 66.351918 
L 285.307028 65.151498 
L 285.542359 64.72782 
L 285.776402 64.72782 
L 286.009169 66.069466 
L 286.240674 65.010272 
L 286.470932 64.515981 
L 286.699954 64.374755 
L 287.154348 65.504563 
L 287.379745 64.657207 
L 287.603959 64.515981 
L 287.827002 64.23353 
L 288.269624 64.939659 
L 288.707706 64.23353 
L 288.925074 64.939659 
L 289.14134 65.222111 
L 289.356518 64.162917 
L 289.783648 64.869046 
L 289.995622 65.363337 
L 290.206549 65.504563 
L 290.416439 65.222111 
L 290.625303 63.880465 
L 290.833151 63.880465 
L 291.039992 64.304142 
L 291.245837 65.43395 
L 291.654573 64.869046 
L 291.857484 63.809852 
L 292.260436 64.657207 
L 292.659623 65.080885 
L 292.857825 64.939659 
L 293.055113 64.23353 
L 293.251493 64.162917 
L 293.641565 64.798433 
L 293.835274 64.72782 
L 294.028108 64.515981 
L 294.220075 64.869046 
L 294.411183 64.445368 
L 294.60144 64.586594 
L 294.790853 64.092304 
L 294.979431 64.374755 
L 295.167179 64.939659 
L 295.354105 64.798433 
L 295.725522 64.869046 
L 295.910026 64.445368 
L 296.093736 64.798433 
L 296.27666 64.586594 
L 296.458804 65.292724 
L 296.820777 64.939659 
L 297.179709 64.869046 
L 297.35805 65.716402 
L 297.712514 65.292724 
L 297.888649 65.857628 
L 298.06406 64.586594 
L 298.412737 64.869046 
L 298.586013 65.575176 
L 298.75859 65.504563 
L 299.272175 64.304142 
L 299.442007 65.292724 
L 299.779658 65.222111 
L 299.947487 64.586594 
L 300.612289 65.575176 
L 300.776885 65.363337 
L 301.104186 64.798433 
L 301.266901 64.798433 
L 301.590483 66.563757 
L 301.911633 65.080885 
L 302.071306 64.162917 
L 302.230385 64.092304 
L 302.546776 66.140079 
L 302.704097 66.210692 
L 302.860841 66.916822 
L 303.017012 64.374755 
L 303.172614 63.951078 
L 303.482127 65.787015 
L 303.636046 65.504563 
L 303.789413 64.798433 
L 303.942231 65.151498 
L 304.246237 64.939659 
L 304.397432 64.374755 
L 304.698227 65.292724 
L 304.996918 65.998854 
L 305.145484 65.010272 
L 305.588106 65.010272 
L 306.026188 66.281305 
L 306.171222 65.998854 
L 306.315766 65.151498 
L 306.459822 65.080885 
L 306.603394 65.292724 
L 306.889098 66.351918 
L 307.031237 65.504563 
L 307.172904 65.575176 
L 307.314103 64.939659 
L 307.454837 64.869046 
L 307.595108 65.998854 
L 307.734921 66.069466 
L 308.01318 65.575176 
L 308.151633 65.645789 
L 308.427199 65.43395 
L 308.564318 65.716402 
L 308.700999 65.504563 
L 308.837243 65.504563 
L 308.973055 65.645789 
L 309.108436 66.281305 
L 309.377917 65.43395 
L 309.512023 65.504563 
L 309.645709 65.151498 
L 310.307933 65.716402 
L 310.569975 65.575176 
L 310.700395 65.928241 
L 310.830418 65.857628 
L 310.960047 65.151498 
L 311.21813 65.787015 
L 311.346589 65.998854 
L 311.602354 65.928241 
L 311.856597 64.72782 
L 311.983153 66.140079 
L 312.109335 66.069466 
L 312.235146 65.787015 
L 312.360587 65.222111 
L 312.48566 65.292724 
L 312.610369 65.504563 
L 312.734714 66.281305 
L 312.858699 66.210692 
L 313.105593 64.939659 
L 313.228507 64.304142 
L 313.47328 65.857628 
L 313.595142 65.857628 
L 313.716657 65.716402 
L 313.837828 66.563757 
L 313.958656 66.563757 
L 314.079143 65.645789 
L 314.199291 66.069466 
L 314.438578 65.080885 
L 314.676532 67.058048 
L 315.1485 64.515981 
L 315.265681 64.869046 
L 315.499084 66.846209 
L 315.615309 67.269887 
L 315.846814 65.292724 
L 315.962098 65.857628 
L 316.077072 65.43395 
L 316.191736 65.787015 
L 316.306094 66.563757 
L 316.647342 65.504563 
L 316.760488 65.575176 
L 316.873335 65.787015 
L 316.985885 65.575176 
L 317.098139 66.422531 
L 317.210099 66.351918 
L 317.321766 65.645789 
L 317.544228 66.63437 
L 317.765538 65.928241 
L 317.985706 65.575176 
L 318.313846 66.281305 
L 318.531214 65.787015 
L 318.639484 65.716402 
L 318.747481 65.998854 
L 318.855205 65.928241 
L 318.962658 66.069466 
L 319.069842 65.998854 
L 319.176757 66.493144 
L 319.283405 65.645789 
L 319.601762 66.422531 
L 319.707355 66.422531 
L 319.812689 66.281305 
L 320.022579 66.704983 
L 320.335494 66.069466 
L 320.542837 65.998854 
L 320.749178 66.563757 
L 320.851977 66.563757 
L 321.056834 65.575176 
L 321.158895 65.716402 
L 321.362289 66.422531 
L 321.463624 66.281305 
L 321.564719 66.63437 
L 321.766194 65.575176 
L 322.066636 66.493144 
L 322.166315 66.563757 
L 322.463965 65.504563 
L 322.759556 66.493144 
L 322.955486 65.787015 
L 323.247705 66.422531 
L 323.344669 66.563757 
L 323.441414 66.281305 
L 323.53794 65.575176 
L 323.730339 66.140079 
L 323.921876 66.775596 
L 324.112558 65.363337 
L 324.20758 65.645789 
L 324.396994 67.128661 
L 324.679548 65.575176 
L 324.773319 65.787015 
L 324.960245 66.422531 
L 325.053403 66.422531 
L 325.146357 65.363337 
L 325.331662 66.422531 
L 325.424013 66.987435 
L 325.60812 66.210692 
L 325.699876 66.210692 
L 325.791436 65.928241 
L 325.973969 66.63437 
L 326.064944 66.704983 
L 326.155725 66.493144 
L 326.246314 66.704983 
L 326.426917 65.998854 
L 326.516934 66.281305 
L 326.696399 65.998854 
L 326.785849 66.775596 
L 326.96419 65.504563 
L 327.14179 67.128661 
L 327.230313 66.987435 
L 327.494789 65.292724 
L 327.6702 66.916822 
L 327.844894 66.63437 
L 328.018877 65.998854 
L 328.105603 66.281305 
L 328.192153 67.622952 
L 328.278529 67.269887 
L 328.450757 66.351918 
L 328.536612 66.563757 
L 328.622294 67.199274 
L 328.707805 66.775596 
L 328.793145 65.645789 
L 328.878315 65.857628 
L 328.963315 65.787015 
L 329.13281 66.775596 
L 329.217306 66.704983 
L 329.301635 66.846209 
L 329.553627 66.069466 
L 329.7208 66.281305 
L 329.887322 67.058048 
L 330.218429 65.928241 
L 330.383025 66.987435 
L 330.465086 66.775596 
L 330.546989 66.281305 
L 330.628736 66.63437 
L 330.791761 65.857628 
L 331.035139 66.351918 
L 331.196623 66.846209 
L 331.3575 65.998854 
L 331.597684 66.846209 
L 331.995014 66.140079 
L 332.152916 66.63437 
L 332.231649 66.422531 
L 332.388681 66.987435 
L 332.545138 66.563757 
L 332.623152 66.563757 
L 332.701024 66.351918 
L 332.778754 66.704983 
L 333.011099 65.928241 
L 333.242186 67.411113 
L 333.318939 67.058048 
L 333.472031 67.693565 
L 333.700645 66.63437 
L 333.776578 66.775596 
L 333.852377 67.411113 
L 333.928042 67.128661 
L 334.07897 65.998854 
L 334.154235 66.210692 
L 334.304367 67.411113 
L 334.379236 66.704983 
L 334.528581 67.3405 
L 334.603058 67.269887 
L 334.677405 67.411113 
L 334.899675 66.422531 
L 335.194246 67.269887 
L 335.340773 67.269887 
L 335.413848 65.857628 
L 335.486799 66.140079 
L 335.632328 67.622952 
L 335.704907 67.622952 
L 335.921906 66.493144 
L 336.137809 67.622952 
L 336.28114 66.846209 
L 336.352625 67.199274 
L 336.423991 67.058048 
L 336.495239 66.63437 
L 336.637377 67.3405 
L 336.70827 66.987435 
L 336.779044 67.693565 
L 336.849702 67.552339 
L 336.990668 66.563757 
L 337.201249 67.622952 
L 337.341061 66.916822 
L 337.410796 66.987435 
L 337.480417 67.058048 
L 337.549925 67.3405 
L 337.61932 67.269887 
L 337.688603 67.3405 
L 337.826831 66.63437 
L 338.101954 67.481726 
L 338.238853 67.058048 
L 338.307139 67.199274 
L 338.375316 67.128661 
L 338.579195 67.83479 
L 338.646939 67.693565 
L 338.782106 67.058048 
L 338.849529 67.128661 
L 338.916846 67.693565 
L 338.984057 67.622952 
L 339.051162 67.199274 
L 339.118163 67.552339 
L 339.185058 67.128661 
L 339.251849 67.905403 
L 339.318535 67.622952 
L 339.517972 67.128661 
L 339.584244 67.622952 
L 339.716482 66.493144 
L 339.782447 66.563757 
L 339.848311 68.187855 
L 339.914073 67.905403 
L 340.110755 67.3405 
L 340.241375 66.846209 
L 340.371596 68.329081 
L 340.566187 67.552339 
L 340.695424 67.905403 
L 340.759896 67.976016 
L 340.82427 67.552339 
L 340.952729 67.905403 
L 341.016814 67.976016 
L 341.144697 66.846209 
L 341.335805 67.764178 
L 341.399318 67.905403 
L 341.462737 67.764178 
L 341.526062 68.046629 
L 341.652431 67.269887 
L 341.841286 67.552339 
L 341.904052 67.128661 
L 342.0918 67.764178 
L 342.1542 68.046629 
L 342.402892 67.058048 
L 342.526696 68.329081 
L 342.650143 67.976016 
L 342.711733 68.682146 
L 342.895972 67.552339 
L 342.957209 67.693565 
L 343.07942 68.258468 
L 343.140394 67.693565 
L 343.201282 67.83479 
L 343.262083 68.258468 
L 343.322797 68.187855 
L 343.443968 67.976016 
L 343.504425 68.046629 
L 343.564796 67.976016 
L 343.625082 67.905403 
L 343.745399 68.329081 
L 343.805431 67.83479 
L 343.865379 68.258468 
L 344.044718 67.693565 
L 344.223308 68.187855 
L 344.282672 67.905403 
L 344.401154 68.187855 
L 344.460272 67.764178 
L 344.519308 67.905403 
L 344.695928 68.187855 
L 344.75464 68.046629 
L 344.930292 67.3405 
L 345.105224 68.187855 
L 345.221449 68.329081 
L 345.279443 68.682146 
L 345.337358 68.187855 
L 345.395195 68.470307 
L 345.452954 68.258468 
L 345.510635 67.552339 
L 345.568238 67.905403 
L 345.683212 69.317663 
L 345.740583 69.176437 
L 345.912234 67.693565 
L 345.969299 69.953179 
L 346.026287 67.3405 
L 346.083199 68.399694 
L 346.196797 68.752759 
L 346.253482 71.436051 
L 346.310093 69.529502 
L 346.366628 68.046629 
L 346.423089 68.893985 
L 346.479475 68.046629 
L 346.535787 69.388276 
L 346.592025 67.269887 
L 346.648189 69.74134 
L 346.704279 69.24705 
L 346.816239 68.329081 
L 346.872109 68.470307 
L 347.039282 68.893985 
L 347.426826 68.823372 
L 347.481904 68.682146 
L 347.646712 68.893985 
L 347.865471 69.105824 
L 348.028808 69.035211 
L 348.137354 69.176437 
L 348.299656 68.964598 
L 348.353621 69.035211 
L 348.461345 69.105824 
L 348.622423 68.893985 
L 348.889545 69.388276 
L 348.94277 69.388276 
L 348.995928 69.529502 
L 349.04902 69.458889 
L 349.102046 69.176437 
L 349.155007 69.388276 
L 349.207902 69.317663 
L 349.418829 69.74134 
L 349.471398 69.74134 
L 349.523903 69.882566 
L 349.576343 69.74134 
L 349.681031 69.74134 
L 349.733279 69.529502 
L 349.785463 69.600114 
L 349.837583 69.953179 
L 349.88964 69.74134 
L 349.941634 69.670727 
L 349.993564 69.74134 
L 350.045431 69.74134 
L 350.097235 69.882566 
L 350.148977 69.811953 
L 350.303827 69.74134 
L 350.406749 69.600114 
L 350.458117 69.670727 
L 350.611852 69.811953 
L 350.765035 69.670727 
L 350.815975 69.600114 
L 350.917671 69.953179 
L 350.968429 69.670727 
L 351.019127 69.811953 
L 351.069764 69.74134 
L 351.271715 70.165018 
L 351.322054 69.811953 
L 351.372334 69.953179 
L 351.472716 70.729922 
L 351.522819 70.376857 
L 351.572863 70.518083 
L 351.622849 70.165018 
L 351.672776 70.306244 
L 351.772455 70.306244 
L 351.871903 69.953179 
L 351.92154 70.094405 
L 352.119513 70.588696 
L 352.218156 70.094405 
L 352.267393 70.306244 
L 352.365696 70.800535 
L 352.463773 70.588696 
L 352.610468 70.165018 
L 352.756661 70.729922 
L 352.805281 70.659309 
L 352.853845 70.800535 
L 352.902355 70.659309 
L 352.999209 70.518083 
L 353.095844 70.941761 
L 353.14408 70.729922 
L 353.336479 71.012374 
L 353.384444 70.588696 
L 353.480212 70.659309 
L 353.575766 71.082987 
L 353.671107 70.729922 
L 353.718698 71.082987 
L 353.766235 70.800535 
L 353.861152 71.012374 
L 353.955859 70.800535 
L 354.050356 71.012374 
L 354.097526 70.941761 
L 354.191711 70.941761 
L 354.238725 70.729922 
L 354.285688 70.941761 
L 354.332599 71.224213 
L 354.379459 70.941761 
L 354.426267 70.871148 
L 354.473024 71.012374 
L 354.51973 70.729922 
L 354.566385 70.941761 
L 354.752497 71.365438 
L 354.937802 71.012374 
L 354.984003 70.871148 
L 355.122306 71.577277 
L 355.534549 71.082987 
L 355.580109 71.082987 
L 355.716499 71.365438 
L 355.761865 71.294826 
L 355.807184 71.64789 
L 355.852454 71.012374 
L 355.897677 71.436051 
L 355.942851 71.436051 
L 355.987978 71.294826 
L 356.123074 71.718503 
L 356.302539 71.224213 
L 356.391989 72.000955 
L 356.436644 70.871148 
L 356.525815 71.1536 
L 356.659222 71.506664 
L 356.74793 71.64789 
L 356.836454 71.012374 
L 356.880647 71.64789 
L 356.924794 71.224213 
L 356.968896 71.294826 
L 357.056963 70.871148 
L 357.100929 71.718503 
L 357.144849 71.577277 
L 357.188725 71.1536 
L 357.232555 71.789116 
L 357.363777 71.436051 
L 357.581588 72.212794 
L 357.711743 70.800535 
L 357.884669 71.789116 
L 357.927791 71.789116 
L 357.97087 72.212794 
L 358.013905 70.659309 
L 358.099846 71.012374 
L 358.142752 70.871148 
L 358.271211 72.071568 
L 358.356636 71.64789 
L 358.399285 72.000955 
L 358.441891 71.64789 
L 358.73895 72.212794 
L 358.526976 71.577277 
L 358.823446 72.142181 
L 358.865631 71.506664 
L 358.949877 71.64789 
L 358.991938 71.64789 
L 359.075935 72.283407 
L 359.159767 72.071568 
L 359.201622 71.789116 
L 359.243436 72.212794 
L 359.285208 71.859729 
L 359.368632 72.212794 
L 359.410282 71.930342 
L 359.451892 72.424633 
L 359.534991 72.283407 
L 359.576479 72.142181 
L 359.659336 72.071568 
L 359.700704 72.989537 
L 359.824569 70.659309 
L 359.865777 71.082987 
L 359.948075 72.283407 
L 359.989165 70.023792 
L 360.071226 71.294825 
L 360.153129 67.3405 
L 360.316466 72.707085 
L 360.357203 72.636472 
L 360.479181 73.342601 
L 360.600812 72.848311 
L 360.641279 72.989537 
L 360.722098 73.130762 
L 360.76245 73.06015 
L 360.883277 73.130762 
L 360.923478 73.201375 
L 360.96364 73.130762 
L 361.123913 73.06015 
L 361.203824 73.130762 
L 361.442665 73.483827 
L 361.561587 73.342601 
L 361.680178 73.836892 
L 361.759056 73.766279 
L 361.798441 73.625053 
L 361.837789 73.766279 
L 361.877102 73.766279 
L 361.916378 73.907505 
L 362.033989 73.413214 
L 362.073121 73.483827 
L 362.190303 73.483827 
L 362.346046 73.907505 
L 362.384894 73.836892 
L 362.423706 73.836892 
L 362.578602 73.55444 
L 362.617239 73.483827 
L 362.65584 73.55444 
L 362.848326 73.907505 
L 362.88672 73.836892 
L 363.039949 73.766279 
L 363.078171 73.766279 
L 363.116358 73.625053 
L 363.192631 73.695666 
L 363.306785 73.907505 
L 363.420635 73.836892 
L 363.496366 73.766279 
L 363.534182 73.907505 
L 363.571964 73.695666 
L 363.647428 73.836892 
L 363.722759 73.907505 
L 363.760375 73.836892 
L 363.873023 73.836892 
L 363.910507 74.048731 
L 363.985376 73.978118 
L 364.022761 73.766279 
L 364.097434 73.907505 
L 364.134721 74.119344 
L 364.209198 74.048731 
L 364.246388 73.978118 
L 364.283545 74.119344 
L 364.357764 74.048731 
L 364.394825 73.978118 
L 364.431853 74.119344 
L 364.616517 74.189957 
L 364.653354 74.26057 
L 364.69016 74.189957 
L 364.837065 74.048731 
L 364.910328 74.119344 
L 364.983466 74.189957 
L 365.019988 74.119344 
L 365.092939 74.119344 
L 365.202132 73.978118 
L 365.491956 74.401796 
L 365.528046 74.26057 
L 365.564106 74.331183 
L 365.636134 74.26057 
L 365.743949 74.825473 
L 365.779827 74.754861 
L 365.815674 74.896086 
L 365.88728 74.896086 
L 365.923038 74.684248 
L 365.958765 74.966699 
L 365.994463 74.896086 
L 366.06577 75.178538 
L 366.136958 75.037312 
L 366.172507 74.966699 
L 366.208027 75.107925 
L 366.667117 75.037312 
L 366.702228 74.896086 
L 366.73731 75.107925 
L 366.772364 74.966699 
L 366.877352 75.107925 
L 366.912291 75.037312 
L 367.016936 75.390377 
L 367.051761 75.178538 
L 367.121325 75.249151 
L 367.156065 75.46099 
L 367.22546 75.390377 
L 367.260115 75.390377 
L 367.363913 75.037312 
L 367.398456 75.46099 
L 367.432971 74.754861 
L 367.467459 74.966699 
L 367.60513 75.390377 
L 367.639479 75.319764 
L 367.6738 75.672829 
L 367.74236 75.531603 
L 368.117483 75.602216 
L 368.21922 75.743442 
L 368.320716 75.602216 
L 368.455669 76.025894 
L 368.489341 75.743442 
L 368.556605 75.814055 
L 368.590197 76.16712 
L 368.657303 75.955281 
L 368.757763 75.955281 
L 368.824606 76.16712 
L 368.891345 75.743442 
L 368.924675 75.955281 
L 368.957979 75.955281 
L 369.157261 72.707085 
L 369.190384 74.26057 
L 369.223482 74.825473 
L 369.289601 71.930342 
L 369.355617 72.777698 
L 369.388587 74.472409 
L 369.421532 73.413214 
L 369.487345 69.105824 
L 369.520213 71.789116 
L 369.618667 72.35402 
L 369.651435 71.224213 
L 369.716895 71.718503 
L 369.749587 72.35402 
L 369.814897 71.859729 
L 370.139957 72.777698 
L 370.941945 72.848311 
L 371.068877 72.918924 
L 371.697941 72.989537 
L 371.822649 73.060149 
L 371.853769 72.989537 
L 371.884867 73.060149 
L 371.978024 73.201375 
L 372.070979 72.989537 
L 372.101919 73.060149 
L 372.132837 73.060149 
L 372.163732 72.848311 
L 372.194605 73.060149 
L 372.225455 73.201375 
L 372.256284 72.777698 
L 372.317873 73.271988 
L 372.471461 73.625053 
L 372.502112 73.625053 
L 372.65504 73.907505 
L 372.716058 73.978118 
L 372.746534 73.836892 
L 372.868223 74.119344 
L 372.898591 74.048731 
L 373.110565 74.048731 
L 373.201089 73.907505 
L 373.231222 74.189957 
L 373.321492 74.119344 
L 373.351539 73.907505 
L 373.411571 74.119344 
L 373.561282 74.472409 
L 373.591162 74.401796 
L 373.650858 74.543022 
L 373.740246 75.037312 
L 373.770001 74.896086 
L 373.829448 74.472409 
L 373.85914 75.602216 
L 373.888812 73.625053 
L 373.918463 73.907505 
L 373.948094 72.424633 
L 373.977704 74.472409 
L 374.036863 72.848311 
L 374.066412 74.048731 
L 374.125448 72.071568 
L 374.154935 73.201375 
L 374.184402 72.212794 
L 374.243276 73.271988 
L 374.36078 74.119344 
L 374.390105 74.048731 
L 374.507206 74.119344 
L 374.623987 74.331183 
L 374.653133 74.26057 
L 374.769516 74.119344 
L 375.203151 74.119344 
L 375.346723 74.401796 
L 375.404017 74.472409 
L 375.432635 74.26057 
L 375.546916 74.543022 
L 375.632427 74.613635 
L 375.717767 74.825473 
L 375.746176 74.684248 
L 375.887937 74.825473 
L 376.001008 74.754861 
L 376.141928 74.825473 
L 376.226257 74.896086 
L 376.366436 75.107925 
L 376.394417 75.037312 
L 376.422379 74.966699 
L 376.478249 75.107925 
L 376.701001 75.390377 
L 376.839634 74.896086 
L 376.977818 75.884668 
L 377.005401 75.531603 
L 377.060514 75.743442 
L 377.088044 75.955281 
L 377.170527 75.743442 
L 377.471611 75.672829 
L 377.526126 75.743442 
L 377.607769 75.531603 
L 377.743494 75.814055 
L 377.770587 75.814055 
L 377.797663 75.46099 
L 377.851764 75.743442 
L 377.959761 76.308346 
L 377.986717 76.237733 
L 378.040579 76.025894 
L 378.067485 76.237733 
L 378.094374 76.590797 
L 378.121245 76.237733 
L 378.1481 75.602216 
L 378.201759 76.16712 
L 378.308876 77.085088 
L 378.54891 74.331183 
L 378.575497 75.46099 
L 378.602068 73.342601 
L 378.628622 75.178538 
L 378.65516 72.989537 
L 378.708186 76.237733 
L 378.734675 73.625053 
L 378.866871 75.743442 
L 378.919635 75.672829 
L 378.99866 76.378959 
L 379.024969 75.955281 
L 379.051262 76.16712 
L 379.130043 76.096507 
L 379.391603 76.16712 
L 379.625645 76.520185 
L 379.884197 76.449572 
L 379.93572 76.378959 
L 379.961459 76.449572 
L 380.089918 76.520185 
L 380.217992 76.520185 
L 380.345683 76.378959 
L 380.49841 76.449572 
L 380.675904 76.732023 
L 380.7012 76.66141 
L 380.776999 76.732023 
L 381.028695 77.226314 
L 381.053783 77.085088 
L 381.103915 77.36754 
L 381.65152 77.36754 
L 381.775003 77.508766 
L 381.824296 77.36754 
L 381.873533 77.508766 
L 381.971836 77.579379 
L 382.265395 78.356122 
L 382.33847 78.003057 
L 382.362801 78.497347 
L 382.459986 78.426734 
L 382.55695 78.426734 
L 382.581156 78.638573 
L 382.653694 78.56796 
L 382.701984 78.709186 
L 382.726109 78.285509 
L 382.846528 78.779799 
L 382.870571 78.850412 
L 382.918617 78.779799 
L 383.038495 78.497347 
L 383.086352 78.56796 
L 383.110261 78.638573 
L 383.134156 78.426734 
L 383.158038 78.56796 
L 383.205762 78.426734 
L 383.229603 78.497347 
L 383.253432 78.709186 
L 383.277247 78.285509 
L 383.324838 78.426734 
L 383.348613 78.497347 
L 383.41986 78.850412 
L 383.561999 75.319764 
L 383.632891 77.155701 
L 383.656496 74.189957 
L 383.750784 75.249151 
L 383.797851 76.732023 
L 383.868353 76.16712 
L 383.891828 76.16712 
L 384.055792 76.802636 
L 384.079164 76.732023 
L 384.12587 76.873249 
L 384.149204 76.873249 
L 384.195834 77.014475 
L 384.242412 76.943862 
L 384.381844 76.873249 
L 384.590143 76.943862 
L 384.728446 77.085088 
L 384.774448 77.014475 
L 384.843358 77.085088 
L 385.368005 77.155701 
L 385.503817 77.438153 
L 385.52641 77.36754 
L 385.571561 77.579379 
L 385.796601 77.649992 
L 385.908679 77.932444 
L 385.953427 77.861831 
L 385.998129 77.932444 
L 386.087393 77.508766 
L 386.10968 77.720605 
L 386.198711 77.508766 
L 386.265363 77.579379 
L 386.750989 79.132864 
L 386.772933 79.697768 
L 386.816785 78.07367 
L 386.904356 75.955281 
L 386.926221 76.66141 
L 386.969917 79.203477 
L 386.991748 74.613635 
L 387.100737 74.966699 
L 387.339537 79.415316 
L 387.404434 79.556542 
L 387.382812 79.344703 
L 387.447643 79.485929 
L 387.57701 79.415316 
L 387.598533 79.344703 
L 387.684517 79.415316 
L 387.748892 79.344703 
L 387.770329 79.627155 
L 387.81317 79.27409 
L 387.855968 79.344703 
L 387.920085 79.27409 
L 387.920085 79.27409 
" clip-path="url(#p75b5248142)" style="fill: none; stroke: #2ca02c; stroke-width: 1.5; stroke-linecap: square"/>
   </g>
   <g id="line2d_43">
    <path d="M 63.26554 284.334125 
L 92.87168 165.704352 
L 110.190162 111.049922 
L 122.47782 87.747644 
L 132.008868 71.224212 
L 139.796302 59.573074 
L 146.380483 53.429747 
L 152.08396 49.828486 
L 157.114783 47.07458 
L 161.615008 45.16803 
L 165.685957 43.685158 
L 175.986623 42.414125 
L 386.154218 42.414125 
L 386.198711 72.071567 
L 386.265363 48.345614 
L 386.42048 42.414125 
L 387.920085 42.414125 
L 387.920085 42.414125 
" clip-path="url(#p75b5248142)" style="fill: none; stroke-dasharray: 5.55,2.4; stroke-dashoffset: 0; stroke: #d62728; stroke-width: 1.5"/>
   </g>
   <g id="line2d_44">
    <path d="M 63.26554 226.572724 
L 92.87168 151.08747 
L 110.190162 123.477803 
L 122.47782 116.063442 
L 132.008868 110.555631 
L 139.796302 108.86092 
L 146.380483 106.883757 
L 152.08396 105.542111 
L 157.114783 104.765368 
L 161.615008 104.271078 
L 169.402442 103.635561 
L 172.821276 102.717593 
L 175.986623 102.435141 
L 181.6901 101.375946 
L 193.305105 100.104913 
L 197.190749 99.328171 
L 204.039405 98.268976 
L 208.53963 97.986524 
L 209.94017 97.774685 
L 211.29624 97.280395 
L 212.610579 97.068556 
L 220.827288 96.574265 
L 222.911245 96.362426 
L 224.898237 96.291813 
L 225.858112 96.079974 
L 227.715475 95.938748 
L 230.358337 95.303232 
L 238.85178 94.667715 
L 239.54631 94.667715 
L 244.11537 93.82036 
L 245.933204 93.679134 
L 248.242557 93.608521 
L 249.352038 93.537908 
L 249.896156 93.537908 
L 250.964027 93.255456 
L 251.488115 93.255456 
L 252.00585 93.043617 
L 255.464252 92.619939 
L 255.936219 92.619939 
L 256.864791 92.4081 
L 257.321615 92.4081 
L 259.101566 91.843197 
L 259.5352 91.843197 
L 260.389482 91.631358 
L 261.227011 91.560745 
L 262.453295 91.490132 
L 264.805043 91.137067 
L 265.561039 91.137067 
L 265.934077 90.995841 
L 266.67052 91.066454 
L 267.39448 90.854615 
L 273.410872 90.784002 
L 274.640097 90.289712 
L 275.539344 90.219099 
L 275.834934 90.077873 
L 276.420048 90.00726 
L 280.305692 89.159904 
L 282.87952 89.089291 
L 283.128574 88.948065 
L 284.352516 88.877452 
L 285.307028 88.665614 
L 287.827002 88.595001 
L 288.048886 88.453775 
L 289.356518 88.383162 
L 289.783648 88.312549 
L 290.206549 88.241936 
L 290.416439 88.10071 
L 291.039992 88.171323 
L 291.450694 88.241936 
L 292.260436 88.171323 
L 292.460496 88.030097 
L 295.167179 88.030097 
L 295.354105 87.888871 
L 296.640174 87.818258 
L 297.00062 87.747645 
L 297.179709 87.818258 
L 297.53565 87.747645 
L 298.75859 87.677032 
L 299.101665 87.535806 
L 299.611166 87.465193 
L 300.11466 87.323967 
L 302.071306 87.253354 
L 302.388874 87.182741 
L 303.327651 87.112128 
L 303.636046 87.041516 
L 304.094505 86.970903 
L 304.548094 86.829677 
L 305.588106 86.759064 
L 305.880659 86.688451 
L 306.459822 86.617838 
L 307.031237 86.405999 
L 307.454837 86.335386 
L 307.734921 86.123547 
L 310.176307 86.052934 
L 310.439155 85.911708 
L 310.700395 85.841095 
L 311.089284 85.841095 
L 311.346589 85.699869 
L 311.856597 85.699869 
L 312.109335 85.558643 
L 313.105593 85.48803 
L 313.351069 85.417417 
L 315.1485 85.346804 
L 315.382542 85.276192 
L 316.191736 85.205579 
L 316.420147 85.134966 
L 317.544228 85.064353 
L 317.765538 84.99374 
L 318.855205 84.923127 
L 319.069842 84.852514 
L 320.542837 84.781901 
L 320.749178 84.711288 
L 322.166315 84.640675 
L 322.364979 84.570062 
L 324.302392 84.499449 
L 324.491386 84.428836 
L 325.60812 84.358223 
L 325.791436 84.28761 
L 327.844894 84.216997 
L 328.105603 84.146384 
L 328.278529 84.146384 
L 328.536612 84.075771 
L 328.963315 84.005158 
L 329.217306 83.934545 
L 329.637296 83.934545 
L 329.804142 83.793319 
L 329.887322 83.793319 
L 330.053196 83.652093 
L 330.465086 83.58148 
L 330.710326 83.510868 
L 331.035139 83.440255 
L 331.277137 83.369642 
L 331.995014 83.369642 
L 332.231649 83.157803 
L 334.07897 83.08719 
L 334.453974 82.875351 
L 334.973508 82.875351 
L 335.120793 82.734125 
L 335.267572 82.663512 
L 335.413848 82.592899 
L 335.632328 82.663512 
L 335.704907 82.663512 
L 335.849695 82.522286 
L 336.920243 82.451673 
L 337.201249 82.310447 
L 337.61932 82.239834 
L 337.688603 82.169221 
L 337.757773 82.239834 
L 338.238853 82.169221 
L 338.443384 82.098608 
L 341.080803 82.027995 
L 341.335805 81.886769 
L 342.402892 81.816156 
L 342.588465 81.745544 
L 343.625082 81.674931 
L 343.805431 81.604318 
L 344.341954 81.533705 
L 344.637136 81.321866 
L 345.625764 81.321866 
L 345.797876 81.110027 
L 346.423089 81.110027 
L 346.592025 80.968801 
L 347.205803 80.898188 
L 347.371678 80.827575 
L 349.628719 80.756962 
L 349.837583 80.615736 
L 350.968429 80.545123 
L 351.170859 80.403897 
L 352.414763 80.333284 
L 352.561626 80.262671 
L 353.766235 80.192058 
L 353.908532 80.121445 
L 354.426267 80.121445 
L 354.612989 79.909607 
L 354.659543 79.909607 
L 354.798899 79.768381 
L 355.716499 79.697768 
L 355.897677 79.556542 
L 356.525815 79.556542 
L 356.659222 79.415316 
L 357.494596 79.344703 
L 357.668402 79.27409 
L 358.949877 79.203477 
L 359.159767 79.062251 
L 359.742032 78.991638 
L 360.030215 78.709186 
L 362.229292 78.638573 
L 362.307164 78.56796 
L 362.346046 78.638573 
L 362.732939 78.56796 
L 362.88672 78.497347 
L 364.726933 78.426734 
L 364.873712 78.356121 
L 365.202132 78.285508 
L 365.34729 78.214896 
L 365.564106 78.144283 
L 365.708041 78.07367 
L 366.667117 78.003057 
L 366.807389 77.932444 
L 367.947381 77.861831 
L 368.083517 77.791218 
L 368.891345 77.720605 
L 368.991258 77.649992 
L 369.124112 77.720605 
L 369.157261 77.720605 
L 369.289601 77.508766 
L 370.269291 77.438153 
L 370.398235 77.36754 
L 370.462561 77.36754 
L 370.590924 77.226314 
L 370.718902 77.155701 
L 370.846498 77.085088 
L 371.822649 77.014475 
L 371.946994 76.943862 
L 372.868223 76.873249 
L 372.989566 76.802636 
L 373.561282 76.732023 
L 373.710471 76.66141 
L 375.145586 76.66141 
L 375.174378 76.520185 
L 375.260637 76.590798 
L 376.394417 76.590798 
L 376.506157 76.449572 
L 376.534046 76.520185 
L 376.617605 76.449572 
L 376.728764 76.449572 
L 376.867306 76.590798 
L 377.032967 76.449572 
L 377.335018 76.378959 
L 377.389708 76.308346 
L 377.444327 76.378959 
L 377.607769 76.449572 
L 377.770587 76.590798 
L 378.174938 76.66141 
L 378.335613 76.802636 
L 378.522306 76.732023 
L 378.734675 76.449572 
L 378.866871 76.449572 
L 378.99866 76.308346 
L 380.294652 76.237733 
L 380.49841 75.955281 
L 380.523811 76.025894 
L 380.549198 75.884668 
L 380.599925 75.955281 
L 380.776999 75.672829 
L 380.903032 75.743442 
L 381.128959 75.814055 
L 381.153989 75.884668 
L 381.179003 75.743442 
L 381.204003 75.743442 
L 381.25396 75.743442 
L 381.278916 75.602216 
L 381.378595 75.672829 
L 381.552477 75.602216 
L 381.577259 75.531603 
L 381.602027 75.672829 
L 381.700956 75.814055 
L 381.725653 75.743442 
L 381.848922 75.46099 
L 381.873533 75.602216 
L 381.922713 75.672829 
L 381.947281 75.743442 
L 381.971836 75.602216 
L 382.094397 75.46099 
L 382.216608 75.531603 
L 382.33847 75.531603 
L 382.484247 75.743442 
L 382.55695 75.672829 
L 382.653694 75.602216 
L 382.774317 75.672829 
L 382.918617 75.531603 
L 382.990584 75.672829 
L 383.014546 75.602216 
L 383.06243 75.531603 
L 383.110261 75.602216 
L 383.301049 75.531603 
L 383.396125 75.390377 
L 383.41986 75.602216 
L 383.514672 75.46099 
L 383.609274 75.46099 
L 383.750784 75.672829 
L 383.844865 75.743442 
L 383.891828 76.025894 
L 383.962175 75.884668 
L 384.12587 75.814055 
L 384.149204 75.743442 
L 384.172525 75.955281 
L 384.195834 75.884668 
L 384.28894 76.16712 
L 384.242412 75.814055 
L 384.312185 75.955281 
L 384.543942 77.155701 
L 384.567048 77.085088 
L 384.590143 77.36754 
L 384.636294 77.296927 
L 384.751453 76.802636 
L 384.774448 76.943862 
L 384.980845 77.649992 
L 384.843358 76.873249 
L 385.026576 77.36754 
L 385.049423 77.36754 
L 385.072258 77.508766 
L 385.117891 77.296927 
L 385.231761 76.943862 
L 385.254498 77.014475 
L 385.413324 77.36754 
L 385.435965 77.226314 
L 385.52641 76.943862 
L 385.548991 77.014475 
L 385.841468 77.932444 
L 385.863883 77.36754 
L 385.886287 78.003057 
L 385.931059 77.861831 
L 386.042784 78.285509 
L 385.975784 77.720605 
L 386.065095 78.214896 
L 386.131955 77.720605 
L 386.154218 77.932444 
L 386.17647 119.452864 
L 386.243157 83.228416 
L 386.287557 74.966699 
L 386.376218 75.178538 
L 386.530934 74.543022 
L 386.707069 74.754861 
L 386.794865 74.684248 
L 387.100737 74.048731 
L 387.187728 74.119344 
L 387.209448 74.048731 
L 387.252855 74.119344 
L 387.339537 73.978118 
L 387.426044 73.907505 
L 387.598533 73.625053 
L 387.663038 73.695666 
L 387.684517 73.55444 
L 387.920085 73.483827 
L 387.920085 73.483827 
" clip-path="url(#p75b5248142)" style="fill: none; stroke: #d62728; stroke-width: 1.5; stroke-linecap: square"/>
   </g>
   <g id="patch_3">
    <path d="M 47.032813 296.430125 
L 47.032813 30.318125 
" style="fill: none; stroke: #000000; stroke-width: 0.8; stroke-linejoin: miter; stroke-linecap: square"/>
   </g>
   <g id="patch_4">
    <path d="M 404.152812 296.430125 
L 404.152812 30.318125 
" style="fill: none; stroke: #000000; stroke-width: 0.8; stroke-linejoin: miter; stroke-linecap: square"/>
   </g>
   <g id="patch_5">
    <path d="M 47.032813 296.430125 
L 404.152813 296.430125 
" style="fill: none; stroke: #000000; stroke-width: 0.8; stroke-linejoin: miter; stroke-linecap: square"/>
   </g>
   <g id="patch_6">
    <path d="M 47.032813 30.318125 
L 404.152813 30.318125 
" style="fill: none; stroke: #000000; stroke-width: 0.8; stroke-linejoin: miter; stroke-linecap: square"/>
   </g>
   <g id="text_15">
    <!-- Accuracy per Epoch (3-Layer MLP on MNIST) -->
    <g transform="translate(75.891875 16.318125) scale(0.12 -0.12)">
     <defs>
      <path id="DejaVuSans-Bold-65" d="M 4031 1759 
L 4031 1441 
L 1416 1441 
Q 1456 1047 1700 850 
Q 1944 653 2381 653 
Q 2734 653 3104 758 
Q 3475 863 3866 1075 
L 3866 213 
Q 3469 63 3072 -14 
Q 2675 -91 2278 -91 
Q 1328 -91 801 392 
Q 275 875 275 1747 
Q 275 2603 792 3093 
Q 1309 3584 2216 3584 
Q 3041 3584 3536 3087 
Q 4031 2591 4031 1759 
z
M 2881 2131 
Q 2881 2450 2695 2645 
Q 2509 2841 2209 2841 
Q 1884 2841 1681 2658 
Q 1478 2475 1428 2131 
L 2881 2131 
z
" transform="scale(0.015625)"/>
      <path id="DejaVuSans-Bold-33" d="M 2981 2516 
Q 3453 2394 3698 2092 
Q 3944 1791 3944 1325 
Q 3944 631 3412 270 
Q 2881 -91 1863 -91 
Q 1503 -91 1142 -33 
Q 781 25 428 141 
L 428 1069 
Q 766 900 1098 814 
Q 1431 728 1753 728 
Q 2231 728 2486 893 
Q 2741 1059 2741 1369 
Q 2741 1688 2480 1852 
Q 2219 2016 1709 2016 
L 1228 2016 
L 1228 2791 
L 1734 2791 
Q 2188 2791 2409 2933 
Q 2631 3075 2631 3366 
Q 2631 3634 2415 3781 
Q 2200 3928 1806 3928 
Q 1516 3928 1219 3862 
Q 922 3797 628 3669 
L 628 4550 
Q 984 4650 1334 4700 
Q 1684 4750 2022 4750 
Q 2931 4750 3382 4451 
Q 3834 4153 3834 3553 
Q 3834 3144 3618 2883 
Q 3403 2622 2981 2516 
z
" transform="scale(0.015625)"/>
      <path id="DejaVuSans-Bold-2d" d="M 347 2297 
L 2309 2297 
L 2309 1388 
L 347 1388 
L 347 2297 
z
" transform="scale(0.015625)"/>
      <path id="DejaVuSans-Bold-4c" d="M 588 4666 
L 1791 4666 
L 1791 909 
L 3903 909 
L 3903 0 
L 588 0 
L 588 4666 
z
" transform="scale(0.015625)"/>
      <path id="DejaVuSans-Bold-4d" d="M 588 4666 
L 2119 4666 
L 3181 2169 
L 4250 4666 
L 5778 4666 
L 5778 0 
L 4641 0 
L 4641 3413 
L 3566 897 
L 2803 897 
L 1728 3413 
L 1728 0 
L 588 0 
L 588 4666 
z
" transform="scale(0.015625)"/>
      <path id="DejaVuSans-Bold-50" d="M 588 4666 
L 2584 4666 
Q 3475 4666 3951 4270 
Q 4428 3875 4428 3144 
Q 4428 2409 3951 2014 
Q 3475 1619 2584 1619 
L 1791 1619 
L 1791 0 
L 588 0 
L 588 4666 
z
M 1791 3794 
L 1791 2491 
L 2456 2491 
Q 2806 2491 2997 2661 
Q 3188 2831 3188 3144 
Q 3188 3456 2997 3625 
Q 2806 3794 2456 3794 
L 1791 3794 
z
" transform="scale(0.015625)"/>
      <path id="DejaVuSans-Bold-6e" d="M 4056 2131 
L 4056 0 
L 2931 0 
L 2931 347 
L 2931 1631 
Q 2931 2084 2911 2256 
Q 2891 2428 2841 2509 
Q 2775 2619 2662 2680 
Q 2550 2741 2406 2741 
Q 2056 2741 1856 2470 
Q 1656 2200 1656 1722 
L 1656 0 
L 538 0 
L 538 3500 
L 1656 3500 
L 1656 2988 
Q 1909 3294 2193 3439 
Q 2478 3584 2822 3584 
Q 3428 3584 3742 3212 
Q 4056 2841 4056 2131 
z
" transform="scale(0.015625)"/>
      <path id="DejaVuSans-Bold-4e" d="M 588 4666 
L 1931 4666 
L 3628 1466 
L 3628 4666 
L 4769 4666 
L 4769 0 
L 3425 0 
L 1728 3200 
L 1728 0 
L 588 0 
L 588 4666 
z
" transform="scale(0.015625)"/>
      <path id="DejaVuSans-Bold-49" d="M 588 4666 
L 1791 4666 
L 1791 0 
L 588 0 
L 588 4666 
z
" transform="scale(0.015625)"/>
      <path id="DejaVuSans-Bold-53" d="M 3834 4519 
L 3834 3531 
Q 3450 3703 3084 3790 
Q 2719 3878 2394 3878 
Q 1963 3878 1756 3759 
Q 1550 3641 1550 3391 
Q 1550 3203 1689 3098 
Q 1828 2994 2194 2919 
L 2706 2816 
Q 3484 2659 3812 2340 
Q 4141 2022 4141 1434 
Q 4141 663 3683 286 
Q 3225 -91 2284 -91 
Q 1841 -91 1394 -6 
Q 947 78 500 244 
L 500 1259 
Q 947 1022 1364 901 
Q 1781 781 2169 781 
Q 2563 781 2772 912 
Q 2981 1044 2981 1288 
Q 2981 1506 2839 1625 
Q 2697 1744 2272 1838 
L 1806 1941 
Q 1106 2091 782 2419 
Q 459 2747 459 3303 
Q 459 4000 909 4375 
Q 1359 4750 2203 4750 
Q 2588 4750 2994 4692 
Q 3400 4634 3834 4519 
z
" transform="scale(0.015625)"/>
      <path id="DejaVuSans-Bold-54" d="M 31 4666 
L 4331 4666 
L 4331 3756 
L 2784 3756 
L 2784 0 
L 1581 0 
L 1581 3756 
L 31 3756 
L 31 4666 
z
" transform="scale(0.015625)"/>
     </defs>
     <use xlink:href="#DejaVuSans-Bold-41"/>
     <use xlink:href="#DejaVuSans-Bold-63" transform="translate(77.392578 0)"/>
     <use xlink:href="#DejaVuSans-Bold-63" transform="translate(136.669922 0)"/>
     <use xlink:href="#DejaVuSans-Bold-75" transform="translate(195.947266 0)"/>
     <use xlink:href="#DejaVuSans-Bold-72" transform="translate(267.138672 0)"/>
     <use xlink:href="#DejaVuSans-Bold-61" transform="translate(316.455078 0)"/>
     <use xlink:href="#DejaVuSans-Bold-63" transform="translate(383.935547 0)"/>
     <use xlink:href="#DejaVuSans-Bold-79" transform="translate(443.212891 0)"/>
     <use xlink:href="#DejaVuSans-Bold-20" transform="translate(508.398438 0)"/>
     <use xlink:href="#DejaVuSans-Bold-70" transform="translate(543.212891 0)"/>
     <use xlink:href="#DejaVuSans-Bold-65" transform="translate(614.794922 0)"/>
     <use xlink:href="#DejaVuSans-Bold-72" transform="translate(682.617188 0)"/>
     <use xlink:href="#DejaVuSans-Bold-20" transform="translate(731.933594 0)"/>
     <use xlink:href="#DejaVuSans-Bold-45" transform="translate(766.748047 0)"/>
     <use xlink:href="#DejaVuSans-Bold-70" transform="translate(835.058594 0)"/>
     <use xlink:href="#DejaVuSans-Bold-6f" transform="translate(906.640625 0)"/>
     <use xlink:href="#DejaVuSans-Bold-63" transform="translate(975.341797 0)"/>
     <use xlink:href="#DejaVuSans-Bold-68" transform="translate(1034.619141 0)"/>
     <use xlink:href="#DejaVuSans-Bold-20" transform="translate(1105.810547 0)"/>
     <use xlink:href="#DejaVuSans-Bold-28" transform="translate(1140.625 0)"/>
     <use xlink:href="#DejaVuSans-Bold-33" transform="translate(1186.328125 0)"/>
     <use xlink:href="#DejaVuSans-Bold-2d" transform="translate(1255.908203 0)"/>
     <use xlink:href="#DejaVuSans-Bold-4c" transform="translate(1297.412109 0)"/>
     <use xlink:href="#DejaVuSans-Bold-61" transform="translate(1361.132812 0)"/>
     <use xlink:href="#DejaVuSans-Bold-79" transform="translate(1425.488281 0)"/>
     <use xlink:href="#DejaVuSans-Bold-65" transform="translate(1490.673828 0)"/>
     <use xlink:href="#DejaVuSans-Bold-72" transform="translate(1558.496094 0)"/>
     <use xlink:href="#DejaVuSans-Bold-20" transform="translate(1607.8125 0)"/>
     <use xlink:href="#DejaVuSans-Bold-4d" transform="translate(1642.626953 0)"/>
     <use xlink:href="#DejaVuSans-Bold-4c" transform="translate(1742.138672 0)"/>
     <use xlink:href="#DejaVuSans-Bold-50" transform="translate(1805.859375 0)"/>
     <use xlink:href="#DejaVuSans-Bold-20" transform="translate(1879.150391 0)"/>
     <use xlink:href="#DejaVuSans-Bold-6f" transform="translate(1913.964844 0)"/>
     <use xlink:href="#DejaVuSans-Bold-6e" transform="translate(1982.666016 0)"/>
     <use xlink:href="#DejaVuSans-Bold-20" transform="translate(2053.857422 0)"/>
     <use xlink:href="#DejaVuSans-Bold-4d" transform="translate(2088.671875 0)"/>
     <use xlink:href="#DejaVuSans-Bold-4e" transform="translate(2188.183594 0)"/>
     <use xlink:href="#DejaVuSans-Bold-49" transform="translate(2271.875 0)"/>
     <use xlink:href="#DejaVuSans-Bold-53" transform="translate(2309.082031 0)"/>
     <use xlink:href="#DejaVuSans-Bold-54" transform="translate(2381.103516 0)"/>
     <use xlink:href="#DejaVuSans-Bold-29" transform="translate(2449.316406 0)"/>
    </g>
   </g>
   <g id="legend_1">
    <g id="patch_7">
     <path d="M 254.077813 291.430125 
L 397.152813 291.430125 
Q 399.152813 291.430125 399.152813 289.430125 
L 399.152813 231.717625 
Q 399.152813 229.717625 397.152813 229.717625 
L 254.077813 229.717625 
Q 252.077813 229.717625 252.077813 231.717625 
L 252.077813 289.430125 
Q 252.077813 291.430125 254.077813 291.430125 
z
" style="fill: #ffffff; opacity: 0.8; stroke: #cccccc; stroke-linejoin: miter"/>
    </g>
    <g id="line2d_45">
     <path d="M 256.077813 237.816062 
L 266.077813 237.816062 
L 276.077813 237.816062 
" style="fill: none; stroke-dasharray: 5.55,2.4; stroke-dashoffset: 0; stroke: #2ca02c; stroke-width: 1.5"/>
    </g>
    <g id="text_16">
     <!-- Train (no scaling) -->
     <g transform="translate(284.077813 241.316062) scale(0.1 -0.1)">
      <defs>
       <path id="DejaVuSans-54" d="M -19 4666 
L 3928 4666 
L 3928 4134 
L 2272 4134 
L 2272 0 
L 1638 0 
L 1638 4134 
L -19 4134 
L -19 4666 
z
" transform="scale(0.015625)"/>
       <path id="DejaVuSans-72" d="M 2631 2963 
Q 2534 3019 2420 3045 
Q 2306 3072 2169 3072 
Q 1681 3072 1420 2755 
Q 1159 2438 1159 1844 
L 1159 0 
L 581 0 
L 581 3500 
L 1159 3500 
L 1159 2956 
Q 1341 3275 1631 3429 
Q 1922 3584 2338 3584 
Q 2397 3584 2469 3576 
Q 2541 3569 2628 3553 
L 2631 2963 
z
" transform="scale(0.015625)"/>
       <path id="DejaVuSans-61" d="M 2194 1759 
Q 1497 1759 1228 1600 
Q 959 1441 959 1056 
Q 959 750 1161 570 
Q 1363 391 1709 391 
Q 2188 391 2477 730 
Q 2766 1069 2766 1631 
L 2766 1759 
L 2194 1759 
z
M 3341 1997 
L 3341 0 
L 2766 0 
L 2766 531 
Q 2569 213 2275 61 
Q 1981 -91 1556 -91 
Q 1019 -91 701 211 
Q 384 513 384 1019 
Q 384 1609 779 1909 
Q 1175 2209 1959 2209 
L 2766 2209 
L 2766 2266 
Q 2766 2663 2505 2880 
Q 2244 3097 1772 3097 
Q 1472 3097 1187 3025 
Q 903 2953 641 2809 
L 641 3341 
Q 956 3463 1253 3523 
Q 1550 3584 1831 3584 
Q 2591 3584 2966 3190 
Q 3341 2797 3341 1997 
z
" transform="scale(0.015625)"/>
       <path id="DejaVuSans-69" d="M 603 3500 
L 1178 3500 
L 1178 0 
L 603 0 
L 603 3500 
z
M 603 4863 
L 1178 4863 
L 1178 4134 
L 603 4134 
L 603 4863 
z
" transform="scale(0.015625)"/>
       <path id="DejaVuSans-6e" d="M 3513 2113 
L 3513 0 
L 2938 0 
L 2938 2094 
Q 2938 2591 2744 2837 
Q 2550 3084 2163 3084 
Q 1697 3084 1428 2787 
Q 1159 2491 1159 1978 
L 1159 0 
L 581 0 
L 581 3500 
L 1159 3500 
L 1159 2956 
Q 1366 3272 1645 3428 
Q 1925 3584 2291 3584 
Q 2894 3584 3203 3211 
Q 3513 2838 3513 2113 
z
" transform="scale(0.015625)"/>
       <path id="DejaVuSans-20" transform="scale(0.015625)"/>
       <path id="DejaVuSans-28" d="M 1984 4856 
Q 1566 4138 1362 3434 
Q 1159 2731 1159 2009 
Q 1159 1288 1364 580 
Q 1569 -128 1984 -844 
L 1484 -844 
Q 1016 -109 783 600 
Q 550 1309 550 2009 
Q 550 2706 781 3412 
Q 1013 4119 1484 4856 
L 1984 4856 
z
" transform="scale(0.015625)"/>
       <path id="DejaVuSans-6f" d="M 1959 3097 
Q 1497 3097 1228 2736 
Q 959 2375 959 1747 
Q 959 1119 1226 758 
Q 1494 397 1959 397 
Q 2419 397 2687 759 
Q 2956 1122 2956 1747 
Q 2956 2369 2687 2733 
Q 2419 3097 1959 3097 
z
M 1959 3584 
Q 2709 3584 3137 3096 
Q 3566 2609 3566 1747 
Q 3566 888 3137 398 
Q 2709 -91 1959 -91 
Q 1206 -91 779 398 
Q 353 888 353 1747 
Q 353 2609 779 3096 
Q 1206 3584 1959 3584 
z
" transform="scale(0.015625)"/>
       <path id="DejaVuSans-73" d="M 2834 3397 
L 2834 2853 
Q 2591 2978 2328 3040 
Q 2066 3103 1784 3103 
Q 1356 3103 1142 2972 
Q 928 2841 928 2578 
Q 928 2378 1081 2264 
Q 1234 2150 1697 2047 
L 1894 2003 
Q 2506 1872 2764 1633 
Q 3022 1394 3022 966 
Q 3022 478 2636 193 
Q 2250 -91 1575 -91 
Q 1294 -91 989 -36 
Q 684 19 347 128 
L 347 722 
Q 666 556 975 473 
Q 1284 391 1588 391 
Q 1994 391 2212 530 
Q 2431 669 2431 922 
Q 2431 1156 2273 1281 
Q 2116 1406 1581 1522 
L 1381 1569 
Q 847 1681 609 1914 
Q 372 2147 372 2553 
Q 372 3047 722 3315 
Q 1072 3584 1716 3584 
Q 2034 3584 2315 3537 
Q 2597 3491 2834 3397 
z
" transform="scale(0.015625)"/>
       <path id="DejaVuSans-63" d="M 3122 3366 
L 3122 2828 
Q 2878 2963 2633 3030 
Q 2388 3097 2138 3097 
Q 1578 3097 1268 2742 
Q 959 2388 959 1747 
Q 959 1106 1268 751 
Q 1578 397 2138 397 
Q 2388 397 2633 464 
Q 2878 531 3122 666 
L 3122 134 
Q 2881 22 2623 -34 
Q 2366 -91 2075 -91 
Q 1284 -91 818 406 
Q 353 903 353 1747 
Q 353 2603 823 3093 
Q 1294 3584 2113 3584 
Q 2378 3584 2631 3529 
Q 2884 3475 3122 3366 
z
" transform="scale(0.015625)"/>
       <path id="DejaVuSans-6c" d="M 603 4863 
L 1178 4863 
L 1178 0 
L 603 0 
L 603 4863 
z
" transform="scale(0.015625)"/>
       <path id="DejaVuSans-67" d="M 2906 1791 
Q 2906 2416 2648 2759 
Q 2391 3103 1925 3103 
Q 1463 3103 1205 2759 
Q 947 2416 947 1791 
Q 947 1169 1205 825 
Q 1463 481 1925 481 
Q 2391 481 2648 825 
Q 2906 1169 2906 1791 
z
M 3481 434 
Q 3481 -459 3084 -895 
Q 2688 -1331 1869 -1331 
Q 1566 -1331 1297 -1286 
Q 1028 -1241 775 -1147 
L 775 -588 
Q 1028 -725 1275 -790 
Q 1522 -856 1778 -856 
Q 2344 -856 2625 -561 
Q 2906 -266 2906 331 
L 2906 616 
Q 2728 306 2450 153 
Q 2172 0 1784 0 
Q 1141 0 747 490 
Q 353 981 353 1791 
Q 353 2603 747 3093 
Q 1141 3584 1784 3584 
Q 2172 3584 2450 3431 
Q 2728 3278 2906 2969 
L 2906 3500 
L 3481 3500 
L 3481 434 
z
" transform="scale(0.015625)"/>
       <path id="DejaVuSans-29" d="M 513 4856 
L 1013 4856 
Q 1481 4119 1714 3412 
Q 1947 2706 1947 2009 
Q 1947 1309 1714 600 
Q 1481 -109 1013 -844 
L 513 -844 
Q 928 -128 1133 580 
Q 1338 1288 1338 2009 
Q 1338 2731 1133 3434 
Q 928 4138 513 4856 
z
" transform="scale(0.015625)"/>
      </defs>
      <use xlink:href="#DejaVuSans-54"/>
      <use xlink:href="#DejaVuSans-72" transform="translate(46.333984 0)"/>
      <use xlink:href="#DejaVuSans-61" transform="translate(87.447266 0)"/>
      <use xlink:href="#DejaVuSans-69" transform="translate(148.726562 0)"/>
      <use xlink:href="#DejaVuSans-6e" transform="translate(176.509766 0)"/>
      <use xlink:href="#DejaVuSans-20" transform="translate(239.888672 0)"/>
      <use xlink:href="#DejaVuSans-28" transform="translate(271.675781 0)"/>
      <use xlink:href="#DejaVuSans-6e" transform="translate(310.689453 0)"/>
      <use xlink:href="#DejaVuSans-6f" transform="translate(374.068359 0)"/>
      <use xlink:href="#DejaVuSans-20" transform="translate(435.25 0)"/>
      <use xlink:href="#DejaVuSans-73" transform="translate(467.037109 0)"/>
      <use xlink:href="#DejaVuSans-63" transform="translate(519.136719 0)"/>
      <use xlink:href="#DejaVuSans-61" transform="translate(574.117188 0)"/>
      <use xlink:href="#DejaVuSans-6c" transform="translate(635.396484 0)"/>
      <use xlink:href="#DejaVuSans-69" transform="translate(663.179688 0)"/>
      <use xlink:href="#DejaVuSans-6e" transform="translate(690.962891 0)"/>
      <use xlink:href="#DejaVuSans-67" transform="translate(754.341797 0)"/>
      <use xlink:href="#DejaVuSans-29" transform="translate(817.818359 0)"/>
     </g>
    </g>
    <g id="line2d_46">
     <path d="M 256.077813 252.494187 
L 266.077813 252.494187 
L 276.077813 252.494187 
" style="fill: none; stroke: #2ca02c; stroke-width: 1.5; stroke-linecap: square"/>
    </g>
    <g id="text_17">
     <!-- Validation (no scaling) -->
     <g transform="translate(284.077813 255.994187) scale(0.1 -0.1)">
      <defs>
       <path id="DejaVuSans-56" d="M 1831 0 
L 50 4666 
L 709 4666 
L 2188 738 
L 3669 4666 
L 4325 4666 
L 2547 0 
L 1831 0 
z
" transform="scale(0.015625)"/>
       <path id="DejaVuSans-64" d="M 2906 2969 
L 2906 4863 
L 3481 4863 
L 3481 0 
L 2906 0 
L 2906 525 
Q 2725 213 2448 61 
Q 2172 -91 1784 -91 
Q 1150 -91 751 415 
Q 353 922 353 1747 
Q 353 2572 751 3078 
Q 1150 3584 1784 3584 
Q 2172 3584 2448 3432 
Q 2725 3281 2906 2969 
z
M 947 1747 
Q 947 1113 1208 752 
Q 1469 391 1925 391 
Q 2381 391 2643 752 
Q 2906 1113 2906 1747 
Q 2906 2381 2643 2742 
Q 2381 3103 1925 3103 
Q 1469 3103 1208 2742 
Q 947 2381 947 1747 
z
" transform="scale(0.015625)"/>
       <path id="DejaVuSans-74" d="M 1172 4494 
L 1172 3500 
L 2356 3500 
L 2356 3053 
L 1172 3053 
L 1172 1153 
Q 1172 725 1289 603 
Q 1406 481 1766 481 
L 2356 481 
L 2356 0 
L 1766 0 
Q 1100 0 847 248 
Q 594 497 594 1153 
L 594 3053 
L 172 3053 
L 172 3500 
L 594 3500 
L 594 4494 
L 1172 4494 
z
" transform="scale(0.015625)"/>
      </defs>
      <use xlink:href="#DejaVuSans-56"/>
      <use xlink:href="#DejaVuSans-61" transform="translate(60.658203 0)"/>
      <use xlink:href="#DejaVuSans-6c" transform="translate(121.9375 0)"/>
      <use xlink:href="#DejaVuSans-69" transform="translate(149.720703 0)"/>
      <use xlink:href="#DejaVuSans-64" transform="translate(177.503906 0)"/>
      <use xlink:href="#DejaVuSans-61" transform="translate(240.980469 0)"/>
      <use xlink:href="#DejaVuSans-74" transform="translate(302.259766 0)"/>
      <use xlink:href="#DejaVuSans-69" transform="translate(341.46875 0)"/>
      <use xlink:href="#DejaVuSans-6f" transform="translate(369.251953 0)"/>
      <use xlink:href="#DejaVuSans-6e" transform="translate(430.433594 0)"/>
      <use xlink:href="#DejaVuSans-20" transform="translate(493.8125 0)"/>
      <use xlink:href="#DejaVuSans-28" transform="translate(525.599609 0)"/>
      <use xlink:href="#DejaVuSans-6e" transform="translate(564.613281 0)"/>
      <use xlink:href="#DejaVuSans-6f" transform="translate(627.992188 0)"/>
      <use xlink:href="#DejaVuSans-20" transform="translate(689.173828 0)"/>
      <use xlink:href="#DejaVuSans-73" transform="translate(720.960938 0)"/>
      <use xlink:href="#DejaVuSans-63" transform="translate(773.060547 0)"/>
      <use xlink:href="#DejaVuSans-61" transform="translate(828.041016 0)"/>
      <use xlink:href="#DejaVuSans-6c" transform="translate(889.320312 0)"/>
      <use xlink:href="#DejaVuSans-69" transform="translate(917.103516 0)"/>
      <use xlink:href="#DejaVuSans-6e" transform="translate(944.886719 0)"/>
      <use xlink:href="#DejaVuSans-67" transform="translate(1008.265625 0)"/>
      <use xlink:href="#DejaVuSans-29" transform="translate(1071.742188 0)"/>
     </g>
    </g>
    <g id="line2d_47">
     <path d="M 256.077813 267.172312 
L 266.077813 267.172312 
L 276.077813 267.172312 
" style="fill: none; stroke-dasharray: 5.55,2.4; stroke-dashoffset: 0; stroke: #d62728; stroke-width: 1.5"/>
    </g>
    <g id="text_18">
     <!-- Train (CE loss) -->
     <g transform="translate(284.077813 270.672312) scale(0.1 -0.1)">
      <defs>
       <path id="DejaVuSans-43" d="M 4122 4306 
L 4122 3641 
Q 3803 3938 3442 4084 
Q 3081 4231 2675 4231 
Q 1875 4231 1450 3742 
Q 1025 3253 1025 2328 
Q 1025 1406 1450 917 
Q 1875 428 2675 428 
Q 3081 428 3442 575 
Q 3803 722 4122 1019 
L 4122 359 
Q 3791 134 3420 21 
Q 3050 -91 2638 -91 
Q 1578 -91 968 557 
Q 359 1206 359 2328 
Q 359 3453 968 4101 
Q 1578 4750 2638 4750 
Q 3056 4750 3426 4639 
Q 3797 4528 4122 4306 
z
" transform="scale(0.015625)"/>
       <path id="DejaVuSans-45" d="M 628 4666 
L 3578 4666 
L 3578 4134 
L 1259 4134 
L 1259 2753 
L 3481 2753 
L 3481 2222 
L 1259 2222 
L 1259 531 
L 3634 531 
L 3634 0 
L 628 0 
L 628 4666 
z
" transform="scale(0.015625)"/>
      </defs>
      <use xlink:href="#DejaVuSans-54"/>
      <use xlink:href="#DejaVuSans-72" transform="translate(46.333984 0)"/>
      <use xlink:href="#DejaVuSans-61" transform="translate(87.447266 0)"/>
      <use xlink:href="#DejaVuSans-69" transform="translate(148.726562 0)"/>
      <use xlink:href="#DejaVuSans-6e" transform="translate(176.509766 0)"/>
      <use xlink:href="#DejaVuSans-20" transform="translate(239.888672 0)"/>
      <use xlink:href="#DejaVuSans-28" transform="translate(271.675781 0)"/>
      <use xlink:href="#DejaVuSans-43" transform="translate(310.689453 0)"/>
      <use xlink:href="#DejaVuSans-45" transform="translate(380.513672 0)"/>
      <use xlink:href="#DejaVuSans-20" transform="translate(443.697266 0)"/>
      <use xlink:href="#DejaVuSans-6c" transform="translate(475.484375 0)"/>
      <use xlink:href="#DejaVuSans-6f" transform="translate(503.267578 0)"/>
      <use xlink:href="#DejaVuSans-73" transform="translate(564.449219 0)"/>
      <use xlink:href="#DejaVuSans-73" transform="translate(616.548828 0)"/>
      <use xlink:href="#DejaVuSans-29" transform="translate(668.648438 0)"/>
     </g>
    </g>
    <g id="line2d_48">
     <path d="M 256.077813 281.850437 
L 266.077813 281.850437 
L 276.077813 281.850437 
" style="fill: none; stroke: #d62728; stroke-width: 1.5; stroke-linecap: square"/>
    </g>
    <g id="text_19">
     <!-- Validation (CE loss) -->
     <g transform="translate(284.077813 285.350437) scale(0.1 -0.1)">
      <use xlink:href="#DejaVuSans-56"/>
      <use xlink:href="#DejaVuSans-61" transform="translate(60.658203 0)"/>
      <use xlink:href="#DejaVuSans-6c" transform="translate(121.9375 0)"/>
      <use xlink:href="#DejaVuSans-69" transform="translate(149.720703 0)"/>
      <use xlink:href="#DejaVuSans-64" transform="translate(177.503906 0)"/>
      <use xlink:href="#DejaVuSans-61" transform="translate(240.980469 0)"/>
      <use xlink:href="#DejaVuSans-74" transform="translate(302.259766 0)"/>
      <use xlink:href="#DejaVuSans-69" transform="translate(341.46875 0)"/>
      <use xlink:href="#DejaVuSans-6f" transform="translate(369.251953 0)"/>
      <use xlink:href="#DejaVuSans-6e" transform="translate(430.433594 0)"/>
      <use xlink:href="#DejaVuSans-20" transform="translate(493.8125 0)"/>
      <use xlink:href="#DejaVuSans-28" transform="translate(525.599609 0)"/>
      <use xlink:href="#DejaVuSans-43" transform="translate(564.613281 0)"/>
      <use xlink:href="#DejaVuSans-45" transform="translate(634.4375 0)"/>
      <use xlink:href="#DejaVuSans-20" transform="translate(697.621094 0)"/>
      <use xlink:href="#DejaVuSans-6c" transform="translate(729.408203 0)"/>
      <use xlink:href="#DejaVuSans-6f" transform="translate(757.191406 0)"/>
      <use xlink:href="#DejaVuSans-73" transform="translate(818.373047 0)"/>
      <use xlink:href="#DejaVuSans-73" transform="translate(870.472656 0)"/>
      <use xlink:href="#DejaVuSans-29" transform="translate(922.572266 0)"/>
     </g>
    </g>
   </g>
  </g>
 </g>
 <defs>
  <clipPath id="p75b5248142">
   <rect x="47.032813" y="30.318125" width="357.12" height="266.112"/>
  </clipPath>
 </defs>
</svg>
