<?xml version="1.0" encoding="utf-8" standalone="no"?>
<!DOCTYPE svg PUBLIC "-//W3C//DTD SVG 1.1//EN"
  "http://www.w3.org/Graphics/SVG/1.1/DTD/svg11.dtd">
<svg xmlns:xlink="http://www.w3.org/1999/xlink" width="411.352812pt" height="333.986375pt" viewBox="0 0 411.352812 333.986375" xmlns="http://www.w3.org/2000/svg" version="1.1">
 <metadata>
  <rdf:RDF xmlns:dc="http://purl.org/dc/elements/1.1/" xmlns:cc="http://creativecommons.org/ns#" xmlns:rdf="http://www.w3.org/1999/02/22-rdf-syntax-ns#">
   <cc:Work>
    <dc:type rdf:resource="http://purl.org/dc/dcmitype/StillImage"/>
    <dc:date>2025-11-26T12:46:23.524426</dc:date>
    <dc:format>image/svg+xml</dc:format>
    <dc:creator>
     <cc:Agent>
      <dc:title>Matplotlib v3.10.7, https://matplotlib.org/</dc:title>
     </cc:Agent>
    </dc:creator>
   </cc:Work>
  </rdf:RDF>
 </metadata>
 <defs>
  <style type="text/css">*{stroke-linejoin: round; stroke-linecap: butt}</style>
 </defs>
 <g id="figure_1">
  <g id="patch_1">
   <path d="M 0 333.986375 
L 411.352812 333.986375 
L 411.352812 0 
L 0 0 
z
" style="fill: #ffffff"/>
  </g>
  <g id="axes_1">
   <g id="patch_2">
    <path d="M 47.032813 296.430125 
L 404.152812 296.430125 
L 404.152812 30.318125 
L 47.032813 30.318125 
z
" style="fill: #ffffff"/>
   </g>
   <g id="matplotlib.axis_1">
    <g id="xtick_1">
     <g id="line2d_1">
      <defs>
       <path id="m953a799b86" d="M 0 0 
L 0 3.5 
" style="stroke: #000000; stroke-width: 0.8"/>
      </defs>
      <g>
       <use xlink:href="#m953a799b86" x="63.26554" y="296.430125" style="stroke: #000000; stroke-width: 0.8"/>
      </g>
     </g>
     <g id="text_1">
      <!-- $\mathdefault{10^{0}}$ -->
      <g transform="translate(54.46554 311.028562) scale(0.1 -0.1)">
       <defs>
        <path id="DejaVuSans-31" d="M 794 531 
L 1825 531 
L 1825 4091 
L 703 3866 
L 703 4441 
L 1819 4666 
L 2450 4666 
L 2450 531 
L 3481 531 
L 3481 0 
L 794 0 
L 794 531 
z
" transform="scale(0.015625)"/>
        <path id="DejaVuSans-30" d="M 2034 4250 
Q 1547 4250 1301 3770 
Q 1056 3291 1056 2328 
Q 1056 1369 1301 889 
Q 1547 409 2034 409 
Q 2525 409 2770 889 
Q 3016 1369 3016 2328 
Q 3016 3291 2770 3770 
Q 2525 4250 2034 4250 
z
M 2034 4750 
Q 2819 4750 3233 4129 
Q 3647 3509 3647 2328 
Q 3647 1150 3233 529 
Q 2819 -91 2034 -91 
Q 1250 -91 836 529 
Q 422 1150 422 2328 
Q 422 3509 836 4129 
Q 1250 4750 2034 4750 
z
" transform="scale(0.015625)"/>
       </defs>
       <use xlink:href="#DejaVuSans-31" transform="translate(0 0.765625)"/>
       <use xlink:href="#DejaVuSans-30" transform="translate(63.623047 0.765625)"/>
       <use xlink:href="#DejaVuSans-30" transform="translate(128.203125 39.046875) scale(0.7)"/>
      </g>
     </g>
    </g>
    <g id="xtick_2">
     <g id="line2d_2">
      <g>
       <use xlink:href="#m953a799b86" x="161.615008" y="296.430125" style="stroke: #000000; stroke-width: 0.8"/>
      </g>
     </g>
     <g id="text_2">
      <!-- $\mathdefault{10^{1}}$ -->
      <g transform="translate(152.815008 311.028562) scale(0.1 -0.1)">
       <use xlink:href="#DejaVuSans-31" transform="translate(0 0.684375)"/>
       <use xlink:href="#DejaVuSans-30" transform="translate(63.623047 0.684375)"/>
       <use xlink:href="#DejaVuSans-31" transform="translate(128.203125 38.965625) scale(0.7)"/>
      </g>
     </g>
    </g>
    <g id="xtick_3">
     <g id="line2d_3">
      <g>
       <use xlink:href="#m953a799b86" x="259.964477" y="296.430125" style="stroke: #000000; stroke-width: 0.8"/>
      </g>
     </g>
     <g id="text_3">
      <!-- $\mathdefault{10^{2}}$ -->
      <g transform="translate(251.164477 311.028562) scale(0.1 -0.1)">
       <defs>
        <path id="DejaVuSans-32" d="M 1228 531 
L 3431 531 
L 3431 0 
L 469 0 
L 469 531 
Q 828 903 1448 1529 
Q 2069 2156 2228 2338 
Q 2531 2678 2651 2914 
Q 2772 3150 2772 3378 
Q 2772 3750 2511 3984 
Q 2250 4219 1831 4219 
Q 1534 4219 1204 4116 
Q 875 4013 500 3803 
L 500 4441 
Q 881 4594 1212 4672 
Q 1544 4750 1819 4750 
Q 2544 4750 2975 4387 
Q 3406 4025 3406 3419 
Q 3406 3131 3298 2873 
Q 3191 2616 2906 2266 
Q 2828 2175 2409 1742 
Q 1991 1309 1228 531 
z
" transform="scale(0.015625)"/>
       </defs>
       <use xlink:href="#DejaVuSans-31" transform="translate(0 0.765625)"/>
       <use xlink:href="#DejaVuSans-30" transform="translate(63.623047 0.765625)"/>
       <use xlink:href="#DejaVuSans-32" transform="translate(128.203125 39.046875) scale(0.7)"/>
      </g>
     </g>
    </g>
    <g id="xtick_4">
     <g id="line2d_4">
      <g>
       <use xlink:href="#m953a799b86" x="358.313945" y="296.430125" style="stroke: #000000; stroke-width: 0.8"/>
      </g>
     </g>
     <g id="text_4">
      <!-- $\mathdefault{10^{3}}$ -->
      <g transform="translate(349.513945 311.028562) scale(0.1 -0.1)">
       <defs>
        <path id="DejaVuSans-33" d="M 2597 2516 
Q 3050 2419 3304 2112 
Q 3559 1806 3559 1356 
Q 3559 666 3084 287 
Q 2609 -91 1734 -91 
Q 1441 -91 1130 -33 
Q 819 25 488 141 
L 488 750 
Q 750 597 1062 519 
Q 1375 441 1716 441 
Q 2309 441 2620 675 
Q 2931 909 2931 1356 
Q 2931 1769 2642 2001 
Q 2353 2234 1838 2234 
L 1294 2234 
L 1294 2753 
L 1863 2753 
Q 2328 2753 2575 2939 
Q 2822 3125 2822 3475 
Q 2822 3834 2567 4026 
Q 2313 4219 1838 4219 
Q 1578 4219 1281 4162 
Q 984 4106 628 3988 
L 628 4550 
Q 988 4650 1302 4700 
Q 1616 4750 1894 4750 
Q 2613 4750 3031 4423 
Q 3450 4097 3450 3541 
Q 3450 3153 3228 2886 
Q 3006 2619 2597 2516 
z
" transform="scale(0.015625)"/>
       </defs>
       <use xlink:href="#DejaVuSans-31" transform="translate(0 0.765625)"/>
       <use xlink:href="#DejaVuSans-30" transform="translate(63.623047 0.765625)"/>
       <use xlink:href="#DejaVuSans-33" transform="translate(128.203125 39.046875) scale(0.7)"/>
      </g>
     </g>
    </g>
    <g id="xtick_5">
     <g id="line2d_5">
      <defs>
       <path id="m6b02ce75c0" d="M 0 0 
L 0 2 
" style="stroke: #000000; stroke-width: 0.6"/>
      </defs>
      <g>
       <use xlink:href="#m6b02ce75c0" x="48.031014" y="296.430125" style="stroke: #000000; stroke-width: 0.6"/>
      </g>
     </g>
    </g>
    <g id="xtick_6">
     <g id="line2d_6">
      <g>
       <use xlink:href="#m6b02ce75c0" x="53.734492" y="296.430125" style="stroke: #000000; stroke-width: 0.6"/>
      </g>
     </g>
    </g>
    <g id="xtick_7">
     <g id="line2d_7">
      <g>
       <use xlink:href="#m6b02ce75c0" x="58.765315" y="296.430125" style="stroke: #000000; stroke-width: 0.6"/>
      </g>
     </g>
    </g>
    <g id="xtick_8">
     <g id="line2d_8">
      <g>
       <use xlink:href="#m6b02ce75c0" x="92.87168" y="296.430125" style="stroke: #000000; stroke-width: 0.6"/>
      </g>
     </g>
    </g>
    <g id="xtick_9">
     <g id="line2d_9">
      <g>
       <use xlink:href="#m6b02ce75c0" x="110.190162" y="296.430125" style="stroke: #000000; stroke-width: 0.6"/>
      </g>
     </g>
    </g>
    <g id="xtick_10">
     <g id="line2d_10">
      <g>
       <use xlink:href="#m6b02ce75c0" x="122.47782" y="296.430125" style="stroke: #000000; stroke-width: 0.6"/>
      </g>
     </g>
    </g>
    <g id="xtick_11">
     <g id="line2d_11">
      <g>
       <use xlink:href="#m6b02ce75c0" x="132.008868" y="296.430125" style="stroke: #000000; stroke-width: 0.6"/>
      </g>
     </g>
    </g>
    <g id="xtick_12">
     <g id="line2d_12">
      <g>
       <use xlink:href="#m6b02ce75c0" x="139.796302" y="296.430125" style="stroke: #000000; stroke-width: 0.6"/>
      </g>
     </g>
    </g>
    <g id="xtick_13">
     <g id="line2d_13">
      <g>
       <use xlink:href="#m6b02ce75c0" x="146.380483" y="296.430125" style="stroke: #000000; stroke-width: 0.6"/>
      </g>
     </g>
    </g>
    <g id="xtick_14">
     <g id="line2d_14">
      <g>
       <use xlink:href="#m6b02ce75c0" x="152.08396" y="296.430125" style="stroke: #000000; stroke-width: 0.6"/>
      </g>
     </g>
    </g>
    <g id="xtick_15">
     <g id="line2d_15">
      <g>
       <use xlink:href="#m6b02ce75c0" x="157.114783" y="296.430125" style="stroke: #000000; stroke-width: 0.6"/>
      </g>
     </g>
    </g>
    <g id="xtick_16">
     <g id="line2d_16">
      <g>
       <use xlink:href="#m6b02ce75c0" x="191.221148" y="296.430125" style="stroke: #000000; stroke-width: 0.6"/>
      </g>
     </g>
    </g>
    <g id="xtick_17">
     <g id="line2d_17">
      <g>
       <use xlink:href="#m6b02ce75c0" x="208.53963" y="296.430125" style="stroke: #000000; stroke-width: 0.6"/>
      </g>
     </g>
    </g>
    <g id="xtick_18">
     <g id="line2d_18">
      <g>
       <use xlink:href="#m6b02ce75c0" x="220.827288" y="296.430125" style="stroke: #000000; stroke-width: 0.6"/>
      </g>
     </g>
    </g>
    <g id="xtick_19">
     <g id="line2d_19">
      <g>
       <use xlink:href="#m6b02ce75c0" x="230.358337" y="296.430125" style="stroke: #000000; stroke-width: 0.6"/>
      </g>
     </g>
    </g>
    <g id="xtick_20">
     <g id="line2d_20">
      <g>
       <use xlink:href="#m6b02ce75c0" x="238.14577" y="296.430125" style="stroke: #000000; stroke-width: 0.6"/>
      </g>
     </g>
    </g>
    <g id="xtick_21">
     <g id="line2d_21">
      <g>
       <use xlink:href="#m6b02ce75c0" x="244.729951" y="296.430125" style="stroke: #000000; stroke-width: 0.6"/>
      </g>
     </g>
    </g>
    <g id="xtick_22">
     <g id="line2d_22">
      <g>
       <use xlink:href="#m6b02ce75c0" x="250.433428" y="296.430125" style="stroke: #000000; stroke-width: 0.6"/>
      </g>
     </g>
    </g>
    <g id="xtick_23">
     <g id="line2d_23">
      <g>
       <use xlink:href="#m6b02ce75c0" x="255.464252" y="296.430125" style="stroke: #000000; stroke-width: 0.6"/>
      </g>
     </g>
    </g>
    <g id="xtick_24">
     <g id="line2d_24">
      <g>
       <use xlink:href="#m6b02ce75c0" x="289.570617" y="296.430125" style="stroke: #000000; stroke-width: 0.6"/>
      </g>
     </g>
    </g>
    <g id="xtick_25">
     <g id="line2d_25">
      <g>
       <use xlink:href="#m6b02ce75c0" x="306.889098" y="296.430125" style="stroke: #000000; stroke-width: 0.6"/>
      </g>
     </g>
    </g>
    <g id="xtick_26">
     <g id="line2d_26">
      <g>
       <use xlink:href="#m6b02ce75c0" x="319.176757" y="296.430125" style="stroke: #000000; stroke-width: 0.6"/>
      </g>
     </g>
    </g>
    <g id="xtick_27">
     <g id="line2d_27">
      <g>
       <use xlink:href="#m6b02ce75c0" x="328.707805" y="296.430125" style="stroke: #000000; stroke-width: 0.6"/>
      </g>
     </g>
    </g>
    <g id="xtick_28">
     <g id="line2d_28">
      <g>
       <use xlink:href="#m6b02ce75c0" x="336.495239" y="296.430125" style="stroke: #000000; stroke-width: 0.6"/>
      </g>
     </g>
    </g>
    <g id="xtick_29">
     <g id="line2d_29">
      <g>
       <use xlink:href="#m6b02ce75c0" x="343.07942" y="296.430125" style="stroke: #000000; stroke-width: 0.6"/>
      </g>
     </g>
    </g>
    <g id="xtick_30">
     <g id="line2d_30">
      <g>
       <use xlink:href="#m6b02ce75c0" x="348.782897" y="296.430125" style="stroke: #000000; stroke-width: 0.6"/>
      </g>
     </g>
    </g>
    <g id="xtick_31">
     <g id="line2d_31">
      <g>
       <use xlink:href="#m6b02ce75c0" x="353.81372" y="296.430125" style="stroke: #000000; stroke-width: 0.6"/>
      </g>
     </g>
    </g>
    <g id="xtick_32">
     <g id="line2d_32">
      <g>
       <use xlink:href="#m6b02ce75c0" x="387.920085" y="296.430125" style="stroke: #000000; stroke-width: 0.6"/>
      </g>
     </g>
    </g>
    <g id="text_5">
     <!-- Epoch -->
     <g transform="translate(208.639688 324.706687) scale(0.1 -0.1)">
      <defs>
       <path id="DejaVuSans-Bold-45" d="M 588 4666 
L 3834 4666 
L 3834 3756 
L 1791 3756 
L 1791 2888 
L 3713 2888 
L 3713 1978 
L 1791 1978 
L 1791 909 
L 3903 909 
L 3903 0 
L 588 0 
L 588 4666 
z
" transform="scale(0.015625)"/>
       <path id="DejaVuSans-Bold-70" d="M 1656 506 
L 1656 -1331 
L 538 -1331 
L 538 3500 
L 1656 3500 
L 1656 2988 
Q 1888 3294 2169 3439 
Q 2450 3584 2816 3584 
Q 3463 3584 3878 3070 
Q 4294 2556 4294 1747 
Q 4294 938 3878 423 
Q 3463 -91 2816 -91 
Q 2450 -91 2169 54 
Q 1888 200 1656 506 
z
M 2400 2772 
Q 2041 2772 1848 2508 
Q 1656 2244 1656 1747 
Q 1656 1250 1848 986 
Q 2041 722 2400 722 
Q 2759 722 2948 984 
Q 3138 1247 3138 1747 
Q 3138 2247 2948 2509 
Q 2759 2772 2400 2772 
z
" transform="scale(0.015625)"/>
       <path id="DejaVuSans-Bold-6f" d="M 2203 2784 
Q 1831 2784 1636 2517 
Q 1441 2250 1441 1747 
Q 1441 1244 1636 976 
Q 1831 709 2203 709 
Q 2569 709 2762 976 
Q 2956 1244 2956 1747 
Q 2956 2250 2762 2517 
Q 2569 2784 2203 2784 
z
M 2203 3584 
Q 3106 3584 3614 3096 
Q 4122 2609 4122 1747 
Q 4122 884 3614 396 
Q 3106 -91 2203 -91 
Q 1297 -91 786 396 
Q 275 884 275 1747 
Q 275 2609 786 3096 
Q 1297 3584 2203 3584 
z
" transform="scale(0.015625)"/>
       <path id="DejaVuSans-Bold-63" d="M 3366 3391 
L 3366 2478 
Q 3138 2634 2908 2709 
Q 2678 2784 2431 2784 
Q 1963 2784 1702 2511 
Q 1441 2238 1441 1747 
Q 1441 1256 1702 982 
Q 1963 709 2431 709 
Q 2694 709 2930 787 
Q 3166 866 3366 1019 
L 3366 103 
Q 3103 6 2833 -42 
Q 2563 -91 2291 -91 
Q 1344 -91 809 395 
Q 275 881 275 1747 
Q 275 2613 809 3098 
Q 1344 3584 2291 3584 
Q 2566 3584 2833 3536 
Q 3100 3488 3366 3391 
z
" transform="scale(0.015625)"/>
       <path id="DejaVuSans-Bold-68" d="M 4056 2131 
L 4056 0 
L 2931 0 
L 2931 347 
L 2931 1625 
Q 2931 2084 2911 2256 
Q 2891 2428 2841 2509 
Q 2775 2619 2662 2680 
Q 2550 2741 2406 2741 
Q 2056 2741 1856 2470 
Q 1656 2200 1656 1722 
L 1656 0 
L 538 0 
L 538 4863 
L 1656 4863 
L 1656 2988 
Q 1909 3294 2193 3439 
Q 2478 3584 2822 3584 
Q 3428 3584 3742 3212 
Q 4056 2841 4056 2131 
z
" transform="scale(0.015625)"/>
      </defs>
      <use xlink:href="#DejaVuSans-Bold-45"/>
      <use xlink:href="#DejaVuSans-Bold-70" transform="translate(68.310547 0)"/>
      <use xlink:href="#DejaVuSans-Bold-6f" transform="translate(139.892578 0)"/>
      <use xlink:href="#DejaVuSans-Bold-63" transform="translate(208.59375 0)"/>
      <use xlink:href="#DejaVuSans-Bold-68" transform="translate(267.871094 0)"/>
     </g>
    </g>
   </g>
   <g id="matplotlib.axis_2">
    <g id="ytick_1">
     <g id="line2d_33">
      <defs>
       <path id="m8b0d232ac4" d="M 0 0 
L -3.5 0 
" style="stroke: #000000; stroke-width: 0.8"/>
      </defs>
      <g>
       <use xlink:href="#m8b0d232ac4" x="47.032813" y="254.314855" style="stroke: #000000; stroke-width: 0.8"/>
      </g>
     </g>
     <g id="text_6">
      <!-- 20 -->
      <g transform="translate(27.307813 258.114074) scale(0.1 -0.1)">
       <use xlink:href="#DejaVuSans-32"/>
       <use xlink:href="#DejaVuSans-30" transform="translate(63.623047 0)"/>
      </g>
     </g>
    </g>
    <g id="ytick_2">
     <g id="line2d_34">
      <g>
       <use xlink:href="#m8b0d232ac4" x="47.032813" y="201.339672" style="stroke: #000000; stroke-width: 0.8"/>
      </g>
     </g>
     <g id="text_7">
      <!-- 40 -->
      <g transform="translate(27.307813 205.138891) scale(0.1 -0.1)">
       <defs>
        <path id="DejaVuSans-34" d="M 2419 4116 
L 825 1625 
L 2419 1625 
L 2419 4116 
z
M 2253 4666 
L 3047 4666 
L 3047 1625 
L 3713 1625 
L 3713 1100 
L 3047 1100 
L 3047 0 
L 2419 0 
L 2419 1100 
L 313 1100 
L 313 1709 
L 2253 4666 
z
" transform="scale(0.015625)"/>
       </defs>
       <use xlink:href="#DejaVuSans-34"/>
       <use xlink:href="#DejaVuSans-30" transform="translate(63.623047 0)"/>
      </g>
     </g>
    </g>
    <g id="ytick_3">
     <g id="line2d_35">
      <g>
       <use xlink:href="#m8b0d232ac4" x="47.032813" y="148.36449" style="stroke: #000000; stroke-width: 0.8"/>
      </g>
     </g>
     <g id="text_8">
      <!-- 60 -->
      <g transform="translate(27.307813 152.163709) scale(0.1 -0.1)">
       <defs>
        <path id="DejaVuSans-36" d="M 2113 2584 
Q 1688 2584 1439 2293 
Q 1191 2003 1191 1497 
Q 1191 994 1439 701 
Q 1688 409 2113 409 
Q 2538 409 2786 701 
Q 3034 994 3034 1497 
Q 3034 2003 2786 2293 
Q 2538 2584 2113 2584 
z
M 3366 4563 
L 3366 3988 
Q 3128 4100 2886 4159 
Q 2644 4219 2406 4219 
Q 1781 4219 1451 3797 
Q 1122 3375 1075 2522 
Q 1259 2794 1537 2939 
Q 1816 3084 2150 3084 
Q 2853 3084 3261 2657 
Q 3669 2231 3669 1497 
Q 3669 778 3244 343 
Q 2819 -91 2113 -91 
Q 1303 -91 875 529 
Q 447 1150 447 2328 
Q 447 3434 972 4092 
Q 1497 4750 2381 4750 
Q 2619 4750 2861 4703 
Q 3103 4656 3366 4563 
z
" transform="scale(0.015625)"/>
       </defs>
       <use xlink:href="#DejaVuSans-36"/>
       <use xlink:href="#DejaVuSans-30" transform="translate(63.623047 0)"/>
      </g>
     </g>
    </g>
    <g id="ytick_4">
     <g id="line2d_36">
      <g>
       <use xlink:href="#m8b0d232ac4" x="47.032813" y="95.389307" style="stroke: #000000; stroke-width: 0.8"/>
      </g>
     </g>
     <g id="text_9">
      <!-- 80 -->
      <g transform="translate(27.307813 99.188526) scale(0.1 -0.1)">
       <defs>
        <path id="DejaVuSans-38" d="M 2034 2216 
Q 1584 2216 1326 1975 
Q 1069 1734 1069 1313 
Q 1069 891 1326 650 
Q 1584 409 2034 409 
Q 2484 409 2743 651 
Q 3003 894 3003 1313 
Q 3003 1734 2745 1975 
Q 2488 2216 2034 2216 
z
M 1403 2484 
Q 997 2584 770 2862 
Q 544 3141 544 3541 
Q 544 4100 942 4425 
Q 1341 4750 2034 4750 
Q 2731 4750 3128 4425 
Q 3525 4100 3525 3541 
Q 3525 3141 3298 2862 
Q 3072 2584 2669 2484 
Q 3125 2378 3379 2068 
Q 3634 1759 3634 1313 
Q 3634 634 3220 271 
Q 2806 -91 2034 -91 
Q 1263 -91 848 271 
Q 434 634 434 1313 
Q 434 1759 690 2068 
Q 947 2378 1403 2484 
z
M 1172 3481 
Q 1172 3119 1398 2916 
Q 1625 2713 2034 2713 
Q 2441 2713 2670 2916 
Q 2900 3119 2900 3481 
Q 2900 3844 2670 4047 
Q 2441 4250 2034 4250 
Q 1625 4250 1398 4047 
Q 1172 3844 1172 3481 
z
" transform="scale(0.015625)"/>
       </defs>
       <use xlink:href="#DejaVuSans-38"/>
       <use xlink:href="#DejaVuSans-30" transform="translate(63.623047 0)"/>
      </g>
     </g>
    </g>
    <g id="ytick_5">
     <g id="line2d_37">
      <g>
       <use xlink:href="#m8b0d232ac4" x="47.032813" y="42.414125" style="stroke: #000000; stroke-width: 0.8"/>
      </g>
     </g>
     <g id="text_10">
      <!-- 100 -->
      <g transform="translate(20.945313 46.213344) scale(0.1 -0.1)">
       <use xlink:href="#DejaVuSans-31"/>
       <use xlink:href="#DejaVuSans-30" transform="translate(63.623047 0)"/>
       <use xlink:href="#DejaVuSans-30" transform="translate(127.246094 0)"/>
      </g>
     </g>
    </g>
    <g id="text_11">
     <!-- Accuracy (%) -->
     <g transform="translate(14.7875 200.115531) rotate(-90) scale(0.1 -0.1)">
      <defs>
       <path id="DejaVuSans-Bold-41" d="M 3419 850 
L 1538 850 
L 1241 0 
L 31 0 
L 1759 4666 
L 3194 4666 
L 4922 0 
L 3713 0 
L 3419 850 
z
M 1838 1716 
L 3116 1716 
L 2478 3572 
L 1838 1716 
z
" transform="scale(0.015625)"/>
       <path id="DejaVuSans-Bold-75" d="M 500 1363 
L 500 3500 
L 1625 3500 
L 1625 3150 
Q 1625 2866 1622 2436 
Q 1619 2006 1619 1863 
Q 1619 1441 1641 1255 
Q 1663 1069 1716 984 
Q 1784 875 1895 815 
Q 2006 756 2150 756 
Q 2500 756 2700 1025 
Q 2900 1294 2900 1772 
L 2900 3500 
L 4019 3500 
L 4019 0 
L 2900 0 
L 2900 506 
Q 2647 200 2364 54 
Q 2081 -91 1741 -91 
Q 1134 -91 817 281 
Q 500 653 500 1363 
z
" transform="scale(0.015625)"/>
       <path id="DejaVuSans-Bold-72" d="M 3138 2547 
Q 2991 2616 2845 2648 
Q 2700 2681 2553 2681 
Q 2122 2681 1889 2404 
Q 1656 2128 1656 1613 
L 1656 0 
L 538 0 
L 538 3500 
L 1656 3500 
L 1656 2925 
Q 1872 3269 2151 3426 
Q 2431 3584 2822 3584 
Q 2878 3584 2943 3579 
Q 3009 3575 3134 3559 
L 3138 2547 
z
" transform="scale(0.015625)"/>
       <path id="DejaVuSans-Bold-61" d="M 2106 1575 
Q 1756 1575 1579 1456 
Q 1403 1338 1403 1106 
Q 1403 894 1545 773 
Q 1688 653 1941 653 
Q 2256 653 2472 879 
Q 2688 1106 2688 1447 
L 2688 1575 
L 2106 1575 
z
M 3816 1997 
L 3816 0 
L 2688 0 
L 2688 519 
Q 2463 200 2181 54 
Q 1900 -91 1497 -91 
Q 953 -91 614 226 
Q 275 544 275 1050 
Q 275 1666 698 1953 
Q 1122 2241 2028 2241 
L 2688 2241 
L 2688 2328 
Q 2688 2594 2478 2717 
Q 2269 2841 1825 2841 
Q 1466 2841 1156 2769 
Q 847 2697 581 2553 
L 581 3406 
Q 941 3494 1303 3539 
Q 1666 3584 2028 3584 
Q 2975 3584 3395 3211 
Q 3816 2838 3816 1997 
z
" transform="scale(0.015625)"/>
       <path id="DejaVuSans-Bold-79" d="M 78 3500 
L 1197 3500 
L 2138 1125 
L 2938 3500 
L 4056 3500 
L 2584 -331 
Q 2363 -916 2067 -1148 
Q 1772 -1381 1288 -1381 
L 641 -1381 
L 641 -647 
L 991 -647 
Q 1275 -647 1404 -556 
Q 1534 -466 1606 -231 
L 1638 -134 
L 78 3500 
z
" transform="scale(0.015625)"/>
       <path id="DejaVuSans-Bold-20" transform="scale(0.015625)"/>
       <path id="DejaVuSans-Bold-28" d="M 2413 -844 
L 1484 -844 
Q 1006 -72 778 623 
Q 550 1319 550 2003 
Q 550 2688 779 3389 
Q 1009 4091 1484 4856 
L 2413 4856 
Q 2013 4116 1813 3408 
Q 1613 2700 1613 2009 
Q 1613 1319 1811 609 
Q 2009 -100 2413 -844 
z
" transform="scale(0.015625)"/>
       <path id="DejaVuSans-Bold-25" d="M 4959 1925 
Q 4738 1925 4616 1733 
Q 4494 1541 4494 1184 
Q 4494 825 4614 633 
Q 4734 441 4959 441 
Q 5184 441 5303 633 
Q 5422 825 5422 1184 
Q 5422 1541 5301 1733 
Q 5181 1925 4959 1925 
z
M 4959 2450 
Q 5541 2450 5875 2112 
Q 6209 1775 6209 1184 
Q 6209 594 5875 251 
Q 5541 -91 4959 -91 
Q 4378 -91 4042 251 
Q 3706 594 3706 1184 
Q 3706 1772 4042 2111 
Q 4378 2450 4959 2450 
z
M 2094 -91 
L 1403 -91 
L 4319 4750 
L 5013 4750 
L 2094 -91 
z
M 1453 4750 
Q 2034 4750 2367 4411 
Q 2700 4072 2700 3481 
Q 2700 2891 2367 2550 
Q 2034 2209 1453 2209 
Q 872 2209 539 2550 
Q 206 2891 206 3481 
Q 206 4072 539 4411 
Q 872 4750 1453 4750 
z
M 1453 4225 
Q 1228 4225 1106 4031 
Q 984 3838 984 3481 
Q 984 3122 1106 2926 
Q 1228 2731 1453 2731 
Q 1678 2731 1798 2926 
Q 1919 3122 1919 3481 
Q 1919 3838 1797 4031 
Q 1675 4225 1453 4225 
z
" transform="scale(0.015625)"/>
       <path id="DejaVuSans-Bold-29" d="M 513 -844 
Q 913 -100 1113 609 
Q 1313 1319 1313 2009 
Q 1313 2700 1113 3408 
Q 913 4116 513 4856 
L 1441 4856 
Q 1916 4091 2145 3389 
Q 2375 2688 2375 2003 
Q 2375 1319 2147 623 
Q 1919 -72 1441 -844 
L 513 -844 
z
" transform="scale(0.015625)"/>
      </defs>
      <use xlink:href="#DejaVuSans-Bold-41"/>
      <use xlink:href="#DejaVuSans-Bold-63" transform="translate(77.392578 0)"/>
      <use xlink:href="#DejaVuSans-Bold-63" transform="translate(136.669922 0)"/>
      <use xlink:href="#DejaVuSans-Bold-75" transform="translate(195.947266 0)"/>
      <use xlink:href="#DejaVuSans-Bold-72" transform="translate(267.138672 0)"/>
      <use xlink:href="#DejaVuSans-Bold-61" transform="translate(316.455078 0)"/>
      <use xlink:href="#DejaVuSans-Bold-63" transform="translate(383.935547 0)"/>
      <use xlink:href="#DejaVuSans-Bold-79" transform="translate(443.212891 0)"/>
      <use xlink:href="#DejaVuSans-Bold-20" transform="translate(508.398438 0)"/>
      <use xlink:href="#DejaVuSans-Bold-28" transform="translate(543.212891 0)"/>
      <use xlink:href="#DejaVuSans-Bold-25" transform="translate(588.916016 0)"/>
      <use xlink:href="#DejaVuSans-Bold-29" transform="translate(689.111328 0)"/>
     </g>
    </g>
   </g>
   <g id="line2d_38">
    <path d="M 63.26554 284.334125 
L 92.87168 283.274621 
L 110.190162 282.215118 
L 122.47782 277.623935 
L 132.008868 257.846534 
L 139.796302 236.656461 
L 146.380483 203.635263 
L 152.08396 185.447118 
L 157.114783 173.615994 
L 161.615008 169.201395 
L 165.685957 149.423993 
L 169.402442 122.936402 
L 172.821276 112.341366 
L 175.986623 106.867263 
L 178.93349 103.865337 
L 181.6901 100.510242 
L 184.279537 97.861483 
L 186.720923 94.682972 
L 189.030277 84.264518 
L 191.221148 84.794271 
L 193.305105 81.439175 
L 195.292097 77.730913 
L 197.190749 72.609978 
L 199.008582 68.19538 
L 200.752197 63.604197 
L 202.427416 58.483263 
L 204.039405 55.481336 
L 205.592763 54.421833 
L 207.091606 54.421833 
L 208.53963 50.71357 
L 209.94017 48.771147 
L 212.610579 45.945804 
L 213.885677 45.76922 
L 216.327063 45.76922 
L 217.497346 45.592636 
L 218.636417 45.592636 
L 219.745898 45.416052 
L 222.911245 45.416052 
L 223.916294 45.592636 
L 225.858112 44.8863 
L 226.796889 45.239468 
L 227.715475 45.416052 
L 228.614722 45.062884 
L 229.495426 45.239468 
L 230.358337 44.8863 
L 232.033557 45.239468 
L 233.645545 45.945804 
L 234.429285 45.76922 
L 235.198903 45.062884 
L 235.954899 44.709716 
L 236.697746 44.709716 
L 237.427894 47.888227 
L 238.14577 48.417979 
L 238.85178 47.711643 
L 239.54631 47.535059 
L 240.229726 48.064811 
L 240.90238 47.181891 
L 241.564605 48.241395 
L 242.216719 46.828724 
L 242.859026 48.064811 
L 243.491817 49.654067 
L 244.11537 47.711643 
L 244.729951 46.475556 
L 245.335814 46.652139 
L 245.933204 46.65214 
L 246.522353 45.416052 
L 247.103486 45.239468 
L 247.676818 44.709716 
L 248.242557 45.239468 
L 248.8009 45.239468 
L 249.352038 44.709716 
L 249.896156 44.356548 
L 250.964027 44.356548 
L 251.488115 44.00338 
L 259.101566 44.00338 
L 259.964477 43.650213 
L 260.389482 43.826797 
L 260.810299 43.650213 
L 261.639697 43.650213 
L 262.048433 43.297045 
L 262.453295 43.473629 
L 262.854356 43.297045 
L 263.251685 43.473629 
L 263.645353 43.297045 
L 264.805043 43.297045 
L 265.184713 43.120461 
L 265.561039 43.297045 
L 265.934077 43.120461 
L 266.303886 43.297045 
L 266.67052 43.297045 
L 267.034034 43.120461 
L 267.39448 43.473629 
L 267.75191 43.473629 
L 268.106374 43.297045 
L 268.45792 43.297045 
L 269.15245 42.943877 
L 270.50852 42.943877 
L 270.840916 43.120461 
L 271.170745 43.120461 
L 271.498046 42.943877 
L 272.14522 42.943877 
L 272.465166 43.120461 
L 272.782734 42.943877 
L 273.097957 43.120461 
L 273.410872 43.120461 
L 273.72151 42.943877 
L 274.640097 42.943877 
L 274.941954 42.767293 
L 277.282958 42.767293 
L 277.566764 42.943877 
L 277.848697 42.767293 
L 279.771777 42.767293 
L 280.039568 42.943877 
L 280.570167 43.826797 
L 280.833015 43.297045 
L 281.094255 44.8863 
L 281.353907 44.533132 
L 281.61199 45.76922 
L 282.123525 44.00338 
L 282.377013 45.239468 
L 282.629006 48.417979 
L 282.87952 48.064811 
L 283.128574 53.538913 
L 283.376184 49.654067 
L 283.622367 50.007234 
L 284.110517 45.416052 
L 284.352516 45.416052 
L 284.593151 45.239468 
L 284.832438 44.8863 
L 285.070392 45.592636 
L 285.307028 45.592636 
L 285.542359 44.709716 
L 285.776402 46.475556 
L 286.009169 49.654067 
L 286.240674 46.828723 
L 286.470932 45.76922 
L 286.699954 45.239468 
L 286.927755 44.179964 
L 287.154348 44.533132 
L 287.379745 43.826797 
L 287.603959 43.650213 
L 287.827002 44.356548 
L 288.048886 43.826797 
L 288.489227 43.826797 
L 288.707706 43.650213 
L 288.925074 43.826797 
L 289.14134 43.650213 
L 289.356518 43.650213 
L 289.570617 43.297045 
L 289.995622 43.297045 
L 290.206549 43.473629 
L 290.625303 43.120461 
L 293.641565 43.120461 
L 293.835274 42.943877 
L 295.540217 42.943877 
L 295.725522 42.767293 
L 295.910026 42.943877 
L 296.27666 42.943877 
L 296.458804 42.767293 
L 296.640174 42.943877 
L 297.00062 42.590709 
L 297.179709 42.767293 
L 297.35805 42.767293 
L 297.53565 42.590709 
L 297.712514 42.590709 
L 297.888649 42.767293 
L 298.06406 42.590709 
L 298.238754 42.590709 
L 298.412737 42.767293 
L 300.776885 42.767293 
L 300.940849 42.590709 
L 301.104186 42.590709 
L 301.266901 42.767293 
L 301.428999 42.767293 
L 301.590483 42.590709 
L 301.75136 42.767293 
L 301.911633 42.590709 
L 302.230385 42.590709 
L 302.388874 42.767293 
L 303.327651 42.767293 
L 303.482127 42.590709 
L 303.636046 42.590709 
L 303.789413 42.767293 
L 304.548094 42.767293 
L 304.698227 42.590709 
L 304.847833 42.590709 
L 304.996918 42.767293 
L 305.145484 42.767293 
L 305.293535 42.590709 
L 306.026188 42.590709 
L 306.171222 42.414125 
L 306.315766 42.590709 
L 306.459822 42.414125 
L 306.603394 42.590709 
L 306.746485 42.414125 
L 306.889098 42.767293 
L 307.172904 42.767293 
L 307.454837 42.590709 
L 307.595108 42.590709 
L 307.734921 42.414125 
L 307.874277 42.590709 
L 308.01318 42.414125 
L 308.564318 43.297045 
L 308.700999 44.356548 
L 308.837243 44.179964 
L 309.108436 46.122388 
L 309.243389 46.122388 
L 309.377917 46.298972 
L 309.778977 58.130095 
L 309.911832 56.187672 
L 310.176307 49.124315 
L 310.307933 49.830651 
L 310.569975 48.771147 
L 310.960047 44.709716 
L 311.21813 43.650213 
L 311.474663 43.650213 
L 311.602354 43.297045 
L 311.983153 43.297045 
L 312.48566 42.590709 
L 312.734714 42.767293 
L 312.982324 42.590709 
L 313.351069 42.590709 
L 313.47328 42.414125 
L 313.716657 42.590709 
L 313.837828 42.590709 
L 314.079143 42.414125 
L 329.301635 42.414125 
L 329.469795 42.590709 
L 329.553627 42.590709 
L 329.637296 42.767293 
L 329.970339 57.600344 
L 330.053196 51.419906 
L 330.135892 52.126242 
L 330.218429 48.417979 
L 330.383025 54.775001 
L 330.465086 50.183818 
L 330.546989 53.715497 
L 330.710326 45.592636 
L 330.873041 44.709716 
L 330.954167 44.709716 
L 331.115958 43.650213 
L 331.3575 43.650213 
L 331.597684 43.297045 
L 331.677446 43.297045 
L 331.995014 42.767293 
L 332.074038 42.767293 
L 332.152916 42.590709 
L 332.231649 42.767293 
L 332.388681 42.590709 
L 335.704907 42.590709 
L 335.777362 42.414125 
L 335.921906 42.590709 
L 335.993995 42.590709 
L 336.065962 42.414125 
L 336.209534 42.590709 
L 336.423991 42.590709 
L 336.495239 42.767293 
L 336.637377 42.590709 
L 336.779044 42.767293 
L 336.849702 42.767293 
L 336.920243 45.945804 
L 336.990668 44.356548 
L 337.060977 47.181891 
L 337.13117 45.416052 
L 337.201249 45.592636 
L 337.341061 54.951585 
L 337.410796 48.594563 
L 337.480417 50.71357 
L 337.549925 51.773074 
L 337.757773 44.533132 
L 337.826831 44.709716 
L 337.895778 44.533132 
L 338.101954 43.650213 
L 338.170458 43.826796 
L 338.307139 43.473629 
L 338.714576 43.473629 
L 338.849529 43.297045 
L 339.051162 43.297045 
L 339.185058 42.943877 
L 339.385117 42.943877 
L 339.517972 42.767293 
L 339.848311 42.767293 
L 339.914073 42.590709 
L 339.979734 42.767293 
L 340.176115 42.414125 
L 358.441891 42.414125 
L 358.484455 43.473629 
L 358.569455 52.655993 
L 358.611892 49.124315 
L 358.696639 48.594563 
L 358.73895 49.124315 
L 358.949877 44.709716 
L 358.991938 47.358475 
L 359.033957 47.181891 
L 359.201622 43.650213 
L 359.243436 44.179964 
L 359.285208 43.120461 
L 359.368632 43.650213 
L 359.410282 43.826796 
L 359.451892 43.650213 
L 359.493462 46.122388 
L 359.534991 43.120461 
L 359.617928 44.533132 
L 359.742032 43.297045 
L 359.783321 43.473629 
L 359.906946 43.120461 
L 360.112197 43.120461 
L 360.234876 42.943877 
L 360.519764 42.943877 
L 360.641279 42.767293 
L 361.043851 42.767293 
L 361.163887 42.590709 
L 364.022761 42.590709 
L 364.171976 42.414125 
L 372.868223 42.414125 
L 372.898591 42.767293 
L 373.019847 50.890154 
L 373.080347 46.122388 
L 373.110565 46.65214 
L 373.140761 50.71357 
L 373.170936 45.062884 
L 373.321492 42.943877 
L 373.351539 42.943877 
L 373.471519 42.767293 
L 373.62102 42.767293 
L 373.740246 42.590709 
L 374.302068 42.590709 
L 374.419411 42.414125 
L 387.920085 42.414125 
L 387.920085 42.414125 
" clip-path="url(#p53ba7a62ff)" style="fill: none; stroke-dasharray: 5.55,2.4; stroke-dashoffset: 0; stroke: #2ca02c; stroke-width: 1.5"/>
   </g>
   <g id="line2d_39">
    <path d="M 63.26554 280.802446 
L 92.87168 278.977745 
L 110.190162 281.391059 
L 122.47782 276.564432 
L 132.008868 235.71468 
L 139.796302 213.994855 
L 146.380483 201.045366 
L 152.08396 184.152169 
L 157.114783 184.917366 
L 161.615008 169.554563 
L 165.685957 153.779731 
L 169.402442 138.004899 
L 172.821276 127.233278 
L 175.986623 129.764315 
L 178.93349 122.406651 
L 181.6901 113.812899 
L 184.279537 107.926767 
L 186.720923 103.688753 
L 189.030277 98.273512 
L 191.221148 106.69068 
L 193.305105 98.450096 
L 197.190749 91.798767 
L 199.008582 89.267731 
L 200.752197 86.08922 
L 202.427416 82.027789 
L 204.039405 77.730913 
L 205.592763 78.142942 
L 207.091606 78.319526 
L 208.53963 75.141015 
L 209.94017 77.613191 
L 211.29624 71.903643 
L 212.610579 72.139088 
L 213.885677 73.963789 
L 215.123811 71.550475 
L 216.327063 73.669483 
L 217.497346 73.375176 
L 218.636417 72.433395 
L 219.745898 72.727702 
L 220.827288 71.668198 
L 222.911245 70.667556 
L 224.898237 71.491614 
L 225.858112 71.138446 
L 226.796889 70.667556 
L 228.614722 73.139731 
L 229.495426 71.079585 
L 230.358337 77.083439 
L 231.204159 75.611906 
L 232.033557 72.492256 
L 232.847155 74.140373 
L 233.645545 74.90557 
L 234.429285 79.908782 
L 235.198903 81.321453 
L 235.954899 80.615118 
L 236.697746 75.906213 
L 237.427894 83.793629 
L 238.14577 79.908782 
L 238.85178 81.910067 
L 239.54631 82.380957 
L 240.229726 74.081512 
L 240.90238 76.141658 
L 241.564605 73.610621 
L 242.216719 74.316957 
L 242.859026 73.846067 
L 243.491817 76.965716 
L 244.729951 70.196665 
L 245.335814 74.316957 
L 245.933204 70.903001 
L 246.522353 68.489687 
L 247.103486 74.022651 
L 247.676818 69.490329 
L 248.242557 67.842213 
L 248.8009 68.725132 
L 249.352038 68.136519 
L 249.896156 70.078942 
L 250.964027 68.548548 
L 251.488115 67.312461 
L 252.517385 67.194738 
L 253.022866 67.253599 
L 253.522434 67.194738 
L 254.016227 66.84157 
L 254.987011 67.018154 
L 255.464252 67.253599 
L 255.936219 66.723848 
L 256.403029 67.077015 
L 256.864791 67.018154 
L 257.321615 67.135877 
L 257.773605 66.723848 
L 258.220862 66.664986 
L 258.663484 67.018154 
L 259.101566 67.018154 
L 259.5352 68.901716 
L 259.964477 67.371322 
L 260.810299 68.018797 
L 261.639697 67.783351 
L 262.048433 68.018797 
L 262.453295 67.842213 
L 262.854356 68.19538 
L 263.645353 68.489687 
L 264.035425 68.548548 
L 264.421968 68.371964 
L 264.805043 68.430826 
L 265.184713 68.313103 
L 265.561039 68.430826 
L 265.934077 68.842855 
L 266.303886 68.901716 
L 266.67052 68.842855 
L 267.034034 68.548548 
L 267.39448 68.60741 
L 267.75191 68.901716 
L 268.106374 68.842855 
L 268.45792 69.137161 
L 269.15245 69.372607 
L 269.835866 69.196023 
L 270.173517 69.608052 
L 270.50852 69.431468 
L 270.840916 70.020081 
L 271.170745 69.843497 
L 271.498046 70.137804 
L 271.822859 69.725775 
L 272.14522 70.137804 
L 272.465166 70.020081 
L 273.097957 70.43211 
L 273.410872 70.196665 
L 273.72151 70.255526 
L 274.029906 70.549833 
L 274.336091 70.373249 
L 274.941954 70.608694 
L 275.241693 70.667556 
L 275.539344 70.549833 
L 275.834934 71.197307 
L 276.420048 71.079585 
L 276.997254 71.31503 
L 277.282958 70.903001 
L 277.566764 71.31503 
L 277.848697 70.903001 
L 278.40704 71.668198 
L 278.683498 71.491614 
L 278.958178 70.961862 
L 279.231103 71.550475 
L 279.502296 71.491614 
L 279.771777 72.727702 
L 280.305692 70.726417 
L 280.570167 70.84414 
L 280.833015 70.667556 
L 281.094255 72.374534 
L 281.353907 71.844782 
L 281.61199 69.549191 
L 281.868523 69.196023 
L 282.123525 71.609337 
L 282.377013 70.549833 
L 282.629006 74.199234 
L 282.87952 74.43468 
L 283.128574 81.262592 
L 283.376184 72.374534 
L 283.622367 69.666913 
L 283.86714 69.725775 
L 284.352516 73.610621 
L 284.593151 69.725775 
L 284.832438 68.371964 
L 285.070392 68.725132 
L 285.542359 71.31503 
L 285.776402 76.553687 
L 286.009169 74.081512 
L 286.240674 69.490329 
L 286.470932 70.078942 
L 286.699954 72.080227 
L 286.927755 69.784636 
L 287.154348 70.726417 
L 287.379745 70.785278 
L 287.603959 70.43211 
L 287.827002 71.079585 
L 288.269624 69.431468 
L 288.489227 69.549191 
L 288.707706 69.372607 
L 288.925074 71.785921 
L 289.14134 69.666913 
L 289.356518 70.255526 
L 289.570617 70.078943 
L 289.783648 69.666913 
L 289.995622 69.725775 
L 290.206549 70.020081 
L 290.833151 69.902359 
L 291.039992 70.549833 
L 291.245837 70.255526 
L 291.654573 70.490972 
L 292.260436 70.608694 
L 292.460496 70.549833 
L 292.659623 70.785278 
L 292.857825 70.608694 
L 293.055113 71.197307 
L 293.251493 70.608694 
L 293.446974 71.079585 
L 293.641565 70.961862 
L 294.220075 71.256169 
L 294.411183 71.138446 
L 294.790853 71.31503 
L 294.979431 71.31503 
L 295.167179 71.609337 
L 295.354105 71.373891 
L 295.540217 70.903001 
L 295.725522 71.31503 
L 295.910026 71.079585 
L 296.093736 71.138446 
L 296.27666 71.079585 
L 296.458804 71.138446 
L 296.640174 71.079585 
L 296.820777 71.373891 
L 297.00062 71.962505 
L 297.179709 71.727059 
L 297.53565 71.962505 
L 297.712514 71.609337 
L 297.888649 72.315672 
L 298.06406 72.433395 
L 298.238754 71.844782 
L 298.412737 72.256811 
L 298.586013 72.256811 
L 298.75859 71.727059 
L 298.930472 72.66884 
L 299.101665 72.139088 
L 299.272175 72.609979 
L 299.442007 72.315672 
L 299.611166 72.66884 
L 299.779658 71.844782 
L 299.947487 73.08087 
L 300.11466 72.433395 
L 300.281181 72.66884 
L 300.447056 72.256811 
L 300.612289 73.257453 
L 300.776885 72.19795 
L 300.940849 72.963147 
L 301.104186 73.022008 
L 301.266901 72.845424 
L 301.428999 73.728344 
L 301.590483 73.139731 
L 301.75136 74.081512 
L 301.911633 73.198592 
L 302.071306 74.081512 
L 302.230385 73.08087 
L 302.388874 74.316957 
L 302.546776 73.316315 
L 302.704097 74.611264 
L 302.860841 73.904928 
L 303.017012 74.258096 
L 303.172614 73.375176 
L 303.327651 74.081512 
L 303.636046 73.963789 
L 303.789413 74.611264 
L 303.942231 74.022651 
L 304.246237 74.846709 
L 304.397432 75.023293 
L 304.548094 74.787848 
L 304.847833 73.728344 
L 304.996918 75.553045 
L 305.145484 73.728344 
L 305.441074 74.846709 
L 305.588106 74.493541 
L 305.734633 74.964432 
L 305.880659 74.611264 
L 306.026188 75.141015 
L 306.171222 74.611264 
L 306.315766 76.377103 
L 306.459822 74.43468 
L 306.603394 76.023935 
L 306.746485 74.670125 
L 306.889098 76.200519 
L 307.031237 75.023293 
L 307.172904 77.260023 
L 307.314103 74.670125 
L 307.454837 78.49611 
L 307.595108 75.141015 
L 307.734921 75.965074 
L 307.874277 75.141015 
L 308.01318 77.730913 
L 308.289638 72.139088 
L 308.427199 71.609337 
L 308.700999 72.374534 
L 308.837243 71.844782 
L 308.973055 74.552402 
L 309.108436 70.43211 
L 309.243389 71.903643 
L 309.377917 74.611264 
L 309.512023 72.609979 
L 309.645709 82.851848 
L 310.044274 74.552402 
L 310.176307 79.555614 
L 310.307933 70.373249 
L 310.439155 73.139731 
L 310.569975 72.021366 
L 310.700395 69.902359 
L 310.830418 69.608052 
L 311.089284 64.899147 
L 311.346589 66.017512 
L 311.474663 70.314388 
L 311.729665 67.901074 
L 311.856597 68.489687 
L 311.983153 66.606125 
L 312.360587 66.959293 
L 312.48566 66.900432 
L 312.610369 67.901074 
L 312.734714 67.312461 
L 312.858699 67.489045 
L 312.982324 67.371322 
L 313.105593 68.077658 
L 313.228507 67.901074 
L 313.351069 68.018797 
L 313.47328 68.489687 
L 313.595142 67.959935 
L 313.716657 68.548548 
L 313.837828 68.254242 
L 313.958656 68.783994 
L 314.079143 68.371964 
L 314.319102 69.431468 
L 314.557721 69.137162 
L 314.795014 69.372607 
L 315.030996 69.254884 
L 315.615309 69.313745 
L 315.731218 69.490329 
L 315.846814 69.313745 
L 316.077072 69.431468 
L 316.191736 69.313745 
L 316.420147 69.549191 
L 316.533896 69.372607 
L 316.760488 69.549191 
L 316.873335 69.0783 
L 317.098139 69.784636 
L 317.210099 69.431468 
L 317.655026 69.549191 
L 317.765538 69.431468 
L 317.875764 69.608052 
L 317.985706 69.313745 
L 318.204746 69.608052 
L 318.313846 69.019439 
L 318.531214 69.608052 
L 318.639484 69.431468 
L 318.855205 69.490329 
L 318.962658 69.431468 
L 319.069842 69.549191 
L 319.283405 69.549191 
L 319.389788 69.137162 
L 319.601762 69.549191 
L 320.022579 69.431468 
L 320.335494 69.490329 
L 320.439291 69.196023 
L 320.646132 69.608052 
L 320.851977 69.431468 
L 320.954528 69.549191 
L 321.158895 69.490329 
L 321.463624 69.608052 
L 321.564719 69.372607 
L 321.766194 69.608052 
L 321.866576 69.372607 
L 322.066636 69.725775 
L 322.265763 69.725775 
L 322.759556 69.725775 
L 322.857633 69.608052 
L 323.247705 69.725775 
L 324.773319 69.784636 
L 325.053403 69.902359 
L 325.331662 69.843497 
L 326.426917 69.902359 
L 326.60676 69.96122 
L 327.230313 70.020081 
L 327.406812 70.020081 
L 328.963315 70.020081 
L 329.217306 70.314388 
L 329.301635 69.725775 
L 329.385798 70.490972 
L 329.469795 68.901716 
L 329.637296 72.492256 
L 329.804142 78.378388 
L 329.887322 76.789132 
L 329.970339 71.491614 
L 330.053196 76.965716 
L 330.135892 72.492256 
L 330.218429 76.612548 
L 330.300806 72.19795 
L 330.383025 72.256811 
L 330.465086 82.734125 
L 330.546989 67.371322 
L 330.628736 67.606767 
L 330.791761 68.19538 
L 330.873041 69.196023 
L 330.954167 67.135877 
L 331.035139 67.194738 
L 331.115958 65.899789 
L 331.196623 66.194096 
L 331.277137 66.076373 
L 331.3575 66.194096 
L 331.597684 65.899789 
L 331.75706 66.723848 
L 331.836525 66.488402 
L 332.231649 67.547906 
L 332.388681 67.547906 
L 332.623152 67.842213 
L 332.701024 67.665629 
L 332.778754 67.665629 
L 332.856342 67.959935 
L 332.933791 67.489045 
L 333.011099 68.018796 
L 333.088267 67.959935 
L 333.165296 68.136519 
L 333.318939 67.665629 
L 333.395553 67.783351 
L 333.472031 67.72449 
L 333.624576 67.72449 
L 333.776578 67.72449 
L 333.928042 67.547906 
L 334.003573 67.72449 
L 334.07897 67.665629 
L 334.229367 67.665629 
L 334.453974 67.489045 
L 334.603058 67.665629 
L 334.751624 67.665629 
L 334.899675 67.72449 
L 335.047214 67.72449 
L 335.194246 67.72449 
L 335.267572 67.606767 
L 335.340773 67.665629 
L 335.413848 67.606767 
L 335.486799 67.901074 
L 335.559625 67.842213 
L 335.704907 67.665629 
L 335.921906 68.136519 
L 335.993995 67.783351 
L 336.065962 68.018796 
L 336.137809 67.606767 
L 336.209534 67.783351 
L 336.28114 67.842213 
L 336.352625 68.725132 
L 336.423991 67.371322 
L 336.495239 69.254884 
L 336.566367 66.900432 
L 336.637377 67.783351 
L 336.70827 67.72449 
L 336.779044 66.547264 
L 336.920243 71.609337 
L 336.990668 70.84414 
L 337.13117 66.723848 
L 337.271212 76.553687 
L 337.341061 76.082796 
L 337.410796 73.375176 
L 337.480417 76.435964 
L 337.688603 67.783351 
L 337.757773 70.549833 
L 337.895778 67.430183 
L 337.964614 68.548548 
L 338.033339 67.547906 
L 338.101954 68.489687 
L 338.238853 66.782709 
L 338.307139 67.135877 
L 338.375316 66.959293 
L 338.443384 66.723848 
L 338.511343 67.253599 
L 338.579195 67.135877 
L 338.646939 66.959293 
L 338.714576 67.194738 
L 338.782106 66.782709 
L 338.849529 66.84157 
L 339.051162 67.018154 
L 339.118163 66.723848 
L 339.251849 67.547906 
L 339.385117 67.018154 
L 339.451596 67.312461 
L 339.517972 67.194738 
L 339.584244 67.194738 
L 339.650414 66.900432 
L 339.716482 66.959293 
L 339.914073 67.430183 
L 339.979734 67.312461 
L 340.110755 67.430183 
L 340.241375 67.371322 
L 340.306535 67.842213 
L 340.436558 67.489045 
L 340.630854 67.371322 
L 340.82427 67.430183 
L 342.029309 67.489045 
L 342.1542 67.489045 
L 345.912234 67.430183 
L 346.083199 67.312461 
L 349.471398 67.371322 
L 349.523903 67.430183 
L 349.576343 67.371322 
L 349.628719 67.312461 
L 349.681031 67.371322 
L 351.120341 67.312461 
L 351.170859 67.253599 
L 351.372334 67.72449 
L 352.512727 67.783351 
L 352.756661 67.959935 
L 353.480212 67.901074 
L 353.671107 67.842213 
L 354.050356 67.901074 
L 354.238725 67.959935 
L 354.891551 67.901074 
L 355.030153 67.901074 
L 357.363777 67.959935 
L 357.581588 68.077658 
L 358.099846 68.077658 
L 358.142752 68.19538 
L 358.185615 68.077658 
L 358.313945 68.018796 
L 358.399285 67.842213 
L 358.441891 67.371322 
L 358.484455 72.139088 
L 358.526976 70.137804 
L 358.569455 68.901716 
L 358.611892 69.608052 
L 358.696639 74.90557 
L 358.823446 68.254242 
L 358.907775 68.077658 
L 358.991938 74.375818 
L 359.159767 65.840928 
L 359.201622 68.548548 
L 359.243436 66.959293 
L 359.32694 66.017512 
L 359.410282 66.135234 
L 359.493462 65.370037 
L 359.576479 71.373891 
L 359.659336 65.193453 
L 359.700704 66.606125 
L 359.742032 68.313103 
L 359.783321 66.252957 
L 359.865777 65.782067 
L 359.906946 66.135234 
L 360.357203 65.605483 
L 360.560307 65.899789 
L 360.600812 65.958651 
L 360.681707 65.899789 
L 360.923478 65.723205 
L 361.043851 65.664344 
L 361.083901 65.605483 
L 361.123913 65.723205 
L 361.283586 66.017512 
L 361.442665 65.840928 
L 361.482342 65.899789 
L 361.877102 65.958651 
L 361.916378 66.017512 
L 361.955617 65.899789 
L 361.994821 65.958651 
L 362.073121 65.899789 
L 362.112218 65.958651 
L 362.462483 66.311818 
L 362.694407 66.252957 
L 362.771436 66.135234 
L 362.809899 66.194096 
L 362.925079 66.135234 
L 363.268767 65.428899 
L 363.306785 65.723205 
L 363.344769 65.664344 
L 363.382718 65.428899 
L 363.420635 65.605483 
L 363.458517 65.899789 
L 363.534182 65.840928 
L 363.609713 65.193453 
L 363.647428 65.48776 
L 363.797957 65.605483 
L 363.873023 65.48776 
L 363.985376 66.429541 
L 364.022761 66.017512 
L 364.171976 66.488402 
L 364.209198 66.37068 
L 364.246388 66.547264 
L 364.394825 66.488402 
L 364.505815 66.37068 
L 364.69016 66.488402 
L 364.800386 66.429541 
L 364.983466 66.311818 
L 365.672102 66.252957 
L 365.779827 66.194096 
L 365.923038 66.252957 
L 366.101379 66.311818 
L 366.243517 66.37068 
L 367.156065 66.311818 
L 367.294743 66.252957 
L 368.388246 66.311818 
L 368.556605 66.429541 
L 370.814635 66.37068 
L 370.846498 66.311818 
L 370.878337 66.429541 
L 371.227014 66.37068 
L 371.384567 66.311818 
L 371.541541 66.37068 
L 371.76034 66.429541 
L 371.853769 66.488402 
L 371.884867 66.429541 
L 372.194605 66.488402 
L 372.256284 66.429541 
L 372.348635 66.547264 
L 372.532742 66.488402 
L 372.68556 66.429541 
L 372.776989 66.488402 
L 372.807422 66.311818 
L 372.837833 66.37068 
L 372.898591 68.077658 
L 372.989566 82.204373 
L 373.019847 76.023935 
L 373.170936 66.429541 
L 373.201089 66.37068 
L 373.351539 62.839001 
L 373.441555 63.545337 
L 373.501461 63.486475 
L 373.531382 63.604198 
L 373.561282 63.604198 
L 373.650858 63.192169 
L 373.680675 63.309891 
L 373.977704 65.546621 
L 374.09594 65.134592 
L 374.125448 65.252315 
L 374.154935 65.252315 
L 374.302068 65.664344 
L 374.331434 65.605483 
L 374.390105 65.723205 
L 374.448696 65.664344 
L 374.565637 65.252315 
L 374.594822 65.311176 
L 375.030225 65.370037 
L 375.116775 65.546621 
L 375.203151 65.48776 
L 380.726481 65.546621 
L 380.852664 65.605483 
L 381.775003 65.664344 
L 381.89813 65.782067 
L 382.045415 65.605483 
L 384.219129 65.664344 
L 384.335418 65.723205 
L 384.613224 65.311176 
L 384.751453 65.370037 
L 384.79743 65.311176 
L 384.843358 65.428899 
L 384.935065 65.370037 
L 385.072258 65.311176 
L 385.209011 65.370037 
L 385.345328 65.546621 
L 385.841468 65.605483 
L 385.908679 65.664344 
L 385.931059 65.546621 
L 385.998129 65.48776 
L 386.065095 65.664344 
L 386.087393 65.546621 
L 386.10968 65.370037 
L 386.198711 65.546621 
L 386.398355 65.782067 
L 386.486787 65.664344 
L 386.508866 65.782067 
L 386.991748 65.840928 
L 387.078961 65.782067 
L 387.165996 66.017512 
L 387.231157 65.782067 
L 387.296218 65.840928 
L 387.317883 65.958651 
L 387.36118 65.782067 
L 387.382812 65.782067 
L 387.447643 65.723205 
L 387.490809 65.782067 
L 387.533931 65.840928 
L 387.57701 66.017512 
L 387.598533 65.782067 
L 387.663038 65.958651 
L 387.705986 65.899789 
L 387.791755 66.194096 
L 387.81317 66.076373 
L 387.877351 65.958651 
L 387.920085 66.017512 
" clip-path="url(#p53ba7a62ff)" style="fill: none; stroke: #2ca02c; stroke-width: 1.5; stroke-linecap: square"/>
   </g>
   <g id="line2d_40">
    <path d="M 63.26554 246.89833 
L 92.87168 187.036374 
L 110.190162 148.717658 
L 122.47782 110.398942 
L 139.796302 62.191526 
L 146.380483 50.007234 
L 152.08396 44.356548 
L 157.114783 42.767293 
L 161.615008 42.414125 
L 377.280258 42.414125 
L 377.335018 238.4223 
L 377.389708 134.061191 
L 377.553358 59.013015 
L 377.580572 56.717424 
L 377.634948 59.719351 
L 377.66211 57.070592 
L 377.689255 57.776928 
L 377.959761 42.414125 
L 387.920085 42.414125 
L 387.920085 42.414125 
" clip-path="url(#p53ba7a62ff)" style="fill: none; stroke-dasharray: 5.55,2.4; stroke-dashoffset: 0; stroke: #d62728; stroke-width: 1.5"/>
   </g>
   <g id="line2d_41">
    <path d="M 63.26554 215.937278 
L 92.87168 185.623702 
L 110.190162 166.199468 
L 122.47782 154.839234 
L 132.008868 149.541716 
L 146.380483 142.419497 
L 157.114783 141.418855 
L 161.615008 140.830242 
L 165.685957 140.830242 
L 169.402442 140.594797 
L 172.821276 140.77138 
L 175.986623 140.30049 
L 181.6901 140.182767 
L 186.720923 139.594154 
L 189.030277 139.476432 
L 191.221148 139.476432 
L 195.292097 139.299848 
L 199.008582 139.358709 
L 200.752197 139.182125 
L 205.592763 139.123264 
L 215.123811 138.770096 
L 216.327063 138.828957 
L 218.636417 138.770096 
L 220.827288 138.94668 
L 225.858112 138.416928 
L 226.796889 138.475789 
L 227.715475 138.299205 
L 228.614722 138.299205 
L 229.495426 138.122621 
L 231.204159 138.181483 
L 232.033557 137.946037 
L 232.847155 138.06376 
L 235.198903 137.828315 
L 238.85178 137.298563 
L 240.90238 137.416286 
L 241.564605 137.239702 
L 242.859026 137.298563 
L 243.491817 137.121979 
L 244.729951 137.063118 
L 245.933204 137.004256 
L 247.676818 137.004256 
L 249.352038 136.768811 
L 250.433428 136.70995 
L 250.964027 136.70995 
L 251.488115 136.592227 
L 253.022866 136.651089 
L 253.522434 136.70995 
L 254.504377 136.592227 
L 254.987011 136.70995 
L 256.864791 136.533366 
L 257.773605 136.592227 
L 259.101566 136.415643 
L 259.964477 136.533366 
L 262.854356 136.239059 
L 263.645353 136.297921 
L 264.035425 136.297921 
L 264.805043 136.121337 
L 265.561039 136.062475 
L 266.303886 136.003614 
L 268.45792 136.062475 
L 269.15245 136.180198 
L 269.835866 136.121337 
L 270.173517 136.121337 
L 271.498046 135.768169 
L 272.782734 135.82703 
L 273.097957 135.885891 
L 273.72151 135.768169 
L 274.640097 135.709307 
L 275.539344 135.415001 
L 275.834934 135.473862 
L 276.420048 135.35614 
L 277.566764 135.415001 
L 277.848697 135.532724 
L 278.40704 135.35614 
L 280.570167 135.297278 
L 282.377013 135.002972 
L 285.070392 134.94411 
L 285.307028 134.885249 
L 286.009169 135.002972 
L 286.240674 134.885249 
L 286.699954 134.94411 
L 287.154348 134.708665 
L 287.603959 134.590943 
L 288.707706 134.532081 
L 289.14134 134.47322 
L 290.625303 134.47322 
L 290.833151 134.296636 
L 291.245837 134.237775 
L 292.460496 134.002329 
L 293.446974 134.002329 
L 293.835274 133.825745 
L 294.220075 133.766884 
L 294.979431 133.649161 
L 295.167179 133.708023 
L 295.540217 133.649161 
L 296.640174 133.708023 
L 297.00062 133.766884 
L 297.35805 133.708023 
L 298.238754 133.708023 
L 298.586013 133.531439 
L 299.611166 133.5903 
L 299.779658 133.413716 
L 299.947487 133.472578 
L 300.281181 133.354855 
L 303.172614 133.295994 
L 303.327651 133.237132 
L 303.482127 133.354855 
L 303.789413 133.354855 
L 305.441074 133.354855 
L 305.734633 133.178271 
L 306.315766 133.178271 
L 306.603394 133.060548 
L 307.031237 133.11941 
L 307.874277 132.883964 
L 308.01318 132.942826 
L 308.289638 132.766242 
L 309.108436 132.766242 
L 309.377917 132.589658 
L 309.512023 132.70738 
L 309.778977 132.589658 
L 312.235146 132.589658 
L 312.48566 132.70738 
L 312.858699 132.648519 
L 313.105593 132.70738 
L 313.351069 132.766242 
L 313.716657 132.70738 
L 315.615309 132.70738 
L 315.962098 132.471935 
L 316.306094 132.530797 
L 316.420147 132.589658 
L 316.533896 132.471935 
L 316.647342 132.530797 
L 316.873335 132.413074 
L 317.433142 132.354213 
L 317.655026 132.354213 
L 318.095367 132.471935 
L 318.204746 132.295351 
L 318.531214 132.354213 
L 319.069842 132.177629 
L 322.759556 132.118767 
L 323.053115 132.059906 
L 323.730339 132.001045 
L 324.585571 131.589015 
L 325.424013 131.647877 
L 325.516166 131.706738 
L 325.699876 131.647877 
L 327.406812 131.647877 
L 327.582585 131.530154 
L 327.931974 131.471293 
L 328.105603 131.294709 
L 328.278529 131.294709 
L 328.622294 131.176986 
L 329.048147 131.235848 
L 329.469795 131.530154 
L 329.637296 131.412432 
L 329.887322 131.471293 
L 330.053196 131.471293 
L 330.383025 131.471293 
L 330.465086 131.589015 
L 330.546989 131.471293 
L 330.628736 131.530154 
L 330.791761 131.530154 
L 330.873041 131.589015 
L 330.954167 131.471293 
L 331.196623 131.706738 
L 331.277137 131.530154 
L 331.3575 131.647877 
L 331.437711 131.530154 
L 331.517773 131.706738 
L 331.597684 131.589015 
L 331.75706 131.706738 
L 331.995014 131.647877 
L 332.074038 131.647877 
L 332.152916 131.530154 
L 332.310237 131.647877 
L 332.388681 131.647877 
L 332.545138 131.530154 
L 332.856342 131.471293 
L 333.088267 131.412432 
L 334.304367 131.35357 
L 334.453974 131.294709 
L 334.677405 131.412432 
L 334.751624 131.35357 
L 334.825713 131.471293 
L 334.899675 131.412432 
L 335.340773 131.35357 
L 335.559625 131.235848 
L 335.704907 131.294709 
L 335.993995 131.118125 
L 336.209534 131.176986 
L 336.779044 130.823818 
L 337.549925 130.764957 
L 337.688603 130.706096 
L 337.964614 130.823818 
L 338.101954 130.823818 
L 338.170458 130.88268 
L 338.238853 130.706096 
L 338.307139 130.764957 
L 338.579195 130.647234 
L 338.646939 130.647234 
L 338.714576 130.764957 
L 338.782106 130.588373 
L 338.849529 130.647234 
L 339.185058 130.588373 
L 339.251849 130.529512 
L 339.318535 130.647234 
L 339.385117 130.588373 
L 339.650414 130.470651 
L 340.110755 130.411789 
L 340.501422 130.176344 
L 340.630854 130.352928 
L 340.759896 130.176344 
L 340.82427 130.411789 
L 340.888548 130.352928 
L 341.016814 130.294067 
L 341.080803 130.352928 
L 341.272197 130.176344 
L 341.335805 130.294067 
L 341.399318 130.235205 
L 341.652431 130.294067 
L 341.841286 130.352928 
L 342.0918 130.294067 
L 342.1542 130.235205 
L 342.216509 130.352928 
L 342.278727 130.176344 
L 342.340854 130.235205 
L 342.526696 130.235205 
L 342.711733 129.882037 
L 343.018358 129.705454 
L 343.07942 129.705454 
L 343.140394 129.882037 
L 343.262083 129.705454 
L 343.383426 129.764315 
L 343.504425 129.764315 
L 343.564796 129.823176 
L 343.745399 129.705454 
L 343.805431 129.705454 
L 343.865379 129.940899 
L 343.925242 129.823176 
L 344.044718 129.764315 
L 344.104331 129.587731 
L 344.163861 129.705454 
L 344.223308 129.705454 
L 344.401154 129.587731 
L 344.460272 129.646592 
L 344.519308 129.52887 
L 344.578262 129.587731 
L 344.637136 129.646592 
L 344.813271 129.411147 
L 344.988682 129.52887 
L 345.625764 129.470008 
L 345.912234 129.11684 
L 346.026287 129.234563 
L 346.196797 129.11684 
L 346.366628 129.11684 
L 346.423089 128.999118 
L 346.479475 129.11684 
L 346.535787 129.057979 
L 346.592025 129.11684 
L 347.261166 129.057979 
L 347.481904 128.940256 
L 348.461345 128.881395 
L 348.782897 128.64595 
L 349.418829 128.64595 
L 349.576343 128.410505 
L 349.681031 128.528227 
L 349.733279 128.469366 
L 350.148977 128.410505 
L 350.355319 128.292782 
L 350.866853 128.351643 
L 351.069764 128.469366 
L 352.070105 128.410505 
L 352.316573 128.233921 
L 352.365696 128.233921 
L 352.414763 128.116198 
L 352.463773 128.175059 
L 352.561626 128.292782 
L 352.610468 128.233921 
L 352.707985 128.233921 
L 352.756661 128.351643 
L 352.805281 128.292782 
L 352.853845 128.233921 
L 352.902355 128.292782 
L 352.999209 128.292782 
L 353.047554 128.175059 
L 353.095844 128.292782 
L 353.288461 128.116198 
L 353.432355 128.175059 
L 353.575766 128.116198 
L 353.718698 128.057337 
L 353.861152 128.057337 
L 353.908532 128.057337 
L 354.003134 127.939614 
L 354.097526 128.057337 
L 354.238725 127.880753 
L 354.426267 127.821891 
L 354.612989 127.76303 
L 355.21426 127.76303 
L 355.260163 127.645308 
L 355.351821 127.704169 
L 355.443283 127.704169 
L 355.625621 127.468724 
L 355.761865 127.527585 
L 355.807184 127.409862 
L 355.897677 127.468724 
L 356.123074 127.351001 
L 356.302539 127.29214 
L 356.481253 127.115556 
L 356.659222 126.997833 
L 356.880647 127.115556 
L 357.056963 127.115556 
L 357.100929 126.997833 
L 357.188725 127.056694 
L 357.451034 127.056694 
L 357.581588 127.29214 
L 357.625017 127.29214 
L 357.75504 127.468724 
L 357.884669 127.233278 
L 358.099846 127.409862 
L 358.185615 127.351001 
L 358.228434 127.409862 
L 358.313945 127.468724 
L 358.441891 127.233278 
L 358.526976 127.233278 
L 358.611892 127.409862 
L 358.654287 127.29214 
L 358.696639 127.233278 
L 358.73895 127.351001 
L 358.781219 127.409862 
L 358.823446 127.29214 
L 358.991938 127.351001 
L 359.117872 127.586446 
L 359.159767 127.29214 
L 359.243436 127.468724 
L 359.285208 127.29214 
L 359.368632 127.351001 
L 359.410282 127.468724 
L 359.451892 127.29214 
L 359.493462 127.409862 
L 359.534991 127.409862 
L 359.576479 127.527585 
L 359.617928 127.468724 
L 359.783321 127.29214 
L 359.906946 127.409862 
L 360.030215 127.174417 
L 360.153129 127.409862 
L 360.194022 127.351001 
L 360.275691 127.174417 
L 360.316466 127.351001 
L 360.357203 127.115556 
L 360.397901 127.174417 
L 360.438561 127.056694 
L 360.479181 127.115556 
L 360.519764 127.056694 
L 360.560307 127.29214 
L 360.600812 126.938972 
L 360.76245 127.115556 
L 361.043851 126.88011 
L 361.759056 126.938972 
L 361.798441 127.056694 
L 361.837789 126.938972 
L 361.877102 126.88011 
L 361.955617 126.938972 
L 362.151278 126.88011 
L 362.307164 127.115556 
L 362.384894 127.056694 
L 362.423706 127.115556 
L 362.963403 127.115556 
L 363.001693 126.938972 
L 363.078171 126.997833 
L 363.230716 126.938972 
L 363.382718 126.762388 
L 363.420635 126.821249 
L 363.647428 126.88011 
L 363.68511 126.997833 
L 363.797957 126.703526 
L 363.835507 126.821249 
L 363.873023 126.762388 
L 363.910507 126.526943 
L 363.947958 126.821249 
L 363.985376 126.703526 
L 364.060114 126.762388 
L 364.097434 126.585804 
L 364.134721 126.88011 
L 364.209198 126.703526 
L 364.283545 126.821249 
L 364.320671 126.762388 
L 364.431853 126.762388 
L 364.542747 126.88011 
L 364.726933 126.585804 
L 364.800386 126.762388 
L 364.837065 126.703526 
L 364.873712 126.644665 
L 364.910328 126.762388 
L 365.019988 126.762388 
L 365.165765 126.644665 
L 365.34729 126.585804 
L 365.455835 126.468081 
L 365.491956 126.644665 
L 365.564106 126.526943 
L 365.779827 126.173775 
L 365.815674 126.350359 
L 365.88728 126.232636 
L 366.030132 126.114913 
L 366.06577 126.173775 
L 366.101379 126.114913 
L 366.278978 125.820607 
L 366.31441 126.056052 
L 366.385185 125.997191 
L 366.491127 125.761745 
L 366.526383 125.997191 
L 366.596808 125.879468 
L 366.667117 125.938329 
L 366.702228 125.820607 
L 366.772364 125.938329 
L 366.807389 126.056052 
L 366.842385 125.879468 
L 366.877352 125.938329 
L 366.912291 125.938329 
L 366.947201 126.056052 
L 367.016936 125.997191 
L 367.121325 125.820607 
L 367.156065 125.938329 
L 367.190777 125.702884 
L 367.22546 125.879468 
L 367.329342 125.585162 
L 367.467459 125.820607 
L 367.501918 125.938329 
L 367.53635 125.702884 
L 367.570754 125.879468 
L 367.6738 125.761745 
L 367.776598 125.879468 
L 367.87915 125.644023 
L 367.981456 125.879468 
L 368.049524 125.938329 
L 368.117483 125.585162 
L 368.185335 125.408578 
L 368.21922 125.820607 
L 368.320716 125.5263 
L 368.354494 125.702884 
L 368.489341 125.467439 
L 368.522986 125.5263 
L 368.556605 125.585162 
L 368.657303 125.408578 
L 368.690816 125.585162 
L 368.724303 125.290855 
L 368.757763 125.467439 
L 368.857989 125.290855 
L 368.891345 125.644023 
L 368.957979 125.5263 
L 368.991258 125.290855 
L 369.057736 125.349716 
L 369.090937 125.467439 
L 369.157261 125.349716 
L 369.355617 125.173132 
L 369.520213 125.290855 
L 369.553057 125.114271 
L 369.651435 125.173132 
L 369.814897 125.408578 
L 369.977736 125.231994 
L 370.01023 125.173132 
L 370.042698 125.290855 
L 370.236994 125.290855 
L 370.269291 125.05541 
L 370.333812 125.231994 
L 370.366036 125.231994 
L 370.526791 124.937687 
L 370.590924 125.114271 
L 370.622954 124.996548 
L 370.654961 124.878826 
L 370.686943 125.114271 
L 370.750837 124.937687 
L 370.782748 124.996548 
L 370.846498 124.937687 
L 370.878337 124.937687 
L 370.941945 125.05541 
L 371.005458 124.996548 
L 371.037179 124.878826 
L 371.068877 124.937687 
L 371.100551 125.114271 
L 371.163829 125.05541 
L 371.195433 124.937687 
L 371.227014 124.996548 
L 371.258571 125.231994 
L 371.321615 125.05541 
L 371.447426 124.996548 
L 371.478821 125.05541 
L 371.510192 124.937687 
L 371.541541 124.937687 
L 371.635449 124.819964 
L 371.666706 124.878826 
L 371.791506 124.996548 
L 371.946994 124.761103 
L 372.070979 124.937687 
L 372.101919 124.878826 
L 372.163732 124.937687 
L 372.194605 124.996548 
L 372.225455 124.878826 
L 372.410092 124.761103 
L 372.532742 124.819964 
L 372.624498 124.878826 
L 372.593935 124.702242 
L 372.65504 124.819964 
L 372.68556 124.819964 
L 372.716058 124.937687 
L 372.746534 124.525658 
L 372.837833 124.584519 
L 372.898591 124.702242 
L 372.989566 124.407935 
L 373.019847 124.643381 
L 373.050108 124.466797 
L 373.080347 124.231351 
L 373.140761 124.584519 
L 373.170936 124.702242 
L 373.201089 124.290213 
L 373.261333 124.643381 
L 373.291423 124.819964 
L 373.351539 124.525658 
L 373.381566 124.702242 
L 373.501461 124.996548 
L 373.561282 124.466797 
L 373.62102 124.761103 
L 373.710471 124.643381 
L 373.740246 124.878826 
L 373.770001 124.525658 
L 373.829448 124.761103 
L 373.85914 124.643381 
L 373.888812 124.819964 
L 373.918463 124.819964 
L 373.977704 124.761103 
L 374.007294 124.819964 
L 374.066412 124.702242 
L 374.09594 124.937687 
L 374.213849 124.525658 
L 374.243276 124.702242 
L 374.390105 125.05541 
L 374.477961 125.585162 
L 374.507206 125.408578 
L 374.565637 125.114271 
L 374.594822 125.5263 
L 374.653133 125.290855 
L 374.769516 124.937687 
L 374.972427 125.5263 
L 375.030225 125.114271 
L 375.087945 125.290855 
L 375.231904 125.702884 
L 375.260637 125.467439 
L 375.404017 125.05541 
L 375.489814 125.173132 
L 375.632427 124.643381 
L 375.774566 125.5263 
L 375.831289 124.937687 
L 375.916233 124.996548 
L 375.972768 124.643381 
L 376.001008 124.937687 
L 376.057432 124.17249 
L 376.113781 124.702242 
L 376.170056 124.819964 
L 376.254329 124.996548 
L 376.310419 124.113629 
L 376.366436 124.761103 
L 376.394417 124.349074 
L 376.506157 123.701599 
L 376.617605 124.407935 
L 376.756508 123.995906 
L 376.894961 124.525658 
L 376.922598 123.760461 
L 377.005401 124.17249 
L 377.032967 123.937045 
L 377.060514 124.466797 
L 377.088044 124.054767 
L 377.115556 124.407935 
L 377.170527 123.760461 
L 377.197987 123.466154 
L 377.225428 124.231351 
L 377.252852 123.878183 
L 377.280258 124.643381 
L 377.307647 270.854884 
L 377.389708 128.116198 
L 377.526126 82.557541 
L 377.607769 90.739264 
L 377.634948 87.855059 
L 377.770587 79.437891 
L 377.797663 79.673337 
L 377.932787 75.670767 
L 377.959761 75.78849 
L 378.013657 75.78849 
L 378.040579 75.670767 
L 378.067485 75.906213 
L 378.094374 75.906213 
L 378.228564 75.965074 
L 378.282122 76.023935 
L 378.308876 76.082797 
L 378.335613 75.965074 
L 378.389037 76.023935 
L 378.919635 75.965074 
L 378.972335 75.906213 
L 379.024969 75.965074 
L 379.077538 75.906213 
L 379.234859 75.78849 
L 379.313303 75.906213 
L 379.365519 75.847351 
L 379.521785 75.78849 
L 379.677481 75.670767 
L 379.93572 75.611906 
L 380.064257 75.553045 
L 381.25396 75.494183 
L 381.403479 75.376461 
L 381.502868 75.435322 
L 381.52768 75.494183 
L 381.602027 75.435322 
L 381.676246 75.494183 
L 381.848922 75.670767 
L 382.094397 75.611906 
L 382.143324 75.553045 
L 382.192194 75.611906 
L 382.484247 75.611906 
L 382.629528 75.435322 
L 382.701984 75.435322 
L 382.822471 75.611906 
L 383.91529 75.670767 
L 384.055792 75.729629 
L 385.186249 75.670767 
L 385.345328 75.553045 
L 387.447643 75.494183 
L 387.57701 75.435322 
L 387.920085 75.376461 
L 387.920085 75.376461 
" clip-path="url(#p53ba7a62ff)" style="fill: none; stroke: #d62728; stroke-width: 1.5; stroke-linecap: square"/>
   </g>
   <g id="patch_3">
    <path d="M 47.032813 296.430125 
L 47.032813 30.318125 
" style="fill: none; stroke: #000000; stroke-width: 0.8; stroke-linejoin: miter; stroke-linecap: square"/>
   </g>
   <g id="patch_4">
    <path d="M 404.152812 296.430125 
L 404.152812 30.318125 
" style="fill: none; stroke: #000000; stroke-width: 0.8; stroke-linejoin: miter; stroke-linecap: square"/>
   </g>
   <g id="patch_5">
    <path d="M 47.032813 296.430125 
L 404.152813 296.430125 
" style="fill: none; stroke: #000000; stroke-width: 0.8; stroke-linejoin: miter; stroke-linecap: square"/>
   </g>
   <g id="patch_6">
    <path d="M 47.032813 30.318125 
L 404.152813 30.318125 
" style="fill: none; stroke: #000000; stroke-width: 0.8; stroke-linejoin: miter; stroke-linecap: square"/>
   </g>
   <g id="text_12">
    <!-- Accuracy per Epoch (12-Layer MLP on MNIST) -->
    <g transform="translate(71.717188 16.318125) scale(0.12 -0.12)">
     <defs>
      <path id="DejaVuSans-Bold-65" d="M 4031 1759 
L 4031 1441 
L 1416 1441 
Q 1456 1047 1700 850 
Q 1944 653 2381 653 
Q 2734 653 3104 758 
Q 3475 863 3866 1075 
L 3866 213 
Q 3469 63 3072 -14 
Q 2675 -91 2278 -91 
Q 1328 -91 801 392 
Q 275 875 275 1747 
Q 275 2603 792 3093 
Q 1309 3584 2216 3584 
Q 3041 3584 3536 3087 
Q 4031 2591 4031 1759 
z
M 2881 2131 
Q 2881 2450 2695 2645 
Q 2509 2841 2209 2841 
Q 1884 2841 1681 2658 
Q 1478 2475 1428 2131 
L 2881 2131 
z
" transform="scale(0.015625)"/>
      <path id="DejaVuSans-Bold-31" d="M 750 831 
L 1813 831 
L 1813 3847 
L 722 3622 
L 722 4441 
L 1806 4666 
L 2950 4666 
L 2950 831 
L 4013 831 
L 4013 0 
L 750 0 
L 750 831 
z
" transform="scale(0.015625)"/>
      <path id="DejaVuSans-Bold-32" d="M 1844 884 
L 3897 884 
L 3897 0 
L 506 0 
L 506 884 
L 2209 2388 
Q 2438 2594 2547 2791 
Q 2656 2988 2656 3200 
Q 2656 3528 2436 3728 
Q 2216 3928 1850 3928 
Q 1569 3928 1234 3808 
Q 900 3688 519 3450 
L 519 4475 
Q 925 4609 1322 4679 
Q 1719 4750 2100 4750 
Q 2938 4750 3402 4381 
Q 3866 4013 3866 3353 
Q 3866 2972 3669 2642 
Q 3472 2313 2841 1759 
L 1844 884 
z
" transform="scale(0.015625)"/>
      <path id="DejaVuSans-Bold-2d" d="M 347 2297 
L 2309 2297 
L 2309 1388 
L 347 1388 
L 347 2297 
z
" transform="scale(0.015625)"/>
      <path id="DejaVuSans-Bold-4c" d="M 588 4666 
L 1791 4666 
L 1791 909 
L 3903 909 
L 3903 0 
L 588 0 
L 588 4666 
z
" transform="scale(0.015625)"/>
      <path id="DejaVuSans-Bold-4d" d="M 588 4666 
L 2119 4666 
L 3181 2169 
L 4250 4666 
L 5778 4666 
L 5778 0 
L 4641 0 
L 4641 3413 
L 3566 897 
L 2803 897 
L 1728 3413 
L 1728 0 
L 588 0 
L 588 4666 
z
" transform="scale(0.015625)"/>
      <path id="DejaVuSans-Bold-50" d="M 588 4666 
L 2584 4666 
Q 3475 4666 3951 4270 
Q 4428 3875 4428 3144 
Q 4428 2409 3951 2014 
Q 3475 1619 2584 1619 
L 1791 1619 
L 1791 0 
L 588 0 
L 588 4666 
z
M 1791 3794 
L 1791 2491 
L 2456 2491 
Q 2806 2491 2997 2661 
Q 3188 2831 3188 3144 
Q 3188 3456 2997 3625 
Q 2806 3794 2456 3794 
L 1791 3794 
z
" transform="scale(0.015625)"/>
      <path id="DejaVuSans-Bold-6e" d="M 4056 2131 
L 4056 0 
L 2931 0 
L 2931 347 
L 2931 1631 
Q 2931 2084 2911 2256 
Q 2891 2428 2841 2509 
Q 2775 2619 2662 2680 
Q 2550 2741 2406 2741 
Q 2056 2741 1856 2470 
Q 1656 2200 1656 1722 
L 1656 0 
L 538 0 
L 538 3500 
L 1656 3500 
L 1656 2988 
Q 1909 3294 2193 3439 
Q 2478 3584 2822 3584 
Q 3428 3584 3742 3212 
Q 4056 2841 4056 2131 
z
" transform="scale(0.015625)"/>
      <path id="DejaVuSans-Bold-4e" d="M 588 4666 
L 1931 4666 
L 3628 1466 
L 3628 4666 
L 4769 4666 
L 4769 0 
L 3425 0 
L 1728 3200 
L 1728 0 
L 588 0 
L 588 4666 
z
" transform="scale(0.015625)"/>
      <path id="DejaVuSans-Bold-49" d="M 588 4666 
L 1791 4666 
L 1791 0 
L 588 0 
L 588 4666 
z
" transform="scale(0.015625)"/>
      <path id="DejaVuSans-Bold-53" d="M 3834 4519 
L 3834 3531 
Q 3450 3703 3084 3790 
Q 2719 3878 2394 3878 
Q 1963 3878 1756 3759 
Q 1550 3641 1550 3391 
Q 1550 3203 1689 3098 
Q 1828 2994 2194 2919 
L 2706 2816 
Q 3484 2659 3812 2340 
Q 4141 2022 4141 1434 
Q 4141 663 3683 286 
Q 3225 -91 2284 -91 
Q 1841 -91 1394 -6 
Q 947 78 500 244 
L 500 1259 
Q 947 1022 1364 901 
Q 1781 781 2169 781 
Q 2563 781 2772 912 
Q 2981 1044 2981 1288 
Q 2981 1506 2839 1625 
Q 2697 1744 2272 1838 
L 1806 1941 
Q 1106 2091 782 2419 
Q 459 2747 459 3303 
Q 459 4000 909 4375 
Q 1359 4750 2203 4750 
Q 2588 4750 2994 4692 
Q 3400 4634 3834 4519 
z
" transform="scale(0.015625)"/>
      <path id="DejaVuSans-Bold-54" d="M 31 4666 
L 4331 4666 
L 4331 3756 
L 2784 3756 
L 2784 0 
L 1581 0 
L 1581 3756 
L 31 3756 
L 31 4666 
z
" transform="scale(0.015625)"/>
     </defs>
     <use xlink:href="#DejaVuSans-Bold-41"/>
     <use xlink:href="#DejaVuSans-Bold-63" transform="translate(77.392578 0)"/>
     <use xlink:href="#DejaVuSans-Bold-63" transform="translate(136.669922 0)"/>
     <use xlink:href="#DejaVuSans-Bold-75" transform="translate(195.947266 0)"/>
     <use xlink:href="#DejaVuSans-Bold-72" transform="translate(267.138672 0)"/>
     <use xlink:href="#DejaVuSans-Bold-61" transform="translate(316.455078 0)"/>
     <use xlink:href="#DejaVuSans-Bold-63" transform="translate(383.935547 0)"/>
     <use xlink:href="#DejaVuSans-Bold-79" transform="translate(443.212891 0)"/>
     <use xlink:href="#DejaVuSans-Bold-20" transform="translate(508.398438 0)"/>
     <use xlink:href="#DejaVuSans-Bold-70" transform="translate(543.212891 0)"/>
     <use xlink:href="#DejaVuSans-Bold-65" transform="translate(614.794922 0)"/>
     <use xlink:href="#DejaVuSans-Bold-72" transform="translate(682.617188 0)"/>
     <use xlink:href="#DejaVuSans-Bold-20" transform="translate(731.933594 0)"/>
     <use xlink:href="#DejaVuSans-Bold-45" transform="translate(766.748047 0)"/>
     <use xlink:href="#DejaVuSans-Bold-70" transform="translate(835.058594 0)"/>
     <use xlink:href="#DejaVuSans-Bold-6f" transform="translate(906.640625 0)"/>
     <use xlink:href="#DejaVuSans-Bold-63" transform="translate(975.341797 0)"/>
     <use xlink:href="#DejaVuSans-Bold-68" transform="translate(1034.619141 0)"/>
     <use xlink:href="#DejaVuSans-Bold-20" transform="translate(1105.810547 0)"/>
     <use xlink:href="#DejaVuSans-Bold-28" transform="translate(1140.625 0)"/>
     <use xlink:href="#DejaVuSans-Bold-31" transform="translate(1186.328125 0)"/>
     <use xlink:href="#DejaVuSans-Bold-32" transform="translate(1255.908203 0)"/>
     <use xlink:href="#DejaVuSans-Bold-2d" transform="translate(1325.488281 0)"/>
     <use xlink:href="#DejaVuSans-Bold-4c" transform="translate(1366.992188 0)"/>
     <use xlink:href="#DejaVuSans-Bold-61" transform="translate(1430.712891 0)"/>
     <use xlink:href="#DejaVuSans-Bold-79" transform="translate(1495.068359 0)"/>
     <use xlink:href="#DejaVuSans-Bold-65" transform="translate(1560.253906 0)"/>
     <use xlink:href="#DejaVuSans-Bold-72" transform="translate(1628.076172 0)"/>
     <use xlink:href="#DejaVuSans-Bold-20" transform="translate(1677.392578 0)"/>
     <use xlink:href="#DejaVuSans-Bold-4d" transform="translate(1712.207031 0)"/>
     <use xlink:href="#DejaVuSans-Bold-4c" transform="translate(1811.71875 0)"/>
     <use xlink:href="#DejaVuSans-Bold-50" transform="translate(1875.439453 0)"/>
     <use xlink:href="#DejaVuSans-Bold-20" transform="translate(1948.730469 0)"/>
     <use xlink:href="#DejaVuSans-Bold-6f" transform="translate(1983.544922 0)"/>
     <use xlink:href="#DejaVuSans-Bold-6e" transform="translate(2052.246094 0)"/>
     <use xlink:href="#DejaVuSans-Bold-20" transform="translate(2123.4375 0)"/>
     <use xlink:href="#DejaVuSans-Bold-4d" transform="translate(2158.251953 0)"/>
     <use xlink:href="#DejaVuSans-Bold-4e" transform="translate(2257.763672 0)"/>
     <use xlink:href="#DejaVuSans-Bold-49" transform="translate(2341.455078 0)"/>
     <use xlink:href="#DejaVuSans-Bold-53" transform="translate(2378.662109 0)"/>
     <use xlink:href="#DejaVuSans-Bold-54" transform="translate(2450.683594 0)"/>
     <use xlink:href="#DejaVuSans-Bold-29" transform="translate(2518.896484 0)"/>
    </g>
   </g>
   <g id="legend_1">
    <g id="patch_7">
     <path d="M 154.055313 291.430125 
L 297.130313 291.430125 
Q 299.130313 291.430125 299.130313 289.430125 
L 299.130313 231.717625 
Q 299.130313 229.717625 297.130313 229.717625 
L 154.055313 229.717625 
Q 152.055313 229.717625 152.055313 231.717625 
L 152.055313 289.430125 
Q 152.055313 291.430125 154.055313 291.430125 
z
" style="fill: #ffffff; opacity: 0.8; stroke: #cccccc; stroke-linejoin: miter"/>
    </g>
    <g id="line2d_42">
     <path d="M 156.055313 237.816062 
L 166.055313 237.816062 
L 176.055313 237.816062 
" style="fill: none; stroke-dasharray: 5.55,2.4; stroke-dashoffset: 0; stroke: #2ca02c; stroke-width: 1.5"/>
    </g>
    <g id="text_13">
     <!-- Train (no scaling) -->
     <g transform="translate(184.055313 241.316062) scale(0.1 -0.1)">
      <defs>
       <path id="DejaVuSans-54" d="M -19 4666 
L 3928 4666 
L 3928 4134 
L 2272 4134 
L 2272 0 
L 1638 0 
L 1638 4134 
L -19 4134 
L -19 4666 
z
" transform="scale(0.015625)"/>
       <path id="DejaVuSans-72" d="M 2631 2963 
Q 2534 3019 2420 3045 
Q 2306 3072 2169 3072 
Q 1681 3072 1420 2755 
Q 1159 2438 1159 1844 
L 1159 0 
L 581 0 
L 581 3500 
L 1159 3500 
L 1159 2956 
Q 1341 3275 1631 3429 
Q 1922 3584 2338 3584 
Q 2397 3584 2469 3576 
Q 2541 3569 2628 3553 
L 2631 2963 
z
" transform="scale(0.015625)"/>
       <path id="DejaVuSans-61" d="M 2194 1759 
Q 1497 1759 1228 1600 
Q 959 1441 959 1056 
Q 959 750 1161 570 
Q 1363 391 1709 391 
Q 2188 391 2477 730 
Q 2766 1069 2766 1631 
L 2766 1759 
L 2194 1759 
z
M 3341 1997 
L 3341 0 
L 2766 0 
L 2766 531 
Q 2569 213 2275 61 
Q 1981 -91 1556 -91 
Q 1019 -91 701 211 
Q 384 513 384 1019 
Q 384 1609 779 1909 
Q 1175 2209 1959 2209 
L 2766 2209 
L 2766 2266 
Q 2766 2663 2505 2880 
Q 2244 3097 1772 3097 
Q 1472 3097 1187 3025 
Q 903 2953 641 2809 
L 641 3341 
Q 956 3463 1253 3523 
Q 1550 3584 1831 3584 
Q 2591 3584 2966 3190 
Q 3341 2797 3341 1997 
z
" transform="scale(0.015625)"/>
       <path id="DejaVuSans-69" d="M 603 3500 
L 1178 3500 
L 1178 0 
L 603 0 
L 603 3500 
z
M 603 4863 
L 1178 4863 
L 1178 4134 
L 603 4134 
L 603 4863 
z
" transform="scale(0.015625)"/>
       <path id="DejaVuSans-6e" d="M 3513 2113 
L 3513 0 
L 2938 0 
L 2938 2094 
Q 2938 2591 2744 2837 
Q 2550 3084 2163 3084 
Q 1697 3084 1428 2787 
Q 1159 2491 1159 1978 
L 1159 0 
L 581 0 
L 581 3500 
L 1159 3500 
L 1159 2956 
Q 1366 3272 1645 3428 
Q 1925 3584 2291 3584 
Q 2894 3584 3203 3211 
Q 3513 2838 3513 2113 
z
" transform="scale(0.015625)"/>
       <path id="DejaVuSans-20" transform="scale(0.015625)"/>
       <path id="DejaVuSans-28" d="M 1984 4856 
Q 1566 4138 1362 3434 
Q 1159 2731 1159 2009 
Q 1159 1288 1364 580 
Q 1569 -128 1984 -844 
L 1484 -844 
Q 1016 -109 783 600 
Q 550 1309 550 2009 
Q 550 2706 781 3412 
Q 1013 4119 1484 4856 
L 1984 4856 
z
" transform="scale(0.015625)"/>
       <path id="DejaVuSans-6f" d="M 1959 3097 
Q 1497 3097 1228 2736 
Q 959 2375 959 1747 
Q 959 1119 1226 758 
Q 1494 397 1959 397 
Q 2419 397 2687 759 
Q 2956 1122 2956 1747 
Q 2956 2369 2687 2733 
Q 2419 3097 1959 3097 
z
M 1959 3584 
Q 2709 3584 3137 3096 
Q 3566 2609 3566 1747 
Q 3566 888 3137 398 
Q 2709 -91 1959 -91 
Q 1206 -91 779 398 
Q 353 888 353 1747 
Q 353 2609 779 3096 
Q 1206 3584 1959 3584 
z
" transform="scale(0.015625)"/>
       <path id="DejaVuSans-73" d="M 2834 3397 
L 2834 2853 
Q 2591 2978 2328 3040 
Q 2066 3103 1784 3103 
Q 1356 3103 1142 2972 
Q 928 2841 928 2578 
Q 928 2378 1081 2264 
Q 1234 2150 1697 2047 
L 1894 2003 
Q 2506 1872 2764 1633 
Q 3022 1394 3022 966 
Q 3022 478 2636 193 
Q 2250 -91 1575 -91 
Q 1294 -91 989 -36 
Q 684 19 347 128 
L 347 722 
Q 666 556 975 473 
Q 1284 391 1588 391 
Q 1994 391 2212 530 
Q 2431 669 2431 922 
Q 2431 1156 2273 1281 
Q 2116 1406 1581 1522 
L 1381 1569 
Q 847 1681 609 1914 
Q 372 2147 372 2553 
Q 372 3047 722 3315 
Q 1072 3584 1716 3584 
Q 2034 3584 2315 3537 
Q 2597 3491 2834 3397 
z
" transform="scale(0.015625)"/>
       <path id="DejaVuSans-63" d="M 3122 3366 
L 3122 2828 
Q 2878 2963 2633 3030 
Q 2388 3097 2138 3097 
Q 1578 3097 1268 2742 
Q 959 2388 959 1747 
Q 959 1106 1268 751 
Q 1578 397 2138 397 
Q 2388 397 2633 464 
Q 2878 531 3122 666 
L 3122 134 
Q 2881 22 2623 -34 
Q 2366 -91 2075 -91 
Q 1284 -91 818 406 
Q 353 903 353 1747 
Q 353 2603 823 3093 
Q 1294 3584 2113 3584 
Q 2378 3584 2631 3529 
Q 2884 3475 3122 3366 
z
" transform="scale(0.015625)"/>
       <path id="DejaVuSans-6c" d="M 603 4863 
L 1178 4863 
L 1178 0 
L 603 0 
L 603 4863 
z
" transform="scale(0.015625)"/>
       <path id="DejaVuSans-67" d="M 2906 1791 
Q 2906 2416 2648 2759 
Q 2391 3103 1925 3103 
Q 1463 3103 1205 2759 
Q 947 2416 947 1791 
Q 947 1169 1205 825 
Q 1463 481 1925 481 
Q 2391 481 2648 825 
Q 2906 1169 2906 1791 
z
M 3481 434 
Q 3481 -459 3084 -895 
Q 2688 -1331 1869 -1331 
Q 1566 -1331 1297 -1286 
Q 1028 -1241 775 -1147 
L 775 -588 
Q 1028 -725 1275 -790 
Q 1522 -856 1778 -856 
Q 2344 -856 2625 -561 
Q 2906 -266 2906 331 
L 2906 616 
Q 2728 306 2450 153 
Q 2172 0 1784 0 
Q 1141 0 747 490 
Q 353 981 353 1791 
Q 353 2603 747 3093 
Q 1141 3584 1784 3584 
Q 2172 3584 2450 3431 
Q 2728 3278 2906 2969 
L 2906 3500 
L 3481 3500 
L 3481 434 
z
" transform="scale(0.015625)"/>
       <path id="DejaVuSans-29" d="M 513 4856 
L 1013 4856 
Q 1481 4119 1714 3412 
Q 1947 2706 1947 2009 
Q 1947 1309 1714 600 
Q 1481 -109 1013 -844 
L 513 -844 
Q 928 -128 1133 580 
Q 1338 1288 1338 2009 
Q 1338 2731 1133 3434 
Q 928 4138 513 4856 
z
" transform="scale(0.015625)"/>
      </defs>
      <use xlink:href="#DejaVuSans-54"/>
      <use xlink:href="#DejaVuSans-72" transform="translate(46.333984 0)"/>
      <use xlink:href="#DejaVuSans-61" transform="translate(87.447266 0)"/>
      <use xlink:href="#DejaVuSans-69" transform="translate(148.726562 0)"/>
      <use xlink:href="#DejaVuSans-6e" transform="translate(176.509766 0)"/>
      <use xlink:href="#DejaVuSans-20" transform="translate(239.888672 0)"/>
      <use xlink:href="#DejaVuSans-28" transform="translate(271.675781 0)"/>
      <use xlink:href="#DejaVuSans-6e" transform="translate(310.689453 0)"/>
      <use xlink:href="#DejaVuSans-6f" transform="translate(374.068359 0)"/>
      <use xlink:href="#DejaVuSans-20" transform="translate(435.25 0)"/>
      <use xlink:href="#DejaVuSans-73" transform="translate(467.037109 0)"/>
      <use xlink:href="#DejaVuSans-63" transform="translate(519.136719 0)"/>
      <use xlink:href="#DejaVuSans-61" transform="translate(574.117188 0)"/>
      <use xlink:href="#DejaVuSans-6c" transform="translate(635.396484 0)"/>
      <use xlink:href="#DejaVuSans-69" transform="translate(663.179688 0)"/>
      <use xlink:href="#DejaVuSans-6e" transform="translate(690.962891 0)"/>
      <use xlink:href="#DejaVuSans-67" transform="translate(754.341797 0)"/>
      <use xlink:href="#DejaVuSans-29" transform="translate(817.818359 0)"/>
     </g>
    </g>
    <g id="line2d_43">
     <path d="M 156.055313 252.494187 
L 166.055313 252.494187 
L 176.055313 252.494187 
" style="fill: none; stroke: #2ca02c; stroke-width: 1.5; stroke-linecap: square"/>
    </g>
    <g id="text_14">
     <!-- Validation (no scaling) -->
     <g transform="translate(184.055313 255.994187) scale(0.1 -0.1)">
      <defs>
       <path id="DejaVuSans-56" d="M 1831 0 
L 50 4666 
L 709 4666 
L 2188 738 
L 3669 4666 
L 4325 4666 
L 2547 0 
L 1831 0 
z
" transform="scale(0.015625)"/>
       <path id="DejaVuSans-64" d="M 2906 2969 
L 2906 4863 
L 3481 4863 
L 3481 0 
L 2906 0 
L 2906 525 
Q 2725 213 2448 61 
Q 2172 -91 1784 -91 
Q 1150 -91 751 415 
Q 353 922 353 1747 
Q 353 2572 751 3078 
Q 1150 3584 1784 3584 
Q 2172 3584 2448 3432 
Q 2725 3281 2906 2969 
z
M 947 1747 
Q 947 1113 1208 752 
Q 1469 391 1925 391 
Q 2381 391 2643 752 
Q 2906 1113 2906 1747 
Q 2906 2381 2643 2742 
Q 2381 3103 1925 3103 
Q 1469 3103 1208 2742 
Q 947 2381 947 1747 
z
" transform="scale(0.015625)"/>
       <path id="DejaVuSans-74" d="M 1172 4494 
L 1172 3500 
L 2356 3500 
L 2356 3053 
L 1172 3053 
L 1172 1153 
Q 1172 725 1289 603 
Q 1406 481 1766 481 
L 2356 481 
L 2356 0 
L 1766 0 
Q 1100 0 847 248 
Q 594 497 594 1153 
L 594 3053 
L 172 3053 
L 172 3500 
L 594 3500 
L 594 4494 
L 1172 4494 
z
" transform="scale(0.015625)"/>
      </defs>
      <use xlink:href="#DejaVuSans-56"/>
      <use xlink:href="#DejaVuSans-61" transform="translate(60.658203 0)"/>
      <use xlink:href="#DejaVuSans-6c" transform="translate(121.9375 0)"/>
      <use xlink:href="#DejaVuSans-69" transform="translate(149.720703 0)"/>
      <use xlink:href="#DejaVuSans-64" transform="translate(177.503906 0)"/>
      <use xlink:href="#DejaVuSans-61" transform="translate(240.980469 0)"/>
      <use xlink:href="#DejaVuSans-74" transform="translate(302.259766 0)"/>
      <use xlink:href="#DejaVuSans-69" transform="translate(341.46875 0)"/>
      <use xlink:href="#DejaVuSans-6f" transform="translate(369.251953 0)"/>
      <use xlink:href="#DejaVuSans-6e" transform="translate(430.433594 0)"/>
      <use xlink:href="#DejaVuSans-20" transform="translate(493.8125 0)"/>
      <use xlink:href="#DejaVuSans-28" transform="translate(525.599609 0)"/>
      <use xlink:href="#DejaVuSans-6e" transform="translate(564.613281 0)"/>
      <use xlink:href="#DejaVuSans-6f" transform="translate(627.992188 0)"/>
      <use xlink:href="#DejaVuSans-20" transform="translate(689.173828 0)"/>
      <use xlink:href="#DejaVuSans-73" transform="translate(720.960938 0)"/>
      <use xlink:href="#DejaVuSans-63" transform="translate(773.060547 0)"/>
      <use xlink:href="#DejaVuSans-61" transform="translate(828.041016 0)"/>
      <use xlink:href="#DejaVuSans-6c" transform="translate(889.320312 0)"/>
      <use xlink:href="#DejaVuSans-69" transform="translate(917.103516 0)"/>
      <use xlink:href="#DejaVuSans-6e" transform="translate(944.886719 0)"/>
      <use xlink:href="#DejaVuSans-67" transform="translate(1008.265625 0)"/>
      <use xlink:href="#DejaVuSans-29" transform="translate(1071.742188 0)"/>
     </g>
    </g>
    <g id="line2d_44">
     <path d="M 156.055313 267.172312 
L 166.055313 267.172312 
L 176.055313 267.172312 
" style="fill: none; stroke-dasharray: 5.55,2.4; stroke-dashoffset: 0; stroke: #d62728; stroke-width: 1.5"/>
    </g>
    <g id="text_15">
     <!-- Train (CE loss) -->
     <g transform="translate(184.055313 270.672312) scale(0.1 -0.1)">
      <defs>
       <path id="DejaVuSans-43" d="M 4122 4306 
L 4122 3641 
Q 3803 3938 3442 4084 
Q 3081 4231 2675 4231 
Q 1875 4231 1450 3742 
Q 1025 3253 1025 2328 
Q 1025 1406 1450 917 
Q 1875 428 2675 428 
Q 3081 428 3442 575 
Q 3803 722 4122 1019 
L 4122 359 
Q 3791 134 3420 21 
Q 3050 -91 2638 -91 
Q 1578 -91 968 557 
Q 359 1206 359 2328 
Q 359 3453 968 4101 
Q 1578 4750 2638 4750 
Q 3056 4750 3426 4639 
Q 3797 4528 4122 4306 
z
" transform="scale(0.015625)"/>
       <path id="DejaVuSans-45" d="M 628 4666 
L 3578 4666 
L 3578 4134 
L 1259 4134 
L 1259 2753 
L 3481 2753 
L 3481 2222 
L 1259 2222 
L 1259 531 
L 3634 531 
L 3634 0 
L 628 0 
L 628 4666 
z
" transform="scale(0.015625)"/>
      </defs>
      <use xlink:href="#DejaVuSans-54"/>
      <use xlink:href="#DejaVuSans-72" transform="translate(46.333984 0)"/>
      <use xlink:href="#DejaVuSans-61" transform="translate(87.447266 0)"/>
      <use xlink:href="#DejaVuSans-69" transform="translate(148.726562 0)"/>
      <use xlink:href="#DejaVuSans-6e" transform="translate(176.509766 0)"/>
      <use xlink:href="#DejaVuSans-20" transform="translate(239.888672 0)"/>
      <use xlink:href="#DejaVuSans-28" transform="translate(271.675781 0)"/>
      <use xlink:href="#DejaVuSans-43" transform="translate(310.689453 0)"/>
      <use xlink:href="#DejaVuSans-45" transform="translate(380.513672 0)"/>
      <use xlink:href="#DejaVuSans-20" transform="translate(443.697266 0)"/>
      <use xlink:href="#DejaVuSans-6c" transform="translate(475.484375 0)"/>
      <use xlink:href="#DejaVuSans-6f" transform="translate(503.267578 0)"/>
      <use xlink:href="#DejaVuSans-73" transform="translate(564.449219 0)"/>
      <use xlink:href="#DejaVuSans-73" transform="translate(616.548828 0)"/>
      <use xlink:href="#DejaVuSans-29" transform="translate(668.648438 0)"/>
     </g>
    </g>
    <g id="line2d_45">
     <path d="M 156.055313 281.850437 
L 166.055313 281.850437 
L 176.055313 281.850437 
" style="fill: none; stroke: #d62728; stroke-width: 1.5; stroke-linecap: square"/>
    </g>
    <g id="text_16">
     <!-- Validation (CE loss) -->
     <g transform="translate(184.055313 285.350437) scale(0.1 -0.1)">
      <use xlink:href="#DejaVuSans-56"/>
      <use xlink:href="#DejaVuSans-61" transform="translate(60.658203 0)"/>
      <use xlink:href="#DejaVuSans-6c" transform="translate(121.9375 0)"/>
      <use xlink:href="#DejaVuSans-69" transform="translate(149.720703 0)"/>
      <use xlink:href="#DejaVuSans-64" transform="translate(177.503906 0)"/>
      <use xlink:href="#DejaVuSans-61" transform="translate(240.980469 0)"/>
      <use xlink:href="#DejaVuSans-74" transform="translate(302.259766 0)"/>
      <use xlink:href="#DejaVuSans-69" transform="translate(341.46875 0)"/>
      <use xlink:href="#DejaVuSans-6f" transform="translate(369.251953 0)"/>
      <use xlink:href="#DejaVuSans-6e" transform="translate(430.433594 0)"/>
      <use xlink:href="#DejaVuSans-20" transform="translate(493.8125 0)"/>
      <use xlink:href="#DejaVuSans-28" transform="translate(525.599609 0)"/>
      <use xlink:href="#DejaVuSans-43" transform="translate(564.613281 0)"/>
      <use xlink:href="#DejaVuSans-45" transform="translate(634.4375 0)"/>
      <use xlink:href="#DejaVuSans-20" transform="translate(697.621094 0)"/>
      <use xlink:href="#DejaVuSans-6c" transform="translate(729.408203 0)"/>
      <use xlink:href="#DejaVuSans-6f" transform="translate(757.191406 0)"/>
      <use xlink:href="#DejaVuSans-73" transform="translate(818.373047 0)"/>
      <use xlink:href="#DejaVuSans-73" transform="translate(870.472656 0)"/>
      <use xlink:href="#DejaVuSans-29" transform="translate(922.572266 0)"/>
     </g>
    </g>
   </g>
  </g>
 </g>
 <defs>
  <clipPath id="p53ba7a62ff">
   <rect x="47.032813" y="30.318125" width="357.12" height="266.112"/>
  </clipPath>
 </defs>
</svg>
