<?xml version="1.0" encoding="utf-8" standalone="no"?>
<!DOCTYPE svg PUBLIC "-//W3C//DTD SVG 1.1//EN"
  "http://www.w3.org/Graphics/SVG/1.1/DTD/svg11.dtd">
<svg xmlns:xlink="http://www.w3.org/1999/xlink" width="411.352812pt" height="333.986375pt" viewBox="0 0 411.352812 333.986375" xmlns="http://www.w3.org/2000/svg" version="1.1">
 <metadata>
  <rdf:RDF xmlns:dc="http://purl.org/dc/elements/1.1/" xmlns:cc="http://creativecommons.org/ns#" xmlns:rdf="http://www.w3.org/1999/02/22-rdf-syntax-ns#">
   <cc:Work>
    <dc:type rdf:resource="http://purl.org/dc/dcmitype/StillImage"/>
    <dc:date>2025-11-26T12:46:23.181596</dc:date>
    <dc:format>image/svg+xml</dc:format>
    <dc:creator>
     <cc:Agent>
      <dc:title>Matplotlib v3.10.7, https://matplotlib.org/</dc:title>
     </cc:Agent>
    </dc:creator>
   </cc:Work>
  </rdf:RDF>
 </metadata>
 <defs>
  <style type="text/css">*{stroke-linejoin: round; stroke-linecap: butt}</style>
 </defs>
 <g id="figure_1">
  <g id="patch_1">
   <path d="M 0 333.986375 
L 411.352812 333.986375 
L 411.352812 0 
L 0 0 
z
" style="fill: #ffffff"/>
  </g>
  <g id="axes_1">
   <g id="patch_2">
    <path d="M 47.032813 296.430125 
L 404.152812 296.430125 
L 404.152812 30.318125 
L 47.032813 30.318125 
z
" style="fill: #ffffff"/>
   </g>
   <g id="matplotlib.axis_1">
    <g id="xtick_1">
     <g id="line2d_1">
      <defs>
       <path id="m3db872be2a" d="M 0 0 
L 0 3.5 
" style="stroke: #000000; stroke-width: 0.8"/>
      </defs>
      <g>
       <use xlink:href="#m3db872be2a" x="63.26554" y="296.430125" style="stroke: #000000; stroke-width: 0.8"/>
      </g>
     </g>
     <g id="text_1">
      <!-- $\mathdefault{10^{0}}$ -->
      <g transform="translate(54.46554 311.028562) scale(0.1 -0.1)">
       <defs>
        <path id="DejaVuSans-31" d="M 794 531 
L 1825 531 
L 1825 4091 
L 703 3866 
L 703 4441 
L 1819 4666 
L 2450 4666 
L 2450 531 
L 3481 531 
L 3481 0 
L 794 0 
L 794 531 
z
" transform="scale(0.015625)"/>
        <path id="DejaVuSans-30" d="M 2034 4250 
Q 1547 4250 1301 3770 
Q 1056 3291 1056 2328 
Q 1056 1369 1301 889 
Q 1547 409 2034 409 
Q 2525 409 2770 889 
Q 3016 1369 3016 2328 
Q 3016 3291 2770 3770 
Q 2525 4250 2034 4250 
z
M 2034 4750 
Q 2819 4750 3233 4129 
Q 3647 3509 3647 2328 
Q 3647 1150 3233 529 
Q 2819 -91 2034 -91 
Q 1250 -91 836 529 
Q 422 1150 422 2328 
Q 422 3509 836 4129 
Q 1250 4750 2034 4750 
z
" transform="scale(0.015625)"/>
       </defs>
       <use xlink:href="#DejaVuSans-31" transform="translate(0 0.765625)"/>
       <use xlink:href="#DejaVuSans-30" transform="translate(63.623047 0.765625)"/>
       <use xlink:href="#DejaVuSans-30" transform="translate(128.203125 39.046875) scale(0.7)"/>
      </g>
     </g>
    </g>
    <g id="xtick_2">
     <g id="line2d_2">
      <g>
       <use xlink:href="#m3db872be2a" x="161.615008" y="296.430125" style="stroke: #000000; stroke-width: 0.8"/>
      </g>
     </g>
     <g id="text_2">
      <!-- $\mathdefault{10^{1}}$ -->
      <g transform="translate(152.815008 311.028562) scale(0.1 -0.1)">
       <use xlink:href="#DejaVuSans-31" transform="translate(0 0.684375)"/>
       <use xlink:href="#DejaVuSans-30" transform="translate(63.623047 0.684375)"/>
       <use xlink:href="#DejaVuSans-31" transform="translate(128.203125 38.965625) scale(0.7)"/>
      </g>
     </g>
    </g>
    <g id="xtick_3">
     <g id="line2d_3">
      <g>
       <use xlink:href="#m3db872be2a" x="259.964477" y="296.430125" style="stroke: #000000; stroke-width: 0.8"/>
      </g>
     </g>
     <g id="text_3">
      <!-- $\mathdefault{10^{2}}$ -->
      <g transform="translate(251.164477 311.028562) scale(0.1 -0.1)">
       <defs>
        <path id="DejaVuSans-32" d="M 1228 531 
L 3431 531 
L 3431 0 
L 469 0 
L 469 531 
Q 828 903 1448 1529 
Q 2069 2156 2228 2338 
Q 2531 2678 2651 2914 
Q 2772 3150 2772 3378 
Q 2772 3750 2511 3984 
Q 2250 4219 1831 4219 
Q 1534 4219 1204 4116 
Q 875 4013 500 3803 
L 500 4441 
Q 881 4594 1212 4672 
Q 1544 4750 1819 4750 
Q 2544 4750 2975 4387 
Q 3406 4025 3406 3419 
Q 3406 3131 3298 2873 
Q 3191 2616 2906 2266 
Q 2828 2175 2409 1742 
Q 1991 1309 1228 531 
z
" transform="scale(0.015625)"/>
       </defs>
       <use xlink:href="#DejaVuSans-31" transform="translate(0 0.765625)"/>
       <use xlink:href="#DejaVuSans-30" transform="translate(63.623047 0.765625)"/>
       <use xlink:href="#DejaVuSans-32" transform="translate(128.203125 39.046875) scale(0.7)"/>
      </g>
     </g>
    </g>
    <g id="xtick_4">
     <g id="line2d_4">
      <g>
       <use xlink:href="#m3db872be2a" x="358.313945" y="296.430125" style="stroke: #000000; stroke-width: 0.8"/>
      </g>
     </g>
     <g id="text_4">
      <!-- $\mathdefault{10^{3}}$ -->
      <g transform="translate(349.513945 311.028562) scale(0.1 -0.1)">
       <defs>
        <path id="DejaVuSans-33" d="M 2597 2516 
Q 3050 2419 3304 2112 
Q 3559 1806 3559 1356 
Q 3559 666 3084 287 
Q 2609 -91 1734 -91 
Q 1441 -91 1130 -33 
Q 819 25 488 141 
L 488 750 
Q 750 597 1062 519 
Q 1375 441 1716 441 
Q 2309 441 2620 675 
Q 2931 909 2931 1356 
Q 2931 1769 2642 2001 
Q 2353 2234 1838 2234 
L 1294 2234 
L 1294 2753 
L 1863 2753 
Q 2328 2753 2575 2939 
Q 2822 3125 2822 3475 
Q 2822 3834 2567 4026 
Q 2313 4219 1838 4219 
Q 1578 4219 1281 4162 
Q 984 4106 628 3988 
L 628 4550 
Q 988 4650 1302 4700 
Q 1616 4750 1894 4750 
Q 2613 4750 3031 4423 
Q 3450 4097 3450 3541 
Q 3450 3153 3228 2886 
Q 3006 2619 2597 2516 
z
" transform="scale(0.015625)"/>
       </defs>
       <use xlink:href="#DejaVuSans-31" transform="translate(0 0.765625)"/>
       <use xlink:href="#DejaVuSans-30" transform="translate(63.623047 0.765625)"/>
       <use xlink:href="#DejaVuSans-33" transform="translate(128.203125 39.046875) scale(0.7)"/>
      </g>
     </g>
    </g>
    <g id="xtick_5">
     <g id="line2d_5">
      <defs>
       <path id="mc5852f86e5" d="M 0 0 
L 0 2 
" style="stroke: #000000; stroke-width: 0.6"/>
      </defs>
      <g>
       <use xlink:href="#mc5852f86e5" x="48.031014" y="296.430125" style="stroke: #000000; stroke-width: 0.6"/>
      </g>
     </g>
    </g>
    <g id="xtick_6">
     <g id="line2d_6">
      <g>
       <use xlink:href="#mc5852f86e5" x="53.734492" y="296.430125" style="stroke: #000000; stroke-width: 0.6"/>
      </g>
     </g>
    </g>
    <g id="xtick_7">
     <g id="line2d_7">
      <g>
       <use xlink:href="#mc5852f86e5" x="58.765315" y="296.430125" style="stroke: #000000; stroke-width: 0.6"/>
      </g>
     </g>
    </g>
    <g id="xtick_8">
     <g id="line2d_8">
      <g>
       <use xlink:href="#mc5852f86e5" x="92.87168" y="296.430125" style="stroke: #000000; stroke-width: 0.6"/>
      </g>
     </g>
    </g>
    <g id="xtick_9">
     <g id="line2d_9">
      <g>
       <use xlink:href="#mc5852f86e5" x="110.190162" y="296.430125" style="stroke: #000000; stroke-width: 0.6"/>
      </g>
     </g>
    </g>
    <g id="xtick_10">
     <g id="line2d_10">
      <g>
       <use xlink:href="#mc5852f86e5" x="122.47782" y="296.430125" style="stroke: #000000; stroke-width: 0.6"/>
      </g>
     </g>
    </g>
    <g id="xtick_11">
     <g id="line2d_11">
      <g>
       <use xlink:href="#mc5852f86e5" x="132.008868" y="296.430125" style="stroke: #000000; stroke-width: 0.6"/>
      </g>
     </g>
    </g>
    <g id="xtick_12">
     <g id="line2d_12">
      <g>
       <use xlink:href="#mc5852f86e5" x="139.796302" y="296.430125" style="stroke: #000000; stroke-width: 0.6"/>
      </g>
     </g>
    </g>
    <g id="xtick_13">
     <g id="line2d_13">
      <g>
       <use xlink:href="#mc5852f86e5" x="146.380483" y="296.430125" style="stroke: #000000; stroke-width: 0.6"/>
      </g>
     </g>
    </g>
    <g id="xtick_14">
     <g id="line2d_14">
      <g>
       <use xlink:href="#mc5852f86e5" x="152.08396" y="296.430125" style="stroke: #000000; stroke-width: 0.6"/>
      </g>
     </g>
    </g>
    <g id="xtick_15">
     <g id="line2d_15">
      <g>
       <use xlink:href="#mc5852f86e5" x="157.114783" y="296.430125" style="stroke: #000000; stroke-width: 0.6"/>
      </g>
     </g>
    </g>
    <g id="xtick_16">
     <g id="line2d_16">
      <g>
       <use xlink:href="#mc5852f86e5" x="191.221148" y="296.430125" style="stroke: #000000; stroke-width: 0.6"/>
      </g>
     </g>
    </g>
    <g id="xtick_17">
     <g id="line2d_17">
      <g>
       <use xlink:href="#mc5852f86e5" x="208.53963" y="296.430125" style="stroke: #000000; stroke-width: 0.6"/>
      </g>
     </g>
    </g>
    <g id="xtick_18">
     <g id="line2d_18">
      <g>
       <use xlink:href="#mc5852f86e5" x="220.827288" y="296.430125" style="stroke: #000000; stroke-width: 0.6"/>
      </g>
     </g>
    </g>
    <g id="xtick_19">
     <g id="line2d_19">
      <g>
       <use xlink:href="#mc5852f86e5" x="230.358337" y="296.430125" style="stroke: #000000; stroke-width: 0.6"/>
      </g>
     </g>
    </g>
    <g id="xtick_20">
     <g id="line2d_20">
      <g>
       <use xlink:href="#mc5852f86e5" x="238.14577" y="296.430125" style="stroke: #000000; stroke-width: 0.6"/>
      </g>
     </g>
    </g>
    <g id="xtick_21">
     <g id="line2d_21">
      <g>
       <use xlink:href="#mc5852f86e5" x="244.729951" y="296.430125" style="stroke: #000000; stroke-width: 0.6"/>
      </g>
     </g>
    </g>
    <g id="xtick_22">
     <g id="line2d_22">
      <g>
       <use xlink:href="#mc5852f86e5" x="250.433428" y="296.430125" style="stroke: #000000; stroke-width: 0.6"/>
      </g>
     </g>
    </g>
    <g id="xtick_23">
     <g id="line2d_23">
      <g>
       <use xlink:href="#mc5852f86e5" x="255.464252" y="296.430125" style="stroke: #000000; stroke-width: 0.6"/>
      </g>
     </g>
    </g>
    <g id="xtick_24">
     <g id="line2d_24">
      <g>
       <use xlink:href="#mc5852f86e5" x="289.570617" y="296.430125" style="stroke: #000000; stroke-width: 0.6"/>
      </g>
     </g>
    </g>
    <g id="xtick_25">
     <g id="line2d_25">
      <g>
       <use xlink:href="#mc5852f86e5" x="306.889098" y="296.430125" style="stroke: #000000; stroke-width: 0.6"/>
      </g>
     </g>
    </g>
    <g id="xtick_26">
     <g id="line2d_26">
      <g>
       <use xlink:href="#mc5852f86e5" x="319.176757" y="296.430125" style="stroke: #000000; stroke-width: 0.6"/>
      </g>
     </g>
    </g>
    <g id="xtick_27">
     <g id="line2d_27">
      <g>
       <use xlink:href="#mc5852f86e5" x="328.707805" y="296.430125" style="stroke: #000000; stroke-width: 0.6"/>
      </g>
     </g>
    </g>
    <g id="xtick_28">
     <g id="line2d_28">
      <g>
       <use xlink:href="#mc5852f86e5" x="336.495239" y="296.430125" style="stroke: #000000; stroke-width: 0.6"/>
      </g>
     </g>
    </g>
    <g id="xtick_29">
     <g id="line2d_29">
      <g>
       <use xlink:href="#mc5852f86e5" x="343.07942" y="296.430125" style="stroke: #000000; stroke-width: 0.6"/>
      </g>
     </g>
    </g>
    <g id="xtick_30">
     <g id="line2d_30">
      <g>
       <use xlink:href="#mc5852f86e5" x="348.782897" y="296.430125" style="stroke: #000000; stroke-width: 0.6"/>
      </g>
     </g>
    </g>
    <g id="xtick_31">
     <g id="line2d_31">
      <g>
       <use xlink:href="#mc5852f86e5" x="353.81372" y="296.430125" style="stroke: #000000; stroke-width: 0.6"/>
      </g>
     </g>
    </g>
    <g id="xtick_32">
     <g id="line2d_32">
      <g>
       <use xlink:href="#mc5852f86e5" x="387.920085" y="296.430125" style="stroke: #000000; stroke-width: 0.6"/>
      </g>
     </g>
    </g>
    <g id="text_5">
     <!-- Epoch -->
     <g transform="translate(208.639688 324.706687) scale(0.1 -0.1)">
      <defs>
       <path id="DejaVuSans-Bold-45" d="M 588 4666 
L 3834 4666 
L 3834 3756 
L 1791 3756 
L 1791 2888 
L 3713 2888 
L 3713 1978 
L 1791 1978 
L 1791 909 
L 3903 909 
L 3903 0 
L 588 0 
L 588 4666 
z
" transform="scale(0.015625)"/>
       <path id="DejaVuSans-Bold-70" d="M 1656 506 
L 1656 -1331 
L 538 -1331 
L 538 3500 
L 1656 3500 
L 1656 2988 
Q 1888 3294 2169 3439 
Q 2450 3584 2816 3584 
Q 3463 3584 3878 3070 
Q 4294 2556 4294 1747 
Q 4294 938 3878 423 
Q 3463 -91 2816 -91 
Q 2450 -91 2169 54 
Q 1888 200 1656 506 
z
M 2400 2772 
Q 2041 2772 1848 2508 
Q 1656 2244 1656 1747 
Q 1656 1250 1848 986 
Q 2041 722 2400 722 
Q 2759 722 2948 984 
Q 3138 1247 3138 1747 
Q 3138 2247 2948 2509 
Q 2759 2772 2400 2772 
z
" transform="scale(0.015625)"/>
       <path id="DejaVuSans-Bold-6f" d="M 2203 2784 
Q 1831 2784 1636 2517 
Q 1441 2250 1441 1747 
Q 1441 1244 1636 976 
Q 1831 709 2203 709 
Q 2569 709 2762 976 
Q 2956 1244 2956 1747 
Q 2956 2250 2762 2517 
Q 2569 2784 2203 2784 
z
M 2203 3584 
Q 3106 3584 3614 3096 
Q 4122 2609 4122 1747 
Q 4122 884 3614 396 
Q 3106 -91 2203 -91 
Q 1297 -91 786 396 
Q 275 884 275 1747 
Q 275 2609 786 3096 
Q 1297 3584 2203 3584 
z
" transform="scale(0.015625)"/>
       <path id="DejaVuSans-Bold-63" d="M 3366 3391 
L 3366 2478 
Q 3138 2634 2908 2709 
Q 2678 2784 2431 2784 
Q 1963 2784 1702 2511 
Q 1441 2238 1441 1747 
Q 1441 1256 1702 982 
Q 1963 709 2431 709 
Q 2694 709 2930 787 
Q 3166 866 3366 1019 
L 3366 103 
Q 3103 6 2833 -42 
Q 2563 -91 2291 -91 
Q 1344 -91 809 395 
Q 275 881 275 1747 
Q 275 2613 809 3098 
Q 1344 3584 2291 3584 
Q 2566 3584 2833 3536 
Q 3100 3488 3366 3391 
z
" transform="scale(0.015625)"/>
       <path id="DejaVuSans-Bold-68" d="M 4056 2131 
L 4056 0 
L 2931 0 
L 2931 347 
L 2931 1625 
Q 2931 2084 2911 2256 
Q 2891 2428 2841 2509 
Q 2775 2619 2662 2680 
Q 2550 2741 2406 2741 
Q 2056 2741 1856 2470 
Q 1656 2200 1656 1722 
L 1656 0 
L 538 0 
L 538 4863 
L 1656 4863 
L 1656 2988 
Q 1909 3294 2193 3439 
Q 2478 3584 2822 3584 
Q 3428 3584 3742 3212 
Q 4056 2841 4056 2131 
z
" transform="scale(0.015625)"/>
      </defs>
      <use xlink:href="#DejaVuSans-Bold-45"/>
      <use xlink:href="#DejaVuSans-Bold-70" transform="translate(68.310547 0)"/>
      <use xlink:href="#DejaVuSans-Bold-6f" transform="translate(139.892578 0)"/>
      <use xlink:href="#DejaVuSans-Bold-63" transform="translate(208.59375 0)"/>
      <use xlink:href="#DejaVuSans-Bold-68" transform="translate(267.871094 0)"/>
     </g>
    </g>
   </g>
   <g id="matplotlib.axis_2">
    <g id="ytick_1">
     <g id="line2d_33">
      <defs>
       <path id="m4c2cdc64d3" d="M 0 0 
L -3.5 0 
" style="stroke: #000000; stroke-width: 0.8"/>
      </defs>
      <g>
       <use xlink:href="#m4c2cdc64d3" x="47.032813" y="258.200052" style="stroke: #000000; stroke-width: 0.8"/>
      </g>
     </g>
     <g id="text_6">
      <!-- 20 -->
      <g transform="translate(27.307813 261.99927) scale(0.1 -0.1)">
       <use xlink:href="#DejaVuSans-32"/>
       <use xlink:href="#DejaVuSans-30" transform="translate(63.623047 0)"/>
      </g>
     </g>
    </g>
    <g id="ytick_2">
     <g id="line2d_34">
      <g>
       <use xlink:href="#m4c2cdc64d3" x="47.032813" y="204.25357" style="stroke: #000000; stroke-width: 0.8"/>
      </g>
     </g>
     <g id="text_7">
      <!-- 40 -->
      <g transform="translate(27.307813 208.052789) scale(0.1 -0.1)">
       <defs>
        <path id="DejaVuSans-34" d="M 2419 4116 
L 825 1625 
L 2419 1625 
L 2419 4116 
z
M 2253 4666 
L 3047 4666 
L 3047 1625 
L 3713 1625 
L 3713 1100 
L 3047 1100 
L 3047 0 
L 2419 0 
L 2419 1100 
L 313 1100 
L 313 1709 
L 2253 4666 
z
" transform="scale(0.015625)"/>
       </defs>
       <use xlink:href="#DejaVuSans-34"/>
       <use xlink:href="#DejaVuSans-30" transform="translate(63.623047 0)"/>
      </g>
     </g>
    </g>
    <g id="ytick_3">
     <g id="line2d_35">
      <g>
       <use xlink:href="#m4c2cdc64d3" x="47.032813" y="150.307088" style="stroke: #000000; stroke-width: 0.8"/>
      </g>
     </g>
     <g id="text_8">
      <!-- 60 -->
      <g transform="translate(27.307813 154.106307) scale(0.1 -0.1)">
       <defs>
        <path id="DejaVuSans-36" d="M 2113 2584 
Q 1688 2584 1439 2293 
Q 1191 2003 1191 1497 
Q 1191 994 1439 701 
Q 1688 409 2113 409 
Q 2538 409 2786 701 
Q 3034 994 3034 1497 
Q 3034 2003 2786 2293 
Q 2538 2584 2113 2584 
z
M 3366 4563 
L 3366 3988 
Q 3128 4100 2886 4159 
Q 2644 4219 2406 4219 
Q 1781 4219 1451 3797 
Q 1122 3375 1075 2522 
Q 1259 2794 1537 2939 
Q 1816 3084 2150 3084 
Q 2853 3084 3261 2657 
Q 3669 2231 3669 1497 
Q 3669 778 3244 343 
Q 2819 -91 2113 -91 
Q 1303 -91 875 529 
Q 447 1150 447 2328 
Q 447 3434 972 4092 
Q 1497 4750 2381 4750 
Q 2619 4750 2861 4703 
Q 3103 4656 3366 4563 
z
" transform="scale(0.015625)"/>
       </defs>
       <use xlink:href="#DejaVuSans-36"/>
       <use xlink:href="#DejaVuSans-30" transform="translate(63.623047 0)"/>
      </g>
     </g>
    </g>
    <g id="ytick_4">
     <g id="line2d_36">
      <g>
       <use xlink:href="#m4c2cdc64d3" x="47.032813" y="96.360607" style="stroke: #000000; stroke-width: 0.8"/>
      </g>
     </g>
     <g id="text_9">
      <!-- 80 -->
      <g transform="translate(27.307813 100.159825) scale(0.1 -0.1)">
       <defs>
        <path id="DejaVuSans-38" d="M 2034 2216 
Q 1584 2216 1326 1975 
Q 1069 1734 1069 1313 
Q 1069 891 1326 650 
Q 1584 409 2034 409 
Q 2484 409 2743 651 
Q 3003 894 3003 1313 
Q 3003 1734 2745 1975 
Q 2488 2216 2034 2216 
z
M 1403 2484 
Q 997 2584 770 2862 
Q 544 3141 544 3541 
Q 544 4100 942 4425 
Q 1341 4750 2034 4750 
Q 2731 4750 3128 4425 
Q 3525 4100 3525 3541 
Q 3525 3141 3298 2862 
Q 3072 2584 2669 2484 
Q 3125 2378 3379 2068 
Q 3634 1759 3634 1313 
Q 3634 634 3220 271 
Q 2806 -91 2034 -91 
Q 1263 -91 848 271 
Q 434 634 434 1313 
Q 434 1759 690 2068 
Q 947 2378 1403 2484 
z
M 1172 3481 
Q 1172 3119 1398 2916 
Q 1625 2713 2034 2713 
Q 2441 2713 2670 2916 
Q 2900 3119 2900 3481 
Q 2900 3844 2670 4047 
Q 2441 4250 2034 4250 
Q 1625 4250 1398 4047 
Q 1172 3844 1172 3481 
z
" transform="scale(0.015625)"/>
       </defs>
       <use xlink:href="#DejaVuSans-38"/>
       <use xlink:href="#DejaVuSans-30" transform="translate(63.623047 0)"/>
      </g>
     </g>
    </g>
    <g id="ytick_5">
     <g id="line2d_37">
      <g>
       <use xlink:href="#m4c2cdc64d3" x="47.032813" y="42.414125" style="stroke: #000000; stroke-width: 0.8"/>
      </g>
     </g>
     <g id="text_10">
      <!-- 100 -->
      <g transform="translate(20.945313 46.213344) scale(0.1 -0.1)">
       <use xlink:href="#DejaVuSans-31"/>
       <use xlink:href="#DejaVuSans-30" transform="translate(63.623047 0)"/>
       <use xlink:href="#DejaVuSans-30" transform="translate(127.246094 0)"/>
      </g>
     </g>
    </g>
    <g id="text_11">
     <!-- Accuracy (%) -->
     <g transform="translate(14.7875 200.115531) rotate(-90) scale(0.1 -0.1)">
      <defs>
       <path id="DejaVuSans-Bold-41" d="M 3419 850 
L 1538 850 
L 1241 0 
L 31 0 
L 1759 4666 
L 3194 4666 
L 4922 0 
L 3713 0 
L 3419 850 
z
M 1838 1716 
L 3116 1716 
L 2478 3572 
L 1838 1716 
z
" transform="scale(0.015625)"/>
       <path id="DejaVuSans-Bold-75" d="M 500 1363 
L 500 3500 
L 1625 3500 
L 1625 3150 
Q 1625 2866 1622 2436 
Q 1619 2006 1619 1863 
Q 1619 1441 1641 1255 
Q 1663 1069 1716 984 
Q 1784 875 1895 815 
Q 2006 756 2150 756 
Q 2500 756 2700 1025 
Q 2900 1294 2900 1772 
L 2900 3500 
L 4019 3500 
L 4019 0 
L 2900 0 
L 2900 506 
Q 2647 200 2364 54 
Q 2081 -91 1741 -91 
Q 1134 -91 817 281 
Q 500 653 500 1363 
z
" transform="scale(0.015625)"/>
       <path id="DejaVuSans-Bold-72" d="M 3138 2547 
Q 2991 2616 2845 2648 
Q 2700 2681 2553 2681 
Q 2122 2681 1889 2404 
Q 1656 2128 1656 1613 
L 1656 0 
L 538 0 
L 538 3500 
L 1656 3500 
L 1656 2925 
Q 1872 3269 2151 3426 
Q 2431 3584 2822 3584 
Q 2878 3584 2943 3579 
Q 3009 3575 3134 3559 
L 3138 2547 
z
" transform="scale(0.015625)"/>
       <path id="DejaVuSans-Bold-61" d="M 2106 1575 
Q 1756 1575 1579 1456 
Q 1403 1338 1403 1106 
Q 1403 894 1545 773 
Q 1688 653 1941 653 
Q 2256 653 2472 879 
Q 2688 1106 2688 1447 
L 2688 1575 
L 2106 1575 
z
M 3816 1997 
L 3816 0 
L 2688 0 
L 2688 519 
Q 2463 200 2181 54 
Q 1900 -91 1497 -91 
Q 953 -91 614 226 
Q 275 544 275 1050 
Q 275 1666 698 1953 
Q 1122 2241 2028 2241 
L 2688 2241 
L 2688 2328 
Q 2688 2594 2478 2717 
Q 2269 2841 1825 2841 
Q 1466 2841 1156 2769 
Q 847 2697 581 2553 
L 581 3406 
Q 941 3494 1303 3539 
Q 1666 3584 2028 3584 
Q 2975 3584 3395 3211 
Q 3816 2838 3816 1997 
z
" transform="scale(0.015625)"/>
       <path id="DejaVuSans-Bold-79" d="M 78 3500 
L 1197 3500 
L 2138 1125 
L 2938 3500 
L 4056 3500 
L 2584 -331 
Q 2363 -916 2067 -1148 
Q 1772 -1381 1288 -1381 
L 641 -1381 
L 641 -647 
L 991 -647 
Q 1275 -647 1404 -556 
Q 1534 -466 1606 -231 
L 1638 -134 
L 78 3500 
z
" transform="scale(0.015625)"/>
       <path id="DejaVuSans-Bold-20" transform="scale(0.015625)"/>
       <path id="DejaVuSans-Bold-28" d="M 2413 -844 
L 1484 -844 
Q 1006 -72 778 623 
Q 550 1319 550 2003 
Q 550 2688 779 3389 
Q 1009 4091 1484 4856 
L 2413 4856 
Q 2013 4116 1813 3408 
Q 1613 2700 1613 2009 
Q 1613 1319 1811 609 
Q 2009 -100 2413 -844 
z
" transform="scale(0.015625)"/>
       <path id="DejaVuSans-Bold-25" d="M 4959 1925 
Q 4738 1925 4616 1733 
Q 4494 1541 4494 1184 
Q 4494 825 4614 633 
Q 4734 441 4959 441 
Q 5184 441 5303 633 
Q 5422 825 5422 1184 
Q 5422 1541 5301 1733 
Q 5181 1925 4959 1925 
z
M 4959 2450 
Q 5541 2450 5875 2112 
Q 6209 1775 6209 1184 
Q 6209 594 5875 251 
Q 5541 -91 4959 -91 
Q 4378 -91 4042 251 
Q 3706 594 3706 1184 
Q 3706 1772 4042 2111 
Q 4378 2450 4959 2450 
z
M 2094 -91 
L 1403 -91 
L 4319 4750 
L 5013 4750 
L 2094 -91 
z
M 1453 4750 
Q 2034 4750 2367 4411 
Q 2700 4072 2700 3481 
Q 2700 2891 2367 2550 
Q 2034 2209 1453 2209 
Q 872 2209 539 2550 
Q 206 2891 206 3481 
Q 206 4072 539 4411 
Q 872 4750 1453 4750 
z
M 1453 4225 
Q 1228 4225 1106 4031 
Q 984 3838 984 3481 
Q 984 3122 1106 2926 
Q 1228 2731 1453 2731 
Q 1678 2731 1798 2926 
Q 1919 3122 1919 3481 
Q 1919 3838 1797 4031 
Q 1675 4225 1453 4225 
z
" transform="scale(0.015625)"/>
       <path id="DejaVuSans-Bold-29" d="M 513 -844 
Q 913 -100 1113 609 
Q 1313 1319 1313 2009 
Q 1313 2700 1113 3408 
Q 913 4116 513 4856 
L 1441 4856 
Q 1916 4091 2145 3389 
Q 2375 2688 2375 2003 
Q 2375 1319 2147 623 
Q 1919 -72 1441 -844 
L 513 -844 
z
" transform="scale(0.015625)"/>
      </defs>
      <use xlink:href="#DejaVuSans-Bold-41"/>
      <use xlink:href="#DejaVuSans-Bold-63" transform="translate(77.392578 0)"/>
      <use xlink:href="#DejaVuSans-Bold-63" transform="translate(136.669922 0)"/>
      <use xlink:href="#DejaVuSans-Bold-75" transform="translate(195.947266 0)"/>
      <use xlink:href="#DejaVuSans-Bold-72" transform="translate(267.138672 0)"/>
      <use xlink:href="#DejaVuSans-Bold-61" transform="translate(316.455078 0)"/>
      <use xlink:href="#DejaVuSans-Bold-63" transform="translate(383.935547 0)"/>
      <use xlink:href="#DejaVuSans-Bold-79" transform="translate(443.212891 0)"/>
      <use xlink:href="#DejaVuSans-Bold-20" transform="translate(508.398438 0)"/>
      <use xlink:href="#DejaVuSans-Bold-28" transform="translate(543.212891 0)"/>
      <use xlink:href="#DejaVuSans-Bold-25" transform="translate(588.916016 0)"/>
      <use xlink:href="#DejaVuSans-Bold-29" transform="translate(689.111328 0)"/>
     </g>
    </g>
   </g>
   <g id="line2d_38">
    <path d="M 63.26554 283.554898 
L 92.87168 279.419001 
L 110.190162 281.936504 
L 122.47782 282.475968 
L 132.008868 283.195255 
L 139.796302 281.037396 
L 146.380483 280.138287 
L 152.08396 278.519893 
L 157.114783 277.800607 
L 161.615008 277.800607 
L 165.685957 274.383996 
L 169.402442 272.58578 
L 172.821276 270.787564 
L 178.93349 271.147207 
L 181.6901 270.967386 
L 184.279537 269.16917 
L 186.720923 268.270062 
L 189.030277 267.550775 
L 191.221148 265.932381 
L 193.305105 265.213094 
L 195.292097 264.673629 
L 199.008582 261.077197 
L 200.752197 260.897376 
L 202.427416 259.278981 
L 204.039405 258.739516 
L 205.592763 257.660587 
L 207.091606 256.222014 
L 208.53963 254.423798 
L 209.94017 253.165047 
L 211.29624 252.44576 
L 212.610579 250.647544 
L 213.885677 249.568614 
L 215.123811 248.130042 
L 216.327063 245.252896 
L 218.636417 243.814323 
L 219.745898 242.735393 
L 220.827288 241.116999 
L 221.881975 240.217891 
L 223.916294 236.441637 
L 224.898237 235.362708 
L 225.858112 233.564492 
L 226.796889 233.204848 
L 227.715475 231.406632 
L 229.495426 228.529487 
L 230.358337 226.551449 
L 231.204159 223.674303 
L 232.033557 222.055909 
L 232.847155 219.89805 
L 233.645545 218.459477 
L 235.954899 212.525364 
L 236.697746 210.367504 
L 237.427894 208.74911 
L 238.14577 207.67018 
L 238.85178 205.871964 
L 240.229726 203.714105 
L 241.564605 200.297494 
L 242.859026 197.959814 
L 243.491817 195.442311 
L 245.335814 191.126593 
L 247.103486 186.091588 
L 247.676818 184.832837 
L 248.8009 180.517118 
L 249.352038 179.078545 
L 249.896156 178.359259 
L 250.964027 174.583005 
L 251.488115 173.683897 
L 252.00585 171.346216 
L 252.517385 170.806752 
L 253.022866 169.368179 
L 254.016227 165.591925 
L 254.504377 164.692817 
L 254.987011 163.074423 
L 255.464252 162.534958 
L 255.936219 160.197276 
L 256.403029 158.758703 
L 257.321615 155.521914 
L 257.773605 154.083342 
L 258.220862 151.026374 
L 260.389482 144.91244 
L 260.810299 143.114224 
L 261.227011 141.855473 
L 261.639697 139.877435 
L 262.048433 139.33797 
L 263.251685 134.302965 
L 263.645353 133.403857 
L 264.035425 131.965284 
L 265.184713 129.088139 
L 265.561039 127.829388 
L 266.303886 126.570636 
L 266.67052 124.053134 
L 268.45792 117.399735 
L 268.806597 114.522588 
L 269.15245 113.263837 
L 269.495525 111.465621 
L 270.50852 108.04901 
L 271.170745 105.891151 
L 271.498046 105.351686 
L 271.822859 103.373649 
L 272.14522 102.834184 
L 272.782734 99.957038 
L 273.097957 99.237752 
L 273.410872 97.979 
L 273.72151 97.259714 
L 274.029906 96.180784 
L 274.336091 95.821141 
L 274.640097 94.022925 
L 274.941954 93.303639 
L 275.241693 91.865066 
L 275.539344 91.325601 
L 275.834934 89.887028 
L 276.420048 88.98792 
L 276.997254 86.470418 
L 277.282958 84.852023 
L 277.566764 85.031845 
L 278.683498 80.895948 
L 279.231103 79.637197 
L 279.502296 78.558267 
L 279.771777 78.558267 
L 280.305692 77.119694 
L 280.570167 77.299516 
L 281.868523 74.42237 
L 283.376184 69.387366 
L 283.622367 68.847901 
L 284.110517 67.409328 
L 285.070392 64.712004 
L 285.307028 63.453253 
L 286.009169 62.374323 
L 286.240674 62.733966 
L 286.470932 62.01468 
L 286.927755 60.036642 
L 287.154348 59.497177 
L 287.379745 59.676999 
L 287.603959 58.777891 
L 287.827002 58.598069 
L 288.048886 58.777891 
L 288.269624 58.418248 
L 288.489227 58.418248 
L 288.707706 57.878783 
L 288.925074 57.878783 
L 289.356518 56.620032 
L 289.570617 56.44021 
L 289.783648 56.080567 
L 289.995622 56.260388 
L 290.206549 56.260388 
L 290.625303 55.900745 
L 291.039992 55.001637 
L 291.245837 53.922708 
L 291.450694 54.282351 
L 291.857484 53.742886 
L 292.260436 53.383243 
L 292.460496 52.484135 
L 292.659623 52.663956 
L 293.055113 51.585027 
L 293.251493 51.585027 
L 293.446974 51.225384 
L 293.641565 52.484135 
L 293.835274 52.124492 
L 294.028108 51.045562 
L 294.220075 51.225384 
L 294.411183 51.045562 
L 294.60144 50.146454 
L 294.790853 50.506097 
L 294.979431 49.786811 
L 295.167179 50.506097 
L 295.354105 50.326276 
L 295.540217 50.326276 
L 295.725522 49.247346 
L 296.093736 49.786811 
L 296.27666 50.86574 
L 296.458804 50.86574 
L 296.640174 51.405205 
L 296.820777 50.685919 
L 297.00062 51.764848 
L 297.179709 54.102529 
L 297.712514 50.86574 
L 298.06406 54.641994 
L 298.238754 53.742886 
L 298.586013 51.405205 
L 298.75859 53.203421 
L 299.101665 47.628951 
L 299.442007 49.427168 
L 299.611166 49.067524 
L 299.779658 47.628952 
L 299.947487 48.348238 
L 300.11466 48.168416 
L 300.281181 46.190379 
L 300.447056 45.830736 
L 300.612289 46.550022 
L 300.776885 46.3702 
L 300.940849 45.650914 
L 301.104186 45.830736 
L 301.266901 46.190379 
L 301.428999 46.010557 
L 301.590483 45.111449 
L 301.75136 44.931627 
L 301.911633 45.471092 
L 302.071306 45.291271 
L 302.230385 44.751806 
L 302.388874 45.650914 
L 302.546776 45.471092 
L 302.704097 45.111449 
L 302.860841 45.111449 
L 303.017012 44.751806 
L 303.172614 44.931627 
L 303.482127 44.571984 
L 303.636046 44.931627 
L 303.789413 44.931627 
L 304.246237 44.392163 
L 304.397432 44.931627 
L 304.548094 44.392163 
L 304.847833 44.751806 
L 304.996918 44.032519 
L 305.145484 44.032519 
L 305.441074 44.931627 
L 305.588106 44.032519 
L 305.734633 44.571984 
L 305.880659 44.212341 
L 306.026188 44.571984 
L 306.171222 43.672876 
L 306.459822 44.571984 
L 306.603394 44.032519 
L 306.746485 44.212341 
L 307.031237 44.212341 
L 307.314103 44.392163 
L 307.454837 45.111449 
L 307.734921 44.571984 
L 307.874277 45.111449 
L 308.01318 46.729843 
L 308.289638 55.541102 
L 308.427199 55.900745 
L 308.564318 58.957712 
L 308.837243 66.690042 
L 308.973055 66.869863 
L 309.108436 56.080566 
L 309.243389 58.238426 
L 309.377917 58.418248 
L 309.645709 48.52806 
L 309.911832 44.032519 
L 310.044274 43.672876 
L 310.176307 42.95359 
L 310.307933 43.313233 
L 310.439155 42.95359 
L 310.700395 43.133411 
L 310.830418 42.95359 
L 310.960047 43.313233 
L 311.21813 42.593947 
L 311.474663 43.493055 
L 311.602354 43.493055 
L 311.729665 42.95359 
L 311.856597 42.95359 
L 311.983153 43.133411 
L 312.109335 42.95359 
L 312.360587 44.212341 
L 312.734714 42.95359 
L 313.228507 43.493055 
L 313.47328 42.414125 
L 313.595142 42.773768 
L 313.837828 42.593947 
L 313.958656 42.95359 
L 314.079143 42.593947 
L 314.319102 42.593947 
L 314.913168 43.313233 
L 315.030996 43.313233 
L 315.265681 42.773768 
L 315.731218 44.212341 
L 315.846814 45.471092 
L 315.962098 47.988595 
L 316.420147 79.457375 
L 316.647342 67.58915 
L 316.760488 67.409328 
L 317.098139 46.550022 
L 317.321766 43.133411 
L 317.765538 42.414125 
L 318.095367 42.95359 
L 318.204746 42.593947 
L 318.422668 42.95359 
L 318.747481 45.111449 
L 319.176757 60.036642 
L 319.283405 58.957712 
L 319.389788 48.348238 
L 319.495906 55.361281 
L 319.601762 54.102529 
L 319.917763 43.852698 
L 320.127139 42.773768 
L 320.231443 43.133411 
L 320.439291 42.773768 
L 320.542837 42.773768 
L 320.646132 42.414125 
L 320.851977 42.593947 
L 321.056834 42.414125 
L 321.158895 42.593947 
L 321.362289 42.414125 
L 321.966723 42.414125 
L 322.265763 43.133411 
L 322.463965 42.593947 
L 322.562723 42.773768 
L 322.661253 42.593947 
L 322.857633 43.493055 
L 322.955486 43.313233 
L 323.150521 43.493055 
L 323.344669 43.133411 
L 323.441414 43.852698 
L 323.634248 42.773768 
L 323.730339 42.95359 
L 323.826215 42.414125 
L 323.921876 42.593947 
L 324.112558 42.414125 
L 324.396994 42.95359 
L 324.491386 42.773768 
L 324.773319 43.852698 
L 325.053403 42.593947 
L 325.146357 43.313233 
L 325.23911 42.773768 
L 325.331662 42.95359 
L 325.424013 42.414125 
L 325.516166 42.593947 
L 325.699876 42.414125 
L 325.791436 42.593947 
L 326.064944 44.392163 
L 326.155725 44.392163 
L 326.246314 44.931627 
L 326.60676 54.282351 
L 326.696399 53.563064 
L 326.785849 49.067524 
L 326.96419 53.922707 
L 327.230313 44.392163 
L 327.318654 44.571984 
L 327.582585 42.414125 
L 327.844894 42.773768 
L 328.018877 42.414125 
L 328.878315 42.414125 
L 329.048147 42.593947 
L 329.13281 42.593947 
L 329.217306 42.414125 
L 329.301635 42.593947 
L 329.385798 42.414125 
L 329.553627 42.773768 
L 329.637296 42.593947 
L 329.7208 43.493055 
L 329.804142 43.313233 
L 330.053196 44.212341 
L 330.300806 42.95359 
L 330.465086 44.212341 
L 330.546989 44.212341 
L 330.710326 42.593947 
L 330.791761 43.493055 
L 330.873041 43.313233 
L 330.954167 43.313233 
L 331.035139 43.852698 
L 331.115958 42.593947 
L 331.196623 42.773768 
L 331.277137 42.414125 
L 331.437711 43.493055 
L 331.597684 42.414125 
L 331.75706 43.672876 
L 332.074038 42.414125 
L 332.701024 42.414125 
L 332.856342 42.593947 
L 332.933791 42.593947 
L 333.011099 42.773768 
L 333.165296 42.414125 
L 333.318939 42.593947 
L 333.395553 42.414125 
L 333.472031 43.133411 
L 333.548371 42.95359 
L 333.700645 42.95359 
L 333.776578 44.032519 
L 333.852377 43.493055 
L 333.928042 45.650914 
L 334.07897 44.392163 
L 334.154235 46.3702 
L 334.229367 45.291271 
L 334.304367 45.650914 
L 334.379236 44.751806 
L 334.453974 46.729843 
L 334.603058 44.212341 
L 334.825713 42.773768 
L 334.899675 42.773768 
L 334.973508 42.95359 
L 335.194246 42.414125 
L 335.413848 42.414125 
L 335.486799 42.593947 
L 335.559625 42.414125 
L 335.704907 42.593947 
L 335.849695 42.593947 
L 335.993995 42.95359 
L 336.065962 42.773768 
L 336.209534 44.032519 
L 336.28114 43.672876 
L 336.423991 44.392163 
L 336.495239 44.212341 
L 336.566367 43.672876 
L 336.637377 44.751806 
L 336.70827 44.571984 
L 336.990668 42.593947 
L 337.060977 42.95359 
L 337.271212 42.414125 
L 338.443384 42.414125 
L 338.579195 42.773768 
L 338.646939 42.593947 
L 338.782106 43.672876 
L 338.849529 42.593947 
L 338.916846 42.95359 
L 339.118163 45.111449 
L 339.251849 44.212341 
L 339.318535 45.830736 
L 339.517972 42.95359 
L 339.782447 42.414125 
L 340.436558 42.414125 
L 340.501422 42.773768 
L 340.566187 42.593947 
L 340.630854 42.414125 
L 340.695424 42.773768 
L 340.888548 46.550022 
L 341.080803 42.95359 
L 341.335805 42.414125 
L 341.841286 42.414125 
L 341.904052 42.773768 
L 341.966727 42.414125 
L 342.029309 42.95359 
L 342.0918 42.414125 
L 342.1542 42.593947 
L 342.340854 43.133411 
L 342.402892 42.593947 
L 342.464839 42.95359 
L 342.588465 42.414125 
L 342.650143 42.95359 
L 342.711733 42.593947 
L 342.773235 42.593947 
L 342.895972 42.414125 
L 342.957209 42.414125 
L 343.140394 42.773768 
L 343.201282 42.773768 
L 343.262083 42.593947 
L 343.322797 43.313233 
L 343.443968 42.414125 
L 343.504425 42.593947 
L 343.625082 42.414125 
L 344.75464 42.414125 
L 344.871821 42.593947 
L 345.046993 42.414125 
L 346.196797 42.414125 
L 346.253482 42.773768 
L 346.366628 42.414125 
L 346.535787 42.593947 
L 346.592025 42.414125 
L 346.648189 42.593947 
L 346.704279 42.95359 
L 346.760296 42.593947 
L 346.927906 42.414125 
L 349.04902 42.414125 
L 349.207902 42.95359 
L 349.260731 42.95359 
L 349.313495 43.672876 
L 349.366195 42.95359 
L 349.418829 43.133411 
L 349.523903 42.593947 
L 349.576343 42.773768 
L 349.628719 42.773768 
L 349.785463 42.414125 
L 349.88964 42.414125 
L 349.941634 42.593947 
L 349.993564 42.414125 
L 350.968429 42.414125 
L 351.019127 42.593947 
L 351.069764 42.414125 
L 351.672776 42.414125 
L 351.722645 42.593947 
L 351.772455 42.414125 
L 351.822208 42.414125 
L 351.871903 42.593947 
L 351.92154 42.414125 
L 363.985376 42.414125 
L 364.022761 42.593947 
L 364.097434 42.414125 
L 387.920085 42.414125 
L 387.920085 42.414125 
" clip-path="url(#pbea1a1d0c8)" style="fill: none; stroke: #1f77b4; stroke-width: 1.5; stroke-linecap: square"/>
   </g>
   <g id="line2d_39">
    <path d="M 63.26554 281.397039 
L 92.87168 282.176266 
L 110.190162 284.334125 
L 122.47782 283.614839 
L 139.796302 281.037396 
L 146.380483 280.857574 
L 152.08396 280.318109 
L 165.685957 278.400012 
L 169.402442 278.459953 
L 172.821276 277.321082 
L 175.986623 276.661736 
L 178.93349 275.88251 
L 181.6901 274.86352 
L 184.279537 274.623758 
L 186.720923 273.964412 
L 189.030277 273.784591 
L 193.305105 272.52584 
L 195.292097 272.166196 
L 197.190749 272.226137 
L 200.752197 271.746613 
L 202.427416 271.147207 
L 204.039405 271.207148 
L 207.091606 271.087267 
L 211.29624 269.588753 
L 212.610579 269.588753 
L 216.327063 268.929407 
L 217.497346 268.809526 
L 219.745898 268.330002 
L 220.827288 268.270062 
L 221.881975 268.449883 
L 222.911245 268.330002 
L 223.916294 268.09024 
L 224.898237 268.030299 
L 225.858112 267.370954 
L 226.796889 267.370954 
L 227.715475 267.490835 
L 228.614722 267.490835 
L 229.495426 267.311013 
L 230.358337 267.251072 
L 231.204159 267.490835 
L 232.847155 267.370954 
L 233.645545 267.550775 
L 234.429285 267.370954 
L 235.198903 267.430894 
L 235.954899 267.370954 
L 237.427894 266.771548 
L 238.14577 266.891429 
L 238.85178 266.771548 
L 239.54631 266.891429 
L 240.229726 266.711608 
L 240.90238 266.232083 
L 241.564605 265.992321 
L 242.216719 265.572737 
L 242.859026 265.392916 
L 243.491817 265.512797 
L 244.11537 265.752559 
L 245.335814 265.452856 
L 245.933204 265.452856 
L 246.522353 265.273035 
L 247.103486 265.332975 
L 247.676818 265.273035 
L 249.352038 264.373927 
L 249.896156 263.834462 
L 250.433428 263.5947 
L 251.488115 263.5947 
L 252.00585 263.474819 
L 252.517385 263.235057 
L 253.022866 263.534759 
L 253.522434 263.414878 
L 254.504377 263.055235 
L 254.987011 262.995294 
L 255.464252 262.755532 
L 255.936219 262.815473 
L 256.864791 262.635651 
L 257.321615 262.335949 
L 257.773605 262.45583 
L 258.663484 262.216068 
L 259.5352 262.156127 
L 261.227011 261.976305 
L 261.639697 262.156127 
L 262.048433 262.156127 
L 262.453295 261.916365 
L 262.854356 262.096186 
L 263.251685 261.916365 
L 263.645353 261.916365 
L 264.035425 261.676603 
L 264.421968 262.036246 
L 264.805043 261.976305 
L 265.184713 261.736543 
L 265.561039 261.736543 
L 265.934077 261.976305 
L 266.303886 261.976305 
L 266.67052 261.616662 
L 267.034034 261.856424 
L 267.39448 261.736543 
L 268.45792 261.916365 
L 268.806597 261.616662 
L 269.835866 261.556722 
L 270.173517 261.316959 
L 270.50852 261.496781 
L 271.822859 260.837435 
L 272.14522 260.957316 
L 272.782734 260.477792 
L 273.097957 260.477792 
L 273.410872 260.657614 
L 273.72151 260.23803 
L 274.336091 260.357911 
L 274.941954 260.118149 
L 275.539344 260.118149 
L 276.128493 259.758506 
L 276.420048 259.938327 
L 276.709626 259.878387 
L 277.282958 260.178089 
L 278.128781 259.938327 
L 278.40704 259.938327 
L 278.683498 259.818446 
L 278.958178 259.938327 
L 279.502296 259.638625 
L 279.771777 259.758506 
L 280.305692 259.638625 
L 280.570167 259.818446 
L 281.094255 259.338922 
L 281.353907 259.398862 
L 281.61199 259.578684 
L 281.868523 259.398862 
L 282.377013 259.458803 
L 282.629006 259.278981 
L 283.128574 259.338922 
L 283.622367 258.919338 
L 283.86714 258.859398 
L 284.352516 258.379873 
L 284.593151 258.379873 
L 285.070392 258.499754 
L 285.307028 257.900349 
L 286.240674 258.259992 
L 286.470932 258.200052 
L 286.699954 258.259992 
L 286.927755 258.080171 
L 287.379745 258.200052 
L 287.603959 258.080171 
L 288.048886 258.200052 
L 288.269624 258.02023 
L 288.489227 258.080171 
L 288.925074 257.780468 
L 289.356518 257.96029 
L 289.570617 257.840408 
L 289.783648 258.02023 
L 289.995622 257.660587 
L 290.416439 257.96029 
L 290.833151 257.300944 
L 291.039992 257.720527 
L 291.450694 257.600646 
L 291.654573 258.02023 
L 292.059435 257.540706 
L 292.260436 257.720527 
L 292.460496 257.181063 
L 292.857825 256.9413 
L 293.055113 257.121122 
L 293.251493 257.121122 
L 293.446974 257.360884 
L 293.641565 257.420825 
L 294.028108 257.181063 
L 294.411183 257.300944 
L 294.60144 256.88136 
L 294.790853 256.9413 
L 295.167179 256.641598 
L 295.354105 256.222014 
L 295.540217 257.061181 
L 295.910026 257.480765 
L 296.093736 257.720527 
L 296.27666 257.360884 
L 296.458804 256.641598 
L 296.640174 256.88136 
L 296.820777 256.641598 
L 297.00062 256.641598 
L 297.35805 256.281955 
L 297.712514 257.181063 
L 297.888649 257.720527 
L 298.06406 256.701538 
L 298.238754 256.701538 
L 298.412737 256.042192 
L 298.586013 256.581657 
L 298.75859 255.74249 
L 298.930472 255.622609 
L 299.101665 257.241003 
L 299.442007 256.461776 
L 299.611166 256.281955 
L 299.779658 255.203025 
L 299.947487 255.622609 
L 300.11466 255.682549 
L 300.281181 256.521717 
L 300.612289 256.102133 
L 300.776885 256.581657 
L 301.104186 255.083144 
L 301.266901 255.262965 
L 301.428999 255.083144 
L 301.590483 256.162073 
L 301.75136 255.74249 
L 301.911633 255.74249 
L 302.071306 255.922311 
L 302.388874 255.203025 
L 302.546776 255.322906 
L 302.704097 256.102133 
L 302.860841 255.622609 
L 303.172614 256.102133 
L 303.327651 255.922311 
L 303.482127 255.023203 
L 303.636046 255.203025 
L 303.789413 255.143084 
L 303.942231 255.622609 
L 304.094505 254.903322 
L 304.246237 255.023203 
L 304.397432 255.502728 
L 304.548094 255.083144 
L 304.698227 255.262965 
L 304.847833 254.963263 
L 304.996918 255.382847 
L 305.293535 254.543679 
L 305.441074 254.783441 
L 305.588106 254.363857 
L 305.734633 255.143084 
L 305.880659 254.60362 
L 306.026188 255.083144 
L 306.171222 254.483738 
L 306.315766 254.423798 
L 306.603394 255.382847 
L 306.746485 255.143084 
L 306.889098 254.423798 
L 307.031237 255.322906 
L 307.172904 254.543679 
L 307.314103 254.423798 
L 307.454837 254.723501 
L 307.595108 254.60362 
L 307.874277 256.9413 
L 308.289638 254.903322 
L 308.427199 255.562668 
L 308.564318 254.723501 
L 308.700999 255.982252 
L 308.837243 255.74249 
L 308.973055 254.243976 
L 309.108436 254.303917 
L 309.243389 254.543679 
L 309.377917 253.884333 
L 309.512023 254.543679 
L 309.645709 252.805403 
L 309.778977 253.165047 
L 309.911832 254.423798 
L 310.044274 254.543679 
L 310.176307 255.143084 
L 310.439155 252.44576 
L 310.569975 252.265939 
L 310.830418 254.483738 
L 311.346589 252.44576 
L 311.729665 254.60362 
L 311.983153 252.44576 
L 312.109335 252.205998 
L 312.48566 254.064155 
L 312.610369 254.004214 
L 312.858699 252.38582 
L 312.982324 252.205998 
L 313.228507 254.963263 
L 313.47328 252.146058 
L 313.595142 251.606593 
L 313.716657 251.906295 
L 313.837828 254.004214 
L 313.958656 253.884333 
L 314.199291 251.426771 
L 314.319102 251.666533 
L 314.676532 254.184036 
L 314.913168 251.426771 
L 315.030996 251.966236 
L 315.265681 254.903322 
L 315.499084 251.426771 
L 315.615309 251.426771 
L 315.846814 254.843382 
L 316.420147 251.366831 
L 316.533896 254.423798 
L 316.760488 251.187009 
L 317.098139 252.865344 
L 317.321766 250.767425 
L 317.433142 251.606593 
L 317.544228 251.24695 
L 317.655026 252.146058 
L 317.765538 251.366831 
L 317.985706 251.786414 
L 318.095367 251.546652 
L 318.204746 251.666533 
L 318.313846 251.486712 
L 318.422668 250.827366 
L 318.531214 250.947247 
L 318.639484 252.925285 
L 318.855205 252.505701 
L 319.069842 250.16802 
L 319.283405 254.064155 
L 319.707355 248.189982 
L 319.917763 253.824393 
L 320.127139 249.149031 
L 320.231443 249.268912 
L 320.439291 251.187009 
L 320.542837 249.748436 
L 320.646132 249.988198 
L 320.851977 251.007187 
L 321.056834 249.628555 
L 321.158895 249.208971 
L 321.362289 252.325879 
L 321.564719 248.549625 
L 321.766194 249.748436 
L 321.866576 252.265939 
L 321.966723 251.606593 
L 322.166315 248.789388 
L 322.265763 249.149031 
L 322.463965 251.486712 
L 322.661253 247.530636 
L 322.857633 250.108079 
L 322.955486 251.546652 
L 323.150521 247.530636 
L 323.441414 250.287901 
L 323.53794 250.287901 
L 323.634248 248.429744 
L 323.730339 250.048139 
L 323.921876 249.268912 
L 324.112558 249.568615 
L 324.20758 248.369804 
L 324.302392 248.429744 
L 324.491386 248.729447 
L 324.585571 249.149031 
L 324.773319 248.189982 
L 324.866884 247.470696 
L 325.053403 249.508674 
L 325.146357 248.909269 
L 325.331662 246.931231 
L 325.516166 249.568615 
L 325.699876 247.230934 
L 325.791436 247.410755 
L 325.973969 250.467723 
L 326.246314 246.331826 
L 326.426917 250.587604 
L 326.516934 249.388793 
L 326.60676 245.432718 
L 326.696399 246.871291 
L 326.785849 250.467723 
L 326.875113 249.988198 
L 327.053082 245.67248 
L 327.318654 247.770399 
L 327.406812 246.931231 
L 327.494789 248.189982 
L 327.6702 245.67248 
L 327.757637 245.252896 
L 327.931974 248.070101 
L 328.192153 245.013134 
L 328.278529 246.571588 
L 328.36473 246.451707 
L 328.536612 247.470696 
L 328.622294 247.111053 
L 328.793145 244.713431 
L 328.878315 245.492658 
L 328.963315 247.590577 
L 329.217306 244.53361 
L 329.301635 245.133015 
L 329.469795 249.02915 
L 329.637296 243.694442 
L 329.7208 244.53361 
L 329.804142 247.830339 
L 329.887322 247.590577 
L 329.970339 245.252896 
L 330.053196 245.372777 
L 330.218429 248.669507 
L 330.300806 246.991172 
L 330.383025 242.495631 
L 330.465086 242.915215 
L 330.628736 248.789388 
L 330.873041 244.173966 
L 330.954167 244.53361 
L 331.035139 243.274858 
L 331.196623 246.691469 
L 331.277137 246.451707 
L 331.437711 242.016107 
L 331.677446 245.972182 
L 331.836525 243.095037 
L 331.915843 242.31581 
L 331.995014 244.713431 
L 332.074038 243.994145 
L 332.152916 243.035096 
L 332.310237 243.814323 
L 332.388681 243.754383 
L 332.466981 242.975156 
L 332.545138 243.214918 
L 332.701024 244.293847 
L 332.933791 242.495631 
L 333.011099 244.53361 
L 333.088267 244.173966 
L 333.165296 243.934204 
L 333.318939 242.855275 
L 333.395553 243.994145 
L 333.548371 242.016107 
L 333.624576 244.353788 
L 333.700645 243.874264 
L 333.776578 243.574561 
L 333.852377 241.23688 
L 333.928042 242.255869 
L 334.07897 244.713431 
L 334.229367 240.817296 
L 334.304367 241.057059 
L 334.379236 242.135988 
L 334.453974 241.116999 
L 334.528581 242.31581 
L 334.751624 238.359735 
L 334.899675 243.814323 
L 335.047214 239.138961 
L 335.194246 241.716404 
L 335.267572 241.536583 
L 335.340773 240.03807 
L 335.413848 240.517594 
L 335.559625 241.656464 
L 335.704907 239.01908 
L 335.849695 241.776345 
L 335.993995 237.82027 
L 336.137809 241.716404 
L 336.423991 238.239853 
L 336.495239 241.116999 
L 336.566367 239.678426 
L 336.637377 239.798307 
L 336.70827 240.637475 
L 336.849702 237.460626 
L 336.990668 239.738367 
L 337.060977 238.179913 
L 337.13117 238.359735 
L 337.201249 238.719378 
L 337.341061 236.801281 
L 337.480417 239.079021 
L 337.549925 238.719378 
L 337.61932 236.801281 
L 337.688603 236.861221 
L 337.757773 238.599497 
L 337.826831 238.539556 
L 338.033339 237.700389 
L 338.101954 237.640448 
L 338.238853 236.621459 
L 338.307139 237.220864 
L 338.375316 238.899199 
L 338.443384 238.719378 
L 338.579195 238.179913 
L 338.646939 235.362708 
L 338.714576 235.66241 
L 338.849529 240.697415 
L 338.984057 233.624432 
L 339.051162 235.182886 
L 339.185058 239.618486 
L 339.318535 234.52354 
L 339.385117 236.6814 
L 339.451596 238.000091 
L 339.517972 235.722351 
L 339.584244 236.141935 
L 339.782447 233.864194 
L 339.848311 233.924135 
L 339.979734 235.962113 
L 340.045295 234.163897 
L 340.110755 234.583481 
L 340.176115 236.501578 
L 340.241375 235.542529 
L 340.306535 236.081994 
L 340.436558 232.2458 
L 340.630854 239.978129 
L 340.759896 232.2458 
L 340.82427 233.504551 
L 340.952729 239.918188 
L 341.080803 231.886157 
L 341.208494 236.441637 
L 341.335805 232.425622 
L 341.462737 234.343719 
L 341.526062 231.766276 
L 341.589293 232.785265 
L 341.715475 234.163897 
L 341.841286 232.725324 
L 341.966727 234.52354 
L 342.029309 231.406632 
L 342.0918 233.624432 
L 342.216509 234.283778 
L 342.402892 230.867168 
L 342.464839 231.826216 
L 342.588465 235.003065 
L 342.711733 230.807227 
L 342.773235 231.16687 
L 342.834648 233.744313 
L 342.957209 228.94907 
L 343.07942 234.823243 
L 343.140394 233.084967 
L 343.201282 229.488535 
L 343.262083 229.96806 
L 343.322797 233.025027 
L 343.383426 231.046989 
L 343.504425 229.96806 
L 343.564796 232.365681 
L 343.625082 231.286751 
L 343.685283 229.308714 
L 343.745399 230.747287 
L 343.925242 229.128892 
L 343.985022 229.488535 
L 344.044718 228.049962 
L 344.223308 230.387643 
L 344.282672 228.829189 
L 344.341954 229.428595 
L 344.519308 228.649368 
L 344.637136 231.406632 
L 344.695928 229.248773 
L 344.75464 229.96806 
L 344.871821 228.649368 
L 344.930292 230.507524 
L 344.988682 228.109903 
L 345.046993 228.289725 
L 345.105224 229.668357 
L 345.163376 229.128892 
L 345.221449 227.270735 
L 345.279443 228.769249 
L 345.337358 229.308714 
L 345.510635 226.971033 
L 345.568238 227.150854 
L 345.625764 229.248773 
L 345.683212 227.630379 
L 345.797876 226.67133 
L 345.855094 227.270736 
L 345.912234 227.210795 
L 345.969299 226.61139 
L 346.140036 229.488535 
L 346.196797 228.229784 
L 346.310093 224.992995 
L 346.366628 226.311687 
L 346.479475 230.028 
L 346.592025 224.213768 
L 346.648189 226.131865 
L 346.704279 227.510498 
L 346.816239 225.592401 
L 346.872109 226.131865 
L 346.927906 223.31466 
L 346.98363 224.033947 
L 347.094861 227.510498 
L 347.316458 222.295671 
L 347.426826 228.109903 
L 347.536911 222.715255 
L 347.591846 224.213768 
L 347.646712 226.67133 
L 347.701507 225.352638 
L 347.756231 223.074898 
L 347.810886 223.854125 
L 347.919986 225.352638 
L 348.028808 223.374601 
L 348.083115 224.033947 
L 348.137354 223.974006 
L 348.245624 222.655314 
L 348.407517 224.813174 
L 348.515105 220.137812 
L 348.622423 225.472519 
L 348.675982 224.813174 
L 348.782897 220.797158 
L 348.889545 225.292698 
L 348.995928 223.494482 
L 349.04902 224.45353 
L 349.102046 224.033947 
L 349.207902 223.31466 
L 349.313495 225.832163 
L 349.418829 221.396563 
L 349.471398 223.494482 
L 349.523903 221.995968 
L 349.628719 219.838109 
L 349.733279 222.415552 
L 349.837583 220.377574 
L 349.88964 220.917039 
L 349.993564 219.838109 
L 350.097235 221.516444 
L 350.148977 221.156801 
L 350.252272 218.639298 
L 350.303827 219.058882 
L 350.458117 220.677277 
L 350.560668 218.399536 
L 350.611852 221.03692 
L 350.662974 219.95799 
L 350.714035 219.658288 
L 350.765035 220.137812 
L 350.815975 218.699239 
L 350.866853 220.077871 
L 351.120341 217.260666 
L 351.170859 218.339596 
L 351.221317 218.039893 
L 351.271715 217.440488 
L 351.322054 218.699239 
L 351.372334 218.279655 
L 351.572863 217.080845 
L 351.622849 218.399536 
L 351.672776 217.800131 
L 351.772455 215.702212 
L 351.871903 219.058882 
L 351.92154 216.960963 
L 352.020641 215.46245 
L 352.119513 217.68025 
L 352.218156 213.124769 
L 352.267393 214.32358 
L 352.316573 216.661261 
L 352.365696 215.882034 
L 352.463773 213.844056 
L 352.610468 216.001915 
L 352.756661 213.24465 
L 352.805281 213.484412 
L 352.902355 215.582331 
L 352.950809 214.863045 
L 353.047554 211.866018 
L 353.095844 213.064829 
L 353.192261 216.481439 
L 353.240388 216.061855 
L 353.336479 211.806077 
L 353.384444 213.004888 
L 353.480212 214.683223 
L 353.528016 214.503402 
L 353.575766 214.623283 
L 353.671107 211.266613 
L 353.766235 213.24465 
L 353.81372 211.266613 
L 353.861152 211.746137 
L 353.955859 212.705185 
L 354.050356 211.02685 
L 354.097526 211.086791 
L 354.144644 212.705185 
L 354.238725 212.285602 
L 354.285688 211.686196 
L 354.332599 209.528337 
L 354.379459 210.547326 
L 354.473024 213.484412 
L 354.51973 211.326553 
L 354.566385 209.168694 
L 354.612989 210.067802 
L 354.706045 212.944948 
L 354.752497 208.209645 
L 354.798899 209.168694 
L 354.891551 211.326553 
L 354.937802 207.310537 
L 354.984003 208.928932 
L 355.030153 209.588278 
L 355.076255 209.228634 
L 355.260163 207.250597 
L 355.351821 210.727148 
L 355.397576 209.468397 
L 355.443283 207.130716 
L 355.534549 207.550299 
L 355.625621 209.708159 
L 355.671084 209.108753 
L 355.807184 207.370478 
L 355.852454 207.010835 
L 355.897677 208.629229 
L 355.942851 207.969883 
L 356.033057 204.852975 
L 356.078089 206.53131 
L 356.123074 209.288575 
L 356.168011 206.771072 
L 356.2129 204.793035 
L 356.302539 205.152678 
L 356.391989 207.550299 
L 356.436644 207.250597 
L 356.525815 202.455354 
L 356.57033 203.654165 
L 356.659222 207.790062 
L 356.703599 205.871964 
L 356.792215 203.354462 
L 356.836454 203.414402 
L 356.924794 206.171667 
L 357.012952 203.234581 
L 357.056963 203.893927 
L 357.188725 204.852975 
L 357.407428 201.616186 
L 357.451034 202.874938 
L 357.538114 202.814997 
L 357.581588 200.597197 
L 357.625017 202.395413 
L 357.668402 205.3325 
L 357.711743 202.635176 
L 357.798293 199.75803 
L 357.884669 202.155651 
L 357.927791 201.196603 
L 358.013905 198.858922 
L 358.099846 202.395413 
L 358.142752 200.836959 
L 358.185615 199.458327 
L 358.228434 199.937851 
L 358.271211 203.474343 
L 358.313945 200.597197 
L 358.356636 198.6791 
L 358.399285 199.458327 
L 358.484455 203.594224 
L 358.526976 200.8969 
L 358.569455 199.338446 
L 358.611892 201.376424 
L 358.654287 200.057733 
L 358.73895 203.714105 
L 358.865631 196.581181 
L 358.907775 197.720052 
L 358.949877 201.496305 
L 358.991938 199.338446 
L 359.033957 194.902846 
L 359.075935 195.442311 
L 359.117872 198.259516 
L 359.159767 197.959814 
L 359.243436 194.723025 
L 359.285208 195.742014 
L 359.32694 196.641122 
L 359.368632 196.161598 
L 359.410282 195.502252 
L 359.493462 195.742014 
L 359.576479 194.902846 
L 359.659336 198.439338 
L 359.700704 196.940825 
L 359.783321 193.763976 
L 359.824569 195.981776 
L 359.865777 196.041717 
L 359.906946 197.360408 
L 359.948075 197.240527 
L 360.030215 194.12362 
L 360.071226 195.202549 
L 360.112197 196.761003 
L 360.153129 195.382371 
L 360.234876 194.962787 
L 360.275691 196.521241 
L 360.316466 196.4613 
L 360.357203 193.404333 
L 360.438561 193.823917 
L 360.479181 195.022728 
L 360.519764 194.003738 
L 360.641279 191.306414 
L 360.722098 195.442311 
L 360.76245 193.404333 
L 360.84304 191.845879 
L 360.883277 194.063679 
L 360.923478 191.666058 
L 360.96364 190.047663 
L 361.043851 197.000765 
L 361.083901 192.864868 
L 361.123913 187.889804 
L 361.163887 189.448258 
L 361.243724 194.363382 
L 361.283586 192.385344 
L 361.323412 189.028674 
L 361.402951 191.006712 
L 361.442665 189.807901 
L 361.482342 190.76695 
L 361.521983 191.90582 
L 361.601154 187.110577 
L 361.640684 189.74796 
L 361.680178 190.707009 
L 361.719635 189.028674 
L 361.837789 189.68802 
L 361.877102 187.590101 
L 361.916378 189.388317 
L 361.955617 192.385344 
L 361.994821 189.927782 
L 362.033989 186.031647 
L 362.073121 187.170517 
L 362.151278 190.407306 
L 362.190303 189.807901 
L 362.229292 187.41028 
L 362.307164 188.369328 
L 362.346046 188.369328 
L 362.384894 188.968733 
L 362.462483 186.511172 
L 362.501224 187.650042 
L 362.539931 188.669031 
L 362.578602 187.230458 
L 362.617239 184.233431 
L 362.65584 185.492182 
L 362.694407 187.709982 
L 362.732939 186.810874 
L 362.771436 183.873788 
L 362.848326 185.372301 
L 362.88672 185.552123 
L 363.039949 183.454204 
L 363.154512 185.552123 
L 363.192631 185.19248 
L 363.230716 182.435215 
L 363.306785 184.293372 
L 363.344769 184.233431 
L 363.420635 181.356286 
L 363.534182 182.375275 
L 363.609713 184.413253 
L 363.647428 182.495156 
L 363.68511 182.435215 
L 363.873023 184.05361 
L 363.947958 180.936702 
L 363.985376 181.655988 
L 364.060114 190.227485 
L 364.097434 182.015631 
L 364.134721 178.47914 
L 364.171976 181.416226 
L 364.209198 182.97468 
L 364.246388 181.296345 
L 364.283545 177.879735 
L 364.357764 180.577059 
L 364.394825 181.056583 
L 364.46885 178.599021 
L 364.542747 179.018605 
L 364.616517 178.838783 
L 364.69016 179.917713 
L 364.763675 177.040567 
L 364.800386 177.939675 
L 364.873712 180.876761 
L 364.910328 176.920686 
L 364.983466 180.037594 
L 365.056479 179.737891 
L 365.129368 179.018605 
L 365.202132 177.580032 
L 365.238468 179.018605 
L 365.34729 175.961637 
L 365.383502 176.740864 
L 365.419684 178.059556 
L 365.455835 176.980626 
L 365.491956 174.942648 
L 365.564106 176.381221 
L 365.600135 176.680924 
L 365.672102 174.702886 
L 365.708041 175.242351 
L 365.743949 176.860745 
L 365.779827 176.620983 
L 365.851492 173.564016 
L 365.88728 174.523065 
L 365.958765 177.460151 
L 365.994463 175.062529 
L 366.06577 172.604967 
L 366.101379 173.683897 
L 366.136958 174.942648 
L 366.208027 173.803778 
L 366.243517 174.583005 
L 366.31441 172.125443 
L 366.349812 172.90467 
L 366.420528 174.882708 
L 366.455842 173.204373 
L 366.526383 171.406157 
L 366.596808 174.523065 
L 366.631977 173.623956 
L 366.702228 172.185384 
L 366.73731 170.566989 
L 366.807389 171.406157 
L 366.842385 173.623956 
L 366.877352 172.664908 
L 366.947201 169.727822 
L 366.982083 170.68687 
L 367.016936 174.163421 
L 367.051761 171.945622 
L 367.086557 168.888654 
L 367.156065 171.166395 
L 367.190777 170.387168 
L 367.22546 171.106454 
L 367.260115 173.384194 
L 367.294743 169.967584 
L 367.363913 167.390141 
L 367.398456 169.308238 
L 367.432971 172.005562 
L 367.467459 167.629903 
L 367.501918 165.951568 
L 367.53635 169.667881 
L 367.570754 170.926632 
L 367.60513 169.068476 
L 367.6738 167.030498 
L 367.708094 168.169368 
L 367.74236 168.708833 
L 367.87915 166.311211 
L 368.015503 169.667881 
L 368.049524 166.790735 
L 368.151423 166.850676 
L 368.185335 166.19133 
L 368.21922 166.910617 
L 368.286911 169.008535 
L 368.320716 167.210319 
L 368.354494 164.453055 
L 368.421971 167.27026 
L 368.455669 166.850676 
L 368.489341 163.97353 
L 368.590197 164.453055 
L 368.623763 163.494006 
L 368.657303 164.752757 
L 368.690816 165.771746 
L 368.757763 165.412103 
L 368.857989 162.77472 
L 368.924675 165.1124 
L 368.957979 163.613887 
L 368.991258 163.074422 
L 369.02451 165.591925 
L 369.090937 163.97353 
L 369.157261 161.336147 
L 369.190384 164.393114 
L 369.223482 164.333174 
L 369.289601 162.115374 
L 369.355617 162.894601 
L 369.388587 162.475017 
L 369.421532 165.352163 
L 369.454451 164.572936 
L 369.487345 161.336147 
L 369.585875 162.475017 
L 369.618667 160.676801 
L 369.651435 161.755731 
L 369.684178 164.213292 
L 369.716895 163.853649 
L 369.749587 159.657812 
L 369.814897 163.014482 
L 370.01023 157.080369 
L 370.075143 163.673828 
L 370.107562 160.197277 
L 370.172327 157.380071 
L 370.204673 159.837633 
L 370.236994 160.317158 
L 370.398235 156.780666 
L 370.462561 159.777693 
L 370.494688 157.380071 
L 370.558869 157.080369 
L 370.590924 157.20025 
L 370.654961 159.118347 
L 370.686943 157.559893 
L 370.782748 156.181261 
L 370.814635 158.459001 
L 370.878337 156.540904 
L 370.910153 155.461974 
L 370.941945 156.720726 
L 370.973713 158.279179 
L 371.005458 156.301142 
L 371.037179 155.282153 
L 371.068877 158.159298 
L 371.132202 155.641796 
L 371.163829 155.941499 
L 371.195433 155.222212 
L 371.227014 158.33912 
L 371.290105 156.301142 
L 371.321615 154.862569 
L 371.384567 155.761677 
L 371.416008 155.881558 
L 371.478821 156.780666 
L 371.510192 153.304115 
L 371.572867 154.502926 
L 371.60417 157.739715 
L 371.635449 154.083342 
L 371.697941 156.421023 
L 371.791506 152.524888 
L 371.822649 155.282153 
L 371.853769 156.900547 
L 371.884867 153.723699 
L 371.915942 151.56584 
L 372.009032 152.524888 
L 372.040017 153.963461 
L 372.101919 152.285126 
L 372.132837 149.827564 
L 372.194605 153.663758 
L 372.317873 150.127267 
L 372.410092 151.685721 
L 372.440788 151.326077 
L 372.471461 151.745661 
L 372.502112 150.966434 
L 372.593935 148.928456 
L 372.624498 150.067326 
L 372.65504 152.884531 
L 372.716058 149.527861 
L 372.746534 149.048337 
L 372.776989 149.947445 
L 372.807422 151.505899 
L 372.868223 150.127267 
L 372.898591 150.426969 
L 372.928937 147.370002 
L 372.989566 150.906494 
L 373.050108 147.609764 
L 373.080347 148.628753 
L 373.110565 151.326077 
L 373.140761 149.467921 
L 373.170936 146.710656 
L 373.231222 150.007386 
L 373.321492 148.628753 
L 373.351539 150.007386 
L 373.381566 147.070299 
L 373.411571 146.111251 
L 373.441555 147.789586 
L 373.471519 149.767624 
L 373.531382 148.149229 
L 373.591162 145.212143 
L 373.62102 145.511846 
L 373.650858 148.928456 
L 373.710471 146.890478 
L 373.799735 145.631727 
L 373.85914 148.808575 
L 373.888812 145.99137 
L 373.918463 143.713629 
L 373.977704 147.010359 
L 374.125448 143.653689 
L 374.184402 147.549824 
L 374.213849 144.432916 
L 374.243276 142.814521 
L 374.302068 145.092262 
L 374.331434 145.092262 
L 374.36078 144.972381 
L 374.390105 142.69464 
L 374.448696 144.073273 
L 374.477961 144.612738 
L 374.507206 142.334997 
L 374.536432 144.732619 
L 374.565637 143.77357 
L 374.594822 144.193154 
L 374.711364 142.035294 
L 374.769516 144.552797 
L 374.798562 143.533808 
L 374.827589 140.117197 
L 374.885583 144.492856 
L 374.914551 145.511846 
L 374.943499 143.054284 
L 374.972427 143.713629 
L 375.001336 143.234105 
L 375.030225 140.35696 
L 375.059094 144.133213 
L 375.116775 141.256068 
L 375.145586 140.836484 
L 375.174378 141.975354 
L 375.203151 143.593748 
L 375.260637 140.716603 
L 375.289352 142.454878 
L 375.375379 141.136186 
L 375.404017 142.814521 
L 375.461234 142.215116 
L 375.518374 139.937376 
L 375.546916 142.69464 
L 375.575439 144.492856 
L 375.603942 141.375949 
L 375.689339 139.697614 
L 375.717767 144.732619 
L 375.774566 138.678625 
L 375.802937 137.719576 
L 375.831289 138.378922 
L 375.859622 141.316008 
L 375.916233 137.659635 
L 375.94451 139.33797 
L 376.001008 137.359933 
L 376.057432 137.659635 
L 376.085616 139.757554 
L 376.141928 137.120171 
L 376.170056 137.240052 
L 376.226257 139.997316 
L 376.254329 137.06023 
L 376.282384 137.839457 
L 376.338437 137.299992 
L 376.422379 140.117197 
L 376.561917 134.542728 
L 376.589771 135.9813 
L 376.645422 138.019279 
L 376.673221 135.022252 
L 376.784235 138.738565 
L 376.811943 137.240052 
L 376.867306 134.962311 
L 376.922598 138.798506 
L 376.950217 133.763501 
L 376.977818 133.224036 
L 377.005401 137.419873 
L 377.088044 135.321955 
L 377.170527 133.64362 
L 377.252852 135.501776 
L 377.280258 134.722549 
L 377.307647 134.123144 
L 377.335018 135.621657 
L 377.389708 134.542728 
L 377.417026 137.419873 
L 377.526126 133.763501 
L 377.471611 137.599695 
L 377.553358 134.422847 
L 377.580572 134.84243 
L 377.607769 134.542728 
L 377.743494 131.725522 
L 377.770587 131.965285 
L 377.797663 134.422847 
L 377.878789 133.044214 
L 377.905797 132.864393 
L 377.932787 133.104155 
L 377.959761 134.063203 
L 378.013657 133.283976 
L 378.067485 131.066177 
L 378.094374 134.243025 
L 378.121245 134.962311 
L 378.1481 132.864393 
L 378.201759 131.006236 
L 378.255351 132.384868 
L 378.308876 133.044214 
L 378.335613 131.905344 
L 378.362333 131.785463 
L 378.415724 132.145106 
L 378.495685 130.706533 
L 378.575497 131.186058 
L 378.602068 130.946295 
L 378.628622 130.886355 
L 378.681681 130.227009 
L 378.734675 132.62463 
L 378.787603 130.406831 
L 378.814042 129.327901 
L 378.840465 130.406831 
L 378.866871 133.283976 
L 378.919635 131.305939 
L 379.024969 129.088139 
L 379.077538 131.605641 
L 379.103799 129.507723 
L 379.130043 128.06915 
L 379.156271 129.20802 
L 379.182483 131.42582 
L 379.234859 126.750458 
L 379.261023 127.050161 
L 379.339419 130.766474 
L 379.391603 129.747485 
L 379.443723 127.769447 
L 379.46976 130.28695 
L 379.49578 131.126117 
L 379.521785 130.107128 
L 379.625645 127.829388 
L 379.651571 128.248971 
L 379.677481 130.167068 
L 379.729254 127.709507 
L 379.755117 128.428793 
L 379.780964 128.488734 
L 379.806796 129.927306 
L 379.858412 126.93028 
L 379.884197 125.85135 
L 379.93572 128.308912 
L 380.012889 126.210993 
L 380.064257 127.409804 
L 380.089918 127.649566 
L 380.115563 127.289923 
L 380.166808 126.031172 
L 380.192408 125.012182 
L 380.217992 127.889328 
L 380.320175 125.012182 
L 380.371175 125.431766 
L 380.396653 127.289923 
L 380.447562 125.611588 
L 380.472993 124.652539 
L 380.523811 125.671528 
L 380.549198 125.971231 
L 380.574569 125.431766 
L 380.599925 124.592599 
L 380.625267 125.85135 
L 380.675904 125.311885 
L 380.7012 126.390815 
L 380.726481 124.832361 
L 380.751748 123.693491 
L 380.776999 125.192004 
L 380.802235 126.630577 
L 380.852664 123.813372 
L 380.877855 123.213966 
L 380.928194 126.570636 
L 381.003592 124.952242 
L 381.078856 123.453729 
L 381.103915 126.99022 
L 381.179003 122.554621 
L 381.25396 126.810399 
L 381.328785 125.132064 
L 381.378595 121.595572 
L 381.478043 123.453729 
L 381.502868 123.393788 
L 381.52768 121.955215 
L 381.602027 122.554621 
L 381.626781 124.173015 
L 381.676246 122.075096 
L 381.725653 120.996167 
L 381.750335 123.034145 
L 381.775003 125.551647 
L 381.824296 122.854323 
L 381.848922 121.175988 
L 381.89813 123.094085 
L 381.922713 124.292896 
L 381.971836 122.674502 
L 382.118867 121.235929 
L 382.143324 122.314858 
L 382.167766 120.816345 
L 382.192194 119.497653 
L 382.216608 122.015156 
L 382.265395 123.273907 
L 382.289767 120.876286 
L 382.314126 118.778367 
L 382.362801 122.135037 
L 382.411421 119.737415 
L 382.508495 121.955215 
L 382.55695 118.358783 
L 382.605349 121.775394 
L 382.629528 123.094085 
L 382.653694 120.876286 
L 382.677846 118.898248 
L 382.75022 121.655512 
L 382.774317 119.857296 
L 382.870571 118.418724 
L 382.846528 120.636523 
L 382.894601 119.197951 
L 382.942619 121.595572 
L 382.966608 118.119021 
L 382.990584 116.680448 
L 383.038495 120.21694 
L 383.086352 117.519616 
L 383.205762 120.396761 
L 383.348613 117.159972 
L 383.443583 118.718426 
L 383.467292 118.478664 
L 383.490989 116.260864 
L 383.561999 119.257891 
L 383.609274 116.440686 
L 383.703666 117.639497 
L 383.821364 116.081043 
L 383.774324 118.05908 
L 383.844865 116.260864 
L 383.868353 116.200924 
L 383.962175 117.819318 
L 384.032407 114.462648 
L 384.055792 116.980151 
L 384.079164 118.538605 
L 384.12587 115.481637 
L 384.149204 114.282827 
L 384.172525 117.159972 
L 384.195834 117.699437 
L 384.219129 117.639497 
L 384.335418 115.121994 
L 384.381844 115.841281 
L 384.405039 115.002113 
L 384.428221 114.402708 
L 384.45139 116.021102 
L 384.474547 115.481637 
L 384.497691 115.661459 
L 384.543942 116.980151 
L 384.613224 113.743362 
L 384.682395 117.399735 
L 384.728446 114.282827 
L 384.751453 113.923183 
L 384.774448 115.301816 
L 384.79743 116.680448 
L 384.843358 113.863243 
L 384.866303 114.222886 
L 384.912156 115.301816 
L 384.935065 114.462648 
L 384.957961 113.683421 
L 384.980845 114.582529 
L 385.026576 114.522589 
L 385.049423 114.522589 
L 385.09508 113.743362 
L 385.117891 113.803302 
L 385.140689 116.140983 
L 385.209011 112.844254 
L 385.231761 114.64247 
L 385.277224 116.320805 
L 385.299937 114.043065 
L 385.322639 110.746335 
L 385.413324 113.024075 
L 385.435965 114.582529 
L 385.481211 111.34574 
L 385.52641 114.402708 
L 385.548991 114.582529 
L 385.594118 111.405681 
L 385.639198 115.601518 
L 385.661719 113.084016 
L 385.684229 113.743362 
L 385.706727 113.203897 
L 385.729214 111.465622 
L 385.751688 113.263838 
L 385.81904 111.705384 
L 385.841468 111.765324 
L 385.886287 110.866216 
L 385.908679 111.465622 
L 385.931059 113.383719 
L 385.975784 109.847227 
L 386.020463 112.36473 
L 386.087393 112.244849 
L 386.131955 113.623481 
L 386.265363 111.046038 
L 386.309739 110.386692 
L 386.376218 112.42467 
L 386.398355 109.787287 
L 386.486787 110.626454 
L 386.59707 112.544551 
L 386.530934 110.326751 
L 386.619092 111.945146 
L 386.794865 109.427643 
L 386.860593 111.2858 
L 386.904356 107.329725 
L 386.948074 110.626454 
L 386.969917 111.765324 
L 386.991748 109.367703 
L 387.013568 107.92913 
L 387.057174 109.607465 
L 387.078961 109.367703 
L 387.122501 111.405681 
L 387.165996 109.967108 
L 387.209448 108.708357 
L 387.252855 111.165919 
L 387.274542 112.065027 
L 387.296218 109.427643 
L 387.382812 107.809249 
L 387.404434 109.307762 
L 387.426044 109.427643 
L 387.447643 107.629427 
L 387.512376 109.727346 
L 387.533931 108.288773 
L 387.555476 108.228833 
L 387.57701 107.689368 
L 387.598533 109.667405 
L 387.641547 108.828238 
L 387.705986 107.329725 
L 387.727445 107.92913 
L 387.748892 110.386692 
L 387.81317 107.629427 
L 387.834574 107.629427 
L 387.898724 108.828238 
L 387.920085 106.310735 
L 387.920085 106.310735 
" clip-path="url(#pbea1a1d0c8)" style="fill: none; stroke: #ff7f0e; stroke-width: 1.5; stroke-linecap: square"/>
   </g>
   <g id="patch_3">
    <path d="M 47.032813 296.430125 
L 47.032813 30.318125 
" style="fill: none; stroke: #000000; stroke-width: 0.8; stroke-linejoin: miter; stroke-linecap: square"/>
   </g>
   <g id="patch_4">
    <path d="M 404.152812 296.430125 
L 404.152812 30.318125 
" style="fill: none; stroke: #000000; stroke-width: 0.8; stroke-linejoin: miter; stroke-linecap: square"/>
   </g>
   <g id="patch_5">
    <path d="M 47.032813 296.430125 
L 404.152813 296.430125 
" style="fill: none; stroke: #000000; stroke-width: 0.8; stroke-linejoin: miter; stroke-linecap: square"/>
   </g>
   <g id="patch_6">
    <path d="M 47.032813 30.318125 
L 404.152813 30.318125 
" style="fill: none; stroke: #000000; stroke-width: 0.8; stroke-linejoin: miter; stroke-linecap: square"/>
   </g>
   <g id="text_12">
    <!-- Accuracy per Epoch (3-Layer MLP on MNIST) -->
    <g transform="translate(75.891875 16.318125) scale(0.12 -0.12)">
     <defs>
      <path id="DejaVuSans-Bold-65" d="M 4031 1759 
L 4031 1441 
L 1416 1441 
Q 1456 1047 1700 850 
Q 1944 653 2381 653 
Q 2734 653 3104 758 
Q 3475 863 3866 1075 
L 3866 213 
Q 3469 63 3072 -14 
Q 2675 -91 2278 -91 
Q 1328 -91 801 392 
Q 275 875 275 1747 
Q 275 2603 792 3093 
Q 1309 3584 2216 3584 
Q 3041 3584 3536 3087 
Q 4031 2591 4031 1759 
z
M 2881 2131 
Q 2881 2450 2695 2645 
Q 2509 2841 2209 2841 
Q 1884 2841 1681 2658 
Q 1478 2475 1428 2131 
L 2881 2131 
z
" transform="scale(0.015625)"/>
      <path id="DejaVuSans-Bold-33" d="M 2981 2516 
Q 3453 2394 3698 2092 
Q 3944 1791 3944 1325 
Q 3944 631 3412 270 
Q 2881 -91 1863 -91 
Q 1503 -91 1142 -33 
Q 781 25 428 141 
L 428 1069 
Q 766 900 1098 814 
Q 1431 728 1753 728 
Q 2231 728 2486 893 
Q 2741 1059 2741 1369 
Q 2741 1688 2480 1852 
Q 2219 2016 1709 2016 
L 1228 2016 
L 1228 2791 
L 1734 2791 
Q 2188 2791 2409 2933 
Q 2631 3075 2631 3366 
Q 2631 3634 2415 3781 
Q 2200 3928 1806 3928 
Q 1516 3928 1219 3862 
Q 922 3797 628 3669 
L 628 4550 
Q 984 4650 1334 4700 
Q 1684 4750 2022 4750 
Q 2931 4750 3382 4451 
Q 3834 4153 3834 3553 
Q 3834 3144 3618 2883 
Q 3403 2622 2981 2516 
z
" transform="scale(0.015625)"/>
      <path id="DejaVuSans-Bold-2d" d="M 347 2297 
L 2309 2297 
L 2309 1388 
L 347 1388 
L 347 2297 
z
" transform="scale(0.015625)"/>
      <path id="DejaVuSans-Bold-4c" d="M 588 4666 
L 1791 4666 
L 1791 909 
L 3903 909 
L 3903 0 
L 588 0 
L 588 4666 
z
" transform="scale(0.015625)"/>
      <path id="DejaVuSans-Bold-4d" d="M 588 4666 
L 2119 4666 
L 3181 2169 
L 4250 4666 
L 5778 4666 
L 5778 0 
L 4641 0 
L 4641 3413 
L 3566 897 
L 2803 897 
L 1728 3413 
L 1728 0 
L 588 0 
L 588 4666 
z
" transform="scale(0.015625)"/>
      <path id="DejaVuSans-Bold-50" d="M 588 4666 
L 2584 4666 
Q 3475 4666 3951 4270 
Q 4428 3875 4428 3144 
Q 4428 2409 3951 2014 
Q 3475 1619 2584 1619 
L 1791 1619 
L 1791 0 
L 588 0 
L 588 4666 
z
M 1791 3794 
L 1791 2491 
L 2456 2491 
Q 2806 2491 2997 2661 
Q 3188 2831 3188 3144 
Q 3188 3456 2997 3625 
Q 2806 3794 2456 3794 
L 1791 3794 
z
" transform="scale(0.015625)"/>
      <path id="DejaVuSans-Bold-6e" d="M 4056 2131 
L 4056 0 
L 2931 0 
L 2931 347 
L 2931 1631 
Q 2931 2084 2911 2256 
Q 2891 2428 2841 2509 
Q 2775 2619 2662 2680 
Q 2550 2741 2406 2741 
Q 2056 2741 1856 2470 
Q 1656 2200 1656 1722 
L 1656 0 
L 538 0 
L 538 3500 
L 1656 3500 
L 1656 2988 
Q 1909 3294 2193 3439 
Q 2478 3584 2822 3584 
Q 3428 3584 3742 3212 
Q 4056 2841 4056 2131 
z
" transform="scale(0.015625)"/>
      <path id="DejaVuSans-Bold-4e" d="M 588 4666 
L 1931 4666 
L 3628 1466 
L 3628 4666 
L 4769 4666 
L 4769 0 
L 3425 0 
L 1728 3200 
L 1728 0 
L 588 0 
L 588 4666 
z
" transform="scale(0.015625)"/>
      <path id="DejaVuSans-Bold-49" d="M 588 4666 
L 1791 4666 
L 1791 0 
L 588 0 
L 588 4666 
z
" transform="scale(0.015625)"/>
      <path id="DejaVuSans-Bold-53" d="M 3834 4519 
L 3834 3531 
Q 3450 3703 3084 3790 
Q 2719 3878 2394 3878 
Q 1963 3878 1756 3759 
Q 1550 3641 1550 3391 
Q 1550 3203 1689 3098 
Q 1828 2994 2194 2919 
L 2706 2816 
Q 3484 2659 3812 2340 
Q 4141 2022 4141 1434 
Q 4141 663 3683 286 
Q 3225 -91 2284 -91 
Q 1841 -91 1394 -6 
Q 947 78 500 244 
L 500 1259 
Q 947 1022 1364 901 
Q 1781 781 2169 781 
Q 2563 781 2772 912 
Q 2981 1044 2981 1288 
Q 2981 1506 2839 1625 
Q 2697 1744 2272 1838 
L 1806 1941 
Q 1106 2091 782 2419 
Q 459 2747 459 3303 
Q 459 4000 909 4375 
Q 1359 4750 2203 4750 
Q 2588 4750 2994 4692 
Q 3400 4634 3834 4519 
z
" transform="scale(0.015625)"/>
      <path id="DejaVuSans-Bold-54" d="M 31 4666 
L 4331 4666 
L 4331 3756 
L 2784 3756 
L 2784 0 
L 1581 0 
L 1581 3756 
L 31 3756 
L 31 4666 
z
" transform="scale(0.015625)"/>
     </defs>
     <use xlink:href="#DejaVuSans-Bold-41"/>
     <use xlink:href="#DejaVuSans-Bold-63" transform="translate(77.392578 0)"/>
     <use xlink:href="#DejaVuSans-Bold-63" transform="translate(136.669922 0)"/>
     <use xlink:href="#DejaVuSans-Bold-75" transform="translate(195.947266 0)"/>
     <use xlink:href="#DejaVuSans-Bold-72" transform="translate(267.138672 0)"/>
     <use xlink:href="#DejaVuSans-Bold-61" transform="translate(316.455078 0)"/>
     <use xlink:href="#DejaVuSans-Bold-63" transform="translate(383.935547 0)"/>
     <use xlink:href="#DejaVuSans-Bold-79" transform="translate(443.212891 0)"/>
     <use xlink:href="#DejaVuSans-Bold-20" transform="translate(508.398438 0)"/>
     <use xlink:href="#DejaVuSans-Bold-70" transform="translate(543.212891 0)"/>
     <use xlink:href="#DejaVuSans-Bold-65" transform="translate(614.794922 0)"/>
     <use xlink:href="#DejaVuSans-Bold-72" transform="translate(682.617188 0)"/>
     <use xlink:href="#DejaVuSans-Bold-20" transform="translate(731.933594 0)"/>
     <use xlink:href="#DejaVuSans-Bold-45" transform="translate(766.748047 0)"/>
     <use xlink:href="#DejaVuSans-Bold-70" transform="translate(835.058594 0)"/>
     <use xlink:href="#DejaVuSans-Bold-6f" transform="translate(906.640625 0)"/>
     <use xlink:href="#DejaVuSans-Bold-63" transform="translate(975.341797 0)"/>
     <use xlink:href="#DejaVuSans-Bold-68" transform="translate(1034.619141 0)"/>
     <use xlink:href="#DejaVuSans-Bold-20" transform="translate(1105.810547 0)"/>
     <use xlink:href="#DejaVuSans-Bold-28" transform="translate(1140.625 0)"/>
     <use xlink:href="#DejaVuSans-Bold-33" transform="translate(1186.328125 0)"/>
     <use xlink:href="#DejaVuSans-Bold-2d" transform="translate(1255.908203 0)"/>
     <use xlink:href="#DejaVuSans-Bold-4c" transform="translate(1297.412109 0)"/>
     <use xlink:href="#DejaVuSans-Bold-61" transform="translate(1361.132812 0)"/>
     <use xlink:href="#DejaVuSans-Bold-79" transform="translate(1425.488281 0)"/>
     <use xlink:href="#DejaVuSans-Bold-65" transform="translate(1490.673828 0)"/>
     <use xlink:href="#DejaVuSans-Bold-72" transform="translate(1558.496094 0)"/>
     <use xlink:href="#DejaVuSans-Bold-20" transform="translate(1607.8125 0)"/>
     <use xlink:href="#DejaVuSans-Bold-4d" transform="translate(1642.626953 0)"/>
     <use xlink:href="#DejaVuSans-Bold-4c" transform="translate(1742.138672 0)"/>
     <use xlink:href="#DejaVuSans-Bold-50" transform="translate(1805.859375 0)"/>
     <use xlink:href="#DejaVuSans-Bold-20" transform="translate(1879.150391 0)"/>
     <use xlink:href="#DejaVuSans-Bold-6f" transform="translate(1913.964844 0)"/>
     <use xlink:href="#DejaVuSans-Bold-6e" transform="translate(1982.666016 0)"/>
     <use xlink:href="#DejaVuSans-Bold-20" transform="translate(2053.857422 0)"/>
     <use xlink:href="#DejaVuSans-Bold-4d" transform="translate(2088.671875 0)"/>
     <use xlink:href="#DejaVuSans-Bold-4e" transform="translate(2188.183594 0)"/>
     <use xlink:href="#DejaVuSans-Bold-49" transform="translate(2271.875 0)"/>
     <use xlink:href="#DejaVuSans-Bold-53" transform="translate(2309.082031 0)"/>
     <use xlink:href="#DejaVuSans-Bold-54" transform="translate(2381.103516 0)"/>
     <use xlink:href="#DejaVuSans-Bold-29" transform="translate(2449.316406 0)"/>
    </g>
   </g>
   <g id="legend_1">
    <g id="patch_7">
     <path d="M 54.032813 67.674375 
L 135.414062 67.674375 
Q 137.414062 67.674375 137.414062 65.674375 
L 137.414062 37.318125 
Q 137.414062 35.318125 135.414062 35.318125 
L 54.032813 35.318125 
Q 52.032813 35.318125 52.032813 37.318125 
L 52.032813 65.674375 
Q 52.032813 67.674375 54.032813 67.674375 
z
" style="fill: #ffffff; opacity: 0.8; stroke: #cccccc; stroke-linejoin: miter"/>
    </g>
    <g id="line2d_40">
     <path d="M 56.032813 43.416562 
L 66.032813 43.416562 
L 76.032813 43.416562 
" style="fill: none; stroke: #1f77b4; stroke-width: 1.5; stroke-linecap: square"/>
    </g>
    <g id="text_13">
     <!-- Train -->
     <g transform="translate(84.032813 46.916562) scale(0.1 -0.1)">
      <defs>
       <path id="DejaVuSans-54" d="M -19 4666 
L 3928 4666 
L 3928 4134 
L 2272 4134 
L 2272 0 
L 1638 0 
L 1638 4134 
L -19 4134 
L -19 4666 
z
" transform="scale(0.015625)"/>
       <path id="DejaVuSans-72" d="M 2631 2963 
Q 2534 3019 2420 3045 
Q 2306 3072 2169 3072 
Q 1681 3072 1420 2755 
Q 1159 2438 1159 1844 
L 1159 0 
L 581 0 
L 581 3500 
L 1159 3500 
L 1159 2956 
Q 1341 3275 1631 3429 
Q 1922 3584 2338 3584 
Q 2397 3584 2469 3576 
Q 2541 3569 2628 3553 
L 2631 2963 
z
" transform="scale(0.015625)"/>
       <path id="DejaVuSans-61" d="M 2194 1759 
Q 1497 1759 1228 1600 
Q 959 1441 959 1056 
Q 959 750 1161 570 
Q 1363 391 1709 391 
Q 2188 391 2477 730 
Q 2766 1069 2766 1631 
L 2766 1759 
L 2194 1759 
z
M 3341 1997 
L 3341 0 
L 2766 0 
L 2766 531 
Q 2569 213 2275 61 
Q 1981 -91 1556 -91 
Q 1019 -91 701 211 
Q 384 513 384 1019 
Q 384 1609 779 1909 
Q 1175 2209 1959 2209 
L 2766 2209 
L 2766 2266 
Q 2766 2663 2505 2880 
Q 2244 3097 1772 3097 
Q 1472 3097 1187 3025 
Q 903 2953 641 2809 
L 641 3341 
Q 956 3463 1253 3523 
Q 1550 3584 1831 3584 
Q 2591 3584 2966 3190 
Q 3341 2797 3341 1997 
z
" transform="scale(0.015625)"/>
       <path id="DejaVuSans-69" d="M 603 3500 
L 1178 3500 
L 1178 0 
L 603 0 
L 603 3500 
z
M 603 4863 
L 1178 4863 
L 1178 4134 
L 603 4134 
L 603 4863 
z
" transform="scale(0.015625)"/>
       <path id="DejaVuSans-6e" d="M 3513 2113 
L 3513 0 
L 2938 0 
L 2938 2094 
Q 2938 2591 2744 2837 
Q 2550 3084 2163 3084 
Q 1697 3084 1428 2787 
Q 1159 2491 1159 1978 
L 1159 0 
L 581 0 
L 581 3500 
L 1159 3500 
L 1159 2956 
Q 1366 3272 1645 3428 
Q 1925 3584 2291 3584 
Q 2894 3584 3203 3211 
Q 3513 2838 3513 2113 
z
" transform="scale(0.015625)"/>
      </defs>
      <use xlink:href="#DejaVuSans-54"/>
      <use xlink:href="#DejaVuSans-72" transform="translate(46.333984 0)"/>
      <use xlink:href="#DejaVuSans-61" transform="translate(87.447266 0)"/>
      <use xlink:href="#DejaVuSans-69" transform="translate(148.726562 0)"/>
      <use xlink:href="#DejaVuSans-6e" transform="translate(176.509766 0)"/>
     </g>
    </g>
    <g id="line2d_41">
     <path d="M 56.032813 58.094687 
L 66.032813 58.094687 
L 76.032813 58.094687 
" style="fill: none; stroke: #ff7f0e; stroke-width: 1.5; stroke-linecap: square"/>
    </g>
    <g id="text_14">
     <!-- Validation -->
     <g transform="translate(84.032813 61.594687) scale(0.1 -0.1)">
      <defs>
       <path id="DejaVuSans-56" d="M 1831 0 
L 50 4666 
L 709 4666 
L 2188 738 
L 3669 4666 
L 4325 4666 
L 2547 0 
L 1831 0 
z
" transform="scale(0.015625)"/>
       <path id="DejaVuSans-6c" d="M 603 4863 
L 1178 4863 
L 1178 0 
L 603 0 
L 603 4863 
z
" transform="scale(0.015625)"/>
       <path id="DejaVuSans-64" d="M 2906 2969 
L 2906 4863 
L 3481 4863 
L 3481 0 
L 2906 0 
L 2906 525 
Q 2725 213 2448 61 
Q 2172 -91 1784 -91 
Q 1150 -91 751 415 
Q 353 922 353 1747 
Q 353 2572 751 3078 
Q 1150 3584 1784 3584 
Q 2172 3584 2448 3432 
Q 2725 3281 2906 2969 
z
M 947 1747 
Q 947 1113 1208 752 
Q 1469 391 1925 391 
Q 2381 391 2643 752 
Q 2906 1113 2906 1747 
Q 2906 2381 2643 2742 
Q 2381 3103 1925 3103 
Q 1469 3103 1208 2742 
Q 947 2381 947 1747 
z
" transform="scale(0.015625)"/>
       <path id="DejaVuSans-74" d="M 1172 4494 
L 1172 3500 
L 2356 3500 
L 2356 3053 
L 1172 3053 
L 1172 1153 
Q 1172 725 1289 603 
Q 1406 481 1766 481 
L 2356 481 
L 2356 0 
L 1766 0 
Q 1100 0 847 248 
Q 594 497 594 1153 
L 594 3053 
L 172 3053 
L 172 3500 
L 594 3500 
L 594 4494 
L 1172 4494 
z
" transform="scale(0.015625)"/>
       <path id="DejaVuSans-6f" d="M 1959 3097 
Q 1497 3097 1228 2736 
Q 959 2375 959 1747 
Q 959 1119 1226 758 
Q 1494 397 1959 397 
Q 2419 397 2687 759 
Q 2956 1122 2956 1747 
Q 2956 2369 2687 2733 
Q 2419 3097 1959 3097 
z
M 1959 3584 
Q 2709 3584 3137 3096 
Q 3566 2609 3566 1747 
Q 3566 888 3137 398 
Q 2709 -91 1959 -91 
Q 1206 -91 779 398 
Q 353 888 353 1747 
Q 353 2609 779 3096 
Q 1206 3584 1959 3584 
z
" transform="scale(0.015625)"/>
      </defs>
      <use xlink:href="#DejaVuSans-56"/>
      <use xlink:href="#DejaVuSans-61" transform="translate(60.658203 0)"/>
      <use xlink:href="#DejaVuSans-6c" transform="translate(121.9375 0)"/>
      <use xlink:href="#DejaVuSans-69" transform="translate(149.720703 0)"/>
      <use xlink:href="#DejaVuSans-64" transform="translate(177.503906 0)"/>
      <use xlink:href="#DejaVuSans-61" transform="translate(240.980469 0)"/>
      <use xlink:href="#DejaVuSans-74" transform="translate(302.259766 0)"/>
      <use xlink:href="#DejaVuSans-69" transform="translate(341.46875 0)"/>
      <use xlink:href="#DejaVuSans-6f" transform="translate(369.251953 0)"/>
      <use xlink:href="#DejaVuSans-6e" transform="translate(430.433594 0)"/>
     </g>
    </g>
   </g>
  </g>
 </g>
 <defs>
  <clipPath id="pbea1a1d0c8">
   <rect x="47.032813" y="30.318125" width="357.12" height="266.112"/>
  </clipPath>
 </defs>
</svg>
