<?xml version="1.0" encoding="utf-8" standalone="no"?>
<!DOCTYPE svg PUBLIC "-//W3C//DTD SVG 1.1//EN"
  "http://www.w3.org/Graphics/SVG/1.1/DTD/svg11.dtd">
<svg xmlns:xlink="http://www.w3.org/1999/xlink" width="411.352812pt" height="333.986375pt" viewBox="0 0 411.352812 333.986375" xmlns="http://www.w3.org/2000/svg" version="1.1">
 <metadata>
  <rdf:RDF xmlns:dc="http://purl.org/dc/elements/1.1/" xmlns:cc="http://creativecommons.org/ns#" xmlns:rdf="http://www.w3.org/1999/02/22-rdf-syntax-ns#">
   <cc:Work>
    <dc:type rdf:resource="http://purl.org/dc/dcmitype/StillImage"/>
    <dc:date>2025-11-26T12:46:23.016960</dc:date>
    <dc:format>image/svg+xml</dc:format>
    <dc:creator>
     <cc:Agent>
      <dc:title>Matplotlib v3.10.7, https://matplotlib.org/</dc:title>
     </cc:Agent>
    </dc:creator>
   </cc:Work>
  </rdf:RDF>
 </metadata>
 <defs>
  <style type="text/css">*{stroke-linejoin: round; stroke-linecap: butt}</style>
 </defs>
 <g id="figure_1">
  <g id="patch_1">
   <path d="M 0 333.986375 
L 411.352812 333.986375 
L 411.352812 0 
L 0 0 
z
" style="fill: #ffffff"/>
  </g>
  <g id="axes_1">
   <g id="patch_2">
    <path d="M 47.032813 296.430125 
L 404.152812 296.430125 
L 404.152812 30.318125 
L 47.032813 30.318125 
z
" style="fill: #ffffff"/>
   </g>
   <g id="matplotlib.axis_1">
    <g id="xtick_1">
     <g id="line2d_1">
      <defs>
       <path id="mb26ded2d17" d="M 0 0 
L 0 3.5 
" style="stroke: #000000; stroke-width: 0.8"/>
      </defs>
      <g>
       <use xlink:href="#mb26ded2d17" x="63.26554" y="296.430125" style="stroke: #000000; stroke-width: 0.8"/>
      </g>
     </g>
     <g id="text_1">
      <!-- $\mathdefault{10^{0}}$ -->
      <g transform="translate(54.46554 311.028562) scale(0.1 -0.1)">
       <defs>
        <path id="DejaVuSans-31" d="M 794 531 
L 1825 531 
L 1825 4091 
L 703 3866 
L 703 4441 
L 1819 4666 
L 2450 4666 
L 2450 531 
L 3481 531 
L 3481 0 
L 794 0 
L 794 531 
z
" transform="scale(0.015625)"/>
        <path id="DejaVuSans-30" d="M 2034 4250 
Q 1547 4250 1301 3770 
Q 1056 3291 1056 2328 
Q 1056 1369 1301 889 
Q 1547 409 2034 409 
Q 2525 409 2770 889 
Q 3016 1369 3016 2328 
Q 3016 3291 2770 3770 
Q 2525 4250 2034 4250 
z
M 2034 4750 
Q 2819 4750 3233 4129 
Q 3647 3509 3647 2328 
Q 3647 1150 3233 529 
Q 2819 -91 2034 -91 
Q 1250 -91 836 529 
Q 422 1150 422 2328 
Q 422 3509 836 4129 
Q 1250 4750 2034 4750 
z
" transform="scale(0.015625)"/>
       </defs>
       <use xlink:href="#DejaVuSans-31" transform="translate(0 0.765625)"/>
       <use xlink:href="#DejaVuSans-30" transform="translate(63.623047 0.765625)"/>
       <use xlink:href="#DejaVuSans-30" transform="translate(128.203125 39.046875) scale(0.7)"/>
      </g>
     </g>
    </g>
    <g id="xtick_2">
     <g id="line2d_2">
      <g>
       <use xlink:href="#mb26ded2d17" x="161.615008" y="296.430125" style="stroke: #000000; stroke-width: 0.8"/>
      </g>
     </g>
     <g id="text_2">
      <!-- $\mathdefault{10^{1}}$ -->
      <g transform="translate(152.815008 311.028562) scale(0.1 -0.1)">
       <use xlink:href="#DejaVuSans-31" transform="translate(0 0.684375)"/>
       <use xlink:href="#DejaVuSans-30" transform="translate(63.623047 0.684375)"/>
       <use xlink:href="#DejaVuSans-31" transform="translate(128.203125 38.965625) scale(0.7)"/>
      </g>
     </g>
    </g>
    <g id="xtick_3">
     <g id="line2d_3">
      <g>
       <use xlink:href="#mb26ded2d17" x="259.964477" y="296.430125" style="stroke: #000000; stroke-width: 0.8"/>
      </g>
     </g>
     <g id="text_3">
      <!-- $\mathdefault{10^{2}}$ -->
      <g transform="translate(251.164477 311.028562) scale(0.1 -0.1)">
       <defs>
        <path id="DejaVuSans-32" d="M 1228 531 
L 3431 531 
L 3431 0 
L 469 0 
L 469 531 
Q 828 903 1448 1529 
Q 2069 2156 2228 2338 
Q 2531 2678 2651 2914 
Q 2772 3150 2772 3378 
Q 2772 3750 2511 3984 
Q 2250 4219 1831 4219 
Q 1534 4219 1204 4116 
Q 875 4013 500 3803 
L 500 4441 
Q 881 4594 1212 4672 
Q 1544 4750 1819 4750 
Q 2544 4750 2975 4387 
Q 3406 4025 3406 3419 
Q 3406 3131 3298 2873 
Q 3191 2616 2906 2266 
Q 2828 2175 2409 1742 
Q 1991 1309 1228 531 
z
" transform="scale(0.015625)"/>
       </defs>
       <use xlink:href="#DejaVuSans-31" transform="translate(0 0.765625)"/>
       <use xlink:href="#DejaVuSans-30" transform="translate(63.623047 0.765625)"/>
       <use xlink:href="#DejaVuSans-32" transform="translate(128.203125 39.046875) scale(0.7)"/>
      </g>
     </g>
    </g>
    <g id="xtick_4">
     <g id="line2d_4">
      <g>
       <use xlink:href="#mb26ded2d17" x="358.313945" y="296.430125" style="stroke: #000000; stroke-width: 0.8"/>
      </g>
     </g>
     <g id="text_4">
      <!-- $\mathdefault{10^{3}}$ -->
      <g transform="translate(349.513945 311.028562) scale(0.1 -0.1)">
       <defs>
        <path id="DejaVuSans-33" d="M 2597 2516 
Q 3050 2419 3304 2112 
Q 3559 1806 3559 1356 
Q 3559 666 3084 287 
Q 2609 -91 1734 -91 
Q 1441 -91 1130 -33 
Q 819 25 488 141 
L 488 750 
Q 750 597 1062 519 
Q 1375 441 1716 441 
Q 2309 441 2620 675 
Q 2931 909 2931 1356 
Q 2931 1769 2642 2001 
Q 2353 2234 1838 2234 
L 1294 2234 
L 1294 2753 
L 1863 2753 
Q 2328 2753 2575 2939 
Q 2822 3125 2822 3475 
Q 2822 3834 2567 4026 
Q 2313 4219 1838 4219 
Q 1578 4219 1281 4162 
Q 984 4106 628 3988 
L 628 4550 
Q 988 4650 1302 4700 
Q 1616 4750 1894 4750 
Q 2613 4750 3031 4423 
Q 3450 4097 3450 3541 
Q 3450 3153 3228 2886 
Q 3006 2619 2597 2516 
z
" transform="scale(0.015625)"/>
       </defs>
       <use xlink:href="#DejaVuSans-31" transform="translate(0 0.765625)"/>
       <use xlink:href="#DejaVuSans-30" transform="translate(63.623047 0.765625)"/>
       <use xlink:href="#DejaVuSans-33" transform="translate(128.203125 39.046875) scale(0.7)"/>
      </g>
     </g>
    </g>
    <g id="xtick_5">
     <g id="line2d_5">
      <defs>
       <path id="mb881bbbf68" d="M 0 0 
L 0 2 
" style="stroke: #000000; stroke-width: 0.6"/>
      </defs>
      <g>
       <use xlink:href="#mb881bbbf68" x="48.031014" y="296.430125" style="stroke: #000000; stroke-width: 0.6"/>
      </g>
     </g>
    </g>
    <g id="xtick_6">
     <g id="line2d_6">
      <g>
       <use xlink:href="#mb881bbbf68" x="53.734492" y="296.430125" style="stroke: #000000; stroke-width: 0.6"/>
      </g>
     </g>
    </g>
    <g id="xtick_7">
     <g id="line2d_7">
      <g>
       <use xlink:href="#mb881bbbf68" x="58.765315" y="296.430125" style="stroke: #000000; stroke-width: 0.6"/>
      </g>
     </g>
    </g>
    <g id="xtick_8">
     <g id="line2d_8">
      <g>
       <use xlink:href="#mb881bbbf68" x="92.87168" y="296.430125" style="stroke: #000000; stroke-width: 0.6"/>
      </g>
     </g>
    </g>
    <g id="xtick_9">
     <g id="line2d_9">
      <g>
       <use xlink:href="#mb881bbbf68" x="110.190162" y="296.430125" style="stroke: #000000; stroke-width: 0.6"/>
      </g>
     </g>
    </g>
    <g id="xtick_10">
     <g id="line2d_10">
      <g>
       <use xlink:href="#mb881bbbf68" x="122.47782" y="296.430125" style="stroke: #000000; stroke-width: 0.6"/>
      </g>
     </g>
    </g>
    <g id="xtick_11">
     <g id="line2d_11">
      <g>
       <use xlink:href="#mb881bbbf68" x="132.008868" y="296.430125" style="stroke: #000000; stroke-width: 0.6"/>
      </g>
     </g>
    </g>
    <g id="xtick_12">
     <g id="line2d_12">
      <g>
       <use xlink:href="#mb881bbbf68" x="139.796302" y="296.430125" style="stroke: #000000; stroke-width: 0.6"/>
      </g>
     </g>
    </g>
    <g id="xtick_13">
     <g id="line2d_13">
      <g>
       <use xlink:href="#mb881bbbf68" x="146.380483" y="296.430125" style="stroke: #000000; stroke-width: 0.6"/>
      </g>
     </g>
    </g>
    <g id="xtick_14">
     <g id="line2d_14">
      <g>
       <use xlink:href="#mb881bbbf68" x="152.08396" y="296.430125" style="stroke: #000000; stroke-width: 0.6"/>
      </g>
     </g>
    </g>
    <g id="xtick_15">
     <g id="line2d_15">
      <g>
       <use xlink:href="#mb881bbbf68" x="157.114783" y="296.430125" style="stroke: #000000; stroke-width: 0.6"/>
      </g>
     </g>
    </g>
    <g id="xtick_16">
     <g id="line2d_16">
      <g>
       <use xlink:href="#mb881bbbf68" x="191.221148" y="296.430125" style="stroke: #000000; stroke-width: 0.6"/>
      </g>
     </g>
    </g>
    <g id="xtick_17">
     <g id="line2d_17">
      <g>
       <use xlink:href="#mb881bbbf68" x="208.53963" y="296.430125" style="stroke: #000000; stroke-width: 0.6"/>
      </g>
     </g>
    </g>
    <g id="xtick_18">
     <g id="line2d_18">
      <g>
       <use xlink:href="#mb881bbbf68" x="220.827288" y="296.430125" style="stroke: #000000; stroke-width: 0.6"/>
      </g>
     </g>
    </g>
    <g id="xtick_19">
     <g id="line2d_19">
      <g>
       <use xlink:href="#mb881bbbf68" x="230.358337" y="296.430125" style="stroke: #000000; stroke-width: 0.6"/>
      </g>
     </g>
    </g>
    <g id="xtick_20">
     <g id="line2d_20">
      <g>
       <use xlink:href="#mb881bbbf68" x="238.14577" y="296.430125" style="stroke: #000000; stroke-width: 0.6"/>
      </g>
     </g>
    </g>
    <g id="xtick_21">
     <g id="line2d_21">
      <g>
       <use xlink:href="#mb881bbbf68" x="244.729951" y="296.430125" style="stroke: #000000; stroke-width: 0.6"/>
      </g>
     </g>
    </g>
    <g id="xtick_22">
     <g id="line2d_22">
      <g>
       <use xlink:href="#mb881bbbf68" x="250.433428" y="296.430125" style="stroke: #000000; stroke-width: 0.6"/>
      </g>
     </g>
    </g>
    <g id="xtick_23">
     <g id="line2d_23">
      <g>
       <use xlink:href="#mb881bbbf68" x="255.464252" y="296.430125" style="stroke: #000000; stroke-width: 0.6"/>
      </g>
     </g>
    </g>
    <g id="xtick_24">
     <g id="line2d_24">
      <g>
       <use xlink:href="#mb881bbbf68" x="289.570617" y="296.430125" style="stroke: #000000; stroke-width: 0.6"/>
      </g>
     </g>
    </g>
    <g id="xtick_25">
     <g id="line2d_25">
      <g>
       <use xlink:href="#mb881bbbf68" x="306.889098" y="296.430125" style="stroke: #000000; stroke-width: 0.6"/>
      </g>
     </g>
    </g>
    <g id="xtick_26">
     <g id="line2d_26">
      <g>
       <use xlink:href="#mb881bbbf68" x="319.176757" y="296.430125" style="stroke: #000000; stroke-width: 0.6"/>
      </g>
     </g>
    </g>
    <g id="xtick_27">
     <g id="line2d_27">
      <g>
       <use xlink:href="#mb881bbbf68" x="328.707805" y="296.430125" style="stroke: #000000; stroke-width: 0.6"/>
      </g>
     </g>
    </g>
    <g id="xtick_28">
     <g id="line2d_28">
      <g>
       <use xlink:href="#mb881bbbf68" x="336.495239" y="296.430125" style="stroke: #000000; stroke-width: 0.6"/>
      </g>
     </g>
    </g>
    <g id="xtick_29">
     <g id="line2d_29">
      <g>
       <use xlink:href="#mb881bbbf68" x="343.07942" y="296.430125" style="stroke: #000000; stroke-width: 0.6"/>
      </g>
     </g>
    </g>
    <g id="xtick_30">
     <g id="line2d_30">
      <g>
       <use xlink:href="#mb881bbbf68" x="348.782897" y="296.430125" style="stroke: #000000; stroke-width: 0.6"/>
      </g>
     </g>
    </g>
    <g id="xtick_31">
     <g id="line2d_31">
      <g>
       <use xlink:href="#mb881bbbf68" x="353.81372" y="296.430125" style="stroke: #000000; stroke-width: 0.6"/>
      </g>
     </g>
    </g>
    <g id="xtick_32">
     <g id="line2d_32">
      <g>
       <use xlink:href="#mb881bbbf68" x="387.920085" y="296.430125" style="stroke: #000000; stroke-width: 0.6"/>
      </g>
     </g>
    </g>
    <g id="text_5">
     <!-- Epoch -->
     <g transform="translate(208.639688 324.706687) scale(0.1 -0.1)">
      <defs>
       <path id="DejaVuSans-Bold-45" d="M 588 4666 
L 3834 4666 
L 3834 3756 
L 1791 3756 
L 1791 2888 
L 3713 2888 
L 3713 1978 
L 1791 1978 
L 1791 909 
L 3903 909 
L 3903 0 
L 588 0 
L 588 4666 
z
" transform="scale(0.015625)"/>
       <path id="DejaVuSans-Bold-70" d="M 1656 506 
L 1656 -1331 
L 538 -1331 
L 538 3500 
L 1656 3500 
L 1656 2988 
Q 1888 3294 2169 3439 
Q 2450 3584 2816 3584 
Q 3463 3584 3878 3070 
Q 4294 2556 4294 1747 
Q 4294 938 3878 423 
Q 3463 -91 2816 -91 
Q 2450 -91 2169 54 
Q 1888 200 1656 506 
z
M 2400 2772 
Q 2041 2772 1848 2508 
Q 1656 2244 1656 1747 
Q 1656 1250 1848 986 
Q 2041 722 2400 722 
Q 2759 722 2948 984 
Q 3138 1247 3138 1747 
Q 3138 2247 2948 2509 
Q 2759 2772 2400 2772 
z
" transform="scale(0.015625)"/>
       <path id="DejaVuSans-Bold-6f" d="M 2203 2784 
Q 1831 2784 1636 2517 
Q 1441 2250 1441 1747 
Q 1441 1244 1636 976 
Q 1831 709 2203 709 
Q 2569 709 2762 976 
Q 2956 1244 2956 1747 
Q 2956 2250 2762 2517 
Q 2569 2784 2203 2784 
z
M 2203 3584 
Q 3106 3584 3614 3096 
Q 4122 2609 4122 1747 
Q 4122 884 3614 396 
Q 3106 -91 2203 -91 
Q 1297 -91 786 396 
Q 275 884 275 1747 
Q 275 2609 786 3096 
Q 1297 3584 2203 3584 
z
" transform="scale(0.015625)"/>
       <path id="DejaVuSans-Bold-63" d="M 3366 3391 
L 3366 2478 
Q 3138 2634 2908 2709 
Q 2678 2784 2431 2784 
Q 1963 2784 1702 2511 
Q 1441 2238 1441 1747 
Q 1441 1256 1702 982 
Q 1963 709 2431 709 
Q 2694 709 2930 787 
Q 3166 866 3366 1019 
L 3366 103 
Q 3103 6 2833 -42 
Q 2563 -91 2291 -91 
Q 1344 -91 809 395 
Q 275 881 275 1747 
Q 275 2613 809 3098 
Q 1344 3584 2291 3584 
Q 2566 3584 2833 3536 
Q 3100 3488 3366 3391 
z
" transform="scale(0.015625)"/>
       <path id="DejaVuSans-Bold-68" d="M 4056 2131 
L 4056 0 
L 2931 0 
L 2931 347 
L 2931 1625 
Q 2931 2084 2911 2256 
Q 2891 2428 2841 2509 
Q 2775 2619 2662 2680 
Q 2550 2741 2406 2741 
Q 2056 2741 1856 2470 
Q 1656 2200 1656 1722 
L 1656 0 
L 538 0 
L 538 4863 
L 1656 4863 
L 1656 2988 
Q 1909 3294 2193 3439 
Q 2478 3584 2822 3584 
Q 3428 3584 3742 3212 
Q 4056 2841 4056 2131 
z
" transform="scale(0.015625)"/>
      </defs>
      <use xlink:href="#DejaVuSans-Bold-45"/>
      <use xlink:href="#DejaVuSans-Bold-70" transform="translate(68.310547 0)"/>
      <use xlink:href="#DejaVuSans-Bold-6f" transform="translate(139.892578 0)"/>
      <use xlink:href="#DejaVuSans-Bold-63" transform="translate(208.59375 0)"/>
      <use xlink:href="#DejaVuSans-Bold-68" transform="translate(267.871094 0)"/>
     </g>
    </g>
   </g>
   <g id="matplotlib.axis_2">
    <g id="ytick_1">
     <g id="line2d_33">
      <defs>
       <path id="m69dabfeacf" d="M 0 0 
L -3.5 0 
" style="stroke: #000000; stroke-width: 0.8"/>
      </defs>
      <g>
       <use xlink:href="#m69dabfeacf" x="47.032813" y="255.716109" style="stroke: #000000; stroke-width: 0.8"/>
      </g>
     </g>
     <g id="text_6">
      <!-- 20 -->
      <g transform="translate(27.307813 259.515328) scale(0.1 -0.1)">
       <use xlink:href="#DejaVuSans-32"/>
       <use xlink:href="#DejaVuSans-30" transform="translate(63.623047 0)"/>
      </g>
     </g>
    </g>
    <g id="ytick_2">
     <g id="line2d_34">
      <g>
       <use xlink:href="#m69dabfeacf" x="47.032813" y="202.390613" style="stroke: #000000; stroke-width: 0.8"/>
      </g>
     </g>
     <g id="text_7">
      <!-- 40 -->
      <g transform="translate(27.307813 206.189832) scale(0.1 -0.1)">
       <defs>
        <path id="DejaVuSans-34" d="M 2419 4116 
L 825 1625 
L 2419 1625 
L 2419 4116 
z
M 2253 4666 
L 3047 4666 
L 3047 1625 
L 3713 1625 
L 3713 1100 
L 3047 1100 
L 3047 0 
L 2419 0 
L 2419 1100 
L 313 1100 
L 313 1709 
L 2253 4666 
z
" transform="scale(0.015625)"/>
       </defs>
       <use xlink:href="#DejaVuSans-34"/>
       <use xlink:href="#DejaVuSans-30" transform="translate(63.623047 0)"/>
      </g>
     </g>
    </g>
    <g id="ytick_3">
     <g id="line2d_35">
      <g>
       <use xlink:href="#m69dabfeacf" x="47.032813" y="149.065117" style="stroke: #000000; stroke-width: 0.8"/>
      </g>
     </g>
     <g id="text_8">
      <!-- 60 -->
      <g transform="translate(27.307813 152.864336) scale(0.1 -0.1)">
       <defs>
        <path id="DejaVuSans-36" d="M 2113 2584 
Q 1688 2584 1439 2293 
Q 1191 2003 1191 1497 
Q 1191 994 1439 701 
Q 1688 409 2113 409 
Q 2538 409 2786 701 
Q 3034 994 3034 1497 
Q 3034 2003 2786 2293 
Q 2538 2584 2113 2584 
z
M 3366 4563 
L 3366 3988 
Q 3128 4100 2886 4159 
Q 2644 4219 2406 4219 
Q 1781 4219 1451 3797 
Q 1122 3375 1075 2522 
Q 1259 2794 1537 2939 
Q 1816 3084 2150 3084 
Q 2853 3084 3261 2657 
Q 3669 2231 3669 1497 
Q 3669 778 3244 343 
Q 2819 -91 2113 -91 
Q 1303 -91 875 529 
Q 447 1150 447 2328 
Q 447 3434 972 4092 
Q 1497 4750 2381 4750 
Q 2619 4750 2861 4703 
Q 3103 4656 3366 4563 
z
" transform="scale(0.015625)"/>
       </defs>
       <use xlink:href="#DejaVuSans-36"/>
       <use xlink:href="#DejaVuSans-30" transform="translate(63.623047 0)"/>
      </g>
     </g>
    </g>
    <g id="ytick_4">
     <g id="line2d_36">
      <g>
       <use xlink:href="#m69dabfeacf" x="47.032813" y="95.739621" style="stroke: #000000; stroke-width: 0.8"/>
      </g>
     </g>
     <g id="text_9">
      <!-- 80 -->
      <g transform="translate(27.307813 99.53884) scale(0.1 -0.1)">
       <defs>
        <path id="DejaVuSans-38" d="M 2034 2216 
Q 1584 2216 1326 1975 
Q 1069 1734 1069 1313 
Q 1069 891 1326 650 
Q 1584 409 2034 409 
Q 2484 409 2743 651 
Q 3003 894 3003 1313 
Q 3003 1734 2745 1975 
Q 2488 2216 2034 2216 
z
M 1403 2484 
Q 997 2584 770 2862 
Q 544 3141 544 3541 
Q 544 4100 942 4425 
Q 1341 4750 2034 4750 
Q 2731 4750 3128 4425 
Q 3525 4100 3525 3541 
Q 3525 3141 3298 2862 
Q 3072 2584 2669 2484 
Q 3125 2378 3379 2068 
Q 3634 1759 3634 1313 
Q 3634 634 3220 271 
Q 2806 -91 2034 -91 
Q 1263 -91 848 271 
Q 434 634 434 1313 
Q 434 1759 690 2068 
Q 947 2378 1403 2484 
z
M 1172 3481 
Q 1172 3119 1398 2916 
Q 1625 2713 2034 2713 
Q 2441 2713 2670 2916 
Q 2900 3119 2900 3481 
Q 2900 3844 2670 4047 
Q 2441 4250 2034 4250 
Q 1625 4250 1398 4047 
Q 1172 3844 1172 3481 
z
" transform="scale(0.015625)"/>
       </defs>
       <use xlink:href="#DejaVuSans-38"/>
       <use xlink:href="#DejaVuSans-30" transform="translate(63.623047 0)"/>
      </g>
     </g>
    </g>
    <g id="ytick_5">
     <g id="line2d_37">
      <g>
       <use xlink:href="#m69dabfeacf" x="47.032813" y="42.414125" style="stroke: #000000; stroke-width: 0.8"/>
      </g>
     </g>
     <g id="text_10">
      <!-- 100 -->
      <g transform="translate(20.945313 46.213344) scale(0.1 -0.1)">
       <use xlink:href="#DejaVuSans-31"/>
       <use xlink:href="#DejaVuSans-30" transform="translate(63.623047 0)"/>
       <use xlink:href="#DejaVuSans-30" transform="translate(127.246094 0)"/>
      </g>
     </g>
    </g>
    <g id="text_11">
     <!-- Accuracy (%) -->
     <g transform="translate(14.7875 200.115531) rotate(-90) scale(0.1 -0.1)">
      <defs>
       <path id="DejaVuSans-Bold-41" d="M 3419 850 
L 1538 850 
L 1241 0 
L 31 0 
L 1759 4666 
L 3194 4666 
L 4922 0 
L 3713 0 
L 3419 850 
z
M 1838 1716 
L 3116 1716 
L 2478 3572 
L 1838 1716 
z
" transform="scale(0.015625)"/>
       <path id="DejaVuSans-Bold-75" d="M 500 1363 
L 500 3500 
L 1625 3500 
L 1625 3150 
Q 1625 2866 1622 2436 
Q 1619 2006 1619 1863 
Q 1619 1441 1641 1255 
Q 1663 1069 1716 984 
Q 1784 875 1895 815 
Q 2006 756 2150 756 
Q 2500 756 2700 1025 
Q 2900 1294 2900 1772 
L 2900 3500 
L 4019 3500 
L 4019 0 
L 2900 0 
L 2900 506 
Q 2647 200 2364 54 
Q 2081 -91 1741 -91 
Q 1134 -91 817 281 
Q 500 653 500 1363 
z
" transform="scale(0.015625)"/>
       <path id="DejaVuSans-Bold-72" d="M 3138 2547 
Q 2991 2616 2845 2648 
Q 2700 2681 2553 2681 
Q 2122 2681 1889 2404 
Q 1656 2128 1656 1613 
L 1656 0 
L 538 0 
L 538 3500 
L 1656 3500 
L 1656 2925 
Q 1872 3269 2151 3426 
Q 2431 3584 2822 3584 
Q 2878 3584 2943 3579 
Q 3009 3575 3134 3559 
L 3138 2547 
z
" transform="scale(0.015625)"/>
       <path id="DejaVuSans-Bold-61" d="M 2106 1575 
Q 1756 1575 1579 1456 
Q 1403 1338 1403 1106 
Q 1403 894 1545 773 
Q 1688 653 1941 653 
Q 2256 653 2472 879 
Q 2688 1106 2688 1447 
L 2688 1575 
L 2106 1575 
z
M 3816 1997 
L 3816 0 
L 2688 0 
L 2688 519 
Q 2463 200 2181 54 
Q 1900 -91 1497 -91 
Q 953 -91 614 226 
Q 275 544 275 1050 
Q 275 1666 698 1953 
Q 1122 2241 2028 2241 
L 2688 2241 
L 2688 2328 
Q 2688 2594 2478 2717 
Q 2269 2841 1825 2841 
Q 1466 2841 1156 2769 
Q 847 2697 581 2553 
L 581 3406 
Q 941 3494 1303 3539 
Q 1666 3584 2028 3584 
Q 2975 3584 3395 3211 
Q 3816 2838 3816 1997 
z
" transform="scale(0.015625)"/>
       <path id="DejaVuSans-Bold-79" d="M 78 3500 
L 1197 3500 
L 2138 1125 
L 2938 3500 
L 4056 3500 
L 2584 -331 
Q 2363 -916 2067 -1148 
Q 1772 -1381 1288 -1381 
L 641 -1381 
L 641 -647 
L 991 -647 
Q 1275 -647 1404 -556 
Q 1534 -466 1606 -231 
L 1638 -134 
L 78 3500 
z
" transform="scale(0.015625)"/>
       <path id="DejaVuSans-Bold-20" transform="scale(0.015625)"/>
       <path id="DejaVuSans-Bold-28" d="M 2413 -844 
L 1484 -844 
Q 1006 -72 778 623 
Q 550 1319 550 2003 
Q 550 2688 779 3389 
Q 1009 4091 1484 4856 
L 2413 4856 
Q 2013 4116 1813 3408 
Q 1613 2700 1613 2009 
Q 1613 1319 1811 609 
Q 2009 -100 2413 -844 
z
" transform="scale(0.015625)"/>
       <path id="DejaVuSans-Bold-25" d="M 4959 1925 
Q 4738 1925 4616 1733 
Q 4494 1541 4494 1184 
Q 4494 825 4614 633 
Q 4734 441 4959 441 
Q 5184 441 5303 633 
Q 5422 825 5422 1184 
Q 5422 1541 5301 1733 
Q 5181 1925 4959 1925 
z
M 4959 2450 
Q 5541 2450 5875 2112 
Q 6209 1775 6209 1184 
Q 6209 594 5875 251 
Q 5541 -91 4959 -91 
Q 4378 -91 4042 251 
Q 3706 594 3706 1184 
Q 3706 1772 4042 2111 
Q 4378 2450 4959 2450 
z
M 2094 -91 
L 1403 -91 
L 4319 4750 
L 5013 4750 
L 2094 -91 
z
M 1453 4750 
Q 2034 4750 2367 4411 
Q 2700 4072 2700 3481 
Q 2700 2891 2367 2550 
Q 2034 2209 1453 2209 
Q 872 2209 539 2550 
Q 206 2891 206 3481 
Q 206 4072 539 4411 
Q 872 4750 1453 4750 
z
M 1453 4225 
Q 1228 4225 1106 4031 
Q 984 3838 984 3481 
Q 984 3122 1106 2926 
Q 1228 2731 1453 2731 
Q 1678 2731 1798 2926 
Q 1919 3122 1919 3481 
Q 1919 3838 1797 4031 
Q 1675 4225 1453 4225 
z
" transform="scale(0.015625)"/>
       <path id="DejaVuSans-Bold-29" d="M 513 -844 
Q 913 -100 1113 609 
Q 1313 1319 1313 2009 
Q 1313 2700 1113 3408 
Q 913 4116 513 4856 
L 1441 4856 
Q 1916 4091 2145 3389 
Q 2375 2688 2375 2003 
Q 2375 1319 2147 623 
Q 1919 -72 1441 -844 
L 513 -844 
z
" transform="scale(0.015625)"/>
      </defs>
      <use xlink:href="#DejaVuSans-Bold-41"/>
      <use xlink:href="#DejaVuSans-Bold-63" transform="translate(77.392578 0)"/>
      <use xlink:href="#DejaVuSans-Bold-63" transform="translate(136.669922 0)"/>
      <use xlink:href="#DejaVuSans-Bold-75" transform="translate(195.947266 0)"/>
      <use xlink:href="#DejaVuSans-Bold-72" transform="translate(267.138672 0)"/>
      <use xlink:href="#DejaVuSans-Bold-61" transform="translate(316.455078 0)"/>
      <use xlink:href="#DejaVuSans-Bold-63" transform="translate(383.935547 0)"/>
      <use xlink:href="#DejaVuSans-Bold-79" transform="translate(443.212891 0)"/>
      <use xlink:href="#DejaVuSans-Bold-20" transform="translate(508.398438 0)"/>
      <use xlink:href="#DejaVuSans-Bold-28" transform="translate(543.212891 0)"/>
      <use xlink:href="#DejaVuSans-Bold-25" transform="translate(588.916016 0)"/>
      <use xlink:href="#DejaVuSans-Bold-29" transform="translate(689.111328 0)"/>
     </g>
    </g>
   </g>
   <g id="line2d_38">
    <path d="M 63.26554 274.735536 
L 92.87168 280.956843 
L 110.190162 279.179327 
L 122.47782 284.334125 
L 132.008868 283.089863 
L 139.796302 280.245837 
L 146.380483 280.245837 
L 152.08396 280.60134 
L 157.114783 279.890334 
L 161.615008 277.40181 
L 165.685957 276.690804 
L 169.402442 275.446542 
L 175.986623 271.713758 
L 178.93349 271.358254 
L 181.6901 269.580738 
L 184.279537 267.625469 
L 186.720923 267.625469 
L 189.030277 266.203456 
L 191.221148 265.136946 
L 193.305105 264.603691 
L 195.292097 263.003926 
L 197.190749 259.09339 
L 199.008582 257.315874 
L 200.752197 255.360605 
L 202.427416 253.227586 
L 205.592763 250.561311 
L 207.091606 247.717285 
L 208.53963 246.828526 
L 212.610579 240.962721 
L 213.885677 235.985675 
L 215.123811 233.674904 
L 216.327063 231.18638 
L 217.497346 227.809099 
L 218.636417 225.853831 
L 220.827288 219.988026 
L 221.881975 216.255242 
L 222.911245 215.188732 
L 223.916294 212.87796 
L 225.858112 207.723162 
L 226.796889 206.123397 
L 227.715475 202.923868 
L 228.614722 202.212861 
L 229.495426 198.657828 
L 230.358337 195.813802 
L 232.033557 193.325279 
L 233.645545 186.570715 
L 234.429285 184.437695 
L 235.198903 181.415917 
L 235.954899 177.505381 
L 236.697746 175.19461 
L 237.427894 171.639577 
L 238.14577 170.395315 
L 239.54631 166.129275 
L 242.216719 154.75317 
L 242.859026 152.264647 
L 243.491817 150.664882 
L 244.11537 148.709614 
L 244.729951 146.22109 
L 245.335814 141.244044 
L 246.522353 137.51126 
L 247.103486 134.667233 
L 248.242557 130.223442 
L 248.8009 128.801429 
L 250.433428 121.869114 
L 250.964027 118.491833 
L 251.488115 117.603075 
L 252.00585 115.825558 
L 252.517385 114.581295 
L 253.022866 111.381766 
L 254.016227 107.293478 
L 254.504377 105.515961 
L 254.987011 102.494183 
L 255.464252 102.13868 
L 255.936219 100.538915 
L 256.403029 97.517137 
L 256.864791 95.917372 
L 257.321615 93.606601 
L 258.220862 90.762574 
L 259.5352 86.318783 
L 259.964477 84.008012 
L 261.639697 79.56422 
L 262.048433 77.786704 
L 262.854356 76.009187 
L 263.251685 76.009187 
L 263.645353 75.475932 
L 264.805043 71.743148 
L 265.561039 70.676638 
L 265.934077 68.72137 
L 266.303886 68.72137 
L 266.67052 66.766101 
L 267.034034 66.232846 
L 267.39448 66.410598 
L 267.75191 65.52184 
L 268.45792 61.966807 
L 268.806597 62.855565 
L 269.15245 61.966807 
L 269.495525 62.855565 
L 269.835866 63.38882 
L 270.173517 62.677813 
L 270.840916 59.656035 
L 271.170745 60.011539 
L 271.498046 59.12278 
L 272.14522 59.478284 
L 272.465166 59.478284 
L 272.782734 60.544793 
L 273.097957 58.05627 
L 273.410872 58.05627 
L 273.72151 58.234022 
L 274.029906 57.167512 
L 274.336091 58.411774 
L 274.640097 58.589525 
L 275.241693 56.989761 
L 275.539344 57.167512 
L 275.834934 56.989761 
L 276.128493 56.278754 
L 276.420048 55.923251 
L 276.709626 54.678989 
L 276.997254 54.323486 
L 277.282958 55.212244 
L 277.566764 53.612479 
L 278.128781 53.256976 
L 278.40704 52.545969 
L 278.683498 51.123956 
L 278.958178 52.012714 
L 279.231103 51.834963 
L 279.502296 51.834963 
L 279.771777 50.946204 
L 280.039568 51.123956 
L 280.570167 50.590701 
L 280.833015 51.123956 
L 281.353907 50.412949 
L 281.61199 50.412949 
L 281.868523 50.590701 
L 282.123525 48.813185 
L 282.377013 49.168688 
L 282.629006 50.235198 
L 282.87952 48.813185 
L 283.128574 50.057446 
L 283.376184 50.235198 
L 283.622367 49.524191 
L 283.86714 47.568923 
L 284.110517 50.057446 
L 284.832438 48.990936 
L 285.070392 49.524191 
L 285.307028 47.746675 
L 285.776402 51.123956 
L 286.009169 51.123956 
L 286.240674 50.768453 
L 286.470932 51.479459 
L 286.699954 49.879694 
L 286.927755 49.879694 
L 287.154348 50.946204 
L 287.603959 50.057446 
L 287.827002 51.123956 
L 288.048886 51.479459 
L 288.269624 47.391171 
L 288.489227 51.479459 
L 288.707706 50.946204 
L 289.14134 48.27993 
L 289.356518 48.457681 
L 289.783648 46.857916 
L 289.995622 48.102178 
L 290.416439 45.791406 
L 290.625303 47.21342 
L 290.833151 46.680165 
L 291.039992 46.502413 
L 291.245837 47.035668 
L 291.654573 46.324661 
L 291.857484 47.924426 
L 292.059435 47.21342 
L 292.260436 47.391171 
L 292.460496 47.035668 
L 292.659623 48.813185 
L 293.055113 46.502413 
L 293.251493 48.102178 
L 293.446974 46.324661 
L 293.641565 47.035668 
L 293.835274 46.14691 
L 294.028108 46.502413 
L 294.220075 46.502413 
L 294.411183 45.791406 
L 294.60144 47.746675 
L 294.979431 45.435903 
L 295.167179 46.680165 
L 295.354105 45.258151 
L 295.540217 46.324661 
L 295.725522 46.324661 
L 295.910026 44.547145 
L 296.093736 44.902648 
L 296.27666 46.324661 
L 296.458804 45.791406 
L 297.00062 49.346439 
L 297.179709 50.235197 
L 297.35805 48.813185 
L 297.53565 52.012714 
L 297.712514 50.590701 
L 297.888649 52.190466 
L 298.06406 51.479459 
L 298.238754 49.701943 
L 298.412737 49.879694 
L 298.586013 53.434727 
L 298.930472 48.990936 
L 299.101665 50.768453 
L 299.442007 47.568923 
L 299.611166 53.079224 
L 299.947487 47.21342 
L 300.11466 45.791406 
L 300.281181 46.14691 
L 300.447056 45.0804 
L 300.612289 47.21342 
L 300.940849 43.658387 
L 301.104186 44.01389 
L 301.428999 44.01389 
L 301.590483 44.369393 
L 301.75136 45.613655 
L 301.911633 43.125132 
L 302.230385 45.613655 
L 302.388874 43.658386 
L 302.546776 47.035668 
L 302.704097 45.969158 
L 302.860841 45.791406 
L 303.172614 43.302883 
L 303.327651 43.302883 
L 303.482127 43.836138 
L 303.636046 43.836138 
L 303.942231 43.480635 
L 304.094505 43.658387 
L 304.246237 43.480635 
L 304.397432 43.658387 
L 304.548094 44.724896 
L 304.698227 44.191642 
L 304.847833 44.191642 
L 304.996918 44.724896 
L 305.145484 44.547145 
L 305.293535 47.568923 
L 305.441074 47.035668 
L 305.588106 47.924426 
L 305.880659 56.812009 
L 306.026188 54.678989 
L 306.171222 57.878519 
L 306.315766 68.010363 
L 306.603394 56.634257 
L 306.746485 55.567747 
L 307.031237 50.412949 
L 307.172904 46.680165 
L 307.314103 46.857916 
L 307.595108 43.836138 
L 307.734921 45.435903 
L 307.874277 44.01389 
L 308.01318 44.191642 
L 308.151633 43.836138 
L 308.427199 42.414125 
L 308.564318 42.414125 
L 308.700999 42.591877 
L 308.837243 43.302883 
L 308.973055 42.414125 
L 309.243389 42.591877 
L 309.377917 42.591877 
L 309.512023 42.414125 
L 309.778977 42.591877 
L 310.044274 42.591877 
L 310.307933 43.836138 
L 310.439155 43.836138 
L 310.700395 45.791406 
L 310.960047 49.524191 
L 311.21813 47.035668 
L 311.346589 48.813184 
L 311.474663 48.813185 
L 311.602354 48.457681 
L 311.729665 45.258151 
L 311.856597 45.435903 
L 311.983153 46.502413 
L 312.235146 45.0804 
L 312.360587 45.969158 
L 312.48566 44.902648 
L 312.734714 48.813184 
L 312.858699 46.324661 
L 312.982324 47.035668 
L 313.105593 46.14691 
L 313.228507 46.14691 
L 313.47328 49.701943 
L 313.595142 50.235198 
L 313.958656 55.389996 
L 314.079143 53.256976 
L 314.199291 54.678989 
L 314.438578 50.768453 
L 314.557721 51.123956 
L 314.795014 45.791406 
L 314.913168 46.680165 
L 315.1485 43.480635 
L 315.265681 43.836138 
L 315.382542 44.01389 
L 315.499084 43.658387 
L 315.615309 45.258151 
L 315.846814 43.658387 
L 315.962098 43.125132 
L 316.077072 44.547145 
L 316.191736 44.191642 
L 316.306094 44.724896 
L 316.420147 46.324661 
L 316.533896 45.0804 
L 316.647342 46.502413 
L 316.760488 44.369393 
L 317.098139 47.035668 
L 317.321766 44.01389 
L 317.433142 42.769628 
L 317.655026 43.125132 
L 317.875764 44.724896 
L 318.095367 43.125132 
L 318.204746 43.836138 
L 318.313846 43.302883 
L 318.422668 45.613655 
L 318.531214 45.0804 
L 318.639484 45.613655 
L 318.747481 44.369393 
L 318.962658 45.969158 
L 319.069842 44.369393 
L 319.176757 44.724896 
L 319.283405 42.94738 
L 319.495906 43.836138 
L 319.707355 42.414125 
L 319.917763 42.591877 
L 320.231443 42.591877 
L 320.439291 43.125132 
L 320.646132 44.369393 
L 320.749178 44.01389 
L 320.954528 45.435903 
L 321.158895 44.547145 
L 321.260713 45.0804 
L 321.362289 44.902648 
L 321.463624 43.836138 
L 321.564719 44.724896 
L 321.966723 42.591877 
L 322.066636 42.94738 
L 322.166315 42.769628 
L 322.265763 43.480635 
L 322.463965 42.769628 
L 322.562723 42.414125 
L 322.661253 43.125132 
L 322.759556 42.769628 
L 322.857633 43.836138 
L 322.955486 42.94738 
L 323.150521 43.836138 
L 323.247705 43.302883 
L 323.53794 47.746675 
L 323.634248 45.435903 
L 323.730339 46.14691 
L 323.921876 43.302883 
L 324.017323 43.302883 
L 324.112558 43.480635 
L 324.20758 42.94738 
L 324.302392 43.125132 
L 324.491386 42.591877 
L 324.585571 42.591877 
L 324.773319 42.94738 
L 324.866884 42.94738 
L 324.960245 43.125132 
L 325.053403 43.658387 
L 325.146357 42.591877 
L 325.23911 42.94738 
L 325.424013 42.769628 
L 325.60812 42.769628 
L 325.699876 42.591877 
L 325.791436 42.769628 
L 325.8828 43.836138 
L 325.973969 43.125132 
L 326.064944 43.658387 
L 326.155725 43.302883 
L 326.336711 45.0804 
L 326.516934 43.302883 
L 326.60676 43.836138 
L 326.696399 42.591877 
L 326.875113 44.191642 
L 327.053082 42.94738 
L 327.14179 42.94738 
L 327.406812 43.658386 
L 327.494789 43.658387 
L 327.582585 44.191641 
L 327.6702 43.658387 
L 327.757637 45.969158 
L 327.844894 45.0804 
L 327.931974 45.613655 
L 328.018877 51.479459 
L 328.278529 44.724896 
L 328.622294 43.125132 
L 328.707805 43.302883 
L 328.878315 42.591877 
L 328.963315 42.414125 
L 329.13281 42.769628 
L 329.217306 42.94738 
L 329.301635 42.591877 
L 329.469795 43.125132 
L 329.637296 44.369393 
L 329.7208 42.769628 
L 329.804142 43.480635 
L 329.887322 43.302883 
L 330.053196 42.414125 
L 330.135892 42.769628 
L 330.300806 42.591877 
L 330.383025 42.591877 
L 330.546989 42.414125 
L 330.710326 42.414125 
L 330.791761 42.591877 
L 330.954167 42.414125 
L 331.115958 42.414125 
L 331.196623 42.769628 
L 331.277137 42.591877 
L 331.3575 42.769628 
L 331.517773 42.414125 
L 331.597684 42.591877 
L 331.677446 42.414125 
L 331.75706 42.591877 
L 331.836525 42.414125 
L 331.995014 42.769628 
L 332.074038 42.591877 
L 332.231649 42.769628 
L 332.310237 42.591877 
L 332.388681 43.658387 
L 332.466981 43.125132 
L 332.545138 43.836138 
L 332.623152 43.302883 
L 332.701024 44.01389 
L 332.778754 43.836138 
L 332.933791 42.769628 
L 333.165296 42.414125 
L 333.242186 42.591877 
L 333.395553 42.414125 
L 333.472031 42.591877 
L 333.624576 42.414125 
L 333.700645 42.591877 
L 333.852377 43.125132 
L 334.003573 43.658387 
L 334.07897 44.369393 
L 334.304367 42.591877 
L 334.379236 42.414125 
L 334.528581 42.769628 
L 334.677405 42.414125 
L 334.825713 42.414125 
L 334.899675 42.591877 
L 335.047214 42.414125 
L 335.120793 42.591877 
L 335.413848 44.724896 
L 335.559625 43.302883 
L 335.704907 42.769628 
L 335.849695 42.414125 
L 335.993995 42.591877 
L 336.065962 42.591877 
L 336.137809 42.769628 
L 336.209534 42.591877 
L 336.423991 44.01389 
L 336.566367 42.414125 
L 336.637377 42.769628 
L 336.70827 42.591877 
L 336.849702 42.414125 
L 337.271212 42.414125 
L 337.410796 42.591877 
L 337.480417 42.591877 
L 337.549925 42.769628 
L 337.61932 43.302883 
L 337.688603 42.591877 
L 337.757773 42.94738 
L 337.964614 42.414125 
L 338.101954 42.414125 
L 338.238853 42.591877 
L 338.375316 42.414125 
L 338.443384 42.94738 
L 338.511343 42.591877 
L 338.646939 43.125132 
L 338.782106 42.769628 
L 338.849529 42.769628 
L 338.916846 42.591877 
L 338.984057 42.769628 
L 339.185058 42.414125 
L 339.517972 42.414125 
L 339.716482 42.94738 
L 339.782447 42.769628 
L 339.848311 42.94738 
L 339.914073 42.769628 
L 339.979734 43.302883 
L 340.045295 42.94738 
L 340.110755 42.414125 
L 340.176115 42.769628 
L 340.306535 42.414125 
L 340.371596 42.414125 
L 340.436558 42.591877 
L 340.566187 42.414125 
L 341.272197 42.414125 
L 341.399318 42.769628 
L 341.526062 42.414125 
L 341.589293 42.94738 
L 341.652431 42.414125 
L 341.715475 42.591877 
L 341.841286 42.414125 
L 342.1542 42.414125 
L 342.278727 42.591877 
L 342.340854 42.591877 
L 342.402892 42.414125 
L 342.464839 42.591877 
L 342.526696 42.414125 
L 342.588465 42.591877 
L 342.711733 42.414125 
L 342.957209 42.414125 
L 343.018358 42.591877 
L 343.140394 42.414125 
L 343.201282 43.302883 
L 343.262083 42.94738 
L 343.322797 42.414125 
L 343.383426 42.591877 
L 343.504425 42.591877 
L 343.625082 42.414125 
L 344.401154 42.414125 
L 344.578262 42.94738 
L 344.637136 42.591877 
L 344.695928 43.125132 
L 344.75464 42.769628 
L 344.813271 42.414125 
L 344.871821 42.591877 
L 345.046993 42.414125 
L 345.105224 42.414125 
L 345.279443 42.591877 
L 345.337358 42.591877 
L 345.510635 42.414125 
L 345.625764 42.414125 
L 345.797876 43.125132 
L 345.912234 42.414125 
L 346.026287 42.591877 
L 346.196797 42.414125 
L 347.039282 42.414125 
L 347.316458 43.480635 
L 347.536911 42.414125 
L 347.646712 42.414125 
L 347.701507 42.591877 
L 347.756231 42.414125 
L 348.515105 42.414125 
L 348.568798 42.769628 
L 348.622423 42.414125 
L 348.675982 42.414125 
L 348.729473 42.591877 
L 348.782897 42.414125 
L 349.260731 42.414125 
L 349.313495 42.591877 
L 349.366195 42.414125 
L 349.941634 42.414125 
L 350.097235 42.591877 
L 350.148977 42.591877 
L 350.303827 42.414125 
L 351.221317 42.414125 
L 351.271715 42.591877 
L 351.322054 42.414125 
L 351.522819 42.414125 
L 351.572863 42.591877 
L 351.622849 42.414125 
L 351.92154 42.414125 
L 351.971119 42.591877 
L 352.020641 42.414125 
L 352.267393 42.414125 
L 352.316573 42.769628 
L 352.365696 42.414125 
L 352.561626 42.414125 
L 352.610468 42.591877 
L 352.659255 42.414125 
L 353.766235 42.414125 
L 353.81372 42.591877 
L 353.861152 42.414125 
L 354.612989 42.414125 
L 354.659543 42.591877 
L 354.706045 42.414125 
L 354.752497 42.414125 
L 354.798899 42.769628 
L 354.84525 42.414125 
L 354.937802 42.414125 
L 354.984003 42.591877 
L 355.030153 42.414125 
L 355.21426 42.414125 
L 355.351821 42.769628 
L 355.48894 42.414125 
L 355.987978 42.414125 
L 356.033057 42.94738 
L 356.078089 42.414125 
L 356.123074 42.414125 
L 356.168011 42.769628 
L 356.2129 42.591877 
L 356.257743 42.414125 
L 356.302539 42.591877 
L 356.347287 42.591877 
L 356.481253 42.414125 
L 358.907775 42.414125 
L 358.949877 42.591877 
L 358.991938 42.414125 
L 359.117872 42.414125 
L 359.159767 42.769628 
L 359.201622 42.414125 
L 359.617928 42.414125 
L 359.783321 42.769628 
L 359.948075 42.414125 
L 361.203824 42.414125 
L 361.243724 42.591877 
L 361.283586 42.414125 
L 363.647428 42.414125 
L 363.760375 42.591877 
L 363.910507 42.414125 
L 364.209198 42.414125 
L 364.246388 42.591877 
L 364.320671 42.414125 
L 366.526383 42.414125 
L 366.702228 45.0804 
L 366.73731 44.902648 
L 366.877352 42.769628 
L 366.912291 42.591877 
L 366.947201 43.125132 
L 366.982083 42.414125 
L 367.051761 42.414125 
L 367.086557 42.591877 
L 367.156065 42.414125 
L 370.782748 42.414125 
L 370.878337 42.591877 
L 371.005458 42.414125 
L 371.290105 42.414125 
L 371.416008 42.94738 
L 371.447426 42.769628 
L 371.478821 42.769628 
L 371.60417 42.414125 
L 371.635449 42.94738 
L 371.697941 42.591877 
L 371.729152 42.591877 
L 371.853769 42.414125 
L 375.030225 42.414125 
L 375.116775 44.547145 
L 375.174378 68.010363 
L 375.203151 88.807306 
L 375.260637 78.675462 
L 375.461234 44.369393 
L 375.603942 42.591877 
L 375.717767 42.414125 
L 380.371175 42.414125 
L 380.396653 42.591877 
L 380.472993 42.414125 
L 383.348613 42.414125 
L 383.372375 42.591877 
L 383.443583 42.414125 
L 383.490989 42.414125 
L 383.514672 42.591877 
L 383.561999 82.230495 
L 383.632891 55.923251 
L 383.91529 42.591877 
L 383.962175 42.769628 
L 383.985599 42.414125 
L 387.920085 42.414125 
L 387.920085 42.414125 
" clip-path="url(#p32de48bc3d)" style="fill: none; stroke: #1f77b4; stroke-width: 1.5; stroke-linecap: square"/>
   </g>
   <g id="line2d_39">
    <path d="M 63.26554 280.423589 
L 92.87168 277.698063 
L 110.190162 281.845602 
L 122.47782 281.490099 
L 132.008868 280.60134 
L 139.796302 280.956844 
L 146.380483 279.53483 
L 152.08396 279.179327 
L 157.114783 279.060826 
L 161.615008 278.764573 
L 165.685957 278.883074 
L 169.402442 278.349819 
L 172.821276 278.290569 
L 175.986623 277.935065 
L 178.93349 277.105558 
L 181.6901 277.520312 
L 184.279537 277.757314 
L 186.720923 277.638813 
L 189.030277 277.283309 
L 193.305105 275.979797 
L 195.292097 275.920547 
L 197.190749 275.031788 
L 199.008582 275.15029 
L 200.752197 274.794786 
L 202.427416 275.031788 
L 204.039405 274.676285 
L 205.592763 274.498534 
L 207.091606 274.557784 
L 208.53963 274.735536 
L 213.885677 274.380032 
L 215.123811 274.498534 
L 216.327063 274.439283 
L 217.497346 274.14303 
L 218.636417 274.439283 
L 222.911245 273.846777 
L 223.916294 273.728276 
L 224.898237 273.787527 
L 225.858112 273.728276 
L 226.796889 273.965279 
L 227.715475 273.550525 
L 229.495426 273.609775 
L 230.358337 273.550525 
L 231.204159 273.906028 
L 232.033557 273.609775 
L 233.645545 273.432024 
L 234.429285 273.609775 
L 235.198903 273.669026 
L 235.954899 273.135771 
L 236.697746 272.958019 
L 237.427894 273.07652 
L 238.14577 273.01727 
L 238.85178 272.780268 
L 239.54631 272.721017 
L 240.229726 272.424764 
L 242.216719 272.543265 
L 243.491817 272.128511 
L 244.11537 272.187762 
L 244.729951 272.602516 
L 245.933204 272.661766 
L 246.522353 272.306263 
L 247.676818 271.891509 
L 248.242557 272.306263 
L 248.8009 272.187762 
L 249.352038 271.891509 
L 249.896156 271.891509 
L 250.964027 272.306263 
L 251.488115 272.365514 
L 252.00585 272.01001 
L 252.517385 271.417505 
L 253.022866 272.306263 
L 253.522434 271.95076 
L 254.016227 272.484015 
L 254.504377 271.95076 
L 254.987011 272.424764 
L 255.464252 272.069261 
L 255.936219 272.187762 
L 257.321615 272.247013 
L 258.663484 271.832259 
L 259.101566 272.01001 
L 259.5352 272.01001 
L 259.964477 271.832259 
L 260.389482 272.069261 
L 260.810299 271.654507 
L 261.227011 272.01001 
L 261.639697 272.187762 
L 262.048433 272.01001 
L 262.854356 272.187762 
L 263.251685 271.891509 
L 263.645353 272.247013 
L 264.035425 272.069261 
L 264.805043 272.069261 
L 265.184713 271.773008 
L 265.561039 271.773008 
L 265.934077 272.247013 
L 266.303886 271.891509 
L 266.67052 271.95076 
L 267.39448 271.536006 
L 268.106374 272.01001 
L 268.806597 271.595257 
L 269.15245 271.95076 
L 269.495525 272.01001 
L 269.835866 271.299004 
L 270.173517 271.299004 
L 270.50852 271.121252 
L 270.840916 271.239753 
L 271.170745 271.654507 
L 271.822859 271.832259 
L 272.465166 271.239753 
L 272.782734 271.121252 
L 273.097957 271.536006 
L 273.410872 271.180503 
L 274.029906 271.713758 
L 274.336091 271.654507 
L 274.640097 271.002751 
L 274.941954 271.417505 
L 275.539344 271.239753 
L 275.834934 272.069261 
L 276.128493 271.239753 
L 276.420048 270.88425 
L 276.997254 271.358254 
L 277.282958 271.358254 
L 277.566764 271.536006 
L 277.848697 271.062002 
L 278.40704 270.706498 
L 278.683498 271.121252 
L 278.958178 270.587997 
L 279.231103 271.595257 
L 279.502296 270.88425 
L 279.771777 271.476755 
L 280.039568 271.358254 
L 280.305692 270.824999 
L 280.570167 270.587997 
L 280.833015 270.706498 
L 281.094255 271.299004 
L 281.353907 271.417505 
L 281.61199 271.299004 
L 281.868523 270.824999 
L 282.123525 271.239753 
L 282.377013 270.9435 
L 282.629006 271.062002 
L 282.87952 272.069261 
L 283.128574 271.121252 
L 283.376184 271.832259 
L 283.622367 271.062002 
L 284.110517 270.765749 
L 284.352516 271.536006 
L 284.593151 270.410245 
L 284.832438 270.706498 
L 285.070392 270.350995 
L 285.307028 270.410245 
L 285.542359 270.173243 
L 285.776402 271.002751 
L 286.009169 269.936241 
L 286.240674 270.765749 
L 286.699954 270.232494 
L 287.154348 270.410245 
L 287.379745 270.528747 
L 287.603959 271.180503 
L 287.827002 271.239753 
L 288.048886 270.9435 
L 288.269624 270.88425 
L 288.489227 269.995492 
L 288.707706 270.350995 
L 289.14134 269.639988 
L 289.356518 270.469496 
L 289.783648 269.343736 
L 289.995622 270.706498 
L 290.206549 269.580738 
L 290.625303 269.758489 
L 290.833151 270.350995 
L 291.039992 270.469496 
L 291.245837 269.343736 
L 291.654573 270.647248 
L 291.857484 270.647248 
L 292.260436 269.580738 
L 292.460496 269.462237 
L 292.659623 270.232494 
L 292.857825 270.113993 
L 293.055113 269.165984 
L 293.251493 269.639988 
L 293.446974 269.225234 
L 293.641565 269.81774 
L 293.835274 269.343736 
L 294.028108 269.521487 
L 294.220075 270.232494 
L 294.411183 270.410245 
L 294.60144 269.580738 
L 294.790853 269.402986 
L 294.979431 269.047483 
L 295.354105 269.81774 
L 295.540217 269.876991 
L 295.725522 268.454977 
L 295.910026 268.810481 
L 296.093736 269.995492 
L 296.27666 269.699239 
L 296.458804 270.054742 
L 296.640174 269.284485 
L 296.820777 270.173243 
L 297.00062 269.936241 
L 297.179709 268.454977 
L 297.35805 269.995492 
L 297.53565 268.632729 
L 297.888649 270.410245 
L 298.238754 268.395727 
L 298.412737 268.454977 
L 298.75859 269.876991 
L 298.930472 268.573478 
L 299.101665 268.632729 
L 299.272175 269.402986 
L 299.611166 268.632729 
L 299.779658 268.454977 
L 299.947487 269.462237 
L 300.11466 268.336476 
L 300.447056 269.106733 
L 300.612289 269.106733 
L 300.940849 269.462237 
L 301.104186 267.388467 
L 301.266901 268.277226 
L 301.428999 269.81774 
L 301.590483 268.336476 
L 301.75136 268.454977 
L 301.911633 267.743971 
L 302.071306 267.743971 
L 302.230385 268.69198 
L 302.388874 268.454977 
L 302.546776 268.454977 
L 302.704097 268.573478 
L 302.860841 267.210716 
L 303.017012 268.69198 
L 303.172614 268.277226 
L 303.327651 268.514228 
L 303.482127 267.329217 
L 303.789413 268.75123 
L 303.942231 268.632729 
L 304.094505 268.217975 
L 304.246237 266.914463 
L 304.548094 268.336476 
L 304.698227 267.269966 
L 304.847833 267.566219 
L 304.996918 267.566219 
L 305.145484 269.462237 
L 305.293535 268.573478 
L 305.441074 268.573478 
L 305.588106 268.988232 
L 306.026188 267.68472 
L 306.171222 267.62547 
L 306.459822 268.988232 
L 306.603394 268.217975 
L 306.746485 268.514228 
L 306.889098 268.040223 
L 307.031237 268.573478 
L 307.172904 267.506968 
L 307.314103 268.277226 
L 307.454837 266.677461 
L 307.734921 268.69198 
L 308.151633 267.329217 
L 308.427199 269.284485 
L 308.564318 267.329217 
L 308.837243 267.447718 
L 308.973055 268.158725 
L 309.243389 267.210716 
L 309.512023 267.743971 
L 309.778977 267.269966 
L 309.911832 267.921722 
L 310.176307 266.440459 
L 310.307933 266.61821 
L 310.439155 268.395727 
L 310.569975 268.395727 
L 310.830418 267.447718 
L 310.960047 267.862472 
L 311.089284 267.388467 
L 311.21813 266.381208 
L 311.474663 267.329217 
L 311.729665 266.61821 
L 311.983153 268.514228 
L 312.109335 268.040223 
L 312.235146 267.032964 
L 312.360587 267.68472 
L 312.48566 265.788703 
L 312.734714 268.810481 
L 312.982324 267.210716 
L 313.105593 265.907204 
L 313.47328 268.158725 
L 313.716657 267.032964 
L 313.837828 267.210716 
L 313.958656 267.032964 
L 314.079143 267.506968 
L 314.319102 266.677461 
L 314.438578 266.914463 
L 314.557721 266.736711 
L 314.676532 266.855212 
L 314.795014 267.921722 
L 314.913168 265.49245 
L 315.1485 267.329217 
L 315.265681 266.203456 
L 315.382542 266.321957 
L 315.499084 267.151465 
L 315.731218 266.499709 
L 315.846814 267.980973 
L 316.077072 265.610951 
L 316.191736 265.907204 
L 316.306094 265.847953 
L 316.420147 267.68472 
L 316.533896 267.506968 
L 316.647342 266.499709 
L 316.760488 264.307439 
L 317.098139 266.795962 
L 317.210099 267.210716 
L 317.544228 265.433199 
L 317.765538 266.914463 
L 317.875764 266.144206 
L 317.985706 266.795962 
L 318.204746 265.670201 
L 318.313846 264.129687 
L 318.531214 266.855212 
L 318.639484 265.314698 
L 318.747481 265.373949 
L 318.855205 264.42594 
L 318.962658 266.855212 
L 319.176757 264.544441 
L 319.389788 267.210716 
L 319.495906 264.603691 
L 319.601762 264.899944 
L 319.707355 264.603691 
L 319.812689 266.262707 
L 319.917763 265.373949 
L 320.022579 265.966454 
L 320.127139 265.670201 
L 320.335494 264.42594 
L 320.646132 266.795962 
L 320.851977 264.366689 
L 320.954528 264.070437 
L 321.158895 267.092215 
L 321.260713 266.677461 
L 321.362289 264.248188 
L 321.463624 264.662942 
L 321.564719 265.966454 
L 321.766194 265.49245 
L 321.866576 264.307439 
L 322.166315 266.736711 
L 322.463965 264.248188 
L 322.562723 264.544441 
L 322.759556 266.084955 
L 322.857633 264.129687 
L 322.955486 266.203456 
L 323.150521 264.188938 
L 323.247705 264.129687 
L 323.344669 264.248188 
L 323.441414 267.032964 
L 323.826215 262.529922 
L 323.921876 265.847953 
L 324.112558 264.366689 
L 324.20758 264.070437 
L 324.302392 263.240929 
L 324.679548 266.025705 
L 324.960245 263.41868 
L 325.053403 263.240929 
L 325.23911 265.077696 
L 325.424013 263.951935 
L 325.516166 264.781443 
L 325.699876 263.300179 
L 325.8828 265.670201 
L 326.155725 263.300179 
L 326.246314 264.188938 
L 326.336711 263.655683 
L 326.516934 265.077696 
L 326.60676 264.366689 
L 326.696399 262.589173 
L 326.96419 265.373949 
L 327.14179 262.352171 
L 327.230313 262.826175 
L 327.406812 265.670201 
L 327.494789 265.373949 
L 327.6702 263.063177 
L 327.757637 262.174419 
L 328.018877 265.907204 
L 328.105603 263.122428 
L 328.192153 263.833434 
L 328.278529 264.781443 
L 328.36473 262.115168 
L 328.450757 263.951935 
L 328.536612 263.537182 
L 328.622294 264.248188 
L 328.707805 264.070437 
L 328.793145 262.826175 
L 328.878315 263.892685 
L 329.048147 262.707674 
L 329.13281 263.003927 
L 329.217306 263.774184 
L 329.385798 262.944676 
L 329.469795 263.300179 
L 329.553627 264.42594 
L 329.804142 261.937417 
L 329.887322 262.233669 
L 329.970339 264.129687 
L 330.135892 261.878166 
L 330.218429 262.411421 
L 330.383025 264.603691 
L 330.546989 263.714933 
L 330.628736 263.596432 
L 330.710326 262.115168 
L 330.791761 262.411421 
L 330.873041 261.996667 
L 331.035139 263.655683 
L 331.115958 261.700414 
L 331.196623 262.233669 
L 331.277137 262.352171 
L 331.3575 263.774184 
L 331.517773 261.463412 
L 331.677446 262.529922 
L 331.75706 262.885425 
L 331.836525 262.648423 
L 331.995014 263.655683 
L 332.074038 263.240929 
L 332.231649 260.870907 
L 332.388681 261.759665 
L 332.466981 265.433199 
L 332.701024 260.930157 
L 332.778754 263.655683 
L 332.933791 260.633905 
L 333.088267 262.411421 
L 333.165296 260.278401 
L 333.242186 262.115168 
L 333.395553 260.456153 
L 333.548371 263.300179 
L 333.624576 262.589173 
L 333.776578 259.922898 
L 333.852377 258.915639 
L 334.003573 262.055918 
L 334.154235 258.382384 
L 334.229367 259.330392 
L 334.304367 261.700414 
L 334.453974 259.745146 
L 334.603058 262.055918 
L 334.677405 261.996667 
L 334.899675 260.456153 
L 334.973508 259.922898 
L 335.120793 263.892685 
L 335.267572 258.323133 
L 335.340773 260.693155 
L 335.413848 260.041399 
L 335.486799 260.041399 
L 335.559625 262.470672 
L 335.632328 261.759665 
L 335.921906 258.323133 
L 336.065962 261.285661 
L 336.137809 260.930157 
L 336.352625 256.308614 
L 336.495239 261.700414 
L 336.566367 259.09339 
L 336.637377 261.16716 
L 336.779044 257.730628 
L 336.849702 257.849129 
L 336.990668 261.700414 
L 337.060977 260.10065 
L 337.201249 258.204632 
L 337.480417 261.285661 
L 337.61932 255.716109 
L 337.688603 256.90112 
L 337.757773 260.930157 
L 337.826831 258.382384 
L 337.895778 258.797137 
L 337.964614 259.567395 
L 338.033339 259.09339 
L 338.238853 255.89386 
L 338.307139 258.797137 
L 338.375316 258.323133 
L 338.443384 258.441634 
L 338.511343 258.856388 
L 338.714576 256.249364 
L 338.782106 256.723368 
L 338.849529 256.130863 
L 338.984057 258.915639 
L 339.051162 255.479107 
L 339.118163 255.656858 
L 339.385117 258.560135 
L 339.517972 255.538357 
L 339.584244 257.078871 
L 339.650414 256.841869 
L 339.782447 256.130863 
L 339.848311 256.308614 
L 339.914073 255.301355 
L 340.045295 256.367865 
L 340.241375 255.182854 
L 340.371596 256.367865 
L 340.436558 256.190113 
L 340.501422 254.708849 
L 340.630854 258.02688 
L 340.759896 253.760841 
L 340.82427 254.294096 
L 340.888548 256.664118 
L 340.952729 256.486366 
L 341.080803 253.879342 
L 341.208494 254.294096 
L 341.272197 255.064353 
L 341.335805 257.789878 
L 341.399318 256.723368 
L 341.462737 254.886601 
L 341.526062 256.190113 
L 341.652431 254.471847 
L 341.715475 254.886601 
L 341.841286 255.301355 
L 341.904052 252.042575 
L 341.966727 253.938592 
L 342.029309 257.375124 
L 342.0918 255.301355 
L 342.1542 252.812832 
L 342.216509 253.286836 
L 342.340854 254.945852 
L 342.402892 254.353346 
L 342.464839 253.405337 
L 342.526696 254.175594 
L 342.588465 253.938592 
L 342.650143 252.753581 
L 342.711733 254.412597 
L 342.773235 253.109085 
L 342.834648 253.168335 
L 342.895972 252.931333 
L 343.018358 255.064353 
L 343.201282 252.457329 
L 343.322797 253.109085 
L 343.383426 251.805572 
L 343.443968 253.583089 
L 343.504425 252.990583 
L 343.685283 252.042575 
L 343.805431 250.739063 
L 343.925242 253.168335 
L 343.985022 254.294096 
L 344.044718 254.234845 
L 344.223308 250.44281 
L 344.282672 250.798313 
L 344.341954 250.561311 
L 344.401154 253.64234 
L 344.460272 253.168335 
L 344.637136 249.850304 
L 344.695928 250.205808 
L 344.75464 248.724544 
L 344.813271 249.43555 
L 344.930292 253.109085 
L 345.046993 248.902295 
L 345.105224 248.961546 
L 345.163376 248.072788 
L 345.337358 251.272317 
L 345.510635 248.132038 
L 345.625764 249.850304 
L 345.740583 248.961546 
L 345.797876 251.094566 
L 345.855094 249.3763 
L 345.969299 246.887777 
L 346.026287 249.020797 
L 346.083199 247.717284 
L 346.196797 244.932509 
L 346.310093 247.421032 
L 346.366628 247.065528 
L 346.423089 247.302531 
L 346.479475 248.072788 
L 346.648189 245.288012 
L 346.760296 248.30979 
L 346.816239 247.184029 
L 346.872109 246.769276 
L 346.927906 247.421032 
L 346.98363 245.525014 
L 347.039282 246.236021 
L 347.150368 248.902295 
L 347.261166 244.636256 
L 347.371678 247.065528 
L 347.536911 243.9845 
L 347.701507 245.999018 
L 347.756231 243.9845 
L 347.810886 244.399254 
L 347.919986 243.9845 
L 348.083115 247.24328 
L 348.299656 242.680988 
L 348.407517 244.221502 
L 348.461345 242.029232 
L 348.515105 248.072788 
L 348.568798 245.999018 
L 348.675982 241.555227 
L 348.729473 242.680988 
L 348.836254 244.991759 
L 348.889545 244.517755 
L 348.995928 241.495977 
L 349.04902 243.865999 
L 349.102046 242.680988 
L 349.207902 241.318225 
L 349.260731 242.029232 
L 349.313495 240.962722 
L 349.366195 243.747498 
L 349.418829 241.436726 
L 349.471398 242.562486 
L 349.523903 242.384735 
L 349.576343 240.725719 
L 349.628719 244.399254 
L 349.681031 242.325484 
L 349.88964 240.488717 
L 349.993564 242.91799 
L 350.148977 237.940943 
L 350.303827 241.792229 
L 350.355319 240.014713 
L 350.406749 241.555227 
L 350.560668 236.755932 
L 350.714035 243.036491 
L 350.866853 237.52619 
L 350.917671 239.244456 
L 350.968429 237.111436 
L 351.019127 239.066704 
L 351.069764 241.673728 
L 351.120341 239.540708 
L 351.271715 236.637431 
L 351.372334 238.533449 
L 351.422555 237.348438 
L 351.472716 239.007453 
L 351.522819 238.888952 
L 351.722645 235.570921 
L 351.822208 242.088482 
L 351.92154 234.32666 
L 351.971119 234.682163 
L 352.168863 240.251715 
L 352.316573 233.911906 
L 352.365696 234.148908 
L 352.463773 237.229937 
L 352.512727 236.51893 
L 352.561626 236.104176 
L 352.610468 237.229937 
L 352.659255 234.978416 
L 352.707985 236.696682 
L 352.756661 236.044926 
L 352.902355 232.608394 
L 353.047554 236.874434 
L 353.14408 232.667644 
L 353.192261 233.674904 
L 353.240388 234.089658 
L 353.288461 232.726895 
L 353.336479 233.319401 
L 353.384444 234.504412 
L 353.480212 234.267409 
L 353.528016 234.504412 
L 353.671107 231.186381 
L 353.718698 231.660385 
L 353.766235 235.274669 
L 353.861152 234.919165 
L 353.955859 231.838137 
L 354.003134 232.845396 
L 354.050356 232.904647 
L 354.191711 234.563662 
L 354.238725 234.208159 
L 354.473024 228.223853 
L 354.659543 232.549143 
L 354.706045 228.93486 
L 354.798899 230.06062 
L 354.891551 227.690598 
L 355.076255 232.726895 
L 355.122306 232.430642 
L 355.306016 227.986851 
L 355.397576 230.475374 
L 355.443283 230.238372 
L 355.534549 225.202075 
L 355.580109 227.9276 
L 355.671084 224.550319 
L 355.716499 224.60957 
L 355.852454 229.586616 
L 355.987978 223.780062 
L 356.033057 224.905822 
L 356.123074 229.171862 
L 356.2129 222.417299 
L 356.257743 226.209334 
L 356.302539 225.972332 
L 356.436644 223.246807 
L 356.525815 226.564838 
L 356.6148 222.713552 
L 356.659222 226.446337 
L 356.74793 225.73533 
L 356.792215 223.483809 
L 356.836454 225.972332 
L 356.880647 224.135565 
L 357.012952 226.327835 
L 357.056963 225.676079 
L 357.100929 222.772802 
L 357.144849 224.846572 
L 357.188725 225.498328 
L 357.232555 224.60957 
L 357.27634 222.772802 
L 357.320081 225.498328 
L 357.451034 222.239547 
L 357.494596 224.017064 
L 357.538114 223.365308 
L 357.625017 218.566013 
L 357.668402 220.225029 
L 357.711743 222.950554 
L 357.75504 219.395521 
L 357.927791 224.254066 
L 358.099846 219.928776 
L 358.142752 219.632523 
L 358.228434 222.180297 
L 358.271211 221.173038 
L 358.399285 219.632523 
L 358.484455 221.054536 
L 358.526976 218.566013 
L 358.569455 219.33627 
L 358.654287 221.884044 
L 358.781219 217.973508 
L 358.907775 221.824794 
L 359.075935 217.144 
L 359.159767 219.040018 
L 359.285208 218.803015 
L 359.451892 215.01098 
L 359.576479 220.34353 
L 359.700704 218.743765 
L 359.865777 213.529716 
L 359.906946 217.144 
L 359.948075 215.070231 
L 359.989165 210.567189 
L 360.030215 212.048453 
L 360.071226 215.247982 
L 360.153129 213.88522 
L 360.194022 213.470466 
L 360.234876 214.833229 
L 360.316466 210.033934 
L 360.357203 211.989202 
L 360.479181 215.721987 
L 360.600812 209.61918 
L 360.681707 210.270936 
L 360.722098 213.351965 
L 360.802764 211.929952 
L 360.84304 211.989202 
L 360.923478 209.55993 
L 360.96364 214.477725 
L 361.043851 210.863442 
L 361.123913 207.604661 
L 361.163887 213.470466 
L 361.243724 209.204426 
L 361.283586 208.848923 
L 361.323412 211.278196 
L 361.3632 209.796932 
L 361.442665 205.767894 
L 361.482342 208.55267 
L 361.521983 209.737681 
L 361.561587 208.434169 
L 361.640684 205.471642 
L 361.719635 210.863442 
L 361.759056 209.382178 
L 361.955617 204.938387 
L 362.033989 208.078666 
L 362.112218 207.900914 
L 362.268246 203.634874 
L 362.346046 207.663912 
L 362.384894 206.538151 
L 362.423706 203.397872 
L 362.501224 204.701384 
L 362.539931 205.945646 
L 362.578602 204.819885 
L 362.617239 204.642134 
L 362.65584 205.945646 
L 362.694407 204.345881 
L 362.771436 204.405132 
L 362.809899 203.990378 
L 362.848326 206.123398 
L 362.88672 204.582883 
L 362.963403 202.864617 
L 363.001693 198.954081 
L 363.078171 201.501855 
L 363.116358 204.701384 
L 363.192631 201.857358 
L 363.230716 198.361575 
L 363.268767 199.191083 
L 363.306785 203.101619 
L 363.344769 201.561105 
L 363.420635 198.361575 
L 363.458517 199.191083 
L 363.496366 199.665088 
L 363.609713 205.234639 
L 363.68511 196.524808 
L 363.760375 197.176564 
L 363.835507 195.458298 
L 363.910507 198.480077 
L 363.947958 196.998813 
L 363.985376 196.169305 
L 364.022761 197.472817 
L 364.060114 200.316844 
L 364.097434 199.131833 
L 364.171976 194.747292 
L 364.246388 195.102795 
L 364.283545 197.946822 
L 364.320671 195.695301 
L 364.394825 192.792024 
L 364.431853 192.910525 
L 364.579648 196.821061 
L 364.69016 190.836755 
L 364.726933 190.896006 
L 364.763675 192.969775 
L 364.837065 192.318019 
L 364.946913 190.362751 
L 364.983466 190.955256 
L 365.092939 194.451039 
L 365.238468 190.066498 
L 365.311047 192.081017 
L 365.34729 191.429261 
L 365.419684 188.407483 
L 365.455835 192.140268 
L 365.528046 190.007248 
L 365.564106 190.125749 
L 365.600135 189.355492 
L 365.636134 190.896006 
L 365.672102 191.429261 
L 365.743949 188.585234 
L 365.779827 191.844015 
L 365.851492 189.888747 
L 365.923038 188.999988 
L 365.994463 189.17774 
L 366.030132 191.607013 
L 366.101379 191.251509 
L 366.278978 187.281722 
L 366.349812 189.473993 
L 366.420528 188.466733 
L 366.455842 194.095536 
L 366.526383 187.755727 
L 366.56161 192.021766 
L 366.596808 190.896006 
L 366.772364 177.505381 
L 366.807389 178.690392 
L 366.877352 178.097887 
L 367.016936 168.7363 
L 367.121325 168.854801 
L 367.156065 168.79555 
L 367.190777 168.973302 
L 367.22546 168.203045 
L 367.260115 169.447306 
L 367.294743 168.617799 
L 367.329342 168.558548 
L 367.363913 167.551289 
L 367.398456 171.224823 
L 367.432971 167.492038 
L 367.467459 168.143794 
L 367.501918 170.336065 
L 367.53635 167.72904 
L 367.570754 169.980561 
L 367.639479 166.899533 
L 367.708094 168.79555 
L 367.74236 169.86206 
L 367.776598 165.122016 
L 367.844993 166.958783 
L 367.87915 169.388056 
L 367.947381 168.440047 
L 368.049524 165.240517 
L 368.151423 168.79555 
L 368.185335 165.596021 
L 368.253079 166.070025 
L 368.286911 168.321546 
L 368.354494 165.596021 
L 368.455669 168.440047 
L 368.489341 165.359018 
L 368.522986 170.336065 
L 368.556605 169.091803 
L 368.590197 168.973302 
L 368.657303 165.47752 
L 368.690816 168.617799 
L 368.724303 170.276814 
L 368.757763 167.492038 
L 368.791198 166.484779 
L 368.824606 166.899533 
L 368.857989 168.617799 
L 368.891345 166.070025 
L 368.924675 164.588761 
L 368.957979 166.662531 
L 369.02451 169.328805 
L 369.057736 169.032553 
L 369.090937 166.781032 
L 369.157261 167.788291 
L 369.190384 169.80281 
L 369.223482 166.781032 
L 369.256554 165.122016 
L 369.289601 167.610539 
L 369.322622 168.558548 
L 369.388587 167.373537 
L 369.454451 166.781032 
L 369.487345 167.018034 
L 369.520213 168.914052 
L 369.585875 168.143794 
L 369.716895 164.055506 
L 369.749587 167.432788 
L 369.847515 166.247777 
L 369.880107 166.366278 
L 369.912675 167.66979 
L 369.977736 166.129276 
L 370.01023 164.825763 
L 370.075143 165.240517 
L 370.107562 165.596021 
L 370.139957 167.255036 
L 370.172327 166.840282 
L 370.204673 163.996256 
L 370.301564 165.240517 
L 370.366036 167.610539 
L 370.43041 165.714522 
L 370.462561 165.299768 
L 370.494688 165.47752 
L 370.558869 164.648012 
L 370.622954 167.966043 
L 370.718902 161.922486 
L 370.750837 163.225999 
L 370.782748 165.47752 
L 370.814635 162.751994 
L 370.846498 161.863236 
L 370.878337 164.351759 
L 370.941945 160.974478 
L 371.037179 156.352935 
L 371.100551 163.818504 
L 371.163829 158.663706 
L 371.195433 159.730216 
L 371.258571 159.670966 
L 371.416008 152.442398 
L 371.510192 148.531862 
L 371.541541 149.894625 
L 371.572867 153.212655 
L 371.60417 145.569334 
L 371.635449 146.339592 
L 371.666706 143.436315 
L 371.697941 149.716873 
L 371.729152 145.213831 
L 371.76034 146.754345 
L 371.822649 144.621326 
L 371.853769 144.680576 
L 371.946994 140.651539 
L 371.978024 142.725308 
L 372.009032 143.673317 
L 372.040017 140.059033 
L 372.132837 140.77004 
L 372.225455 142.784559 
L 372.256284 141.481046 
L 372.28709 141.599547 
L 372.317873 145.510084 
L 372.379375 141.955051 
L 372.410092 141.303295 
L 372.502112 144.02882 
L 372.532742 143.673317 
L 372.563349 140.533038 
L 372.624498 145.391583 
L 372.68556 141.362545 
L 372.746534 142.90306 
L 372.868223 140.77004 
L 372.898591 141.599547 
L 372.959262 144.088071 
L 372.989566 143.199312 
L 373.050108 141.244044 
L 373.080347 143.140062 
L 373.170936 140.888541 
L 373.201089 140.947791 
L 373.261333 143.96957 
L 373.291423 142.073552 
L 373.321492 140.414536 
L 373.351539 142.429055 
L 373.411571 146.043339 
L 373.441555 141.658798 
L 373.471519 141.244044 
L 373.501461 141.955051 
L 373.531382 142.96231 
L 373.561282 141.244044 
L 373.591162 142.132802 
L 373.650858 143.851068 
L 373.710471 140.473787 
L 373.799735 142.784558 
L 373.829448 141.066293 
L 373.888812 143.080811 
L 373.948094 141.540297 
L 373.977704 141.184794 
L 374.007294 142.725308 
L 374.09594 141.658798 
L 374.184402 142.488306 
L 374.154935 141.184794 
L 374.213849 142.429055 
L 374.272682 141.007042 
L 374.302068 142.90306 
L 374.419411 141.955051 
L 374.477961 144.325073 
L 374.536432 142.488306 
L 374.565637 139.585029 
L 374.623987 144.680576 
L 374.682258 141.184794 
L 374.74045 141.777299 
L 374.769516 145.332332 
L 374.827589 142.192053 
L 374.856596 141.303295 
L 374.885583 142.666057 
L 374.914551 143.080811 
L 374.943499 141.540297 
L 374.972427 144.02882 
L 375.030225 142.429055 
L 375.087945 143.791818 
L 375.404017 81.341737 
L 375.432635 79.208717 
L 375.518374 80.097475 
L 375.575439 79.267968 
L 375.632427 79.50497 
L 375.831289 78.912464 
L 375.859622 78.971715 
L 375.887937 78.971715 
L 375.916233 79.267968 
L 375.972768 78.971715 
L 376.001008 78.734713 
L 376.029229 79.149467 
L 376.085616 79.564221 
L 376.113781 79.090216 
L 376.141928 79.030966 
L 376.170056 78.675462 
L 376.226257 79.267968 
L 376.254329 79.208717 
L 376.338437 78.853214 
L 376.366436 79.50497 
L 376.450323 79.090216 
L 376.589771 79.327218 
L 376.617605 79.208717 
L 376.673221 79.445719 
L 376.839634 79.149467 
L 376.922598 79.445719 
L 376.950217 79.327218 
L 377.005401 79.090216 
L 377.032967 79.564221 
L 377.115556 79.267968 
L 377.143051 79.030966 
L 377.197987 79.327218 
L 377.225428 79.267968 
L 377.252852 79.445719 
L 377.280258 79.267968 
L 377.307647 78.853214 
L 377.335018 79.623471 
L 377.362371 79.386469 
L 377.389708 79.50497 
L 377.417026 79.327218 
L 377.471611 79.030966 
L 377.498877 79.386469 
L 377.553358 79.623471 
L 377.580572 79.50497 
L 377.689255 78.793963 
L 377.851764 79.386469 
L 377.878789 79.50497 
L 377.905797 79.149467 
L 377.932787 79.327218 
L 377.959761 78.912464 
L 378.040579 79.149467 
L 378.121245 79.445719 
L 378.094374 79.090216 
L 378.1481 79.386469 
L 378.255351 78.971715 
L 378.389037 79.386469 
L 378.415724 79.564221 
L 378.442394 79.50497 
L 378.469048 79.030966 
L 378.522306 79.327218 
L 378.54891 79.741972 
L 378.602068 79.50497 
L 378.628622 78.912464 
L 378.681681 79.741972 
L 378.708186 79.50497 
L 378.761147 78.912464 
L 378.840465 79.860473 
L 378.919635 78.971715 
L 378.945993 79.208717 
L 378.972335 79.860473 
L 379.024969 79.267968 
L 379.051262 79.030966 
L 379.077538 79.208717 
L 379.103799 79.860473 
L 379.182483 79.267968 
L 379.208679 79.208717 
L 379.261023 79.801223 
L 379.313303 79.623471 
L 379.339419 78.675462 
L 379.417671 79.090216 
L 379.46976 79.030966 
L 379.521785 79.564221 
L 379.625645 79.030966 
L 379.651571 79.860473 
L 379.729254 78.912464 
L 379.806796 79.682722 
L 379.858412 79.50497 
L 379.884197 79.50497 
L 379.909967 79.919724 
L 379.93572 79.267968 
L 379.961459 79.267968 
L 379.987181 79.267968 
L 380.012889 79.090216 
L 380.03858 79.919724 
L 380.115563 78.971715 
L 380.141193 78.971715 
L 380.217992 80.275227 
L 380.269114 79.801223 
L 380.294652 80.038225 
L 380.320175 79.564221 
L 380.345683 79.267968 
L 380.371175 79.801223 
L 380.396653 79.564221 
L 380.422115 80.097475 
L 380.447562 79.327218 
L 380.49841 79.978974 
L 380.574569 79.327218 
L 380.625267 79.623471 
L 380.675904 80.512229 
L 380.7012 80.275227 
L 380.776999 79.090216 
L 380.827457 79.741972 
L 380.877855 81.223236 
L 380.903032 79.682722 
L 380.928194 79.208717 
L 380.978474 80.156726 
L 381.053783 79.564221 
L 381.028695 80.215977 
L 381.103915 79.741972 
L 381.128959 80.275227 
L 381.179003 79.623471 
L 381.204003 79.919724 
L 381.228989 79.801223 
L 381.25396 81.104735 
L 381.353697 80.749232 
L 381.378595 80.63073 
L 381.428348 79.919724 
L 381.478043 80.867733 
L 381.502868 80.156726 
L 381.552477 79.978974 
L 381.626781 79.919724 
L 381.700956 81.104735 
L 381.750335 79.978974 
L 381.799657 80.926983 
L 381.824296 81.341737 
L 381.848922 80.452979 
L 381.873533 79.978974 
L 381.922713 80.63073 
L 381.947281 80.986234 
L 381.971836 79.978974 
L 381.996376 79.801223 
L 382.020903 81.104735 
L 382.094397 80.452979 
L 382.118867 80.156726 
L 382.143324 81.104735 
L 382.192194 80.038225 
L 382.241008 80.452979 
L 382.265395 81.460238 
L 382.314126 80.393728 
L 382.33847 80.393728 
L 382.387118 81.63799 
L 382.508495 81.341737 
L 382.581156 80.393728 
L 382.605349 81.104735 
L 382.629528 81.519489 
L 382.653694 80.808482 
L 382.677846 80.926983 
L 382.701984 80.749232 
L 382.726109 81.341737 
L 382.75022 81.282486 
L 382.798401 80.57148 
L 382.846528 81.223236 
L 382.870571 81.63799 
L 382.894601 81.045484 
L 382.942619 81.519489 
L 383.06243 80.867733 
L 383.086352 81.223236 
L 383.110261 81.578739 
L 383.134156 81.341737 
L 383.158038 79.978974 
L 383.229603 82.052744 
L 383.277247 80.156726 
L 383.348613 81.519489 
L 383.372375 81.460238 
L 383.396125 80.452979 
L 383.467292 81.756491 
L 383.490989 81.519489 
L 383.514672 82.348996 
L 383.538342 118.373331 
L 383.609274 81.104735 
L 383.797851 67.595609 
L 383.821364 67.832611 
L 383.844865 66.943853 
L 383.891828 68.188115 
L 383.91529 68.010363 
L 383.985599 68.425117 
L 384.009009 68.188115 
L 384.032407 67.71411 
L 384.12587 68.010363 
L 384.45139 68.069614 
L 384.590143 68.188115 
L 384.728446 68.128864 
L 384.79743 68.247365 
L 384.843358 68.128864 
L 384.912156 68.188115 
L 385.026576 68.247365 
L 385.072258 68.188115 
L 385.140689 68.247365 
L 385.594118 68.306616 
L 385.706727 68.069614 
L 385.863883 68.425117 
L 385.886287 68.365866 
L 385.931059 68.543618 
L 386.131955 68.602869 
L 386.198711 68.78062 
L 386.265363 68.662119 
L 386.575036 68.602869 
L 386.641103 68.425117 
L 386.663103 68.839871 
L 386.750989 68.662119 
L 386.816785 68.602869 
L 386.838695 68.72137 
L 386.926221 68.839871 
L 386.969917 68.78062 
L 387.122501 68.425117 
L 387.144254 68.425117 
L 387.165996 68.306616 
L 387.231157 68.543618 
L 387.252855 68.662119 
L 387.339537 68.602869 
L 387.426044 68.247365 
L 387.469231 68.365866 
L 387.533931 68.425117 
L 387.512376 68.247365 
L 387.555476 68.306616 
L 387.57701 68.306616 
L 387.684517 68.188115 
L 387.770329 68.069614 
L 387.791755 68.365866 
L 387.855968 67.951112 
L 387.834574 68.72137 
L 387.877351 68.484367 
L 387.898724 68.543618 
L 387.920085 68.247365 
L 387.920085 68.247365 
" clip-path="url(#p32de48bc3d)" style="fill: none; stroke: #ff7f0e; stroke-width: 1.5; stroke-linecap: square"/>
   </g>
   <g id="patch_3">
    <path d="M 47.032813 296.430125 
L 47.032813 30.318125 
" style="fill: none; stroke: #000000; stroke-width: 0.8; stroke-linejoin: miter; stroke-linecap: square"/>
   </g>
   <g id="patch_4">
    <path d="M 404.152812 296.430125 
L 404.152812 30.318125 
" style="fill: none; stroke: #000000; stroke-width: 0.8; stroke-linejoin: miter; stroke-linecap: square"/>
   </g>
   <g id="patch_5">
    <path d="M 47.032813 296.430125 
L 404.152813 296.430125 
" style="fill: none; stroke: #000000; stroke-width: 0.8; stroke-linejoin: miter; stroke-linecap: square"/>
   </g>
   <g id="patch_6">
    <path d="M 47.032813 30.318125 
L 404.152813 30.318125 
" style="fill: none; stroke: #000000; stroke-width: 0.8; stroke-linejoin: miter; stroke-linecap: square"/>
   </g>
   <g id="text_12">
    <!-- Accuracy per Epoch (12-Layer MLP on MNIST) -->
    <g transform="translate(71.717188 16.318125) scale(0.12 -0.12)">
     <defs>
      <path id="DejaVuSans-Bold-65" d="M 4031 1759 
L 4031 1441 
L 1416 1441 
Q 1456 1047 1700 850 
Q 1944 653 2381 653 
Q 2734 653 3104 758 
Q 3475 863 3866 1075 
L 3866 213 
Q 3469 63 3072 -14 
Q 2675 -91 2278 -91 
Q 1328 -91 801 392 
Q 275 875 275 1747 
Q 275 2603 792 3093 
Q 1309 3584 2216 3584 
Q 3041 3584 3536 3087 
Q 4031 2591 4031 1759 
z
M 2881 2131 
Q 2881 2450 2695 2645 
Q 2509 2841 2209 2841 
Q 1884 2841 1681 2658 
Q 1478 2475 1428 2131 
L 2881 2131 
z
" transform="scale(0.015625)"/>
      <path id="DejaVuSans-Bold-31" d="M 750 831 
L 1813 831 
L 1813 3847 
L 722 3622 
L 722 4441 
L 1806 4666 
L 2950 4666 
L 2950 831 
L 4013 831 
L 4013 0 
L 750 0 
L 750 831 
z
" transform="scale(0.015625)"/>
      <path id="DejaVuSans-Bold-32" d="M 1844 884 
L 3897 884 
L 3897 0 
L 506 0 
L 506 884 
L 2209 2388 
Q 2438 2594 2547 2791 
Q 2656 2988 2656 3200 
Q 2656 3528 2436 3728 
Q 2216 3928 1850 3928 
Q 1569 3928 1234 3808 
Q 900 3688 519 3450 
L 519 4475 
Q 925 4609 1322 4679 
Q 1719 4750 2100 4750 
Q 2938 4750 3402 4381 
Q 3866 4013 3866 3353 
Q 3866 2972 3669 2642 
Q 3472 2313 2841 1759 
L 1844 884 
z
" transform="scale(0.015625)"/>
      <path id="DejaVuSans-Bold-2d" d="M 347 2297 
L 2309 2297 
L 2309 1388 
L 347 1388 
L 347 2297 
z
" transform="scale(0.015625)"/>
      <path id="DejaVuSans-Bold-4c" d="M 588 4666 
L 1791 4666 
L 1791 909 
L 3903 909 
L 3903 0 
L 588 0 
L 588 4666 
z
" transform="scale(0.015625)"/>
      <path id="DejaVuSans-Bold-4d" d="M 588 4666 
L 2119 4666 
L 3181 2169 
L 4250 4666 
L 5778 4666 
L 5778 0 
L 4641 0 
L 4641 3413 
L 3566 897 
L 2803 897 
L 1728 3413 
L 1728 0 
L 588 0 
L 588 4666 
z
" transform="scale(0.015625)"/>
      <path id="DejaVuSans-Bold-50" d="M 588 4666 
L 2584 4666 
Q 3475 4666 3951 4270 
Q 4428 3875 4428 3144 
Q 4428 2409 3951 2014 
Q 3475 1619 2584 1619 
L 1791 1619 
L 1791 0 
L 588 0 
L 588 4666 
z
M 1791 3794 
L 1791 2491 
L 2456 2491 
Q 2806 2491 2997 2661 
Q 3188 2831 3188 3144 
Q 3188 3456 2997 3625 
Q 2806 3794 2456 3794 
L 1791 3794 
z
" transform="scale(0.015625)"/>
      <path id="DejaVuSans-Bold-6e" d="M 4056 2131 
L 4056 0 
L 2931 0 
L 2931 347 
L 2931 1631 
Q 2931 2084 2911 2256 
Q 2891 2428 2841 2509 
Q 2775 2619 2662 2680 
Q 2550 2741 2406 2741 
Q 2056 2741 1856 2470 
Q 1656 2200 1656 1722 
L 1656 0 
L 538 0 
L 538 3500 
L 1656 3500 
L 1656 2988 
Q 1909 3294 2193 3439 
Q 2478 3584 2822 3584 
Q 3428 3584 3742 3212 
Q 4056 2841 4056 2131 
z
" transform="scale(0.015625)"/>
      <path id="DejaVuSans-Bold-4e" d="M 588 4666 
L 1931 4666 
L 3628 1466 
L 3628 4666 
L 4769 4666 
L 4769 0 
L 3425 0 
L 1728 3200 
L 1728 0 
L 588 0 
L 588 4666 
z
" transform="scale(0.015625)"/>
      <path id="DejaVuSans-Bold-49" d="M 588 4666 
L 1791 4666 
L 1791 0 
L 588 0 
L 588 4666 
z
" transform="scale(0.015625)"/>
      <path id="DejaVuSans-Bold-53" d="M 3834 4519 
L 3834 3531 
Q 3450 3703 3084 3790 
Q 2719 3878 2394 3878 
Q 1963 3878 1756 3759 
Q 1550 3641 1550 3391 
Q 1550 3203 1689 3098 
Q 1828 2994 2194 2919 
L 2706 2816 
Q 3484 2659 3812 2340 
Q 4141 2022 4141 1434 
Q 4141 663 3683 286 
Q 3225 -91 2284 -91 
Q 1841 -91 1394 -6 
Q 947 78 500 244 
L 500 1259 
Q 947 1022 1364 901 
Q 1781 781 2169 781 
Q 2563 781 2772 912 
Q 2981 1044 2981 1288 
Q 2981 1506 2839 1625 
Q 2697 1744 2272 1838 
L 1806 1941 
Q 1106 2091 782 2419 
Q 459 2747 459 3303 
Q 459 4000 909 4375 
Q 1359 4750 2203 4750 
Q 2588 4750 2994 4692 
Q 3400 4634 3834 4519 
z
" transform="scale(0.015625)"/>
      <path id="DejaVuSans-Bold-54" d="M 31 4666 
L 4331 4666 
L 4331 3756 
L 2784 3756 
L 2784 0 
L 1581 0 
L 1581 3756 
L 31 3756 
L 31 4666 
z
" transform="scale(0.015625)"/>
     </defs>
     <use xlink:href="#DejaVuSans-Bold-41"/>
     <use xlink:href="#DejaVuSans-Bold-63" transform="translate(77.392578 0)"/>
     <use xlink:href="#DejaVuSans-Bold-63" transform="translate(136.669922 0)"/>
     <use xlink:href="#DejaVuSans-Bold-75" transform="translate(195.947266 0)"/>
     <use xlink:href="#DejaVuSans-Bold-72" transform="translate(267.138672 0)"/>
     <use xlink:href="#DejaVuSans-Bold-61" transform="translate(316.455078 0)"/>
     <use xlink:href="#DejaVuSans-Bold-63" transform="translate(383.935547 0)"/>
     <use xlink:href="#DejaVuSans-Bold-79" transform="translate(443.212891 0)"/>
     <use xlink:href="#DejaVuSans-Bold-20" transform="translate(508.398438 0)"/>
     <use xlink:href="#DejaVuSans-Bold-70" transform="translate(543.212891 0)"/>
     <use xlink:href="#DejaVuSans-Bold-65" transform="translate(614.794922 0)"/>
     <use xlink:href="#DejaVuSans-Bold-72" transform="translate(682.617188 0)"/>
     <use xlink:href="#DejaVuSans-Bold-20" transform="translate(731.933594 0)"/>
     <use xlink:href="#DejaVuSans-Bold-45" transform="translate(766.748047 0)"/>
     <use xlink:href="#DejaVuSans-Bold-70" transform="translate(835.058594 0)"/>
     <use xlink:href="#DejaVuSans-Bold-6f" transform="translate(906.640625 0)"/>
     <use xlink:href="#DejaVuSans-Bold-63" transform="translate(975.341797 0)"/>
     <use xlink:href="#DejaVuSans-Bold-68" transform="translate(1034.619141 0)"/>
     <use xlink:href="#DejaVuSans-Bold-20" transform="translate(1105.810547 0)"/>
     <use xlink:href="#DejaVuSans-Bold-28" transform="translate(1140.625 0)"/>
     <use xlink:href="#DejaVuSans-Bold-31" transform="translate(1186.328125 0)"/>
     <use xlink:href="#DejaVuSans-Bold-32" transform="translate(1255.908203 0)"/>
     <use xlink:href="#DejaVuSans-Bold-2d" transform="translate(1325.488281 0)"/>
     <use xlink:href="#DejaVuSans-Bold-4c" transform="translate(1366.992188 0)"/>
     <use xlink:href="#DejaVuSans-Bold-61" transform="translate(1430.712891 0)"/>
     <use xlink:href="#DejaVuSans-Bold-79" transform="translate(1495.068359 0)"/>
     <use xlink:href="#DejaVuSans-Bold-65" transform="translate(1560.253906 0)"/>
     <use xlink:href="#DejaVuSans-Bold-72" transform="translate(1628.076172 0)"/>
     <use xlink:href="#DejaVuSans-Bold-20" transform="translate(1677.392578 0)"/>
     <use xlink:href="#DejaVuSans-Bold-4d" transform="translate(1712.207031 0)"/>
     <use xlink:href="#DejaVuSans-Bold-4c" transform="translate(1811.71875 0)"/>
     <use xlink:href="#DejaVuSans-Bold-50" transform="translate(1875.439453 0)"/>
     <use xlink:href="#DejaVuSans-Bold-20" transform="translate(1948.730469 0)"/>
     <use xlink:href="#DejaVuSans-Bold-6f" transform="translate(1983.544922 0)"/>
     <use xlink:href="#DejaVuSans-Bold-6e" transform="translate(2052.246094 0)"/>
     <use xlink:href="#DejaVuSans-Bold-20" transform="translate(2123.4375 0)"/>
     <use xlink:href="#DejaVuSans-Bold-4d" transform="translate(2158.251953 0)"/>
     <use xlink:href="#DejaVuSans-Bold-4e" transform="translate(2257.763672 0)"/>
     <use xlink:href="#DejaVuSans-Bold-49" transform="translate(2341.455078 0)"/>
     <use xlink:href="#DejaVuSans-Bold-53" transform="translate(2378.662109 0)"/>
     <use xlink:href="#DejaVuSans-Bold-54" transform="translate(2450.683594 0)"/>
     <use xlink:href="#DejaVuSans-Bold-29" transform="translate(2518.896484 0)"/>
    </g>
   </g>
   <g id="legend_1">
    <g id="patch_7">
     <path d="M 54.032813 67.674375 
L 135.414062 67.674375 
Q 137.414062 67.674375 137.414062 65.674375 
L 137.414062 37.318125 
Q 137.414062 35.318125 135.414062 35.318125 
L 54.032813 35.318125 
Q 52.032813 35.318125 52.032813 37.318125 
L 52.032813 65.674375 
Q 52.032813 67.674375 54.032813 67.674375 
z
" style="fill: #ffffff; opacity: 0.8; stroke: #cccccc; stroke-linejoin: miter"/>
    </g>
    <g id="line2d_40">
     <path d="M 56.032813 43.416562 
L 66.032813 43.416562 
L 76.032813 43.416562 
" style="fill: none; stroke: #1f77b4; stroke-width: 1.5; stroke-linecap: square"/>
    </g>
    <g id="text_13">
     <!-- Train -->
     <g transform="translate(84.032813 46.916562) scale(0.1 -0.1)">
      <defs>
       <path id="DejaVuSans-54" d="M -19 4666 
L 3928 4666 
L 3928 4134 
L 2272 4134 
L 2272 0 
L 1638 0 
L 1638 4134 
L -19 4134 
L -19 4666 
z
" transform="scale(0.015625)"/>
       <path id="DejaVuSans-72" d="M 2631 2963 
Q 2534 3019 2420 3045 
Q 2306 3072 2169 3072 
Q 1681 3072 1420 2755 
Q 1159 2438 1159 1844 
L 1159 0 
L 581 0 
L 581 3500 
L 1159 3500 
L 1159 2956 
Q 1341 3275 1631 3429 
Q 1922 3584 2338 3584 
Q 2397 3584 2469 3576 
Q 2541 3569 2628 3553 
L 2631 2963 
z
" transform="scale(0.015625)"/>
       <path id="DejaVuSans-61" d="M 2194 1759 
Q 1497 1759 1228 1600 
Q 959 1441 959 1056 
Q 959 750 1161 570 
Q 1363 391 1709 391 
Q 2188 391 2477 730 
Q 2766 1069 2766 1631 
L 2766 1759 
L 2194 1759 
z
M 3341 1997 
L 3341 0 
L 2766 0 
L 2766 531 
Q 2569 213 2275 61 
Q 1981 -91 1556 -91 
Q 1019 -91 701 211 
Q 384 513 384 1019 
Q 384 1609 779 1909 
Q 1175 2209 1959 2209 
L 2766 2209 
L 2766 2266 
Q 2766 2663 2505 2880 
Q 2244 3097 1772 3097 
Q 1472 3097 1187 3025 
Q 903 2953 641 2809 
L 641 3341 
Q 956 3463 1253 3523 
Q 1550 3584 1831 3584 
Q 2591 3584 2966 3190 
Q 3341 2797 3341 1997 
z
" transform="scale(0.015625)"/>
       <path id="DejaVuSans-69" d="M 603 3500 
L 1178 3500 
L 1178 0 
L 603 0 
L 603 3500 
z
M 603 4863 
L 1178 4863 
L 1178 4134 
L 603 4134 
L 603 4863 
z
" transform="scale(0.015625)"/>
       <path id="DejaVuSans-6e" d="M 3513 2113 
L 3513 0 
L 2938 0 
L 2938 2094 
Q 2938 2591 2744 2837 
Q 2550 3084 2163 3084 
Q 1697 3084 1428 2787 
Q 1159 2491 1159 1978 
L 1159 0 
L 581 0 
L 581 3500 
L 1159 3500 
L 1159 2956 
Q 1366 3272 1645 3428 
Q 1925 3584 2291 3584 
Q 2894 3584 3203 3211 
Q 3513 2838 3513 2113 
z
" transform="scale(0.015625)"/>
      </defs>
      <use xlink:href="#DejaVuSans-54"/>
      <use xlink:href="#DejaVuSans-72" transform="translate(46.333984 0)"/>
      <use xlink:href="#DejaVuSans-61" transform="translate(87.447266 0)"/>
      <use xlink:href="#DejaVuSans-69" transform="translate(148.726562 0)"/>
      <use xlink:href="#DejaVuSans-6e" transform="translate(176.509766 0)"/>
     </g>
    </g>
    <g id="line2d_41">
     <path d="M 56.032813 58.094687 
L 66.032813 58.094687 
L 76.032813 58.094687 
" style="fill: none; stroke: #ff7f0e; stroke-width: 1.5; stroke-linecap: square"/>
    </g>
    <g id="text_14">
     <!-- Validation -->
     <g transform="translate(84.032813 61.594687) scale(0.1 -0.1)">
      <defs>
       <path id="DejaVuSans-56" d="M 1831 0 
L 50 4666 
L 709 4666 
L 2188 738 
L 3669 4666 
L 4325 4666 
L 2547 0 
L 1831 0 
z
" transform="scale(0.015625)"/>
       <path id="DejaVuSans-6c" d="M 603 4863 
L 1178 4863 
L 1178 0 
L 603 0 
L 603 4863 
z
" transform="scale(0.015625)"/>
       <path id="DejaVuSans-64" d="M 2906 2969 
L 2906 4863 
L 3481 4863 
L 3481 0 
L 2906 0 
L 2906 525 
Q 2725 213 2448 61 
Q 2172 -91 1784 -91 
Q 1150 -91 751 415 
Q 353 922 353 1747 
Q 353 2572 751 3078 
Q 1150 3584 1784 3584 
Q 2172 3584 2448 3432 
Q 2725 3281 2906 2969 
z
M 947 1747 
Q 947 1113 1208 752 
Q 1469 391 1925 391 
Q 2381 391 2643 752 
Q 2906 1113 2906 1747 
Q 2906 2381 2643 2742 
Q 2381 3103 1925 3103 
Q 1469 3103 1208 2742 
Q 947 2381 947 1747 
z
" transform="scale(0.015625)"/>
       <path id="DejaVuSans-74" d="M 1172 4494 
L 1172 3500 
L 2356 3500 
L 2356 3053 
L 1172 3053 
L 1172 1153 
Q 1172 725 1289 603 
Q 1406 481 1766 481 
L 2356 481 
L 2356 0 
L 1766 0 
Q 1100 0 847 248 
Q 594 497 594 1153 
L 594 3053 
L 172 3053 
L 172 3500 
L 594 3500 
L 594 4494 
L 1172 4494 
z
" transform="scale(0.015625)"/>
       <path id="DejaVuSans-6f" d="M 1959 3097 
Q 1497 3097 1228 2736 
Q 959 2375 959 1747 
Q 959 1119 1226 758 
Q 1494 397 1959 397 
Q 2419 397 2687 759 
Q 2956 1122 2956 1747 
Q 2956 2369 2687 2733 
Q 2419 3097 1959 3097 
z
M 1959 3584 
Q 2709 3584 3137 3096 
Q 3566 2609 3566 1747 
Q 3566 888 3137 398 
Q 2709 -91 1959 -91 
Q 1206 -91 779 398 
Q 353 888 353 1747 
Q 353 2609 779 3096 
Q 1206 3584 1959 3584 
z
" transform="scale(0.015625)"/>
      </defs>
      <use xlink:href="#DejaVuSans-56"/>
      <use xlink:href="#DejaVuSans-61" transform="translate(60.658203 0)"/>
      <use xlink:href="#DejaVuSans-6c" transform="translate(121.9375 0)"/>
      <use xlink:href="#DejaVuSans-69" transform="translate(149.720703 0)"/>
      <use xlink:href="#DejaVuSans-64" transform="translate(177.503906 0)"/>
      <use xlink:href="#DejaVuSans-61" transform="translate(240.980469 0)"/>
      <use xlink:href="#DejaVuSans-74" transform="translate(302.259766 0)"/>
      <use xlink:href="#DejaVuSans-69" transform="translate(341.46875 0)"/>
      <use xlink:href="#DejaVuSans-6f" transform="translate(369.251953 0)"/>
      <use xlink:href="#DejaVuSans-6e" transform="translate(430.433594 0)"/>
     </g>
    </g>
   </g>
  </g>
 </g>
 <defs>
  <clipPath id="p32de48bc3d">
   <rect x="47.032813" y="30.318125" width="357.12" height="266.112"/>
  </clipPath>
 </defs>
</svg>
