<?xml version="1.0" encoding="utf-8" standalone="no"?>
<!DOCTYPE svg PUBLIC "-//W3C//DTD SVG 1.1//EN"
  "http://www.w3.org/Graphics/SVG/1.1/DTD/svg11.dtd">
<svg xmlns:xlink="http://www.w3.org/1999/xlink" width="417.71125pt" height="333.986375pt" viewBox="0 0 417.71125 333.986375" xmlns="http://www.w3.org/2000/svg" version="1.1">
 <metadata>
  <rdf:RDF xmlns:dc="http://purl.org/dc/elements/1.1/" xmlns:cc="http://creativecommons.org/ns#" xmlns:rdf="http://www.w3.org/1999/02/22-rdf-syntax-ns#">
   <cc:Work>
    <dc:type rdf:resource="http://purl.org/dc/dcmitype/StillImage"/>
    <dc:date>2025-11-26T12:46:25.072361</dc:date>
    <dc:format>image/svg+xml</dc:format>
    <dc:creator>
     <cc:Agent>
      <dc:title>Matplotlib v3.10.7, https://matplotlib.org/</dc:title>
     </cc:Agent>
    </dc:creator>
   </cc:Work>
  </rdf:RDF>
 </metadata>
 <defs>
  <style type="text/css">*{stroke-linejoin: round; stroke-linecap: butt}</style>
 </defs>
 <g id="figure_1">
  <g id="patch_1">
   <path d="M 0 333.986375 
L 417.71125 333.986375 
L 417.71125 0 
L 0 0 
z
" style="fill: #ffffff"/>
  </g>
  <g id="axes_1">
   <g id="patch_2">
    <path d="M 43.848438 296.430125 
L 400.968438 296.430125 
L 400.968438 30.318125 
L 43.848438 30.318125 
z
" style="fill: #ffffff"/>
   </g>
   <g id="matplotlib.axis_1">
    <g id="xtick_1">
     <g id="line2d_1">
      <defs>
       <path id="m82f5371f08" d="M 0 0 
L 0 3.5 
" style="stroke: #000000; stroke-width: 0.8"/>
      </defs>
      <g>
       <use xlink:href="#m82f5371f08" x="60.081165" y="296.430125" style="stroke: #000000; stroke-width: 0.8"/>
      </g>
     </g>
     <g id="text_1">
      <!-- $\mathdefault{10^{0}}$ -->
      <g transform="translate(51.281165 311.028562) scale(0.1 -0.1)">
       <defs>
        <path id="DejaVuSans-31" d="M 794 531 
L 1825 531 
L 1825 4091 
L 703 3866 
L 703 4441 
L 1819 4666 
L 2450 4666 
L 2450 531 
L 3481 531 
L 3481 0 
L 794 0 
L 794 531 
z
" transform="scale(0.015625)"/>
        <path id="DejaVuSans-30" d="M 2034 4250 
Q 1547 4250 1301 3770 
Q 1056 3291 1056 2328 
Q 1056 1369 1301 889 
Q 1547 409 2034 409 
Q 2525 409 2770 889 
Q 3016 1369 3016 2328 
Q 3016 3291 2770 3770 
Q 2525 4250 2034 4250 
z
M 2034 4750 
Q 2819 4750 3233 4129 
Q 3647 3509 3647 2328 
Q 3647 1150 3233 529 
Q 2819 -91 2034 -91 
Q 1250 -91 836 529 
Q 422 1150 422 2328 
Q 422 3509 836 4129 
Q 1250 4750 2034 4750 
z
" transform="scale(0.015625)"/>
       </defs>
       <use xlink:href="#DejaVuSans-31" transform="translate(0 0.765625)"/>
       <use xlink:href="#DejaVuSans-30" transform="translate(63.623047 0.765625)"/>
       <use xlink:href="#DejaVuSans-30" transform="translate(128.203125 39.046875) scale(0.7)"/>
      </g>
     </g>
    </g>
    <g id="xtick_2">
     <g id="line2d_2">
      <g>
       <use xlink:href="#m82f5371f08" x="168.299347" y="296.430125" style="stroke: #000000; stroke-width: 0.8"/>
      </g>
     </g>
     <g id="text_2">
      <!-- $\mathdefault{10^{1}}$ -->
      <g transform="translate(159.499347 311.028562) scale(0.1 -0.1)">
       <use xlink:href="#DejaVuSans-31" transform="translate(0 0.684375)"/>
       <use xlink:href="#DejaVuSans-30" transform="translate(63.623047 0.684375)"/>
       <use xlink:href="#DejaVuSans-31" transform="translate(128.203125 38.965625) scale(0.7)"/>
      </g>
     </g>
    </g>
    <g id="xtick_3">
     <g id="line2d_3">
      <g>
       <use xlink:href="#m82f5371f08" x="276.517528" y="296.430125" style="stroke: #000000; stroke-width: 0.8"/>
      </g>
     </g>
     <g id="text_3">
      <!-- $\mathdefault{10^{2}}$ -->
      <g transform="translate(267.717528 311.028562) scale(0.1 -0.1)">
       <defs>
        <path id="DejaVuSans-32" d="M 1228 531 
L 3431 531 
L 3431 0 
L 469 0 
L 469 531 
Q 828 903 1448 1529 
Q 2069 2156 2228 2338 
Q 2531 2678 2651 2914 
Q 2772 3150 2772 3378 
Q 2772 3750 2511 3984 
Q 2250 4219 1831 4219 
Q 1534 4219 1204 4116 
Q 875 4013 500 3803 
L 500 4441 
Q 881 4594 1212 4672 
Q 1544 4750 1819 4750 
Q 2544 4750 2975 4387 
Q 3406 4025 3406 3419 
Q 3406 3131 3298 2873 
Q 3191 2616 2906 2266 
Q 2828 2175 2409 1742 
Q 1991 1309 1228 531 
z
" transform="scale(0.015625)"/>
       </defs>
       <use xlink:href="#DejaVuSans-31" transform="translate(0 0.765625)"/>
       <use xlink:href="#DejaVuSans-30" transform="translate(63.623047 0.765625)"/>
       <use xlink:href="#DejaVuSans-32" transform="translate(128.203125 39.046875) scale(0.7)"/>
      </g>
     </g>
    </g>
    <g id="xtick_4">
     <g id="line2d_4">
      <g>
       <use xlink:href="#m82f5371f08" x="384.73571" y="296.430125" style="stroke: #000000; stroke-width: 0.8"/>
      </g>
     </g>
     <g id="text_4">
      <!-- $\mathdefault{10^{3}}$ -->
      <g transform="translate(375.93571 311.028562) scale(0.1 -0.1)">
       <defs>
        <path id="DejaVuSans-33" d="M 2597 2516 
Q 3050 2419 3304 2112 
Q 3559 1806 3559 1356 
Q 3559 666 3084 287 
Q 2609 -91 1734 -91 
Q 1441 -91 1130 -33 
Q 819 25 488 141 
L 488 750 
Q 750 597 1062 519 
Q 1375 441 1716 441 
Q 2309 441 2620 675 
Q 2931 909 2931 1356 
Q 2931 1769 2642 2001 
Q 2353 2234 1838 2234 
L 1294 2234 
L 1294 2753 
L 1863 2753 
Q 2328 2753 2575 2939 
Q 2822 3125 2822 3475 
Q 2822 3834 2567 4026 
Q 2313 4219 1838 4219 
Q 1578 4219 1281 4162 
Q 984 4106 628 3988 
L 628 4550 
Q 988 4650 1302 4700 
Q 1616 4750 1894 4750 
Q 2613 4750 3031 4423 
Q 3450 4097 3450 3541 
Q 3450 3153 3228 2886 
Q 3006 2619 2597 2516 
z
" transform="scale(0.015625)"/>
       </defs>
       <use xlink:href="#DejaVuSans-31" transform="translate(0 0.765625)"/>
       <use xlink:href="#DejaVuSans-30" transform="translate(63.623047 0.765625)"/>
       <use xlink:href="#DejaVuSans-33" transform="translate(128.203125 39.046875) scale(0.7)"/>
      </g>
     </g>
    </g>
    <g id="xtick_5">
     <g id="line2d_5">
      <defs>
       <path id="m4805b2cd96" d="M 0 0 
L 0 2 
" style="stroke: #000000; stroke-width: 0.6"/>
      </defs>
      <g>
       <use xlink:href="#m4805b2cd96" x="49.593739" y="296.430125" style="stroke: #000000; stroke-width: 0.6"/>
      </g>
     </g>
    </g>
    <g id="xtick_6">
     <g id="line2d_6">
      <g>
       <use xlink:href="#m4805b2cd96" x="55.129372" y="296.430125" style="stroke: #000000; stroke-width: 0.6"/>
      </g>
     </g>
    </g>
    <g id="xtick_7">
     <g id="line2d_7">
      <g>
       <use xlink:href="#m4805b2cd96" x="92.658084" y="296.430125" style="stroke: #000000; stroke-width: 0.6"/>
      </g>
     </g>
    </g>
    <g id="xtick_8">
     <g id="line2d_8">
      <g>
       <use xlink:href="#m4805b2cd96" x="111.714359" y="296.430125" style="stroke: #000000; stroke-width: 0.6"/>
      </g>
     </g>
    </g>
    <g id="xtick_9">
     <g id="line2d_9">
      <g>
       <use xlink:href="#m4805b2cd96" x="125.235002" y="296.430125" style="stroke: #000000; stroke-width: 0.6"/>
      </g>
     </g>
    </g>
    <g id="xtick_10">
     <g id="line2d_10">
      <g>
       <use xlink:href="#m4805b2cd96" x="135.722428" y="296.430125" style="stroke: #000000; stroke-width: 0.6"/>
      </g>
     </g>
    </g>
    <g id="xtick_11">
     <g id="line2d_11">
      <g>
       <use xlink:href="#m4805b2cd96" x="144.291278" y="296.430125" style="stroke: #000000; stroke-width: 0.6"/>
      </g>
     </g>
    </g>
    <g id="xtick_12">
     <g id="line2d_12">
      <g>
       <use xlink:href="#m4805b2cd96" x="151.536138" y="296.430125" style="stroke: #000000; stroke-width: 0.6"/>
      </g>
     </g>
    </g>
    <g id="xtick_13">
     <g id="line2d_13">
      <g>
       <use xlink:href="#m4805b2cd96" x="157.811921" y="296.430125" style="stroke: #000000; stroke-width: 0.6"/>
      </g>
     </g>
    </g>
    <g id="xtick_14">
     <g id="line2d_14">
      <g>
       <use xlink:href="#m4805b2cd96" x="163.347554" y="296.430125" style="stroke: #000000; stroke-width: 0.6"/>
      </g>
     </g>
    </g>
    <g id="xtick_15">
     <g id="line2d_15">
      <g>
       <use xlink:href="#m4805b2cd96" x="200.876265" y="296.430125" style="stroke: #000000; stroke-width: 0.6"/>
      </g>
     </g>
    </g>
    <g id="xtick_16">
     <g id="line2d_16">
      <g>
       <use xlink:href="#m4805b2cd96" x="219.932541" y="296.430125" style="stroke: #000000; stroke-width: 0.6"/>
      </g>
     </g>
    </g>
    <g id="xtick_17">
     <g id="line2d_17">
      <g>
       <use xlink:href="#m4805b2cd96" x="233.453184" y="296.430125" style="stroke: #000000; stroke-width: 0.6"/>
      </g>
     </g>
    </g>
    <g id="xtick_18">
     <g id="line2d_18">
      <g>
       <use xlink:href="#m4805b2cd96" x="243.94061" y="296.430125" style="stroke: #000000; stroke-width: 0.6"/>
      </g>
     </g>
    </g>
    <g id="xtick_19">
     <g id="line2d_19">
      <g>
       <use xlink:href="#m4805b2cd96" x="252.50946" y="296.430125" style="stroke: #000000; stroke-width: 0.6"/>
      </g>
     </g>
    </g>
    <g id="xtick_20">
     <g id="line2d_20">
      <g>
       <use xlink:href="#m4805b2cd96" x="259.75432" y="296.430125" style="stroke: #000000; stroke-width: 0.6"/>
      </g>
     </g>
    </g>
    <g id="xtick_21">
     <g id="line2d_21">
      <g>
       <use xlink:href="#m4805b2cd96" x="266.030103" y="296.430125" style="stroke: #000000; stroke-width: 0.6"/>
      </g>
     </g>
    </g>
    <g id="xtick_22">
     <g id="line2d_22">
      <g>
       <use xlink:href="#m4805b2cd96" x="271.565736" y="296.430125" style="stroke: #000000; stroke-width: 0.6"/>
      </g>
     </g>
    </g>
    <g id="xtick_23">
     <g id="line2d_23">
      <g>
       <use xlink:href="#m4805b2cd96" x="309.094447" y="296.430125" style="stroke: #000000; stroke-width: 0.6"/>
      </g>
     </g>
    </g>
    <g id="xtick_24">
     <g id="line2d_24">
      <g>
       <use xlink:href="#m4805b2cd96" x="328.150723" y="296.430125" style="stroke: #000000; stroke-width: 0.6"/>
      </g>
     </g>
    </g>
    <g id="xtick_25">
     <g id="line2d_25">
      <g>
       <use xlink:href="#m4805b2cd96" x="341.671366" y="296.430125" style="stroke: #000000; stroke-width: 0.6"/>
      </g>
     </g>
    </g>
    <g id="xtick_26">
     <g id="line2d_26">
      <g>
       <use xlink:href="#m4805b2cd96" x="352.158791" y="296.430125" style="stroke: #000000; stroke-width: 0.6"/>
      </g>
     </g>
    </g>
    <g id="xtick_27">
     <g id="line2d_27">
      <g>
       <use xlink:href="#m4805b2cd96" x="360.727642" y="296.430125" style="stroke: #000000; stroke-width: 0.6"/>
      </g>
     </g>
    </g>
    <g id="xtick_28">
     <g id="line2d_28">
      <g>
       <use xlink:href="#m4805b2cd96" x="367.972502" y="296.430125" style="stroke: #000000; stroke-width: 0.6"/>
      </g>
     </g>
    </g>
    <g id="xtick_29">
     <g id="line2d_29">
      <g>
       <use xlink:href="#m4805b2cd96" x="374.248285" y="296.430125" style="stroke: #000000; stroke-width: 0.6"/>
      </g>
     </g>
    </g>
    <g id="xtick_30">
     <g id="line2d_30">
      <g>
       <use xlink:href="#m4805b2cd96" x="379.783918" y="296.430125" style="stroke: #000000; stroke-width: 0.6"/>
      </g>
     </g>
    </g>
    <g id="text_5">
     <!-- Epoch -->
     <g transform="translate(205.455313 324.706687) scale(0.1 -0.1)">
      <defs>
       <path id="DejaVuSans-Bold-45" d="M 588 4666 
L 3834 4666 
L 3834 3756 
L 1791 3756 
L 1791 2888 
L 3713 2888 
L 3713 1978 
L 1791 1978 
L 1791 909 
L 3903 909 
L 3903 0 
L 588 0 
L 588 4666 
z
" transform="scale(0.015625)"/>
       <path id="DejaVuSans-Bold-70" d="M 1656 506 
L 1656 -1331 
L 538 -1331 
L 538 3500 
L 1656 3500 
L 1656 2988 
Q 1888 3294 2169 3439 
Q 2450 3584 2816 3584 
Q 3463 3584 3878 3070 
Q 4294 2556 4294 1747 
Q 4294 938 3878 423 
Q 3463 -91 2816 -91 
Q 2450 -91 2169 54 
Q 1888 200 1656 506 
z
M 2400 2772 
Q 2041 2772 1848 2508 
Q 1656 2244 1656 1747 
Q 1656 1250 1848 986 
Q 2041 722 2400 722 
Q 2759 722 2948 984 
Q 3138 1247 3138 1747 
Q 3138 2247 2948 2509 
Q 2759 2772 2400 2772 
z
" transform="scale(0.015625)"/>
       <path id="DejaVuSans-Bold-6f" d="M 2203 2784 
Q 1831 2784 1636 2517 
Q 1441 2250 1441 1747 
Q 1441 1244 1636 976 
Q 1831 709 2203 709 
Q 2569 709 2762 976 
Q 2956 1244 2956 1747 
Q 2956 2250 2762 2517 
Q 2569 2784 2203 2784 
z
M 2203 3584 
Q 3106 3584 3614 3096 
Q 4122 2609 4122 1747 
Q 4122 884 3614 396 
Q 3106 -91 2203 -91 
Q 1297 -91 786 396 
Q 275 884 275 1747 
Q 275 2609 786 3096 
Q 1297 3584 2203 3584 
z
" transform="scale(0.015625)"/>
       <path id="DejaVuSans-Bold-63" d="M 3366 3391 
L 3366 2478 
Q 3138 2634 2908 2709 
Q 2678 2784 2431 2784 
Q 1963 2784 1702 2511 
Q 1441 2238 1441 1747 
Q 1441 1256 1702 982 
Q 1963 709 2431 709 
Q 2694 709 2930 787 
Q 3166 866 3366 1019 
L 3366 103 
Q 3103 6 2833 -42 
Q 2563 -91 2291 -91 
Q 1344 -91 809 395 
Q 275 881 275 1747 
Q 275 2613 809 3098 
Q 1344 3584 2291 3584 
Q 2566 3584 2833 3536 
Q 3100 3488 3366 3391 
z
" transform="scale(0.015625)"/>
       <path id="DejaVuSans-Bold-68" d="M 4056 2131 
L 4056 0 
L 2931 0 
L 2931 347 
L 2931 1625 
Q 2931 2084 2911 2256 
Q 2891 2428 2841 2509 
Q 2775 2619 2662 2680 
Q 2550 2741 2406 2741 
Q 2056 2741 1856 2470 
Q 1656 2200 1656 1722 
L 1656 0 
L 538 0 
L 538 4863 
L 1656 4863 
L 1656 2988 
Q 1909 3294 2193 3439 
Q 2478 3584 2822 3584 
Q 3428 3584 3742 3212 
Q 4056 2841 4056 2131 
z
" transform="scale(0.015625)"/>
      </defs>
      <use xlink:href="#DejaVuSans-Bold-45"/>
      <use xlink:href="#DejaVuSans-Bold-70" transform="translate(68.310547 0)"/>
      <use xlink:href="#DejaVuSans-Bold-6f" transform="translate(139.892578 0)"/>
      <use xlink:href="#DejaVuSans-Bold-63" transform="translate(208.59375 0)"/>
      <use xlink:href="#DejaVuSans-Bold-68" transform="translate(267.871094 0)"/>
     </g>
    </g>
   </g>
   <g id="matplotlib.axis_2">
    <g id="ytick_1">
     <g id="line2d_31">
      <defs>
       <path id="m2c29926ba1" d="M 0 0 
L -3.5 0 
" style="stroke: #000000; stroke-width: 0.8"/>
      </defs>
      <g>
       <use xlink:href="#m2c29926ba1" x="43.848438" y="264.240184" style="stroke: #000000; stroke-width: 0.8"/>
      </g>
     </g>
     <g id="text_6">
      <!-- 1.0 -->
      <g transform="translate(20.945312 268.039403) scale(0.1 -0.1)">
       <defs>
        <path id="DejaVuSans-2e" d="M 684 794 
L 1344 794 
L 1344 0 
L 684 0 
L 684 794 
z
" transform="scale(0.015625)"/>
       </defs>
       <use xlink:href="#DejaVuSans-31"/>
       <use xlink:href="#DejaVuSans-2e" transform="translate(63.623047 0)"/>
       <use xlink:href="#DejaVuSans-30" transform="translate(95.410156 0)"/>
      </g>
     </g>
    </g>
    <g id="ytick_2">
     <g id="line2d_32">
      <g>
       <use xlink:href="#m2c29926ba1" x="43.848438" y="221.461003" style="stroke: #000000; stroke-width: 0.8"/>
      </g>
     </g>
     <g id="text_7">
      <!-- 1.5 -->
      <g transform="translate(20.945312 225.260222) scale(0.1 -0.1)">
       <defs>
        <path id="DejaVuSans-35" d="M 691 4666 
L 3169 4666 
L 3169 4134 
L 1269 4134 
L 1269 2991 
Q 1406 3038 1543 3061 
Q 1681 3084 1819 3084 
Q 2600 3084 3056 2656 
Q 3513 2228 3513 1497 
Q 3513 744 3044 326 
Q 2575 -91 1722 -91 
Q 1428 -91 1123 -41 
Q 819 9 494 109 
L 494 744 
Q 775 591 1075 516 
Q 1375 441 1709 441 
Q 2250 441 2565 725 
Q 2881 1009 2881 1497 
Q 2881 1984 2565 2268 
Q 2250 2553 1709 2553 
Q 1456 2553 1204 2497 
Q 953 2441 691 2322 
L 691 4666 
z
" transform="scale(0.015625)"/>
       </defs>
       <use xlink:href="#DejaVuSans-31"/>
       <use xlink:href="#DejaVuSans-2e" transform="translate(63.623047 0)"/>
       <use xlink:href="#DejaVuSans-35" transform="translate(95.410156 0)"/>
      </g>
     </g>
    </g>
    <g id="ytick_3">
     <g id="line2d_33">
      <g>
       <use xlink:href="#m2c29926ba1" x="43.848438" y="178.681822" style="stroke: #000000; stroke-width: 0.8"/>
      </g>
     </g>
     <g id="text_8">
      <!-- 2.0 -->
      <g transform="translate(20.945312 182.481041) scale(0.1 -0.1)">
       <use xlink:href="#DejaVuSans-32"/>
       <use xlink:href="#DejaVuSans-2e" transform="translate(63.623047 0)"/>
       <use xlink:href="#DejaVuSans-30" transform="translate(95.410156 0)"/>
      </g>
     </g>
    </g>
    <g id="ytick_4">
     <g id="line2d_34">
      <g>
       <use xlink:href="#m2c29926ba1" x="43.848438" y="135.902641" style="stroke: #000000; stroke-width: 0.8"/>
      </g>
     </g>
     <g id="text_9">
      <!-- 2.5 -->
      <g transform="translate(20.945312 139.70186) scale(0.1 -0.1)">
       <use xlink:href="#DejaVuSans-32"/>
       <use xlink:href="#DejaVuSans-2e" transform="translate(63.623047 0)"/>
       <use xlink:href="#DejaVuSans-35" transform="translate(95.410156 0)"/>
      </g>
     </g>
    </g>
    <g id="ytick_5">
     <g id="line2d_35">
      <g>
       <use xlink:href="#m2c29926ba1" x="43.848438" y="93.12346" style="stroke: #000000; stroke-width: 0.8"/>
      </g>
     </g>
     <g id="text_10">
      <!-- 3.0 -->
      <g transform="translate(20.945312 96.922679) scale(0.1 -0.1)">
       <use xlink:href="#DejaVuSans-33"/>
       <use xlink:href="#DejaVuSans-2e" transform="translate(63.623047 0)"/>
       <use xlink:href="#DejaVuSans-30" transform="translate(95.410156 0)"/>
      </g>
     </g>
    </g>
    <g id="ytick_6">
     <g id="line2d_36">
      <g>
       <use xlink:href="#m2c29926ba1" x="43.848438" y="50.344279" style="stroke: #000000; stroke-width: 0.8"/>
      </g>
     </g>
     <g id="text_11">
      <!-- 3.5 -->
      <g transform="translate(20.945312 54.143498) scale(0.1 -0.1)">
       <use xlink:href="#DejaVuSans-33"/>
       <use xlink:href="#DejaVuSans-2e" transform="translate(63.623047 0)"/>
       <use xlink:href="#DejaVuSans-35" transform="translate(95.410156 0)"/>
      </g>
     </g>
    </g>
    <g id="text_12">
     <!-- Accuracy (%) -->
     <g transform="translate(14.7875 200.115531) rotate(-90) scale(0.1 -0.1)">
      <defs>
       <path id="DejaVuSans-Bold-41" d="M 3419 850 
L 1538 850 
L 1241 0 
L 31 0 
L 1759 4666 
L 3194 4666 
L 4922 0 
L 3713 0 
L 3419 850 
z
M 1838 1716 
L 3116 1716 
L 2478 3572 
L 1838 1716 
z
" transform="scale(0.015625)"/>
       <path id="DejaVuSans-Bold-75" d="M 500 1363 
L 500 3500 
L 1625 3500 
L 1625 3150 
Q 1625 2866 1622 2436 
Q 1619 2006 1619 1863 
Q 1619 1441 1641 1255 
Q 1663 1069 1716 984 
Q 1784 875 1895 815 
Q 2006 756 2150 756 
Q 2500 756 2700 1025 
Q 2900 1294 2900 1772 
L 2900 3500 
L 4019 3500 
L 4019 0 
L 2900 0 
L 2900 506 
Q 2647 200 2364 54 
Q 2081 -91 1741 -91 
Q 1134 -91 817 281 
Q 500 653 500 1363 
z
" transform="scale(0.015625)"/>
       <path id="DejaVuSans-Bold-72" d="M 3138 2547 
Q 2991 2616 2845 2648 
Q 2700 2681 2553 2681 
Q 2122 2681 1889 2404 
Q 1656 2128 1656 1613 
L 1656 0 
L 538 0 
L 538 3500 
L 1656 3500 
L 1656 2925 
Q 1872 3269 2151 3426 
Q 2431 3584 2822 3584 
Q 2878 3584 2943 3579 
Q 3009 3575 3134 3559 
L 3138 2547 
z
" transform="scale(0.015625)"/>
       <path id="DejaVuSans-Bold-61" d="M 2106 1575 
Q 1756 1575 1579 1456 
Q 1403 1338 1403 1106 
Q 1403 894 1545 773 
Q 1688 653 1941 653 
Q 2256 653 2472 879 
Q 2688 1106 2688 1447 
L 2688 1575 
L 2106 1575 
z
M 3816 1997 
L 3816 0 
L 2688 0 
L 2688 519 
Q 2463 200 2181 54 
Q 1900 -91 1497 -91 
Q 953 -91 614 226 
Q 275 544 275 1050 
Q 275 1666 698 1953 
Q 1122 2241 2028 2241 
L 2688 2241 
L 2688 2328 
Q 2688 2594 2478 2717 
Q 2269 2841 1825 2841 
Q 1466 2841 1156 2769 
Q 847 2697 581 2553 
L 581 3406 
Q 941 3494 1303 3539 
Q 1666 3584 2028 3584 
Q 2975 3584 3395 3211 
Q 3816 2838 3816 1997 
z
" transform="scale(0.015625)"/>
       <path id="DejaVuSans-Bold-79" d="M 78 3500 
L 1197 3500 
L 2138 1125 
L 2938 3500 
L 4056 3500 
L 2584 -331 
Q 2363 -916 2067 -1148 
Q 1772 -1381 1288 -1381 
L 641 -1381 
L 641 -647 
L 991 -647 
Q 1275 -647 1404 -556 
Q 1534 -466 1606 -231 
L 1638 -134 
L 78 3500 
z
" transform="scale(0.015625)"/>
       <path id="DejaVuSans-Bold-20" transform="scale(0.015625)"/>
       <path id="DejaVuSans-Bold-28" d="M 2413 -844 
L 1484 -844 
Q 1006 -72 778 623 
Q 550 1319 550 2003 
Q 550 2688 779 3389 
Q 1009 4091 1484 4856 
L 2413 4856 
Q 2013 4116 1813 3408 
Q 1613 2700 1613 2009 
Q 1613 1319 1811 609 
Q 2009 -100 2413 -844 
z
" transform="scale(0.015625)"/>
       <path id="DejaVuSans-Bold-25" d="M 4959 1925 
Q 4738 1925 4616 1733 
Q 4494 1541 4494 1184 
Q 4494 825 4614 633 
Q 4734 441 4959 441 
Q 5184 441 5303 633 
Q 5422 825 5422 1184 
Q 5422 1541 5301 1733 
Q 5181 1925 4959 1925 
z
M 4959 2450 
Q 5541 2450 5875 2112 
Q 6209 1775 6209 1184 
Q 6209 594 5875 251 
Q 5541 -91 4959 -91 
Q 4378 -91 4042 251 
Q 3706 594 3706 1184 
Q 3706 1772 4042 2111 
Q 4378 2450 4959 2450 
z
M 2094 -91 
L 1403 -91 
L 4319 4750 
L 5013 4750 
L 2094 -91 
z
M 1453 4750 
Q 2034 4750 2367 4411 
Q 2700 4072 2700 3481 
Q 2700 2891 2367 2550 
Q 2034 2209 1453 2209 
Q 872 2209 539 2550 
Q 206 2891 206 3481 
Q 206 4072 539 4411 
Q 872 4750 1453 4750 
z
M 1453 4225 
Q 1228 4225 1106 4031 
Q 984 3838 984 3481 
Q 984 3122 1106 2926 
Q 1228 2731 1453 2731 
Q 1678 2731 1798 2926 
Q 1919 3122 1919 3481 
Q 1919 3838 1797 4031 
Q 1675 4225 1453 4225 
z
" transform="scale(0.015625)"/>
       <path id="DejaVuSans-Bold-29" d="M 513 -844 
Q 913 -100 1113 609 
Q 1313 1319 1313 2009 
Q 1313 2700 1113 3408 
Q 913 4116 513 4856 
L 1441 4856 
Q 1916 4091 2145 3389 
Q 2375 2688 2375 2003 
Q 2375 1319 2147 623 
Q 1919 -72 1441 -844 
L 513 -844 
z
" transform="scale(0.015625)"/>
      </defs>
      <use xlink:href="#DejaVuSans-Bold-41"/>
      <use xlink:href="#DejaVuSans-Bold-63" transform="translate(77.392578 0)"/>
      <use xlink:href="#DejaVuSans-Bold-63" transform="translate(136.669922 0)"/>
      <use xlink:href="#DejaVuSans-Bold-75" transform="translate(195.947266 0)"/>
      <use xlink:href="#DejaVuSans-Bold-72" transform="translate(267.138672 0)"/>
      <use xlink:href="#DejaVuSans-Bold-61" transform="translate(316.455078 0)"/>
      <use xlink:href="#DejaVuSans-Bold-63" transform="translate(383.935547 0)"/>
      <use xlink:href="#DejaVuSans-Bold-79" transform="translate(443.212891 0)"/>
      <use xlink:href="#DejaVuSans-Bold-20" transform="translate(508.398438 0)"/>
      <use xlink:href="#DejaVuSans-Bold-28" transform="translate(543.212891 0)"/>
      <use xlink:href="#DejaVuSans-Bold-25" transform="translate(588.916016 0)"/>
      <use xlink:href="#DejaVuSans-Bold-29" transform="translate(689.111328 0)"/>
     </g>
    </g>
   </g>
   <g id="line2d_37">
    <path d="M 60.081165 284.334125 
L 92.658084 267.96802 
L 111.714359 253.42037 
L 125.235002 251.601914 
L 135.722428 257.057283 
L 144.291278 240.691177 
L 151.536138 249.783458 
L 157.811921 260.694195 
L 163.347554 249.783458 
L 168.299347 247.965002 
L 172.778788 266.149564 
L 176.868197 257.057283 
L 180.630089 255.238827 
L 184.113057 255.238827 
L 187.355622 271.604932 
L 190.38884 240.691178 
L 193.23811 275.241844 
L 195.924473 235.235809 
L 198.465554 271.604932 
L 200.876265 260.694195 
L 203.169333 264.331108 
L 205.355707 242.509634 
L 207.444875 260.694195 
L 209.445116 260.694195 
L 211.363691 240.691177 
L 213.207008 273.423388 
L 214.980749 251.601915 
L 216.689976 249.783458 
L 218.339217 253.420371 
L 219.932541 269.786476 
L 221.473616 264.331107 
L 222.965759 266.149564 
L 224.411982 247.965002 
L 225.815029 242.509634 
L 227.177401 247.965002 
L 228.501392 247.965002 
L 229.789104 235.235809 
L 231.042473 247.965002 
L 232.263284 249.783458 
L 233.453184 257.057283 
L 234.613701 246.146546 
L 235.746252 242.509634 
L 236.852151 247.965002 
L 237.932625 237.054265 
L 238.988817 238.872721 
L 240.021794 237.054265 
L 241.032555 246.146546 
L 242.991111 231.598897 
L 243.94061 233.417353 
L 244.871305 229.78044 
L 245.783927 229.78044 
L 246.679164 231.598897 
L 247.557668 235.235809 
L 249.266895 231.598897 
L 250.098749 235.235809 
L 250.916136 237.054265 
L 251.71955 237.054265 
L 252.50946 233.417353 
L 253.286313 240.691177 
L 254.050535 226.143528 
L 254.802528 238.872721 
L 255.542678 244.32809 
L 256.271352 224.325072 
L 256.988901 229.78044 
L 257.69566 227.961984 
L 258.391947 227.961984 
L 259.07807 240.691177 
L 260.420977 229.78044 
L 261.078311 240.691177 
L 261.726577 244.32809 
L 262.366023 229.78044 
L 262.996885 231.598897 
L 263.619392 244.32809 
L 264.233761 217.051247 
L 264.840203 218.869703 
L 265.438918 233.417353 
L 266.030103 229.78044 
L 266.613944 242.509634 
L 267.19062 238.872721 
L 267.760307 244.32809 
L 268.32317 238.872721 
L 268.879373 231.598897 
L 269.42907 240.691177 
L 270.509544 229.78044 
L 271.040607 233.417353 
L 271.565736 220.68816 
L 272.085062 222.506616 
L 272.598713 229.78044 
L 273.10681 226.143528 
L 273.609474 226.143528 
L 274.106817 206.14051 
L 274.598953 198.866686 
L 275.08599 169.771387 
L 275.56803 167.952931 
L 276.517528 175.226756 
L 276.98518 162.497563 
L 277.448223 180.682124 
L 277.90675 169.771387 
L 278.360845 162.497563 
L 278.810596 169.771387 
L 279.697387 173.4083 
L 280.134586 204.322054 
L 280.567756 204.322055 
L 280.99697 169.771387 
L 281.422299 204.322054 
L 281.843813 167.952931 
L 282.261581 173.4083 
L 282.675668 177.045212 
L 283.086138 164.316019 
L 283.493055 166.134475 
L 283.896478 178.863668 
L 284.296469 171.589844 
L 284.693083 169.771387 
L 285.086379 166.134475 
L 285.476411 158.860651 
L 285.863232 160.679107 
L 286.246896 158.860651 
L 286.627453 151.586826 
L 287.004954 171.589844 
L 287.379446 162.497563 
L 287.750978 167.952931 
L 288.119596 178.863669 
L 288.848271 160.679107 
L 289.208415 157.042195 
L 289.56582 155.223739 
L 290.272579 147.949914 
L 290.968866 167.952931 
L 291.654989 151.586826 
L 291.99433 138.857633 
L 292.665749 158.86065 
L 292.997896 142.494546 
L 293.327712 151.586826 
L 293.655229 137.039177 
L 293.98048 146.131458 
L 294.303496 142.494546 
L 294.942942 133.402265 
L 295.259431 146.131457 
L 295.573804 124.309984 
L 295.886088 142.494546 
L 296.196311 146.131457 
L 296.504499 138.857633 
L 296.81068 155.223738 
L 297.114879 129.765352 
L 297.417121 140.676089 
L 297.717433 135.220721 
L 298.015837 137.039177 
L 298.312359 144.313002 
L 298.607022 124.309984 
L 298.899849 117.036159 
L 299.190862 131.583809 
L 299.480085 135.220721 
L 300.053245 135.220721 
L 300.337226 129.765353 
L 300.6195 113.399247 
L 300.900089 118.854616 
L 301.179013 117.036159 
L 301.456292 140.676089 
L 301.731944 124.309984 
L 302.005989 138.857633 
L 302.278445 171.589844 
L 302.549331 131.583809 
L 302.818664 127.946896 
L 303.086463 117.036159 
L 303.352744 131.583808 
L 303.617526 106.125423 
L 304.142655 106.125422 
L 304.661981 95.214685 
L 304.919508 93.396229 
L 305.430367 97.033141 
L 305.683729 111.58079 
L 305.935733 106.125422 
L 306.186392 97.033141 
L 306.435722 100.670054 
L 306.683736 109.762335 
L 306.930448 106.125422 
L 307.175872 106.125422 
L 307.420021 117.036159 
L 307.662908 89.759317 
L 307.904547 111.58079 
L 308.144949 104.306966 
L 308.384128 113.399247 
L 308.622096 107.943878 
L 308.858865 111.580791 
L 309.094447 107.943878 
L 309.328854 106.125422 
L 309.562098 117.036159 
L 310.483668 97.033141 
L 310.711265 111.580791 
L 310.937764 106.125422 
L 311.163177 97.033141 
L 311.387515 111.580791 
L 311.610786 98.851597 
L 311.833002 120.673071 
L 312.054172 153.405282 
L 312.274306 100.670054 
L 312.711505 131.583808 
L 312.928589 113.399247 
L 313.144675 107.943878 
L 313.359772 122.491527 
L 313.573888 126.12844 
L 313.787034 126.12844 
L 313.999218 133.402264 
L 314.63008 93.396229 
L 314.8385 102.48851 
L 315.045999 86.122404 
L 315.252587 84.303948 
L 315.45827 91.577773 
L 315.663057 91.577773 
L 315.866956 113.399247 
L 316.069974 111.58079 
L 316.473397 106.125422 
L 316.673818 122.491527 
L 316.873387 122.491527 
L 317.072113 118.854615 
L 317.270002 111.580791 
L 317.467061 120.673071 
L 317.663298 124.309984 
L 317.858718 133.402264 
L 318.247138 115.217703 
L 318.440151 117.036159 
L 318.632374 107.943878 
L 318.823815 104.306966 
L 319.204372 127.946896 
L 319.393501 124.309984 
L 319.581873 129.765352 
L 319.769492 113.399247 
L 320.142498 142.494545 
L 320.327897 122.491527 
L 320.696515 131.583808 
L 320.879746 107.943878 
L 321.062265 100.670054 
L 321.244077 102.48851 
L 321.605607 115.217703 
L 321.964376 135.220721 
L 322.497447 117.036159 
L 322.673802 120.673071 
L 322.849497 104.306966 
L 323.024539 144.313001 
L 323.198931 133.402264 
L 323.372678 146.131457 
L 323.545785 127.946896 
L 323.718257 149.76837 
L 323.890098 124.309984 
L 324.061314 126.12844 
L 324.231908 97.033141 
L 324.571249 122.491528 
L 324.740005 104.306966 
L 324.908158 118.854615 
L 325.075711 115.217703 
L 325.409035 131.583809 
L 325.574815 86.122404 
L 325.740012 122.491527 
L 325.904631 133.402264 
L 326.068675 113.399247 
L 326.232148 113.399247 
L 326.395055 118.854615 
L 326.557399 117.036159 
L 326.719184 113.399247 
L 326.880414 113.399247 
L 327.041093 100.670054 
L 327.201225 106.125422 
L 327.360813 102.48851 
L 327.51986 78.84858 
L 327.83635 102.48851 
L 327.9938 97.033141 
L 328.150723 109.762334 
L 328.463007 118.854615 
L 328.618374 117.036159 
L 328.77323 106.125422 
L 328.927576 107.943878 
L 329.081418 102.48851 
L 329.234758 109.762334 
L 329.387599 107.943878 
L 329.691798 111.580791 
L 329.843162 115.217703 
L 329.99404 93.396229 
L 330.144436 107.943878 
L 330.443791 115.217703 
L 330.592756 102.48851 
L 330.889278 107.943878 
L 331.183941 127.946896 
L 331.330582 106.125422 
L 331.476767 122.491527 
L 331.6225 124.309984 
L 331.767781 115.217703 
L 331.912615 117.036159 
L 332.057004 95.214685 
L 332.200951 120.673071 
L 332.344458 118.854615 
L 332.630164 98.851597 
L 332.772369 109.762334 
L 332.914144 86.122404 
L 333.196419 115.217703 
L 333.336923 111.580791 
L 333.616677 126.12844 
L 333.755932 118.854615 
L 334.171239 133.402264 
L 334.308863 109.762334 
L 334.446085 124.309984 
L 334.582908 122.491527 
L 334.991002 106.125422 
L 335.126249 120.673071 
L 335.261109 104.306966 
L 335.529673 122.491527 
L 335.663382 131.583808 
L 335.929663 111.580791 
L 336.06224 113.399247 
L 336.194445 122.491527 
L 336.457742 111.580791 
L 336.58884 115.217703 
L 336.849944 98.851597 
L 337.109605 117.036159 
L 337.2389 111.580791 
L 337.36784 126.12844 
L 337.496427 118.854615 
L 337.624663 138.857633 
L 337.752551 127.946896 
L 337.880091 157.042194 
L 338.007286 124.309984 
L 338.134138 135.220721 
L 338.260648 109.762334 
L 338.386819 111.580791 
L 338.512652 95.214685 
L 338.638149 107.943878 
L 338.888141 100.670054 
L 339.136812 97.033141 
L 339.260655 98.851597 
L 339.384173 106.125422 
L 339.507367 122.491527 
L 339.630239 111.580791 
L 339.752791 111.580791 
L 339.875024 113.399247 
L 339.99694 120.673071 
L 340.11854 115.217703 
L 340.239827 122.491527 
L 340.481466 111.580791 
L 340.60182 109.762334 
L 340.721868 104.306966 
L 340.841609 126.12844 
L 340.961047 124.309984 
L 341.199015 102.48851 
L 341.317548 107.943878 
L 341.553723 100.670054 
L 341.671366 97.033141 
L 341.788716 120.673071 
L 341.905773 117.036159 
L 342.02254 102.48851 
L 342.139017 127.946896 
L 342.486727 106.125422 
L 342.602061 137.039177 
L 342.717113 117.036159 
L 342.831883 118.854615 
L 342.946374 131.583808 
L 343.060587 102.48851 
L 343.174523 124.309984 
L 343.288184 122.491527 
L 343.514683 109.762334 
L 343.627525 113.399247 
L 343.740096 120.673071 
L 343.964433 111.580791 
L 344.076202 89.759317 
L 344.187705 113.399247 
L 344.298944 111.580791 
L 344.520636 89.759317 
L 344.631091 98.851597 
L 344.741287 87.940861 
L 345.070333 115.217703 
L 345.179505 113.399247 
L 345.288424 126.12844 
L 345.721594 93.396229 
L 345.829265 102.48851 
L 345.93669 95.214685 
L 346.043871 107.943878 
L 346.257501 89.759317 
L 346.470164 100.670054 
L 346.68187 71.574755 
L 346.787366 109.762334 
L 346.997651 80.667036 
L 347.102442 111.580791 
L 347.206999 95.214685 
L 347.311324 102.48851 
L 347.519283 95.214685 
L 347.622918 117.036159 
L 347.726325 89.759317 
L 347.829506 107.943878 
L 347.93246 106.125422 
L 348.035189 109.762334 
L 348.137694 100.670054 
L 348.239976 120.673071 
L 348.342036 113.399247 
L 348.443875 95.214685 
L 348.545493 117.036159 
L 348.748073 95.214685 
L 348.849037 97.033141 
L 348.949784 107.943878 
L 349.050316 89.759317 
L 349.150633 104.306966 
L 349.250737 98.851597 
L 349.350627 102.48851 
L 349.450306 93.396229 
L 349.74808 146.131458 
L 349.846921 106.125422 
L 349.945554 158.860651 
L 350.240216 82.485492 
L 350.338028 95.214685 
L 350.533043 87.940861 
L 350.630248 106.125422 
L 350.920663 87.940861 
L 351.01707 87.940861 
L 351.209293 104.306966 
L 351.496162 82.485492 
L 351.68644 158.860651 
L 351.875951 102.48851 
L 351.97042 144.313001 
L 352.0647 133.402264 
L 352.158791 138.857633 
L 352.252695 135.220721 
L 352.719417 93.396229 
L 352.812208 67.937843 
L 352.904816 75.211667 
L 352.997242 100.670054 
L 353.089486 84.303948 
L 353.18155 87.940861 
L 353.365139 73.393211 
L 353.639183 106.125422 
L 353.730178 95.214685 
L 353.820996 122.491528 
L 353.91164 120.673071 
L 354.002108 122.491527 
L 354.092403 133.402264 
L 354.182525 131.583808 
L 354.272475 117.036159 
L 354.362252 129.765352 
L 354.451859 106.125422 
L 354.541295 129.765352 
L 354.630561 98.851598 
L 354.808586 120.673071 
L 354.897346 118.854615 
L 354.985939 117.036159 
L 355.074365 124.309984 
L 355.162626 97.033141 
L 355.25072 146.131457 
L 355.426416 113.399247 
L 355.514018 109.762334 
L 355.601458 117.036159 
L 355.775849 89.759317 
L 355.862803 91.577773 
L 356.03623 111.580791 
L 356.122704 124.309984 
L 356.209019 104.306966 
L 356.295176 106.125422 
L 356.381175 147.949914 
L 356.467017 102.48851 
L 356.552703 135.220721 
L 356.723607 107.943878 
L 356.808826 113.399247 
L 356.893892 107.943878 
L 356.978803 109.762334 
L 357.232622 146.131457 
L 357.316924 102.48851 
L 357.401075 133.402264 
L 357.485076 109.762334 
L 357.568928 135.22072 
L 357.652629 117.036159 
L 357.736182 162.497563 
L 357.985954 115.217703 
L 358.151734 106.125422 
L 358.399312 131.583808 
L 358.48155 87.940861 
L 358.563643 124.309984 
L 358.645594 107.943878 
L 358.727401 111.580791 
L 358.809067 106.125422 
L 359.053216 127.946896 
L 359.134318 126.12844 
L 359.21528 106.125422 
L 359.296103 124.309984 
L 359.376787 109.762334 
L 359.457333 117.036159 
L 359.537741 91.577773 
L 359.618012 122.491527 
L 359.778144 84.303948 
L 360.017323 122.491527 
L 360.255291 93.396229 
L 360.334346 106.125422 
L 360.413269 98.851597 
L 360.49206 80.667036 
L 360.805908 137.039177 
L 360.884043 106.125422 
L 360.962049 115.217703 
L 361.039926 107.943878 
L 361.117674 87.940861 
L 361.272785 126.12844 
L 361.427385 122.491528 
L 361.504495 102.48851 
L 361.581479 106.125422 
L 361.735069 95.214685 
L 361.888159 140.676089 
L 362.040752 115.217703 
L 362.116863 120.673071 
L 362.192851 124.309984 
L 362.344459 115.217703 
L 362.420081 98.851597 
L 362.49558 115.217703 
L 362.570959 97.033141 
L 362.646217 129.765352 
L 362.721354 111.580791 
L 362.946049 131.583808 
L 363.095251 111.580791 
L 363.243981 120.673071 
L 363.31817 93.396229 
L 363.392241 120.673071 
L 363.466197 95.214685 
L 363.540036 97.033141 
L 363.613759 106.125422 
L 363.687367 98.851597 
L 363.760859 117.036159 
L 363.834237 109.762334 
L 363.907501 111.580791 
L 363.98065 109.762334 
L 364.053686 113.399247 
L 364.126609 129.765352 
L 364.199418 115.217703 
L 364.272115 144.313001 
L 364.3447 120.673071 
L 364.417173 124.309984 
L 364.561784 142.494545 
L 364.777869 97.033141 
L 364.921377 104.306966 
L 364.992966 100.670054 
L 365.064447 102.48851 
L 365.135819 127.946896 
L 365.207083 118.854615 
L 365.349288 129.765352 
L 365.420229 113.399247 
L 365.491063 129.765352 
L 365.561791 106.125422 
L 365.632412 140.676089 
L 365.702928 107.943878 
L 365.773338 120.673071 
L 365.983936 98.851597 
L 366.053927 95.214685 
L 366.263275 133.402265 
L 366.332851 100.670054 
L 366.402324 118.854615 
L 366.471695 115.217703 
L 366.540963 131.583808 
L 366.610129 102.48851 
L 366.679194 117.036159 
L 366.81702 140.676089 
L 367.023004 87.940861 
L 367.159826 144.313001 
L 367.228089 135.220721 
L 367.296252 98.851597 
L 367.364316 109.762334 
L 367.432282 113.399247 
L 367.567921 126.12844 
L 367.635593 115.217703 
L 367.770647 149.76837 
L 367.905313 89.759317 
L 367.972502 142.494545 
L 368.039595 124.309984 
L 368.106592 124.309984 
L 368.173494 109.762334 
L 368.240301 127.946896 
L 368.307012 109.762334 
L 368.440153 138.857633 
L 368.639159 107.943878 
L 368.771363 127.946896 
L 368.837326 129.765352 
L 368.903197 106.125422 
L 368.968975 118.854615 
L 369.034661 127.946896 
L 369.100256 104.306966 
L 369.165759 129.765352 
L 369.231171 109.762334 
L 369.361723 157.042194 
L 369.491913 98.851597 
L 369.556873 122.491527 
L 369.751216 91.577773 
L 369.815819 104.306966 
L 369.880333 91.577773 
L 369.944759 113.399247 
L 370.009096 95.214685 
L 370.137508 117.036159 
L 370.201582 93.396229 
L 370.329469 137.039177 
L 370.584205 93.396229 
L 370.711056 107.943878 
L 370.774354 91.577773 
L 370.837567 122.491527 
L 370.900695 106.125422 
L 370.963738 129.765352 
L 371.026696 107.943878 
L 371.08957 117.036159 
L 371.215067 171.589844 
L 371.27769 124.309984 
L 371.34023 166.134475 
L 371.402687 147.949914 
L 371.46506 171.589844 
L 371.651686 86.122404 
L 371.71373 129.765352 
L 371.775693 95.214685 
L 371.837574 87.940861 
L 372.022729 120.673071 
L 372.084286 98.851597 
L 372.268474 146.131457 
L 372.32971 104.306966 
L 372.390866 113.399247 
L 372.451943 113.399247 
L 372.51294 122.491527 
L 372.573859 107.943878 
L 372.756142 142.494545 
L 372.816746 146.131458 
L 372.877272 140.676089 
L 372.93772 160.679107 
L 372.998091 144.313001 
L 373.058384 146.131457 
L 373.1186 106.125422 
L 373.178739 107.943878 
L 373.238801 122.491527 
L 373.298787 100.670054 
L 373.358696 117.036159 
L 373.418528 117.036159 
L 373.478285 144.313001 
L 373.537966 131.583808 
L 373.597571 140.676089 
L 373.6571 111.58079 
L 373.716554 118.854615 
L 373.775934 113.399247 
L 373.835238 135.22072 
L 373.894467 124.309984 
L 373.953622 124.309984 
L 374.012703 107.943878 
L 374.071709 175.226756 
L 374.130641 120.673071 
L 374.1895 151.586826 
L 374.365635 106.125422 
L 374.4242 97.033141 
L 374.482692 142.494545 
L 374.541112 122.491527 
L 374.599459 117.036159 
L 374.657733 100.670054 
L 374.715936 104.306966 
L 374.774067 137.039177 
L 374.832125 131.583808 
L 375.005873 91.577773 
L 375.063646 147.949914 
L 375.121348 115.217703 
L 375.17898 95.214685 
L 375.351452 142.494545 
L 375.466082 146.131457 
L 375.580434 82.485492 
L 375.637506 91.577773 
L 375.694508 113.399247 
L 375.751442 104.306966 
L 375.865102 87.94086 
L 375.978489 104.306966 
L 376.035079 91.577773 
L 376.091602 102.48851 
L 376.148057 104.306966 
L 376.204444 109.762334 
L 376.260763 100.670054 
L 376.3732 124.309984 
L 376.429317 113.399247 
L 376.541352 133.402264 
L 376.59727 106.125422 
L 376.653121 137.039177 
L 376.708905 131.583808 
L 376.764624 126.12844 
L 376.820276 131.583808 
L 376.875863 77.030124 
L 376.931384 135.22072 
L 376.98684 86.122404 
L 377.152815 135.220721 
L 377.20801 117.036159 
L 377.26314 137.039177 
L 377.318206 120.673071 
L 377.373207 124.309984 
L 377.428144 89.759317 
L 377.483017 122.491527 
L 377.59257 80.667036 
L 377.647252 97.033141 
L 377.701869 106.125422 
L 377.756424 102.48851 
L 377.810915 87.940861 
L 377.865343 124.309984 
L 377.919708 106.125422 
L 377.97401 86.122404 
L 378.02825 91.577773 
L 378.136541 157.042194 
L 378.190594 118.854615 
L 378.244584 146.131457 
L 378.298512 142.494545 
L 378.459927 78.84858 
L 378.56723 89.759317 
L 378.674288 135.220721 
L 378.727726 129.765352 
L 378.940872 146.131458 
L 379.205952 77.030123 
L 379.258789 87.940861 
L 379.311566 80.667036 
L 379.364285 78.84858 
L 379.416944 82.485492 
L 379.469545 80.667036 
L 379.522087 122.491527 
L 379.57457 69.756299 
L 379.626994 86.122404 
L 379.67936 80.667036 
L 379.731668 135.220721 
L 379.783918 126.12844 
L 379.888243 117.036159 
L 379.940319 124.309984 
L 380.096202 82.485492 
L 380.303244 117.036159 
L 380.560771 75.211667 
L 380.816895 129.765352 
L 380.918955 84.303948 
L 380.969902 102.48851 
L 381.173139 175.226756 
L 381.223811 144.313001 
L 381.274429 135.220721 
L 381.425956 82.485492 
L 381.476356 102.48851 
L 381.576996 73.393211 
L 381.67742 84.303948 
L 381.727552 69.756299 
L 381.877627 102.48851 
L 381.927546 84.303948 
L 381.977412 98.851597 
L 382.027225 117.036159 
L 382.076985 107.943878 
L 382.126693 111.580791 
L 382.176348 138.857633 
L 382.225951 91.577773 
L 382.324999 95.214685 
L 382.522473 142.494545 
L 382.670035 138.857633 
L 382.768153 166.134475 
L 382.817135 151.586826 
L 382.866067 146.131458 
L 383.012556 84.303948 
L 383.061284 97.033141 
L 383.109962 71.574755 
L 383.15859 73.393211 
L 383.255694 93.396229 
L 383.304171 69.756299 
L 383.400976 75.211667 
L 383.54581 91.577773 
L 383.593989 67.937843 
L 383.642118 137.039177 
L 383.690199 89.759317 
L 383.786212 140.676089 
L 383.88203 133.402265 
L 383.977653 93.396229 
L 384.025391 102.48851 
L 384.120723 140.676089 
L 384.168316 135.220721 
L 384.215862 140.676089 
L 384.263359 133.402264 
L 384.310808 115.217703 
L 384.35821 151.586826 
L 384.405563 106.125422 
L 384.452869 91.577773 
L 384.500128 93.396229 
L 384.641619 127.946896 
L 384.688688 91.577773 
L 384.73571 93.396229 
" clip-path="url(#p7a1cefd20d)" style="fill: none; stroke: #1f77b4; stroke-width: 1.5; stroke-linecap: square"/>
   </g>
   <g id="line2d_38">
    <path d="M 60.081165 267.950624 
L 92.658084 260.675253 
L 111.714359 266.131781 
L 125.235002 269.769466 
L 135.722428 277.044837 
L 144.291278 260.675253 
L 151.536138 275.225994 
L 157.811921 269.769466 
L 163.347554 257.037567 
L 168.299347 264.312938 
L 172.778788 247.943354 
L 176.868197 260.675253 
L 180.630089 269.769466 
L 184.113057 262.494095 
L 187.355622 255.218724 
L 190.38884 249.762196 
L 193.23811 282.501365 
L 195.924473 255.218724 
L 198.465554 278.86368 
L 200.876265 262.494095 
L 203.169333 264.312938 
L 205.355707 271.588309 
L 207.444875 266.131781 
L 209.445116 253.399882 
L 211.363691 260.675253 
L 213.207008 244.305668 
L 214.980749 271.588309 
L 216.689976 184.283858 
L 218.339217 187.921543 
L 219.932541 215.204184 
L 221.473616 260.675253 
L 222.965759 253.399882 
L 224.411982 260.675253 
L 225.815029 262.494095 
L 228.501392 262.494095 
L 229.789104 267.950624 
L 231.042473 251.581039 
L 232.263284 260.675253 
L 234.613701 231.573769 
L 235.746252 229.754926 
L 236.852151 218.84187 
L 240.021794 224.298398 
L 241.032555 222.479555 
L 242.022035 240.667983 
L 242.991111 242.486825 
L 243.94061 242.486825 
L 244.871305 244.305668 
L 245.783927 242.486825 
L 246.679164 242.486825 
L 248.420051 235.211454 
L 249.266895 229.754926 
L 250.098749 235.211454 
L 250.916136 237.030297 
L 251.71955 226.117241 
L 252.50946 224.298398 
L 253.286313 231.573769 
L 254.802528 213.385342 
L 255.542678 206.109971 
L 256.988901 202.472285 
L 257.69566 191.559229 
L 258.391947 197.015757 
L 259.07807 209.747656 
L 259.75432 207.928814 
L 260.420977 218.84187 
L 261.726577 184.283858 
L 262.366023 180.646172 
L 262.996885 182.465015 
L 264.233761 200.653443 
L 264.840203 197.015757 
L 265.438918 213.385342 
L 266.030103 204.291128 
L 266.613944 206.109971 
L 267.760307 213.385342 
L 268.32317 213.385342 
L 268.879373 195.196914 
L 269.42907 211.566499 
L 269.972412 200.653443 
L 270.509544 195.196914 
L 271.040607 206.109971 
L 271.565736 200.653443 
L 272.085062 209.747656 
L 272.598713 204.291128 
L 273.10681 204.291128 
L 273.609474 211.566499 
L 274.106817 206.109971 
L 274.598953 206.109971 
L 275.08599 200.653443 
L 275.56803 202.472285 
L 276.045177 206.109971 
L 276.517528 204.291128 
L 276.98518 195.196914 
L 277.448223 207.928813 
L 277.90675 160.638902 
L 278.360845 169.733116 
L 278.810596 136.993947 
L 279.256083 177.008487 
L 279.697387 142.450475 
L 280.134586 164.276588 
L 280.567756 147.907003 
L 280.99697 155.182374 
L 281.422299 166.095431 
L 281.843813 151.544689 
L 282.261581 169.733116 
L 282.675668 151.544689 
L 283.086138 160.638902 
L 283.493055 144.269318 
L 283.896478 146.088161 
L 284.296469 153.363531 
L 284.693083 140.631632 
L 285.086379 120.624362 
L 285.476411 122.443205 
L 285.863232 127.899733 
L 286.246896 135.175104 
L 286.627453 96.979407 
L 287.004954 138.81279 
L 287.379446 124.262048 
L 287.750978 147.907003 
L 288.119596 147.907003 
L 288.485346 146.088161 
L 288.848271 151.544689 
L 289.208415 142.450475 
L 289.56582 142.450475 
L 289.920528 153.363531 
L 290.272579 131.537419 
L 290.622012 118.80552 
L 290.968866 115.167834 
L 291.31318 126.080891 
L 291.654989 129.718576 
L 291.99433 102.435935 
L 292.331239 115.167834 
L 292.665749 107.892463 
L 292.997896 96.979407 
L 293.327712 78.79098 
L 293.655229 93.341721 
L 293.98048 113.348992 
L 294.624306 80.609822 
L 294.942942 118.80552 
L 295.259431 93.341721 
L 295.573804 87.885193 
L 295.886088 86.066351 
L 296.196311 89.704036 
L 296.504499 111.530149 
L 296.81068 91.522879 
L 297.114879 89.704036 
L 297.417121 104.254778 
L 297.717433 95.160564 
L 298.015837 100.617092 
L 298.312359 89.704036 
L 298.607022 89.704036 
L 298.899849 96.979407 
L 299.190862 86.06635 
L 299.480085 93.341721 
L 299.767539 89.704036 
L 300.053245 84.247508 
L 300.337226 86.06635 
L 300.6195 84.247508 
L 300.900089 78.79098 
L 301.179013 80.609822 
L 301.731944 115.167834 
L 302.005989 115.167834 
L 302.278445 107.892463 
L 302.549331 87.885193 
L 303.086463 98.79825 
L 303.352744 82.428665 
L 303.617526 75.153294 
L 303.880824 76.972137 
L 304.142655 75.153294 
L 304.403035 78.79098 
L 304.661981 75.153294 
L 304.919508 80.609822 
L 305.175632 75.153294 
L 305.430367 75.153294 
L 305.683729 76.972137 
L 305.935733 80.609822 
L 306.186392 80.609822 
L 306.435722 82.428665 
L 306.683736 73.334451 
L 306.930448 71.515609 
L 307.175872 67.877923 
L 307.662908 87.885193 
L 307.904547 84.247508 
L 308.144949 91.522879 
L 308.622096 75.153294 
L 308.858865 86.066351 
L 309.094447 75.153294 
L 309.328854 82.428665 
L 309.562098 60.602552 
L 309.794191 84.247508 
L 310.025142 67.877923 
L 310.254964 87.885193 
L 310.483668 82.428665 
L 310.711265 84.247508 
L 310.937764 76.972137 
L 311.163177 80.609822 
L 311.387515 69.696766 
L 311.610786 73.334451 
L 311.833002 80.609822 
L 312.054172 107.892463 
L 312.274306 58.78371 
L 312.493414 80.609822 
L 312.711505 75.153294 
L 312.928589 100.617092 
L 313.144675 171.551959 
L 313.359772 102.435935 
L 313.573888 73.334451 
L 313.999218 62.421395 
L 314.210447 86.066351 
L 314.420732 76.972137 
L 314.63008 86.066351 
L 314.8385 71.515609 
L 315.045999 84.247508 
L 315.252587 69.696766 
L 315.45827 67.877923 
L 315.663057 73.334451 
L 315.866956 71.515609 
L 316.069974 67.877923 
L 316.272118 60.602552 
L 316.473397 64.240238 
L 316.673818 84.247508 
L 316.873387 76.972137 
L 317.072113 62.421395 
L 317.270002 75.153294 
L 317.467061 78.79098 
L 317.663298 62.421395 
L 317.858718 60.602552 
L 318.053329 76.972137 
L 318.247138 73.334451 
L 318.440151 66.059081 
L 318.632374 75.153294 
L 318.823815 100.617092 
L 319.014479 71.515609 
L 319.204372 78.79098 
L 319.393501 144.269318 
L 319.581873 62.421395 
L 319.769492 78.79098 
L 319.956365 73.334451 
L 320.142498 62.421395 
L 320.327897 62.421395 
L 320.512568 93.341721 
L 320.696515 78.79098 
L 320.879746 104.254778 
L 321.062265 82.428665 
L 321.244077 76.972137 
L 321.42519 78.79098 
L 321.605607 67.877923 
L 321.785334 75.153294 
L 321.964376 71.515609 
L 322.142739 80.609822 
L 322.320427 73.334451 
L 322.497447 82.428665 
L 322.849497 75.153294 
L 323.024539 56.964867 
L 323.198931 56.964867 
L 323.545785 66.059081 
L 323.718257 69.696766 
L 323.890098 80.609822 
L 324.061314 75.153294 
L 324.231908 62.421395 
L 324.571249 80.609822 
L 324.740005 73.334451 
L 324.908158 73.334451 
L 325.075711 86.066351 
L 325.242668 60.602552 
L 325.409035 93.341721 
L 325.574815 51.508339 
L 325.740012 60.602552 
L 325.904631 60.602552 
L 326.068675 62.421395 
L 326.395055 58.78371 
L 326.557399 73.334451 
L 326.719184 66.059081 
L 327.041093 84.247508 
L 327.201225 67.877923 
L 327.360813 75.153294 
L 327.51986 87.885193 
L 327.678372 62.421395 
L 327.83635 76.972137 
L 327.9938 76.972137 
L 328.150723 73.334451 
L 328.307124 76.972137 
L 328.463007 64.240238 
L 328.618374 86.066351 
L 328.77323 53.327181 
L 329.081418 84.247508 
L 329.234758 75.153294 
L 329.387599 84.247508 
L 329.691798 71.515609 
L 329.843162 100.617092 
L 329.99404 78.79098 
L 330.144436 76.972137 
L 330.294351 84.247508 
L 330.443791 71.515609 
L 330.592756 76.972137 
L 330.741251 66.05908 
L 330.889278 71.515609 
L 331.03684 62.421395 
L 331.330582 78.79098 
L 331.476767 82.428665 
L 331.6225 56.964867 
L 331.767781 62.421395 
L 331.912615 75.153294 
L 332.200951 66.059081 
L 332.487528 73.334451 
L 332.630164 80.609822 
L 332.772369 76.972137 
L 332.914144 91.522879 
L 333.336923 62.421395 
L 333.616677 69.696766 
L 333.755932 62.421395 
L 333.894776 69.696766 
L 334.03321 66.059081 
L 334.308863 69.696766 
L 334.446085 51.508339 
L 334.582908 76.972137 
L 334.719333 69.696766 
L 334.855364 71.515608 
L 334.991002 64.240238 
L 335.126249 87.885193 
L 335.261109 80.609822 
L 335.395583 66.05908 
L 335.529673 69.696766 
L 335.663382 64.240238 
L 335.796711 80.609822 
L 335.929663 58.783709 
L 336.06224 73.334451 
L 336.194445 62.421395 
L 336.326278 71.515608 
L 336.457742 58.783709 
L 336.58884 69.696766 
L 336.719574 67.877923 
L 336.849944 69.696766 
L 336.979954 69.696766 
L 337.109605 67.877923 
L 337.2389 107.892463 
L 337.36784 96.979407 
L 337.496427 58.783709 
L 337.624663 104.254778 
L 337.752551 102.435935 
L 338.007286 51.508338 
L 338.134138 64.240238 
L 338.260648 56.964867 
L 338.386819 69.696766 
L 338.512652 66.05908 
L 338.638149 78.790979 
L 338.763311 76.972137 
L 338.888141 66.05908 
L 339.012641 80.609822 
L 339.260655 73.334451 
L 339.384173 86.06635 
L 339.507367 71.515608 
L 339.630239 71.515608 
L 339.752791 75.153294 
L 339.875024 86.06635 
L 339.99694 80.609822 
L 340.11854 67.877923 
L 340.239827 82.428665 
L 340.360802 69.696766 
L 340.481466 98.798249 
L 340.60182 64.240238 
L 340.841609 95.160564 
L 340.961047 89.704036 
L 341.199015 69.696766 
L 341.435784 78.790979 
L 341.671366 66.05908 
L 341.905773 82.428665 
L 342.02254 71.515608 
L 342.139017 75.153294 
L 342.255207 64.240238 
L 342.486727 107.892463 
L 342.602061 69.696766 
L 342.717113 78.790979 
L 342.831883 66.05908 
L 343.060587 66.05908 
L 343.174523 84.247508 
L 343.288184 76.972137 
L 343.40157 82.428665 
L 343.514683 80.609822 
L 343.627525 115.167834 
L 343.852399 73.334451 
L 343.964433 75.153294 
L 344.076202 84.247507 
L 344.187705 69.696766 
L 344.298944 69.696766 
L 344.520636 84.247507 
L 344.631091 69.696766 
L 344.851225 82.428665 
L 344.960907 82.428665 
L 345.070333 84.247507 
L 345.288424 75.153294 
L 345.397091 76.972137 
L 345.613675 87.885193 
L 345.721594 82.428665 
L 345.829265 84.247508 
L 345.93669 95.160564 
L 346.150807 78.790979 
L 346.257501 76.972137 
L 346.470164 82.428665 
L 346.68187 75.153294 
L 346.892626 91.522879 
L 347.102442 78.79098 
L 347.311324 84.247508 
L 347.415419 102.435935 
L 347.519283 80.609822 
L 347.622918 106.073621 
L 347.726325 73.334451 
L 347.93246 84.247508 
L 348.035189 144.269318 
L 348.239976 84.247508 
L 348.342036 86.066351 
L 348.443875 91.522879 
L 348.545493 84.247508 
L 348.646892 95.160564 
L 348.748073 80.609822 
L 348.949784 93.341721 
L 349.050316 91.522879 
L 349.250737 69.696766 
L 349.350627 62.421395 
L 349.450306 69.696766 
L 349.649032 89.704036 
L 349.74808 155.182374 
L 349.846921 80.609822 
L 349.945554 142.450475 
L 350.142201 71.515609 
L 350.240216 80.609822 
L 350.435637 75.153294 
L 350.533043 93.341721 
L 350.727253 73.334451 
L 350.824057 91.522879 
L 350.920663 87.885193 
L 351.01707 104.254778 
L 351.209293 80.609822 
L 351.305111 104.254778 
L 351.496162 89.704036 
L 351.591397 91.522879 
L 351.68644 173.370802 
L 351.875951 93.341721 
L 351.97042 135.175104 
L 352.0647 118.80552 
L 352.158791 126.080891 
L 352.533284 73.334451 
L 352.626443 75.153294 
L 352.719417 66.059081 
L 352.812208 67.877923 
L 352.997242 87.885193 
L 353.089486 80.609822 
L 353.18155 96.979407 
L 353.273434 93.341721 
L 353.365139 76.972137 
L 353.456664 126.080891 
L 353.639183 84.247508 
L 353.820996 93.341721 
L 353.91164 120.624362 
L 354.002108 87.885193 
L 354.182525 127.899733 
L 354.272475 86.06635 
L 354.451859 138.81279 
L 354.541295 144.269318 
L 354.719658 89.704036 
L 354.808586 126.080891 
L 354.897346 106.07362 
L 354.985939 118.80552 
L 355.162626 76.972137 
L 355.25072 153.363532 
L 355.33865 107.892463 
L 355.426416 120.624362 
L 355.514018 111.530149 
L 355.601458 140.631632 
L 355.775849 93.341721 
L 355.862803 144.269318 
L 355.949597 106.07362 
L 356.03623 146.088161 
L 356.122704 127.899733 
L 356.209019 86.06635 
L 356.467017 140.631632 
L 356.552703 138.81279 
L 356.638233 86.06635 
L 356.723607 115.167834 
L 356.893892 95.160564 
L 356.978803 126.080891 
L 357.063562 96.979407 
L 357.232622 151.544689 
L 357.316924 102.435935 
L 357.401075 116.986677 
L 357.568928 82.428665 
L 357.652629 160.638902 
L 357.736182 149.725846 
L 357.819587 111.530149 
L 357.902844 131.537419 
L 357.985954 111.530149 
L 358.068917 131.537419 
L 358.151734 111.530149 
L 358.234405 124.262048 
L 358.399312 84.247508 
L 358.563643 115.167834 
L 358.727401 75.153294 
L 358.890591 149.725846 
L 358.971974 126.080891 
L 359.053216 129.718576 
L 359.134318 151.544689 
L 359.21528 127.899733 
L 359.296103 136.993947 
L 359.376787 126.080891 
L 359.537741 86.066351 
L 359.618012 109.711306 
L 359.698146 106.07362 
L 359.778144 102.435935 
L 359.937732 126.08089 
L 360.017323 78.79098 
L 360.096779 80.609822 
L 360.176102 78.79098 
L 360.255291 82.428665 
L 360.334346 142.450475 
L 360.49206 100.617092 
L 360.570718 80.609822 
L 360.649246 89.704036 
L 360.727642 75.153294 
L 360.962049 124.262048 
L 361.039926 120.624362 
L 361.117674 131.537419 
L 361.195293 93.341721 
L 361.272785 147.907003 
L 361.350148 138.81279 
L 361.504495 131.537419 
L 361.581479 149.725846 
L 361.658337 129.718576 
L 361.735069 135.175104 
L 361.811677 171.551959 
L 361.888159 124.262048 
L 361.964517 127.899733 
L 362.040752 106.07362 
L 362.116863 116.986677 
L 362.192851 115.167834 
L 362.268716 95.160564 
L 362.344459 100.617092 
L 362.420081 89.704036 
L 362.49558 93.341721 
L 362.570959 135.175104 
L 362.646217 133.356262 
L 362.721354 122.443205 
L 362.87127 151.544689 
L 363.169675 124.262048 
L 363.243981 93.341721 
L 363.31817 129.718576 
L 363.392241 116.986677 
L 363.466197 86.06635 
L 363.540036 100.617092 
L 363.613759 133.356261 
L 363.687367 78.79098 
L 363.834237 151.544689 
L 363.98065 146.088161 
L 364.053686 98.79825 
L 364.126609 157.001217 
L 364.199418 146.088161 
L 364.3447 91.522879 
L 364.417173 82.428665 
L 364.561784 157.001217 
L 364.633923 151.544689 
L 364.705951 95.160564 
L 364.777869 96.979407 
L 364.849678 95.160564 
L 364.921377 98.79825 
L 365.135819 140.631632 
L 365.278239 87.885193 
L 365.349288 93.341721 
L 365.491063 136.993947 
L 365.632412 93.341721 
L 365.702928 102.435935 
L 365.773338 66.05908 
L 365.843642 93.341721 
L 365.913842 86.06635 
L 365.983936 95.160564 
L 366.123813 82.428665 
L 366.263275 147.907003 
L 366.402324 75.153294 
L 366.471695 86.06635 
L 366.540963 73.334451 
L 366.748157 133.356262 
L 366.81702 133.356262 
L 366.885781 91.522879 
L 367.091465 144.269318 
L 367.228089 135.175104 
L 367.364316 84.247508 
L 367.567921 151.544689 
L 367.635593 158.82006 
L 367.703168 129.718576 
L 367.770647 157.001217 
L 367.905313 91.522879 
L 367.972502 124.262048 
L 368.106592 73.334451 
L 368.173494 80.609822 
L 368.307012 62.421395 
L 368.440153 124.262048 
L 368.506582 109.711306 
L 368.705308 76.972137 
L 368.771363 115.167834 
L 368.903197 84.247508 
L 368.968975 82.428665 
L 369.100256 87.885193 
L 369.165759 82.428665 
L 369.296492 102.435935 
L 369.491913 73.334451 
L 369.556873 113.348991 
L 369.621743 86.06635 
L 369.686524 86.06635 
L 369.751216 78.79098 
L 369.880333 91.522879 
L 369.944759 89.704036 
L 370.009096 82.428665 
L 370.073346 93.341721 
L 370.137508 84.247508 
L 370.201582 102.435935 
L 370.265569 76.972137 
L 370.329469 82.428665 
L 370.393283 71.515609 
L 370.45701 102.435935 
L 370.52065 89.704036 
L 370.584205 95.160564 
L 370.647673 82.428665 
L 370.711056 84.247508 
L 370.774354 102.435935 
L 370.837567 82.428665 
L 370.900695 86.06635 
L 370.963738 78.79098 
L 371.026696 80.609822 
L 371.215067 157.001217 
L 371.34023 115.167834 
L 371.402687 107.892463 
L 371.527351 157.001217 
L 371.58956 98.79825 
L 371.651686 109.711306 
L 371.71373 167.914273 
L 371.837574 95.160564 
L 371.899373 98.79825 
L 372.022729 147.907003 
L 372.145762 82.428665 
L 372.207158 140.631632 
L 372.268474 106.073621 
L 372.32971 102.435935 
L 372.390866 91.522879 
L 372.451943 153.363532 
L 372.51294 104.254778 
L 372.573859 131.537419 
L 372.634698 89.704036 
L 372.816746 140.631632 
L 372.877272 138.81279 
L 373.058384 87.885193 
L 373.1186 84.247508 
L 373.178739 91.522879 
L 373.238801 78.79098 
L 373.478285 135.175104 
L 373.537966 131.537419 
L 373.716554 82.428665 
L 373.775934 142.450475 
L 373.835238 98.79825 
L 373.894467 96.979407 
L 373.953622 75.153294 
L 374.012703 86.06635 
L 374.130641 135.175104 
L 374.1895 82.428665 
L 374.248285 84.247508 
L 374.482692 116.986677 
L 374.541112 76.972137 
L 374.599459 91.522879 
L 374.657733 84.247508 
L 374.715936 164.276588 
L 374.774067 93.341721 
L 374.832125 126.080891 
L 374.948028 80.609822 
L 375.005873 107.892463 
L 375.063646 80.609822 
L 375.121348 91.522879 
L 375.17898 98.79825 
L 375.236541 89.704036 
L 375.351452 122.443205 
L 375.637506 69.696766 
L 375.751442 89.704036 
L 375.808306 82.428665 
L 375.865102 106.07362 
L 375.92183 75.153294 
L 375.978489 76.972137 
L 376.035079 122.443205 
L 376.091602 84.247508 
L 376.148057 80.609822 
L 376.260763 98.79825 
L 376.317015 93.341721 
L 376.3732 62.421395 
L 376.429317 66.05908 
L 376.59727 80.609822 
L 376.653121 76.972137 
L 376.708905 84.247508 
L 376.764624 69.696766 
L 376.820276 116.986677 
L 376.875863 73.334451 
L 376.931384 87.885193 
L 376.98684 75.153294 
L 377.04223 67.877923 
L 377.152815 80.609822 
L 377.20801 69.696766 
L 377.26314 84.247508 
L 377.318206 56.964867 
L 377.373207 75.153294 
L 377.428144 69.696766 
L 377.59257 95.160564 
L 377.647252 58.78371 
L 377.701869 96.979407 
L 377.756424 95.160564 
L 377.919708 66.05908 
L 378.082427 126.080891 
L 378.190594 82.428665 
L 378.244584 91.522879 
L 378.352379 135.175104 
L 378.513609 64.240238 
L 378.83442 169.733116 
L 379.153055 62.421395 
L 379.258789 96.979407 
L 379.311566 89.704036 
L 379.364285 60.602552 
L 379.416944 84.247508 
L 379.469545 75.153294 
L 379.626994 87.885193 
L 379.67936 89.704036 
L 379.731668 113.348991 
L 379.888243 78.79098 
L 379.940319 66.05908 
L 380.096202 98.79825 
L 380.148048 67.877923 
L 380.199837 78.79098 
L 380.251569 129.718576 
L 380.303244 118.80552 
L 380.354863 75.153294 
L 380.406424 95.160564 
L 380.560771 80.609822 
L 380.765782 136.993947 
L 380.867952 82.428665 
L 380.969902 109.711306 
L 381.020793 106.07362 
L 381.173139 206.109971 
L 381.324992 60.602552 
L 381.375501 75.153294 
L 381.425956 131.537419 
L 381.476356 66.05908 
L 381.627235 84.247508 
L 381.727552 75.153294 
L 381.827655 96.979407 
L 381.877627 62.421395 
L 381.927546 76.972137 
L 381.977412 76.972137 
L 382.027225 91.522879 
L 382.076985 75.153294 
L 382.126693 42.414125 
L 382.176348 76.972137 
L 382.225951 75.153294 
L 382.275501 56.964867 
L 382.374445 60.602552 
L 382.42384 122.443205 
L 382.522473 111.530149 
L 382.571711 67.877923 
L 382.768153 184.283858 
L 382.914947 69.696766 
L 382.963777 66.05908 
L 383.061284 84.247508 
L 383.109962 76.972137 
L 383.15859 73.334451 
L 383.207167 56.964867 
L 383.304171 58.783709 
L 383.400976 55.146024 
L 383.449303 75.153294 
L 383.54581 53.327181 
L 383.593989 69.696766 
L 383.642118 76.972137 
L 383.690199 60.602552 
L 383.786212 160.638903 
L 383.834145 120.624362 
L 383.88203 133.356262 
L 384.025391 64.240238 
L 384.168316 111.530149 
L 384.310808 69.696766 
L 384.35821 129.718576 
L 384.405563 76.972137 
L 384.452869 67.877923 
L 384.500128 91.522879 
L 384.547339 51.508339 
L 384.594503 120.624362 
L 384.641619 71.515609 
L 384.688688 64.240238 
L 384.73571 76.972137 
L 384.73571 76.972137 
" clip-path="url(#p7a1cefd20d)" style="fill: none; stroke: #ff7f0e; stroke-width: 1.5; stroke-linecap: square"/>
   </g>
   <g id="patch_3">
    <path d="M 43.848438 296.430125 
L 43.848438 30.318125 
" style="fill: none; stroke: #000000; stroke-width: 0.8; stroke-linejoin: miter; stroke-linecap: square"/>
   </g>
   <g id="patch_4">
    <path d="M 400.968438 296.430125 
L 400.968438 30.318125 
" style="fill: none; stroke: #000000; stroke-width: 0.8; stroke-linejoin: miter; stroke-linecap: square"/>
   </g>
   <g id="patch_5">
    <path d="M 43.848438 296.430125 
L 400.968438 296.430125 
" style="fill: none; stroke: #000000; stroke-width: 0.8; stroke-linejoin: miter; stroke-linecap: square"/>
   </g>
   <g id="patch_6">
    <path d="M 43.848438 30.318125 
L 400.968438 30.318125 
" style="fill: none; stroke: #000000; stroke-width: 0.8; stroke-linejoin: miter; stroke-linecap: square"/>
   </g>
   <g id="text_13">
    <!-- Accuracy per Epoch (Standard MLP on Division mod 97) -->
    <g transform="translate(34.305625 16.318125) scale(0.12 -0.12)">
     <defs>
      <path id="DejaVuSans-Bold-65" d="M 4031 1759 
L 4031 1441 
L 1416 1441 
Q 1456 1047 1700 850 
Q 1944 653 2381 653 
Q 2734 653 3104 758 
Q 3475 863 3866 1075 
L 3866 213 
Q 3469 63 3072 -14 
Q 2675 -91 2278 -91 
Q 1328 -91 801 392 
Q 275 875 275 1747 
Q 275 2603 792 3093 
Q 1309 3584 2216 3584 
Q 3041 3584 3536 3087 
Q 4031 2591 4031 1759 
z
M 2881 2131 
Q 2881 2450 2695 2645 
Q 2509 2841 2209 2841 
Q 1884 2841 1681 2658 
Q 1478 2475 1428 2131 
L 2881 2131 
z
" transform="scale(0.015625)"/>
      <path id="DejaVuSans-Bold-53" d="M 3834 4519 
L 3834 3531 
Q 3450 3703 3084 3790 
Q 2719 3878 2394 3878 
Q 1963 3878 1756 3759 
Q 1550 3641 1550 3391 
Q 1550 3203 1689 3098 
Q 1828 2994 2194 2919 
L 2706 2816 
Q 3484 2659 3812 2340 
Q 4141 2022 4141 1434 
Q 4141 663 3683 286 
Q 3225 -91 2284 -91 
Q 1841 -91 1394 -6 
Q 947 78 500 244 
L 500 1259 
Q 947 1022 1364 901 
Q 1781 781 2169 781 
Q 2563 781 2772 912 
Q 2981 1044 2981 1288 
Q 2981 1506 2839 1625 
Q 2697 1744 2272 1838 
L 1806 1941 
Q 1106 2091 782 2419 
Q 459 2747 459 3303 
Q 459 4000 909 4375 
Q 1359 4750 2203 4750 
Q 2588 4750 2994 4692 
Q 3400 4634 3834 4519 
z
" transform="scale(0.015625)"/>
      <path id="DejaVuSans-Bold-74" d="M 1759 4494 
L 1759 3500 
L 2913 3500 
L 2913 2700 
L 1759 2700 
L 1759 1216 
Q 1759 972 1856 886 
Q 1953 800 2241 800 
L 2816 800 
L 2816 0 
L 1856 0 
Q 1194 0 917 276 
Q 641 553 641 1216 
L 641 2700 
L 84 2700 
L 84 3500 
L 641 3500 
L 641 4494 
L 1759 4494 
z
" transform="scale(0.015625)"/>
      <path id="DejaVuSans-Bold-6e" d="M 4056 2131 
L 4056 0 
L 2931 0 
L 2931 347 
L 2931 1631 
Q 2931 2084 2911 2256 
Q 2891 2428 2841 2509 
Q 2775 2619 2662 2680 
Q 2550 2741 2406 2741 
Q 2056 2741 1856 2470 
Q 1656 2200 1656 1722 
L 1656 0 
L 538 0 
L 538 3500 
L 1656 3500 
L 1656 2988 
Q 1909 3294 2193 3439 
Q 2478 3584 2822 3584 
Q 3428 3584 3742 3212 
Q 4056 2841 4056 2131 
z
" transform="scale(0.015625)"/>
      <path id="DejaVuSans-Bold-64" d="M 2919 2988 
L 2919 4863 
L 4044 4863 
L 4044 0 
L 2919 0 
L 2919 506 
Q 2688 197 2409 53 
Q 2131 -91 1766 -91 
Q 1119 -91 703 423 
Q 288 938 288 1747 
Q 288 2556 703 3070 
Q 1119 3584 1766 3584 
Q 2128 3584 2408 3439 
Q 2688 3294 2919 2988 
z
M 2181 722 
Q 2541 722 2730 984 
Q 2919 1247 2919 1747 
Q 2919 2247 2730 2509 
Q 2541 2772 2181 2772 
Q 1825 2772 1636 2509 
Q 1447 2247 1447 1747 
Q 1447 1247 1636 984 
Q 1825 722 2181 722 
z
" transform="scale(0.015625)"/>
      <path id="DejaVuSans-Bold-4d" d="M 588 4666 
L 2119 4666 
L 3181 2169 
L 4250 4666 
L 5778 4666 
L 5778 0 
L 4641 0 
L 4641 3413 
L 3566 897 
L 2803 897 
L 1728 3413 
L 1728 0 
L 588 0 
L 588 4666 
z
" transform="scale(0.015625)"/>
      <path id="DejaVuSans-Bold-4c" d="M 588 4666 
L 1791 4666 
L 1791 909 
L 3903 909 
L 3903 0 
L 588 0 
L 588 4666 
z
" transform="scale(0.015625)"/>
      <path id="DejaVuSans-Bold-50" d="M 588 4666 
L 2584 4666 
Q 3475 4666 3951 4270 
Q 4428 3875 4428 3144 
Q 4428 2409 3951 2014 
Q 3475 1619 2584 1619 
L 1791 1619 
L 1791 0 
L 588 0 
L 588 4666 
z
M 1791 3794 
L 1791 2491 
L 2456 2491 
Q 2806 2491 2997 2661 
Q 3188 2831 3188 3144 
Q 3188 3456 2997 3625 
Q 2806 3794 2456 3794 
L 1791 3794 
z
" transform="scale(0.015625)"/>
      <path id="DejaVuSans-Bold-44" d="M 1791 3756 
L 1791 909 
L 2222 909 
Q 2959 909 3348 1275 
Q 3738 1641 3738 2338 
Q 3738 3031 3350 3393 
Q 2963 3756 2222 3756 
L 1791 3756 
z
M 588 4666 
L 1856 4666 
Q 2919 4666 3439 4514 
Q 3959 4363 4331 4000 
Q 4659 3684 4818 3271 
Q 4978 2859 4978 2338 
Q 4978 1809 4818 1395 
Q 4659 981 4331 666 
Q 3956 303 3431 151 
Q 2906 0 1856 0 
L 588 0 
L 588 4666 
z
" transform="scale(0.015625)"/>
      <path id="DejaVuSans-Bold-69" d="M 538 3500 
L 1656 3500 
L 1656 0 
L 538 0 
L 538 3500 
z
M 538 4863 
L 1656 4863 
L 1656 3950 
L 538 3950 
L 538 4863 
z
" transform="scale(0.015625)"/>
      <path id="DejaVuSans-Bold-76" d="M 97 3500 
L 1216 3500 
L 2088 1081 
L 2956 3500 
L 4078 3500 
L 2700 0 
L 1472 0 
L 97 3500 
z
" transform="scale(0.015625)"/>
      <path id="DejaVuSans-Bold-73" d="M 3272 3391 
L 3272 2541 
Q 2913 2691 2578 2766 
Q 2244 2841 1947 2841 
Q 1628 2841 1473 2761 
Q 1319 2681 1319 2516 
Q 1319 2381 1436 2309 
Q 1553 2238 1856 2203 
L 2053 2175 
Q 2913 2066 3209 1816 
Q 3506 1566 3506 1031 
Q 3506 472 3093 190 
Q 2681 -91 1863 -91 
Q 1516 -91 1145 -36 
Q 775 19 384 128 
L 384 978 
Q 719 816 1070 734 
Q 1422 653 1784 653 
Q 2113 653 2278 743 
Q 2444 834 2444 1013 
Q 2444 1163 2330 1236 
Q 2216 1309 1875 1350 
L 1678 1375 
Q 931 1469 631 1722 
Q 331 1975 331 2491 
Q 331 3047 712 3315 
Q 1094 3584 1881 3584 
Q 2191 3584 2531 3537 
Q 2872 3491 3272 3391 
z
" transform="scale(0.015625)"/>
      <path id="DejaVuSans-Bold-6d" d="M 3781 2919 
Q 3994 3244 4286 3414 
Q 4578 3584 4928 3584 
Q 5531 3584 5847 3212 
Q 6163 2841 6163 2131 
L 6163 0 
L 5038 0 
L 5038 1825 
Q 5041 1866 5042 1909 
Q 5044 1953 5044 2034 
Q 5044 2406 4934 2573 
Q 4825 2741 4581 2741 
Q 4263 2741 4089 2478 
Q 3916 2216 3909 1719 
L 3909 0 
L 2784 0 
L 2784 1825 
Q 2784 2406 2684 2573 
Q 2584 2741 2328 2741 
Q 2006 2741 1831 2477 
Q 1656 2213 1656 1722 
L 1656 0 
L 531 0 
L 531 3500 
L 1656 3500 
L 1656 2988 
Q 1863 3284 2130 3434 
Q 2397 3584 2719 3584 
Q 3081 3584 3359 3409 
Q 3638 3234 3781 2919 
z
" transform="scale(0.015625)"/>
      <path id="DejaVuSans-Bold-39" d="M 641 103 
L 641 966 
Q 928 831 1190 764 
Q 1453 697 1709 697 
Q 2247 697 2547 995 
Q 2847 1294 2900 1881 
Q 2688 1725 2447 1647 
Q 2206 1569 1925 1569 
Q 1209 1569 770 1986 
Q 331 2403 331 3084 
Q 331 3838 820 4291 
Q 1309 4744 2131 4744 
Q 3044 4744 3544 4128 
Q 4044 3513 4044 2388 
Q 4044 1231 3459 570 
Q 2875 -91 1856 -91 
Q 1528 -91 1228 -42 
Q 928 6 641 103 
z
M 2125 2350 
Q 2441 2350 2600 2554 
Q 2759 2759 2759 3169 
Q 2759 3575 2600 3781 
Q 2441 3988 2125 3988 
Q 1809 3988 1650 3781 
Q 1491 3575 1491 3169 
Q 1491 2759 1650 2554 
Q 1809 2350 2125 2350 
z
" transform="scale(0.015625)"/>
      <path id="DejaVuSans-Bold-37" d="M 428 4666 
L 3944 4666 
L 3944 3988 
L 2125 0 
L 953 0 
L 2675 3781 
L 428 3781 
L 428 4666 
z
" transform="scale(0.015625)"/>
     </defs>
     <use xlink:href="#DejaVuSans-Bold-41"/>
     <use xlink:href="#DejaVuSans-Bold-63" transform="translate(77.392578 0)"/>
     <use xlink:href="#DejaVuSans-Bold-63" transform="translate(136.669922 0)"/>
     <use xlink:href="#DejaVuSans-Bold-75" transform="translate(195.947266 0)"/>
     <use xlink:href="#DejaVuSans-Bold-72" transform="translate(267.138672 0)"/>
     <use xlink:href="#DejaVuSans-Bold-61" transform="translate(316.455078 0)"/>
     <use xlink:href="#DejaVuSans-Bold-63" transform="translate(383.935547 0)"/>
     <use xlink:href="#DejaVuSans-Bold-79" transform="translate(443.212891 0)"/>
     <use xlink:href="#DejaVuSans-Bold-20" transform="translate(508.398438 0)"/>
     <use xlink:href="#DejaVuSans-Bold-70" transform="translate(543.212891 0)"/>
     <use xlink:href="#DejaVuSans-Bold-65" transform="translate(614.794922 0)"/>
     <use xlink:href="#DejaVuSans-Bold-72" transform="translate(682.617188 0)"/>
     <use xlink:href="#DejaVuSans-Bold-20" transform="translate(731.933594 0)"/>
     <use xlink:href="#DejaVuSans-Bold-45" transform="translate(766.748047 0)"/>
     <use xlink:href="#DejaVuSans-Bold-70" transform="translate(835.058594 0)"/>
     <use xlink:href="#DejaVuSans-Bold-6f" transform="translate(906.640625 0)"/>
     <use xlink:href="#DejaVuSans-Bold-63" transform="translate(975.341797 0)"/>
     <use xlink:href="#DejaVuSans-Bold-68" transform="translate(1034.619141 0)"/>
     <use xlink:href="#DejaVuSans-Bold-20" transform="translate(1105.810547 0)"/>
     <use xlink:href="#DejaVuSans-Bold-28" transform="translate(1140.625 0)"/>
     <use xlink:href="#DejaVuSans-Bold-53" transform="translate(1186.328125 0)"/>
     <use xlink:href="#DejaVuSans-Bold-74" transform="translate(1258.349609 0)"/>
     <use xlink:href="#DejaVuSans-Bold-61" transform="translate(1306.152344 0)"/>
     <use xlink:href="#DejaVuSans-Bold-6e" transform="translate(1373.632812 0)"/>
     <use xlink:href="#DejaVuSans-Bold-64" transform="translate(1444.824219 0)"/>
     <use xlink:href="#DejaVuSans-Bold-61" transform="translate(1516.40625 0)"/>
     <use xlink:href="#DejaVuSans-Bold-72" transform="translate(1583.886719 0)"/>
     <use xlink:href="#DejaVuSans-Bold-64" transform="translate(1633.203125 0)"/>
     <use xlink:href="#DejaVuSans-Bold-20" transform="translate(1704.785156 0)"/>
     <use xlink:href="#DejaVuSans-Bold-4d" transform="translate(1739.599609 0)"/>
     <use xlink:href="#DejaVuSans-Bold-4c" transform="translate(1839.111328 0)"/>
     <use xlink:href="#DejaVuSans-Bold-50" transform="translate(1902.832031 0)"/>
     <use xlink:href="#DejaVuSans-Bold-20" transform="translate(1976.123047 0)"/>
     <use xlink:href="#DejaVuSans-Bold-6f" transform="translate(2010.9375 0)"/>
     <use xlink:href="#DejaVuSans-Bold-6e" transform="translate(2079.638672 0)"/>
     <use xlink:href="#DejaVuSans-Bold-20" transform="translate(2150.830078 0)"/>
     <use xlink:href="#DejaVuSans-Bold-44" transform="translate(2185.644531 0)"/>
     <use xlink:href="#DejaVuSans-Bold-69" transform="translate(2268.652344 0)"/>
     <use xlink:href="#DejaVuSans-Bold-76" transform="translate(2302.929688 0)"/>
     <use xlink:href="#DejaVuSans-Bold-69" transform="translate(2368.115234 0)"/>
     <use xlink:href="#DejaVuSans-Bold-73" transform="translate(2402.392578 0)"/>
     <use xlink:href="#DejaVuSans-Bold-69" transform="translate(2461.914062 0)"/>
     <use xlink:href="#DejaVuSans-Bold-6f" transform="translate(2496.191406 0)"/>
     <use xlink:href="#DejaVuSans-Bold-6e" transform="translate(2564.892578 0)"/>
     <use xlink:href="#DejaVuSans-Bold-20" transform="translate(2636.083984 0)"/>
     <use xlink:href="#DejaVuSans-Bold-6d" transform="translate(2670.898438 0)"/>
     <use xlink:href="#DejaVuSans-Bold-6f" transform="translate(2775.097656 0)"/>
     <use xlink:href="#DejaVuSans-Bold-64" transform="translate(2843.798828 0)"/>
     <use xlink:href="#DejaVuSans-Bold-20" transform="translate(2915.380859 0)"/>
     <use xlink:href="#DejaVuSans-Bold-39" transform="translate(2950.195312 0)"/>
     <use xlink:href="#DejaVuSans-Bold-37" transform="translate(3019.775391 0)"/>
     <use xlink:href="#DejaVuSans-Bold-29" transform="translate(3089.355469 0)"/>
    </g>
   </g>
   <g id="legend_1">
    <g id="patch_7">
     <path d="M 50.848438 67.674375 
L 132.229688 67.674375 
Q 134.229688 67.674375 134.229688 65.674375 
L 134.229688 37.318125 
Q 134.229688 35.318125 132.229688 35.318125 
L 50.848438 35.318125 
Q 48.848438 35.318125 48.848438 37.318125 
L 48.848438 65.674375 
Q 48.848438 67.674375 50.848438 67.674375 
z
" style="fill: #ffffff; opacity: 0.8; stroke: #cccccc; stroke-linejoin: miter"/>
    </g>
    <g id="line2d_39">
     <path d="M 52.848438 43.416562 
L 62.848438 43.416562 
L 72.848438 43.416562 
" style="fill: none; stroke: #1f77b4; stroke-width: 1.5; stroke-linecap: square"/>
    </g>
    <g id="text_14">
     <!-- Train -->
     <g transform="translate(80.848438 46.916562) scale(0.1 -0.1)">
      <defs>
       <path id="DejaVuSans-54" d="M -19 4666 
L 3928 4666 
L 3928 4134 
L 2272 4134 
L 2272 0 
L 1638 0 
L 1638 4134 
L -19 4134 
L -19 4666 
z
" transform="scale(0.015625)"/>
       <path id="DejaVuSans-72" d="M 2631 2963 
Q 2534 3019 2420 3045 
Q 2306 3072 2169 3072 
Q 1681 3072 1420 2755 
Q 1159 2438 1159 1844 
L 1159 0 
L 581 0 
L 581 3500 
L 1159 3500 
L 1159 2956 
Q 1341 3275 1631 3429 
Q 1922 3584 2338 3584 
Q 2397 3584 2469 3576 
Q 2541 3569 2628 3553 
L 2631 2963 
z
" transform="scale(0.015625)"/>
       <path id="DejaVuSans-61" d="M 2194 1759 
Q 1497 1759 1228 1600 
Q 959 1441 959 1056 
Q 959 750 1161 570 
Q 1363 391 1709 391 
Q 2188 391 2477 730 
Q 2766 1069 2766 1631 
L 2766 1759 
L 2194 1759 
z
M 3341 1997 
L 3341 0 
L 2766 0 
L 2766 531 
Q 2569 213 2275 61 
Q 1981 -91 1556 -91 
Q 1019 -91 701 211 
Q 384 513 384 1019 
Q 384 1609 779 1909 
Q 1175 2209 1959 2209 
L 2766 2209 
L 2766 2266 
Q 2766 2663 2505 2880 
Q 2244 3097 1772 3097 
Q 1472 3097 1187 3025 
Q 903 2953 641 2809 
L 641 3341 
Q 956 3463 1253 3523 
Q 1550 3584 1831 3584 
Q 2591 3584 2966 3190 
Q 3341 2797 3341 1997 
z
" transform="scale(0.015625)"/>
       <path id="DejaVuSans-69" d="M 603 3500 
L 1178 3500 
L 1178 0 
L 603 0 
L 603 3500 
z
M 603 4863 
L 1178 4863 
L 1178 4134 
L 603 4134 
L 603 4863 
z
" transform="scale(0.015625)"/>
       <path id="DejaVuSans-6e" d="M 3513 2113 
L 3513 0 
L 2938 0 
L 2938 2094 
Q 2938 2591 2744 2837 
Q 2550 3084 2163 3084 
Q 1697 3084 1428 2787 
Q 1159 2491 1159 1978 
L 1159 0 
L 581 0 
L 581 3500 
L 1159 3500 
L 1159 2956 
Q 1366 3272 1645 3428 
Q 1925 3584 2291 3584 
Q 2894 3584 3203 3211 
Q 3513 2838 3513 2113 
z
" transform="scale(0.015625)"/>
      </defs>
      <use xlink:href="#DejaVuSans-54"/>
      <use xlink:href="#DejaVuSans-72" transform="translate(46.333984 0)"/>
      <use xlink:href="#DejaVuSans-61" transform="translate(87.447266 0)"/>
      <use xlink:href="#DejaVuSans-69" transform="translate(148.726562 0)"/>
      <use xlink:href="#DejaVuSans-6e" transform="translate(176.509766 0)"/>
     </g>
    </g>
    <g id="line2d_40">
     <path d="M 52.848438 58.094687 
L 62.848438 58.094687 
L 72.848438 58.094687 
" style="fill: none; stroke: #ff7f0e; stroke-width: 1.5; stroke-linecap: square"/>
    </g>
    <g id="text_15">
     <!-- Validation -->
     <g transform="translate(80.848438 61.594687) scale(0.1 -0.1)">
      <defs>
       <path id="DejaVuSans-56" d="M 1831 0 
L 50 4666 
L 709 4666 
L 2188 738 
L 3669 4666 
L 4325 4666 
L 2547 0 
L 1831 0 
z
" transform="scale(0.015625)"/>
       <path id="DejaVuSans-6c" d="M 603 4863 
L 1178 4863 
L 1178 0 
L 603 0 
L 603 4863 
z
" transform="scale(0.015625)"/>
       <path id="DejaVuSans-64" d="M 2906 2969 
L 2906 4863 
L 3481 4863 
L 3481 0 
L 2906 0 
L 2906 525 
Q 2725 213 2448 61 
Q 2172 -91 1784 -91 
Q 1150 -91 751 415 
Q 353 922 353 1747 
Q 353 2572 751 3078 
Q 1150 3584 1784 3584 
Q 2172 3584 2448 3432 
Q 2725 3281 2906 2969 
z
M 947 1747 
Q 947 1113 1208 752 
Q 1469 391 1925 391 
Q 2381 391 2643 752 
Q 2906 1113 2906 1747 
Q 2906 2381 2643 2742 
Q 2381 3103 1925 3103 
Q 1469 3103 1208 2742 
Q 947 2381 947 1747 
z
" transform="scale(0.015625)"/>
       <path id="DejaVuSans-74" d="M 1172 4494 
L 1172 3500 
L 2356 3500 
L 2356 3053 
L 1172 3053 
L 1172 1153 
Q 1172 725 1289 603 
Q 1406 481 1766 481 
L 2356 481 
L 2356 0 
L 1766 0 
Q 1100 0 847 248 
Q 594 497 594 1153 
L 594 3053 
L 172 3053 
L 172 3500 
L 594 3500 
L 594 4494 
L 1172 4494 
z
" transform="scale(0.015625)"/>
       <path id="DejaVuSans-6f" d="M 1959 3097 
Q 1497 3097 1228 2736 
Q 959 2375 959 1747 
Q 959 1119 1226 758 
Q 1494 397 1959 397 
Q 2419 397 2687 759 
Q 2956 1122 2956 1747 
Q 2956 2369 2687 2733 
Q 2419 3097 1959 3097 
z
M 1959 3584 
Q 2709 3584 3137 3096 
Q 3566 2609 3566 1747 
Q 3566 888 3137 398 
Q 2709 -91 1959 -91 
Q 1206 -91 779 398 
Q 353 888 353 1747 
Q 353 2609 779 3096 
Q 1206 3584 1959 3584 
z
" transform="scale(0.015625)"/>
      </defs>
      <use xlink:href="#DejaVuSans-56"/>
      <use xlink:href="#DejaVuSans-61" transform="translate(60.658203 0)"/>
      <use xlink:href="#DejaVuSans-6c" transform="translate(121.9375 0)"/>
      <use xlink:href="#DejaVuSans-69" transform="translate(149.720703 0)"/>
      <use xlink:href="#DejaVuSans-64" transform="translate(177.503906 0)"/>
      <use xlink:href="#DejaVuSans-61" transform="translate(240.980469 0)"/>
      <use xlink:href="#DejaVuSans-74" transform="translate(302.259766 0)"/>
      <use xlink:href="#DejaVuSans-69" transform="translate(341.46875 0)"/>
      <use xlink:href="#DejaVuSans-6f" transform="translate(369.251953 0)"/>
      <use xlink:href="#DejaVuSans-6e" transform="translate(430.433594 0)"/>
     </g>
    </g>
   </g>
  </g>
 </g>
 <defs>
  <clipPath id="p7a1cefd20d">
   <rect x="43.848438" y="30.318125" width="357.12" height="266.112"/>
  </clipPath>
 </defs>
</svg>
