<?xml version="1.0" encoding="utf-8" standalone="no"?>
<!DOCTYPE svg PUBLIC "-//W3C//DTD SVG 1.1//EN"
  "http://www.w3.org/Graphics/SVG/1.1/DTD/svg11.dtd">
<svg xmlns:xlink="http://www.w3.org/1999/xlink" width="426.798125pt" height="333.986375pt" viewBox="0 0 426.798125 333.986375" xmlns="http://www.w3.org/2000/svg" version="1.1">
 <metadata>
  <rdf:RDF xmlns:dc="http://purl.org/dc/elements/1.1/" xmlns:cc="http://creativecommons.org/ns#" xmlns:rdf="http://www.w3.org/1999/02/22-rdf-syntax-ns#">
   <cc:Work>
    <dc:type rdf:resource="http://purl.org/dc/dcmitype/StillImage"/>
    <dc:date>2025-11-26T12:46:24.849220</dc:date>
    <dc:format>image/svg+xml</dc:format>
    <dc:creator>
     <cc:Agent>
      <dc:title>Matplotlib v3.10.7, https://matplotlib.org/</dc:title>
     </cc:Agent>
    </dc:creator>
   </cc:Work>
  </rdf:RDF>
 </metadata>
 <defs>
  <style type="text/css">*{stroke-linejoin: round; stroke-linecap: butt}</style>
 </defs>
 <g id="figure_1">
  <g id="patch_1">
   <path d="M 0 333.986375 
L 426.798125 333.986375 
L 426.798125 0 
L 0 0 
z
" style="fill: #ffffff"/>
  </g>
  <g id="axes_1">
   <g id="patch_2">
    <path d="M 62.478125 296.430125 
L 419.598125 296.430125 
L 419.598125 30.318125 
L 62.478125 30.318125 
z
" style="fill: #ffffff"/>
   </g>
   <g id="matplotlib.axis_1">
    <g id="xtick_1">
     <g id="line2d_1">
      <defs>
       <path id="m1a93af992c" d="M 0 0 
L 0 3.5 
" style="stroke: #000000; stroke-width: 0.8"/>
      </defs>
      <g>
       <use xlink:href="#m1a93af992c" x="78.710852" y="296.430125" style="stroke: #000000; stroke-width: 0.8"/>
      </g>
     </g>
     <g id="text_1">
      <!-- $\mathdefault{10^{0}}$ -->
      <g transform="translate(69.910852 311.028562) scale(0.1 -0.1)">
       <defs>
        <path id="DejaVuSans-31" d="M 794 531 
L 1825 531 
L 1825 4091 
L 703 3866 
L 703 4441 
L 1819 4666 
L 2450 4666 
L 2450 531 
L 3481 531 
L 3481 0 
L 794 0 
L 794 531 
z
" transform="scale(0.015625)"/>
        <path id="DejaVuSans-30" d="M 2034 4250 
Q 1547 4250 1301 3770 
Q 1056 3291 1056 2328 
Q 1056 1369 1301 889 
Q 1547 409 2034 409 
Q 2525 409 2770 889 
Q 3016 1369 3016 2328 
Q 3016 3291 2770 3770 
Q 2525 4250 2034 4250 
z
M 2034 4750 
Q 2819 4750 3233 4129 
Q 3647 3509 3647 2328 
Q 3647 1150 3233 529 
Q 2819 -91 2034 -91 
Q 1250 -91 836 529 
Q 422 1150 422 2328 
Q 422 3509 836 4129 
Q 1250 4750 2034 4750 
z
" transform="scale(0.015625)"/>
       </defs>
       <use xlink:href="#DejaVuSans-31" transform="translate(0 0.765625)"/>
       <use xlink:href="#DejaVuSans-30" transform="translate(63.623047 0.765625)"/>
       <use xlink:href="#DejaVuSans-30" transform="translate(128.203125 39.046875) scale(0.7)"/>
      </g>
     </g>
    </g>
    <g id="xtick_2">
     <g id="line2d_2">
      <g>
       <use xlink:href="#m1a93af992c" x="186.929034" y="296.430125" style="stroke: #000000; stroke-width: 0.8"/>
      </g>
     </g>
     <g id="text_2">
      <!-- $\mathdefault{10^{1}}$ -->
      <g transform="translate(178.129034 311.028562) scale(0.1 -0.1)">
       <use xlink:href="#DejaVuSans-31" transform="translate(0 0.684375)"/>
       <use xlink:href="#DejaVuSans-30" transform="translate(63.623047 0.684375)"/>
       <use xlink:href="#DejaVuSans-31" transform="translate(128.203125 38.965625) scale(0.7)"/>
      </g>
     </g>
    </g>
    <g id="xtick_3">
     <g id="line2d_3">
      <g>
       <use xlink:href="#m1a93af992c" x="295.147216" y="296.430125" style="stroke: #000000; stroke-width: 0.8"/>
      </g>
     </g>
     <g id="text_3">
      <!-- $\mathdefault{10^{2}}$ -->
      <g transform="translate(286.347216 311.028562) scale(0.1 -0.1)">
       <defs>
        <path id="DejaVuSans-32" d="M 1228 531 
L 3431 531 
L 3431 0 
L 469 0 
L 469 531 
Q 828 903 1448 1529 
Q 2069 2156 2228 2338 
Q 2531 2678 2651 2914 
Q 2772 3150 2772 3378 
Q 2772 3750 2511 3984 
Q 2250 4219 1831 4219 
Q 1534 4219 1204 4116 
Q 875 4013 500 3803 
L 500 4441 
Q 881 4594 1212 4672 
Q 1544 4750 1819 4750 
Q 2544 4750 2975 4387 
Q 3406 4025 3406 3419 
Q 3406 3131 3298 2873 
Q 3191 2616 2906 2266 
Q 2828 2175 2409 1742 
Q 1991 1309 1228 531 
z
" transform="scale(0.015625)"/>
       </defs>
       <use xlink:href="#DejaVuSans-31" transform="translate(0 0.765625)"/>
       <use xlink:href="#DejaVuSans-30" transform="translate(63.623047 0.765625)"/>
       <use xlink:href="#DejaVuSans-32" transform="translate(128.203125 39.046875) scale(0.7)"/>
      </g>
     </g>
    </g>
    <g id="xtick_4">
     <g id="line2d_4">
      <g>
       <use xlink:href="#m1a93af992c" x="403.365398" y="296.430125" style="stroke: #000000; stroke-width: 0.8"/>
      </g>
     </g>
     <g id="text_4">
      <!-- $\mathdefault{10^{3}}$ -->
      <g transform="translate(394.565398 311.028562) scale(0.1 -0.1)">
       <defs>
        <path id="DejaVuSans-33" d="M 2597 2516 
Q 3050 2419 3304 2112 
Q 3559 1806 3559 1356 
Q 3559 666 3084 287 
Q 2609 -91 1734 -91 
Q 1441 -91 1130 -33 
Q 819 25 488 141 
L 488 750 
Q 750 597 1062 519 
Q 1375 441 1716 441 
Q 2309 441 2620 675 
Q 2931 909 2931 1356 
Q 2931 1769 2642 2001 
Q 2353 2234 1838 2234 
L 1294 2234 
L 1294 2753 
L 1863 2753 
Q 2328 2753 2575 2939 
Q 2822 3125 2822 3475 
Q 2822 3834 2567 4026 
Q 2313 4219 1838 4219 
Q 1578 4219 1281 4162 
Q 984 4106 628 3988 
L 628 4550 
Q 988 4650 1302 4700 
Q 1616 4750 1894 4750 
Q 2613 4750 3031 4423 
Q 3450 4097 3450 3541 
Q 3450 3153 3228 2886 
Q 3006 2619 2597 2516 
z
" transform="scale(0.015625)"/>
       </defs>
       <use xlink:href="#DejaVuSans-31" transform="translate(0 0.765625)"/>
       <use xlink:href="#DejaVuSans-30" transform="translate(63.623047 0.765625)"/>
       <use xlink:href="#DejaVuSans-33" transform="translate(128.203125 39.046875) scale(0.7)"/>
      </g>
     </g>
    </g>
    <g id="xtick_5">
     <g id="line2d_5">
      <defs>
       <path id="m6711306add" d="M 0 0 
L 0 2 
" style="stroke: #000000; stroke-width: 0.6"/>
      </defs>
      <g>
       <use xlink:href="#m6711306add" x="68.223427" y="296.430125" style="stroke: #000000; stroke-width: 0.6"/>
      </g>
     </g>
    </g>
    <g id="xtick_6">
     <g id="line2d_6">
      <g>
       <use xlink:href="#m6711306add" x="73.75906" y="296.430125" style="stroke: #000000; stroke-width: 0.6"/>
      </g>
     </g>
    </g>
    <g id="xtick_7">
     <g id="line2d_7">
      <g>
       <use xlink:href="#m6711306add" x="111.287771" y="296.430125" style="stroke: #000000; stroke-width: 0.6"/>
      </g>
     </g>
    </g>
    <g id="xtick_8">
     <g id="line2d_8">
      <g>
       <use xlink:href="#m6711306add" x="130.344047" y="296.430125" style="stroke: #000000; stroke-width: 0.6"/>
      </g>
     </g>
    </g>
    <g id="xtick_9">
     <g id="line2d_9">
      <g>
       <use xlink:href="#m6711306add" x="143.86469" y="296.430125" style="stroke: #000000; stroke-width: 0.6"/>
      </g>
     </g>
    </g>
    <g id="xtick_10">
     <g id="line2d_10">
      <g>
       <use xlink:href="#m6711306add" x="154.352115" y="296.430125" style="stroke: #000000; stroke-width: 0.6"/>
      </g>
     </g>
    </g>
    <g id="xtick_11">
     <g id="line2d_11">
      <g>
       <use xlink:href="#m6711306add" x="162.920966" y="296.430125" style="stroke: #000000; stroke-width: 0.6"/>
      </g>
     </g>
    </g>
    <g id="xtick_12">
     <g id="line2d_12">
      <g>
       <use xlink:href="#m6711306add" x="170.165826" y="296.430125" style="stroke: #000000; stroke-width: 0.6"/>
      </g>
     </g>
    </g>
    <g id="xtick_13">
     <g id="line2d_13">
      <g>
       <use xlink:href="#m6711306add" x="176.441609" y="296.430125" style="stroke: #000000; stroke-width: 0.6"/>
      </g>
     </g>
    </g>
    <g id="xtick_14">
     <g id="line2d_14">
      <g>
       <use xlink:href="#m6711306add" x="181.977242" y="296.430125" style="stroke: #000000; stroke-width: 0.6"/>
      </g>
     </g>
    </g>
    <g id="xtick_15">
     <g id="line2d_15">
      <g>
       <use xlink:href="#m6711306add" x="219.505953" y="296.430125" style="stroke: #000000; stroke-width: 0.6"/>
      </g>
     </g>
    </g>
    <g id="xtick_16">
     <g id="line2d_16">
      <g>
       <use xlink:href="#m6711306add" x="238.562229" y="296.430125" style="stroke: #000000; stroke-width: 0.6"/>
      </g>
     </g>
    </g>
    <g id="xtick_17">
     <g id="line2d_17">
      <g>
       <use xlink:href="#m6711306add" x="252.082872" y="296.430125" style="stroke: #000000; stroke-width: 0.6"/>
      </g>
     </g>
    </g>
    <g id="xtick_18">
     <g id="line2d_18">
      <g>
       <use xlink:href="#m6711306add" x="262.570297" y="296.430125" style="stroke: #000000; stroke-width: 0.6"/>
      </g>
     </g>
    </g>
    <g id="xtick_19">
     <g id="line2d_19">
      <g>
       <use xlink:href="#m6711306add" x="271.139148" y="296.430125" style="stroke: #000000; stroke-width: 0.6"/>
      </g>
     </g>
    </g>
    <g id="xtick_20">
     <g id="line2d_20">
      <g>
       <use xlink:href="#m6711306add" x="278.384007" y="296.430125" style="stroke: #000000; stroke-width: 0.6"/>
      </g>
     </g>
    </g>
    <g id="xtick_21">
     <g id="line2d_21">
      <g>
       <use xlink:href="#m6711306add" x="284.659791" y="296.430125" style="stroke: #000000; stroke-width: 0.6"/>
      </g>
     </g>
    </g>
    <g id="xtick_22">
     <g id="line2d_22">
      <g>
       <use xlink:href="#m6711306add" x="290.195423" y="296.430125" style="stroke: #000000; stroke-width: 0.6"/>
      </g>
     </g>
    </g>
    <g id="xtick_23">
     <g id="line2d_23">
      <g>
       <use xlink:href="#m6711306add" x="327.724135" y="296.430125" style="stroke: #000000; stroke-width: 0.6"/>
      </g>
     </g>
    </g>
    <g id="xtick_24">
     <g id="line2d_24">
      <g>
       <use xlink:href="#m6711306add" x="346.780411" y="296.430125" style="stroke: #000000; stroke-width: 0.6"/>
      </g>
     </g>
    </g>
    <g id="xtick_25">
     <g id="line2d_25">
      <g>
       <use xlink:href="#m6711306add" x="360.301054" y="296.430125" style="stroke: #000000; stroke-width: 0.6"/>
      </g>
     </g>
    </g>
    <g id="xtick_26">
     <g id="line2d_26">
      <g>
       <use xlink:href="#m6711306add" x="370.788479" y="296.430125" style="stroke: #000000; stroke-width: 0.6"/>
      </g>
     </g>
    </g>
    <g id="xtick_27">
     <g id="line2d_27">
      <g>
       <use xlink:href="#m6711306add" x="379.357329" y="296.430125" style="stroke: #000000; stroke-width: 0.6"/>
      </g>
     </g>
    </g>
    <g id="xtick_28">
     <g id="line2d_28">
      <g>
       <use xlink:href="#m6711306add" x="386.602189" y="296.430125" style="stroke: #000000; stroke-width: 0.6"/>
      </g>
     </g>
    </g>
    <g id="xtick_29">
     <g id="line2d_29">
      <g>
       <use xlink:href="#m6711306add" x="392.877972" y="296.430125" style="stroke: #000000; stroke-width: 0.6"/>
      </g>
     </g>
    </g>
    <g id="xtick_30">
     <g id="line2d_30">
      <g>
       <use xlink:href="#m6711306add" x="398.413605" y="296.430125" style="stroke: #000000; stroke-width: 0.6"/>
      </g>
     </g>
    </g>
    <g id="text_5">
     <!-- Epoch -->
     <g transform="translate(224.085 324.706687) scale(0.1 -0.1)">
      <defs>
       <path id="DejaVuSans-Bold-45" d="M 588 4666 
L 3834 4666 
L 3834 3756 
L 1791 3756 
L 1791 2888 
L 3713 2888 
L 3713 1978 
L 1791 1978 
L 1791 909 
L 3903 909 
L 3903 0 
L 588 0 
L 588 4666 
z
" transform="scale(0.015625)"/>
       <path id="DejaVuSans-Bold-70" d="M 1656 506 
L 1656 -1331 
L 538 -1331 
L 538 3500 
L 1656 3500 
L 1656 2988 
Q 1888 3294 2169 3439 
Q 2450 3584 2816 3584 
Q 3463 3584 3878 3070 
Q 4294 2556 4294 1747 
Q 4294 938 3878 423 
Q 3463 -91 2816 -91 
Q 2450 -91 2169 54 
Q 1888 200 1656 506 
z
M 2400 2772 
Q 2041 2772 1848 2508 
Q 1656 2244 1656 1747 
Q 1656 1250 1848 986 
Q 2041 722 2400 722 
Q 2759 722 2948 984 
Q 3138 1247 3138 1747 
Q 3138 2247 2948 2509 
Q 2759 2772 2400 2772 
z
" transform="scale(0.015625)"/>
       <path id="DejaVuSans-Bold-6f" d="M 2203 2784 
Q 1831 2784 1636 2517 
Q 1441 2250 1441 1747 
Q 1441 1244 1636 976 
Q 1831 709 2203 709 
Q 2569 709 2762 976 
Q 2956 1244 2956 1747 
Q 2956 2250 2762 2517 
Q 2569 2784 2203 2784 
z
M 2203 3584 
Q 3106 3584 3614 3096 
Q 4122 2609 4122 1747 
Q 4122 884 3614 396 
Q 3106 -91 2203 -91 
Q 1297 -91 786 396 
Q 275 884 275 1747 
Q 275 2609 786 3096 
Q 1297 3584 2203 3584 
z
" transform="scale(0.015625)"/>
       <path id="DejaVuSans-Bold-63" d="M 3366 3391 
L 3366 2478 
Q 3138 2634 2908 2709 
Q 2678 2784 2431 2784 
Q 1963 2784 1702 2511 
Q 1441 2238 1441 1747 
Q 1441 1256 1702 982 
Q 1963 709 2431 709 
Q 2694 709 2930 787 
Q 3166 866 3366 1019 
L 3366 103 
Q 3103 6 2833 -42 
Q 2563 -91 2291 -91 
Q 1344 -91 809 395 
Q 275 881 275 1747 
Q 275 2613 809 3098 
Q 1344 3584 2291 3584 
Q 2566 3584 2833 3536 
Q 3100 3488 3366 3391 
z
" transform="scale(0.015625)"/>
       <path id="DejaVuSans-Bold-68" d="M 4056 2131 
L 4056 0 
L 2931 0 
L 2931 347 
L 2931 1625 
Q 2931 2084 2911 2256 
Q 2891 2428 2841 2509 
Q 2775 2619 2662 2680 
Q 2550 2741 2406 2741 
Q 2056 2741 1856 2470 
Q 1656 2200 1656 1722 
L 1656 0 
L 538 0 
L 538 4863 
L 1656 4863 
L 1656 2988 
Q 1909 3294 2193 3439 
Q 2478 3584 2822 3584 
Q 3428 3584 3742 3212 
Q 4056 2841 4056 2131 
z
" transform="scale(0.015625)"/>
      </defs>
      <use xlink:href="#DejaVuSans-Bold-45"/>
      <use xlink:href="#DejaVuSans-Bold-70" transform="translate(68.310547 0)"/>
      <use xlink:href="#DejaVuSans-Bold-6f" transform="translate(139.892578 0)"/>
      <use xlink:href="#DejaVuSans-Bold-63" transform="translate(208.59375 0)"/>
      <use xlink:href="#DejaVuSans-Bold-68" transform="translate(267.871094 0)"/>
     </g>
    </g>
   </g>
   <g id="matplotlib.axis_2">
    <g id="ytick_1">
     <g id="line2d_31">
      <defs>
       <path id="m7ee582713a" d="M 0 0 
L -3.5 0 
" style="stroke: #000000; stroke-width: 0.8"/>
      </defs>
      <g>
       <use xlink:href="#m7ee582713a" x="62.478125" y="238.562495" style="stroke: #000000; stroke-width: 0.8"/>
      </g>
     </g>
     <g id="text_6">
      <!-- $\mathdefault{10^{3}}$ -->
      <g transform="translate(37.878125 242.361714) scale(0.1 -0.1)">
       <use xlink:href="#DejaVuSans-31" transform="translate(0 0.765625)"/>
       <use xlink:href="#DejaVuSans-30" transform="translate(63.623047 0.765625)"/>
       <use xlink:href="#DejaVuSans-33" transform="translate(128.203125 39.046875) scale(0.7)"/>
      </g>
     </g>
    </g>
    <g id="ytick_2">
     <g id="line2d_32">
      <defs>
       <path id="mbc5812d2aa" d="M 0 0 
L -2 0 
" style="stroke: #000000; stroke-width: 0.6"/>
      </defs>
      <g>
       <use xlink:href="#mbc5812d2aa" x="62.478125" y="292.628702" style="stroke: #000000; stroke-width: 0.6"/>
      </g>
     </g>
    </g>
    <g id="ytick_3">
     <g id="line2d_33">
      <g>
       <use xlink:href="#mbc5812d2aa" x="62.478125" y="272.387482" style="stroke: #000000; stroke-width: 0.6"/>
      </g>
     </g>
    </g>
    <g id="ytick_4">
     <g id="line2d_34">
      <g>
       <use xlink:href="#mbc5812d2aa" x="62.478125" y="254.533461" style="stroke: #000000; stroke-width: 0.6"/>
      </g>
     </g>
    </g>
    <g id="ytick_5">
     <g id="line2d_35">
      <g>
       <use xlink:href="#mbc5812d2aa" x="62.478125" y="133.492488" style="stroke: #000000; stroke-width: 0.6"/>
      </g>
     </g>
     <g id="text_7">
      <!-- $\mathdefault{2\times10^{3}}$ -->
      <g transform="translate(20.878125 137.291706) scale(0.1 -0.1)">
       <defs>
        <path id="DejaVuSans-d7" d="M 4488 3438 
L 3059 2003 
L 4488 575 
L 4116 197 
L 2681 1631 
L 1247 197 
L 878 575 
L 2303 2003 
L 878 3438 
L 1247 3816 
L 2681 2381 
L 4116 3816 
L 4488 3438 
z
" transform="scale(0.015625)"/>
       </defs>
       <use xlink:href="#DejaVuSans-32" transform="translate(0 0.765625)"/>
       <use xlink:href="#DejaVuSans-d7" transform="translate(83.105469 0.765625)"/>
       <use xlink:href="#DejaVuSans-31" transform="translate(186.376953 0.765625)"/>
       <use xlink:href="#DejaVuSans-30" transform="translate(250 0.765625)"/>
       <use xlink:href="#DejaVuSans-33" transform="translate(314.580078 39.046875) scale(0.7)"/>
      </g>
     </g>
    </g>
    <g id="ytick_6">
     <g id="line2d_36">
      <g>
       <use xlink:href="#mbc5812d2aa" x="62.478125" y="72.030473" style="stroke: #000000; stroke-width: 0.6"/>
      </g>
     </g>
     <g id="text_8">
      <!-- $\mathdefault{3\times10^{3}}$ -->
      <g transform="translate(20.878125 75.829692) scale(0.1 -0.1)">
       <use xlink:href="#DejaVuSans-33" transform="translate(0 0.765625)"/>
       <use xlink:href="#DejaVuSans-d7" transform="translate(83.105469 0.765625)"/>
       <use xlink:href="#DejaVuSans-31" transform="translate(186.376953 0.765625)"/>
       <use xlink:href="#DejaVuSans-30" transform="translate(250 0.765625)"/>
       <use xlink:href="#DejaVuSans-33" transform="translate(314.580078 39.046875) scale(0.7)"/>
      </g>
     </g>
    </g>
    <g id="text_9">
     <!-- Mean Squared Error -->
     <g transform="translate(14.798438 219.953031) rotate(-90) scale(0.1 -0.1)">
      <defs>
       <path id="DejaVuSans-Bold-4d" d="M 588 4666 
L 2119 4666 
L 3181 2169 
L 4250 4666 
L 5778 4666 
L 5778 0 
L 4641 0 
L 4641 3413 
L 3566 897 
L 2803 897 
L 1728 3413 
L 1728 0 
L 588 0 
L 588 4666 
z
" transform="scale(0.015625)"/>
       <path id="DejaVuSans-Bold-65" d="M 4031 1759 
L 4031 1441 
L 1416 1441 
Q 1456 1047 1700 850 
Q 1944 653 2381 653 
Q 2734 653 3104 758 
Q 3475 863 3866 1075 
L 3866 213 
Q 3469 63 3072 -14 
Q 2675 -91 2278 -91 
Q 1328 -91 801 392 
Q 275 875 275 1747 
Q 275 2603 792 3093 
Q 1309 3584 2216 3584 
Q 3041 3584 3536 3087 
Q 4031 2591 4031 1759 
z
M 2881 2131 
Q 2881 2450 2695 2645 
Q 2509 2841 2209 2841 
Q 1884 2841 1681 2658 
Q 1478 2475 1428 2131 
L 2881 2131 
z
" transform="scale(0.015625)"/>
       <path id="DejaVuSans-Bold-61" d="M 2106 1575 
Q 1756 1575 1579 1456 
Q 1403 1338 1403 1106 
Q 1403 894 1545 773 
Q 1688 653 1941 653 
Q 2256 653 2472 879 
Q 2688 1106 2688 1447 
L 2688 1575 
L 2106 1575 
z
M 3816 1997 
L 3816 0 
L 2688 0 
L 2688 519 
Q 2463 200 2181 54 
Q 1900 -91 1497 -91 
Q 953 -91 614 226 
Q 275 544 275 1050 
Q 275 1666 698 1953 
Q 1122 2241 2028 2241 
L 2688 2241 
L 2688 2328 
Q 2688 2594 2478 2717 
Q 2269 2841 1825 2841 
Q 1466 2841 1156 2769 
Q 847 2697 581 2553 
L 581 3406 
Q 941 3494 1303 3539 
Q 1666 3584 2028 3584 
Q 2975 3584 3395 3211 
Q 3816 2838 3816 1997 
z
" transform="scale(0.015625)"/>
       <path id="DejaVuSans-Bold-6e" d="M 4056 2131 
L 4056 0 
L 2931 0 
L 2931 347 
L 2931 1631 
Q 2931 2084 2911 2256 
Q 2891 2428 2841 2509 
Q 2775 2619 2662 2680 
Q 2550 2741 2406 2741 
Q 2056 2741 1856 2470 
Q 1656 2200 1656 1722 
L 1656 0 
L 538 0 
L 538 3500 
L 1656 3500 
L 1656 2988 
Q 1909 3294 2193 3439 
Q 2478 3584 2822 3584 
Q 3428 3584 3742 3212 
Q 4056 2841 4056 2131 
z
" transform="scale(0.015625)"/>
       <path id="DejaVuSans-Bold-20" transform="scale(0.015625)"/>
       <path id="DejaVuSans-Bold-53" d="M 3834 4519 
L 3834 3531 
Q 3450 3703 3084 3790 
Q 2719 3878 2394 3878 
Q 1963 3878 1756 3759 
Q 1550 3641 1550 3391 
Q 1550 3203 1689 3098 
Q 1828 2994 2194 2919 
L 2706 2816 
Q 3484 2659 3812 2340 
Q 4141 2022 4141 1434 
Q 4141 663 3683 286 
Q 3225 -91 2284 -91 
Q 1841 -91 1394 -6 
Q 947 78 500 244 
L 500 1259 
Q 947 1022 1364 901 
Q 1781 781 2169 781 
Q 2563 781 2772 912 
Q 2981 1044 2981 1288 
Q 2981 1506 2839 1625 
Q 2697 1744 2272 1838 
L 1806 1941 
Q 1106 2091 782 2419 
Q 459 2747 459 3303 
Q 459 4000 909 4375 
Q 1359 4750 2203 4750 
Q 2588 4750 2994 4692 
Q 3400 4634 3834 4519 
z
" transform="scale(0.015625)"/>
       <path id="DejaVuSans-Bold-71" d="M 2181 2772 
Q 1825 2772 1636 2509 
Q 1447 2247 1447 1747 
Q 1447 1247 1636 984 
Q 1825 722 2181 722 
Q 2541 722 2730 984 
Q 2919 1247 2919 1747 
Q 2919 2247 2730 2509 
Q 2541 2772 2181 2772 
z
M 2919 506 
Q 2688 197 2409 53 
Q 2131 -91 1766 -91 
Q 1119 -91 703 423 
Q 288 938 288 1747 
Q 288 2556 703 3067 
Q 1119 3578 1766 3578 
Q 2131 3578 2409 3434 
Q 2688 3291 2919 2981 
L 2919 3500 
L 4044 3500 
L 4044 -1331 
L 2919 -1331 
L 2919 506 
z
" transform="scale(0.015625)"/>
       <path id="DejaVuSans-Bold-75" d="M 500 1363 
L 500 3500 
L 1625 3500 
L 1625 3150 
Q 1625 2866 1622 2436 
Q 1619 2006 1619 1863 
Q 1619 1441 1641 1255 
Q 1663 1069 1716 984 
Q 1784 875 1895 815 
Q 2006 756 2150 756 
Q 2500 756 2700 1025 
Q 2900 1294 2900 1772 
L 2900 3500 
L 4019 3500 
L 4019 0 
L 2900 0 
L 2900 506 
Q 2647 200 2364 54 
Q 2081 -91 1741 -91 
Q 1134 -91 817 281 
Q 500 653 500 1363 
z
" transform="scale(0.015625)"/>
       <path id="DejaVuSans-Bold-72" d="M 3138 2547 
Q 2991 2616 2845 2648 
Q 2700 2681 2553 2681 
Q 2122 2681 1889 2404 
Q 1656 2128 1656 1613 
L 1656 0 
L 538 0 
L 538 3500 
L 1656 3500 
L 1656 2925 
Q 1872 3269 2151 3426 
Q 2431 3584 2822 3584 
Q 2878 3584 2943 3579 
Q 3009 3575 3134 3559 
L 3138 2547 
z
" transform="scale(0.015625)"/>
       <path id="DejaVuSans-Bold-64" d="M 2919 2988 
L 2919 4863 
L 4044 4863 
L 4044 0 
L 2919 0 
L 2919 506 
Q 2688 197 2409 53 
Q 2131 -91 1766 -91 
Q 1119 -91 703 423 
Q 288 938 288 1747 
Q 288 2556 703 3070 
Q 1119 3584 1766 3584 
Q 2128 3584 2408 3439 
Q 2688 3294 2919 2988 
z
M 2181 722 
Q 2541 722 2730 984 
Q 2919 1247 2919 1747 
Q 2919 2247 2730 2509 
Q 2541 2772 2181 2772 
Q 1825 2772 1636 2509 
Q 1447 2247 1447 1747 
Q 1447 1247 1636 984 
Q 1825 722 2181 722 
z
" transform="scale(0.015625)"/>
      </defs>
      <use xlink:href="#DejaVuSans-Bold-4d"/>
      <use xlink:href="#DejaVuSans-Bold-65" transform="translate(99.511719 0)"/>
      <use xlink:href="#DejaVuSans-Bold-61" transform="translate(167.333984 0)"/>
      <use xlink:href="#DejaVuSans-Bold-6e" transform="translate(234.814453 0)"/>
      <use xlink:href="#DejaVuSans-Bold-20" transform="translate(306.005859 0)"/>
      <use xlink:href="#DejaVuSans-Bold-53" transform="translate(340.820312 0)"/>
      <use xlink:href="#DejaVuSans-Bold-71" transform="translate(412.841797 0)"/>
      <use xlink:href="#DejaVuSans-Bold-75" transform="translate(484.423828 0)"/>
      <use xlink:href="#DejaVuSans-Bold-61" transform="translate(555.615234 0)"/>
      <use xlink:href="#DejaVuSans-Bold-72" transform="translate(623.095703 0)"/>
      <use xlink:href="#DejaVuSans-Bold-65" transform="translate(672.412109 0)"/>
      <use xlink:href="#DejaVuSans-Bold-64" transform="translate(740.234375 0)"/>
      <use xlink:href="#DejaVuSans-Bold-20" transform="translate(811.816406 0)"/>
      <use xlink:href="#DejaVuSans-Bold-45" transform="translate(846.630859 0)"/>
      <use xlink:href="#DejaVuSans-Bold-72" transform="translate(914.941406 0)"/>
      <use xlink:href="#DejaVuSans-Bold-72" transform="translate(964.257812 0)"/>
      <use xlink:href="#DejaVuSans-Bold-6f" transform="translate(1013.574219 0)"/>
      <use xlink:href="#DejaVuSans-Bold-72" transform="translate(1082.275391 0)"/>
     </g>
    </g>
   </g>
   <g id="line2d_37">
    <path d="M 78.710852 42.414125 
L 111.287771 235.01407 
L 143.86469 236.542843 
L 162.920966 237.869054 
L 170.165826 238.698083 
L 181.977242 240.492061 
L 186.929034 241.358294 
L 195.497885 242.692073 
L 199.259777 243.631139 
L 202.742744 244.734395 
L 205.98531 247.186356 
L 209.018527 248.058323 
L 211.867797 249.659558 
L 214.55416 252.814899 
L 217.095242 254.055617 
L 219.505953 255.498166 
L 223.985394 260.371991 
L 226.074563 264.921043 
L 228.074803 268.376469 
L 229.993378 270.380777 
L 231.836695 271.643289 
L 233.610436 270.518488 
L 235.319663 274.403537 
L 236.968905 273.665158 
L 238.562229 275.979807 
L 243.04167 277.066158 
L 244.444716 277.222382 
L 245.807089 277.075166 
L 248.418792 277.036228 
L 250.892971 275.206763 
L 252.082872 277.186776 
L 253.243389 275.381853 
L 254.375939 275.883979 
L 255.481839 277.292976 
L 256.562313 277.535719 
L 257.618505 277.513307 
L 258.651482 277.840135 
L 259.662242 277.883059 
L 261.620799 278.485536 
L 262.570297 278.546014 
L 264.413614 278.880901 
L 267.896582 279.254726 
L 271.139148 279.686758 
L 275.618589 279.954533 
L 277.021635 280.138549 
L 277.707758 279.721932 
L 279.707998 280.008991 
L 280.99571 280.077117 
L 281.626573 280.087424 
L 282.24908 279.896458 
L 282.863449 280.193103 
L 284.068606 280.142373 
L 285.820308 280.250885 
L 286.389994 280.247635 
L 286.952858 279.617684 
L 287.50906 280.011332 
L 288.058757 280.182679 
L 288.602099 280.198064 
L 289.139232 279.842846 
L 289.670294 280.533081 
L 290.195423 280.222141 
L 292.239161 280.126256 
L 292.736505 280.04087 
L 293.715677 280.030426 
L 296.077911 279.862124 
L 296.536437 280.376611 
L 296.990533 280.137107 
L 298.764274 280.184658 
L 299.197443 281.301188 
L 299.626657 280.63631 
L 300.051986 280.46559 
L 300.473501 281.094338 
L 300.891269 280.44389 
L 301.305355 280.756009 
L 302.526166 280.733097 
L 304.106098 281.109642 
L 304.876584 281.144577 
L 305.634641 281.279876 
L 306.009134 281.160827 
L 308.550215 281.578829 
L 308.902266 281.151512 
L 309.251699 281.305628 
L 309.598554 281.784361 
L 310.284676 281.853651 
L 310.960926 281.80294 
L 311.295437 281.9546 
L 313.253994 282.015797 
L 315.134187 282.204987 
L 315.440367 282.027001 
L 316.046809 282.332033 
L 316.942047 282.330587 
L 320.361631 282.585778 
L 320.635676 282.009254 
L 320.908132 282.233999 
L 321.179018 282.624277 
L 321.448352 282.340904 
L 322.247213 282.575986 
L 322.510511 282.517048 
L 323.032723 282.61522 
L 330.462689 283.091042 
L 330.903994 282.760209 
L 331.123102 283.096832 
L 331.558277 283.150432 
L 331.774362 283.008586 
L 331.989459 282.650664 
L 332.203576 283.103577 
L 332.416722 283.224152 
L 332.840135 283.246555 
L 334.496643 283.452333 
L 334.699661 283.066243 
L 335.303505 283.353475 
L 336.488406 283.172539 
L 336.876826 283.405218 
L 337.83406 283.420941 
L 338.21156 283.170634 
L 338.399179 283.447945 
L 338.772186 283.493433 
L 339.326203 283.478382 
L 340.235294 283.545788 
L 340.594063 283.512541 
L 341.127134 283.565957 
L 341.303489 283.048923 
L 341.479185 283.454958 
L 341.828618 283.561125 
L 342.691001 283.605169 
L 342.861595 283.398442 
L 343.031572 283.617747 
L 343.369693 283.521384 
L 343.537845 283.695446 
L 344.3697 283.602195 
L 344.861836 283.669676 
L 345.830912 283.757057 
L 346.308059 283.759012 
L 355.997527 283.956505 
L 356.126114 283.744096 
L 356.254351 283.867124 
L 356.382238 283.242091 
L 356.636973 283.86918 
L 357.016506 283.970294 
L 357.766499 284.076353 
L 358.626627 284.002247 
L 359.351555 284.026878 
L 359.590734 284.002595 
L 359.828702 284.04958 
L 359.947236 284.007237 
L 360.18341 284.079659 
L 360.768705 283.981938 
L 360.884894 284.07584 
L 361.231748 283.796056 
L 361.461571 283.991981 
L 362.817392 284.032193 
L 363.039608 284.076812 
L 363.260778 284.100308 
L 363.809192 284.012964 
L 364.243362 284.010388 
L 365.417054 284.05455 
L 366.252606 283.970534 
L 366.562147 284.030278 
L 366.767381 284.05417 
L 367.073562 284.080923 
L 367.27658 284.038117 
L 371.719174 284.053377 
L 371.903122 284.050128 
L 372.268871 284.085928 
L 372.631796 284.023113 
L 373.260248 284.018746 
L 374.231145 284.008851 
L 375.438514 284.164037 
L 376.030763 284.060701 
L 376.282317 284.125648 
L 376.449275 284.029671 
L 376.946618 284.09645 
L 377.111237 284.106689 
L 379.357329 284.155103 
L 379.513731 284.114729 
L 379.824981 284.09135 
L 380.057073 284.100276 
L 380.364757 284.107302 
L 380.594205 284.075939 
L 380.746551 284.065435 
L 381.724939 284.092655 
L 382.390547 284.108051 
L 382.537188 284.117349 
L 383.119221 284.052133 
L 383.479365 284.145888 
L 384.2621 284.10838 
L 384.613624 284.170692 
L 384.962538 284.063246 
L 385.032011 284.193406 
L 385.101382 284.150217 
L 385.446707 284.076823 
L 385.789514 284.101431 
L 386.06197 284.068574 
L 386.265281 284.164484 
L 386.669282 284.111046 
L 386.9367 284.166661 
L 387.06984 284.109049 
L 387.268847 284.163538 
L 387.860859 284.16355 
L 388.445506 284.138749 
L 388.574446 284.178766 
L 388.767195 284.150268 
L 389.340744 284.098688 
L 389.467254 284.1233 
L 389.719258 284.100346 
L 389.782048 283.994591 
L 389.907378 284.088731 
L 390.032374 284.043585 
L 390.77545 284.153731 
L 391.142628 284.142472 
L 391.385829 284.138089 
L 391.808427 284.165146 
L 393.461813 284.11351 
L 393.63556 284.173564 
L 393.751036 284.132071 
L 393.923719 284.124214 
L 393.981139 284.128006 
L 394.03849 283.983515 
L 394.09577 284.070465 
L 394.210122 284.139245 
L 394.381129 284.132909 
L 394.551517 284.149469 
L 395.115056 284.089957 
L 395.282808 284.039306 
L 395.449964 284.173553 
L 395.727242 284.151276 
L 395.947893 284.115932 
L 396.222258 284.165249 
L 396.49503 284.164614 
L 396.820281 284.168948 
L 396.874272 284.023676 
L 396.9282 284.149563 
L 397.089615 284.162377 
L 397.357413 284.180654 
L 397.410791 284.078148 
L 397.464107 284.15615 
L 397.623695 284.149585 
L 397.993973 284.261457 
L 398.256682 284.214686 
L 398.413605 284.203171 
L 398.570007 284.150131 
L 398.725889 284.274737 
L 398.777735 284.184088 
L 398.98455 284.202051 
L 399.190459 284.241057 
L 399.752099 284.152131 
L 399.802826 284.035956 
L 399.853499 284.145691 
L 400.055643 284.263779 
L 400.206683 284.286862 
L 400.457343 284.266531 
L 400.855638 284.252979 
L 401.053527 284.259125 
L 401.39784 284.178067 
L 401.544635 284.24177 
L 401.788277 284.293225 
L 402.798004 284.246556 
L 402.845549 284.177361 
L 402.893046 284.252273 
L 403.129815 284.262364 
L 403.365398 284.294858 
L 403.365398 284.294858 
" clip-path="url(#p21b488cce9)" style="fill: none; stroke: #1f77b4; stroke-width: 1.5; stroke-linecap: square"/>
   </g>
   <g id="line2d_38">
    <path d="M 78.710852 238.389952 
L 111.287771 238.959407 
L 130.344047 239.6547 
L 143.86469 240.857342 
L 154.352115 241.13205 
L 181.977242 243.815642 
L 186.929034 244.071144 
L 191.408475 244.077249 
L 199.259777 243.599283 
L 202.742744 248.621416 
L 205.98531 247.67966 
L 209.018527 252.215151 
L 214.55416 258.7816 
L 217.095242 259.285068 
L 219.505953 264.468593 
L 221.79902 266.139758 
L 223.985394 267.391548 
L 226.074563 256.576142 
L 228.074803 262.433684 
L 229.993378 265.566894 
L 231.836695 273.322414 
L 233.610436 262.341909 
L 235.319663 266.956779 
L 236.968905 263.757308 
L 238.562229 267.795746 
L 240.103303 267.521112 
L 241.595446 267.378668 
L 243.04167 267.844121 
L 244.444716 267.72991 
L 245.807089 267.333243 
L 247.131079 267.899724 
L 248.418792 270.675951 
L 249.672161 274.859344 
L 250.892971 270.706952 
L 252.082872 277.981451 
L 253.243389 281.828927 
L 257.618505 282.207941 
L 258.651482 282.394906 
L 259.662242 282.257273 
L 266.187355 282.320863 
L 268.728437 282.201234 
L 270.349237 281.962277 
L 272.680222 281.641263 
L 274.172365 281.568111 
L 276.325347 281.234949 
L 277.021635 280.982085 
L 277.707758 281.39503 
L 278.384007 280.767786 
L 279.050665 280.880804 
L 280.356264 280.151058 
L 280.99571 280.216197 
L 282.24908 279.939076 
L 283.46989 279.259125 
L 284.068606 279.26935 
L 284.659791 279.042397 
L 285.820308 278.744884 
L 286.389994 278.588851 
L 286.952858 280.702661 
L 287.50906 277.896344 
L 288.602099 277.783329 
L 289.139232 278.695272 
L 289.670294 277.627318 
L 290.71475 277.151453 
L 291.736498 276.964517 
L 292.239161 276.734632 
L 294.674865 276.964392 
L 295.147216 277.28584 
L 295.614867 277.436326 
L 296.077911 277.856084 
L 296.536437 277.592901 
L 297.885771 278.782602 
L 298.327075 279.024212 
L 298.764274 280.613184 
L 299.197443 278.948802 
L 299.626657 278.75785 
L 300.051986 277.706739 
L 300.473501 278.748907 
L 300.891269 276.334167 
L 301.305355 278.587977 
L 302.526166 280.112482 
L 303.322771 280.438427 
L 304.49292 280.447393 
L 305.634641 280.656869 
L 306.009134 279.386948 
L 306.380666 280.538234 
L 306.749284 280.887002 
L 308.550215 280.949443 
L 308.902266 279.785745 
L 309.251699 281.270394 
L 310.624018 281.138726 
L 311.295437 281.287683 
L 311.627584 281.208544 
L 312.284917 281.315843 
L 313.572629 281.272203 
L 313.889119 281.439851 
L 314.825998 281.385485 
L 315.134187 281.244976 
L 315.440367 281.437403 
L 316.34712 281.48105 
L 317.82055 281.542804 
L 318.109773 281.527244 
L 318.397227 281.727586 
L 318.682933 281.618792 
L 319.249187 281.641211 
L 319.529777 281.62907 
L 319.808701 281.753004 
L 320.085979 281.701743 
L 320.361631 281.354694 
L 320.635676 281.236095 
L 320.908132 281.835292 
L 321.179018 281.424048 
L 321.71615 281.665398 
L 321.982432 281.77791 
L 322.247213 281.662707 
L 322.510511 281.783534 
L 323.805319 281.840138 
L 325.80556 281.901543 
L 326.049709 281.765489 
L 326.292596 282.044684 
L 327.251783 281.952858 
L 327.488552 282.056647 
L 328.191786 281.973835 
L 328.65483 282.102178 
L 330.462689 282.127308 
L 330.68386 281.393261 
L 330.903994 282.176676 
L 331.558277 282.269975 
L 331.774362 281.369353 
L 331.989459 281.97083 
L 332.203576 282.204444 
L 333.259768 282.211675 
L 333.468187 282.17261 
L 333.882274 282.325192 
L 334.292745 282.297472 
L 334.496643 282.373373 
L 334.699661 281.947824 
L 335.103085 282.368397 
L 335.303505 282.225255 
L 335.89969 282.320958 
L 336.292985 282.200895 
L 336.683017 282.341562 
L 337.83406 282.331205 
L 338.023189 281.657725 
L 338.21156 282.301397 
L 338.399179 282.286739 
L 338.586053 282.411299 
L 338.957585 282.320735 
L 339.142255 282.400285 
L 339.326203 282.355063 
L 339.509433 282.426146 
L 339.691952 282.191091 
L 339.873765 282.453127 
L 340.594063 282.443987 
L 341.479185 282.467556 
L 341.654226 282.3089 
L 341.828618 282.479767 
L 342.002365 282.480477 
L 342.175473 282.341416 
L 342.519786 282.475696 
L 342.691001 282.465314 
L 342.861595 282.571511 
L 343.031572 282.44884 
L 343.200936 281.938591 
L 343.369693 282.54872 
L 343.537845 282.440544 
L 343.872356 282.45147 
L 344.038723 281.945118 
L 344.204502 282.409208 
L 344.534318 282.45298 
L 345.187087 282.42427 
L 345.348872 282.351708 
L 345.670781 282.539149 
L 345.830912 282.446056 
L 346.466038 282.511497 
L 347.092695 282.453676 
L 347.248062 282.525271 
L 347.711106 282.45446 
L 348.169632 282.435711 
L 348.472849 282.53106 
L 348.774123 282.469393 
L 349.370938 282.536192 
L 349.518965 282.425873 
L 349.96027 282.465786 
L 350.252187 282.372664 
L 350.397469 282.48647 
L 350.542303 282.449171 
L 350.686691 282.567272 
L 350.830638 282.433112 
L 351.117216 282.483342 
L 351.259852 282.483277 
L 351.402056 282.602792 
L 351.543832 282.478754 
L 351.826106 282.550593 
L 352.106696 282.479856 
L 352.93855 282.543577 
L 353.075772 282.420674 
L 353.212595 282.55317 
L 353.349021 282.515069 
L 353.485051 282.624538 
L 353.755937 282.527108 
L 353.890797 282.608692 
L 354.159361 282.53528 
L 354.293069 282.495956 
L 354.426399 282.612558 
L 354.559351 282.485378 
L 354.691928 282.600047 
L 354.824132 282.53039 
L 355.08743 282.621406 
L 355.479632 282.548565 
L 355.868587 282.673139 
L 356.254351 282.135364 
L 356.382238 282.148189 
L 356.636973 282.417297 
L 357.142339 282.655746 
L 357.517829 282.634761 
L 358.013861 282.669916 
L 358.259927 282.635706 
L 358.748228 282.708549 
L 358.990489 282.700972 
L 359.111153 282.614367 
L 359.351555 282.796809 
L 359.590734 282.691117 
L 359.709869 282.785039 
L 359.947236 282.70987 
L 360.18341 282.752059 
L 360.884894 282.688183 
L 361.231748 282.549952 
L 361.3468 282.709618 
L 361.576062 282.670282 
L 362.144371 282.730401 
L 362.257212 282.681125 
L 362.482086 282.757005 
L 362.928632 282.747943 
L 363.150323 282.800445 
L 363.809192 282.861264 
L 363.918112 282.681945 
L 364.135195 282.877182 
L 364.351281 282.857894 
L 365.205824 282.88287 
L 365.417054 282.901678 
L 365.941012 282.842337 
L 366.045106 282.941341 
L 366.14897 282.85426 
L 366.252606 282.936815 
L 366.356013 282.850312 
L 366.562147 282.927755 
L 366.869663 282.927042 
L 367.27658 282.931499 
L 367.478725 282.89144 
L 367.780321 282.934581 
L 368.278719 282.883305 
L 368.476608 282.939191 
L 369.259936 282.971567 
L 369.453745 282.930529 
L 369.838981 283.008994 
L 370.600108 282.897232 
L 370.788479 282.989469 
L 371.719174 283.041555 
L 371.903122 283.02477 
L 371.994826 283.052811 
L 372.086352 282.863874 
L 372.268871 283.000569 
L 372.450684 283.010099 
L 373.349345 283.047765 
L 373.527034 283.069674 
L 373.968338 283.063988 
L 375.523579 283.085423 
L 375.608491 282.896041 
L 375.777855 283.043432 
L 376.030763 282.920084 
L 376.114764 283.123895 
L 376.198615 283.061106 
L 377.520278 283.013913 
L 377.601661 282.906882 
L 377.844968 283.089298 
L 378.407831 283.096915 
L 379.435595 283.106904 
L 379.591737 283.055449 
L 379.902472 283.107957 
L 380.057073 283.071095 
L 380.441364 283.088964 
L 380.594205 283.032512 
L 380.974147 283.115804 
L 381.200646 283.04612 
L 381.42606 283.115944 
L 381.947857 283.060701 
L 382.463925 283.092253 
L 382.974387 283.128382 
L 383.04686 283.046267 
L 383.119221 283.119699 
L 383.26361 283.109695 
L 383.551064 283.192353 
L 383.694134 283.135454 
L 384.120751 283.140454 
L 384.403025 283.141219 
L 384.823283 283.135633 
L 384.892962 282.963026 
L 385.032011 283.127649 
L 385.446707 283.153496 
L 385.58413 283.138193 
L 385.994004 283.137113 
L 386.467715 283.175315 
L 386.736279 283.178772 
L 387.003317 283.147216 
L 387.268847 283.197161 
L 387.401051 283.175588 
L 387.795447 283.136356 
L 388.05655 283.12562 
L 388.1216 283.20019 
L 388.18656 283.124535 
L 388.445506 283.152289 
L 389.02297 283.145408 
L 389.150338 283.13897 
L 389.656384 283.119739 
L 389.719258 282.886876 
L 389.782048 283.158102 
L 389.844755 283.100801 
L 390.40538 283.117449 
L 390.529061 283.095279 
L 390.959397 283.152967 
L 391.203546 283.198678 
L 391.385829 283.176381 
L 391.567408 283.17177 
L 391.748288 283.197165 
L 392.286788 283.162783 
L 392.464925 283.169038 
L 392.819187 283.136064 
L 393.5198 283.163944 
L 394.946703 283.141859 
L 395.616527 283.142936 
L 395.782502 283.198149 
L 396.222258 283.164445 
L 396.440602 283.157607 
L 396.712114 283.124809 
L 397.410791 283.15935 
L 397.570559 283.121496 
L 397.782743 283.130914 
L 402.511717 282.864156 
L 402.655079 282.818915 
L 402.798004 282.896057 
L 403.365398 282.83813 
L 403.365398 282.83813 
" clip-path="url(#p21b488cce9)" style="fill: none; stroke: #ff7f0e; stroke-width: 1.5; stroke-linecap: square"/>
   </g>
   <g id="patch_3">
    <path d="M 62.478125 296.430125 
L 62.478125 30.318125 
" style="fill: none; stroke: #000000; stroke-width: 0.8; stroke-linejoin: miter; stroke-linecap: square"/>
   </g>
   <g id="patch_4">
    <path d="M 419.598125 296.430125 
L 419.598125 30.318125 
" style="fill: none; stroke: #000000; stroke-width: 0.8; stroke-linejoin: miter; stroke-linecap: square"/>
   </g>
   <g id="patch_5">
    <path d="M 62.478125 296.430125 
L 419.598125 296.430125 
" style="fill: none; stroke: #000000; stroke-width: 0.8; stroke-linejoin: miter; stroke-linecap: square"/>
   </g>
   <g id="patch_6">
    <path d="M 62.478125 30.318125 
L 419.598125 30.318125 
" style="fill: none; stroke: #000000; stroke-width: 0.8; stroke-linejoin: miter; stroke-linecap: square"/>
   </g>
   <g id="text_10">
    <!-- Loss per Epoch (Standard MLP on Division mod 97) -->
    <g transform="translate(68.3525 16.318125) scale(0.12 -0.12)">
     <defs>
      <path id="DejaVuSans-Bold-4c" d="M 588 4666 
L 1791 4666 
L 1791 909 
L 3903 909 
L 3903 0 
L 588 0 
L 588 4666 
z
" transform="scale(0.015625)"/>
      <path id="DejaVuSans-Bold-73" d="M 3272 3391 
L 3272 2541 
Q 2913 2691 2578 2766 
Q 2244 2841 1947 2841 
Q 1628 2841 1473 2761 
Q 1319 2681 1319 2516 
Q 1319 2381 1436 2309 
Q 1553 2238 1856 2203 
L 2053 2175 
Q 2913 2066 3209 1816 
Q 3506 1566 3506 1031 
Q 3506 472 3093 190 
Q 2681 -91 1863 -91 
Q 1516 -91 1145 -36 
Q 775 19 384 128 
L 384 978 
Q 719 816 1070 734 
Q 1422 653 1784 653 
Q 2113 653 2278 743 
Q 2444 834 2444 1013 
Q 2444 1163 2330 1236 
Q 2216 1309 1875 1350 
L 1678 1375 
Q 931 1469 631 1722 
Q 331 1975 331 2491 
Q 331 3047 712 3315 
Q 1094 3584 1881 3584 
Q 2191 3584 2531 3537 
Q 2872 3491 3272 3391 
z
" transform="scale(0.015625)"/>
      <path id="DejaVuSans-Bold-28" d="M 2413 -844 
L 1484 -844 
Q 1006 -72 778 623 
Q 550 1319 550 2003 
Q 550 2688 779 3389 
Q 1009 4091 1484 4856 
L 2413 4856 
Q 2013 4116 1813 3408 
Q 1613 2700 1613 2009 
Q 1613 1319 1811 609 
Q 2009 -100 2413 -844 
z
" transform="scale(0.015625)"/>
      <path id="DejaVuSans-Bold-74" d="M 1759 4494 
L 1759 3500 
L 2913 3500 
L 2913 2700 
L 1759 2700 
L 1759 1216 
Q 1759 972 1856 886 
Q 1953 800 2241 800 
L 2816 800 
L 2816 0 
L 1856 0 
Q 1194 0 917 276 
Q 641 553 641 1216 
L 641 2700 
L 84 2700 
L 84 3500 
L 641 3500 
L 641 4494 
L 1759 4494 
z
" transform="scale(0.015625)"/>
      <path id="DejaVuSans-Bold-50" d="M 588 4666 
L 2584 4666 
Q 3475 4666 3951 4270 
Q 4428 3875 4428 3144 
Q 4428 2409 3951 2014 
Q 3475 1619 2584 1619 
L 1791 1619 
L 1791 0 
L 588 0 
L 588 4666 
z
M 1791 3794 
L 1791 2491 
L 2456 2491 
Q 2806 2491 2997 2661 
Q 3188 2831 3188 3144 
Q 3188 3456 2997 3625 
Q 2806 3794 2456 3794 
L 1791 3794 
z
" transform="scale(0.015625)"/>
      <path id="DejaVuSans-Bold-44" d="M 1791 3756 
L 1791 909 
L 2222 909 
Q 2959 909 3348 1275 
Q 3738 1641 3738 2338 
Q 3738 3031 3350 3393 
Q 2963 3756 2222 3756 
L 1791 3756 
z
M 588 4666 
L 1856 4666 
Q 2919 4666 3439 4514 
Q 3959 4363 4331 4000 
Q 4659 3684 4818 3271 
Q 4978 2859 4978 2338 
Q 4978 1809 4818 1395 
Q 4659 981 4331 666 
Q 3956 303 3431 151 
Q 2906 0 1856 0 
L 588 0 
L 588 4666 
z
" transform="scale(0.015625)"/>
      <path id="DejaVuSans-Bold-69" d="M 538 3500 
L 1656 3500 
L 1656 0 
L 538 0 
L 538 3500 
z
M 538 4863 
L 1656 4863 
L 1656 3950 
L 538 3950 
L 538 4863 
z
" transform="scale(0.015625)"/>
      <path id="DejaVuSans-Bold-76" d="M 97 3500 
L 1216 3500 
L 2088 1081 
L 2956 3500 
L 4078 3500 
L 2700 0 
L 1472 0 
L 97 3500 
z
" transform="scale(0.015625)"/>
      <path id="DejaVuSans-Bold-6d" d="M 3781 2919 
Q 3994 3244 4286 3414 
Q 4578 3584 4928 3584 
Q 5531 3584 5847 3212 
Q 6163 2841 6163 2131 
L 6163 0 
L 5038 0 
L 5038 1825 
Q 5041 1866 5042 1909 
Q 5044 1953 5044 2034 
Q 5044 2406 4934 2573 
Q 4825 2741 4581 2741 
Q 4263 2741 4089 2478 
Q 3916 2216 3909 1719 
L 3909 0 
L 2784 0 
L 2784 1825 
Q 2784 2406 2684 2573 
Q 2584 2741 2328 2741 
Q 2006 2741 1831 2477 
Q 1656 2213 1656 1722 
L 1656 0 
L 531 0 
L 531 3500 
L 1656 3500 
L 1656 2988 
Q 1863 3284 2130 3434 
Q 2397 3584 2719 3584 
Q 3081 3584 3359 3409 
Q 3638 3234 3781 2919 
z
" transform="scale(0.015625)"/>
      <path id="DejaVuSans-Bold-39" d="M 641 103 
L 641 966 
Q 928 831 1190 764 
Q 1453 697 1709 697 
Q 2247 697 2547 995 
Q 2847 1294 2900 1881 
Q 2688 1725 2447 1647 
Q 2206 1569 1925 1569 
Q 1209 1569 770 1986 
Q 331 2403 331 3084 
Q 331 3838 820 4291 
Q 1309 4744 2131 4744 
Q 3044 4744 3544 4128 
Q 4044 3513 4044 2388 
Q 4044 1231 3459 570 
Q 2875 -91 1856 -91 
Q 1528 -91 1228 -42 
Q 928 6 641 103 
z
M 2125 2350 
Q 2441 2350 2600 2554 
Q 2759 2759 2759 3169 
Q 2759 3575 2600 3781 
Q 2441 3988 2125 3988 
Q 1809 3988 1650 3781 
Q 1491 3575 1491 3169 
Q 1491 2759 1650 2554 
Q 1809 2350 2125 2350 
z
" transform="scale(0.015625)"/>
      <path id="DejaVuSans-Bold-37" d="M 428 4666 
L 3944 4666 
L 3944 3988 
L 2125 0 
L 953 0 
L 2675 3781 
L 428 3781 
L 428 4666 
z
" transform="scale(0.015625)"/>
      <path id="DejaVuSans-Bold-29" d="M 513 -844 
Q 913 -100 1113 609 
Q 1313 1319 1313 2009 
Q 1313 2700 1113 3408 
Q 913 4116 513 4856 
L 1441 4856 
Q 1916 4091 2145 3389 
Q 2375 2688 2375 2003 
Q 2375 1319 2147 623 
Q 1919 -72 1441 -844 
L 513 -844 
z
" transform="scale(0.015625)"/>
     </defs>
     <use xlink:href="#DejaVuSans-Bold-4c"/>
     <use xlink:href="#DejaVuSans-Bold-6f" transform="translate(63.720703 0)"/>
     <use xlink:href="#DejaVuSans-Bold-73" transform="translate(132.421875 0)"/>
     <use xlink:href="#DejaVuSans-Bold-73" transform="translate(191.943359 0)"/>
     <use xlink:href="#DejaVuSans-Bold-20" transform="translate(251.464844 0)"/>
     <use xlink:href="#DejaVuSans-Bold-70" transform="translate(286.279297 0)"/>
     <use xlink:href="#DejaVuSans-Bold-65" transform="translate(357.861328 0)"/>
     <use xlink:href="#DejaVuSans-Bold-72" transform="translate(425.683594 0)"/>
     <use xlink:href="#DejaVuSans-Bold-20" transform="translate(475 0)"/>
     <use xlink:href="#DejaVuSans-Bold-45" transform="translate(509.814453 0)"/>
     <use xlink:href="#DejaVuSans-Bold-70" transform="translate(578.125 0)"/>
     <use xlink:href="#DejaVuSans-Bold-6f" transform="translate(649.707031 0)"/>
     <use xlink:href="#DejaVuSans-Bold-63" transform="translate(718.408203 0)"/>
     <use xlink:href="#DejaVuSans-Bold-68" transform="translate(777.685547 0)"/>
     <use xlink:href="#DejaVuSans-Bold-20" transform="translate(848.876953 0)"/>
     <use xlink:href="#DejaVuSans-Bold-28" transform="translate(883.691406 0)"/>
     <use xlink:href="#DejaVuSans-Bold-53" transform="translate(929.394531 0)"/>
     <use xlink:href="#DejaVuSans-Bold-74" transform="translate(1001.416016 0)"/>
     <use xlink:href="#DejaVuSans-Bold-61" transform="translate(1049.21875 0)"/>
     <use xlink:href="#DejaVuSans-Bold-6e" transform="translate(1116.699219 0)"/>
     <use xlink:href="#DejaVuSans-Bold-64" transform="translate(1187.890625 0)"/>
     <use xlink:href="#DejaVuSans-Bold-61" transform="translate(1259.472656 0)"/>
     <use xlink:href="#DejaVuSans-Bold-72" transform="translate(1326.953125 0)"/>
     <use xlink:href="#DejaVuSans-Bold-64" transform="translate(1376.269531 0)"/>
     <use xlink:href="#DejaVuSans-Bold-20" transform="translate(1447.851562 0)"/>
     <use xlink:href="#DejaVuSans-Bold-4d" transform="translate(1482.666016 0)"/>
     <use xlink:href="#DejaVuSans-Bold-4c" transform="translate(1582.177734 0)"/>
     <use xlink:href="#DejaVuSans-Bold-50" transform="translate(1645.898438 0)"/>
     <use xlink:href="#DejaVuSans-Bold-20" transform="translate(1719.189453 0)"/>
     <use xlink:href="#DejaVuSans-Bold-6f" transform="translate(1754.003906 0)"/>
     <use xlink:href="#DejaVuSans-Bold-6e" transform="translate(1822.705078 0)"/>
     <use xlink:href="#DejaVuSans-Bold-20" transform="translate(1893.896484 0)"/>
     <use xlink:href="#DejaVuSans-Bold-44" transform="translate(1928.710938 0)"/>
     <use xlink:href="#DejaVuSans-Bold-69" transform="translate(2011.71875 0)"/>
     <use xlink:href="#DejaVuSans-Bold-76" transform="translate(2045.996094 0)"/>
     <use xlink:href="#DejaVuSans-Bold-69" transform="translate(2111.181641 0)"/>
     <use xlink:href="#DejaVuSans-Bold-73" transform="translate(2145.458984 0)"/>
     <use xlink:href="#DejaVuSans-Bold-69" transform="translate(2204.980469 0)"/>
     <use xlink:href="#DejaVuSans-Bold-6f" transform="translate(2239.257812 0)"/>
     <use xlink:href="#DejaVuSans-Bold-6e" transform="translate(2307.958984 0)"/>
     <use xlink:href="#DejaVuSans-Bold-20" transform="translate(2379.150391 0)"/>
     <use xlink:href="#DejaVuSans-Bold-6d" transform="translate(2413.964844 0)"/>
     <use xlink:href="#DejaVuSans-Bold-6f" transform="translate(2518.164062 0)"/>
     <use xlink:href="#DejaVuSans-Bold-64" transform="translate(2586.865234 0)"/>
     <use xlink:href="#DejaVuSans-Bold-20" transform="translate(2658.447266 0)"/>
     <use xlink:href="#DejaVuSans-Bold-39" transform="translate(2693.261719 0)"/>
     <use xlink:href="#DejaVuSans-Bold-37" transform="translate(2762.841797 0)"/>
     <use xlink:href="#DejaVuSans-Bold-29" transform="translate(2832.421875 0)"/>
    </g>
   </g>
   <g id="legend_1">
    <g id="patch_7">
     <path d="M 331.216875 67.674375 
L 412.598125 67.674375 
Q 414.598125 67.674375 414.598125 65.674375 
L 414.598125 37.318125 
Q 414.598125 35.318125 412.598125 35.318125 
L 331.216875 35.318125 
Q 329.216875 35.318125 329.216875 37.318125 
L 329.216875 65.674375 
Q 329.216875 67.674375 331.216875 67.674375 
z
" style="fill: #ffffff; opacity: 0.8; stroke: #cccccc; stroke-linejoin: miter"/>
    </g>
    <g id="line2d_39">
     <path d="M 333.216875 43.416562 
L 343.216875 43.416562 
L 353.216875 43.416562 
" style="fill: none; stroke: #1f77b4; stroke-width: 1.5; stroke-linecap: square"/>
    </g>
    <g id="text_11">
     <!-- Train -->
     <g transform="translate(361.216875 46.916562) scale(0.1 -0.1)">
      <defs>
       <path id="DejaVuSans-54" d="M -19 4666 
L 3928 4666 
L 3928 4134 
L 2272 4134 
L 2272 0 
L 1638 0 
L 1638 4134 
L -19 4134 
L -19 4666 
z
" transform="scale(0.015625)"/>
       <path id="DejaVuSans-72" d="M 2631 2963 
Q 2534 3019 2420 3045 
Q 2306 3072 2169 3072 
Q 1681 3072 1420 2755 
Q 1159 2438 1159 1844 
L 1159 0 
L 581 0 
L 581 3500 
L 1159 3500 
L 1159 2956 
Q 1341 3275 1631 3429 
Q 1922 3584 2338 3584 
Q 2397 3584 2469 3576 
Q 2541 3569 2628 3553 
L 2631 2963 
z
" transform="scale(0.015625)"/>
       <path id="DejaVuSans-61" d="M 2194 1759 
Q 1497 1759 1228 1600 
Q 959 1441 959 1056 
Q 959 750 1161 570 
Q 1363 391 1709 391 
Q 2188 391 2477 730 
Q 2766 1069 2766 1631 
L 2766 1759 
L 2194 1759 
z
M 3341 1997 
L 3341 0 
L 2766 0 
L 2766 531 
Q 2569 213 2275 61 
Q 1981 -91 1556 -91 
Q 1019 -91 701 211 
Q 384 513 384 1019 
Q 384 1609 779 1909 
Q 1175 2209 1959 2209 
L 2766 2209 
L 2766 2266 
Q 2766 2663 2505 2880 
Q 2244 3097 1772 3097 
Q 1472 3097 1187 3025 
Q 903 2953 641 2809 
L 641 3341 
Q 956 3463 1253 3523 
Q 1550 3584 1831 3584 
Q 2591 3584 2966 3190 
Q 3341 2797 3341 1997 
z
" transform="scale(0.015625)"/>
       <path id="DejaVuSans-69" d="M 603 3500 
L 1178 3500 
L 1178 0 
L 603 0 
L 603 3500 
z
M 603 4863 
L 1178 4863 
L 1178 4134 
L 603 4134 
L 603 4863 
z
" transform="scale(0.015625)"/>
       <path id="DejaVuSans-6e" d="M 3513 2113 
L 3513 0 
L 2938 0 
L 2938 2094 
Q 2938 2591 2744 2837 
Q 2550 3084 2163 3084 
Q 1697 3084 1428 2787 
Q 1159 2491 1159 1978 
L 1159 0 
L 581 0 
L 581 3500 
L 1159 3500 
L 1159 2956 
Q 1366 3272 1645 3428 
Q 1925 3584 2291 3584 
Q 2894 3584 3203 3211 
Q 3513 2838 3513 2113 
z
" transform="scale(0.015625)"/>
      </defs>
      <use xlink:href="#DejaVuSans-54"/>
      <use xlink:href="#DejaVuSans-72" transform="translate(46.333984 0)"/>
      <use xlink:href="#DejaVuSans-61" transform="translate(87.447266 0)"/>
      <use xlink:href="#DejaVuSans-69" transform="translate(148.726562 0)"/>
      <use xlink:href="#DejaVuSans-6e" transform="translate(176.509766 0)"/>
     </g>
    </g>
    <g id="line2d_40">
     <path d="M 333.216875 58.094687 
L 343.216875 58.094687 
L 353.216875 58.094687 
" style="fill: none; stroke: #ff7f0e; stroke-width: 1.5; stroke-linecap: square"/>
    </g>
    <g id="text_12">
     <!-- Validation -->
     <g transform="translate(361.216875 61.594687) scale(0.1 -0.1)">
      <defs>
       <path id="DejaVuSans-56" d="M 1831 0 
L 50 4666 
L 709 4666 
L 2188 738 
L 3669 4666 
L 4325 4666 
L 2547 0 
L 1831 0 
z
" transform="scale(0.015625)"/>
       <path id="DejaVuSans-6c" d="M 603 4863 
L 1178 4863 
L 1178 0 
L 603 0 
L 603 4863 
z
" transform="scale(0.015625)"/>
       <path id="DejaVuSans-64" d="M 2906 2969 
L 2906 4863 
L 3481 4863 
L 3481 0 
L 2906 0 
L 2906 525 
Q 2725 213 2448 61 
Q 2172 -91 1784 -91 
Q 1150 -91 751 415 
Q 353 922 353 1747 
Q 353 2572 751 3078 
Q 1150 3584 1784 3584 
Q 2172 3584 2448 3432 
Q 2725 3281 2906 2969 
z
M 947 1747 
Q 947 1113 1208 752 
Q 1469 391 1925 391 
Q 2381 391 2643 752 
Q 2906 1113 2906 1747 
Q 2906 2381 2643 2742 
Q 2381 3103 1925 3103 
Q 1469 3103 1208 2742 
Q 947 2381 947 1747 
z
" transform="scale(0.015625)"/>
       <path id="DejaVuSans-74" d="M 1172 4494 
L 1172 3500 
L 2356 3500 
L 2356 3053 
L 1172 3053 
L 1172 1153 
Q 1172 725 1289 603 
Q 1406 481 1766 481 
L 2356 481 
L 2356 0 
L 1766 0 
Q 1100 0 847 248 
Q 594 497 594 1153 
L 594 3053 
L 172 3053 
L 172 3500 
L 594 3500 
L 594 4494 
L 1172 4494 
z
" transform="scale(0.015625)"/>
       <path id="DejaVuSans-6f" d="M 1959 3097 
Q 1497 3097 1228 2736 
Q 959 2375 959 1747 
Q 959 1119 1226 758 
Q 1494 397 1959 397 
Q 2419 397 2687 759 
Q 2956 1122 2956 1747 
Q 2956 2369 2687 2733 
Q 2419 3097 1959 3097 
z
M 1959 3584 
Q 2709 3584 3137 3096 
Q 3566 2609 3566 1747 
Q 3566 888 3137 398 
Q 2709 -91 1959 -91 
Q 1206 -91 779 398 
Q 353 888 353 1747 
Q 353 2609 779 3096 
Q 1206 3584 1959 3584 
z
" transform="scale(0.015625)"/>
      </defs>
      <use xlink:href="#DejaVuSans-56"/>
      <use xlink:href="#DejaVuSans-61" transform="translate(60.658203 0)"/>
      <use xlink:href="#DejaVuSans-6c" transform="translate(121.9375 0)"/>
      <use xlink:href="#DejaVuSans-69" transform="translate(149.720703 0)"/>
      <use xlink:href="#DejaVuSans-64" transform="translate(177.503906 0)"/>
      <use xlink:href="#DejaVuSans-61" transform="translate(240.980469 0)"/>
      <use xlink:href="#DejaVuSans-74" transform="translate(302.259766 0)"/>
      <use xlink:href="#DejaVuSans-69" transform="translate(341.46875 0)"/>
      <use xlink:href="#DejaVuSans-6f" transform="translate(369.251953 0)"/>
      <use xlink:href="#DejaVuSans-6e" transform="translate(430.433594 0)"/>
     </g>
    </g>
   </g>
  </g>
 </g>
 <defs>
  <clipPath id="p21b488cce9">
   <rect x="62.478125" y="30.318125" width="357.12" height="266.112"/>
  </clipPath>
 </defs>
</svg>
