<?xml version="1.0" encoding="utf-8" standalone="no"?>
<!DOCTYPE svg PUBLIC "-//W3C//DTD SVG 1.1//EN"
  "http://www.w3.org/Graphics/SVG/1.1/DTD/svg11.dtd">
<svg xmlns:xlink="http://www.w3.org/1999/xlink" width="411.352812pt" height="333.986375pt" viewBox="0 0 411.352812 333.986375" xmlns="http://www.w3.org/2000/svg" version="1.1">
 <metadata>
  <rdf:RDF xmlns:dc="http://purl.org/dc/elements/1.1/" xmlns:cc="http://creativecommons.org/ns#" xmlns:rdf="http://www.w3.org/1999/02/22-rdf-syntax-ns#">
   <cc:Work>
    <dc:type rdf:resource="http://purl.org/dc/dcmitype/StillImage"/>
    <dc:date>2025-11-26T12:46:21.835981</dc:date>
    <dc:format>image/svg+xml</dc:format>
    <dc:creator>
     <cc:Agent>
      <dc:title>Matplotlib v3.10.7, https://matplotlib.org/</dc:title>
     </cc:Agent>
    </dc:creator>
   </cc:Work>
  </rdf:RDF>
 </metadata>
 <defs>
  <style type="text/css">*{stroke-linejoin: round; stroke-linecap: butt}</style>
 </defs>
 <g id="figure_1">
  <g id="patch_1">
   <path d="M 0 333.986375 
L 411.352812 333.986375 
L 411.352812 0 
L 0 0 
z
" style="fill: #ffffff"/>
  </g>
  <g id="axes_1">
   <g id="patch_2">
    <path d="M 47.032813 296.430125 
L 404.152812 296.430125 
L 404.152812 30.318125 
L 47.032813 30.318125 
z
" style="fill: #ffffff"/>
   </g>
   <g id="matplotlib.axis_1">
    <g id="xtick_1">
     <g id="line2d_1">
      <defs>
       <path id="m7c45420805" d="M 0 0 
L 0 3.5 
" style="stroke: #000000; stroke-width: 0.8"/>
      </defs>
      <g>
       <use xlink:href="#m7c45420805" x="63.26554" y="296.430125" style="stroke: #000000; stroke-width: 0.8"/>
      </g>
     </g>
     <g id="text_1">
      <!-- $\mathdefault{10^{0}}$ -->
      <g transform="translate(54.46554 311.028562) scale(0.1 -0.1)">
       <defs>
        <path id="DejaVuSans-31" d="M 794 531 
L 1825 531 
L 1825 4091 
L 703 3866 
L 703 4441 
L 1819 4666 
L 2450 4666 
L 2450 531 
L 3481 531 
L 3481 0 
L 794 0 
L 794 531 
z
" transform="scale(0.015625)"/>
        <path id="DejaVuSans-30" d="M 2034 4250 
Q 1547 4250 1301 3770 
Q 1056 3291 1056 2328 
Q 1056 1369 1301 889 
Q 1547 409 2034 409 
Q 2525 409 2770 889 
Q 3016 1369 3016 2328 
Q 3016 3291 2770 3770 
Q 2525 4250 2034 4250 
z
M 2034 4750 
Q 2819 4750 3233 4129 
Q 3647 3509 3647 2328 
Q 3647 1150 3233 529 
Q 2819 -91 2034 -91 
Q 1250 -91 836 529 
Q 422 1150 422 2328 
Q 422 3509 836 4129 
Q 1250 4750 2034 4750 
z
" transform="scale(0.015625)"/>
       </defs>
       <use xlink:href="#DejaVuSans-31" transform="translate(0 0.765625)"/>
       <use xlink:href="#DejaVuSans-30" transform="translate(63.623047 0.765625)"/>
       <use xlink:href="#DejaVuSans-30" transform="translate(128.203125 39.046875) scale(0.7)"/>
      </g>
     </g>
    </g>
    <g id="xtick_2">
     <g id="line2d_2">
      <g>
       <use xlink:href="#m7c45420805" x="171.483722" y="296.430125" style="stroke: #000000; stroke-width: 0.8"/>
      </g>
     </g>
     <g id="text_2">
      <!-- $\mathdefault{10^{1}}$ -->
      <g transform="translate(162.683722 311.028562) scale(0.1 -0.1)">
       <use xlink:href="#DejaVuSans-31" transform="translate(0 0.684375)"/>
       <use xlink:href="#DejaVuSans-30" transform="translate(63.623047 0.684375)"/>
       <use xlink:href="#DejaVuSans-31" transform="translate(128.203125 38.965625) scale(0.7)"/>
      </g>
     </g>
    </g>
    <g id="xtick_3">
     <g id="line2d_3">
      <g>
       <use xlink:href="#m7c45420805" x="279.701903" y="296.430125" style="stroke: #000000; stroke-width: 0.8"/>
      </g>
     </g>
     <g id="text_3">
      <!-- $\mathdefault{10^{2}}$ -->
      <g transform="translate(270.901903 311.028562) scale(0.1 -0.1)">
       <defs>
        <path id="DejaVuSans-32" d="M 1228 531 
L 3431 531 
L 3431 0 
L 469 0 
L 469 531 
Q 828 903 1448 1529 
Q 2069 2156 2228 2338 
Q 2531 2678 2651 2914 
Q 2772 3150 2772 3378 
Q 2772 3750 2511 3984 
Q 2250 4219 1831 4219 
Q 1534 4219 1204 4116 
Q 875 4013 500 3803 
L 500 4441 
Q 881 4594 1212 4672 
Q 1544 4750 1819 4750 
Q 2544 4750 2975 4387 
Q 3406 4025 3406 3419 
Q 3406 3131 3298 2873 
Q 3191 2616 2906 2266 
Q 2828 2175 2409 1742 
Q 1991 1309 1228 531 
z
" transform="scale(0.015625)"/>
       </defs>
       <use xlink:href="#DejaVuSans-31" transform="translate(0 0.765625)"/>
       <use xlink:href="#DejaVuSans-30" transform="translate(63.623047 0.765625)"/>
       <use xlink:href="#DejaVuSans-32" transform="translate(128.203125 39.046875) scale(0.7)"/>
      </g>
     </g>
    </g>
    <g id="xtick_4">
     <g id="line2d_4">
      <g>
       <use xlink:href="#m7c45420805" x="387.920085" y="296.430125" style="stroke: #000000; stroke-width: 0.8"/>
      </g>
     </g>
     <g id="text_4">
      <!-- $\mathdefault{10^{3}}$ -->
      <g transform="translate(379.120085 311.028562) scale(0.1 -0.1)">
       <defs>
        <path id="DejaVuSans-33" d="M 2597 2516 
Q 3050 2419 3304 2112 
Q 3559 1806 3559 1356 
Q 3559 666 3084 287 
Q 2609 -91 1734 -91 
Q 1441 -91 1130 -33 
Q 819 25 488 141 
L 488 750 
Q 750 597 1062 519 
Q 1375 441 1716 441 
Q 2309 441 2620 675 
Q 2931 909 2931 1356 
Q 2931 1769 2642 2001 
Q 2353 2234 1838 2234 
L 1294 2234 
L 1294 2753 
L 1863 2753 
Q 2328 2753 2575 2939 
Q 2822 3125 2822 3475 
Q 2822 3834 2567 4026 
Q 2313 4219 1838 4219 
Q 1578 4219 1281 4162 
Q 984 4106 628 3988 
L 628 4550 
Q 988 4650 1302 4700 
Q 1616 4750 1894 4750 
Q 2613 4750 3031 4423 
Q 3450 4097 3450 3541 
Q 3450 3153 3228 2886 
Q 3006 2619 2597 2516 
z
" transform="scale(0.015625)"/>
       </defs>
       <use xlink:href="#DejaVuSans-31" transform="translate(0 0.765625)"/>
       <use xlink:href="#DejaVuSans-30" transform="translate(63.623047 0.765625)"/>
       <use xlink:href="#DejaVuSans-33" transform="translate(128.203125 39.046875) scale(0.7)"/>
      </g>
     </g>
    </g>
    <g id="xtick_5">
     <g id="line2d_5">
      <defs>
       <path id="ma5871d6ef1" d="M 0 0 
L 0 2 
" style="stroke: #000000; stroke-width: 0.6"/>
      </defs>
      <g>
       <use xlink:href="#ma5871d6ef1" x="52.778114" y="296.430125" style="stroke: #000000; stroke-width: 0.6"/>
      </g>
     </g>
    </g>
    <g id="xtick_6">
     <g id="line2d_6">
      <g>
       <use xlink:href="#ma5871d6ef1" x="58.313747" y="296.430125" style="stroke: #000000; stroke-width: 0.6"/>
      </g>
     </g>
    </g>
    <g id="xtick_7">
     <g id="line2d_7">
      <g>
       <use xlink:href="#ma5871d6ef1" x="95.842459" y="296.430125" style="stroke: #000000; stroke-width: 0.6"/>
      </g>
     </g>
    </g>
    <g id="xtick_8">
     <g id="line2d_8">
      <g>
       <use xlink:href="#ma5871d6ef1" x="114.898734" y="296.430125" style="stroke: #000000; stroke-width: 0.6"/>
      </g>
     </g>
    </g>
    <g id="xtick_9">
     <g id="line2d_9">
      <g>
       <use xlink:href="#ma5871d6ef1" x="128.419377" y="296.430125" style="stroke: #000000; stroke-width: 0.6"/>
      </g>
     </g>
    </g>
    <g id="xtick_10">
     <g id="line2d_10">
      <g>
       <use xlink:href="#ma5871d6ef1" x="138.906803" y="296.430125" style="stroke: #000000; stroke-width: 0.6"/>
      </g>
     </g>
    </g>
    <g id="xtick_11">
     <g id="line2d_11">
      <g>
       <use xlink:href="#ma5871d6ef1" x="147.475653" y="296.430125" style="stroke: #000000; stroke-width: 0.6"/>
      </g>
     </g>
    </g>
    <g id="xtick_12">
     <g id="line2d_12">
      <g>
       <use xlink:href="#ma5871d6ef1" x="154.720513" y="296.430125" style="stroke: #000000; stroke-width: 0.6"/>
      </g>
     </g>
    </g>
    <g id="xtick_13">
     <g id="line2d_13">
      <g>
       <use xlink:href="#ma5871d6ef1" x="160.996296" y="296.430125" style="stroke: #000000; stroke-width: 0.6"/>
      </g>
     </g>
    </g>
    <g id="xtick_14">
     <g id="line2d_14">
      <g>
       <use xlink:href="#ma5871d6ef1" x="166.531929" y="296.430125" style="stroke: #000000; stroke-width: 0.6"/>
      </g>
     </g>
    </g>
    <g id="xtick_15">
     <g id="line2d_15">
      <g>
       <use xlink:href="#ma5871d6ef1" x="204.06064" y="296.430125" style="stroke: #000000; stroke-width: 0.6"/>
      </g>
     </g>
    </g>
    <g id="xtick_16">
     <g id="line2d_16">
      <g>
       <use xlink:href="#ma5871d6ef1" x="223.116916" y="296.430125" style="stroke: #000000; stroke-width: 0.6"/>
      </g>
     </g>
    </g>
    <g id="xtick_17">
     <g id="line2d_17">
      <g>
       <use xlink:href="#ma5871d6ef1" x="236.637559" y="296.430125" style="stroke: #000000; stroke-width: 0.6"/>
      </g>
     </g>
    </g>
    <g id="xtick_18">
     <g id="line2d_18">
      <g>
       <use xlink:href="#ma5871d6ef1" x="247.124985" y="296.430125" style="stroke: #000000; stroke-width: 0.6"/>
      </g>
     </g>
    </g>
    <g id="xtick_19">
     <g id="line2d_19">
      <g>
       <use xlink:href="#ma5871d6ef1" x="255.693835" y="296.430125" style="stroke: #000000; stroke-width: 0.6"/>
      </g>
     </g>
    </g>
    <g id="xtick_20">
     <g id="line2d_20">
      <g>
       <use xlink:href="#ma5871d6ef1" x="262.938695" y="296.430125" style="stroke: #000000; stroke-width: 0.6"/>
      </g>
     </g>
    </g>
    <g id="xtick_21">
     <g id="line2d_21">
      <g>
       <use xlink:href="#ma5871d6ef1" x="269.214478" y="296.430125" style="stroke: #000000; stroke-width: 0.6"/>
      </g>
     </g>
    </g>
    <g id="xtick_22">
     <g id="line2d_22">
      <g>
       <use xlink:href="#ma5871d6ef1" x="274.750111" y="296.430125" style="stroke: #000000; stroke-width: 0.6"/>
      </g>
     </g>
    </g>
    <g id="xtick_23">
     <g id="line2d_23">
      <g>
       <use xlink:href="#ma5871d6ef1" x="312.278822" y="296.430125" style="stroke: #000000; stroke-width: 0.6"/>
      </g>
     </g>
    </g>
    <g id="xtick_24">
     <g id="line2d_24">
      <g>
       <use xlink:href="#ma5871d6ef1" x="331.335098" y="296.430125" style="stroke: #000000; stroke-width: 0.6"/>
      </g>
     </g>
    </g>
    <g id="xtick_25">
     <g id="line2d_25">
      <g>
       <use xlink:href="#ma5871d6ef1" x="344.855741" y="296.430125" style="stroke: #000000; stroke-width: 0.6"/>
      </g>
     </g>
    </g>
    <g id="xtick_26">
     <g id="line2d_26">
      <g>
       <use xlink:href="#ma5871d6ef1" x="355.343166" y="296.430125" style="stroke: #000000; stroke-width: 0.6"/>
      </g>
     </g>
    </g>
    <g id="xtick_27">
     <g id="line2d_27">
      <g>
       <use xlink:href="#ma5871d6ef1" x="363.912017" y="296.430125" style="stroke: #000000; stroke-width: 0.6"/>
      </g>
     </g>
    </g>
    <g id="xtick_28">
     <g id="line2d_28">
      <g>
       <use xlink:href="#ma5871d6ef1" x="371.156877" y="296.430125" style="stroke: #000000; stroke-width: 0.6"/>
      </g>
     </g>
    </g>
    <g id="xtick_29">
     <g id="line2d_29">
      <g>
       <use xlink:href="#ma5871d6ef1" x="377.43266" y="296.430125" style="stroke: #000000; stroke-width: 0.6"/>
      </g>
     </g>
    </g>
    <g id="xtick_30">
     <g id="line2d_30">
      <g>
       <use xlink:href="#ma5871d6ef1" x="382.968293" y="296.430125" style="stroke: #000000; stroke-width: 0.6"/>
      </g>
     </g>
    </g>
    <g id="text_5">
     <!-- Epoch -->
     <g transform="translate(208.639688 324.706687) scale(0.1 -0.1)">
      <defs>
       <path id="DejaVuSans-Bold-45" d="M 588 4666 
L 3834 4666 
L 3834 3756 
L 1791 3756 
L 1791 2888 
L 3713 2888 
L 3713 1978 
L 1791 1978 
L 1791 909 
L 3903 909 
L 3903 0 
L 588 0 
L 588 4666 
z
" transform="scale(0.015625)"/>
       <path id="DejaVuSans-Bold-70" d="M 1656 506 
L 1656 -1331 
L 538 -1331 
L 538 3500 
L 1656 3500 
L 1656 2988 
Q 1888 3294 2169 3439 
Q 2450 3584 2816 3584 
Q 3463 3584 3878 3070 
Q 4294 2556 4294 1747 
Q 4294 938 3878 423 
Q 3463 -91 2816 -91 
Q 2450 -91 2169 54 
Q 1888 200 1656 506 
z
M 2400 2772 
Q 2041 2772 1848 2508 
Q 1656 2244 1656 1747 
Q 1656 1250 1848 986 
Q 2041 722 2400 722 
Q 2759 722 2948 984 
Q 3138 1247 3138 1747 
Q 3138 2247 2948 2509 
Q 2759 2772 2400 2772 
z
" transform="scale(0.015625)"/>
       <path id="DejaVuSans-Bold-6f" d="M 2203 2784 
Q 1831 2784 1636 2517 
Q 1441 2250 1441 1747 
Q 1441 1244 1636 976 
Q 1831 709 2203 709 
Q 2569 709 2762 976 
Q 2956 1244 2956 1747 
Q 2956 2250 2762 2517 
Q 2569 2784 2203 2784 
z
M 2203 3584 
Q 3106 3584 3614 3096 
Q 4122 2609 4122 1747 
Q 4122 884 3614 396 
Q 3106 -91 2203 -91 
Q 1297 -91 786 396 
Q 275 884 275 1747 
Q 275 2609 786 3096 
Q 1297 3584 2203 3584 
z
" transform="scale(0.015625)"/>
       <path id="DejaVuSans-Bold-63" d="M 3366 3391 
L 3366 2478 
Q 3138 2634 2908 2709 
Q 2678 2784 2431 2784 
Q 1963 2784 1702 2511 
Q 1441 2238 1441 1747 
Q 1441 1256 1702 982 
Q 1963 709 2431 709 
Q 2694 709 2930 787 
Q 3166 866 3366 1019 
L 3366 103 
Q 3103 6 2833 -42 
Q 2563 -91 2291 -91 
Q 1344 -91 809 395 
Q 275 881 275 1747 
Q 275 2613 809 3098 
Q 1344 3584 2291 3584 
Q 2566 3584 2833 3536 
Q 3100 3488 3366 3391 
z
" transform="scale(0.015625)"/>
       <path id="DejaVuSans-Bold-68" d="M 4056 2131 
L 4056 0 
L 2931 0 
L 2931 347 
L 2931 1625 
Q 2931 2084 2911 2256 
Q 2891 2428 2841 2509 
Q 2775 2619 2662 2680 
Q 2550 2741 2406 2741 
Q 2056 2741 1856 2470 
Q 1656 2200 1656 1722 
L 1656 0 
L 538 0 
L 538 4863 
L 1656 4863 
L 1656 2988 
Q 1909 3294 2193 3439 
Q 2478 3584 2822 3584 
Q 3428 3584 3742 3212 
Q 4056 2841 4056 2131 
z
" transform="scale(0.015625)"/>
      </defs>
      <use xlink:href="#DejaVuSans-Bold-45"/>
      <use xlink:href="#DejaVuSans-Bold-70" transform="translate(68.310547 0)"/>
      <use xlink:href="#DejaVuSans-Bold-6f" transform="translate(139.892578 0)"/>
      <use xlink:href="#DejaVuSans-Bold-63" transform="translate(208.59375 0)"/>
      <use xlink:href="#DejaVuSans-Bold-68" transform="translate(267.871094 0)"/>
     </g>
    </g>
   </g>
   <g id="matplotlib.axis_2">
    <g id="ytick_1">
     <g id="line2d_31">
      <defs>
       <path id="md07e0015e8" d="M 0 0 
L -3.5 0 
" style="stroke: #000000; stroke-width: 0.8"/>
      </defs>
      <g>
       <use xlink:href="#md07e0015e8" x="47.032813" y="257.319114" style="stroke: #000000; stroke-width: 0.8"/>
      </g>
     </g>
     <g id="text_6">
      <!-- 20 -->
      <g transform="translate(27.307813 261.118333) scale(0.1 -0.1)">
       <use xlink:href="#DejaVuSans-32"/>
       <use xlink:href="#DejaVuSans-30" transform="translate(63.623047 0)"/>
      </g>
     </g>
    </g>
    <g id="ytick_2">
     <g id="line2d_32">
      <g>
       <use xlink:href="#md07e0015e8" x="47.032813" y="203.592867" style="stroke: #000000; stroke-width: 0.8"/>
      </g>
     </g>
     <g id="text_7">
      <!-- 40 -->
      <g transform="translate(27.307813 207.392085) scale(0.1 -0.1)">
       <defs>
        <path id="DejaVuSans-34" d="M 2419 4116 
L 825 1625 
L 2419 1625 
L 2419 4116 
z
M 2253 4666 
L 3047 4666 
L 3047 1625 
L 3713 1625 
L 3713 1100 
L 3047 1100 
L 3047 0 
L 2419 0 
L 2419 1100 
L 313 1100 
L 313 1709 
L 2253 4666 
z
" transform="scale(0.015625)"/>
       </defs>
       <use xlink:href="#DejaVuSans-34"/>
       <use xlink:href="#DejaVuSans-30" transform="translate(63.623047 0)"/>
      </g>
     </g>
    </g>
    <g id="ytick_3">
     <g id="line2d_33">
      <g>
       <use xlink:href="#md07e0015e8" x="47.032813" y="149.866619" style="stroke: #000000; stroke-width: 0.8"/>
      </g>
     </g>
     <g id="text_8">
      <!-- 60 -->
      <g transform="translate(27.307813 153.665838) scale(0.1 -0.1)">
       <defs>
        <path id="DejaVuSans-36" d="M 2113 2584 
Q 1688 2584 1439 2293 
Q 1191 2003 1191 1497 
Q 1191 994 1439 701 
Q 1688 409 2113 409 
Q 2538 409 2786 701 
Q 3034 994 3034 1497 
Q 3034 2003 2786 2293 
Q 2538 2584 2113 2584 
z
M 3366 4563 
L 3366 3988 
Q 3128 4100 2886 4159 
Q 2644 4219 2406 4219 
Q 1781 4219 1451 3797 
Q 1122 3375 1075 2522 
Q 1259 2794 1537 2939 
Q 1816 3084 2150 3084 
Q 2853 3084 3261 2657 
Q 3669 2231 3669 1497 
Q 3669 778 3244 343 
Q 2819 -91 2113 -91 
Q 1303 -91 875 529 
Q 447 1150 447 2328 
Q 447 3434 972 4092 
Q 1497 4750 2381 4750 
Q 2619 4750 2861 4703 
Q 3103 4656 3366 4563 
z
" transform="scale(0.015625)"/>
       </defs>
       <use xlink:href="#DejaVuSans-36"/>
       <use xlink:href="#DejaVuSans-30" transform="translate(63.623047 0)"/>
      </g>
     </g>
    </g>
    <g id="ytick_4">
     <g id="line2d_34">
      <g>
       <use xlink:href="#md07e0015e8" x="47.032813" y="96.140372" style="stroke: #000000; stroke-width: 0.8"/>
      </g>
     </g>
     <g id="text_9">
      <!-- 80 -->
      <g transform="translate(27.307813 99.939591) scale(0.1 -0.1)">
       <defs>
        <path id="DejaVuSans-38" d="M 2034 2216 
Q 1584 2216 1326 1975 
Q 1069 1734 1069 1313 
Q 1069 891 1326 650 
Q 1584 409 2034 409 
Q 2484 409 2743 651 
Q 3003 894 3003 1313 
Q 3003 1734 2745 1975 
Q 2488 2216 2034 2216 
z
M 1403 2484 
Q 997 2584 770 2862 
Q 544 3141 544 3541 
Q 544 4100 942 4425 
Q 1341 4750 2034 4750 
Q 2731 4750 3128 4425 
Q 3525 4100 3525 3541 
Q 3525 3141 3298 2862 
Q 3072 2584 2669 2484 
Q 3125 2378 3379 2068 
Q 3634 1759 3634 1313 
Q 3634 634 3220 271 
Q 2806 -91 2034 -91 
Q 1263 -91 848 271 
Q 434 634 434 1313 
Q 434 1759 690 2068 
Q 947 2378 1403 2484 
z
M 1172 3481 
Q 1172 3119 1398 2916 
Q 1625 2713 2034 2713 
Q 2441 2713 2670 2916 
Q 2900 3119 2900 3481 
Q 2900 3844 2670 4047 
Q 2441 4250 2034 4250 
Q 1625 4250 1398 4047 
Q 1172 3844 1172 3481 
z
" transform="scale(0.015625)"/>
       </defs>
       <use xlink:href="#DejaVuSans-38"/>
       <use xlink:href="#DejaVuSans-30" transform="translate(63.623047 0)"/>
      </g>
     </g>
    </g>
    <g id="ytick_5">
     <g id="line2d_35">
      <g>
       <use xlink:href="#md07e0015e8" x="47.032813" y="42.414125" style="stroke: #000000; stroke-width: 0.8"/>
      </g>
     </g>
     <g id="text_10">
      <!-- 100 -->
      <g transform="translate(20.945313 46.213344) scale(0.1 -0.1)">
       <use xlink:href="#DejaVuSans-31"/>
       <use xlink:href="#DejaVuSans-30" transform="translate(63.623047 0)"/>
       <use xlink:href="#DejaVuSans-30" transform="translate(127.246094 0)"/>
      </g>
     </g>
    </g>
    <g id="text_11">
     <!-- Accuracy (%) -->
     <g transform="translate(14.7875 200.115531) rotate(-90) scale(0.1 -0.1)">
      <defs>
       <path id="DejaVuSans-Bold-41" d="M 3419 850 
L 1538 850 
L 1241 0 
L 31 0 
L 1759 4666 
L 3194 4666 
L 4922 0 
L 3713 0 
L 3419 850 
z
M 1838 1716 
L 3116 1716 
L 2478 3572 
L 1838 1716 
z
" transform="scale(0.015625)"/>
       <path id="DejaVuSans-Bold-75" d="M 500 1363 
L 500 3500 
L 1625 3500 
L 1625 3150 
Q 1625 2866 1622 2436 
Q 1619 2006 1619 1863 
Q 1619 1441 1641 1255 
Q 1663 1069 1716 984 
Q 1784 875 1895 815 
Q 2006 756 2150 756 
Q 2500 756 2700 1025 
Q 2900 1294 2900 1772 
L 2900 3500 
L 4019 3500 
L 4019 0 
L 2900 0 
L 2900 506 
Q 2647 200 2364 54 
Q 2081 -91 1741 -91 
Q 1134 -91 817 281 
Q 500 653 500 1363 
z
" transform="scale(0.015625)"/>
       <path id="DejaVuSans-Bold-72" d="M 3138 2547 
Q 2991 2616 2845 2648 
Q 2700 2681 2553 2681 
Q 2122 2681 1889 2404 
Q 1656 2128 1656 1613 
L 1656 0 
L 538 0 
L 538 3500 
L 1656 3500 
L 1656 2925 
Q 1872 3269 2151 3426 
Q 2431 3584 2822 3584 
Q 2878 3584 2943 3579 
Q 3009 3575 3134 3559 
L 3138 2547 
z
" transform="scale(0.015625)"/>
       <path id="DejaVuSans-Bold-61" d="M 2106 1575 
Q 1756 1575 1579 1456 
Q 1403 1338 1403 1106 
Q 1403 894 1545 773 
Q 1688 653 1941 653 
Q 2256 653 2472 879 
Q 2688 1106 2688 1447 
L 2688 1575 
L 2106 1575 
z
M 3816 1997 
L 3816 0 
L 2688 0 
L 2688 519 
Q 2463 200 2181 54 
Q 1900 -91 1497 -91 
Q 953 -91 614 226 
Q 275 544 275 1050 
Q 275 1666 698 1953 
Q 1122 2241 2028 2241 
L 2688 2241 
L 2688 2328 
Q 2688 2594 2478 2717 
Q 2269 2841 1825 2841 
Q 1466 2841 1156 2769 
Q 847 2697 581 2553 
L 581 3406 
Q 941 3494 1303 3539 
Q 1666 3584 2028 3584 
Q 2975 3584 3395 3211 
Q 3816 2838 3816 1997 
z
" transform="scale(0.015625)"/>
       <path id="DejaVuSans-Bold-79" d="M 78 3500 
L 1197 3500 
L 2138 1125 
L 2938 3500 
L 4056 3500 
L 2584 -331 
Q 2363 -916 2067 -1148 
Q 1772 -1381 1288 -1381 
L 641 -1381 
L 641 -647 
L 991 -647 
Q 1275 -647 1404 -556 
Q 1534 -466 1606 -231 
L 1638 -134 
L 78 3500 
z
" transform="scale(0.015625)"/>
       <path id="DejaVuSans-Bold-20" transform="scale(0.015625)"/>
       <path id="DejaVuSans-Bold-28" d="M 2413 -844 
L 1484 -844 
Q 1006 -72 778 623 
Q 550 1319 550 2003 
Q 550 2688 779 3389 
Q 1009 4091 1484 4856 
L 2413 4856 
Q 2013 4116 1813 3408 
Q 1613 2700 1613 2009 
Q 1613 1319 1811 609 
Q 2009 -100 2413 -844 
z
" transform="scale(0.015625)"/>
       <path id="DejaVuSans-Bold-25" d="M 4959 1925 
Q 4738 1925 4616 1733 
Q 4494 1541 4494 1184 
Q 4494 825 4614 633 
Q 4734 441 4959 441 
Q 5184 441 5303 633 
Q 5422 825 5422 1184 
Q 5422 1541 5301 1733 
Q 5181 1925 4959 1925 
z
M 4959 2450 
Q 5541 2450 5875 2112 
Q 6209 1775 6209 1184 
Q 6209 594 5875 251 
Q 5541 -91 4959 -91 
Q 4378 -91 4042 251 
Q 3706 594 3706 1184 
Q 3706 1772 4042 2111 
Q 4378 2450 4959 2450 
z
M 2094 -91 
L 1403 -91 
L 4319 4750 
L 5013 4750 
L 2094 -91 
z
M 1453 4750 
Q 2034 4750 2367 4411 
Q 2700 4072 2700 3481 
Q 2700 2891 2367 2550 
Q 2034 2209 1453 2209 
Q 872 2209 539 2550 
Q 206 2891 206 3481 
Q 206 4072 539 4411 
Q 872 4750 1453 4750 
z
M 1453 4225 
Q 1228 4225 1106 4031 
Q 984 3838 984 3481 
Q 984 3122 1106 2926 
Q 1228 2731 1453 2731 
Q 1678 2731 1798 2926 
Q 1919 3122 1919 3481 
Q 1919 3838 1797 4031 
Q 1675 4225 1453 4225 
z
" transform="scale(0.015625)"/>
       <path id="DejaVuSans-Bold-29" d="M 513 -844 
Q 913 -100 1113 609 
Q 1313 1319 1313 2009 
Q 1313 2700 1113 3408 
Q 913 4116 513 4856 
L 1441 4856 
Q 1916 4091 2145 3389 
Q 2375 2688 2375 2003 
Q 2375 1319 2147 623 
Q 1919 -72 1441 -844 
L 513 -844 
z
" transform="scale(0.015625)"/>
      </defs>
      <use xlink:href="#DejaVuSans-Bold-41"/>
      <use xlink:href="#DejaVuSans-Bold-63" transform="translate(77.392578 0)"/>
      <use xlink:href="#DejaVuSans-Bold-63" transform="translate(136.669922 0)"/>
      <use xlink:href="#DejaVuSans-Bold-75" transform="translate(195.947266 0)"/>
      <use xlink:href="#DejaVuSans-Bold-72" transform="translate(267.138672 0)"/>
      <use xlink:href="#DejaVuSans-Bold-61" transform="translate(316.455078 0)"/>
      <use xlink:href="#DejaVuSans-Bold-63" transform="translate(383.935547 0)"/>
      <use xlink:href="#DejaVuSans-Bold-79" transform="translate(443.212891 0)"/>
      <use xlink:href="#DejaVuSans-Bold-20" transform="translate(508.398438 0)"/>
      <use xlink:href="#DejaVuSans-Bold-28" transform="translate(543.212891 0)"/>
      <use xlink:href="#DejaVuSans-Bold-25" transform="translate(588.916016 0)"/>
      <use xlink:href="#DejaVuSans-Bold-29" transform="translate(689.111328 0)"/>
     </g>
    </g>
   </g>
   <g id="line2d_36">
    <path d="M 63.26554 284.334125 
L 95.842459 256.575389 
L 114.898734 230.178403 
L 128.419377 200.900793 
L 147.475653 149.78282 
L 154.720513 130.19458 
L 160.996296 106.311592 
L 166.531929 89.761101 
L 171.483722 77.871982 
L 175.963163 68.653986 
L 180.052572 58.650367 
L 183.814464 51.370245 
L 187.297432 46.237498 
L 190.539997 43.880624 
L 193.573215 42.57125 
L 196.422485 42.414125 
L 363.439666 42.414125 
L 363.518721 231.487777 
L 363.597644 171.780308 
L 363.833621 70.539485 
L 363.990283 57.655242 
L 364.068418 58.178992 
L 364.146424 57.917117 
L 364.224301 56.345868 
L 364.45716 45.713748 
L 364.68887 42.728375 
L 364.919444 42.414125 
L 385.360723 42.414125 
L 385.459876 135.379702 
L 385.509374 112.753714 
L 385.706848 72.005985 
L 385.756086 71.063235 
L 386.00151 54.984119 
L 386.148152 51.474995 
L 386.196931 51.160745 
L 386.294337 48.960997 
L 386.342965 49.589496 
L 386.488546 48.018247 
L 386.681956 43.932999 
L 387.066405 42.414125 
L 387.920085 42.414125 
L 387.920085 42.414125 
" clip-path="url(#p05cff3cc23)" style="fill: none; stroke: #1f77b4; stroke-width: 1.5; stroke-linecap: square"/>
   </g>
   <g id="line2d_37">
    <path d="M 63.26554 278.398779 
L 95.842459 277.665148 
L 114.898734 274.852896 
L 128.419377 273.385634 
L 138.906803 270.817925 
L 147.475653 270.940197 
L 154.720513 269.350663 
L 160.996296 269.472935 
L 166.531929 268.983848 
L 171.483722 267.394314 
L 175.963163 267.761129 
L 180.052572 268.739304 
L 183.814464 269.228391 
L 187.297432 267.883401 
L 190.539997 267.516586 
L 193.573215 268.250217 
L 199.108848 268.739304 
L 201.649929 268.372488 
L 204.06064 268.250217 
L 206.353708 268.739304 
L 208.540082 268.49476 
L 210.62925 268.617032 
L 212.629491 268.49476 
L 216.391383 268.49476 
L 218.165124 268.005673 
L 219.874351 268.250217 
L 221.523592 268.739304 
L 223.116916 268.372488 
L 228.999404 268.372488 
L 230.361776 268.005673 
L 231.685767 268.250217 
L 232.973479 268.127945 
L 234.226848 268.127945 
L 235.447659 267.883401 
L 236.637559 268.127945 
L 237.798076 268.49476 
L 238.930627 268.127945 
L 240.036526 268.005673 
L 242.173192 268.005673 
L 244.21693 267.761129 
L 245.20641 267.761129 
L 246.175486 267.883401 
L 247.124985 268.250217 
L 248.05568 267.638857 
L 248.968302 267.761129 
L 249.863539 267.638857 
L 250.742043 267.761129 
L 251.604426 267.761129 
L 252.45127 267.516586 
L 253.283124 267.761129 
L 254.100511 267.761129 
L 254.903925 267.883401 
L 255.693835 267.516586 
L 256.470688 267.883401 
L 257.23491 267.761129 
L 257.986903 267.516586 
L 258.727053 267.394314 
L 260.173276 267.394314 
L 260.880035 267.516586 
L 261.576322 267.272042 
L 262.262445 267.638857 
L 262.938695 267.272042 
L 263.605352 267.14977 
L 264.262686 267.14977 
L 264.910952 267.516586 
L 265.550398 267.14977 
L 266.18126 267.638857 
L 266.803767 267.394314 
L 267.418136 267.394314 
L 268.024578 267.516586 
L 268.623293 267.394314 
L 269.214478 267.394314 
L 269.798319 267.14977 
L 270.944682 267.394314 
L 271.507545 267.14977 
L 272.063748 267.516586 
L 273.156787 267.272042 
L 274.750111 267.272042 
L 275.269437 267.027498 
L 275.783088 267.272042 
L 276.291185 267.14977 
L 277.291192 267.516586 
L 278.270365 267.272042 
L 278.752405 267.516586 
L 279.229552 267.394314 
L 279.701903 267.638857 
L 280.169555 267.516586 
L 281.091125 267.516586 
L 281.54522 267.394314 
L 281.994971 267.638857 
L 282.881762 267.638857 
L 283.752131 267.394314 
L 284.181345 267.761129 
L 284.606674 267.272042 
L 285.028188 267.394314 
L 285.445956 267.761129 
L 285.860043 267.394314 
L 286.67743 267.394314 
L 287.080853 267.14977 
L 287.480844 267.272042 
L 287.877458 267.027498 
L 288.660786 267.027498 
L 289.047607 267.394314 
L 290.189329 266.782955 
L 290.563821 267.14977 
L 291.303971 266.905226 
L 291.669721 267.272042 
L 292.032646 266.905226 
L 292.39279 266.905226 
L 292.750195 267.027498 
L 293.456954 266.538411 
L 293.806387 266.538411 
L 294.497555 266.171595 
L 294.839364 266.171595 
L 295.178705 265.927052 
L 295.515614 266.293867 
L 295.850124 266.049323 
L 296.182271 266.171595 
L 296.512087 266.171595 
L 296.839604 266.293867 
L 297.164855 266.049323 
L 297.487871 266.538411 
L 297.808681 266.171595 
L 298.127317 266.171595 
L 298.443806 265.927052 
L 298.758179 266.293867 
L 299.070463 266.049323 
L 299.380686 266.049323 
L 299.688874 265.80478 
L 299.995055 265.927052 
L 300.299254 265.927052 
L 300.601496 265.80478 
L 300.901808 265.927052 
L 301.200212 265.437964 
L 301.496734 265.927052 
L 301.791397 265.927052 
L 302.375237 266.171595 
L 302.66446 265.560236 
L 302.951914 265.560236 
L 303.23762 266.049323 
L 303.521601 265.560236 
L 303.803875 265.437964 
L 304.084464 265.560236 
L 304.363388 265.560236 
L 304.640667 265.80478 
L 304.916319 265.80478 
L 305.190364 265.927052 
L 305.46282 265.560236 
L 305.733706 265.437964 
L 306.003039 265.80478 
L 306.270838 265.193421 
L 306.537119 265.315692 
L 306.801901 265.193421 
L 307.32703 265.682508 
L 307.58741 264.704333 
L 307.846356 265.193421 
L 308.103883 265.437964 
L 308.360007 265.193421 
L 308.614742 265.437964 
L 309.120108 264.948877 
L 309.370767 265.071149 
L 309.620097 264.582061 
L 309.868111 264.826605 
L 310.114823 264.215246 
L 310.360247 263.970702 
L 310.847283 264.215246 
L 311.329324 263.84843 
L 311.568503 263.481615 
L 311.806471 263.84843 
L 312.278822 262.747984 
L 312.513229 263.237071 
L 312.746473 262.870256 
L 313.209517 262.625712 
L 313.439339 262.747984 
L 313.668043 262.381168 
L 313.89564 262.381168 
L 314.122139 262.258896 
L 314.347552 262.870256 
L 314.57189 262.014353 
L 314.795161 262.014353 
L 315.458681 261.525265 
L 315.677789 261.769809 
L 316.544147 261.15845 
L 316.758263 261.402993 
L 316.971409 261.036178 
L 317.183593 261.525265 
L 317.394822 260.791634 
L 317.814455 260.913906 
L 318.230374 260.547091 
L 318.436962 260.547091 
L 318.642645 260.180275 
L 318.847432 260.302547 
L 319.254349 259.568916 
L 319.456493 259.568916 
L 319.657772 260.058003 
L 319.858193 259.568916 
L 320.057762 259.691188 
L 320.256488 259.324372 
L 320.454377 259.324372 
L 320.651436 259.079828 
L 320.847673 259.446644 
L 321.043093 259.079828 
L 321.237704 258.223926 
L 321.431513 258.713013 
L 321.624526 258.713013 
L 322.00819 258.346197 
L 322.388747 257.979382 
L 322.577876 257.979382 
L 322.953867 257.490295 
L 323.326873 257.490295 
L 323.512272 257.368023 
L 323.696943 256.634392 
L 323.88089 257.245751 
L 324.064121 257.245751 
L 324.24664 256.756663 
L 324.969709 256.145304 
L 325.327114 255.778489 
L 325.681822 255.656217 
L 325.858177 255.900761 
L 326.033872 255.778489 
L 326.208914 255.411673 
L 326.383306 255.411673 
L 326.557053 255.289401 
L 326.73016 255.656217 
L 326.902632 255.289401 
L 327.074473 255.411673 
L 327.416283 254.922586 
L 327.58626 254.922586 
L 327.92438 254.311227 
L 328.092533 254.188955 
L 328.260086 253.822139 
L 328.427043 254.066683 
L 328.59341 253.822139 
L 328.75919 253.088508 
L 328.924387 253.333052 
L 329.089006 253.088508 
L 329.25305 252.477149 
L 329.57943 252.599421 
L 329.741774 252.599421 
L 329.903559 251.86579 
L 330.064789 252.232605 
L 330.225468 251.743518 
L 330.3856 251.86579 
L 330.704235 251.498974 
L 330.862747 251.498974 
L 331.335098 250.887615 
L 331.491499 250.276256 
L 331.647382 250.5208 
L 332.111951 249.664897 
L 332.265793 249.542625 
L 332.419133 249.175809 
L 332.571974 249.175809 
L 332.724319 248.197635 
L 332.876173 248.319906 
L 333.027537 247.953091 
L 333.178415 248.075363 
L 333.478726 247.464004 
L 333.628166 247.708547 
L 333.925626 247.464004 
L 334.073653 247.586275 
L 334.368316 246.730372 
L 334.514957 246.363557 
L 334.661142 246.608101 
L 334.806875 246.608101 
L 335.09699 246.119013 
L 335.241379 246.241285 
L 335.385326 245.507654 
L 335.528833 245.507654 
L 335.956744 245.140839 
L 336.098519 244.774023 
L 336.239868 244.774023 
L 336.380794 244.529479 
L 336.661383 243.551305 
L 336.940307 243.551305 
L 337.217585 242.817674 
L 337.355614 242.817674 
L 337.63046 242.57313 
L 337.767283 241.961771 
L 337.903708 242.084042 
L 338.039739 241.961771 
L 338.445484 240.739052 
L 338.579958 240.494509 
L 338.714048 239.883149 
L 338.847757 240.249965 
L 338.981086 240.005421 
L 339.114038 240.005421 
L 339.246615 239.760877 
L 339.37882 239.760877 
L 339.510653 239.516334 
L 339.642117 239.883149 
L 339.773215 239.883149 
L 340.034319 239.27179 
L 340.164329 238.904975 
L 340.29398 239.027246 
L 340.423275 238.904975 
L 340.552215 238.415887 
L 340.680802 238.415887 
L 340.809038 238.538159 
L 340.936926 238.415887 
L 341.064466 238.049072 
L 341.191661 238.171344 
L 341.445023 237.682256 
L 341.571194 237.193169 
L 341.697027 237.193169 
L 342.072516 236.948625 
L 342.197016 237.070897 
L 342.44503 236.214994 
L 342.568548 236.459538 
L 342.691742 236.092722 
L 342.814614 236.459538 
L 343.059399 235.725907 
L 343.424202 234.870004 
L 343.545177 234.747732 
L 343.665841 234.870004 
L 343.906243 234.380916 
L 344.145422 233.891829 
L 344.264556 234.136373 
L 344.501923 233.647285 
L 344.620159 233.647285 
L 344.738098 233.28047 
L 344.855741 233.28047 
L 344.973091 233.402742 
L 345.206915 232.669111 
L 345.323392 232.791383 
L 345.439582 232.669111 
L 345.555484 232.180023 
L 345.671102 232.669111 
L 345.901488 231.813208 
L 346.016258 232.180023 
L 346.130749 231.568664 
L 346.244962 231.568664 
L 346.358898 231.32412 
L 346.472559 231.446392 
L 346.699058 231.32412 
L 346.924471 230.468218 
L 347.148808 230.712761 
L 347.483319 229.856858 
L 347.594296 230.590489 
L 347.815466 230.101402 
L 348.0356 230.345946 
L 348.145282 230.223674 
L 348.36388 229.612315 
L 348.472799 229.612315 
L 348.581466 229.367771 
L 348.689883 229.612315 
L 349.01364 228.63414 
L 349.121065 229.123227 
L 349.335182 228.63414 
L 349.441876 228.756412 
L 349.654539 228.389596 
L 349.760511 228.63414 
L 350.182026 227.533693 
L 350.286817 227.655965 
L 350.391374 227.778237 
L 350.599794 226.922334 
L 350.703658 226.922334 
L 350.807293 226.310975 
L 350.9107 226.433247 
L 351.013881 226.310975 
L 351.219564 225.455072 
L 351.729868 224.476897 
L 351.831267 224.354625 
L 351.932448 223.98781 
L 352.033412 224.354625 
L 352.134159 223.865538 
L 352.234691 224.232354 
L 352.335008 223.98781 
L 352.634681 224.232354 
L 352.833407 223.865538 
L 353.031296 223.98781 
L 353.129929 223.743266 
L 353.228355 223.865538 
L 353.522403 223.498723 
L 353.717418 223.009635 
L 353.814623 222.765091 
L 354.008432 223.009635 
L 354.297655 222.276004 
L 354.393668 222.276004 
L 354.489486 222.398276 
L 354.585109 222.03146 
L 354.680537 222.276004 
L 354.775772 222.03146 
L 354.870815 222.276004 
L 354.965666 221.786917 
L 355.154795 221.909189 
L 355.249075 221.297829 
L 355.43707 221.909189 
L 355.530786 221.786917 
L 355.717659 222.153732 
L 355.903792 221.420101 
L 356.365925 220.68647 
L 356.457809 221.053286 
L 356.549514 220.931014 
L 356.641039 221.053286 
L 356.732388 220.931014 
L 356.823558 220.075111 
L 357.005371 220.441926 
L 357.096015 220.564198 
L 357.186483 220.441926 
L 357.276778 220.564198 
L 357.3669 220.441926 
L 357.45685 220.68647 
L 357.546627 219.952839 
L 357.72567 220.197383 
L 357.814936 220.197383 
L 357.992961 219.586024 
L 358.081721 219.463752 
L 358.170314 219.096936 
L 358.25874 219.586024 
L 358.347001 219.463752 
L 358.523025 219.463752 
L 358.698393 219.830567 
L 358.785833 219.708295 
L 359.047178 219.096936 
L 359.133972 219.34148 
L 359.307079 219.096936 
L 359.479551 219.586024 
L 359.56555 219.586024 
L 359.737078 219.34148 
L 359.822608 219.463752 
L 359.907982 219.34148 
L 360.247937 219.830567 
L 360.332543 219.34148 
L 360.501299 219.952839 
L 360.669451 219.096936 
L 360.837004 219.219208 
L 361.003962 219.096936 
L 361.170329 219.586024 
L 361.336109 218.852393 
L 361.41878 218.974664 
L 361.583687 219.586024 
L 361.665925 218.607849 
L 361.829969 219.34148 
L 361.911776 218.730121 
L 361.993442 219.096936 
L 362.074966 218.852393 
L 362.318693 219.463752 
L 362.399655 219.34148 
L 362.641708 218.607849 
L 362.722116 218.730121 
L 362.802387 219.830567 
L 362.962519 218.730121 
L 363.04238 219.34148 
L 363.439666 217.874218 
L 363.518721 230.101402 
L 363.676435 130.694395 
L 363.755093 135.096181 
L 363.833621 134.851637 
L 363.912017 136.318899 
L 363.990283 140.965229 
L 364.302049 119.323113 
L 364.379668 121.034919 
L 364.45716 122.868997 
L 364.61176 115.165871 
L 364.68887 119.567657 
L 364.842712 108.807735 
L 364.919444 107.951832 
L 364.996052 108.318648 
L 365.148892 107.585017 
L 365.225127 107.585017 
L 365.301238 107.095929 
L 365.377226 107.218201 
L 365.528834 107.218201 
L 365.755334 107.462745 
L 366.055645 106.851386 
L 366.130424 106.729114 
L 366.205084 106.851386 
L 366.35405 106.606842 
L 366.576616 106.851386 
L 366.650572 106.729114 
L 366.724411 106.851386 
L 366.945234 106.48457 
L 367.165025 106.240026 
L 367.310984 106.240026 
L 367.45649 106.48457 
L 367.529075 106.48457 
L 367.746159 106.240026 
L 367.818298 106.240026 
L 367.962244 106.48457 
L 368.177341 106.117755 
L 368.320194 106.117755 
L 368.391458 105.873211 
L 368.462614 105.995483 
L 368.533663 105.995483 
L 368.604604 105.873211 
L 368.746166 105.995483 
L 368.887303 105.873211 
L 368.957713 105.873211 
L 369.168311 106.362298 
L 369.308188 106.117755 
L 369.377971 106.117754 
L 369.44765 106.362298 
L 369.65607 105.995483 
L 369.725338 105.995483 
L 369.794504 106.240026 
L 369.863569 106.117754 
L 369.932532 106.240026 
L 370.070156 105.995483 
L 370.138818 106.362298 
L 370.207379 106.240026 
L 370.27584 106.362298 
L 370.344201 106.240026 
L 370.412464 106.362298 
L 370.480627 106.240026 
L 370.548691 106.362298 
L 370.616657 106.240026 
L 370.684525 106.48457 
L 370.752296 106.362298 
L 370.819968 106.362298 
L 371.156877 106.851386 
L 371.558005 106.851386 
L 371.624528 106.729114 
L 371.757292 106.851386 
L 371.823534 106.851386 
L 372.021701 107.095929 
L 372.284631 107.095929 
L 372.480867 107.340473 
L 372.611238 107.218201 
L 372.676288 107.218201 
L 372.741248 107.462745 
L 372.870899 107.095929 
L 372.935591 107.095929 
L 373.064708 107.218201 
L 373.193471 107.218201 
L 373.257721 107.462745 
L 373.321883 107.340473 
L 373.895431 107.340473 
L 374.08507 107.707288 
L 374.148113 107.585017 
L 374.211071 107.707288 
L 374.399442 108.318648 
L 374.587062 108.563191 
L 374.711726 108.196376 
L 374.773935 108.440919 
L 374.836061 108.196376 
L 374.960068 108.440919 
L 375.268661 108.074104 
L 375.391533 108.196376 
L 375.575241 107.462745 
L 375.697315 107.82956 
L 375.819073 107.462745 
L 375.940517 107.707288 
L 376.001121 107.585017 
L 376.061647 107.707288 
L 376.122095 107.82956 
L 376.182466 107.707288 
L 376.242759 107.707288 
L 376.423176 107.585017 
L 376.483162 107.707288 
L 376.602903 107.462745 
L 376.66266 107.585017 
L 376.722341 107.095929 
L 376.781946 107.462745 
L 376.841475 107.218201 
L 376.900929 107.462745 
L 376.960309 107.218201 
L 377.019613 107.340473 
L 377.137997 107.340473 
L 377.256084 107.585017 
L 377.43266 107.095929 
L 377.491371 107.095929 
L 377.608575 107.218201 
L 377.667067 106.973657 
L 377.725487 107.095929 
L 377.783834 107.462745 
L 377.842108 107.340473 
L 377.958442 107.218201 
L 378.0165 107.585017 
L 378.074487 107.095929 
L 378.132403 107.462745 
L 378.190248 107.462745 
L 378.305723 107.218201 
L 378.420916 107.218201 
L 378.535827 107.095929 
L 378.650457 107.340473 
L 378.707668 107.095929 
L 378.764809 107.218201 
L 378.878883 107.340473 
L 379.106205 106.851386 
L 379.162864 106.973657 
L 379.332432 107.340473 
L 379.445138 107.340473 
L 379.557575 107.462745 
L 379.725727 107.095929 
L 379.89328 107.340473 
L 379.948999 107.340473 
L 380.115759 107.462745 
L 380.33719 107.218201 
L 380.557582 107.218201 
L 380.612519 107.462745 
L 380.667392 107.340473 
L 380.7222 107.218201 
L 380.776945 107.462745 
L 380.886244 106.729114 
L 380.940799 106.851386 
L 380.99529 106.729114 
L 381.158385 106.973657 
L 381.212625 106.851386 
L 381.266802 106.973657 
L 381.482887 106.973657 
L 381.590559 107.340473 
L 381.644302 107.218201 
L 381.805164 107.095929 
L 381.965478 107.218201 
L 382.178382 106.729114 
L 382.231458 107.340473 
L 382.284474 106.973657 
L 382.33743 106.851386 
L 382.390327 106.973657 
L 382.443164 106.973657 
L 382.495941 106.851386 
L 382.65392 107.340473 
L 382.758945 106.973657 
L 382.811369 107.340473 
L 382.863735 106.973657 
L 382.916043 107.218201 
L 382.968293 106.973657 
L 383.280577 107.707288 
L 383.332423 107.585017 
L 383.384212 107.462745 
L 383.435944 107.585017 
L 383.539238 107.585017 
L 383.693754 107.340473 
L 383.847763 107.951832 
L 384.00127 107.095929 
L 384.154277 107.707288 
L 384.306787 106.973657 
L 384.357514 107.585017 
L 384.458804 107.462745 
L 384.610331 106.729114 
L 384.761371 107.218201 
L 384.962005 106.362298 
L 385.111921 107.095929 
L 385.26136 106.48457 
L 385.311068 107.218201 
L 385.360723 106.48457 
L 385.410326 207.603383 
L 385.459876 152.581054 
L 385.55882 98.5369 
L 385.608215 100.737793 
L 385.657557 129.71622 
L 385.706848 112.231347 
L 385.756086 109.174551 
L 385.805274 114.309968 
L 385.952528 96.947366 
L 386.00151 102.816415 
L 386.050442 99.270531 
L 386.099322 95.969192 
L 386.148152 105.017308 
L 386.196931 94.624201 
L 386.245659 100.004162 
L 386.294337 98.5369 
L 386.342965 96.458279 
L 386.488546 109.78591 
L 386.681956 92.178765 
L 386.874574 86.676532 
L 387.01852 85.698357 
L 387.066405 86.065172 
L 387.162028 85.942901 
L 387.352691 84.964726 
L 387.400237 85.086998 
L 387.447734 84.964726 
L 387.495183 84.964726 
L 387.589938 85.20927 
L 387.684503 84.842454 
L 387.731714 84.964726 
L 387.778878 84.964726 
L 387.825994 85.20927 
L 387.873063 85.086998 
L 387.920085 84.964726 
L 387.920085 84.964726 
" clip-path="url(#p05cff3cc23)" style="fill: none; stroke: #ff7f0e; stroke-width: 1.5; stroke-linecap: square"/>
   </g>
   <g id="patch_3">
    <path d="M 47.032813 296.430125 
L 47.032813 30.318125 
" style="fill: none; stroke: #000000; stroke-width: 0.8; stroke-linejoin: miter; stroke-linecap: square"/>
   </g>
   <g id="patch_4">
    <path d="M 404.152812 296.430125 
L 404.152812 30.318125 
" style="fill: none; stroke: #000000; stroke-width: 0.8; stroke-linejoin: miter; stroke-linecap: square"/>
   </g>
   <g id="patch_5">
    <path d="M 47.032813 296.430125 
L 404.152812 296.430125 
" style="fill: none; stroke: #000000; stroke-width: 0.8; stroke-linejoin: miter; stroke-linecap: square"/>
   </g>
   <g id="patch_6">
    <path d="M 47.032813 30.318125 
L 404.152812 30.318125 
" style="fill: none; stroke: #000000; stroke-width: 0.8; stroke-linejoin: miter; stroke-linecap: square"/>
   </g>
   <g id="text_12">
    <!-- Accuracy per Epoch (ResNet-18 on SVHN) -->
    <g transform="translate(85.034375 16.318125) scale(0.12 -0.12)">
     <defs>
      <path id="DejaVuSans-Bold-65" d="M 4031 1759 
L 4031 1441 
L 1416 1441 
Q 1456 1047 1700 850 
Q 1944 653 2381 653 
Q 2734 653 3104 758 
Q 3475 863 3866 1075 
L 3866 213 
Q 3469 63 3072 -14 
Q 2675 -91 2278 -91 
Q 1328 -91 801 392 
Q 275 875 275 1747 
Q 275 2603 792 3093 
Q 1309 3584 2216 3584 
Q 3041 3584 3536 3087 
Q 4031 2591 4031 1759 
z
M 2881 2131 
Q 2881 2450 2695 2645 
Q 2509 2841 2209 2841 
Q 1884 2841 1681 2658 
Q 1478 2475 1428 2131 
L 2881 2131 
z
" transform="scale(0.015625)"/>
      <path id="DejaVuSans-Bold-52" d="M 2297 2597 
Q 2675 2597 2839 2737 
Q 3003 2878 3003 3200 
Q 3003 3519 2839 3656 
Q 2675 3794 2297 3794 
L 1791 3794 
L 1791 2597 
L 2297 2597 
z
M 1791 1766 
L 1791 0 
L 588 0 
L 588 4666 
L 2425 4666 
Q 3347 4666 3776 4356 
Q 4206 4047 4206 3378 
Q 4206 2916 3982 2619 
Q 3759 2322 3309 2181 
Q 3556 2125 3751 1926 
Q 3947 1728 4147 1325 
L 4800 0 
L 3519 0 
L 2950 1159 
Q 2778 1509 2601 1637 
Q 2425 1766 2131 1766 
L 1791 1766 
z
" transform="scale(0.015625)"/>
      <path id="DejaVuSans-Bold-73" d="M 3272 3391 
L 3272 2541 
Q 2913 2691 2578 2766 
Q 2244 2841 1947 2841 
Q 1628 2841 1473 2761 
Q 1319 2681 1319 2516 
Q 1319 2381 1436 2309 
Q 1553 2238 1856 2203 
L 2053 2175 
Q 2913 2066 3209 1816 
Q 3506 1566 3506 1031 
Q 3506 472 3093 190 
Q 2681 -91 1863 -91 
Q 1516 -91 1145 -36 
Q 775 19 384 128 
L 384 978 
Q 719 816 1070 734 
Q 1422 653 1784 653 
Q 2113 653 2278 743 
Q 2444 834 2444 1013 
Q 2444 1163 2330 1236 
Q 2216 1309 1875 1350 
L 1678 1375 
Q 931 1469 631 1722 
Q 331 1975 331 2491 
Q 331 3047 712 3315 
Q 1094 3584 1881 3584 
Q 2191 3584 2531 3537 
Q 2872 3491 3272 3391 
z
" transform="scale(0.015625)"/>
      <path id="DejaVuSans-Bold-4e" d="M 588 4666 
L 1931 4666 
L 3628 1466 
L 3628 4666 
L 4769 4666 
L 4769 0 
L 3425 0 
L 1728 3200 
L 1728 0 
L 588 0 
L 588 4666 
z
" transform="scale(0.015625)"/>
      <path id="DejaVuSans-Bold-74" d="M 1759 4494 
L 1759 3500 
L 2913 3500 
L 2913 2700 
L 1759 2700 
L 1759 1216 
Q 1759 972 1856 886 
Q 1953 800 2241 800 
L 2816 800 
L 2816 0 
L 1856 0 
Q 1194 0 917 276 
Q 641 553 641 1216 
L 641 2700 
L 84 2700 
L 84 3500 
L 641 3500 
L 641 4494 
L 1759 4494 
z
" transform="scale(0.015625)"/>
      <path id="DejaVuSans-Bold-2d" d="M 347 2297 
L 2309 2297 
L 2309 1388 
L 347 1388 
L 347 2297 
z
" transform="scale(0.015625)"/>
      <path id="DejaVuSans-Bold-31" d="M 750 831 
L 1813 831 
L 1813 3847 
L 722 3622 
L 722 4441 
L 1806 4666 
L 2950 4666 
L 2950 831 
L 4013 831 
L 4013 0 
L 750 0 
L 750 831 
z
" transform="scale(0.015625)"/>
      <path id="DejaVuSans-Bold-38" d="M 2228 2088 
Q 1891 2088 1709 1903 
Q 1528 1719 1528 1375 
Q 1528 1031 1709 848 
Q 1891 666 2228 666 
Q 2563 666 2741 848 
Q 2919 1031 2919 1375 
Q 2919 1722 2741 1905 
Q 2563 2088 2228 2088 
z
M 1350 2484 
Q 925 2613 709 2878 
Q 494 3144 494 3541 
Q 494 4131 934 4440 
Q 1375 4750 2228 4750 
Q 3075 4750 3515 4442 
Q 3956 4134 3956 3541 
Q 3956 3144 3739 2878 
Q 3522 2613 3097 2484 
Q 3572 2353 3814 2058 
Q 4056 1763 4056 1313 
Q 4056 619 3595 264 
Q 3134 -91 2228 -91 
Q 1319 -91 855 264 
Q 391 619 391 1313 
Q 391 1763 633 2058 
Q 875 2353 1350 2484 
z
M 1631 3419 
Q 1631 3141 1786 2991 
Q 1941 2841 2228 2841 
Q 2509 2841 2662 2991 
Q 2816 3141 2816 3419 
Q 2816 3697 2662 3845 
Q 2509 3994 2228 3994 
Q 1941 3994 1786 3844 
Q 1631 3694 1631 3419 
z
" transform="scale(0.015625)"/>
      <path id="DejaVuSans-Bold-6e" d="M 4056 2131 
L 4056 0 
L 2931 0 
L 2931 347 
L 2931 1631 
Q 2931 2084 2911 2256 
Q 2891 2428 2841 2509 
Q 2775 2619 2662 2680 
Q 2550 2741 2406 2741 
Q 2056 2741 1856 2470 
Q 1656 2200 1656 1722 
L 1656 0 
L 538 0 
L 538 3500 
L 1656 3500 
L 1656 2988 
Q 1909 3294 2193 3439 
Q 2478 3584 2822 3584 
Q 3428 3584 3742 3212 
Q 4056 2841 4056 2131 
z
" transform="scale(0.015625)"/>
      <path id="DejaVuSans-Bold-53" d="M 3834 4519 
L 3834 3531 
Q 3450 3703 3084 3790 
Q 2719 3878 2394 3878 
Q 1963 3878 1756 3759 
Q 1550 3641 1550 3391 
Q 1550 3203 1689 3098 
Q 1828 2994 2194 2919 
L 2706 2816 
Q 3484 2659 3812 2340 
Q 4141 2022 4141 1434 
Q 4141 663 3683 286 
Q 3225 -91 2284 -91 
Q 1841 -91 1394 -6 
Q 947 78 500 244 
L 500 1259 
Q 947 1022 1364 901 
Q 1781 781 2169 781 
Q 2563 781 2772 912 
Q 2981 1044 2981 1288 
Q 2981 1506 2839 1625 
Q 2697 1744 2272 1838 
L 1806 1941 
Q 1106 2091 782 2419 
Q 459 2747 459 3303 
Q 459 4000 909 4375 
Q 1359 4750 2203 4750 
Q 2588 4750 2994 4692 
Q 3400 4634 3834 4519 
z
" transform="scale(0.015625)"/>
      <path id="DejaVuSans-Bold-56" d="M 31 4666 
L 1241 4666 
L 2478 1222 
L 3713 4666 
L 4922 4666 
L 3194 0 
L 1759 0 
L 31 4666 
z
" transform="scale(0.015625)"/>
      <path id="DejaVuSans-Bold-48" d="M 588 4666 
L 1791 4666 
L 1791 2888 
L 3566 2888 
L 3566 4666 
L 4769 4666 
L 4769 0 
L 3566 0 
L 3566 1978 
L 1791 1978 
L 1791 0 
L 588 0 
L 588 4666 
z
" transform="scale(0.015625)"/>
     </defs>
     <use xlink:href="#DejaVuSans-Bold-41"/>
     <use xlink:href="#DejaVuSans-Bold-63" transform="translate(77.392578 0)"/>
     <use xlink:href="#DejaVuSans-Bold-63" transform="translate(136.669922 0)"/>
     <use xlink:href="#DejaVuSans-Bold-75" transform="translate(195.947266 0)"/>
     <use xlink:href="#DejaVuSans-Bold-72" transform="translate(267.138672 0)"/>
     <use xlink:href="#DejaVuSans-Bold-61" transform="translate(316.455078 0)"/>
     <use xlink:href="#DejaVuSans-Bold-63" transform="translate(383.935547 0)"/>
     <use xlink:href="#DejaVuSans-Bold-79" transform="translate(443.212891 0)"/>
     <use xlink:href="#DejaVuSans-Bold-20" transform="translate(508.398438 0)"/>
     <use xlink:href="#DejaVuSans-Bold-70" transform="translate(543.212891 0)"/>
     <use xlink:href="#DejaVuSans-Bold-65" transform="translate(614.794922 0)"/>
     <use xlink:href="#DejaVuSans-Bold-72" transform="translate(682.617188 0)"/>
     <use xlink:href="#DejaVuSans-Bold-20" transform="translate(731.933594 0)"/>
     <use xlink:href="#DejaVuSans-Bold-45" transform="translate(766.748047 0)"/>
     <use xlink:href="#DejaVuSans-Bold-70" transform="translate(835.058594 0)"/>
     <use xlink:href="#DejaVuSans-Bold-6f" transform="translate(906.640625 0)"/>
     <use xlink:href="#DejaVuSans-Bold-63" transform="translate(975.341797 0)"/>
     <use xlink:href="#DejaVuSans-Bold-68" transform="translate(1034.619141 0)"/>
     <use xlink:href="#DejaVuSans-Bold-20" transform="translate(1105.810547 0)"/>
     <use xlink:href="#DejaVuSans-Bold-28" transform="translate(1140.625 0)"/>
     <use xlink:href="#DejaVuSans-Bold-52" transform="translate(1186.328125 0)"/>
     <use xlink:href="#DejaVuSans-Bold-65" transform="translate(1263.330078 0)"/>
     <use xlink:href="#DejaVuSans-Bold-73" transform="translate(1331.152344 0)"/>
     <use xlink:href="#DejaVuSans-Bold-4e" transform="translate(1390.673828 0)"/>
     <use xlink:href="#DejaVuSans-Bold-65" transform="translate(1474.365234 0)"/>
     <use xlink:href="#DejaVuSans-Bold-74" transform="translate(1542.1875 0)"/>
     <use xlink:href="#DejaVuSans-Bold-2d" transform="translate(1589.990234 0)"/>
     <use xlink:href="#DejaVuSans-Bold-31" transform="translate(1631.494141 0)"/>
     <use xlink:href="#DejaVuSans-Bold-38" transform="translate(1701.074219 0)"/>
     <use xlink:href="#DejaVuSans-Bold-20" transform="translate(1770.654297 0)"/>
     <use xlink:href="#DejaVuSans-Bold-6f" transform="translate(1805.46875 0)"/>
     <use xlink:href="#DejaVuSans-Bold-6e" transform="translate(1874.169922 0)"/>
     <use xlink:href="#DejaVuSans-Bold-20" transform="translate(1945.361328 0)"/>
     <use xlink:href="#DejaVuSans-Bold-53" transform="translate(1980.175781 0)"/>
     <use xlink:href="#DejaVuSans-Bold-56" transform="translate(2052.197266 0)"/>
     <use xlink:href="#DejaVuSans-Bold-48" transform="translate(2129.589844 0)"/>
     <use xlink:href="#DejaVuSans-Bold-4e" transform="translate(2213.28125 0)"/>
     <use xlink:href="#DejaVuSans-Bold-29" transform="translate(2296.972656 0)"/>
    </g>
   </g>
   <g id="legend_1">
    <g id="patch_7">
     <path d="M 54.032813 67.674375 
L 135.414062 67.674375 
Q 137.414062 67.674375 137.414062 65.674375 
L 137.414062 37.318125 
Q 137.414062 35.318125 135.414062 35.318125 
L 54.032813 35.318125 
Q 52.032813 35.318125 52.032813 37.318125 
L 52.032813 65.674375 
Q 52.032813 67.674375 54.032813 67.674375 
z
" style="fill: #ffffff; opacity: 0.8; stroke: #cccccc; stroke-linejoin: miter"/>
    </g>
    <g id="line2d_38">
     <path d="M 56.032813 43.416562 
L 66.032813 43.416562 
L 76.032813 43.416562 
" style="fill: none; stroke: #1f77b4; stroke-width: 1.5; stroke-linecap: square"/>
    </g>
    <g id="text_13">
     <!-- Train -->
     <g transform="translate(84.032813 46.916562) scale(0.1 -0.1)">
      <defs>
       <path id="DejaVuSans-54" d="M -19 4666 
L 3928 4666 
L 3928 4134 
L 2272 4134 
L 2272 0 
L 1638 0 
L 1638 4134 
L -19 4134 
L -19 4666 
z
" transform="scale(0.015625)"/>
       <path id="DejaVuSans-72" d="M 2631 2963 
Q 2534 3019 2420 3045 
Q 2306 3072 2169 3072 
Q 1681 3072 1420 2755 
Q 1159 2438 1159 1844 
L 1159 0 
L 581 0 
L 581 3500 
L 1159 3500 
L 1159 2956 
Q 1341 3275 1631 3429 
Q 1922 3584 2338 3584 
Q 2397 3584 2469 3576 
Q 2541 3569 2628 3553 
L 2631 2963 
z
" transform="scale(0.015625)"/>
       <path id="DejaVuSans-61" d="M 2194 1759 
Q 1497 1759 1228 1600 
Q 959 1441 959 1056 
Q 959 750 1161 570 
Q 1363 391 1709 391 
Q 2188 391 2477 730 
Q 2766 1069 2766 1631 
L 2766 1759 
L 2194 1759 
z
M 3341 1997 
L 3341 0 
L 2766 0 
L 2766 531 
Q 2569 213 2275 61 
Q 1981 -91 1556 -91 
Q 1019 -91 701 211 
Q 384 513 384 1019 
Q 384 1609 779 1909 
Q 1175 2209 1959 2209 
L 2766 2209 
L 2766 2266 
Q 2766 2663 2505 2880 
Q 2244 3097 1772 3097 
Q 1472 3097 1187 3025 
Q 903 2953 641 2809 
L 641 3341 
Q 956 3463 1253 3523 
Q 1550 3584 1831 3584 
Q 2591 3584 2966 3190 
Q 3341 2797 3341 1997 
z
" transform="scale(0.015625)"/>
       <path id="DejaVuSans-69" d="M 603 3500 
L 1178 3500 
L 1178 0 
L 603 0 
L 603 3500 
z
M 603 4863 
L 1178 4863 
L 1178 4134 
L 603 4134 
L 603 4863 
z
" transform="scale(0.015625)"/>
       <path id="DejaVuSans-6e" d="M 3513 2113 
L 3513 0 
L 2938 0 
L 2938 2094 
Q 2938 2591 2744 2837 
Q 2550 3084 2163 3084 
Q 1697 3084 1428 2787 
Q 1159 2491 1159 1978 
L 1159 0 
L 581 0 
L 581 3500 
L 1159 3500 
L 1159 2956 
Q 1366 3272 1645 3428 
Q 1925 3584 2291 3584 
Q 2894 3584 3203 3211 
Q 3513 2838 3513 2113 
z
" transform="scale(0.015625)"/>
      </defs>
      <use xlink:href="#DejaVuSans-54"/>
      <use xlink:href="#DejaVuSans-72" transform="translate(46.333984 0)"/>
      <use xlink:href="#DejaVuSans-61" transform="translate(87.447266 0)"/>
      <use xlink:href="#DejaVuSans-69" transform="translate(148.726562 0)"/>
      <use xlink:href="#DejaVuSans-6e" transform="translate(176.509766 0)"/>
     </g>
    </g>
    <g id="line2d_39">
     <path d="M 56.032813 58.094687 
L 66.032813 58.094687 
L 76.032813 58.094687 
" style="fill: none; stroke: #ff7f0e; stroke-width: 1.5; stroke-linecap: square"/>
    </g>
    <g id="text_14">
     <!-- Validation -->
     <g transform="translate(84.032813 61.594687) scale(0.1 -0.1)">
      <defs>
       <path id="DejaVuSans-56" d="M 1831 0 
L 50 4666 
L 709 4666 
L 2188 738 
L 3669 4666 
L 4325 4666 
L 2547 0 
L 1831 0 
z
" transform="scale(0.015625)"/>
       <path id="DejaVuSans-6c" d="M 603 4863 
L 1178 4863 
L 1178 0 
L 603 0 
L 603 4863 
z
" transform="scale(0.015625)"/>
       <path id="DejaVuSans-64" d="M 2906 2969 
L 2906 4863 
L 3481 4863 
L 3481 0 
L 2906 0 
L 2906 525 
Q 2725 213 2448 61 
Q 2172 -91 1784 -91 
Q 1150 -91 751 415 
Q 353 922 353 1747 
Q 353 2572 751 3078 
Q 1150 3584 1784 3584 
Q 2172 3584 2448 3432 
Q 2725 3281 2906 2969 
z
M 947 1747 
Q 947 1113 1208 752 
Q 1469 391 1925 391 
Q 2381 391 2643 752 
Q 2906 1113 2906 1747 
Q 2906 2381 2643 2742 
Q 2381 3103 1925 3103 
Q 1469 3103 1208 2742 
Q 947 2381 947 1747 
z
" transform="scale(0.015625)"/>
       <path id="DejaVuSans-74" d="M 1172 4494 
L 1172 3500 
L 2356 3500 
L 2356 3053 
L 1172 3053 
L 1172 1153 
Q 1172 725 1289 603 
Q 1406 481 1766 481 
L 2356 481 
L 2356 0 
L 1766 0 
Q 1100 0 847 248 
Q 594 497 594 1153 
L 594 3053 
L 172 3053 
L 172 3500 
L 594 3500 
L 594 4494 
L 1172 4494 
z
" transform="scale(0.015625)"/>
       <path id="DejaVuSans-6f" d="M 1959 3097 
Q 1497 3097 1228 2736 
Q 959 2375 959 1747 
Q 959 1119 1226 758 
Q 1494 397 1959 397 
Q 2419 397 2687 759 
Q 2956 1122 2956 1747 
Q 2956 2369 2687 2733 
Q 2419 3097 1959 3097 
z
M 1959 3584 
Q 2709 3584 3137 3096 
Q 3566 2609 3566 1747 
Q 3566 888 3137 398 
Q 2709 -91 1959 -91 
Q 1206 -91 779 398 
Q 353 888 353 1747 
Q 353 2609 779 3096 
Q 1206 3584 1959 3584 
z
" transform="scale(0.015625)"/>
      </defs>
      <use xlink:href="#DejaVuSans-56"/>
      <use xlink:href="#DejaVuSans-61" transform="translate(60.658203 0)"/>
      <use xlink:href="#DejaVuSans-6c" transform="translate(121.9375 0)"/>
      <use xlink:href="#DejaVuSans-69" transform="translate(149.720703 0)"/>
      <use xlink:href="#DejaVuSans-64" transform="translate(177.503906 0)"/>
      <use xlink:href="#DejaVuSans-61" transform="translate(240.980469 0)"/>
      <use xlink:href="#DejaVuSans-74" transform="translate(302.259766 0)"/>
      <use xlink:href="#DejaVuSans-69" transform="translate(341.46875 0)"/>
      <use xlink:href="#DejaVuSans-6f" transform="translate(369.251953 0)"/>
      <use xlink:href="#DejaVuSans-6e" transform="translate(430.433594 0)"/>
     </g>
    </g>
   </g>
  </g>
 </g>
 <defs>
  <clipPath id="p05cff3cc23">
   <rect x="47.032813" y="30.318125" width="357.12" height="266.112"/>
  </clipPath>
 </defs>
</svg>
