<?xml version="1.0" encoding="utf-8" standalone="no"?>
<!DOCTYPE svg PUBLIC "-//W3C//DTD SVG 1.1//EN"
  "http://www.w3.org/Graphics/SVG/1.1/DTD/svg11.dtd">
<svg xmlns:xlink="http://www.w3.org/1999/xlink" width="411.352812pt" height="333.986375pt" viewBox="0 0 411.352812 333.986375" xmlns="http://www.w3.org/2000/svg" version="1.1">
 <metadata>
  <rdf:RDF xmlns:dc="http://purl.org/dc/elements/1.1/" xmlns:cc="http://creativecommons.org/ns#" xmlns:rdf="http://www.w3.org/1999/02/22-rdf-syntax-ns#">
   <cc:Work>
    <dc:type rdf:resource="http://purl.org/dc/dcmitype/StillImage"/>
    <dc:date>2025-11-26T12:46:22.187984</dc:date>
    <dc:format>image/svg+xml</dc:format>
    <dc:creator>
     <cc:Agent>
      <dc:title>Matplotlib v3.10.7, https://matplotlib.org/</dc:title>
     </cc:Agent>
    </dc:creator>
   </cc:Work>
  </rdf:RDF>
 </metadata>
 <defs>
  <style type="text/css">*{stroke-linejoin: round; stroke-linecap: butt}</style>
 </defs>
 <g id="figure_1">
  <g id="patch_1">
   <path d="M 0 333.986375 
L 411.352812 333.986375 
L 411.352812 0 
L 0 0 
z
" style="fill: #ffffff"/>
  </g>
  <g id="axes_1">
   <g id="patch_2">
    <path d="M 47.032813 296.430125 
L 404.152812 296.430125 
L 404.152812 30.318125 
L 47.032813 30.318125 
z
" style="fill: #ffffff"/>
   </g>
   <g id="matplotlib.axis_1">
    <g id="xtick_1">
     <g id="line2d_1">
      <defs>
       <path id="m6bd90dbcae" d="M 0 0 
L 0 3.5 
" style="stroke: #000000; stroke-width: 0.8"/>
      </defs>
      <g>
       <use xlink:href="#m6bd90dbcae" x="63.26554" y="296.430125" style="stroke: #000000; stroke-width: 0.8"/>
      </g>
     </g>
     <g id="text_1">
      <!-- $\mathdefault{10^{0}}$ -->
      <g transform="translate(54.46554 311.028562) scale(0.1 -0.1)">
       <defs>
        <path id="DejaVuSans-31" d="M 794 531 
L 1825 531 
L 1825 4091 
L 703 3866 
L 703 4441 
L 1819 4666 
L 2450 4666 
L 2450 531 
L 3481 531 
L 3481 0 
L 794 0 
L 794 531 
z
" transform="scale(0.015625)"/>
        <path id="DejaVuSans-30" d="M 2034 4250 
Q 1547 4250 1301 3770 
Q 1056 3291 1056 2328 
Q 1056 1369 1301 889 
Q 1547 409 2034 409 
Q 2525 409 2770 889 
Q 3016 1369 3016 2328 
Q 3016 3291 2770 3770 
Q 2525 4250 2034 4250 
z
M 2034 4750 
Q 2819 4750 3233 4129 
Q 3647 3509 3647 2328 
Q 3647 1150 3233 529 
Q 2819 -91 2034 -91 
Q 1250 -91 836 529 
Q 422 1150 422 2328 
Q 422 3509 836 4129 
Q 1250 4750 2034 4750 
z
" transform="scale(0.015625)"/>
       </defs>
       <use xlink:href="#DejaVuSans-31" transform="translate(0 0.765625)"/>
       <use xlink:href="#DejaVuSans-30" transform="translate(63.623047 0.765625)"/>
       <use xlink:href="#DejaVuSans-30" transform="translate(128.203125 39.046875) scale(0.7)"/>
      </g>
     </g>
    </g>
    <g id="xtick_2">
     <g id="line2d_2">
      <g>
       <use xlink:href="#m6bd90dbcae" x="171.483722" y="296.430125" style="stroke: #000000; stroke-width: 0.8"/>
      </g>
     </g>
     <g id="text_2">
      <!-- $\mathdefault{10^{1}}$ -->
      <g transform="translate(162.683722 311.028562) scale(0.1 -0.1)">
       <use xlink:href="#DejaVuSans-31" transform="translate(0 0.684375)"/>
       <use xlink:href="#DejaVuSans-30" transform="translate(63.623047 0.684375)"/>
       <use xlink:href="#DejaVuSans-31" transform="translate(128.203125 38.965625) scale(0.7)"/>
      </g>
     </g>
    </g>
    <g id="xtick_3">
     <g id="line2d_3">
      <g>
       <use xlink:href="#m6bd90dbcae" x="279.701903" y="296.430125" style="stroke: #000000; stroke-width: 0.8"/>
      </g>
     </g>
     <g id="text_3">
      <!-- $\mathdefault{10^{2}}$ -->
      <g transform="translate(270.901903 311.028562) scale(0.1 -0.1)">
       <defs>
        <path id="DejaVuSans-32" d="M 1228 531 
L 3431 531 
L 3431 0 
L 469 0 
L 469 531 
Q 828 903 1448 1529 
Q 2069 2156 2228 2338 
Q 2531 2678 2651 2914 
Q 2772 3150 2772 3378 
Q 2772 3750 2511 3984 
Q 2250 4219 1831 4219 
Q 1534 4219 1204 4116 
Q 875 4013 500 3803 
L 500 4441 
Q 881 4594 1212 4672 
Q 1544 4750 1819 4750 
Q 2544 4750 2975 4387 
Q 3406 4025 3406 3419 
Q 3406 3131 3298 2873 
Q 3191 2616 2906 2266 
Q 2828 2175 2409 1742 
Q 1991 1309 1228 531 
z
" transform="scale(0.015625)"/>
       </defs>
       <use xlink:href="#DejaVuSans-31" transform="translate(0 0.765625)"/>
       <use xlink:href="#DejaVuSans-30" transform="translate(63.623047 0.765625)"/>
       <use xlink:href="#DejaVuSans-32" transform="translate(128.203125 39.046875) scale(0.7)"/>
      </g>
     </g>
    </g>
    <g id="xtick_4">
     <g id="line2d_4">
      <g>
       <use xlink:href="#m6bd90dbcae" x="387.920085" y="296.430125" style="stroke: #000000; stroke-width: 0.8"/>
      </g>
     </g>
     <g id="text_4">
      <!-- $\mathdefault{10^{3}}$ -->
      <g transform="translate(379.120085 311.028562) scale(0.1 -0.1)">
       <defs>
        <path id="DejaVuSans-33" d="M 2597 2516 
Q 3050 2419 3304 2112 
Q 3559 1806 3559 1356 
Q 3559 666 3084 287 
Q 2609 -91 1734 -91 
Q 1441 -91 1130 -33 
Q 819 25 488 141 
L 488 750 
Q 750 597 1062 519 
Q 1375 441 1716 441 
Q 2309 441 2620 675 
Q 2931 909 2931 1356 
Q 2931 1769 2642 2001 
Q 2353 2234 1838 2234 
L 1294 2234 
L 1294 2753 
L 1863 2753 
Q 2328 2753 2575 2939 
Q 2822 3125 2822 3475 
Q 2822 3834 2567 4026 
Q 2313 4219 1838 4219 
Q 1578 4219 1281 4162 
Q 984 4106 628 3988 
L 628 4550 
Q 988 4650 1302 4700 
Q 1616 4750 1894 4750 
Q 2613 4750 3031 4423 
Q 3450 4097 3450 3541 
Q 3450 3153 3228 2886 
Q 3006 2619 2597 2516 
z
" transform="scale(0.015625)"/>
       </defs>
       <use xlink:href="#DejaVuSans-31" transform="translate(0 0.765625)"/>
       <use xlink:href="#DejaVuSans-30" transform="translate(63.623047 0.765625)"/>
       <use xlink:href="#DejaVuSans-33" transform="translate(128.203125 39.046875) scale(0.7)"/>
      </g>
     </g>
    </g>
    <g id="xtick_5">
     <g id="line2d_5">
      <defs>
       <path id="ma44ddc6c76" d="M 0 0 
L 0 2 
" style="stroke: #000000; stroke-width: 0.6"/>
      </defs>
      <g>
       <use xlink:href="#ma44ddc6c76" x="52.778114" y="296.430125" style="stroke: #000000; stroke-width: 0.6"/>
      </g>
     </g>
    </g>
    <g id="xtick_6">
     <g id="line2d_6">
      <g>
       <use xlink:href="#ma44ddc6c76" x="58.313747" y="296.430125" style="stroke: #000000; stroke-width: 0.6"/>
      </g>
     </g>
    </g>
    <g id="xtick_7">
     <g id="line2d_7">
      <g>
       <use xlink:href="#ma44ddc6c76" x="95.842459" y="296.430125" style="stroke: #000000; stroke-width: 0.6"/>
      </g>
     </g>
    </g>
    <g id="xtick_8">
     <g id="line2d_8">
      <g>
       <use xlink:href="#ma44ddc6c76" x="114.898734" y="296.430125" style="stroke: #000000; stroke-width: 0.6"/>
      </g>
     </g>
    </g>
    <g id="xtick_9">
     <g id="line2d_9">
      <g>
       <use xlink:href="#ma44ddc6c76" x="128.419377" y="296.430125" style="stroke: #000000; stroke-width: 0.6"/>
      </g>
     </g>
    </g>
    <g id="xtick_10">
     <g id="line2d_10">
      <g>
       <use xlink:href="#ma44ddc6c76" x="138.906803" y="296.430125" style="stroke: #000000; stroke-width: 0.6"/>
      </g>
     </g>
    </g>
    <g id="xtick_11">
     <g id="line2d_11">
      <g>
       <use xlink:href="#ma44ddc6c76" x="147.475653" y="296.430125" style="stroke: #000000; stroke-width: 0.6"/>
      </g>
     </g>
    </g>
    <g id="xtick_12">
     <g id="line2d_12">
      <g>
       <use xlink:href="#ma44ddc6c76" x="154.720513" y="296.430125" style="stroke: #000000; stroke-width: 0.6"/>
      </g>
     </g>
    </g>
    <g id="xtick_13">
     <g id="line2d_13">
      <g>
       <use xlink:href="#ma44ddc6c76" x="160.996296" y="296.430125" style="stroke: #000000; stroke-width: 0.6"/>
      </g>
     </g>
    </g>
    <g id="xtick_14">
     <g id="line2d_14">
      <g>
       <use xlink:href="#ma44ddc6c76" x="166.531929" y="296.430125" style="stroke: #000000; stroke-width: 0.6"/>
      </g>
     </g>
    </g>
    <g id="xtick_15">
     <g id="line2d_15">
      <g>
       <use xlink:href="#ma44ddc6c76" x="204.06064" y="296.430125" style="stroke: #000000; stroke-width: 0.6"/>
      </g>
     </g>
    </g>
    <g id="xtick_16">
     <g id="line2d_16">
      <g>
       <use xlink:href="#ma44ddc6c76" x="223.116916" y="296.430125" style="stroke: #000000; stroke-width: 0.6"/>
      </g>
     </g>
    </g>
    <g id="xtick_17">
     <g id="line2d_17">
      <g>
       <use xlink:href="#ma44ddc6c76" x="236.637559" y="296.430125" style="stroke: #000000; stroke-width: 0.6"/>
      </g>
     </g>
    </g>
    <g id="xtick_18">
     <g id="line2d_18">
      <g>
       <use xlink:href="#ma44ddc6c76" x="247.124985" y="296.430125" style="stroke: #000000; stroke-width: 0.6"/>
      </g>
     </g>
    </g>
    <g id="xtick_19">
     <g id="line2d_19">
      <g>
       <use xlink:href="#ma44ddc6c76" x="255.693835" y="296.430125" style="stroke: #000000; stroke-width: 0.6"/>
      </g>
     </g>
    </g>
    <g id="xtick_20">
     <g id="line2d_20">
      <g>
       <use xlink:href="#ma44ddc6c76" x="262.938695" y="296.430125" style="stroke: #000000; stroke-width: 0.6"/>
      </g>
     </g>
    </g>
    <g id="xtick_21">
     <g id="line2d_21">
      <g>
       <use xlink:href="#ma44ddc6c76" x="269.214478" y="296.430125" style="stroke: #000000; stroke-width: 0.6"/>
      </g>
     </g>
    </g>
    <g id="xtick_22">
     <g id="line2d_22">
      <g>
       <use xlink:href="#ma44ddc6c76" x="274.750111" y="296.430125" style="stroke: #000000; stroke-width: 0.6"/>
      </g>
     </g>
    </g>
    <g id="xtick_23">
     <g id="line2d_23">
      <g>
       <use xlink:href="#ma44ddc6c76" x="312.278822" y="296.430125" style="stroke: #000000; stroke-width: 0.6"/>
      </g>
     </g>
    </g>
    <g id="xtick_24">
     <g id="line2d_24">
      <g>
       <use xlink:href="#ma44ddc6c76" x="331.335098" y="296.430125" style="stroke: #000000; stroke-width: 0.6"/>
      </g>
     </g>
    </g>
    <g id="xtick_25">
     <g id="line2d_25">
      <g>
       <use xlink:href="#ma44ddc6c76" x="344.855741" y="296.430125" style="stroke: #000000; stroke-width: 0.6"/>
      </g>
     </g>
    </g>
    <g id="xtick_26">
     <g id="line2d_26">
      <g>
       <use xlink:href="#ma44ddc6c76" x="355.343166" y="296.430125" style="stroke: #000000; stroke-width: 0.6"/>
      </g>
     </g>
    </g>
    <g id="xtick_27">
     <g id="line2d_27">
      <g>
       <use xlink:href="#ma44ddc6c76" x="363.912017" y="296.430125" style="stroke: #000000; stroke-width: 0.6"/>
      </g>
     </g>
    </g>
    <g id="xtick_28">
     <g id="line2d_28">
      <g>
       <use xlink:href="#ma44ddc6c76" x="371.156877" y="296.430125" style="stroke: #000000; stroke-width: 0.6"/>
      </g>
     </g>
    </g>
    <g id="xtick_29">
     <g id="line2d_29">
      <g>
       <use xlink:href="#ma44ddc6c76" x="377.43266" y="296.430125" style="stroke: #000000; stroke-width: 0.6"/>
      </g>
     </g>
    </g>
    <g id="xtick_30">
     <g id="line2d_30">
      <g>
       <use xlink:href="#ma44ddc6c76" x="382.968293" y="296.430125" style="stroke: #000000; stroke-width: 0.6"/>
      </g>
     </g>
    </g>
    <g id="text_5">
     <!-- Epoch -->
     <g transform="translate(208.639688 324.706687) scale(0.1 -0.1)">
      <defs>
       <path id="DejaVuSans-Bold-45" d="M 588 4666 
L 3834 4666 
L 3834 3756 
L 1791 3756 
L 1791 2888 
L 3713 2888 
L 3713 1978 
L 1791 1978 
L 1791 909 
L 3903 909 
L 3903 0 
L 588 0 
L 588 4666 
z
" transform="scale(0.015625)"/>
       <path id="DejaVuSans-Bold-70" d="M 1656 506 
L 1656 -1331 
L 538 -1331 
L 538 3500 
L 1656 3500 
L 1656 2988 
Q 1888 3294 2169 3439 
Q 2450 3584 2816 3584 
Q 3463 3584 3878 3070 
Q 4294 2556 4294 1747 
Q 4294 938 3878 423 
Q 3463 -91 2816 -91 
Q 2450 -91 2169 54 
Q 1888 200 1656 506 
z
M 2400 2772 
Q 2041 2772 1848 2508 
Q 1656 2244 1656 1747 
Q 1656 1250 1848 986 
Q 2041 722 2400 722 
Q 2759 722 2948 984 
Q 3138 1247 3138 1747 
Q 3138 2247 2948 2509 
Q 2759 2772 2400 2772 
z
" transform="scale(0.015625)"/>
       <path id="DejaVuSans-Bold-6f" d="M 2203 2784 
Q 1831 2784 1636 2517 
Q 1441 2250 1441 1747 
Q 1441 1244 1636 976 
Q 1831 709 2203 709 
Q 2569 709 2762 976 
Q 2956 1244 2956 1747 
Q 2956 2250 2762 2517 
Q 2569 2784 2203 2784 
z
M 2203 3584 
Q 3106 3584 3614 3096 
Q 4122 2609 4122 1747 
Q 4122 884 3614 396 
Q 3106 -91 2203 -91 
Q 1297 -91 786 396 
Q 275 884 275 1747 
Q 275 2609 786 3096 
Q 1297 3584 2203 3584 
z
" transform="scale(0.015625)"/>
       <path id="DejaVuSans-Bold-63" d="M 3366 3391 
L 3366 2478 
Q 3138 2634 2908 2709 
Q 2678 2784 2431 2784 
Q 1963 2784 1702 2511 
Q 1441 2238 1441 1747 
Q 1441 1256 1702 982 
Q 1963 709 2431 709 
Q 2694 709 2930 787 
Q 3166 866 3366 1019 
L 3366 103 
Q 3103 6 2833 -42 
Q 2563 -91 2291 -91 
Q 1344 -91 809 395 
Q 275 881 275 1747 
Q 275 2613 809 3098 
Q 1344 3584 2291 3584 
Q 2566 3584 2833 3536 
Q 3100 3488 3366 3391 
z
" transform="scale(0.015625)"/>
       <path id="DejaVuSans-Bold-68" d="M 4056 2131 
L 4056 0 
L 2931 0 
L 2931 347 
L 2931 1625 
Q 2931 2084 2911 2256 
Q 2891 2428 2841 2509 
Q 2775 2619 2662 2680 
Q 2550 2741 2406 2741 
Q 2056 2741 1856 2470 
Q 1656 2200 1656 1722 
L 1656 0 
L 538 0 
L 538 4863 
L 1656 4863 
L 1656 2988 
Q 1909 3294 2193 3439 
Q 2478 3584 2822 3584 
Q 3428 3584 3742 3212 
Q 4056 2841 4056 2131 
z
" transform="scale(0.015625)"/>
      </defs>
      <use xlink:href="#DejaVuSans-Bold-45"/>
      <use xlink:href="#DejaVuSans-Bold-70" transform="translate(68.310547 0)"/>
      <use xlink:href="#DejaVuSans-Bold-6f" transform="translate(139.892578 0)"/>
      <use xlink:href="#DejaVuSans-Bold-63" transform="translate(208.59375 0)"/>
      <use xlink:href="#DejaVuSans-Bold-68" transform="translate(267.871094 0)"/>
     </g>
    </g>
   </g>
   <g id="matplotlib.axis_2">
    <g id="ytick_1">
     <g id="line2d_31">
      <defs>
       <path id="md6f3273b3a" d="M 0 0 
L -3.5 0 
" style="stroke: #000000; stroke-width: 0.8"/>
      </defs>
      <g>
       <use xlink:href="#md6f3273b3a" x="47.032813" y="253.326125" style="stroke: #000000; stroke-width: 0.8"/>
      </g>
     </g>
     <g id="text_6">
      <!-- 20 -->
      <g transform="translate(27.307813 257.125344) scale(0.1 -0.1)">
       <use xlink:href="#DejaVuSans-32"/>
       <use xlink:href="#DejaVuSans-30" transform="translate(63.623047 0)"/>
      </g>
     </g>
    </g>
    <g id="ytick_2">
     <g id="line2d_32">
      <g>
       <use xlink:href="#md6f3273b3a" x="47.032813" y="200.598125" style="stroke: #000000; stroke-width: 0.8"/>
      </g>
     </g>
     <g id="text_7">
      <!-- 40 -->
      <g transform="translate(27.307813 204.397344) scale(0.1 -0.1)">
       <defs>
        <path id="DejaVuSans-34" d="M 2419 4116 
L 825 1625 
L 2419 1625 
L 2419 4116 
z
M 2253 4666 
L 3047 4666 
L 3047 1625 
L 3713 1625 
L 3713 1100 
L 3047 1100 
L 3047 0 
L 2419 0 
L 2419 1100 
L 313 1100 
L 313 1709 
L 2253 4666 
z
" transform="scale(0.015625)"/>
       </defs>
       <use xlink:href="#DejaVuSans-34"/>
       <use xlink:href="#DejaVuSans-30" transform="translate(63.623047 0)"/>
      </g>
     </g>
    </g>
    <g id="ytick_3">
     <g id="line2d_33">
      <g>
       <use xlink:href="#md6f3273b3a" x="47.032813" y="147.870125" style="stroke: #000000; stroke-width: 0.8"/>
      </g>
     </g>
     <g id="text_8">
      <!-- 60 -->
      <g transform="translate(27.307813 151.669344) scale(0.1 -0.1)">
       <defs>
        <path id="DejaVuSans-36" d="M 2113 2584 
Q 1688 2584 1439 2293 
Q 1191 2003 1191 1497 
Q 1191 994 1439 701 
Q 1688 409 2113 409 
Q 2538 409 2786 701 
Q 3034 994 3034 1497 
Q 3034 2003 2786 2293 
Q 2538 2584 2113 2584 
z
M 3366 4563 
L 3366 3988 
Q 3128 4100 2886 4159 
Q 2644 4219 2406 4219 
Q 1781 4219 1451 3797 
Q 1122 3375 1075 2522 
Q 1259 2794 1537 2939 
Q 1816 3084 2150 3084 
Q 2853 3084 3261 2657 
Q 3669 2231 3669 1497 
Q 3669 778 3244 343 
Q 2819 -91 2113 -91 
Q 1303 -91 875 529 
Q 447 1150 447 2328 
Q 447 3434 972 4092 
Q 1497 4750 2381 4750 
Q 2619 4750 2861 4703 
Q 3103 4656 3366 4563 
z
" transform="scale(0.015625)"/>
       </defs>
       <use xlink:href="#DejaVuSans-36"/>
       <use xlink:href="#DejaVuSans-30" transform="translate(63.623047 0)"/>
      </g>
     </g>
    </g>
    <g id="ytick_4">
     <g id="line2d_34">
      <g>
       <use xlink:href="#md6f3273b3a" x="47.032813" y="95.142125" style="stroke: #000000; stroke-width: 0.8"/>
      </g>
     </g>
     <g id="text_9">
      <!-- 80 -->
      <g transform="translate(27.307813 98.941344) scale(0.1 -0.1)">
       <defs>
        <path id="DejaVuSans-38" d="M 2034 2216 
Q 1584 2216 1326 1975 
Q 1069 1734 1069 1313 
Q 1069 891 1326 650 
Q 1584 409 2034 409 
Q 2484 409 2743 651 
Q 3003 894 3003 1313 
Q 3003 1734 2745 1975 
Q 2488 2216 2034 2216 
z
M 1403 2484 
Q 997 2584 770 2862 
Q 544 3141 544 3541 
Q 544 4100 942 4425 
Q 1341 4750 2034 4750 
Q 2731 4750 3128 4425 
Q 3525 4100 3525 3541 
Q 3525 3141 3298 2862 
Q 3072 2584 2669 2484 
Q 3125 2378 3379 2068 
Q 3634 1759 3634 1313 
Q 3634 634 3220 271 
Q 2806 -91 2034 -91 
Q 1263 -91 848 271 
Q 434 634 434 1313 
Q 434 1759 690 2068 
Q 947 2378 1403 2484 
z
M 1172 3481 
Q 1172 3119 1398 2916 
Q 1625 2713 2034 2713 
Q 2441 2713 2670 2916 
Q 2900 3119 2900 3481 
Q 2900 3844 2670 4047 
Q 2441 4250 2034 4250 
Q 1625 4250 1398 4047 
Q 1172 3844 1172 3481 
z
" transform="scale(0.015625)"/>
       </defs>
       <use xlink:href="#DejaVuSans-38"/>
       <use xlink:href="#DejaVuSans-30" transform="translate(63.623047 0)"/>
      </g>
     </g>
    </g>
    <g id="ytick_5">
     <g id="line2d_35">
      <g>
       <use xlink:href="#md6f3273b3a" x="47.032813" y="42.414125" style="stroke: #000000; stroke-width: 0.8"/>
      </g>
     </g>
     <g id="text_10">
      <!-- 100 -->
      <g transform="translate(20.945313 46.213344) scale(0.1 -0.1)">
       <use xlink:href="#DejaVuSans-31"/>
       <use xlink:href="#DejaVuSans-30" transform="translate(63.623047 0)"/>
       <use xlink:href="#DejaVuSans-30" transform="translate(127.246094 0)"/>
      </g>
     </g>
    </g>
    <g id="text_11">
     <!-- Accuracy (%) -->
     <g transform="translate(14.7875 200.115531) rotate(-90) scale(0.1 -0.1)">
      <defs>
       <path id="DejaVuSans-Bold-41" d="M 3419 850 
L 1538 850 
L 1241 0 
L 31 0 
L 1759 4666 
L 3194 4666 
L 4922 0 
L 3713 0 
L 3419 850 
z
M 1838 1716 
L 3116 1716 
L 2478 3572 
L 1838 1716 
z
" transform="scale(0.015625)"/>
       <path id="DejaVuSans-Bold-75" d="M 500 1363 
L 500 3500 
L 1625 3500 
L 1625 3150 
Q 1625 2866 1622 2436 
Q 1619 2006 1619 1863 
Q 1619 1441 1641 1255 
Q 1663 1069 1716 984 
Q 1784 875 1895 815 
Q 2006 756 2150 756 
Q 2500 756 2700 1025 
Q 2900 1294 2900 1772 
L 2900 3500 
L 4019 3500 
L 4019 0 
L 2900 0 
L 2900 506 
Q 2647 200 2364 54 
Q 2081 -91 1741 -91 
Q 1134 -91 817 281 
Q 500 653 500 1363 
z
" transform="scale(0.015625)"/>
       <path id="DejaVuSans-Bold-72" d="M 3138 2547 
Q 2991 2616 2845 2648 
Q 2700 2681 2553 2681 
Q 2122 2681 1889 2404 
Q 1656 2128 1656 1613 
L 1656 0 
L 538 0 
L 538 3500 
L 1656 3500 
L 1656 2925 
Q 1872 3269 2151 3426 
Q 2431 3584 2822 3584 
Q 2878 3584 2943 3579 
Q 3009 3575 3134 3559 
L 3138 2547 
z
" transform="scale(0.015625)"/>
       <path id="DejaVuSans-Bold-61" d="M 2106 1575 
Q 1756 1575 1579 1456 
Q 1403 1338 1403 1106 
Q 1403 894 1545 773 
Q 1688 653 1941 653 
Q 2256 653 2472 879 
Q 2688 1106 2688 1447 
L 2688 1575 
L 2106 1575 
z
M 3816 1997 
L 3816 0 
L 2688 0 
L 2688 519 
Q 2463 200 2181 54 
Q 1900 -91 1497 -91 
Q 953 -91 614 226 
Q 275 544 275 1050 
Q 275 1666 698 1953 
Q 1122 2241 2028 2241 
L 2688 2241 
L 2688 2328 
Q 2688 2594 2478 2717 
Q 2269 2841 1825 2841 
Q 1466 2841 1156 2769 
Q 847 2697 581 2553 
L 581 3406 
Q 941 3494 1303 3539 
Q 1666 3584 2028 3584 
Q 2975 3584 3395 3211 
Q 3816 2838 3816 1997 
z
" transform="scale(0.015625)"/>
       <path id="DejaVuSans-Bold-79" d="M 78 3500 
L 1197 3500 
L 2138 1125 
L 2938 3500 
L 4056 3500 
L 2584 -331 
Q 2363 -916 2067 -1148 
Q 1772 -1381 1288 -1381 
L 641 -1381 
L 641 -647 
L 991 -647 
Q 1275 -647 1404 -556 
Q 1534 -466 1606 -231 
L 1638 -134 
L 78 3500 
z
" transform="scale(0.015625)"/>
       <path id="DejaVuSans-Bold-20" transform="scale(0.015625)"/>
       <path id="DejaVuSans-Bold-28" d="M 2413 -844 
L 1484 -844 
Q 1006 -72 778 623 
Q 550 1319 550 2003 
Q 550 2688 779 3389 
Q 1009 4091 1484 4856 
L 2413 4856 
Q 2013 4116 1813 3408 
Q 1613 2700 1613 2009 
Q 1613 1319 1811 609 
Q 2009 -100 2413 -844 
z
" transform="scale(0.015625)"/>
       <path id="DejaVuSans-Bold-25" d="M 4959 1925 
Q 4738 1925 4616 1733 
Q 4494 1541 4494 1184 
Q 4494 825 4614 633 
Q 4734 441 4959 441 
Q 5184 441 5303 633 
Q 5422 825 5422 1184 
Q 5422 1541 5301 1733 
Q 5181 1925 4959 1925 
z
M 4959 2450 
Q 5541 2450 5875 2112 
Q 6209 1775 6209 1184 
Q 6209 594 5875 251 
Q 5541 -91 4959 -91 
Q 4378 -91 4042 251 
Q 3706 594 3706 1184 
Q 3706 1772 4042 2111 
Q 4378 2450 4959 2450 
z
M 2094 -91 
L 1403 -91 
L 4319 4750 
L 5013 4750 
L 2094 -91 
z
M 1453 4750 
Q 2034 4750 2367 4411 
Q 2700 4072 2700 3481 
Q 2700 2891 2367 2550 
Q 2034 2209 1453 2209 
Q 872 2209 539 2550 
Q 206 2891 206 3481 
Q 206 4072 539 4411 
Q 872 4750 1453 4750 
z
M 1453 4225 
Q 1228 4225 1106 4031 
Q 984 3838 984 3481 
Q 984 3122 1106 2926 
Q 1228 2731 1453 2731 
Q 1678 2731 1798 2926 
Q 1919 3122 1919 3481 
Q 1919 3838 1797 4031 
Q 1675 4225 1453 4225 
z
" transform="scale(0.015625)"/>
       <path id="DejaVuSans-Bold-29" d="M 513 -844 
Q 913 -100 1113 609 
Q 1313 1319 1313 2009 
Q 1313 2700 1113 3408 
Q 913 4116 513 4856 
L 1441 4856 
Q 1916 4091 2145 3389 
Q 2375 2688 2375 2003 
Q 2375 1319 2147 623 
Q 1919 -72 1441 -844 
L 513 -844 
z
" transform="scale(0.015625)"/>
      </defs>
      <use xlink:href="#DejaVuSans-Bold-41"/>
      <use xlink:href="#DejaVuSans-Bold-63" transform="translate(77.392578 0)"/>
      <use xlink:href="#DejaVuSans-Bold-63" transform="translate(136.669922 0)"/>
      <use xlink:href="#DejaVuSans-Bold-75" transform="translate(195.947266 0)"/>
      <use xlink:href="#DejaVuSans-Bold-72" transform="translate(267.138672 0)"/>
      <use xlink:href="#DejaVuSans-Bold-61" transform="translate(316.455078 0)"/>
      <use xlink:href="#DejaVuSans-Bold-63" transform="translate(383.935547 0)"/>
      <use xlink:href="#DejaVuSans-Bold-79" transform="translate(443.212891 0)"/>
      <use xlink:href="#DejaVuSans-Bold-20" transform="translate(508.398438 0)"/>
      <use xlink:href="#DejaVuSans-Bold-28" transform="translate(543.212891 0)"/>
      <use xlink:href="#DejaVuSans-Bold-25" transform="translate(588.916016 0)"/>
      <use xlink:href="#DejaVuSans-Bold-29" transform="translate(689.111328 0)"/>
     </g>
    </g>
   </g>
   <g id="line2d_36">
    <path d="M 63.26554 224.068202 
L 95.842459 143.264521 
L 114.898734 111.600992 
L 128.419377 90.269231 
L 147.475653 72.329992 
L 154.720513 67.189808 
L 160.996296 66.213174 
L 166.531929 65.082333 
L 171.483722 58.759908 
L 175.963163 56.960844 
L 180.052572 62.101027 
L 183.814464 51.666455 
L 187.297432 52.129071 
L 190.539997 50.741222 
L 193.573215 50.792624 
L 196.422485 51.049633 
L 199.108848 48.016925 
L 201.649929 46.526272 
L 204.06064 46.731879 
L 206.353708 49.147765 
L 208.540082 47.348701 
L 210.62925 49.044961 
L 212.629491 47.143094 
L 214.548066 46.886084 
L 216.391383 46.783281 
L 218.165124 49.147765 
L 219.874351 52.591688 
L 221.523592 50.227204 
L 223.116916 46.577673 
L 224.657991 44.675806 
L 226.150134 44.110385 
L 227.596357 43.699171 
L 228.999404 44.727207 
L 230.361776 45.08702 
L 231.685767 43.853376 
L 232.973479 43.442162 
L 234.226848 52.591688 
L 235.447659 50.278605 
L 236.637559 47.657112 
L 237.798076 47.708514 
L 240.036526 43.236554 
L 241.117 42.722536 
L 243.206169 42.414125 
L 340.034319 42.414125 
L 340.164329 251.722388 
L 340.29398 249.974726 
L 340.552215 197.442052 
L 340.936926 107.33464 
L 341.318513 83.535591 
L 341.445023 79.269239 
L 341.697027 64.568315 
L 341.822524 64.568315 
L 342.44503 49.55898 
L 342.568548 49.661783 
L 342.691742 49.301971 
L 342.814614 49.764587 
L 342.937166 52.437482 
L 343.181315 45.65244 
L 343.424202 43.801974 
L 343.665841 43.236554 
L 343.786195 43.339358 
L 343.906243 42.876741 
L 344.145422 42.979545 
L 344.264556 43.133751 
L 344.620159 42.56833 
L 344.855741 42.722536 
L 345.090148 43.185152 
L 345.323392 51.203838 
L 345.671102 43.082349 
L 345.901488 42.414125 
L 381.965478 42.414125 
L 382.072051 260.100887 
L 382.178382 212.194378 
L 382.390327 102.091653 
L 382.54866 81.171107 
L 382.601319 81.273911 
L 382.65392 80.14307 
L 382.916043 60.661776 
L 383.124694 51.717857 
L 383.176712 59.736543 
L 383.228673 55.418789 
L 383.435944 46.629075 
L 383.487619 47.502906 
L 383.539238 47.400103 
L 383.745146 44.315993 
L 383.796483 44.367395 
L 383.847763 50.278605 
L 383.898988 46.886084 
L 384.052327 43.287956 
L 384.306787 42.56833 
L 384.458804 42.414125 
L 387.920085 42.414125 
L 387.920085 42.414125 
" clip-path="url(#pb7d0d7f12a)" style="fill: none; stroke-dasharray: 5.55,2.4; stroke-dashoffset: 0; stroke: #2ca02c; stroke-width: 1.5"/>
   </g>
   <g id="line2d_37">
    <path d="M 63.26554 232.374125 
L 95.842459 151.014125 
L 114.898734 144.654125 
L 128.419377 106.614125 
L 138.906803 111.774125 
L 147.475653 116.694125 
L 154.720513 113.814125 
L 160.996296 112.494125 
L 166.531929 113.814125 
L 171.483722 125.454125 
L 175.963163 107.574125 
L 180.052572 107.094125 
L 183.814464 119.814125 
L 187.297432 101.454125 
L 190.539997 97.374125 
L 193.573215 100.134125 
L 196.422485 96.534125 
L 199.108848 96.414125 
L 201.649929 90.654125 
L 204.06064 97.254125 
L 206.353708 105.174125 
L 208.540082 95.334125 
L 210.62925 98.094125 
L 212.629491 94.494125 
L 214.548066 98.934125 
L 216.391383 91.014125 
L 218.165124 95.694125 
L 219.874351 95.934125 
L 221.523592 112.614125 
L 223.116916 96.654125 
L 224.657991 94.134125 
L 226.150134 88.374125 
L 227.596357 93.054125 
L 228.999404 95.814125 
L 230.361776 93.054125 
L 231.685767 88.854125 
L 232.973479 91.974125 
L 234.226848 93.894125 
L 235.447659 92.814125 
L 236.637559 95.214125 
L 237.798076 94.014125 
L 238.930627 94.014125 
L 240.036526 87.894125 
L 241.117 83.094125 
L 242.173192 84.054125 
L 243.206169 82.974125 
L 244.21693 82.734125 
L 245.20641 82.374125 
L 247.124985 82.374125 
L 248.05568 82.134125 
L 248.968302 82.134125 
L 249.863539 82.014125 
L 250.742043 82.134125 
L 251.604426 82.014125 
L 252.45127 81.774125 
L 253.283124 81.654125 
L 254.100511 81.894125 
L 254.903925 81.894125 
L 255.693835 81.774125 
L 256.470688 81.894125 
L 259.455727 81.894125 
L 260.173276 81.654125 
L 260.880035 81.654125 
L 261.576322 81.774125 
L 262.262445 81.774125 
L 263.605352 81.534125 
L 264.262686 81.534125 
L 264.910952 81.414125 
L 265.550398 81.534125 
L 268.024578 81.534125 
L 268.623293 81.414125 
L 269.214478 81.174125 
L 269.798319 81.174125 
L 270.944682 80.934125 
L 271.507545 81.174125 
L 272.063748 81.054125 
L 273.156787 81.054125 
L 273.693919 81.174125 
L 274.224982 81.174125 
L 274.750111 81.054125 
L 275.783088 81.054125 
L 276.291185 80.814125 
L 276.793849 80.814125 
L 277.291192 80.694125 
L 278.752405 80.694125 
L 279.229552 80.814125 
L 279.701903 80.694125 
L 280.169555 80.694125 
L 281.091125 80.934125 
L 281.54522 80.934125 
L 283.318961 81.294125 
L 284.181345 81.294125 
L 285.028188 81.054125 
L 286.270513 81.054125 
L 287.080853 81.294125 
L 287.480844 81.294125 
L 287.877458 81.174125 
L 288.660786 81.414125 
L 289.047607 81.294125 
L 289.431271 80.934125 
L 290.189329 81.294125 
L 290.563821 81.174125 
L 290.935353 81.174125 
L 291.303971 81.294125 
L 292.39279 81.294125 
L 292.750195 81.174125 
L 293.104903 81.294125 
L 293.456954 80.934125 
L 294.497555 81.174125 
L 294.839364 80.934125 
L 296.839604 80.934125 
L 297.164855 80.814125 
L 298.127317 80.814125 
L 298.758179 80.574125 
L 299.070463 80.334125 
L 299.688874 80.334125 
L 300.601496 80.094125 
L 300.901808 80.094125 
L 301.791397 79.854125 
L 302.084224 79.974125 
L 303.23762 79.614125 
L 304.084464 79.614125 
L 304.640667 79.494125 
L 305.733706 79.494125 
L 306.003039 79.374125 
L 306.537119 79.494125 
L 306.801901 79.494125 
L 307.32703 79.374125 
L 307.58741 79.374125 
L 308.360007 79.134125 
L 308.614742 79.134125 
L 309.120108 79.254125 
L 311.088922 79.254125 
L 311.568503 79.134125 
L 311.806471 79.134125 
L 312.04324 79.014125 
L 312.513229 79.134125 
L 313.668043 79.134125 
L 314.122139 79.014125 
L 314.57189 79.014125 
L 314.795161 79.134125 
L 315.677789 78.774125 
L 316.112964 78.774125 
L 318.022875 77.814125 
L 319.051331 77.814125 
L 319.456493 77.694125 
L 319.657772 77.694125 
L 320.057762 77.574125 
L 320.454377 77.694125 
L 320.651436 77.694125 
L 321.237704 77.934125 
L 321.624526 77.814125 
L 322.388747 77.814125 
L 322.766248 77.934125 
L 323.512272 77.934125 
L 323.88089 77.814125 
L 324.609565 78.174125 
L 324.789982 77.814125 
L 324.969709 77.934125 
L 325.148751 77.694125 
L 325.327114 77.814125 
L 325.504802 77.574125 
L 325.681822 77.694125 
L 325.858177 77.334125 
L 326.033872 77.694125 
L 326.208914 77.574125 
L 326.383306 77.694125 
L 326.557053 77.454125 
L 326.73016 77.574125 
L 326.902632 77.454125 
L 327.074473 77.574125 
L 327.755624 77.214125 
L 328.260086 77.694125 
L 328.59341 77.214125 
L 328.75919 77.214125 
L 328.924387 77.094125 
L 329.089006 77.214125 
L 329.25305 77.094125 
L 329.416523 77.214125 
L 329.57943 77.094125 
L 329.741774 77.214125 
L 329.903559 77.094125 
L 330.064789 77.214125 
L 330.3856 77.094125 
L 330.545188 77.454125 
L 330.704235 76.974125 
L 330.862747 77.334125 
L 331.178175 77.334125 
L 331.335098 77.094125 
L 331.647382 77.214125 
L 331.802749 77.214125 
L 331.957605 76.974125 
L 332.111951 76.974125 
L 332.419133 76.854125 
L 332.571974 76.854125 
L 332.876173 77.094125 
L 333.178415 76.974125 
L 333.478726 77.334125 
L 333.628166 77.694125 
L 333.777131 77.574125 
L 333.925626 77.214125 
L 334.073653 77.454125 
L 334.221215 77.454125 
L 334.368316 77.334125 
L 334.514957 77.454125 
L 334.661142 77.334125 
L 334.952156 77.454125 
L 335.241379 77.334125 
L 335.385326 77.334125 
L 335.528833 77.574125 
L 335.671903 77.454125 
L 335.814539 77.574125 
L 335.956744 77.334125 
L 336.098519 77.814125 
L 336.239868 77.334125 
L 336.380794 77.694125 
L 336.661383 77.574125 
L 336.801052 77.574125 
L 336.940307 77.694125 
L 337.079151 77.574125 
L 337.217585 77.934125 
L 337.355614 77.574125 
L 337.493238 77.934125 
L 337.63046 77.694125 
L 337.767283 78.054125 
L 338.039739 77.694125 
L 338.175377 78.054125 
L 338.445484 77.694125 
L 338.579958 77.574125 
L 338.847757 77.694125 
L 338.981086 77.454125 
L 339.114038 77.814125 
L 339.246615 77.574125 
L 339.37882 78.054125 
L 339.642117 77.454125 
L 339.773215 77.694125 
L 339.903949 78.174125 
L 340.034319 87.414125 
L 340.164329 255.894125 
L 340.29398 237.774125 
L 340.423275 248.214125 
L 340.809038 136.734125 
L 340.936926 130.134125 
L 341.191661 112.254125 
L 341.318513 116.214125 
L 341.571194 102.294125 
L 341.697027 102.534125 
L 341.822524 107.454125 
L 342.072516 92.814125 
L 342.44503 103.374125 
L 342.568548 101.814125 
L 342.691742 110.094125 
L 342.814614 98.214125 
L 342.937166 103.854125 
L 343.059399 100.614125 
L 343.181315 101.334125 
L 343.302915 92.694125 
L 343.424202 103.134125 
L 343.665841 92.574125 
L 343.786195 88.854125 
L 343.906243 90.414125 
L 344.025984 89.694125 
L 344.145422 92.934125 
L 344.38339 90.654125 
L 344.501923 89.694125 
L 344.973091 91.374125 
L 345.090148 91.014125 
L 345.206915 104.454125 
L 345.323392 95.814125 
L 345.439582 106.134125 
L 345.671102 91.254125 
L 345.901488 86.454125 
L 346.130749 86.934125 
L 346.699058 87.414125 
L 347.036774 86.934125 
L 347.594296 86.334125 
L 347.815466 86.454125 
L 348.0356 86.214125 
L 348.254708 85.734125 
L 348.905969 85.734125 
L 349.01364 85.854125 
L 349.654539 85.254125 
L 349.971741 85.254125 
L 350.182026 85.014125 
L 350.703658 85.014125 
L 350.807293 85.254125 
L 350.9107 85.014125 
L 351.116835 85.254125 
L 351.322069 85.134125 
L 351.62825 85.374125 
L 351.932448 85.134125 
L 352.033412 85.134125 
L 352.435112 84.774125 
L 352.535002 84.774125 
L 352.932455 84.414125 
L 353.031296 84.414125 
L 353.129929 84.654125 
L 353.326576 84.534125 
L 353.424591 84.534125 
L 354.201445 83.694125 
L 354.297655 83.694125 
L 354.489486 83.334125 
L 354.965666 83.334125 
L 355.154795 83.214125 
L 355.249075 83.214125 
L 355.43707 83.334125 
L 355.530786 83.334125 
L 355.624315 83.454125 
L 355.810818 83.334125 
L 355.903792 83.454125 
L 356.181617 82.974125 
L 356.549514 82.974125 
L 356.914553 83.334125 
L 357.186483 83.094125 
L 357.45685 83.094125 
L 357.546627 82.974125 
L 357.636234 83.094125 
L 357.814936 82.974125 
L 357.904033 83.094125 
L 358.081721 82.854125 
L 358.170314 82.974125 
L 358.347001 82.854125 
L 358.523025 82.854125 
L 358.610791 82.974125 
L 358.785833 82.854125 
L 358.960224 82.974125 
L 359.393394 82.974125 
L 359.479551 83.094125 
L 359.651392 82.974125 
L 359.822608 82.974125 
L 359.993201 82.854125 
L 360.078267 82.854125 
L 360.247937 82.974125 
L 360.416997 82.974125 
L 360.58545 82.734125 
L 360.920557 82.734125 
L 361.087219 82.854125 
L 361.253292 82.854125 
L 361.41878 82.734125 
L 361.748018 82.734125 
L 361.829969 82.854125 
L 361.911776 82.614125 
L 361.993442 82.734125 
L 362.156349 82.614125 
L 362.962519 82.614125 
L 363.04238 82.734125 
L 363.201698 82.614125 
L 363.281154 82.734125 
L 363.518721 82.494125 
L 363.597644 82.974125 
L 363.755093 82.734125 
L 364.068418 82.374125 
L 364.146424 82.494125 
L 364.224301 82.254125 
L 364.302049 82.494125 
L 364.534523 82.134125 
L 364.61176 82.254125 
L 364.842712 82.014125 
L 364.919444 82.134125 
L 364.996052 81.774125 
L 365.072534 82.374125 
L 365.148892 82.014125 
L 365.225127 82.374125 
L 365.301238 82.134125 
L 365.377226 82.254125 
L 365.604456 82.014125 
L 365.755334 82.014125 
L 365.830592 81.774125 
L 365.905729 82.014125 
L 366.130424 81.534125 
L 366.205084 81.534125 
L 366.279626 81.414125 
L 366.428356 81.534125 
L 366.576616 81.294125 
L 366.650572 81.534125 
L 366.724411 81.294125 
L 366.798134 81.414125 
L 366.871742 81.294125 
L 367.018612 81.534125 
L 367.165025 81.294125 
L 367.310984 81.534125 
L 367.383793 81.414125 
L 367.601548 81.894125 
L 367.818298 81.654125 
L 367.962244 81.774125 
L 368.105752 81.654125 
L 368.177341 81.894125 
L 368.248822 81.654125 
L 368.320194 81.774125 
L 368.391458 81.894125 
L 368.675438 81.534125 
L 368.746166 81.654125 
L 368.816787 82.014125 
L 368.957713 81.414125 
L 369.028017 81.414125 
L 369.168311 81.654125 
L 369.238302 81.414125 
L 369.308188 81.774125 
L 369.377971 81.294125 
L 369.517226 81.654125 
L 369.65607 81.894125 
L 369.725338 81.774125 
L 369.794504 81.894125 
L 369.932532 81.534125 
L 370.138818 81.894125 
L 370.207379 81.414125 
L 370.27584 81.654125 
L 370.344201 82.014125 
L 370.412464 81.654125 
L 370.480627 81.774125 
L 370.548691 81.894125 
L 370.684525 81.654125 
L 370.887543 81.894125 
L 370.955022 81.534125 
L 371.022403 82.134125 
L 371.089688 81.654125 
L 371.290967 82.134125 
L 371.357869 81.894125 
L 371.558005 82.494125 
L 371.823534 81.654125 
L 371.955738 82.374125 
L 372.021701 82.014125 
L 372.087572 82.134125 
L 372.219036 82.614125 
L 372.284631 82.254125 
L 372.350134 82.614125 
L 372.480867 82.254125 
L 372.546098 82.374125 
L 372.611238 81.774125 
L 372.676288 82.134125 
L 372.806118 81.654125 
L 373.000194 82.374125 
L 373.064708 82.494125 
L 373.129134 81.894125 
L 373.193471 82.374125 
L 373.257721 82.254125 
L 373.385957 82.614125 
L 373.641385 82.014125 
L 373.76858 82.374125 
L 373.895431 81.894125 
L 374.08507 82.374125 
L 374.148113 82.254125 
L 374.211071 82.734125 
L 374.273945 82.374125 
L 374.336736 82.134125 
L 374.399442 82.254125 
L 374.524605 82.134125 
L 374.711726 82.374125 
L 374.773935 82.014125 
L 374.898105 82.854125 
L 375.083748 82.254125 
L 375.268661 82.614125 
L 375.452849 82.014125 
L 375.636318 82.854125 
L 375.697315 82.254125 
L 375.758234 82.854125 
L 375.819073 82.494125 
L 375.879834 82.614125 
L 375.940517 82.014125 
L 376.001121 82.614125 
L 376.061647 81.894125 
L 376.122095 82.614125 
L 376.182466 82.374125 
L 376.242759 82.494125 
L 376.302975 82.014125 
L 376.363114 82.734125 
L 376.423176 82.134125 
L 376.543071 82.494125 
L 376.602903 82.254125 
L 376.66266 81.414125 
L 376.722341 81.774125 
L 376.781946 81.774125 
L 376.841475 81.294125 
L 376.900929 81.654125 
L 377.019613 81.174125 
L 377.078842 81.294125 
L 377.256084 81.894125 
L 377.43266 81.894125 
L 377.491371 81.534125 
L 377.55001 82.254125 
L 377.608575 80.694125 
L 377.667067 81.654125 
L 377.900311 82.374125 
L 378.074487 81.654125 
L 378.305723 82.614125 
L 378.420916 82.254125 
L 378.478406 82.494125 
L 378.535827 81.414125 
L 378.593177 81.654125 
L 378.650457 82.014125 
L 378.707668 81.534125 
L 378.821881 82.494125 
L 378.935817 81.654125 
L 378.992681 81.894125 
L 379.049477 81.534125 
L 379.106205 81.774125 
L 379.275977 82.854125 
L 379.332432 82.614125 
L 379.388819 83.214125 
L 379.557575 81.774125 
L 379.613692 82.494125 
L 379.669743 82.374125 
L 379.781645 82.614125 
L 379.837496 82.014125 
L 379.89328 83.334125 
L 379.948999 81.654125 
L 380.004651 82.014125 
L 380.171215 82.854125 
L 380.28193 83.214125 
L 380.502581 82.014125 
L 380.612519 83.694125 
L 380.667392 82.254125 
L 380.7222 82.374125 
L 380.886244 82.854125 
L 380.940799 82.614125 
L 380.99529 83.334125 
L 381.049718 82.494125 
L 381.104083 82.854125 
L 381.158385 83.334125 
L 381.212625 83.094125 
L 381.374969 82.494125 
L 381.428959 83.214125 
L 381.482887 81.774125 
L 381.536754 83.214125 
L 381.697984 83.094125 
L 381.751605 83.334125 
L 381.858663 82.614125 
L 381.912101 83.934125 
L 381.965478 83.574125 
L 382.072051 258.174125 
L 382.495941 104.454125 
L 382.54866 101.094125 
L 382.601319 120.294125 
L 382.65392 106.494125 
L 382.758945 102.294125 
L 382.811369 131.574125 
L 382.863735 118.734125 
L 383.020484 95.454125 
L 383.072618 95.694125 
L 383.124694 100.974125 
L 383.176712 99.294125 
L 383.228673 95.694125 
L 383.280577 107.094125 
L 383.332423 102.294125 
L 383.435944 107.454125 
L 383.590799 95.094125 
L 383.642305 95.214125 
L 383.745146 102.414125 
L 383.796483 91.854125 
L 383.898988 92.694125 
L 383.950157 91.734125 
L 384.00127 91.854125 
L 384.052327 95.334125 
L 384.10333 94.974125 
L 384.205168 88.254125 
L 384.256005 89.814125 
L 384.306787 89.454125 
L 384.357514 86.334125 
L 384.408186 87.534125 
L 384.509367 87.774125 
L 384.711078 87.294125 
L 385.01203 86.814125 
L 385.062002 86.814125 
L 385.459876 86.094125 
L 385.509374 86.094125 
L 385.756086 85.734125 
L 385.805274 85.734125 
L 385.952528 85.614125 
L 386.148152 85.614125 
L 386.245659 85.854125 
L 386.730185 84.894125 
L 386.778364 84.894125 
L 386.922605 84.654125 
L 386.970587 84.774125 
L 387.11424 84.414125 
L 387.162028 84.534125 
L 387.305098 84.294125 
L 387.352691 84.294125 
L 387.542585 84.654125 
L 387.684503 84.534125 
L 387.731714 84.534125 
L 387.825994 84.654125 
L 387.873063 84.174125 
L 387.920085 84.414125 
" clip-path="url(#pb7d0d7f12a)" style="fill: none; stroke: #2ca02c; stroke-width: 1.5; stroke-linecap: square"/>
   </g>
   <g id="line2d_38">
    <path d="M 63.26554 274.339194 
L 95.842459 278.554145 
L 114.898734 279.684985 
L 128.419377 279.27377 
L 138.906803 279.787788 
L 147.475653 279.016761 
L 154.720513 279.736387 
L 160.996296 279.170967 
L 166.531929 279.376574 
L 175.963163 278.502743 
L 180.052572 278.759752 
L 183.814464 278.605546 
L 187.297432 277.988724 
L 190.539997 278.913957 
L 193.573215 278.348537 
L 196.422485 278.759752 
L 199.108848 278.759752 
L 201.649929 278.14293 
L 204.06064 277.988724 
L 206.353708 277.269099 
L 208.540082 277.834519 
L 210.62925 276.138258 
L 212.629491 277.063491 
L 214.548066 276.035455 
L 216.391383 277.01209 
L 218.165124 276.086857 
L 219.874351 275.778446 
L 221.523592 274.082185 
L 223.116916 274.133587 
L 224.657991 273.92798 
L 226.150134 273.259756 
L 227.596357 273.825176 
L 228.999404 271.871906 
L 230.361776 273.311158 
L 231.685767 269.867235 
L 232.973479 271.666299 
L 234.226848 270.689664 
L 236.637559 269.507422 
L 238.930627 269.918637 
L 240.036526 267.656956 
L 241.117 269.558824 
L 242.173192 267.451349 
L 243.206169 268.942002 
L 244.21693 266.166303 
L 245.20641 269.044805 
L 246.175486 264.932659 
L 247.124985 266.423312 
L 248.05568 265.086864 
L 248.968302 264.213033 
L 249.863539 265.549481 
L 250.742043 262.413969 
L 251.604426 264.521444 
L 252.45127 261.540138 
L 253.283124 265.138266 
L 254.100511 263.493408 
L 254.903925 264.418641 
L 255.693835 263.493408 
L 256.470688 263.699015 
L 257.23491 261.283129 
L 257.986903 261.797147 
L 258.727053 261.180325 
L 259.455727 259.432663 
L 260.173276 262.105558 
L 260.880035 260.460699 
L 261.576322 260.76911 
L 262.262445 259.998083 
L 262.938695 261.283129 
L 263.605352 260.409298 
L 264.262686 261.745745 
L 264.910952 264.11023 
L 265.550398 265.446677 
L 266.18126 265.498079 
L 266.803767 265.960695 
L 267.418136 266.012097 
L 268.024578 268.32518 
L 268.623293 266.885928 
L 269.214478 267.605554 
L 269.798319 266.628919 
L 270.374995 267.399947 
L 270.944682 266.423312 
L 271.507545 265.909294 
L 272.063748 265.755088 
L 272.613445 266.680321 
L 273.156787 267.040134 
L 273.693919 265.446677 
L 274.224982 265.292472 
L 274.750111 264.932659 
L 275.269437 264.984061 
L 275.783088 265.395275 
L 276.793849 268.8906 
L 277.291192 267.75976 
L 277.783328 268.787796 
L 278.270365 268.222376 
L 278.752405 267.862563 
L 279.229552 265.703686 
L 279.701903 265.446677 
L 280.169555 265.600883 
L 280.632598 263.904622 
L 281.54522 266.628919 
L 281.994971 266.680321 
L 282.440458 266.217705 
L 282.881762 265.035463 
L 283.318961 265.343874 
L 283.752131 263.647613 
L 284.181345 263.956024 
L 284.606674 262.105558 
L 285.028188 263.544809 
L 285.445956 261.951353 
L 286.270513 259.63827 
L 286.67743 257.890608 
L 287.080853 257.11958 
L 287.480844 253.829863 
L 287.877458 253.624256 
L 288.270754 250.745753 
L 288.660786 249.409305 
L 289.047607 247.199027 
L 289.431271 246.222392 
L 289.811828 247.147625 
L 290.189329 245.348561 
L 290.563821 245.862579 
L 290.935353 241.13361 
L 291.303971 242.110245 
L 291.669721 241.647629 
L 292.032646 241.904638 
L 292.39279 243.549496 
L 292.750195 242.315852 
L 293.104903 243.498095 
L 293.456954 244.269122 
L 293.806387 247.044821 
L 294.153241 247.456036 
L 295.178705 252.956032 
L 295.515614 255.834534 
L 295.850124 254.549489 
L 296.182271 255.371918 
L 296.512087 254.138274 
L 296.839604 256.759767 
L 297.164855 251.054164 
L 297.487871 253.418648 
L 298.127317 249.2551 
L 298.443806 250.437342 
L 298.758179 248.741082 
L 299.070463 248.432671 
L 299.995055 241.082208 
L 300.299254 242.675665 
L 300.601496 242.829871 
L 300.901808 243.446693 
L 301.200212 242.470058 
L 301.496734 242.52146 
L 301.791397 243.806506 
L 302.084224 244.269122 
L 302.66446 248.638278 
L 302.951914 247.764447 
L 303.23762 244.114917 
L 303.521601 242.52146 
L 303.803875 238.769126 
L 304.084464 242.161647 
L 304.363388 237.689688 
L 304.640667 236.301838 
L 304.916319 233.783148 
L 305.190364 233.217728 
L 305.46282 230.544833 
L 305.733706 230.18502 
L 306.003039 225.096238 
L 306.270838 222.423343 
L 306.537119 222.012129 
L 306.801901 216.614936 
L 307.065199 216.306525 
L 307.32703 207.671017 
L 307.58741 209.881296 
L 307.846356 209.9841 
L 308.103883 207.825223 
L 308.360007 207.259803 
L 308.614742 210.343912 
L 308.868104 210.035501 
L 309.120108 208.544848 
L 309.370767 206.180364 
L 309.620097 207.208401 
L 309.868111 206.694382 
L 310.114823 207.619615 
L 310.360247 205.255131 
L 310.604396 205.51214 
L 310.847283 204.072889 
L 311.088922 205.666346 
L 311.329324 203.199058 
L 311.568503 207.259803 
L 311.806471 203.456067 
L 312.04324 207.002793 
L 312.278822 206.488775 
L 312.513229 205.049524 
L 312.746473 205.460738 
L 312.978566 207.876625 
L 313.209517 208.699054 
L 313.439339 207.259803 
L 313.668043 210.600922 
L 313.89564 211.988771 
L 314.122139 215.689703 
L 314.57189 218.002786 
L 315.017377 228.540161 
L 315.238547 231.470066 
L 315.458681 232.035486 
L 315.677789 233.423335 
L 316.112964 238.0495 
L 316.32905 239.848564 
L 316.544147 239.899966 
L 316.758263 240.105574 
L 316.971409 239.231742 
L 317.394822 236.044829 
L 317.605107 235.685016 
L 317.814455 238.306509 
L 318.230374 232.857915 
L 318.642645 231.88128 
L 318.847432 230.236422 
L 319.051331 226.843901 
L 319.657772 209.778492 
L 319.858193 204.998122 
L 320.454377 182.021503 
L 320.651436 179.759822 
L 321.624526 130.105652 
L 322.198854 106.255201 
L 322.953867 86.979514 
L 323.14074 86.928112 
L 323.512272 81.942134 
L 323.696943 82.09634 
L 323.88089 81.222509 
L 324.064121 81.787929 
L 324.24664 80.657089 
L 324.789982 87.647738 
L 324.969709 86.979514 
L 325.148751 90.680446 
L 325.327114 91.245866 
L 325.504802 93.096332 
L 325.681822 98.956141 
L 325.858177 99.058945 
L 326.557053 113.091645 
L 326.902632 118.745847 
L 327.074473 116.843979 
L 327.245689 120.544911 
L 327.416283 120.2365 
L 327.58626 120.339303 
L 327.92438 114.993513 
L 328.092533 115.353326 
L 328.260086 116.741175 
L 328.427043 117.049586 
L 328.75919 112.423421 
L 328.924387 112.886038 
L 329.089006 111.446786 
L 329.25305 106.203799 
L 329.416523 108.979498 
L 329.741774 93.764556 
L 330.225468 85.231852 
L 330.3856 84.101011 
L 330.545188 84.152413 
L 330.704235 85.026244 
L 330.862747 83.381386 
L 331.020725 85.026244 
L 331.335098 78.652417 
L 331.491499 79.474846 
L 331.647382 79.063632 
L 331.802749 79.115034 
L 331.957605 81.890733 
L 332.111951 81.376714 
L 332.265793 85.591664 
L 332.571974 84.460824 
L 332.724319 83.021573 
L 333.178415 72.84401 
L 333.328811 71.71317 
L 333.478726 72.432795 
L 333.628166 72.381393 
L 333.777131 71.507562 
L 334.073653 68.012238 
L 334.221215 66.67579 
L 334.514957 68.06364 
L 334.661142 72.432795 
L 334.806875 71.610366 
L 335.09699 80.297276 
L 335.241379 84.101011 
L 335.385326 82.404751 
L 335.671903 83.7926 
L 335.814539 82.764564 
L 335.956744 83.175778 
L 336.521298 71.815973 
L 336.661383 64.619717 
L 336.801052 63.386073 
L 336.940307 58.605702 
L 337.355614 55.830003 
L 337.63046 56.601031 
L 337.767283 55.16178 
L 337.903708 56.652433 
L 338.039739 56.806638 
L 338.310624 58.245889 
L 338.579958 62.923456 
L 338.714048 64.105698 
L 338.847757 61.89542 
L 338.981086 62.101027 
L 339.114038 61.175794 
L 339.246615 63.129064 
L 339.37882 61.329999 
L 339.510653 62.409438 
L 339.903949 58.348693 
L 340.164329 57.629067 
L 340.29398 58.862711 
L 340.423275 57.012245 
L 340.552215 57.42346 
L 340.936926 53.516921 
L 341.318513 50.946829 
L 341.571194 48.839354 
L 342.321187 46.115057 
L 342.568548 44.5216 
L 342.691742 44.161787 
L 342.937166 44.367395 
L 343.181315 43.647769 
L 343.302915 43.39076 
L 343.424202 43.493563 
L 343.545177 43.287956 
L 343.786195 43.339358 
L 343.906243 42.876741 
L 344.264556 42.979545 
L 344.38339 42.876741 
L 344.501923 43.082349 
L 344.855741 42.773938 
L 345.090148 43.133751 
L 345.439582 42.82534 
L 345.555484 42.979545 
L 345.786436 42.82534 
L 345.901488 43.750573 
L 346.130749 43.236554 
L 346.358898 43.39076 
L 346.472559 43.133751 
L 346.585945 43.185152 
L 346.8119 44.058984 
L 346.924471 44.110385 
L 347.036774 44.624404 
L 347.148808 44.264591 
L 347.37208 45.035618 
L 347.594296 44.5216 
L 347.705011 44.932815 
L 347.925662 44.058984 
L 348.145282 43.493563 
L 348.254708 43.750573 
L 348.581466 42.773938 
L 348.689883 42.928143 
L 348.79805 43.39076 
L 348.905969 43.185152 
L 349.01364 42.671134 
L 349.121065 42.928143 
L 349.760511 42.465527 
L 349.866245 42.619732 
L 349.971741 42.465527 
L 350.391374 42.619732 
L 350.9107 42.465527 
L 351.013881 42.619732 
L 351.219564 42.414125 
L 364.919444 42.414125 
L 364.996052 42.671134 
L 365.072534 44.5216 
L 365.225127 124.091637 
L 365.453091 58.862711 
L 365.679955 49.661783 
L 365.980747 43.287956 
L 366.205084 42.414125 
L 369.098217 42.516929 
L 369.238302 84.35802 
L 369.308188 66.67579 
L 369.517226 45.858048 
L 369.586699 45.65244 
L 369.725338 43.030947 
L 369.794504 43.082349 
L 369.932532 42.516929 
L 370.070156 42.414125 
L 372.741248 42.465527 
L 372.806118 43.133751 
L 372.935591 74.180458 
L 373.129134 46.320664 
L 373.321883 42.928143 
L 373.513844 42.414125 
L 377.137997 42.516929 
L 377.256084 81.222509 
L 377.491371 47.297299 
L 377.900311 42.722536 
L 377.958442 42.82534 
L 378.132403 42.465527 
L 378.305723 42.414125 
L 381.049718 42.516929 
L 381.158385 71.815973 
L 381.320916 46.886084 
L 381.536754 43.133751 
L 381.644302 43.133751 
L 381.805164 42.465527 
L 383.384212 42.56833 
L 383.435944 45.344029 
L 383.487619 56.601031 
L 383.539238 53.722528 
L 383.745146 43.493563 
L 383.796483 42.876741 
L 383.847763 43.236554 
L 383.898988 43.647769 
L 384.052327 42.671134 
L 384.10333 42.876741 
L 384.256005 42.414125 
L 386.585351 42.465527 
L 386.681956 66.418781 
L 386.730185 51.152437 
L 387.01852 42.56833 
L 387.066405 42.82534 
L 387.11424 42.619732 
L 387.209766 42.722536 
L 387.257456 42.619732 
L 387.589938 42.414125 
L 387.920085 42.414125 
L 387.920085 42.414125 
" clip-path="url(#pb7d0d7f12a)" style="fill: none; stroke-dasharray: 5.55,2.4; stroke-dashoffset: 0; stroke: #d62728; stroke-width: 1.5"/>
   </g>
   <g id="line2d_39">
    <path d="M 63.26554 278.934125 
L 95.842459 280.614125 
L 114.898734 280.014125 
L 128.419377 280.614125 
L 138.906803 279.534125 
L 147.475653 281.214125 
L 154.720513 280.734125 
L 166.531929 281.094125 
L 171.483722 280.494125 
L 175.963163 280.974125 
L 180.052572 280.494125 
L 190.539997 279.774125 
L 193.573215 280.014125 
L 196.422485 280.374125 
L 199.108848 280.014125 
L 201.649929 280.134125 
L 204.06064 280.134125 
L 206.353708 279.894125 
L 208.540082 279.294125 
L 210.62925 279.174125 
L 214.548066 279.894125 
L 216.391383 279.654125 
L 218.165124 279.894125 
L 219.874351 279.534125 
L 221.523592 280.734125 
L 223.116916 279.534125 
L 224.657991 280.254125 
L 226.150134 279.654125 
L 227.596357 279.654125 
L 228.999404 279.534125 
L 230.361776 279.654125 
L 231.685767 279.174125 
L 232.973479 279.774125 
L 234.226848 279.414125 
L 235.447659 279.654125 
L 237.798076 280.374125 
L 238.930627 280.134125 
L 240.036526 280.254125 
L 241.117 279.774125 
L 242.173192 280.134125 
L 243.206169 279.774125 
L 244.21693 279.054125 
L 245.20641 280.254125 
L 246.175486 279.174125 
L 247.124985 280.374125 
L 248.05568 279.534125 
L 248.968302 280.134125 
L 249.863539 279.654125 
L 250.742043 279.414125 
L 251.604426 279.654125 
L 252.45127 278.454125 
L 253.283124 279.894125 
L 254.100511 279.174125 
L 254.903925 278.814125 
L 255.693835 279.054125 
L 256.470688 279.534125 
L 257.23491 278.694125 
L 257.986903 279.294125 
L 258.727053 279.414125 
L 259.455727 279.414125 
L 260.173276 278.934125 
L 260.880035 279.414125 
L 261.576322 278.094125 
L 262.262445 279.054125 
L 262.938695 277.374125 
L 263.605352 278.934125 
L 264.262686 277.854125 
L 264.910952 279.174125 
L 266.18126 280.014125 
L 266.803767 280.494125 
L 268.024578 278.934125 
L 269.214478 280.374125 
L 269.798319 279.294125 
L 270.374995 278.934125 
L 270.944682 279.774125 
L 271.507545 279.894125 
L 272.063748 280.974125 
L 272.613445 280.614125 
L 273.156787 281.694125 
L 273.693919 281.934125 
L 274.224982 284.334125 
L 275.269437 283.854125 
L 276.291185 280.374125 
L 277.291192 283.974125 
L 278.270365 281.814125 
L 278.752405 281.454125 
L 279.229552 279.414125 
L 280.169555 280.254125 
L 280.632598 279.894125 
L 281.54522 278.214125 
L 281.994971 277.854125 
L 282.440458 278.574125 
L 282.881762 280.254125 
L 283.318961 281.214125 
L 283.752131 279.534125 
L 284.181345 280.374125 
L 284.606674 279.054125 
L 285.028188 278.334125 
L 285.445956 278.334125 
L 285.860043 278.574125 
L 286.67743 279.774125 
L 287.080853 279.894125 
L 287.480844 279.534125 
L 287.877458 279.414125 
L 288.660786 279.054125 
L 289.047607 278.934125 
L 289.431271 277.974125 
L 289.811828 278.694125 
L 290.189329 278.214125 
L 290.563821 278.574125 
L 290.935353 277.974125 
L 291.303971 278.574125 
L 292.39279 279.534125 
L 292.750195 279.654125 
L 293.104903 280.134125 
L 293.456954 278.934125 
L 293.806387 278.934125 
L 294.153241 278.334125 
L 294.497555 279.054125 
L 294.839364 279.174125 
L 295.178705 277.374125 
L 295.515614 277.494125 
L 295.850124 277.494125 
L 296.182271 277.254125 
L 296.839604 278.694125 
L 297.164855 277.974125 
L 297.487871 279.174125 
L 297.808681 277.734125 
L 298.127317 277.134125 
L 298.443806 279.414125 
L 298.758179 280.734125 
L 299.380686 279.174125 
L 299.688874 280.614125 
L 299.995055 280.494125 
L 300.299254 281.454125 
L 300.601496 280.374125 
L 300.901808 280.374125 
L 301.200212 279.294125 
L 301.496734 278.814125 
L 301.791397 278.814125 
L 302.084224 279.414125 
L 302.66446 277.614125 
L 302.951914 277.134125 
L 303.23762 277.614125 
L 303.521601 280.134125 
L 303.803875 278.214125 
L 304.084464 277.974125 
L 304.363388 277.374125 
L 304.640667 277.974125 
L 304.916319 275.814125 
L 305.190364 278.334125 
L 305.46282 278.094125 
L 305.733706 278.934125 
L 306.003039 278.454125 
L 306.270838 278.454125 
L 306.537119 279.054125 
L 306.801901 279.174125 
L 307.065199 279.054125 
L 307.32703 278.694125 
L 307.846356 277.494125 
L 308.103883 278.934125 
L 308.360007 279.054125 
L 308.614742 278.814125 
L 308.868104 278.814125 
L 309.120108 278.934125 
L 309.370767 278.694125 
L 309.620097 279.414125 
L 309.868111 278.094125 
L 310.114823 278.214125 
L 310.360247 277.614125 
L 310.604396 277.974125 
L 310.847283 277.374125 
L 311.088922 277.734125 
L 311.329324 278.334125 
L 311.568503 277.974125 
L 311.806471 278.694125 
L 312.04324 278.574125 
L 312.278822 278.694125 
L 312.746473 278.454125 
L 312.978566 277.134125 
L 313.439339 276.534125 
L 313.668043 277.254125 
L 313.89564 276.534125 
L 314.122139 276.294125 
L 314.347552 278.334125 
L 314.795161 279.294125 
L 315.017377 278.094125 
L 315.458681 277.494125 
L 315.677789 276.534125 
L 315.89588 276.174125 
L 316.112964 276.534125 
L 316.32905 277.374125 
L 316.544147 279.414125 
L 316.758263 278.694125 
L 316.971409 276.894125 
L 317.183593 280.374125 
L 317.394822 280.614125 
L 317.605107 280.134125 
L 317.814455 279.294125 
L 318.230374 280.374125 
L 318.436962 281.334125 
L 318.642645 278.454125 
L 318.847432 277.854125 
L 319.051331 277.614125 
L 319.254349 276.654125 
L 319.456493 278.094125 
L 319.657772 278.214125 
L 319.858193 277.974125 
L 320.057762 275.094125 
L 320.454377 274.254125 
L 320.651436 275.574125 
L 320.847673 273.774125 
L 321.043093 273.534125 
L 321.237704 272.454125 
L 321.431513 272.934125 
L 321.624526 272.694125 
L 321.816749 272.094125 
L 322.00819 274.254125 
L 322.198854 274.374125 
L 322.388747 275.694125 
L 322.577876 275.214125 
L 322.766248 275.934125 
L 323.14074 273.654125 
L 323.326873 274.974125 
L 323.512272 274.254125 
L 323.696943 274.134125 
L 323.88089 273.774125 
L 324.064121 275.694125 
L 324.24664 275.334125 
L 324.428452 276.294125 
L 324.789982 274.854125 
L 324.969709 275.814125 
L 325.148751 274.614125 
L 325.327114 274.854125 
L 325.858177 273.414125 
L 326.208914 269.694125 
L 326.383306 270.054125 
L 326.557053 269.814125 
L 326.73016 269.934125 
L 326.902632 271.734125 
L 327.074473 272.214125 
L 327.245689 271.614125 
L 327.58626 272.694125 
L 327.755624 271.494125 
L 327.92438 273.654125 
L 328.092533 272.934125 
L 328.260086 274.254125 
L 328.427043 274.254125 
L 328.59341 275.574125 
L 328.75919 275.454125 
L 328.924387 273.654125 
L 329.089006 274.494125 
L 329.25305 273.534125 
L 329.57943 273.174125 
L 329.741774 275.334125 
L 329.903559 274.374125 
L 330.064789 277.254125 
L 330.225468 274.134125 
L 330.3856 274.014125 
L 330.545188 273.174125 
L 330.704235 274.134125 
L 330.862747 273.054125 
L 331.020725 274.974125 
L 331.335098 275.334125 
L 331.491499 274.134125 
L 331.647382 274.734125 
L 332.111951 270.894125 
L 332.265793 271.974125 
L 332.571974 270.294125 
L 332.724319 270.174125 
L 332.876173 269.334125 
L 333.027537 266.694125 
L 333.178415 266.814125 
L 333.328811 265.134125 
L 333.478726 265.494125 
L 333.628166 262.134125 
L 333.777131 262.374125 
L 333.925626 264.054125 
L 334.073653 264.174125 
L 334.221215 265.254125 
L 334.368316 264.654125 
L 334.661142 269.694125 
L 334.806875 269.334125 
L 335.09699 274.374125 
L 335.241379 272.934125 
L 335.385326 272.694125 
L 335.528833 272.694125 
L 335.671903 271.254125 
L 335.814539 271.254125 
L 335.956744 269.574125 
L 336.239868 264.054125 
L 336.521298 262.734125 
L 336.661383 262.734125 
L 337.079151 259.494125 
L 337.355614 258.414125 
L 337.493238 258.894125 
L 337.63046 258.894125 
L 337.767283 259.374125 
L 338.175377 263.694125 
L 338.310624 266.334125 
L 338.445484 266.574125 
L 338.714048 264.654125 
L 338.981086 265.614125 
L 339.246615 262.494125 
L 339.510653 266.094125 
L 339.773215 261.534125 
L 339.903949 261.294125 
L 340.034319 260.814125 
L 340.29398 262.374125 
L 340.423275 260.694125 
L 340.552215 260.934125 
L 340.936926 256.494125 
L 341.064466 259.614125 
L 341.697027 254.334125 
L 342.197016 256.854125 
L 342.321187 256.974125 
L 342.44503 257.454125 
L 342.568548 257.454125 
L 342.814614 255.774125 
L 342.937166 256.734125 
L 343.059399 256.254125 
L 343.181315 256.974125 
L 343.302915 256.014125 
L 343.424202 259.254125 
L 343.665841 257.454125 
L 343.906243 258.534125 
L 344.025984 255.654125 
L 344.264556 256.614125 
L 344.620159 253.494125 
L 344.738098 252.534125 
L 344.855741 247.134125 
L 344.973091 250.374125 
L 345.090148 250.254125 
L 345.206915 252.894125 
L 345.439582 247.614125 
L 345.671102 252.654125 
L 345.786436 253.014125 
L 346.016258 250.374125 
L 346.130749 250.614125 
L 346.244962 248.094125 
L 346.358898 249.894125 
L 346.472559 249.414125 
L 346.585945 250.974125 
L 346.8119 247.494125 
L 346.924471 247.494125 
L 347.036774 245.334125 
L 347.148808 247.494125 
L 347.483319 242.214125 
L 347.594296 242.454125 
L 347.705011 247.614125 
L 347.815466 244.134125 
L 347.925662 245.094125 
L 348.0356 243.174125 
L 348.254708 244.614125 
L 348.36388 244.134125 
L 348.472799 244.254125 
L 348.79805 240.054125 
L 348.905969 239.094125 
L 349.121065 241.614125 
L 349.228246 240.894125 
L 349.335182 244.014125 
L 349.441876 239.214125 
L 349.548328 239.334125 
L 349.760511 240.894125 
L 350.077001 239.454125 
L 350.182026 237.534125 
L 350.286817 241.614125 
L 350.495699 233.574125 
L 350.599794 233.214125 
L 350.703658 234.294125 
L 350.807293 233.934125 
L 350.9107 234.654125 
L 351.013881 233.454125 
L 351.219564 235.254125 
L 351.322069 237.414125 
L 351.526411 232.254125 
L 351.62825 231.894125 
L 351.729868 230.334125 
L 351.831267 230.694125 
L 352.033412 232.014125 
L 352.535002 226.134125 
L 352.734149 231.534125 
L 352.833407 229.134125 
L 352.932455 231.054125 
L 353.031296 228.054125 
L 353.129929 230.694125 
L 353.228355 226.974125 
L 353.326576 228.414125 
L 353.522403 226.734125 
L 353.620012 227.214125 
L 353.717418 226.854125 
L 353.814623 226.974125 
L 353.911628 226.014125 
L 354.008432 226.974125 
L 354.105038 224.454125 
L 354.297655 225.534125 
L 354.393668 218.934125 
L 354.489486 222.894125 
L 354.585109 222.414125 
L 354.775772 223.614125 
L 354.870815 220.734125 
L 354.965666 222.654125 
L 355.060326 220.134125 
L 355.154795 222.174125 
L 355.343166 219.414125 
L 355.43707 221.094125 
L 355.624315 218.094125 
L 355.717659 218.334125 
L 355.903792 214.614125 
L 355.996583 213.894125 
L 356.089191 214.974125 
L 356.273861 218.694125 
L 356.549514 216.534125 
L 356.732388 212.214125 
L 357.005371 220.614125 
L 357.3669 212.214125 
L 357.45685 216.774125 
L 357.636234 211.374125 
L 357.904033 215.694125 
L 357.992961 214.974125 
L 358.347001 206.694125 
L 358.435095 209.214125 
L 358.785833 204.054125 
L 358.873109 205.854125 
L 358.960224 201.294125 
L 359.047178 203.454125 
L 359.133972 202.854125 
L 359.220605 199.974125 
L 359.307079 204.654125 
L 359.479551 200.694125 
L 359.56555 202.254125 
L 359.651392 207.054125 
L 359.737078 202.134125 
L 359.822608 203.094125 
L 359.993201 200.694125 
L 360.078267 200.574125 
L 360.163178 200.934125 
L 360.247937 199.854125 
L 360.332543 200.094125 
L 360.416997 200.814125 
L 360.501299 200.574125 
L 360.58545 194.574125 
L 360.669451 199.614125 
L 360.837004 188.574125 
L 360.920557 193.254125 
L 361.003962 190.254125 
L 361.087219 190.974125 
L 361.170329 189.894125 
L 361.253292 192.654125 
L 361.501306 185.454125 
L 361.665925 188.454125 
L 361.748018 188.094125 
L 361.911776 185.214125 
L 361.993442 188.094125 
L 362.074966 187.014125 
L 362.156349 184.374125 
L 362.318693 187.614125 
L 362.480478 183.774125 
L 362.561162 186.294125 
L 363.04238 181.854125 
L 363.122107 182.694125 
L 363.201698 185.814125 
L 363.439666 179.214125 
L 363.518721 180.534125 
L 363.833621 174.054125 
L 363.912017 174.534125 
L 363.990283 175.854125 
L 364.146424 170.094125 
L 364.379668 178.974125 
L 364.534523 169.854125 
L 364.61176 175.374125 
L 364.68887 174.294125 
L 364.996052 177.774125 
L 365.072534 188.814125 
L 365.148892 186.774125 
L 365.301238 119.814125 
L 365.377226 133.734125 
L 365.453091 130.254125 
L 365.528834 127.374125 
L 365.755334 107.574125 
L 365.830592 113.334125 
L 365.980747 102.174125 
L 366.055645 102.174125 
L 366.130424 102.654125 
L 366.205084 102.414125 
L 366.279626 102.654125 
L 366.35405 113.334125 
L 366.428356 110.574125 
L 366.502545 103.494125 
L 366.576616 105.534125 
L 366.650572 107.214125 
L 366.724411 102.294125 
L 366.798134 103.614125 
L 366.871742 102.294125 
L 366.945234 103.134125 
L 367.018612 101.934125 
L 367.091876 102.534125 
L 367.165025 101.574125 
L 367.238061 104.334125 
L 367.383793 100.374125 
L 367.45649 105.774125 
L 367.601548 102.174125 
L 367.673909 101.454125 
L 367.746159 106.974125 
L 367.890326 101.334125 
L 368.034053 105.774125 
L 368.177341 100.974125 
L 368.248822 105.774125 
L 368.320194 104.334125 
L 368.391458 105.894125 
L 368.462614 102.414125 
L 368.675438 107.574125 
L 368.746166 104.334125 
L 368.816787 104.574125 
L 368.957713 103.494125 
L 369.028017 106.494125 
L 369.168311 139.494125 
L 369.308188 105.654125 
L 369.377971 117.654125 
L 369.586699 105.174125 
L 369.794504 95.214125 
L 369.863569 94.974125 
L 369.932532 92.814125 
L 370.001395 93.054125 
L 370.138818 92.214125 
L 370.344201 94.014125 
L 370.412464 92.574125 
L 370.480627 99.534125 
L 370.616657 91.734125 
L 370.684525 93.294125 
L 370.752296 92.814125 
L 370.887543 92.094125 
L 371.022403 93.174125 
L 371.22397 91.974125 
L 371.290967 92.094125 
L 371.357869 92.454125 
L 371.491387 91.974125 
L 371.690957 93.414125 
L 371.889683 91.254125 
L 371.955738 94.494125 
L 372.087572 91.734125 
L 372.219036 92.934125 
L 372.284631 94.134125 
L 372.415546 91.734125 
L 372.480867 93.414125 
L 372.546098 92.694125 
L 372.611238 92.454125 
L 372.676288 92.694125 
L 372.741248 94.734125 
L 372.870899 131.454125 
L 373.000194 103.254125 
L 373.064708 111.174125 
L 373.129134 95.934125 
L 373.193471 100.254125 
L 373.321883 88.014125 
L 373.385957 88.374125 
L 373.449944 88.734125 
L 373.513844 87.054125 
L 373.577658 87.654125 
L 373.705025 86.934125 
L 373.76858 87.534125 
L 373.895431 85.854125 
L 373.958729 86.094125 
L 374.021942 86.814125 
L 374.08507 86.454125 
L 374.148113 85.854125 
L 374.273945 87.414125 
L 374.399442 85.734125 
L 374.462065 86.334125 
L 374.587062 85.494125 
L 374.711726 86.694125 
L 374.773935 86.574125 
L 374.960068 85.494125 
L 375.021949 85.134125 
L 375.268661 86.814125 
L 375.330137 86.094125 
L 375.452849 88.494125 
L 375.514085 88.134125 
L 375.697315 85.974125 
L 375.758234 85.974125 
L 375.819073 87.054125 
L 375.879834 86.454125 
L 375.940517 86.334125 
L 376.122095 87.534125 
L 376.182466 87.414125 
L 376.242759 87.534125 
L 376.302975 85.974125 
L 376.363114 86.934125 
L 376.423176 87.294125 
L 376.602903 86.094125 
L 376.722341 87.054125 
L 376.781946 86.814125 
L 376.841475 88.134125 
L 376.900929 86.094125 
L 376.960309 87.534125 
L 377.019613 87.294125 
L 377.078842 88.134125 
L 377.137997 94.254125 
L 377.197078 134.814125 
L 377.256084 101.694125 
L 377.315016 97.974125 
L 377.43266 103.734125 
L 377.608575 93.174125 
L 377.667067 95.574125 
L 377.725487 94.374125 
L 377.900311 88.494125 
L 377.958442 89.094125 
L 378.132403 84.534125 
L 378.190248 84.414125 
L 378.248021 84.534125 
L 378.363355 84.894125 
L 378.478406 85.494125 
L 378.535827 85.134125 
L 378.593177 85.974125 
L 378.650457 85.374125 
L 378.707668 84.654125 
L 378.764809 85.254125 
L 378.821881 85.254125 
L 378.935817 84.654125 
L 379.106205 85.374125 
L 379.162864 84.774125 
L 379.219454 85.374125 
L 379.275977 84.894125 
L 379.50139 84.294125 
L 379.557575 83.214125 
L 379.613692 83.334125 
L 379.669743 83.694125 
L 379.725727 85.254125 
L 379.781645 84.894125 
L 379.89328 85.254125 
L 380.115759 83.334125 
L 380.226605 85.134125 
L 380.28193 84.894125 
L 380.502581 82.854125 
L 380.776945 86.454125 
L 380.940799 82.854125 
L 380.99529 82.974125 
L 381.049718 89.694125 
L 381.104083 131.334125 
L 381.158385 102.174125 
L 381.482887 87.534125 
L 381.536754 92.694125 
L 381.590559 88.614125 
L 381.644302 88.374125 
L 381.805164 82.254125 
L 382.231458 82.974125 
L 382.284474 82.974125 
L 382.54866 83.814125 
L 382.811369 84.774125 
L 382.863735 84.294125 
L 382.916043 85.254125 
L 382.968293 84.654125 
L 383.124694 83.814125 
L 383.176712 85.374125 
L 383.228673 85.014125 
L 383.280577 84.054125 
L 383.384212 91.614125 
L 383.435944 104.694125 
L 383.487619 102.054125 
L 383.539238 93.894125 
L 383.590799 113.094125 
L 383.642305 94.374125 
L 383.796483 85.854125 
L 383.847763 91.014125 
L 383.898988 90.294125 
L 384.00127 82.854125 
L 384.052327 84.774125 
L 384.10333 87.054125 
L 384.256005 82.254125 
L 384.306787 82.374125 
L 384.357514 82.134125 
L 384.408186 82.494125 
L 384.458804 82.134125 
L 384.509367 82.254125 
L 384.559876 82.134125 
L 384.610331 82.134125 
L 384.761371 81.774125 
L 384.81161 81.774125 
L 384.962005 81.414125 
L 385.01203 81.414125 
L 385.161787 81.774125 
L 385.26136 81.654125 
L 385.311068 81.774125 
L 385.410326 81.534125 
L 385.55882 81.894125 
L 385.608215 81.414125 
L 385.657557 81.894125 
L 385.706848 81.654125 
L 385.805274 82.854125 
L 385.85441 82.374125 
L 385.903495 82.134125 
L 385.952528 82.254125 
L 386.00151 82.374125 
L 386.245659 84.054125 
L 386.294337 83.334125 
L 386.391542 83.454125 
L 386.440069 83.214125 
L 386.488546 83.334125 
L 386.536974 83.334125 
L 386.585351 85.494125 
L 386.633678 129.054125 
L 386.681956 97.134125 
L 386.730185 110.814125 
L 386.778364 97.734125 
L 386.970587 82.374125 
L 387.01852 82.854125 
L 387.11424 79.734125 
L 387.162028 81.294125 
L 387.209766 83.574125 
L 387.257456 80.214125 
L 387.352691 81.174125 
L 387.447734 80.694125 
L 387.589938 79.494125 
L 387.731714 79.734125 
L 387.873063 79.374125 
L 387.920085 79.374125 
L 387.920085 79.374125 
" clip-path="url(#pb7d0d7f12a)" style="fill: none; stroke: #d62728; stroke-width: 1.5; stroke-linecap: square"/>
   </g>
   <g id="patch_3">
    <path d="M 47.032813 296.430125 
L 47.032813 30.318125 
" style="fill: none; stroke: #000000; stroke-width: 0.8; stroke-linejoin: miter; stroke-linecap: square"/>
   </g>
   <g id="patch_4">
    <path d="M 404.152812 296.430125 
L 404.152812 30.318125 
" style="fill: none; stroke: #000000; stroke-width: 0.8; stroke-linejoin: miter; stroke-linecap: square"/>
   </g>
   <g id="patch_5">
    <path d="M 47.032813 296.430125 
L 404.152812 296.430125 
" style="fill: none; stroke: #000000; stroke-width: 0.8; stroke-linejoin: miter; stroke-linecap: square"/>
   </g>
   <g id="patch_6">
    <path d="M 47.032813 30.318125 
L 404.152812 30.318125 
" style="fill: none; stroke: #000000; stroke-width: 0.8; stroke-linejoin: miter; stroke-linecap: square"/>
   </g>
   <g id="text_12">
    <!-- Accuracy per Epoch (ResNet-18 on SVHN) -->
    <g transform="translate(85.034375 16.318125) scale(0.12 -0.12)">
     <defs>
      <path id="DejaVuSans-Bold-65" d="M 4031 1759 
L 4031 1441 
L 1416 1441 
Q 1456 1047 1700 850 
Q 1944 653 2381 653 
Q 2734 653 3104 758 
Q 3475 863 3866 1075 
L 3866 213 
Q 3469 63 3072 -14 
Q 2675 -91 2278 -91 
Q 1328 -91 801 392 
Q 275 875 275 1747 
Q 275 2603 792 3093 
Q 1309 3584 2216 3584 
Q 3041 3584 3536 3087 
Q 4031 2591 4031 1759 
z
M 2881 2131 
Q 2881 2450 2695 2645 
Q 2509 2841 2209 2841 
Q 1884 2841 1681 2658 
Q 1478 2475 1428 2131 
L 2881 2131 
z
" transform="scale(0.015625)"/>
      <path id="DejaVuSans-Bold-52" d="M 2297 2597 
Q 2675 2597 2839 2737 
Q 3003 2878 3003 3200 
Q 3003 3519 2839 3656 
Q 2675 3794 2297 3794 
L 1791 3794 
L 1791 2597 
L 2297 2597 
z
M 1791 1766 
L 1791 0 
L 588 0 
L 588 4666 
L 2425 4666 
Q 3347 4666 3776 4356 
Q 4206 4047 4206 3378 
Q 4206 2916 3982 2619 
Q 3759 2322 3309 2181 
Q 3556 2125 3751 1926 
Q 3947 1728 4147 1325 
L 4800 0 
L 3519 0 
L 2950 1159 
Q 2778 1509 2601 1637 
Q 2425 1766 2131 1766 
L 1791 1766 
z
" transform="scale(0.015625)"/>
      <path id="DejaVuSans-Bold-73" d="M 3272 3391 
L 3272 2541 
Q 2913 2691 2578 2766 
Q 2244 2841 1947 2841 
Q 1628 2841 1473 2761 
Q 1319 2681 1319 2516 
Q 1319 2381 1436 2309 
Q 1553 2238 1856 2203 
L 2053 2175 
Q 2913 2066 3209 1816 
Q 3506 1566 3506 1031 
Q 3506 472 3093 190 
Q 2681 -91 1863 -91 
Q 1516 -91 1145 -36 
Q 775 19 384 128 
L 384 978 
Q 719 816 1070 734 
Q 1422 653 1784 653 
Q 2113 653 2278 743 
Q 2444 834 2444 1013 
Q 2444 1163 2330 1236 
Q 2216 1309 1875 1350 
L 1678 1375 
Q 931 1469 631 1722 
Q 331 1975 331 2491 
Q 331 3047 712 3315 
Q 1094 3584 1881 3584 
Q 2191 3584 2531 3537 
Q 2872 3491 3272 3391 
z
" transform="scale(0.015625)"/>
      <path id="DejaVuSans-Bold-4e" d="M 588 4666 
L 1931 4666 
L 3628 1466 
L 3628 4666 
L 4769 4666 
L 4769 0 
L 3425 0 
L 1728 3200 
L 1728 0 
L 588 0 
L 588 4666 
z
" transform="scale(0.015625)"/>
      <path id="DejaVuSans-Bold-74" d="M 1759 4494 
L 1759 3500 
L 2913 3500 
L 2913 2700 
L 1759 2700 
L 1759 1216 
Q 1759 972 1856 886 
Q 1953 800 2241 800 
L 2816 800 
L 2816 0 
L 1856 0 
Q 1194 0 917 276 
Q 641 553 641 1216 
L 641 2700 
L 84 2700 
L 84 3500 
L 641 3500 
L 641 4494 
L 1759 4494 
z
" transform="scale(0.015625)"/>
      <path id="DejaVuSans-Bold-2d" d="M 347 2297 
L 2309 2297 
L 2309 1388 
L 347 1388 
L 347 2297 
z
" transform="scale(0.015625)"/>
      <path id="DejaVuSans-Bold-31" d="M 750 831 
L 1813 831 
L 1813 3847 
L 722 3622 
L 722 4441 
L 1806 4666 
L 2950 4666 
L 2950 831 
L 4013 831 
L 4013 0 
L 750 0 
L 750 831 
z
" transform="scale(0.015625)"/>
      <path id="DejaVuSans-Bold-38" d="M 2228 2088 
Q 1891 2088 1709 1903 
Q 1528 1719 1528 1375 
Q 1528 1031 1709 848 
Q 1891 666 2228 666 
Q 2563 666 2741 848 
Q 2919 1031 2919 1375 
Q 2919 1722 2741 1905 
Q 2563 2088 2228 2088 
z
M 1350 2484 
Q 925 2613 709 2878 
Q 494 3144 494 3541 
Q 494 4131 934 4440 
Q 1375 4750 2228 4750 
Q 3075 4750 3515 4442 
Q 3956 4134 3956 3541 
Q 3956 3144 3739 2878 
Q 3522 2613 3097 2484 
Q 3572 2353 3814 2058 
Q 4056 1763 4056 1313 
Q 4056 619 3595 264 
Q 3134 -91 2228 -91 
Q 1319 -91 855 264 
Q 391 619 391 1313 
Q 391 1763 633 2058 
Q 875 2353 1350 2484 
z
M 1631 3419 
Q 1631 3141 1786 2991 
Q 1941 2841 2228 2841 
Q 2509 2841 2662 2991 
Q 2816 3141 2816 3419 
Q 2816 3697 2662 3845 
Q 2509 3994 2228 3994 
Q 1941 3994 1786 3844 
Q 1631 3694 1631 3419 
z
" transform="scale(0.015625)"/>
      <path id="DejaVuSans-Bold-6e" d="M 4056 2131 
L 4056 0 
L 2931 0 
L 2931 347 
L 2931 1631 
Q 2931 2084 2911 2256 
Q 2891 2428 2841 2509 
Q 2775 2619 2662 2680 
Q 2550 2741 2406 2741 
Q 2056 2741 1856 2470 
Q 1656 2200 1656 1722 
L 1656 0 
L 538 0 
L 538 3500 
L 1656 3500 
L 1656 2988 
Q 1909 3294 2193 3439 
Q 2478 3584 2822 3584 
Q 3428 3584 3742 3212 
Q 4056 2841 4056 2131 
z
" transform="scale(0.015625)"/>
      <path id="DejaVuSans-Bold-53" d="M 3834 4519 
L 3834 3531 
Q 3450 3703 3084 3790 
Q 2719 3878 2394 3878 
Q 1963 3878 1756 3759 
Q 1550 3641 1550 3391 
Q 1550 3203 1689 3098 
Q 1828 2994 2194 2919 
L 2706 2816 
Q 3484 2659 3812 2340 
Q 4141 2022 4141 1434 
Q 4141 663 3683 286 
Q 3225 -91 2284 -91 
Q 1841 -91 1394 -6 
Q 947 78 500 244 
L 500 1259 
Q 947 1022 1364 901 
Q 1781 781 2169 781 
Q 2563 781 2772 912 
Q 2981 1044 2981 1288 
Q 2981 1506 2839 1625 
Q 2697 1744 2272 1838 
L 1806 1941 
Q 1106 2091 782 2419 
Q 459 2747 459 3303 
Q 459 4000 909 4375 
Q 1359 4750 2203 4750 
Q 2588 4750 2994 4692 
Q 3400 4634 3834 4519 
z
" transform="scale(0.015625)"/>
      <path id="DejaVuSans-Bold-56" d="M 31 4666 
L 1241 4666 
L 2478 1222 
L 3713 4666 
L 4922 4666 
L 3194 0 
L 1759 0 
L 31 4666 
z
" transform="scale(0.015625)"/>
      <path id="DejaVuSans-Bold-48" d="M 588 4666 
L 1791 4666 
L 1791 2888 
L 3566 2888 
L 3566 4666 
L 4769 4666 
L 4769 0 
L 3566 0 
L 3566 1978 
L 1791 1978 
L 1791 0 
L 588 0 
L 588 4666 
z
" transform="scale(0.015625)"/>
     </defs>
     <use xlink:href="#DejaVuSans-Bold-41"/>
     <use xlink:href="#DejaVuSans-Bold-63" transform="translate(77.392578 0)"/>
     <use xlink:href="#DejaVuSans-Bold-63" transform="translate(136.669922 0)"/>
     <use xlink:href="#DejaVuSans-Bold-75" transform="translate(195.947266 0)"/>
     <use xlink:href="#DejaVuSans-Bold-72" transform="translate(267.138672 0)"/>
     <use xlink:href="#DejaVuSans-Bold-61" transform="translate(316.455078 0)"/>
     <use xlink:href="#DejaVuSans-Bold-63" transform="translate(383.935547 0)"/>
     <use xlink:href="#DejaVuSans-Bold-79" transform="translate(443.212891 0)"/>
     <use xlink:href="#DejaVuSans-Bold-20" transform="translate(508.398438 0)"/>
     <use xlink:href="#DejaVuSans-Bold-70" transform="translate(543.212891 0)"/>
     <use xlink:href="#DejaVuSans-Bold-65" transform="translate(614.794922 0)"/>
     <use xlink:href="#DejaVuSans-Bold-72" transform="translate(682.617188 0)"/>
     <use xlink:href="#DejaVuSans-Bold-20" transform="translate(731.933594 0)"/>
     <use xlink:href="#DejaVuSans-Bold-45" transform="translate(766.748047 0)"/>
     <use xlink:href="#DejaVuSans-Bold-70" transform="translate(835.058594 0)"/>
     <use xlink:href="#DejaVuSans-Bold-6f" transform="translate(906.640625 0)"/>
     <use xlink:href="#DejaVuSans-Bold-63" transform="translate(975.341797 0)"/>
     <use xlink:href="#DejaVuSans-Bold-68" transform="translate(1034.619141 0)"/>
     <use xlink:href="#DejaVuSans-Bold-20" transform="translate(1105.810547 0)"/>
     <use xlink:href="#DejaVuSans-Bold-28" transform="translate(1140.625 0)"/>
     <use xlink:href="#DejaVuSans-Bold-52" transform="translate(1186.328125 0)"/>
     <use xlink:href="#DejaVuSans-Bold-65" transform="translate(1263.330078 0)"/>
     <use xlink:href="#DejaVuSans-Bold-73" transform="translate(1331.152344 0)"/>
     <use xlink:href="#DejaVuSans-Bold-4e" transform="translate(1390.673828 0)"/>
     <use xlink:href="#DejaVuSans-Bold-65" transform="translate(1474.365234 0)"/>
     <use xlink:href="#DejaVuSans-Bold-74" transform="translate(1542.1875 0)"/>
     <use xlink:href="#DejaVuSans-Bold-2d" transform="translate(1589.990234 0)"/>
     <use xlink:href="#DejaVuSans-Bold-31" transform="translate(1631.494141 0)"/>
     <use xlink:href="#DejaVuSans-Bold-38" transform="translate(1701.074219 0)"/>
     <use xlink:href="#DejaVuSans-Bold-20" transform="translate(1770.654297 0)"/>
     <use xlink:href="#DejaVuSans-Bold-6f" transform="translate(1805.46875 0)"/>
     <use xlink:href="#DejaVuSans-Bold-6e" transform="translate(1874.169922 0)"/>
     <use xlink:href="#DejaVuSans-Bold-20" transform="translate(1945.361328 0)"/>
     <use xlink:href="#DejaVuSans-Bold-53" transform="translate(1980.175781 0)"/>
     <use xlink:href="#DejaVuSans-Bold-56" transform="translate(2052.197266 0)"/>
     <use xlink:href="#DejaVuSans-Bold-48" transform="translate(2129.589844 0)"/>
     <use xlink:href="#DejaVuSans-Bold-4e" transform="translate(2213.28125 0)"/>
     <use xlink:href="#DejaVuSans-Bold-29" transform="translate(2296.972656 0)"/>
    </g>
   </g>
   <g id="legend_1">
    <g id="patch_7">
     <path d="M 54.032813 97.030625 
L 197.107812 97.030625 
Q 199.107812 97.030625 199.107812 95.030625 
L 199.107812 37.318125 
Q 199.107812 35.318125 197.107812 35.318125 
L 54.032813 35.318125 
Q 52.032813 35.318125 52.032813 37.318125 
L 52.032813 95.030625 
Q 52.032813 97.030625 54.032813 97.030625 
z
" style="fill: #ffffff; opacity: 0.8; stroke: #cccccc; stroke-linejoin: miter"/>
    </g>
    <g id="line2d_40">
     <path d="M 56.032813 43.416562 
L 66.032813 43.416562 
L 76.032813 43.416562 
" style="fill: none; stroke-dasharray: 5.55,2.4; stroke-dashoffset: 0; stroke: #2ca02c; stroke-width: 1.5"/>
    </g>
    <g id="text_13">
     <!-- Train (no scaling) -->
     <g transform="translate(84.032813 46.916562) scale(0.1 -0.1)">
      <defs>
       <path id="DejaVuSans-54" d="M -19 4666 
L 3928 4666 
L 3928 4134 
L 2272 4134 
L 2272 0 
L 1638 0 
L 1638 4134 
L -19 4134 
L -19 4666 
z
" transform="scale(0.015625)"/>
       <path id="DejaVuSans-72" d="M 2631 2963 
Q 2534 3019 2420 3045 
Q 2306 3072 2169 3072 
Q 1681 3072 1420 2755 
Q 1159 2438 1159 1844 
L 1159 0 
L 581 0 
L 581 3500 
L 1159 3500 
L 1159 2956 
Q 1341 3275 1631 3429 
Q 1922 3584 2338 3584 
Q 2397 3584 2469 3576 
Q 2541 3569 2628 3553 
L 2631 2963 
z
" transform="scale(0.015625)"/>
       <path id="DejaVuSans-61" d="M 2194 1759 
Q 1497 1759 1228 1600 
Q 959 1441 959 1056 
Q 959 750 1161 570 
Q 1363 391 1709 391 
Q 2188 391 2477 730 
Q 2766 1069 2766 1631 
L 2766 1759 
L 2194 1759 
z
M 3341 1997 
L 3341 0 
L 2766 0 
L 2766 531 
Q 2569 213 2275 61 
Q 1981 -91 1556 -91 
Q 1019 -91 701 211 
Q 384 513 384 1019 
Q 384 1609 779 1909 
Q 1175 2209 1959 2209 
L 2766 2209 
L 2766 2266 
Q 2766 2663 2505 2880 
Q 2244 3097 1772 3097 
Q 1472 3097 1187 3025 
Q 903 2953 641 2809 
L 641 3341 
Q 956 3463 1253 3523 
Q 1550 3584 1831 3584 
Q 2591 3584 2966 3190 
Q 3341 2797 3341 1997 
z
" transform="scale(0.015625)"/>
       <path id="DejaVuSans-69" d="M 603 3500 
L 1178 3500 
L 1178 0 
L 603 0 
L 603 3500 
z
M 603 4863 
L 1178 4863 
L 1178 4134 
L 603 4134 
L 603 4863 
z
" transform="scale(0.015625)"/>
       <path id="DejaVuSans-6e" d="M 3513 2113 
L 3513 0 
L 2938 0 
L 2938 2094 
Q 2938 2591 2744 2837 
Q 2550 3084 2163 3084 
Q 1697 3084 1428 2787 
Q 1159 2491 1159 1978 
L 1159 0 
L 581 0 
L 581 3500 
L 1159 3500 
L 1159 2956 
Q 1366 3272 1645 3428 
Q 1925 3584 2291 3584 
Q 2894 3584 3203 3211 
Q 3513 2838 3513 2113 
z
" transform="scale(0.015625)"/>
       <path id="DejaVuSans-20" transform="scale(0.015625)"/>
       <path id="DejaVuSans-28" d="M 1984 4856 
Q 1566 4138 1362 3434 
Q 1159 2731 1159 2009 
Q 1159 1288 1364 580 
Q 1569 -128 1984 -844 
L 1484 -844 
Q 1016 -109 783 600 
Q 550 1309 550 2009 
Q 550 2706 781 3412 
Q 1013 4119 1484 4856 
L 1984 4856 
z
" transform="scale(0.015625)"/>
       <path id="DejaVuSans-6f" d="M 1959 3097 
Q 1497 3097 1228 2736 
Q 959 2375 959 1747 
Q 959 1119 1226 758 
Q 1494 397 1959 397 
Q 2419 397 2687 759 
Q 2956 1122 2956 1747 
Q 2956 2369 2687 2733 
Q 2419 3097 1959 3097 
z
M 1959 3584 
Q 2709 3584 3137 3096 
Q 3566 2609 3566 1747 
Q 3566 888 3137 398 
Q 2709 -91 1959 -91 
Q 1206 -91 779 398 
Q 353 888 353 1747 
Q 353 2609 779 3096 
Q 1206 3584 1959 3584 
z
" transform="scale(0.015625)"/>
       <path id="DejaVuSans-73" d="M 2834 3397 
L 2834 2853 
Q 2591 2978 2328 3040 
Q 2066 3103 1784 3103 
Q 1356 3103 1142 2972 
Q 928 2841 928 2578 
Q 928 2378 1081 2264 
Q 1234 2150 1697 2047 
L 1894 2003 
Q 2506 1872 2764 1633 
Q 3022 1394 3022 966 
Q 3022 478 2636 193 
Q 2250 -91 1575 -91 
Q 1294 -91 989 -36 
Q 684 19 347 128 
L 347 722 
Q 666 556 975 473 
Q 1284 391 1588 391 
Q 1994 391 2212 530 
Q 2431 669 2431 922 
Q 2431 1156 2273 1281 
Q 2116 1406 1581 1522 
L 1381 1569 
Q 847 1681 609 1914 
Q 372 2147 372 2553 
Q 372 3047 722 3315 
Q 1072 3584 1716 3584 
Q 2034 3584 2315 3537 
Q 2597 3491 2834 3397 
z
" transform="scale(0.015625)"/>
       <path id="DejaVuSans-63" d="M 3122 3366 
L 3122 2828 
Q 2878 2963 2633 3030 
Q 2388 3097 2138 3097 
Q 1578 3097 1268 2742 
Q 959 2388 959 1747 
Q 959 1106 1268 751 
Q 1578 397 2138 397 
Q 2388 397 2633 464 
Q 2878 531 3122 666 
L 3122 134 
Q 2881 22 2623 -34 
Q 2366 -91 2075 -91 
Q 1284 -91 818 406 
Q 353 903 353 1747 
Q 353 2603 823 3093 
Q 1294 3584 2113 3584 
Q 2378 3584 2631 3529 
Q 2884 3475 3122 3366 
z
" transform="scale(0.015625)"/>
       <path id="DejaVuSans-6c" d="M 603 4863 
L 1178 4863 
L 1178 0 
L 603 0 
L 603 4863 
z
" transform="scale(0.015625)"/>
       <path id="DejaVuSans-67" d="M 2906 1791 
Q 2906 2416 2648 2759 
Q 2391 3103 1925 3103 
Q 1463 3103 1205 2759 
Q 947 2416 947 1791 
Q 947 1169 1205 825 
Q 1463 481 1925 481 
Q 2391 481 2648 825 
Q 2906 1169 2906 1791 
z
M 3481 434 
Q 3481 -459 3084 -895 
Q 2688 -1331 1869 -1331 
Q 1566 -1331 1297 -1286 
Q 1028 -1241 775 -1147 
L 775 -588 
Q 1028 -725 1275 -790 
Q 1522 -856 1778 -856 
Q 2344 -856 2625 -561 
Q 2906 -266 2906 331 
L 2906 616 
Q 2728 306 2450 153 
Q 2172 0 1784 0 
Q 1141 0 747 490 
Q 353 981 353 1791 
Q 353 2603 747 3093 
Q 1141 3584 1784 3584 
Q 2172 3584 2450 3431 
Q 2728 3278 2906 2969 
L 2906 3500 
L 3481 3500 
L 3481 434 
z
" transform="scale(0.015625)"/>
       <path id="DejaVuSans-29" d="M 513 4856 
L 1013 4856 
Q 1481 4119 1714 3412 
Q 1947 2706 1947 2009 
Q 1947 1309 1714 600 
Q 1481 -109 1013 -844 
L 513 -844 
Q 928 -128 1133 580 
Q 1338 1288 1338 2009 
Q 1338 2731 1133 3434 
Q 928 4138 513 4856 
z
" transform="scale(0.015625)"/>
      </defs>
      <use xlink:href="#DejaVuSans-54"/>
      <use xlink:href="#DejaVuSans-72" transform="translate(46.333984 0)"/>
      <use xlink:href="#DejaVuSans-61" transform="translate(87.447266 0)"/>
      <use xlink:href="#DejaVuSans-69" transform="translate(148.726562 0)"/>
      <use xlink:href="#DejaVuSans-6e" transform="translate(176.509766 0)"/>
      <use xlink:href="#DejaVuSans-20" transform="translate(239.888672 0)"/>
      <use xlink:href="#DejaVuSans-28" transform="translate(271.675781 0)"/>
      <use xlink:href="#DejaVuSans-6e" transform="translate(310.689453 0)"/>
      <use xlink:href="#DejaVuSans-6f" transform="translate(374.068359 0)"/>
      <use xlink:href="#DejaVuSans-20" transform="translate(435.25 0)"/>
      <use xlink:href="#DejaVuSans-73" transform="translate(467.037109 0)"/>
      <use xlink:href="#DejaVuSans-63" transform="translate(519.136719 0)"/>
      <use xlink:href="#DejaVuSans-61" transform="translate(574.117188 0)"/>
      <use xlink:href="#DejaVuSans-6c" transform="translate(635.396484 0)"/>
      <use xlink:href="#DejaVuSans-69" transform="translate(663.179688 0)"/>
      <use xlink:href="#DejaVuSans-6e" transform="translate(690.962891 0)"/>
      <use xlink:href="#DejaVuSans-67" transform="translate(754.341797 0)"/>
      <use xlink:href="#DejaVuSans-29" transform="translate(817.818359 0)"/>
     </g>
    </g>
    <g id="line2d_41">
     <path d="M 56.032813 58.094687 
L 66.032813 58.094687 
L 76.032813 58.094687 
" style="fill: none; stroke: #2ca02c; stroke-width: 1.5; stroke-linecap: square"/>
    </g>
    <g id="text_14">
     <!-- Validation (no scaling) -->
     <g transform="translate(84.032813 61.594687) scale(0.1 -0.1)">
      <defs>
       <path id="DejaVuSans-56" d="M 1831 0 
L 50 4666 
L 709 4666 
L 2188 738 
L 3669 4666 
L 4325 4666 
L 2547 0 
L 1831 0 
z
" transform="scale(0.015625)"/>
       <path id="DejaVuSans-64" d="M 2906 2969 
L 2906 4863 
L 3481 4863 
L 3481 0 
L 2906 0 
L 2906 525 
Q 2725 213 2448 61 
Q 2172 -91 1784 -91 
Q 1150 -91 751 415 
Q 353 922 353 1747 
Q 353 2572 751 3078 
Q 1150 3584 1784 3584 
Q 2172 3584 2448 3432 
Q 2725 3281 2906 2969 
z
M 947 1747 
Q 947 1113 1208 752 
Q 1469 391 1925 391 
Q 2381 391 2643 752 
Q 2906 1113 2906 1747 
Q 2906 2381 2643 2742 
Q 2381 3103 1925 3103 
Q 1469 3103 1208 2742 
Q 947 2381 947 1747 
z
" transform="scale(0.015625)"/>
       <path id="DejaVuSans-74" d="M 1172 4494 
L 1172 3500 
L 2356 3500 
L 2356 3053 
L 1172 3053 
L 1172 1153 
Q 1172 725 1289 603 
Q 1406 481 1766 481 
L 2356 481 
L 2356 0 
L 1766 0 
Q 1100 0 847 248 
Q 594 497 594 1153 
L 594 3053 
L 172 3053 
L 172 3500 
L 594 3500 
L 594 4494 
L 1172 4494 
z
" transform="scale(0.015625)"/>
      </defs>
      <use xlink:href="#DejaVuSans-56"/>
      <use xlink:href="#DejaVuSans-61" transform="translate(60.658203 0)"/>
      <use xlink:href="#DejaVuSans-6c" transform="translate(121.9375 0)"/>
      <use xlink:href="#DejaVuSans-69" transform="translate(149.720703 0)"/>
      <use xlink:href="#DejaVuSans-64" transform="translate(177.503906 0)"/>
      <use xlink:href="#DejaVuSans-61" transform="translate(240.980469 0)"/>
      <use xlink:href="#DejaVuSans-74" transform="translate(302.259766 0)"/>
      <use xlink:href="#DejaVuSans-69" transform="translate(341.46875 0)"/>
      <use xlink:href="#DejaVuSans-6f" transform="translate(369.251953 0)"/>
      <use xlink:href="#DejaVuSans-6e" transform="translate(430.433594 0)"/>
      <use xlink:href="#DejaVuSans-20" transform="translate(493.8125 0)"/>
      <use xlink:href="#DejaVuSans-28" transform="translate(525.599609 0)"/>
      <use xlink:href="#DejaVuSans-6e" transform="translate(564.613281 0)"/>
      <use xlink:href="#DejaVuSans-6f" transform="translate(627.992188 0)"/>
      <use xlink:href="#DejaVuSans-20" transform="translate(689.173828 0)"/>
      <use xlink:href="#DejaVuSans-73" transform="translate(720.960938 0)"/>
      <use xlink:href="#DejaVuSans-63" transform="translate(773.060547 0)"/>
      <use xlink:href="#DejaVuSans-61" transform="translate(828.041016 0)"/>
      <use xlink:href="#DejaVuSans-6c" transform="translate(889.320312 0)"/>
      <use xlink:href="#DejaVuSans-69" transform="translate(917.103516 0)"/>
      <use xlink:href="#DejaVuSans-6e" transform="translate(944.886719 0)"/>
      <use xlink:href="#DejaVuSans-67" transform="translate(1008.265625 0)"/>
      <use xlink:href="#DejaVuSans-29" transform="translate(1071.742188 0)"/>
     </g>
    </g>
    <g id="line2d_42">
     <path d="M 56.032813 72.772812 
L 66.032813 72.772812 
L 76.032813 72.772812 
" style="fill: none; stroke-dasharray: 5.55,2.4; stroke-dashoffset: 0; stroke: #d62728; stroke-width: 1.5"/>
    </g>
    <g id="text_15">
     <!-- Train (MSE loss) -->
     <g transform="translate(84.032813 76.272812) scale(0.1 -0.1)">
      <defs>
       <path id="DejaVuSans-4d" d="M 628 4666 
L 1569 4666 
L 2759 1491 
L 3956 4666 
L 4897 4666 
L 4897 0 
L 4281 0 
L 4281 4097 
L 3078 897 
L 2444 897 
L 1241 4097 
L 1241 0 
L 628 0 
L 628 4666 
z
" transform="scale(0.015625)"/>
       <path id="DejaVuSans-53" d="M 3425 4513 
L 3425 3897 
Q 3066 4069 2747 4153 
Q 2428 4238 2131 4238 
Q 1616 4238 1336 4038 
Q 1056 3838 1056 3469 
Q 1056 3159 1242 3001 
Q 1428 2844 1947 2747 
L 2328 2669 
Q 3034 2534 3370 2195 
Q 3706 1856 3706 1288 
Q 3706 609 3251 259 
Q 2797 -91 1919 -91 
Q 1588 -91 1214 -16 
Q 841 59 441 206 
L 441 856 
Q 825 641 1194 531 
Q 1563 422 1919 422 
Q 2459 422 2753 634 
Q 3047 847 3047 1241 
Q 3047 1584 2836 1778 
Q 2625 1972 2144 2069 
L 1759 2144 
Q 1053 2284 737 2584 
Q 422 2884 422 3419 
Q 422 4038 858 4394 
Q 1294 4750 2059 4750 
Q 2388 4750 2728 4690 
Q 3069 4631 3425 4513 
z
" transform="scale(0.015625)"/>
       <path id="DejaVuSans-45" d="M 628 4666 
L 3578 4666 
L 3578 4134 
L 1259 4134 
L 1259 2753 
L 3481 2753 
L 3481 2222 
L 1259 2222 
L 1259 531 
L 3634 531 
L 3634 0 
L 628 0 
L 628 4666 
z
" transform="scale(0.015625)"/>
      </defs>
      <use xlink:href="#DejaVuSans-54"/>
      <use xlink:href="#DejaVuSans-72" transform="translate(46.333984 0)"/>
      <use xlink:href="#DejaVuSans-61" transform="translate(87.447266 0)"/>
      <use xlink:href="#DejaVuSans-69" transform="translate(148.726562 0)"/>
      <use xlink:href="#DejaVuSans-6e" transform="translate(176.509766 0)"/>
      <use xlink:href="#DejaVuSans-20" transform="translate(239.888672 0)"/>
      <use xlink:href="#DejaVuSans-28" transform="translate(271.675781 0)"/>
      <use xlink:href="#DejaVuSans-4d" transform="translate(310.689453 0)"/>
      <use xlink:href="#DejaVuSans-53" transform="translate(396.96875 0)"/>
      <use xlink:href="#DejaVuSans-45" transform="translate(460.445312 0)"/>
      <use xlink:href="#DejaVuSans-20" transform="translate(523.628906 0)"/>
      <use xlink:href="#DejaVuSans-6c" transform="translate(555.416016 0)"/>
      <use xlink:href="#DejaVuSans-6f" transform="translate(583.199219 0)"/>
      <use xlink:href="#DejaVuSans-73" transform="translate(644.380859 0)"/>
      <use xlink:href="#DejaVuSans-73" transform="translate(696.480469 0)"/>
      <use xlink:href="#DejaVuSans-29" transform="translate(748.580078 0)"/>
     </g>
    </g>
    <g id="line2d_43">
     <path d="M 56.032813 87.450937 
L 66.032813 87.450937 
L 76.032813 87.450937 
" style="fill: none; stroke: #d62728; stroke-width: 1.5; stroke-linecap: square"/>
    </g>
    <g id="text_16">
     <!-- Validation (MSE loss) -->
     <g transform="translate(84.032813 90.950937) scale(0.1 -0.1)">
      <use xlink:href="#DejaVuSans-56"/>
      <use xlink:href="#DejaVuSans-61" transform="translate(60.658203 0)"/>
      <use xlink:href="#DejaVuSans-6c" transform="translate(121.9375 0)"/>
      <use xlink:href="#DejaVuSans-69" transform="translate(149.720703 0)"/>
      <use xlink:href="#DejaVuSans-64" transform="translate(177.503906 0)"/>
      <use xlink:href="#DejaVuSans-61" transform="translate(240.980469 0)"/>
      <use xlink:href="#DejaVuSans-74" transform="translate(302.259766 0)"/>
      <use xlink:href="#DejaVuSans-69" transform="translate(341.46875 0)"/>
      <use xlink:href="#DejaVuSans-6f" transform="translate(369.251953 0)"/>
      <use xlink:href="#DejaVuSans-6e" transform="translate(430.433594 0)"/>
      <use xlink:href="#DejaVuSans-20" transform="translate(493.8125 0)"/>
      <use xlink:href="#DejaVuSans-28" transform="translate(525.599609 0)"/>
      <use xlink:href="#DejaVuSans-4d" transform="translate(564.613281 0)"/>
      <use xlink:href="#DejaVuSans-53" transform="translate(650.892578 0)"/>
      <use xlink:href="#DejaVuSans-45" transform="translate(714.369141 0)"/>
      <use xlink:href="#DejaVuSans-20" transform="translate(777.552734 0)"/>
      <use xlink:href="#DejaVuSans-6c" transform="translate(809.339844 0)"/>
      <use xlink:href="#DejaVuSans-6f" transform="translate(837.123047 0)"/>
      <use xlink:href="#DejaVuSans-73" transform="translate(898.304688 0)"/>
      <use xlink:href="#DejaVuSans-73" transform="translate(950.404297 0)"/>
      <use xlink:href="#DejaVuSans-29" transform="translate(1002.503906 0)"/>
     </g>
    </g>
   </g>
  </g>
 </g>
 <defs>
  <clipPath id="pb7d0d7f12a">
   <rect x="47.032813" y="30.318125" width="357.12" height="266.112"/>
  </clipPath>
 </defs>
</svg>
