<?xml version="1.0" encoding="utf-8" standalone="no"?>
<!DOCTYPE svg PUBLIC "-//W3C//DTD SVG 1.1//EN"
  "http://www.w3.org/Graphics/SVG/1.1/DTD/svg11.dtd">
<svg xmlns:xlink="http://www.w3.org/1999/xlink" width="415.698125pt" height="333.986375pt" viewBox="0 0 415.698125 333.986375" xmlns="http://www.w3.org/2000/svg" version="1.1">
 <metadata>
  <rdf:RDF xmlns:dc="http://purl.org/dc/elements/1.1/" xmlns:cc="http://creativecommons.org/ns#" xmlns:rdf="http://www.w3.org/1999/02/22-rdf-syntax-ns#">
   <cc:Work>
    <dc:type rdf:resource="http://purl.org/dc/dcmitype/StillImage"/>
    <dc:date>2025-11-26T12:46:21.999812</dc:date>
    <dc:format>image/svg+xml</dc:format>
    <dc:creator>
     <cc:Agent>
      <dc:title>Matplotlib v3.10.7, https://matplotlib.org/</dc:title>
     </cc:Agent>
    </dc:creator>
   </cc:Work>
  </rdf:RDF>
 </metadata>
 <defs>
  <style type="text/css">*{stroke-linejoin: round; stroke-linecap: butt}</style>
 </defs>
 <g id="figure_1">
  <g id="patch_1">
   <path d="M 0 333.986375 
L 415.698125 333.986375 
L 415.698125 0 
L 0 0 
z
" style="fill: #ffffff"/>
  </g>
  <g id="axes_1">
   <g id="patch_2">
    <path d="M 51.378125 296.430125 
L 408.498125 296.430125 
L 408.498125 30.318125 
L 51.378125 30.318125 
z
" style="fill: #ffffff"/>
   </g>
   <g id="matplotlib.axis_1">
    <g id="xtick_1">
     <g id="line2d_1">
      <defs>
       <path id="mf3fcc11af9" d="M 0 0 
L 0 3.5 
" style="stroke: #000000; stroke-width: 0.8"/>
      </defs>
      <g>
       <use xlink:href="#mf3fcc11af9" x="67.610852" y="296.430125" style="stroke: #000000; stroke-width: 0.8"/>
      </g>
     </g>
     <g id="text_1">
      <!-- $\mathdefault{10^{0}}$ -->
      <g transform="translate(58.810852 311.028562) scale(0.1 -0.1)">
       <defs>
        <path id="DejaVuSans-31" d="M 794 531 
L 1825 531 
L 1825 4091 
L 703 3866 
L 703 4441 
L 1819 4666 
L 2450 4666 
L 2450 531 
L 3481 531 
L 3481 0 
L 794 0 
L 794 531 
z
" transform="scale(0.015625)"/>
        <path id="DejaVuSans-30" d="M 2034 4250 
Q 1547 4250 1301 3770 
Q 1056 3291 1056 2328 
Q 1056 1369 1301 889 
Q 1547 409 2034 409 
Q 2525 409 2770 889 
Q 3016 1369 3016 2328 
Q 3016 3291 2770 3770 
Q 2525 4250 2034 4250 
z
M 2034 4750 
Q 2819 4750 3233 4129 
Q 3647 3509 3647 2328 
Q 3647 1150 3233 529 
Q 2819 -91 2034 -91 
Q 1250 -91 836 529 
Q 422 1150 422 2328 
Q 422 3509 836 4129 
Q 1250 4750 2034 4750 
z
" transform="scale(0.015625)"/>
       </defs>
       <use xlink:href="#DejaVuSans-31" transform="translate(0 0.765625)"/>
       <use xlink:href="#DejaVuSans-30" transform="translate(63.623047 0.765625)"/>
       <use xlink:href="#DejaVuSans-30" transform="translate(128.203125 39.046875) scale(0.7)"/>
      </g>
     </g>
    </g>
    <g id="xtick_2">
     <g id="line2d_2">
      <g>
       <use xlink:href="#mf3fcc11af9" x="175.829034" y="296.430125" style="stroke: #000000; stroke-width: 0.8"/>
      </g>
     </g>
     <g id="text_2">
      <!-- $\mathdefault{10^{1}}$ -->
      <g transform="translate(167.029034 311.028562) scale(0.1 -0.1)">
       <use xlink:href="#DejaVuSans-31" transform="translate(0 0.684375)"/>
       <use xlink:href="#DejaVuSans-30" transform="translate(63.623047 0.684375)"/>
       <use xlink:href="#DejaVuSans-31" transform="translate(128.203125 38.965625) scale(0.7)"/>
      </g>
     </g>
    </g>
    <g id="xtick_3">
     <g id="line2d_3">
      <g>
       <use xlink:href="#mf3fcc11af9" x="284.047216" y="296.430125" style="stroke: #000000; stroke-width: 0.8"/>
      </g>
     </g>
     <g id="text_3">
      <!-- $\mathdefault{10^{2}}$ -->
      <g transform="translate(275.247216 311.028562) scale(0.1 -0.1)">
       <defs>
        <path id="DejaVuSans-32" d="M 1228 531 
L 3431 531 
L 3431 0 
L 469 0 
L 469 531 
Q 828 903 1448 1529 
Q 2069 2156 2228 2338 
Q 2531 2678 2651 2914 
Q 2772 3150 2772 3378 
Q 2772 3750 2511 3984 
Q 2250 4219 1831 4219 
Q 1534 4219 1204 4116 
Q 875 4013 500 3803 
L 500 4441 
Q 881 4594 1212 4672 
Q 1544 4750 1819 4750 
Q 2544 4750 2975 4387 
Q 3406 4025 3406 3419 
Q 3406 3131 3298 2873 
Q 3191 2616 2906 2266 
Q 2828 2175 2409 1742 
Q 1991 1309 1228 531 
z
" transform="scale(0.015625)"/>
       </defs>
       <use xlink:href="#DejaVuSans-31" transform="translate(0 0.765625)"/>
       <use xlink:href="#DejaVuSans-30" transform="translate(63.623047 0.765625)"/>
       <use xlink:href="#DejaVuSans-32" transform="translate(128.203125 39.046875) scale(0.7)"/>
      </g>
     </g>
    </g>
    <g id="xtick_4">
     <g id="line2d_4">
      <g>
       <use xlink:href="#mf3fcc11af9" x="392.265398" y="296.430125" style="stroke: #000000; stroke-width: 0.8"/>
      </g>
     </g>
     <g id="text_4">
      <!-- $\mathdefault{10^{3}}$ -->
      <g transform="translate(383.465398 311.028562) scale(0.1 -0.1)">
       <defs>
        <path id="DejaVuSans-33" d="M 2597 2516 
Q 3050 2419 3304 2112 
Q 3559 1806 3559 1356 
Q 3559 666 3084 287 
Q 2609 -91 1734 -91 
Q 1441 -91 1130 -33 
Q 819 25 488 141 
L 488 750 
Q 750 597 1062 519 
Q 1375 441 1716 441 
Q 2309 441 2620 675 
Q 2931 909 2931 1356 
Q 2931 1769 2642 2001 
Q 2353 2234 1838 2234 
L 1294 2234 
L 1294 2753 
L 1863 2753 
Q 2328 2753 2575 2939 
Q 2822 3125 2822 3475 
Q 2822 3834 2567 4026 
Q 2313 4219 1838 4219 
Q 1578 4219 1281 4162 
Q 984 4106 628 3988 
L 628 4550 
Q 988 4650 1302 4700 
Q 1616 4750 1894 4750 
Q 2613 4750 3031 4423 
Q 3450 4097 3450 3541 
Q 3450 3153 3228 2886 
Q 3006 2619 2597 2516 
z
" transform="scale(0.015625)"/>
       </defs>
       <use xlink:href="#DejaVuSans-31" transform="translate(0 0.765625)"/>
       <use xlink:href="#DejaVuSans-30" transform="translate(63.623047 0.765625)"/>
       <use xlink:href="#DejaVuSans-33" transform="translate(128.203125 39.046875) scale(0.7)"/>
      </g>
     </g>
    </g>
    <g id="xtick_5">
     <g id="line2d_5">
      <defs>
       <path id="m3c0105e1fb" d="M 0 0 
L 0 2 
" style="stroke: #000000; stroke-width: 0.6"/>
      </defs>
      <g>
       <use xlink:href="#m3c0105e1fb" x="57.123427" y="296.430125" style="stroke: #000000; stroke-width: 0.6"/>
      </g>
     </g>
    </g>
    <g id="xtick_6">
     <g id="line2d_6">
      <g>
       <use xlink:href="#m3c0105e1fb" x="62.65906" y="296.430125" style="stroke: #000000; stroke-width: 0.6"/>
      </g>
     </g>
    </g>
    <g id="xtick_7">
     <g id="line2d_7">
      <g>
       <use xlink:href="#m3c0105e1fb" x="100.187771" y="296.430125" style="stroke: #000000; stroke-width: 0.6"/>
      </g>
     </g>
    </g>
    <g id="xtick_8">
     <g id="line2d_8">
      <g>
       <use xlink:href="#m3c0105e1fb" x="119.244047" y="296.430125" style="stroke: #000000; stroke-width: 0.6"/>
      </g>
     </g>
    </g>
    <g id="xtick_9">
     <g id="line2d_9">
      <g>
       <use xlink:href="#m3c0105e1fb" x="132.76469" y="296.430125" style="stroke: #000000; stroke-width: 0.6"/>
      </g>
     </g>
    </g>
    <g id="xtick_10">
     <g id="line2d_10">
      <g>
       <use xlink:href="#m3c0105e1fb" x="143.252115" y="296.430125" style="stroke: #000000; stroke-width: 0.6"/>
      </g>
     </g>
    </g>
    <g id="xtick_11">
     <g id="line2d_11">
      <g>
       <use xlink:href="#m3c0105e1fb" x="151.820966" y="296.430125" style="stroke: #000000; stroke-width: 0.6"/>
      </g>
     </g>
    </g>
    <g id="xtick_12">
     <g id="line2d_12">
      <g>
       <use xlink:href="#m3c0105e1fb" x="159.065826" y="296.430125" style="stroke: #000000; stroke-width: 0.6"/>
      </g>
     </g>
    </g>
    <g id="xtick_13">
     <g id="line2d_13">
      <g>
       <use xlink:href="#m3c0105e1fb" x="165.341609" y="296.430125" style="stroke: #000000; stroke-width: 0.6"/>
      </g>
     </g>
    </g>
    <g id="xtick_14">
     <g id="line2d_14">
      <g>
       <use xlink:href="#m3c0105e1fb" x="170.877242" y="296.430125" style="stroke: #000000; stroke-width: 0.6"/>
      </g>
     </g>
    </g>
    <g id="xtick_15">
     <g id="line2d_15">
      <g>
       <use xlink:href="#m3c0105e1fb" x="208.405953" y="296.430125" style="stroke: #000000; stroke-width: 0.6"/>
      </g>
     </g>
    </g>
    <g id="xtick_16">
     <g id="line2d_16">
      <g>
       <use xlink:href="#m3c0105e1fb" x="227.462229" y="296.430125" style="stroke: #000000; stroke-width: 0.6"/>
      </g>
     </g>
    </g>
    <g id="xtick_17">
     <g id="line2d_17">
      <g>
       <use xlink:href="#m3c0105e1fb" x="240.982872" y="296.430125" style="stroke: #000000; stroke-width: 0.6"/>
      </g>
     </g>
    </g>
    <g id="xtick_18">
     <g id="line2d_18">
      <g>
       <use xlink:href="#m3c0105e1fb" x="251.470297" y="296.430125" style="stroke: #000000; stroke-width: 0.6"/>
      </g>
     </g>
    </g>
    <g id="xtick_19">
     <g id="line2d_19">
      <g>
       <use xlink:href="#m3c0105e1fb" x="260.039148" y="296.430125" style="stroke: #000000; stroke-width: 0.6"/>
      </g>
     </g>
    </g>
    <g id="xtick_20">
     <g id="line2d_20">
      <g>
       <use xlink:href="#m3c0105e1fb" x="267.284007" y="296.430125" style="stroke: #000000; stroke-width: 0.6"/>
      </g>
     </g>
    </g>
    <g id="xtick_21">
     <g id="line2d_21">
      <g>
       <use xlink:href="#m3c0105e1fb" x="273.559791" y="296.430125" style="stroke: #000000; stroke-width: 0.6"/>
      </g>
     </g>
    </g>
    <g id="xtick_22">
     <g id="line2d_22">
      <g>
       <use xlink:href="#m3c0105e1fb" x="279.095423" y="296.430125" style="stroke: #000000; stroke-width: 0.6"/>
      </g>
     </g>
    </g>
    <g id="xtick_23">
     <g id="line2d_23">
      <g>
       <use xlink:href="#m3c0105e1fb" x="316.624135" y="296.430125" style="stroke: #000000; stroke-width: 0.6"/>
      </g>
     </g>
    </g>
    <g id="xtick_24">
     <g id="line2d_24">
      <g>
       <use xlink:href="#m3c0105e1fb" x="335.680411" y="296.430125" style="stroke: #000000; stroke-width: 0.6"/>
      </g>
     </g>
    </g>
    <g id="xtick_25">
     <g id="line2d_25">
      <g>
       <use xlink:href="#m3c0105e1fb" x="349.201054" y="296.430125" style="stroke: #000000; stroke-width: 0.6"/>
      </g>
     </g>
    </g>
    <g id="xtick_26">
     <g id="line2d_26">
      <g>
       <use xlink:href="#m3c0105e1fb" x="359.688479" y="296.430125" style="stroke: #000000; stroke-width: 0.6"/>
      </g>
     </g>
    </g>
    <g id="xtick_27">
     <g id="line2d_27">
      <g>
       <use xlink:href="#m3c0105e1fb" x="368.257329" y="296.430125" style="stroke: #000000; stroke-width: 0.6"/>
      </g>
     </g>
    </g>
    <g id="xtick_28">
     <g id="line2d_28">
      <g>
       <use xlink:href="#m3c0105e1fb" x="375.502189" y="296.430125" style="stroke: #000000; stroke-width: 0.6"/>
      </g>
     </g>
    </g>
    <g id="xtick_29">
     <g id="line2d_29">
      <g>
       <use xlink:href="#m3c0105e1fb" x="381.777972" y="296.430125" style="stroke: #000000; stroke-width: 0.6"/>
      </g>
     </g>
    </g>
    <g id="xtick_30">
     <g id="line2d_30">
      <g>
       <use xlink:href="#m3c0105e1fb" x="387.313605" y="296.430125" style="stroke: #000000; stroke-width: 0.6"/>
      </g>
     </g>
    </g>
    <g id="text_5">
     <!-- Epoch -->
     <g transform="translate(212.985 324.706687) scale(0.1 -0.1)">
      <defs>
       <path id="DejaVuSans-Bold-45" d="M 588 4666 
L 3834 4666 
L 3834 3756 
L 1791 3756 
L 1791 2888 
L 3713 2888 
L 3713 1978 
L 1791 1978 
L 1791 909 
L 3903 909 
L 3903 0 
L 588 0 
L 588 4666 
z
" transform="scale(0.015625)"/>
       <path id="DejaVuSans-Bold-70" d="M 1656 506 
L 1656 -1331 
L 538 -1331 
L 538 3500 
L 1656 3500 
L 1656 2988 
Q 1888 3294 2169 3439 
Q 2450 3584 2816 3584 
Q 3463 3584 3878 3070 
Q 4294 2556 4294 1747 
Q 4294 938 3878 423 
Q 3463 -91 2816 -91 
Q 2450 -91 2169 54 
Q 1888 200 1656 506 
z
M 2400 2772 
Q 2041 2772 1848 2508 
Q 1656 2244 1656 1747 
Q 1656 1250 1848 986 
Q 2041 722 2400 722 
Q 2759 722 2948 984 
Q 3138 1247 3138 1747 
Q 3138 2247 2948 2509 
Q 2759 2772 2400 2772 
z
" transform="scale(0.015625)"/>
       <path id="DejaVuSans-Bold-6f" d="M 2203 2784 
Q 1831 2784 1636 2517 
Q 1441 2250 1441 1747 
Q 1441 1244 1636 976 
Q 1831 709 2203 709 
Q 2569 709 2762 976 
Q 2956 1244 2956 1747 
Q 2956 2250 2762 2517 
Q 2569 2784 2203 2784 
z
M 2203 3584 
Q 3106 3584 3614 3096 
Q 4122 2609 4122 1747 
Q 4122 884 3614 396 
Q 3106 -91 2203 -91 
Q 1297 -91 786 396 
Q 275 884 275 1747 
Q 275 2609 786 3096 
Q 1297 3584 2203 3584 
z
" transform="scale(0.015625)"/>
       <path id="DejaVuSans-Bold-63" d="M 3366 3391 
L 3366 2478 
Q 3138 2634 2908 2709 
Q 2678 2784 2431 2784 
Q 1963 2784 1702 2511 
Q 1441 2238 1441 1747 
Q 1441 1256 1702 982 
Q 1963 709 2431 709 
Q 2694 709 2930 787 
Q 3166 866 3366 1019 
L 3366 103 
Q 3103 6 2833 -42 
Q 2563 -91 2291 -91 
Q 1344 -91 809 395 
Q 275 881 275 1747 
Q 275 2613 809 3098 
Q 1344 3584 2291 3584 
Q 2566 3584 2833 3536 
Q 3100 3488 3366 3391 
z
" transform="scale(0.015625)"/>
       <path id="DejaVuSans-Bold-68" d="M 4056 2131 
L 4056 0 
L 2931 0 
L 2931 347 
L 2931 1625 
Q 2931 2084 2911 2256 
Q 2891 2428 2841 2509 
Q 2775 2619 2662 2680 
Q 2550 2741 2406 2741 
Q 2056 2741 1856 2470 
Q 1656 2200 1656 1722 
L 1656 0 
L 538 0 
L 538 4863 
L 1656 4863 
L 1656 2988 
Q 1909 3294 2193 3439 
Q 2478 3584 2822 3584 
Q 3428 3584 3742 3212 
Q 4056 2841 4056 2131 
z
" transform="scale(0.015625)"/>
      </defs>
      <use xlink:href="#DejaVuSans-Bold-45"/>
      <use xlink:href="#DejaVuSans-Bold-70" transform="translate(68.310547 0)"/>
      <use xlink:href="#DejaVuSans-Bold-6f" transform="translate(139.892578 0)"/>
      <use xlink:href="#DejaVuSans-Bold-63" transform="translate(208.59375 0)"/>
      <use xlink:href="#DejaVuSans-Bold-68" transform="translate(267.871094 0)"/>
     </g>
    </g>
   </g>
   <g id="matplotlib.axis_2">
    <g id="ytick_1">
     <g id="line2d_31">
      <defs>
       <path id="m956a2aa41b" d="M 0 0 
L -3.5 0 
" style="stroke: #000000; stroke-width: 0.8"/>
      </defs>
      <g>
       <use xlink:href="#m956a2aa41b" x="51.378125" y="260.790756" style="stroke: #000000; stroke-width: 0.8"/>
      </g>
     </g>
     <g id="text_6">
      <!-- $\mathdefault{10^{-7}}$ -->
      <g transform="translate(20.878125 264.589974) scale(0.1 -0.1)">
       <defs>
        <path id="DejaVuSans-2212" d="M 678 2272 
L 4684 2272 
L 4684 1741 
L 678 1741 
L 678 2272 
z
" transform="scale(0.015625)"/>
        <path id="DejaVuSans-37" d="M 525 4666 
L 3525 4666 
L 3525 4397 
L 1831 0 
L 1172 0 
L 2766 4134 
L 525 4134 
L 525 4666 
z
" transform="scale(0.015625)"/>
       </defs>
       <use xlink:href="#DejaVuSans-31" transform="translate(0 0.684375)"/>
       <use xlink:href="#DejaVuSans-30" transform="translate(63.623047 0.684375)"/>
       <use xlink:href="#DejaVuSans-2212" transform="translate(128.203125 38.965625) scale(0.7)"/>
       <use xlink:href="#DejaVuSans-37" transform="translate(186.855469 38.965625) scale(0.7)"/>
      </g>
     </g>
    </g>
    <g id="ytick_2">
     <g id="line2d_32">
      <g>
       <use xlink:href="#m956a2aa41b" x="51.378125" y="219.774476" style="stroke: #000000; stroke-width: 0.8"/>
      </g>
     </g>
     <g id="text_7">
      <!-- $\mathdefault{10^{-5}}$ -->
      <g transform="translate(20.878125 223.573695) scale(0.1 -0.1)">
       <defs>
        <path id="DejaVuSans-35" d="M 691 4666 
L 3169 4666 
L 3169 4134 
L 1269 4134 
L 1269 2991 
Q 1406 3038 1543 3061 
Q 1681 3084 1819 3084 
Q 2600 3084 3056 2656 
Q 3513 2228 3513 1497 
Q 3513 744 3044 326 
Q 2575 -91 1722 -91 
Q 1428 -91 1123 -41 
Q 819 9 494 109 
L 494 744 
Q 775 591 1075 516 
Q 1375 441 1709 441 
Q 2250 441 2565 725 
Q 2881 1009 2881 1497 
Q 2881 1984 2565 2268 
Q 2250 2553 1709 2553 
Q 1456 2553 1204 2497 
Q 953 2441 691 2322 
L 691 4666 
z
" transform="scale(0.015625)"/>
       </defs>
       <use xlink:href="#DejaVuSans-31" transform="translate(0 0.684375)"/>
       <use xlink:href="#DejaVuSans-30" transform="translate(63.623047 0.684375)"/>
       <use xlink:href="#DejaVuSans-2212" transform="translate(128.203125 38.965625) scale(0.7)"/>
       <use xlink:href="#DejaVuSans-35" transform="translate(186.855469 38.965625) scale(0.7)"/>
      </g>
     </g>
    </g>
    <g id="ytick_3">
     <g id="line2d_33">
      <g>
       <use xlink:href="#m956a2aa41b" x="51.378125" y="178.758197" style="stroke: #000000; stroke-width: 0.8"/>
      </g>
     </g>
     <g id="text_8">
      <!-- $\mathdefault{10^{-3}}$ -->
      <g transform="translate(20.878125 182.557415) scale(0.1 -0.1)">
       <use xlink:href="#DejaVuSans-31" transform="translate(0 0.765625)"/>
       <use xlink:href="#DejaVuSans-30" transform="translate(63.623047 0.765625)"/>
       <use xlink:href="#DejaVuSans-2212" transform="translate(128.203125 39.046875) scale(0.7)"/>
       <use xlink:href="#DejaVuSans-33" transform="translate(186.855469 39.046875) scale(0.7)"/>
      </g>
     </g>
    </g>
    <g id="ytick_4">
     <g id="line2d_34">
      <g>
       <use xlink:href="#m956a2aa41b" x="51.378125" y="137.741917" style="stroke: #000000; stroke-width: 0.8"/>
      </g>
     </g>
     <g id="text_9">
      <!-- $\mathdefault{10^{-1}}$ -->
      <g transform="translate(20.878125 141.541136) scale(0.1 -0.1)">
       <use xlink:href="#DejaVuSans-31" transform="translate(0 0.684375)"/>
       <use xlink:href="#DejaVuSans-30" transform="translate(63.623047 0.684375)"/>
       <use xlink:href="#DejaVuSans-2212" transform="translate(128.203125 38.965625) scale(0.7)"/>
       <use xlink:href="#DejaVuSans-31" transform="translate(186.855469 38.965625) scale(0.7)"/>
      </g>
     </g>
    </g>
    <g id="ytick_5">
     <g id="line2d_35">
      <g>
       <use xlink:href="#m956a2aa41b" x="51.378125" y="96.725638" style="stroke: #000000; stroke-width: 0.8"/>
      </g>
     </g>
     <g id="text_10">
      <!-- $\mathdefault{10^{1}}$ -->
      <g transform="translate(26.778125 100.524856) scale(0.1 -0.1)">
       <use xlink:href="#DejaVuSans-31" transform="translate(0 0.684375)"/>
       <use xlink:href="#DejaVuSans-30" transform="translate(63.623047 0.684375)"/>
       <use xlink:href="#DejaVuSans-31" transform="translate(128.203125 38.965625) scale(0.7)"/>
      </g>
     </g>
    </g>
    <g id="ytick_6">
     <g id="line2d_36">
      <g>
       <use xlink:href="#m956a2aa41b" x="51.378125" y="55.709358" style="stroke: #000000; stroke-width: 0.8"/>
      </g>
     </g>
     <g id="text_11">
      <!-- $\mathdefault{10^{3}}$ -->
      <g transform="translate(26.778125 59.508577) scale(0.1 -0.1)">
       <use xlink:href="#DejaVuSans-31" transform="translate(0 0.765625)"/>
       <use xlink:href="#DejaVuSans-30" transform="translate(63.623047 0.765625)"/>
       <use xlink:href="#DejaVuSans-33" transform="translate(128.203125 39.046875) scale(0.7)"/>
      </g>
     </g>
    </g>
    <g id="text_12">
     <!-- Loss -->
     <g transform="translate(14.798438 175.946781) rotate(-90) scale(0.1 -0.1)">
      <defs>
       <path id="DejaVuSans-Bold-4c" d="M 588 4666 
L 1791 4666 
L 1791 909 
L 3903 909 
L 3903 0 
L 588 0 
L 588 4666 
z
" transform="scale(0.015625)"/>
       <path id="DejaVuSans-Bold-73" d="M 3272 3391 
L 3272 2541 
Q 2913 2691 2578 2766 
Q 2244 2841 1947 2841 
Q 1628 2841 1473 2761 
Q 1319 2681 1319 2516 
Q 1319 2381 1436 2309 
Q 1553 2238 1856 2203 
L 2053 2175 
Q 2913 2066 3209 1816 
Q 3506 1566 3506 1031 
Q 3506 472 3093 190 
Q 2681 -91 1863 -91 
Q 1516 -91 1145 -36 
Q 775 19 384 128 
L 384 978 
Q 719 816 1070 734 
Q 1422 653 1784 653 
Q 2113 653 2278 743 
Q 2444 834 2444 1013 
Q 2444 1163 2330 1236 
Q 2216 1309 1875 1350 
L 1678 1375 
Q 931 1469 631 1722 
Q 331 1975 331 2491 
Q 331 3047 712 3315 
Q 1094 3584 1881 3584 
Q 2191 3584 2531 3537 
Q 2872 3491 3272 3391 
z
" transform="scale(0.015625)"/>
      </defs>
      <use xlink:href="#DejaVuSans-Bold-4c"/>
      <use xlink:href="#DejaVuSans-Bold-6f" transform="translate(63.720703 0)"/>
      <use xlink:href="#DejaVuSans-Bold-73" transform="translate(132.421875 0)"/>
      <use xlink:href="#DejaVuSans-Bold-73" transform="translate(191.943359 0)"/>
     </g>
    </g>
   </g>
   <g id="line2d_37">
    <path d="M 67.610852 111.059184 
L 100.187771 115.927302 
L 119.244047 119.169118 
L 132.76469 122.447485 
L 143.252115 124.660256 
L 151.820966 126.696868 
L 159.065826 128.231968 
L 165.341609 128.930029 
L 170.877242 129.226768 
L 175.829034 131.888273 
L 180.308475 133.365751 
L 184.397885 130.386397 
L 188.159777 136.839624 
L 191.642744 136.468499 
L 194.88531 137.922888 
L 197.918527 138.752932 
L 200.767797 137.986683 
L 203.45416 141.30185 
L 205.995242 144.714209 
L 208.405953 144.119908 
L 210.69902 140.227295 
L 212.885394 142.412105 
L 214.974563 141.306199 
L 216.974803 143.63401 
L 218.893378 144.197863 
L 220.736695 143.390084 
L 222.510436 140.216181 
L 224.219663 136.521414 
L 225.868905 139.067908 
L 227.462229 145.670452 
L 229.003303 149.240073 
L 230.495446 151.976923 
L 231.94167 153.795443 
L 233.344716 149.74861 
L 234.707089 147.538729 
L 236.031079 151.716989 
L 237.318792 155.140843 
L 238.572161 136.226145 
L 239.792971 138.695018 
L 240.982872 142.54394 
L 242.143389 142.125751 
L 243.275939 145.470072 
L 245.462313 165.940127 
L 246.518505 171.014636 
L 247.551482 182.889123 
L 248.562242 189.726385 
L 249.551722 191.178448 
L 250.520799 192.066132 
L 252.400992 193.266107 
L 254.208852 194.105032 
L 256.796582 195.040174 
L 260.039148 195.956917 
L 265.921635 197.33856 
L 277.502099 200.039665 
L 284.514867 201.91664 
L 289.791269 203.536434 
L 294.157141 205.073964 
L 298.842867 206.961447 
L 303.103492 208.910671 
L 307.297227 211.065648 
L 311.410511 213.447524 
L 315.434234 216.057133 
L 319.140474 218.723902 
L 322.987958 221.784929 
L 327.299179 225.586862 
L 332.437845 230.666236 
L 334.087087 232.461899 
L 335.836812 234.374467 
L 336.917286 235.687532 
L 339.730638 239.141014 
L 340.86661 240.640637 
L 342.249021 242.49971 
L 343.193069 243.881651 
L 343.98743 244.80377 
L 344.249261 244.631769 
L 344.379632 243.957958 
L 344.509642 109.761146 
L 344.639293 110.099 
L 344.897527 112.834953 
L 345.536973 122.694302 
L 345.790336 124.945255 
L 346.042339 129.081517 
L 346.167836 129.207683 
L 346.292999 130.531622 
L 346.790343 139.57271 
L 346.913861 139.613655 
L 347.037055 139.496377 
L 347.159927 139.839685 
L 347.282479 135.572502 
L 347.648228 151.077866 
L 347.769515 152.326928 
L 348.011153 157.182181 
L 348.131508 156.995428 
L 348.371297 162.358009 
L 348.490734 161.408381 
L 348.609869 157.849232 
L 348.847236 161.936899 
L 348.965471 168.400879 
L 349.08341 168.605547 
L 349.201054 166.680388 
L 349.668705 137.271898 
L 349.784894 141.600418 
L 349.900797 145.278836 
L 350.361571 185.131563 
L 350.704211 187.950951 
L 351.157212 189.790008 
L 351.717392 191.208551 
L 352.60002 192.758223 
L 357.965324 201.167942 
L 360.434503 205.70932 
L 362.868338 210.595477 
L 365.598604 216.534472 
L 371.217054 230.38808 
L 378.807378 252.009541 
L 380.346433 256.864602 
L 380.588072 257.685956 
L 380.768489 258.905156 
L 381.127258 260.0646 
L 381.719187 262.151335 
L 381.777972 261.880554 
L 382.01238 262.924335 
L 382.129146 263.110393 
L 382.303754 265.083747 
L 382.361813 265.184883 
L 382.4198 265.58357 
L 382.477716 265.383729 
L 382.93849 267.285777 
L 382.99577 268.193232 
L 383.052981 267.281486 
L 383.110122 267.921755 
L 383.337994 269.332437 
L 383.508176 268.385398 
L 383.677744 270.28345 
L 383.734131 270.983344 
L 383.79045 270.90567 
L 383.846703 270.514802 
L 384.015056 272.343305 
L 384.07104 271.849801 
L 384.238593 272.714466 
L 384.294311 272.833699 
L 384.461072 274.188001 
L 384.682502 276.787606 
L 384.737697 276.219809 
L 384.847893 274.925785 
L 384.957831 276.762692 
L 385.122258 276.138256 
L 385.231557 279.475491 
L 385.286111 279.441817 
L 385.39503 278.501736 
L 385.557937 280.99871 
L 385.666229 278.189714 
L 385.720281 279.063457 
L 385.989615 284.075946 
L 386.096917 281.304108 
L 386.203976 281.750061 
L 386.257413 284.334125 
L 386.310791 281.366465 
L 386.417363 109.785362 
L 386.470559 110.281147 
L 387.209048 130.08503 
L 387.365797 132.827153 
L 387.470007 137.109092 
L 387.522025 131.383097 
L 387.573986 133.823209 
L 387.781257 142.601162 
L 387.88455 142.067876 
L 388.141795 150.935179 
L 388.193076 137.955295 
L 388.2443 144.048577 
L 388.448642 156.579398 
L 388.499589 156.978241 
L 388.652099 165.453867 
L 388.85468 186.698445 
L 389.156922 188.859764 
L 389.556912 190.048273 
L 390.736855 192.979115 
L 391.50734 195.792822 
L 392.265398 199.558279 
L 392.265398 199.558279 
" clip-path="url(#p3a1a4b6a4f)" style="fill: none; stroke-dasharray: 5.55,2.4; stroke-dashoffset: 0; stroke: #2ca02c; stroke-width: 1.5"/>
   </g>
   <g id="line2d_38">
    <path d="M 67.610852 109.303674 
L 100.187771 114.606792 
L 119.244047 115.928576 
L 132.76469 119.617886 
L 143.252115 117.936324 
L 151.820966 117.136427 
L 159.065826 118.1375 
L 165.341609 117.708887 
L 170.877242 116.974443 
L 175.829034 114.575134 
L 184.397885 118.360911 
L 188.159777 116.66662 
L 191.642744 118.402237 
L 194.88531 118.562669 
L 197.918527 116.922625 
L 200.767797 118.292732 
L 205.995242 118.920728 
L 208.405953 117.337158 
L 210.69902 116.115796 
L 212.885394 118.067518 
L 214.974563 117.054724 
L 216.974803 117.687018 
L 218.893378 117.330059 
L 220.736695 118.616805 
L 222.510436 117.881245 
L 224.219663 118.377288 
L 225.868905 116.360665 
L 227.462229 118.21436 
L 229.003303 118.466225 
L 230.495446 118.228438 
L 231.94167 118.539835 
L 233.344716 116.979016 
L 236.031079 118.734805 
L 237.318792 118.200191 
L 239.792971 118.455353 
L 240.982872 118.345479 
L 242.143389 117.925343 
L 243.275939 118.226216 
L 244.381839 119.787119 
L 245.462313 120.282973 
L 246.518505 120.160899 
L 247.551482 120.471716 
L 289.373501 120.935486 
L 301.184917 120.733114 
L 312.705319 120.266059 
L 322.368187 119.627678 
L 333.761836 118.547432 
L 342.112595 117.435582 
L 343.193069 117.298452 
L 344.118528 117.169166 
L 344.249261 117.302362 
L 344.379632 114.737832 
L 344.509642 108.943805 
L 344.639293 110.542267 
L 344.768587 109.511811 
L 344.897527 111.747771 
L 345.026114 111.174621 
L 345.154351 116.473271 
L 345.282238 117.003147 
L 345.536973 118.767163 
L 345.663825 118.246845 
L 345.916506 119.836331 
L 346.167836 118.516981 
L 346.292999 120.069323 
L 346.417829 120.20066 
L 346.542329 119.134186 
L 346.666499 119.352442 
L 346.790343 116.865517 
L 346.913861 116.677823 
L 347.037055 115.077587 
L 347.159927 117.429143 
L 347.282479 117.264259 
L 347.404712 117.757767 
L 347.526627 117.469621 
L 347.648228 118.717437 
L 347.769515 116.562707 
L 348.011153 118.011975 
L 348.131508 118.274577 
L 348.490734 117.355312 
L 349.08341 117.793523 
L 349.318403 117.151869 
L 349.435461 117.703646 
L 349.552227 114.868704 
L 349.668705 117.316396 
L 349.784894 115.741996 
L 349.900797 118.212381 
L 350.016415 118.240133 
L 350.131748 119.135107 
L 351.494121 119.17536 
L 354.211557 119.208372 
L 357.475241 119.027357 
L 362.249345 118.493642 
L 367.705789 117.649254 
L 368.178933 117.552204 
L 369.570439 117.251124 
L 370.175904 117.112157 
L 375.502189 115.739691 
L 375.8367 115.678748 
L 376.432884 115.536131 
L 376.95655 115.392046 
L 377.0216 115.447129 
L 377.08656 115.330177 
L 377.151431 115.383281 
L 378.493425 115.011409 
L 378.682048 115.105521 
L 378.869917 115.082586 
L 378.932374 115.202563 
L 378.994748 115.103661 
L 379.057039 115.194957 
L 379.119247 115.141472 
L 379.181374 115.158896 
L 379.367261 114.94288 
L 379.490779 114.996939 
L 379.98163 114.880374 
L 380.346433 114.745592 
L 380.40696 114.949368 
L 380.467408 114.737649 
L 380.527779 114.778158 
L 381.895322 114.762965 
L 381.953887 114.871052 
L 382.187421 114.548818 
L 382.303754 114.664987 
L 382.361813 114.606687 
L 382.477716 114.819865 
L 382.53556 114.756912 
L 382.593333 114.774281 
L 382.708667 114.569839 
L 382.881139 114.785334 
L 383.052981 114.66936 
L 383.110122 114.742308 
L 383.167193 114.566167 
L 383.224196 114.650461 
L 383.337994 114.692184 
L 383.39479 114.520214 
L 383.451517 114.67652 
L 383.621289 114.524097 
L 383.734131 114.415828 
L 383.846703 114.744619 
L 383.902887 114.629719 
L 383.959005 114.533579 
L 384.015056 114.645508 
L 384.126957 114.581845 
L 384.294311 114.425589 
L 384.461072 114.573018 
L 384.571917 114.462427 
L 384.737697 114.494504 
L 384.792827 114.412871 
L 384.847893 114.45257 
L 384.902894 114.465932 
L 385.067513 114.259789 
L 385.122258 114.291336 
L 385.176939 114.455503 
L 385.231557 114.408465 
L 385.340602 114.31796 
L 385.39503 114.419275 
L 385.449395 114.233827 
L 385.503698 114.36136 
L 385.774272 114.367721 
L 385.8282 114.436233 
L 385.882066 114.363335 
L 386.150477 114.32145 
L 386.203976 114.337208 
L 386.257413 114.149915 
L 386.310791 114.192736 
L 386.364107 48.658339 
L 386.417363 109.453596 
L 386.576771 113.049334 
L 386.682743 118.294884 
L 386.735639 116.731576 
L 386.893973 120.117847 
L 386.946632 117.568258 
L 386.999232 119.381718 
L 387.104257 120.030244 
L 387.156682 116.698461 
L 387.209048 117.071513 
L 387.365797 120.044423 
L 387.470007 116.971881 
L 387.573986 119.27477 
L 387.729524 116.102434 
L 387.781257 116.029363 
L 387.936112 117.218501 
L 387.987617 117.841125 
L 388.090459 115.832789 
L 388.2443 118.389809 
L 388.346582 117.9135 
L 388.39764 117.92247 
L 388.499589 117.795032 
L 388.550481 118.31166 
L 388.601318 117.854886 
L 388.652099 117.945405 
L 388.804116 118.508274 
L 390.199722 119.089128 
L 391.075497 119.176595 
L 391.840496 119.066152 
L 392.265398 118.890981 
L 392.265398 118.890981 
" clip-path="url(#p3a1a4b6a4f)" style="fill: none; stroke: #2ca02c; stroke-width: 1.5; stroke-linecap: square"/>
   </g>
   <g id="line2d_39">
    <path d="M 67.610852 42.414125 
L 100.187771 49.502258 
L 119.244047 52.727432 
L 132.76469 55.317846 
L 143.252115 57.527422 
L 159.065826 61.276773 
L 170.877242 64.425907 
L 184.397885 68.512076 
L 191.642744 70.881804 
L 205.995242 75.824648 
L 208.405953 76.709162 
L 216.974803 80.239037 
L 218.893378 80.892236 
L 231.94167 87.037514 
L 234.707089 88.579802 
L 244.381839 93.636472 
L 247.551482 94.430987 
L 250.520799 96.295281 
L 253.313614 97.62716 
L 254.208852 97.953449 
L 255.087355 98.463639 
L 255.949738 98.707997 
L 256.796582 99.113994 
L 257.628437 99.058203 
L 258.445824 99.200815 
L 259.249237 99.078419 
L 260.039148 99.504234 
L 262.332215 101.1289 
L 263.80104 101.578015 
L 264.518589 101.261948 
L 265.225347 101.258652 
L 265.921635 101.039215 
L 266.607758 101.065911 
L 267.284007 100.648572 
L 267.950665 100.009358 
L 268.607998 98.881206 
L 269.256264 97.546254 
L 271.14908 91.951232 
L 272.36989 89.889107 
L 272.968606 90.566988 
L 274.720308 94.248918 
L 275.289994 94.289004 
L 275.852858 94.119859 
L 276.40906 93.737595 
L 277.502099 92.518531 
L 279.095423 89.91384 
L 280.1284 88.506317 
L 280.636498 87.755989 
L 281.139161 87.532562 
L 281.636505 87.823798 
L 282.615677 89.207461 
L 283.097718 89.573552 
L 284.514867 91.415465 
L 285.890533 93.403018 
L 287.664274 97.447501 
L 288.951986 100.441834 
L 289.373501 101.064503 
L 291.022742 104.304998 
L 292.222771 106.268561 
L 293.39292 107.329404 
L 293.776584 107.447885 
L 294.909134 108.17407 
L 295.649284 108.390788 
L 296.377958 108.214868 
L 297.450215 107.585652 
L 299.184676 106.001066 
L 300.195437 104.794841 
L 300.527584 104.61433 
L 301.510168 104.769128 
L 302.153994 104.949164 
L 302.472629 105.493134 
L 302.789119 105.751739 
L 303.103492 106.241189 
L 303.415776 106.462511 
L 303.725998 107.017889 
L 304.644566 107.626548 
L 304.946809 107.663726 
L 305.24712 107.984605 
L 305.545525 107.907342 
L 305.842047 108.213094 
L 306.136709 108.104065 
L 306.429536 108.368465 
L 306.72055 108.193856 
L 307.009773 108.415385 
L 307.297227 108.489362 
L 307.866913 109.682085 
L 309.535676 113.406569 
L 310.079018 114.267232 
L 310.61615 115.072995 
L 310.882432 115.354228 
L 311.672342 116.621625 
L 312.705319 117.360789 
L 312.960055 117.883956 
L 313.213417 117.808034 
L 313.46542 118.363421 
L 313.71608 118.389023 
L 313.96541 118.548129 
L 314.213424 118.516948 
L 314.460136 118.333444 
L 314.70556 118.481915 
L 314.949709 118.477058 
L 315.192596 118.659617 
L 315.434234 118.612116 
L 315.674637 119.046185 
L 315.913816 119.117568 
L 316.151783 119.426917 
L 317.323878 119.050585 
L 318.013356 118.312439 
L 318.240952 117.827087 
L 318.467452 117.631279 
L 318.692865 117.167612 
L 318.917202 117.190463 
L 319.140474 116.577058 
L 319.803994 115.972545 
L 320.674362 113.729692 
L 321.103576 113.261958 
L 321.528905 114.243121 
L 321.740135 114.370078 
L 321.95042 114.641042 
L 322.159768 114.705724 
L 322.368187 114.629585 
L 322.575687 114.850137 
L 322.987958 115.942825 
L 323.599661 118.649128 
L 325.388406 128.279922 
L 326.353502 132.692966 
L 326.923189 134.12974 
L 327.299179 134.856686 
L 327.486053 135.208494 
L 327.672186 135.250342 
L 327.857585 135.462262 
L 328.042255 135.354849 
L 328.226203 135.455663 
L 328.409433 135.288759 
L 328.591952 135.362658 
L 329.135294 134.5696 
L 329.315021 134.518574 
L 329.672426 134.001057 
L 330.554226 132.994719 
L 330.728618 132.600075 
L 331.247945 132.400378 
L 331.419786 132.645651 
L 331.591001 132.507328 
L 332.269693 133.413475 
L 332.938723 133.791823 
L 333.104502 134.001466 
L 333.2697 133.954462 
L 333.924742 135.195787 
L 334.248872 135.862963 
L 334.410102 136.323214 
L 334.570781 136.37191 
L 334.730912 136.549448 
L 335.366038 135.844234 
L 335.523487 136.107391 
L 335.836812 136.092813 
L 335.992695 135.985358 
L 336.611106 134.649397 
L 336.764445 134.685365 
L 336.917286 134.995419 
L 337.069632 134.718327 
L 337.824039 137.8206 
L 338.122443 137.680718 
L 338.566528 138.51804 
L 339.152187 138.372738 
L 339.297469 138.180766 
L 339.442303 138.253502 
L 339.586691 138.096933 
L 340.443832 139.383306 
L 341.700926 142.992164 
L 341.975772 142.66293 
L 342.112595 142.70958 
L 343.326399 141.165701 
L 343.724132 140.831757 
L 344.118528 141.508383 
L 344.639293 141.400562 
L 345.536973 144.285397 
L 346.042339 147.005033 
L 347.404712 153.442216 
L 347.769515 153.999513 
L 347.890489 153.674913 
L 348.011153 153.831584 
L 348.131508 153.763487 
L 348.371297 154.148645 
L 348.847236 152.905578 
L 348.965471 152.715134 
L 349.08341 152.947929 
L 349.435461 152.882009 
L 349.900797 153.427314 
L 350.016415 153.28327 
L 350.131748 153.545612 
L 350.2468 153.241329 
L 350.361571 153.589722 
L 350.590275 153.289829 
L 350.817871 153.44103 
L 351.157212 153.033413 
L 351.605889 152.10845 
L 351.717392 151.979475 
L 351.828632 152.041679 
L 352.050323 151.700412 
L 352.926779 155.25755 
L 353.143362 154.451819 
L 353.251281 154.322292 
L 353.358953 154.780057 
L 353.573558 154.754754 
L 353.680495 154.860192 
L 353.89364 155.862545 
L 354.211557 156.572617 
L 354.527338 156.300257 
L 354.736686 155.864933 
L 355.462147 158.995901 
L 355.769663 159.718743 
L 356.075181 159.082578 
L 356.17658 159.215641 
L 356.378725 159.066501 
L 356.479472 158.62039 
L 356.680321 158.689546 
L 357.573668 162.214425 
L 357.769904 162.303244 
L 357.867716 162.539568 
L 357.965324 162.374267 
L 358.738981 164.478421 
L 358.834798 163.984914 
L 358.930421 164.012106 
L 359.121085 163.704419 
L 359.216128 163.481284 
L 359.310978 163.56156 
L 359.405638 163.481057 
L 359.688479 164.388878 
L 360.249105 166.255445 
L 360.526929 167.416851 
L 360.894826 166.751055 
L 361.0777 166.246989 
L 361.350684 165.62028 
L 361.441327 165.544871 
L 361.531796 165.674571 
L 361.802162 166.867998 
L 361.89194 166.943829 
L 362.070982 167.27219 
L 362.338273 166.73262 
L 362.515627 166.56745 
L 362.956104 167.588154 
L 363.218422 167.17504 
L 363.565917 168.384086 
L 363.824863 168.618327 
L 363.996705 168.372895 
L 364.16792 168.419526 
L 364.253294 168.368224 
L 364.593249 168.82224 
L 364.677855 168.738189 
L 364.930763 168.024651 
L 365.014764 167.962057 
L 365.26587 169.93851 
L 365.432532 170.574362 
L 365.764092 172.175311 
L 365.846618 172.313164 
L 365.929 171.882056 
L 366.093331 172.602027 
L 366.338754 173.654323 
L 366.420278 173.470549 
L 366.582903 172.524802 
L 366.664005 172.571271 
L 366.744968 172.427201 
L 367.1477 174.95853 
L 367.387693 175.754783 
L 367.626467 174.761707 
L 367.784978 173.250196 
L 367.864034 173.457682 
L 367.942957 173.651661 
L 368.100406 174.604886 
L 368.257329 174.526298 
L 368.335595 174.668997 
L 368.491737 175.76018 
L 368.569613 175.472576 
L 368.724981 173.928372 
L 369.034183 176.77879 
L 369.111167 176.154847 
L 369.341364 172.56411 
L 369.570439 144.797111 
L 369.646551 148.998127 
L 369.949768 161.077074 
L 370.025268 162.363751 
L 370.550397 183.408852 
L 370.773668 177.004692 
L 370.847857 174.538418 
L 370.921929 175.1426 
L 371.143446 184.422717 
L 371.217054 184.107593 
L 371.583374 189.72007 
L 371.656296 189.61399 
L 371.874387 192.843033 
L 371.94686 192.727933 
L 372.019221 193.448169 
L 372.091471 192.63022 
L 372.16361 192.896168 
L 372.235639 193.532949 
L 372.379365 191.793413 
L 372.451064 191.924404 
L 372.522654 192.967937 
L 372.594134 190.460312 
L 372.665507 191.62321 
L 372.736771 191.786106 
L 372.807927 192.830604 
L 372.878975 190.408662 
L 372.949916 191.315688 
L 373.020751 190.767565 
L 373.091478 191.138888 
L 373.232615 187.852031 
L 373.443529 179.048181 
L 373.583614 150.623813 
L 374.346707 191.158769 
L 374.552691 187.577489 
L 374.689514 183.265355 
L 374.825939 178.693077 
L 375.029838 188.219071 
L 375.232856 196.311979 
L 375.300334 196.400511 
L 375.435 196.995165 
L 375.502189 196.756173 
L 375.569282 197.271586 
L 375.636279 197.108563 
L 375.769988 195.907101 
L 375.96984 189.272685 
L 376.03627 189.325166 
L 376.234995 193.487128 
L 376.301051 193.198159 
L 376.367014 192.524973 
L 376.432884 192.645817 
L 376.498662 192.562859 
L 376.629943 191.786173 
L 376.760859 193.322803 
L 376.95655 190.448947 
L 377.0216 191.793876 
L 377.08656 191.749643 
L 377.280903 152.781563 
L 377.345506 157.55235 
L 377.92297 196.38559 
L 377.986697 196.617989 
L 378.240744 191.352516 
L 378.556384 183.647711 
L 378.619258 184.772862 
L 378.682048 185.232287 
L 378.994748 199.27263 
L 379.119247 200.287774 
L 379.243418 202.485293 
L 379.30538 202.05915 
L 379.552417 199.513924 
L 379.67545 195.572664 
L 379.859397 189.832466 
L 379.920554 188.895904 
L 380.042628 192.528115 
L 380.103546 192.010555 
L 380.164386 191.069013 
L 380.40696 198.309796 
L 380.467408 197.947958 
L 380.527779 196.495457 
L 380.588072 196.973412 
L 380.648288 196.378096 
L 380.768489 198.248326 
L 380.948216 195.785574 
L 381.067653 197.115264 
L 381.246242 191.054021 
L 381.424155 193.588134 
L 381.48331 190.848109 
L 381.601396 151.237545 
L 382.187421 182.136051 
L 382.53556 201.006093 
L 382.651036 200.19445 
L 383.052981 192.127642 
L 383.281129 194.713386 
L 383.337994 195.321579 
L 383.39479 195.227123 
L 383.508176 192.68315 
L 383.564767 193.938006 
L 383.79045 199.701369 
L 383.846703 200.734582 
L 383.902887 200.334977 
L 384.182808 192.460758 
L 384.238593 192.496302 
L 384.40555 196.530419 
L 384.461072 195.917142 
L 384.571917 192.629871 
L 384.682502 189.503213 
L 384.847893 196.574656 
L 384.902894 196.547807 
L 385.012704 197.018375 
L 385.176939 192.937364 
L 385.231557 194.934012 
L 385.286111 194.398468 
L 385.340602 193.864932 
L 385.39503 191.372023 
L 385.503698 153.592679 
L 385.882066 182.182756 
L 386.096917 189.326123 
L 386.310791 202.956435 
L 386.523695 203.963136 
L 386.682743 203.621104 
L 386.841254 201.979247 
L 387.261356 190.216528 
L 387.365797 191.86323 
L 387.417931 192.492539 
L 387.522025 188.051788 
L 387.677735 188.075153 
L 387.729524 187.586571 
L 387.832932 159.474186 
L 387.88455 160.940297 
L 388.141795 185.510028 
L 388.193076 182.780868 
L 388.2443 180.285261 
L 388.804116 211.171065 
L 389.106683 213.452553 
L 389.407315 214.463555 
L 389.507099 214.316926 
L 389.606673 213.698742 
L 389.755638 211.531363 
L 390.29784 196.996622 
L 390.444635 203.752501 
L 390.493464 203.678838 
L 390.590972 196.877753 
L 390.736855 192.748746 
L 390.785382 193.775356 
L 390.833859 193.286249 
L 390.882286 192.579894 
L 390.930663 189.359513 
L 391.027269 154.693722 
L 391.075497 162.725719 
L 391.459553 192.902176 
L 391.555079 189.838027 
L 391.65041 195.884695 
L 391.698004 202.502559 
L 391.745549 199.012368 
L 391.793046 196.503363 
L 391.982557 212.537765 
L 392.265398 215.151093 
L 392.265398 215.151093 
" clip-path="url(#p3a1a4b6a4f)" style="fill: none; stroke-dasharray: 5.55,2.4; stroke-dashoffset: 0; stroke: #d62728; stroke-width: 1.5"/>
   </g>
   <g id="line2d_40">
    <path d="M 67.610852 45.29484 
L 100.187771 49.085679 
L 151.820966 53.362049 
L 205.995242 58.652861 
L 216.974803 59.926072 
L 224.219663 60.778241 
L 240.982872 63.101881 
L 264.518589 66.801893 
L 265.921635 66.829907 
L 266.607758 66.773555 
L 267.284007 66.850245 
L 267.950665 67.060232 
L 270.526573 68.270205 
L 271.763449 66.734246 
L 273.559791 69.67436 
L 274.143631 69.407632 
L 274.720308 69.400005 
L 275.289994 69.79576 
L 275.852858 69.906558 
L 277.502099 69.696372 
L 278.570294 70.050142 
L 279.61475 70.904645 
L 280.636498 72.081715 
L 281.139161 72.896912 
L 281.636505 73.487903 
L 282.128641 73.418948 
L 282.615677 73.131856 
L 283.097718 73.029739 
L 284.047216 73.491042 
L 284.977911 74.851342 
L 285.436437 75.696484 
L 286.340283 76.602046 
L 288.526657 77.219981 
L 288.951986 77.438601 
L 290.205355 78.640813 
L 291.022742 79.264647 
L 291.826156 79.522027 
L 293.776584 79.672649 
L 294.534641 79.948876 
L 295.649284 80.758304 
L 296.738102 81.449027 
L 297.802266 81.836985 
L 298.842867 82.214268 
L 299.860926 82.411292 
L 300.527584 83.027924 
L 301.184917 83.719762 
L 301.833183 83.964334 
L 302.153994 84.138744 
L 302.472629 84.038823 
L 302.789119 84.267927 
L 303.415776 85.131665 
L 304.644566 86.952835 
L 305.545525 87.263828 
L 306.429536 87.144383 
L 306.72055 87.258388 
L 307.009773 87.615947 
L 307.866913 89.446399 
L 308.149187 89.756136 
L 308.708701 89.929762 
L 309.261631 89.853483 
L 309.535676 89.921544 
L 310.348352 90.704189 
L 311.410511 92.183963 
L 311.932723 92.434072 
L 312.449196 92.534837 
L 312.960055 92.901671 
L 314.70556 94.663181 
L 315.913816 94.970364 
L 316.151783 95.128421 
L 317.323878 96.471631 
L 317.784652 96.675217 
L 319.362689 96.953222 
L 320.674362 98.305368 
L 321.316722 99.94118 
L 321.528905 99.814295 
L 322.575687 102.113335 
L 322.782274 102.194649 
L 324.601801 106.734507 
L 325.776826 108.019258 
L 326.73406 108.610623 
L 327.11156 108.696468 
L 327.672186 109.042887 
L 328.954877 110.393153 
L 329.672426 110.747608 
L 330.027134 111.406189 
L 331.075473 113.2764 
L 331.419786 113.271691 
L 332.269693 113.590243 
L 332.437845 113.935617 
L 333.104502 116.301088 
L 333.434318 116.640893 
L 333.924742 116.607343 
L 334.087087 116.659367 
L 334.570781 117.682901 
L 334.8905 117.897298 
L 335.208059 118.299669 
L 335.523487 117.771017 
L 335.836812 117.150944 
L 335.992695 117.069661 
L 336.148062 117.899481 
L 336.457264 118.030428 
L 337.221485 121.494005 
L 337.372849 121.462022 
L 337.523728 121.71022 
L 337.674123 121.250721 
L 337.824039 121.366007 
L 338.122443 122.078446 
L 338.270938 121.945183 
L 338.418965 121.66258 
L 338.566528 121.639673 
L 339.006455 122.967483 
L 339.297469 123.362341 
L 339.730638 125.036045 
L 340.585181 126.57896 
L 340.726106 126.645836 
L 341.006696 126.457884 
L 341.146364 126.505301 
L 341.28562 126.421869 
L 341.424463 126.657315 
L 341.700926 126.167688 
L 341.83855 126.404533 
L 342.112595 127.106311 
L 342.249021 127.017094 
L 342.520689 126.280736 
L 342.790797 127.206222 
L 342.92527 127.073109 
L 343.326399 128.838424 
L 343.591928 130.259984 
L 343.724132 130.368784 
L 343.98743 130.178435 
L 344.379632 127.738906 
L 344.509642 127.828469 
L 345.409778 132.297381 
L 345.536973 132.447916 
L 345.663825 132.339254 
L 346.042339 131.610459 
L 346.292999 131.699533 
L 346.790343 132.970103 
L 347.404712 133.562925 
L 347.890489 133.873786 
L 348.371297 134.138366 
L 348.728702 134.091853 
L 349.318403 134.257385 
L 349.435461 134.251105 
L 350.016415 134.736085 
L 350.131748 134.660139 
L 350.590275 135.270541 
L 350.817871 135.003578 
L 351.044371 135.448724 
L 351.157212 135.377993 
L 351.269784 135.120342 
L 351.605889 135.452878 
L 351.828632 136.013392 
L 351.939608 135.937066 
L 352.050323 136.013564 
L 352.160778 136.293755 
L 352.270974 136.15909 
L 352.380913 136.246427 
L 352.60002 136.54696 
L 352.709192 136.590009 
L 352.926779 136.191686 
L 353.143362 136.390145 
L 353.358953 135.862573 
L 353.573558 136.408166 
L 353.680495 136.329259 
L 355.152606 137.788019 
L 355.359193 137.625344 
L 355.564876 137.701709 
L 355.769663 137.722276 
L 355.973562 137.97547 
L 356.17658 137.962554 
L 356.378725 138.015532 
L 356.680321 138.230175 
L 356.880315 138.412088 
L 357.079462 138.426915 
L 357.277768 138.478602 
L 357.769904 138.504817 
L 358.738981 138.774949 
L 359.121085 138.824864 
L 359.405638 138.997369 
L 359.594388 139.009207 
L 359.688479 139.08905 
L 359.876098 139.067176 
L 360.249105 139.355267 
L 360.434503 139.403658 
L 360.803122 139.302209 
L 361.168871 139.39883 
L 361.350684 139.205827 
L 361.622091 139.501114 
L 362.070982 139.544016 
L 362.249345 139.338482 
L 362.515627 139.576844 
L 362.692313 139.710619 
L 362.780408 139.657767 
L 363.131145 139.958223 
L 363.218422 139.923804 
L 363.392491 140.077478 
L 363.910863 140.18037 
L 364.338514 140.192259 
L 364.593249 140.267775 
L 364.846611 140.255596 
L 364.930763 140.429511 
L 365.014764 140.262697 
L 365.182317 140.600596 
L 365.26587 140.563823 
L 365.432532 140.678693 
L 365.681421 140.718613 
L 365.846618 140.857906 
L 366.011237 140.799264 
L 366.257089 140.929263 
L 366.338754 140.845803 
L 366.501661 141.105075 
L 366.664005 140.872398 
L 366.825791 141.039657 
L 366.906475 140.964229 
L 367.1477 141.080934 
L 367.387693 141.152686 
L 367.467419 141.179748 
L 367.626467 141.146475 
L 367.705789 141.132864 
L 367.784978 141.29497 
L 367.864034 141.251341 
L 368.100406 141.306037 
L 368.257329 141.451845 
L 368.335595 141.463121 
L 368.491737 141.623418 
L 368.724981 141.273218 
L 368.879836 141.700182 
L 368.957073 141.443151 
L 369.034183 141.594356 
L 369.111167 141.357005 
L 369.188024 141.448402 
L 369.341364 141.20909 
L 369.417847 140.368139 
L 369.494205 140.513435 
L 369.646551 145.694962 
L 369.722539 144.200227 
L 369.798404 144.231231 
L 369.874147 144.568151 
L 370.100646 146.947984 
L 370.175904 145.972367 
L 370.251042 147.515059 
L 370.32606 147.442188 
L 370.400958 147.621011 
L 370.475737 147.52761 
L 370.550397 147.647761 
L 370.624939 147.527849 
L 370.699362 146.259835 
L 370.773668 146.298305 
L 370.921929 147.369285 
L 370.995884 147.128742 
L 371.217054 147.817324 
L 371.290547 147.554071 
L 371.363925 147.659923 
L 371.437188 147.658273 
L 371.510338 147.827914 
L 371.583374 147.426957 
L 371.656296 147.547956 
L 371.729106 147.758267 
L 371.801803 147.411216 
L 371.874387 147.736133 
L 371.94686 147.530425 
L 372.019221 147.781544 
L 372.091471 147.088258 
L 372.16361 147.58561 
L 372.235639 147.530345 
L 372.307557 147.576716 
L 372.379365 147.153072 
L 372.451064 147.34029 
L 372.522654 147.591871 
L 372.736771 147.014798 
L 372.807927 147.476685 
L 372.878975 147.399303 
L 372.949916 147.35256 
L 373.020751 146.689952 
L 373.1621 147.281918 
L 373.303025 147.358233 
L 373.37333 146.945917 
L 373.513624 143.371869 
L 373.653501 147.144812 
L 373.723283 145.425733 
L 373.792962 146.673367 
L 373.862538 146.639681 
L 373.932011 146.876429 
L 374.139817 148.3901 
L 374.48413 149.04438 
L 374.552691 149.030721 
L 374.689514 148.725687 
L 374.757776 148.771707 
L 374.825939 147.658555 
L 374.96197 148.993218 
L 375.029838 148.952591 
L 375.232856 149.246372 
L 375.435 149.170453 
L 375.569282 149.210595 
L 375.703181 149.12616 
L 375.903317 149.025647 
L 375.96984 148.814822 
L 376.03627 148.953639 
L 376.234995 149.11913 
L 376.301051 148.857683 
L 376.367014 149.012471 
L 376.564349 148.945915 
L 376.629943 148.673143 
L 376.695447 148.951588 
L 376.760859 148.772247 
L 376.82618 148.964238 
L 376.89141 148.905595 
L 377.08656 148.414208 
L 377.216212 144.192778 
L 377.345506 147.415535 
L 377.41002 146.255365 
L 377.474446 148.349705 
L 377.538784 147.622468 
L 377.73127 149.542295 
L 378.113892 150.034012 
L 378.430382 149.770776 
L 378.493425 149.660647 
L 378.807378 150.048008 
L 379.057039 150.155752 
L 379.552417 150.067428 
L 379.736846 149.733992 
L 379.798161 149.845835 
L 379.98163 150.04358 
L 380.103546 149.735502 
L 380.346433 149.955238 
L 380.467408 149.868519 
L 380.648288 150.027367 
L 380.768489 149.724525 
L 380.888383 149.923045 
L 381.186788 149.895729 
L 381.246242 150.157015 
L 381.48331 148.852654 
L 381.54239 144.261234 
L 381.601396 147.907607 
L 381.660329 148.178123 
L 381.777972 147.031379 
L 381.836684 148.490011 
L 381.895322 147.947138 
L 381.953887 148.480993 
L 382.01238 147.919942 
L 382.070799 148.426495 
L 382.245624 149.484605 
L 382.303754 149.410685 
L 382.53556 150.274184 
L 383.451517 150.288129 
L 383.734131 150.454399 
L 383.902887 150.478838 
L 384.07104 150.354139 
L 384.294311 150.578381 
L 384.461072 150.572554 
L 384.571917 150.25662 
L 384.627242 150.394311 
L 384.792827 150.618728 
L 384.902894 150.566257 
L 385.122258 150.465182 
L 385.176939 150.619299 
L 385.231557 150.428047 
L 385.286111 150.578224 
L 385.340602 150.594749 
L 385.39503 149.694662 
L 385.449395 144.380011 
L 385.503698 147.558154 
L 385.557937 147.814086 
L 385.666229 149.602853 
L 385.774272 149.513696 
L 385.8282 149.693985 
L 385.882066 148.766084 
L 385.935871 149.687559 
L 385.989615 149.571242 
L 386.150477 150.482428 
L 386.364107 150.622463 
L 386.735639 150.578574 
L 387.209048 150.472441 
L 387.417931 150.480348 
L 387.522025 150.212762 
L 387.573986 150.308259 
L 387.625889 150.463133 
L 387.729524 149.094109 
L 387.781257 146.180374 
L 387.832932 146.971792 
L 387.88455 148.282508 
L 387.936112 145.785288 
L 387.987617 148.114492 
L 388.141795 149.877705 
L 388.193076 148.846888 
L 388.2443 149.024551 
L 388.346582 150.18064 
L 388.499589 150.106999 
L 388.753499 150.47862 
L 389.207108 150.584454 
L 390.101399 150.557233 
L 390.150586 150.544203 
L 390.248807 150.786575 
L 390.29784 150.761837 
L 390.444635 150.695621 
L 390.688277 150.656328 
L 390.833859 150.834875 
L 390.882286 150.726235 
L 390.930663 150.144984 
L 390.978991 144.07141 
L 391.027269 147.907371 
L 391.075497 146.446684 
L 391.123676 148.018788 
L 391.459553 151.137678 
L 391.555079 150.441344 
L 391.602769 150.870674 
L 391.698004 150.746491 
L 391.745549 150.730769 
L 391.982557 151.276494 
L 392.265398 151.286474 
L 392.265398 151.286474 
" clip-path="url(#p3a1a4b6a4f)" style="fill: none; stroke: #d62728; stroke-width: 1.5; stroke-linecap: square"/>
   </g>
   <g id="patch_3">
    <path d="M 51.378125 296.430125 
L 51.378125 30.318125 
" style="fill: none; stroke: #000000; stroke-width: 0.8; stroke-linejoin: miter; stroke-linecap: square"/>
   </g>
   <g id="patch_4">
    <path d="M 408.498125 296.430125 
L 408.498125 30.318125 
" style="fill: none; stroke: #000000; stroke-width: 0.8; stroke-linejoin: miter; stroke-linecap: square"/>
   </g>
   <g id="patch_5">
    <path d="M 51.378125 296.430125 
L 408.498125 296.430125 
" style="fill: none; stroke: #000000; stroke-width: 0.8; stroke-linejoin: miter; stroke-linecap: square"/>
   </g>
   <g id="patch_6">
    <path d="M 51.378125 30.318125 
L 408.498125 30.318125 
" style="fill: none; stroke: #000000; stroke-width: 0.8; stroke-linejoin: miter; stroke-linecap: square"/>
   </g>
   <g id="text_13">
    <!-- Loss per Epoch (ResNet-18 on SVHN) -->
    <g transform="translate(104.796875 16.318125) scale(0.12 -0.12)">
     <defs>
      <path id="DejaVuSans-Bold-20" transform="scale(0.015625)"/>
      <path id="DejaVuSans-Bold-65" d="M 4031 1759 
L 4031 1441 
L 1416 1441 
Q 1456 1047 1700 850 
Q 1944 653 2381 653 
Q 2734 653 3104 758 
Q 3475 863 3866 1075 
L 3866 213 
Q 3469 63 3072 -14 
Q 2675 -91 2278 -91 
Q 1328 -91 801 392 
Q 275 875 275 1747 
Q 275 2603 792 3093 
Q 1309 3584 2216 3584 
Q 3041 3584 3536 3087 
Q 4031 2591 4031 1759 
z
M 2881 2131 
Q 2881 2450 2695 2645 
Q 2509 2841 2209 2841 
Q 1884 2841 1681 2658 
Q 1478 2475 1428 2131 
L 2881 2131 
z
" transform="scale(0.015625)"/>
      <path id="DejaVuSans-Bold-72" d="M 3138 2547 
Q 2991 2616 2845 2648 
Q 2700 2681 2553 2681 
Q 2122 2681 1889 2404 
Q 1656 2128 1656 1613 
L 1656 0 
L 538 0 
L 538 3500 
L 1656 3500 
L 1656 2925 
Q 1872 3269 2151 3426 
Q 2431 3584 2822 3584 
Q 2878 3584 2943 3579 
Q 3009 3575 3134 3559 
L 3138 2547 
z
" transform="scale(0.015625)"/>
      <path id="DejaVuSans-Bold-28" d="M 2413 -844 
L 1484 -844 
Q 1006 -72 778 623 
Q 550 1319 550 2003 
Q 550 2688 779 3389 
Q 1009 4091 1484 4856 
L 2413 4856 
Q 2013 4116 1813 3408 
Q 1613 2700 1613 2009 
Q 1613 1319 1811 609 
Q 2009 -100 2413 -844 
z
" transform="scale(0.015625)"/>
      <path id="DejaVuSans-Bold-52" d="M 2297 2597 
Q 2675 2597 2839 2737 
Q 3003 2878 3003 3200 
Q 3003 3519 2839 3656 
Q 2675 3794 2297 3794 
L 1791 3794 
L 1791 2597 
L 2297 2597 
z
M 1791 1766 
L 1791 0 
L 588 0 
L 588 4666 
L 2425 4666 
Q 3347 4666 3776 4356 
Q 4206 4047 4206 3378 
Q 4206 2916 3982 2619 
Q 3759 2322 3309 2181 
Q 3556 2125 3751 1926 
Q 3947 1728 4147 1325 
L 4800 0 
L 3519 0 
L 2950 1159 
Q 2778 1509 2601 1637 
Q 2425 1766 2131 1766 
L 1791 1766 
z
" transform="scale(0.015625)"/>
      <path id="DejaVuSans-Bold-4e" d="M 588 4666 
L 1931 4666 
L 3628 1466 
L 3628 4666 
L 4769 4666 
L 4769 0 
L 3425 0 
L 1728 3200 
L 1728 0 
L 588 0 
L 588 4666 
z
" transform="scale(0.015625)"/>
      <path id="DejaVuSans-Bold-74" d="M 1759 4494 
L 1759 3500 
L 2913 3500 
L 2913 2700 
L 1759 2700 
L 1759 1216 
Q 1759 972 1856 886 
Q 1953 800 2241 800 
L 2816 800 
L 2816 0 
L 1856 0 
Q 1194 0 917 276 
Q 641 553 641 1216 
L 641 2700 
L 84 2700 
L 84 3500 
L 641 3500 
L 641 4494 
L 1759 4494 
z
" transform="scale(0.015625)"/>
      <path id="DejaVuSans-Bold-2d" d="M 347 2297 
L 2309 2297 
L 2309 1388 
L 347 1388 
L 347 2297 
z
" transform="scale(0.015625)"/>
      <path id="DejaVuSans-Bold-31" d="M 750 831 
L 1813 831 
L 1813 3847 
L 722 3622 
L 722 4441 
L 1806 4666 
L 2950 4666 
L 2950 831 
L 4013 831 
L 4013 0 
L 750 0 
L 750 831 
z
" transform="scale(0.015625)"/>
      <path id="DejaVuSans-Bold-38" d="M 2228 2088 
Q 1891 2088 1709 1903 
Q 1528 1719 1528 1375 
Q 1528 1031 1709 848 
Q 1891 666 2228 666 
Q 2563 666 2741 848 
Q 2919 1031 2919 1375 
Q 2919 1722 2741 1905 
Q 2563 2088 2228 2088 
z
M 1350 2484 
Q 925 2613 709 2878 
Q 494 3144 494 3541 
Q 494 4131 934 4440 
Q 1375 4750 2228 4750 
Q 3075 4750 3515 4442 
Q 3956 4134 3956 3541 
Q 3956 3144 3739 2878 
Q 3522 2613 3097 2484 
Q 3572 2353 3814 2058 
Q 4056 1763 4056 1313 
Q 4056 619 3595 264 
Q 3134 -91 2228 -91 
Q 1319 -91 855 264 
Q 391 619 391 1313 
Q 391 1763 633 2058 
Q 875 2353 1350 2484 
z
M 1631 3419 
Q 1631 3141 1786 2991 
Q 1941 2841 2228 2841 
Q 2509 2841 2662 2991 
Q 2816 3141 2816 3419 
Q 2816 3697 2662 3845 
Q 2509 3994 2228 3994 
Q 1941 3994 1786 3844 
Q 1631 3694 1631 3419 
z
" transform="scale(0.015625)"/>
      <path id="DejaVuSans-Bold-6e" d="M 4056 2131 
L 4056 0 
L 2931 0 
L 2931 347 
L 2931 1631 
Q 2931 2084 2911 2256 
Q 2891 2428 2841 2509 
Q 2775 2619 2662 2680 
Q 2550 2741 2406 2741 
Q 2056 2741 1856 2470 
Q 1656 2200 1656 1722 
L 1656 0 
L 538 0 
L 538 3500 
L 1656 3500 
L 1656 2988 
Q 1909 3294 2193 3439 
Q 2478 3584 2822 3584 
Q 3428 3584 3742 3212 
Q 4056 2841 4056 2131 
z
" transform="scale(0.015625)"/>
      <path id="DejaVuSans-Bold-53" d="M 3834 4519 
L 3834 3531 
Q 3450 3703 3084 3790 
Q 2719 3878 2394 3878 
Q 1963 3878 1756 3759 
Q 1550 3641 1550 3391 
Q 1550 3203 1689 3098 
Q 1828 2994 2194 2919 
L 2706 2816 
Q 3484 2659 3812 2340 
Q 4141 2022 4141 1434 
Q 4141 663 3683 286 
Q 3225 -91 2284 -91 
Q 1841 -91 1394 -6 
Q 947 78 500 244 
L 500 1259 
Q 947 1022 1364 901 
Q 1781 781 2169 781 
Q 2563 781 2772 912 
Q 2981 1044 2981 1288 
Q 2981 1506 2839 1625 
Q 2697 1744 2272 1838 
L 1806 1941 
Q 1106 2091 782 2419 
Q 459 2747 459 3303 
Q 459 4000 909 4375 
Q 1359 4750 2203 4750 
Q 2588 4750 2994 4692 
Q 3400 4634 3834 4519 
z
" transform="scale(0.015625)"/>
      <path id="DejaVuSans-Bold-56" d="M 31 4666 
L 1241 4666 
L 2478 1222 
L 3713 4666 
L 4922 4666 
L 3194 0 
L 1759 0 
L 31 4666 
z
" transform="scale(0.015625)"/>
      <path id="DejaVuSans-Bold-48" d="M 588 4666 
L 1791 4666 
L 1791 2888 
L 3566 2888 
L 3566 4666 
L 4769 4666 
L 4769 0 
L 3566 0 
L 3566 1978 
L 1791 1978 
L 1791 0 
L 588 0 
L 588 4666 
z
" transform="scale(0.015625)"/>
      <path id="DejaVuSans-Bold-29" d="M 513 -844 
Q 913 -100 1113 609 
Q 1313 1319 1313 2009 
Q 1313 2700 1113 3408 
Q 913 4116 513 4856 
L 1441 4856 
Q 1916 4091 2145 3389 
Q 2375 2688 2375 2003 
Q 2375 1319 2147 623 
Q 1919 -72 1441 -844 
L 513 -844 
z
" transform="scale(0.015625)"/>
     </defs>
     <use xlink:href="#DejaVuSans-Bold-4c"/>
     <use xlink:href="#DejaVuSans-Bold-6f" transform="translate(63.720703 0)"/>
     <use xlink:href="#DejaVuSans-Bold-73" transform="translate(132.421875 0)"/>
     <use xlink:href="#DejaVuSans-Bold-73" transform="translate(191.943359 0)"/>
     <use xlink:href="#DejaVuSans-Bold-20" transform="translate(251.464844 0)"/>
     <use xlink:href="#DejaVuSans-Bold-70" transform="translate(286.279297 0)"/>
     <use xlink:href="#DejaVuSans-Bold-65" transform="translate(357.861328 0)"/>
     <use xlink:href="#DejaVuSans-Bold-72" transform="translate(425.683594 0)"/>
     <use xlink:href="#DejaVuSans-Bold-20" transform="translate(475 0)"/>
     <use xlink:href="#DejaVuSans-Bold-45" transform="translate(509.814453 0)"/>
     <use xlink:href="#DejaVuSans-Bold-70" transform="translate(578.125 0)"/>
     <use xlink:href="#DejaVuSans-Bold-6f" transform="translate(649.707031 0)"/>
     <use xlink:href="#DejaVuSans-Bold-63" transform="translate(718.408203 0)"/>
     <use xlink:href="#DejaVuSans-Bold-68" transform="translate(777.685547 0)"/>
     <use xlink:href="#DejaVuSans-Bold-20" transform="translate(848.876953 0)"/>
     <use xlink:href="#DejaVuSans-Bold-28" transform="translate(883.691406 0)"/>
     <use xlink:href="#DejaVuSans-Bold-52" transform="translate(929.394531 0)"/>
     <use xlink:href="#DejaVuSans-Bold-65" transform="translate(1006.396484 0)"/>
     <use xlink:href="#DejaVuSans-Bold-73" transform="translate(1074.21875 0)"/>
     <use xlink:href="#DejaVuSans-Bold-4e" transform="translate(1133.740234 0)"/>
     <use xlink:href="#DejaVuSans-Bold-65" transform="translate(1217.431641 0)"/>
     <use xlink:href="#DejaVuSans-Bold-74" transform="translate(1285.253906 0)"/>
     <use xlink:href="#DejaVuSans-Bold-2d" transform="translate(1333.056641 0)"/>
     <use xlink:href="#DejaVuSans-Bold-31" transform="translate(1374.560547 0)"/>
     <use xlink:href="#DejaVuSans-Bold-38" transform="translate(1444.140625 0)"/>
     <use xlink:href="#DejaVuSans-Bold-20" transform="translate(1513.720703 0)"/>
     <use xlink:href="#DejaVuSans-Bold-6f" transform="translate(1548.535156 0)"/>
     <use xlink:href="#DejaVuSans-Bold-6e" transform="translate(1617.236328 0)"/>
     <use xlink:href="#DejaVuSans-Bold-20" transform="translate(1688.427734 0)"/>
     <use xlink:href="#DejaVuSans-Bold-53" transform="translate(1723.242188 0)"/>
     <use xlink:href="#DejaVuSans-Bold-56" transform="translate(1795.263672 0)"/>
     <use xlink:href="#DejaVuSans-Bold-48" transform="translate(1872.65625 0)"/>
     <use xlink:href="#DejaVuSans-Bold-4e" transform="translate(1956.347656 0)"/>
     <use xlink:href="#DejaVuSans-Bold-29" transform="translate(2040.039062 0)"/>
    </g>
   </g>
   <g id="legend_1">
    <g id="patch_7">
     <path d="M 58.378125 291.430125 
L 201.453125 291.430125 
Q 203.453125 291.430125 203.453125 289.430125 
L 203.453125 231.717625 
Q 203.453125 229.717625 201.453125 229.717625 
L 58.378125 229.717625 
Q 56.378125 229.717625 56.378125 231.717625 
L 56.378125 289.430125 
Q 56.378125 291.430125 58.378125 291.430125 
z
" style="fill: #ffffff; opacity: 0.8; stroke: #cccccc; stroke-linejoin: miter"/>
    </g>
    <g id="line2d_41">
     <path d="M 60.378125 237.816062 
L 70.378125 237.816062 
L 80.378125 237.816062 
" style="fill: none; stroke-dasharray: 5.55,2.4; stroke-dashoffset: 0; stroke: #2ca02c; stroke-width: 1.5"/>
    </g>
    <g id="text_14">
     <!-- Train (no scaling) -->
     <g transform="translate(88.378125 241.316062) scale(0.1 -0.1)">
      <defs>
       <path id="DejaVuSans-54" d="M -19 4666 
L 3928 4666 
L 3928 4134 
L 2272 4134 
L 2272 0 
L 1638 0 
L 1638 4134 
L -19 4134 
L -19 4666 
z
" transform="scale(0.015625)"/>
       <path id="DejaVuSans-72" d="M 2631 2963 
Q 2534 3019 2420 3045 
Q 2306 3072 2169 3072 
Q 1681 3072 1420 2755 
Q 1159 2438 1159 1844 
L 1159 0 
L 581 0 
L 581 3500 
L 1159 3500 
L 1159 2956 
Q 1341 3275 1631 3429 
Q 1922 3584 2338 3584 
Q 2397 3584 2469 3576 
Q 2541 3569 2628 3553 
L 2631 2963 
z
" transform="scale(0.015625)"/>
       <path id="DejaVuSans-61" d="M 2194 1759 
Q 1497 1759 1228 1600 
Q 959 1441 959 1056 
Q 959 750 1161 570 
Q 1363 391 1709 391 
Q 2188 391 2477 730 
Q 2766 1069 2766 1631 
L 2766 1759 
L 2194 1759 
z
M 3341 1997 
L 3341 0 
L 2766 0 
L 2766 531 
Q 2569 213 2275 61 
Q 1981 -91 1556 -91 
Q 1019 -91 701 211 
Q 384 513 384 1019 
Q 384 1609 779 1909 
Q 1175 2209 1959 2209 
L 2766 2209 
L 2766 2266 
Q 2766 2663 2505 2880 
Q 2244 3097 1772 3097 
Q 1472 3097 1187 3025 
Q 903 2953 641 2809 
L 641 3341 
Q 956 3463 1253 3523 
Q 1550 3584 1831 3584 
Q 2591 3584 2966 3190 
Q 3341 2797 3341 1997 
z
" transform="scale(0.015625)"/>
       <path id="DejaVuSans-69" d="M 603 3500 
L 1178 3500 
L 1178 0 
L 603 0 
L 603 3500 
z
M 603 4863 
L 1178 4863 
L 1178 4134 
L 603 4134 
L 603 4863 
z
" transform="scale(0.015625)"/>
       <path id="DejaVuSans-6e" d="M 3513 2113 
L 3513 0 
L 2938 0 
L 2938 2094 
Q 2938 2591 2744 2837 
Q 2550 3084 2163 3084 
Q 1697 3084 1428 2787 
Q 1159 2491 1159 1978 
L 1159 0 
L 581 0 
L 581 3500 
L 1159 3500 
L 1159 2956 
Q 1366 3272 1645 3428 
Q 1925 3584 2291 3584 
Q 2894 3584 3203 3211 
Q 3513 2838 3513 2113 
z
" transform="scale(0.015625)"/>
       <path id="DejaVuSans-20" transform="scale(0.015625)"/>
       <path id="DejaVuSans-28" d="M 1984 4856 
Q 1566 4138 1362 3434 
Q 1159 2731 1159 2009 
Q 1159 1288 1364 580 
Q 1569 -128 1984 -844 
L 1484 -844 
Q 1016 -109 783 600 
Q 550 1309 550 2009 
Q 550 2706 781 3412 
Q 1013 4119 1484 4856 
L 1984 4856 
z
" transform="scale(0.015625)"/>
       <path id="DejaVuSans-6f" d="M 1959 3097 
Q 1497 3097 1228 2736 
Q 959 2375 959 1747 
Q 959 1119 1226 758 
Q 1494 397 1959 397 
Q 2419 397 2687 759 
Q 2956 1122 2956 1747 
Q 2956 2369 2687 2733 
Q 2419 3097 1959 3097 
z
M 1959 3584 
Q 2709 3584 3137 3096 
Q 3566 2609 3566 1747 
Q 3566 888 3137 398 
Q 2709 -91 1959 -91 
Q 1206 -91 779 398 
Q 353 888 353 1747 
Q 353 2609 779 3096 
Q 1206 3584 1959 3584 
z
" transform="scale(0.015625)"/>
       <path id="DejaVuSans-73" d="M 2834 3397 
L 2834 2853 
Q 2591 2978 2328 3040 
Q 2066 3103 1784 3103 
Q 1356 3103 1142 2972 
Q 928 2841 928 2578 
Q 928 2378 1081 2264 
Q 1234 2150 1697 2047 
L 1894 2003 
Q 2506 1872 2764 1633 
Q 3022 1394 3022 966 
Q 3022 478 2636 193 
Q 2250 -91 1575 -91 
Q 1294 -91 989 -36 
Q 684 19 347 128 
L 347 722 
Q 666 556 975 473 
Q 1284 391 1588 391 
Q 1994 391 2212 530 
Q 2431 669 2431 922 
Q 2431 1156 2273 1281 
Q 2116 1406 1581 1522 
L 1381 1569 
Q 847 1681 609 1914 
Q 372 2147 372 2553 
Q 372 3047 722 3315 
Q 1072 3584 1716 3584 
Q 2034 3584 2315 3537 
Q 2597 3491 2834 3397 
z
" transform="scale(0.015625)"/>
       <path id="DejaVuSans-63" d="M 3122 3366 
L 3122 2828 
Q 2878 2963 2633 3030 
Q 2388 3097 2138 3097 
Q 1578 3097 1268 2742 
Q 959 2388 959 1747 
Q 959 1106 1268 751 
Q 1578 397 2138 397 
Q 2388 397 2633 464 
Q 2878 531 3122 666 
L 3122 134 
Q 2881 22 2623 -34 
Q 2366 -91 2075 -91 
Q 1284 -91 818 406 
Q 353 903 353 1747 
Q 353 2603 823 3093 
Q 1294 3584 2113 3584 
Q 2378 3584 2631 3529 
Q 2884 3475 3122 3366 
z
" transform="scale(0.015625)"/>
       <path id="DejaVuSans-6c" d="M 603 4863 
L 1178 4863 
L 1178 0 
L 603 0 
L 603 4863 
z
" transform="scale(0.015625)"/>
       <path id="DejaVuSans-67" d="M 2906 1791 
Q 2906 2416 2648 2759 
Q 2391 3103 1925 3103 
Q 1463 3103 1205 2759 
Q 947 2416 947 1791 
Q 947 1169 1205 825 
Q 1463 481 1925 481 
Q 2391 481 2648 825 
Q 2906 1169 2906 1791 
z
M 3481 434 
Q 3481 -459 3084 -895 
Q 2688 -1331 1869 -1331 
Q 1566 -1331 1297 -1286 
Q 1028 -1241 775 -1147 
L 775 -588 
Q 1028 -725 1275 -790 
Q 1522 -856 1778 -856 
Q 2344 -856 2625 -561 
Q 2906 -266 2906 331 
L 2906 616 
Q 2728 306 2450 153 
Q 2172 0 1784 0 
Q 1141 0 747 490 
Q 353 981 353 1791 
Q 353 2603 747 3093 
Q 1141 3584 1784 3584 
Q 2172 3584 2450 3431 
Q 2728 3278 2906 2969 
L 2906 3500 
L 3481 3500 
L 3481 434 
z
" transform="scale(0.015625)"/>
       <path id="DejaVuSans-29" d="M 513 4856 
L 1013 4856 
Q 1481 4119 1714 3412 
Q 1947 2706 1947 2009 
Q 1947 1309 1714 600 
Q 1481 -109 1013 -844 
L 513 -844 
Q 928 -128 1133 580 
Q 1338 1288 1338 2009 
Q 1338 2731 1133 3434 
Q 928 4138 513 4856 
z
" transform="scale(0.015625)"/>
      </defs>
      <use xlink:href="#DejaVuSans-54"/>
      <use xlink:href="#DejaVuSans-72" transform="translate(46.333984 0)"/>
      <use xlink:href="#DejaVuSans-61" transform="translate(87.447266 0)"/>
      <use xlink:href="#DejaVuSans-69" transform="translate(148.726562 0)"/>
      <use xlink:href="#DejaVuSans-6e" transform="translate(176.509766 0)"/>
      <use xlink:href="#DejaVuSans-20" transform="translate(239.888672 0)"/>
      <use xlink:href="#DejaVuSans-28" transform="translate(271.675781 0)"/>
      <use xlink:href="#DejaVuSans-6e" transform="translate(310.689453 0)"/>
      <use xlink:href="#DejaVuSans-6f" transform="translate(374.068359 0)"/>
      <use xlink:href="#DejaVuSans-20" transform="translate(435.25 0)"/>
      <use xlink:href="#DejaVuSans-73" transform="translate(467.037109 0)"/>
      <use xlink:href="#DejaVuSans-63" transform="translate(519.136719 0)"/>
      <use xlink:href="#DejaVuSans-61" transform="translate(574.117188 0)"/>
      <use xlink:href="#DejaVuSans-6c" transform="translate(635.396484 0)"/>
      <use xlink:href="#DejaVuSans-69" transform="translate(663.179688 0)"/>
      <use xlink:href="#DejaVuSans-6e" transform="translate(690.962891 0)"/>
      <use xlink:href="#DejaVuSans-67" transform="translate(754.341797 0)"/>
      <use xlink:href="#DejaVuSans-29" transform="translate(817.818359 0)"/>
     </g>
    </g>
    <g id="line2d_42">
     <path d="M 60.378125 252.494187 
L 70.378125 252.494187 
L 80.378125 252.494187 
" style="fill: none; stroke: #2ca02c; stroke-width: 1.5; stroke-linecap: square"/>
    </g>
    <g id="text_15">
     <!-- Validation (no scaling) -->
     <g transform="translate(88.378125 255.994187) scale(0.1 -0.1)">
      <defs>
       <path id="DejaVuSans-56" d="M 1831 0 
L 50 4666 
L 709 4666 
L 2188 738 
L 3669 4666 
L 4325 4666 
L 2547 0 
L 1831 0 
z
" transform="scale(0.015625)"/>
       <path id="DejaVuSans-64" d="M 2906 2969 
L 2906 4863 
L 3481 4863 
L 3481 0 
L 2906 0 
L 2906 525 
Q 2725 213 2448 61 
Q 2172 -91 1784 -91 
Q 1150 -91 751 415 
Q 353 922 353 1747 
Q 353 2572 751 3078 
Q 1150 3584 1784 3584 
Q 2172 3584 2448 3432 
Q 2725 3281 2906 2969 
z
M 947 1747 
Q 947 1113 1208 752 
Q 1469 391 1925 391 
Q 2381 391 2643 752 
Q 2906 1113 2906 1747 
Q 2906 2381 2643 2742 
Q 2381 3103 1925 3103 
Q 1469 3103 1208 2742 
Q 947 2381 947 1747 
z
" transform="scale(0.015625)"/>
       <path id="DejaVuSans-74" d="M 1172 4494 
L 1172 3500 
L 2356 3500 
L 2356 3053 
L 1172 3053 
L 1172 1153 
Q 1172 725 1289 603 
Q 1406 481 1766 481 
L 2356 481 
L 2356 0 
L 1766 0 
Q 1100 0 847 248 
Q 594 497 594 1153 
L 594 3053 
L 172 3053 
L 172 3500 
L 594 3500 
L 594 4494 
L 1172 4494 
z
" transform="scale(0.015625)"/>
      </defs>
      <use xlink:href="#DejaVuSans-56"/>
      <use xlink:href="#DejaVuSans-61" transform="translate(60.658203 0)"/>
      <use xlink:href="#DejaVuSans-6c" transform="translate(121.9375 0)"/>
      <use xlink:href="#DejaVuSans-69" transform="translate(149.720703 0)"/>
      <use xlink:href="#DejaVuSans-64" transform="translate(177.503906 0)"/>
      <use xlink:href="#DejaVuSans-61" transform="translate(240.980469 0)"/>
      <use xlink:href="#DejaVuSans-74" transform="translate(302.259766 0)"/>
      <use xlink:href="#DejaVuSans-69" transform="translate(341.46875 0)"/>
      <use xlink:href="#DejaVuSans-6f" transform="translate(369.251953 0)"/>
      <use xlink:href="#DejaVuSans-6e" transform="translate(430.433594 0)"/>
      <use xlink:href="#DejaVuSans-20" transform="translate(493.8125 0)"/>
      <use xlink:href="#DejaVuSans-28" transform="translate(525.599609 0)"/>
      <use xlink:href="#DejaVuSans-6e" transform="translate(564.613281 0)"/>
      <use xlink:href="#DejaVuSans-6f" transform="translate(627.992188 0)"/>
      <use xlink:href="#DejaVuSans-20" transform="translate(689.173828 0)"/>
      <use xlink:href="#DejaVuSans-73" transform="translate(720.960938 0)"/>
      <use xlink:href="#DejaVuSans-63" transform="translate(773.060547 0)"/>
      <use xlink:href="#DejaVuSans-61" transform="translate(828.041016 0)"/>
      <use xlink:href="#DejaVuSans-6c" transform="translate(889.320312 0)"/>
      <use xlink:href="#DejaVuSans-69" transform="translate(917.103516 0)"/>
      <use xlink:href="#DejaVuSans-6e" transform="translate(944.886719 0)"/>
      <use xlink:href="#DejaVuSans-67" transform="translate(1008.265625 0)"/>
      <use xlink:href="#DejaVuSans-29" transform="translate(1071.742188 0)"/>
     </g>
    </g>
    <g id="line2d_43">
     <path d="M 60.378125 267.172312 
L 70.378125 267.172312 
L 80.378125 267.172312 
" style="fill: none; stroke-dasharray: 5.55,2.4; stroke-dashoffset: 0; stroke: #d62728; stroke-width: 1.5"/>
    </g>
    <g id="text_16">
     <!-- Train (MSE loss) -->
     <g transform="translate(88.378125 270.672312) scale(0.1 -0.1)">
      <defs>
       <path id="DejaVuSans-4d" d="M 628 4666 
L 1569 4666 
L 2759 1491 
L 3956 4666 
L 4897 4666 
L 4897 0 
L 4281 0 
L 4281 4097 
L 3078 897 
L 2444 897 
L 1241 4097 
L 1241 0 
L 628 0 
L 628 4666 
z
" transform="scale(0.015625)"/>
       <path id="DejaVuSans-53" d="M 3425 4513 
L 3425 3897 
Q 3066 4069 2747 4153 
Q 2428 4238 2131 4238 
Q 1616 4238 1336 4038 
Q 1056 3838 1056 3469 
Q 1056 3159 1242 3001 
Q 1428 2844 1947 2747 
L 2328 2669 
Q 3034 2534 3370 2195 
Q 3706 1856 3706 1288 
Q 3706 609 3251 259 
Q 2797 -91 1919 -91 
Q 1588 -91 1214 -16 
Q 841 59 441 206 
L 441 856 
Q 825 641 1194 531 
Q 1563 422 1919 422 
Q 2459 422 2753 634 
Q 3047 847 3047 1241 
Q 3047 1584 2836 1778 
Q 2625 1972 2144 2069 
L 1759 2144 
Q 1053 2284 737 2584 
Q 422 2884 422 3419 
Q 422 4038 858 4394 
Q 1294 4750 2059 4750 
Q 2388 4750 2728 4690 
Q 3069 4631 3425 4513 
z
" transform="scale(0.015625)"/>
       <path id="DejaVuSans-45" d="M 628 4666 
L 3578 4666 
L 3578 4134 
L 1259 4134 
L 1259 2753 
L 3481 2753 
L 3481 2222 
L 1259 2222 
L 1259 531 
L 3634 531 
L 3634 0 
L 628 0 
L 628 4666 
z
" transform="scale(0.015625)"/>
      </defs>
      <use xlink:href="#DejaVuSans-54"/>
      <use xlink:href="#DejaVuSans-72" transform="translate(46.333984 0)"/>
      <use xlink:href="#DejaVuSans-61" transform="translate(87.447266 0)"/>
      <use xlink:href="#DejaVuSans-69" transform="translate(148.726562 0)"/>
      <use xlink:href="#DejaVuSans-6e" transform="translate(176.509766 0)"/>
      <use xlink:href="#DejaVuSans-20" transform="translate(239.888672 0)"/>
      <use xlink:href="#DejaVuSans-28" transform="translate(271.675781 0)"/>
      <use xlink:href="#DejaVuSans-4d" transform="translate(310.689453 0)"/>
      <use xlink:href="#DejaVuSans-53" transform="translate(396.96875 0)"/>
      <use xlink:href="#DejaVuSans-45" transform="translate(460.445312 0)"/>
      <use xlink:href="#DejaVuSans-20" transform="translate(523.628906 0)"/>
      <use xlink:href="#DejaVuSans-6c" transform="translate(555.416016 0)"/>
      <use xlink:href="#DejaVuSans-6f" transform="translate(583.199219 0)"/>
      <use xlink:href="#DejaVuSans-73" transform="translate(644.380859 0)"/>
      <use xlink:href="#DejaVuSans-73" transform="translate(696.480469 0)"/>
      <use xlink:href="#DejaVuSans-29" transform="translate(748.580078 0)"/>
     </g>
    </g>
    <g id="line2d_44">
     <path d="M 60.378125 281.850437 
L 70.378125 281.850437 
L 80.378125 281.850437 
" style="fill: none; stroke: #d62728; stroke-width: 1.5; stroke-linecap: square"/>
    </g>
    <g id="text_17">
     <!-- Validation (MSE loss) -->
     <g transform="translate(88.378125 285.350437) scale(0.1 -0.1)">
      <use xlink:href="#DejaVuSans-56"/>
      <use xlink:href="#DejaVuSans-61" transform="translate(60.658203 0)"/>
      <use xlink:href="#DejaVuSans-6c" transform="translate(121.9375 0)"/>
      <use xlink:href="#DejaVuSans-69" transform="translate(149.720703 0)"/>
      <use xlink:href="#DejaVuSans-64" transform="translate(177.503906 0)"/>
      <use xlink:href="#DejaVuSans-61" transform="translate(240.980469 0)"/>
      <use xlink:href="#DejaVuSans-74" transform="translate(302.259766 0)"/>
      <use xlink:href="#DejaVuSans-69" transform="translate(341.46875 0)"/>
      <use xlink:href="#DejaVuSans-6f" transform="translate(369.251953 0)"/>
      <use xlink:href="#DejaVuSans-6e" transform="translate(430.433594 0)"/>
      <use xlink:href="#DejaVuSans-20" transform="translate(493.8125 0)"/>
      <use xlink:href="#DejaVuSans-28" transform="translate(525.599609 0)"/>
      <use xlink:href="#DejaVuSans-4d" transform="translate(564.613281 0)"/>
      <use xlink:href="#DejaVuSans-53" transform="translate(650.892578 0)"/>
      <use xlink:href="#DejaVuSans-45" transform="translate(714.369141 0)"/>
      <use xlink:href="#DejaVuSans-20" transform="translate(777.552734 0)"/>
      <use xlink:href="#DejaVuSans-6c" transform="translate(809.339844 0)"/>
      <use xlink:href="#DejaVuSans-6f" transform="translate(837.123047 0)"/>
      <use xlink:href="#DejaVuSans-73" transform="translate(898.304688 0)"/>
      <use xlink:href="#DejaVuSans-73" transform="translate(950.404297 0)"/>
      <use xlink:href="#DejaVuSans-29" transform="translate(1002.503906 0)"/>
     </g>
    </g>
   </g>
  </g>
 </g>
 <defs>
  <clipPath id="p3a1a4b6a4f">
   <rect x="51.378125" y="30.318125" width="357.12" height="266.112"/>
  </clipPath>
 </defs>
</svg>
